<?xml version="1.0" encoding="utf-8" standalone="no"?>
<!DOCTYPE svg PUBLIC "-//W3C//DTD SVG 1.1//EN"
  "http://www.w3.org/Graphics/SVG/1.1/DTD/svg11.dtd">
<svg xmlns:xlink="http://www.w3.org/1999/xlink" width="294.17125pt" height="279.674688pt" viewBox="0 0 294.17125 279.674688" xmlns="http://www.w3.org/2000/svg" version="1.1">
 <metadata>
  <rdf:RDF xmlns:dc="http://purl.org/dc/elements/1.1/" xmlns:cc="http://creativecommons.org/ns#" xmlns:rdf="http://www.w3.org/1999/02/22-rdf-syntax-ns#">
   <cc:Work>
    <dc:type rdf:resource="http://purl.org/dc/dcmitype/StillImage"/>
    <dc:date>2025-08-25T15:40:38.292284</dc:date>
    <dc:format>image/svg+xml</dc:format>
    <dc:creator>
     <cc:Agent>
      <dc:title>Matplotlib v3.8.4, https://matplotlib.org/</dc:title>
     </cc:Agent>
    </dc:creator>
   </cc:Work>
  </rdf:RDF>
 </metadata>
 <defs>
  <style type="text/css">*{stroke-linejoin: round; stroke-linecap: butt}</style>
 </defs>
 <g id="figure_1">
  <g id="patch_1">
   <path d="M 0 279.674688 
L 294.17125 279.674688 
L 294.17125 0 
L 0 0 
z
" style="fill: #ffffff"/>
  </g>
  <g id="axes_1">
   <g id="patch_2">
    <path d="M 43.78125 242.118437 
L 266.550811 242.118437 
L 266.550811 20.798437 
L 43.78125 20.798437 
z
" style="fill: #ffffff"/>
   </g>
   <g id="PolyCollection_1">
    <defs>
     <path id="mc979380153" d="M 62.563174 -221.98699 
L 62.127587 -221.98699 
L 62.070703 -222.441606 
L 62.003028 -222.896221 
L 61.923669 -223.350836 
L 61.831968 -223.805452 
L 61.727579 -224.260067 
L 61.610549 -224.714682 
L 61.481388 -225.169298 
L 61.341114 -225.623913 
L 61.19128 -226.078529 
L 61.033966 -226.533144 
L 60.871734 -226.987759 
L 60.707544 -227.442375 
L 60.544636 -227.89699 
L 60.386368 -228.351605 
L 60.236044 -228.806221 
L 60.096714 -229.260836 
L 59.970982 -229.715451 
L 59.860826 -230.170067 
L 59.767443 -230.624682 
L 59.691145 -231.079297 
L 59.631299 -231.533913 
L 59.58633 -231.988528 
L 59.553781 -232.443143 
L 59.530432 -232.897759 
L 59.512457 -233.352374 
L 59.495615 -233.806989 
L 59.475457 -234.261605 
L 59.447526 -234.71622 
L 59.407535 -235.170835 
L 59.351509 -235.625451 
L 59.27588 -236.080066 
L 59.177532 -236.534681 
L 59.053793 -236.989297 
L 58.902389 -237.443912 
L 58.721365 -237.898527 
L 58.508995 -238.353143 
L 58.263701 -238.807758 
L 57.983992 -239.262374 
L 57.668447 -239.716989 
L 57.315748 -240.171604 
L 56.924776 -240.62622 
L 56.494753 -241.080835 
L 56.025443 -241.53545 
L 55.517384 -241.990066 
L 54.972131 -242.444681 
L 54.392496 -242.899296 
L 53.782752 -243.353912 
L 53.148783 -243.808527 
L 52.498151 -244.263142 
L 51.840071 -244.717758 
L 51.18528 -245.172373 
L 50.545788 -245.626988 
L 49.934528 -246.081604 
L 49.364907 -246.536219 
L 48.85028 -246.990834 
L 48.403382 -247.44545 
L 48.035738 -247.900065 
L 47.757099 -248.35468 
L 47.574944 -248.809296 
L 47.494076 -249.263911 
L 47.516358 -249.718526 
L 47.640595 -250.173142 
L 47.862601 -250.627757 
L 48.175422 -251.082373 
L 48.569729 -251.536988 
L 49.034334 -251.991603 
L 49.556804 -252.446219 
L 50.124119 -252.900834 
L 50.723331 -253.355449 
L 51.342166 -253.810065 
L 51.969537 -254.26468 
L 52.595925 -254.719295 
L 53.213614 -255.173911 
L 53.816768 -255.628526 
L 54.401369 -256.083141 
L 54.965022 -256.537757 
L 55.506671 -256.992372 
L 56.026263 -257.446987 
L 56.524381 -257.901603 
L 57.001912 -258.356218 
L 57.459746 -258.810833 
L 57.898557 -259.265449 
L 58.318658 -259.720064 
L 58.719942 -260.174679 
L 59.101892 -260.629295 
L 59.463663 -261.08391 
L 59.804197 -261.538525 
L 60.122369 -261.993141 
L 60.417129 -262.447756 
L 60.687638 -262.902371 
L 60.933372 -263.356987 
L 61.154197 -263.811602 
L 61.350404 -264.266218 
L 61.522706 -264.720833 
L 61.672207 -265.175448 
L 61.800345 -265.630064 
L 61.908817 -266.084679 
L 61.999496 -266.539294 
L 62.074349 -266.99391 
L 62.616412 -266.99391 
L 62.616412 -266.99391 
L 62.691264 -266.539294 
L 62.781943 -266.084679 
L 62.890415 -265.630064 
L 63.018553 -265.175448 
L 63.168055 -264.720833 
L 63.340356 -264.266218 
L 63.536563 -263.811602 
L 63.757388 -263.356987 
L 64.003122 -262.902371 
L 64.273631 -262.447756 
L 64.568391 -261.993141 
L 64.886563 -261.538525 
L 65.227098 -261.08391 
L 65.588868 -260.629295 
L 65.970819 -260.174679 
L 66.372102 -259.720064 
L 66.792203 -259.265449 
L 67.231015 -258.810833 
L 67.688849 -258.356218 
L 68.166379 -257.901603 
L 68.664497 -257.446987 
L 69.184089 -256.992372 
L 69.725738 -256.537757 
L 70.289391 -256.083141 
L 70.873992 -255.628526 
L 71.477146 -255.173911 
L 72.094835 -254.719295 
L 72.721224 -254.26468 
L 73.348595 -253.810065 
L 73.96743 -253.355449 
L 74.566641 -252.900834 
L 75.133957 -252.446219 
L 75.656426 -251.991603 
L 76.121031 -251.536988 
L 76.515338 -251.082373 
L 76.828159 -250.627757 
L 77.050165 -250.173142 
L 77.174403 -249.718526 
L 77.196684 -249.263911 
L 77.115817 -248.809296 
L 76.933661 -248.35468 
L 76.655022 -247.900065 
L 76.287378 -247.44545 
L 75.84048 -246.990834 
L 75.325854 -246.536219 
L 74.756232 -246.081604 
L 74.144972 -245.626988 
L 73.50548 -245.172373 
L 72.850689 -244.717758 
L 72.192609 -244.263142 
L 71.541977 -243.808527 
L 70.908008 -243.353912 
L 70.298264 -242.899296 
L 69.718629 -242.444681 
L 69.173376 -241.990066 
L 68.665317 -241.53545 
L 68.196008 -241.080835 
L 67.765984 -240.62622 
L 67.375012 -240.171604 
L 67.022314 -239.716989 
L 66.706768 -239.262374 
L 66.427059 -238.807758 
L 66.181765 -238.353143 
L 65.969395 -237.898527 
L 65.788371 -237.443912 
L 65.636967 -236.989297 
L 65.513228 -236.534681 
L 65.41488 -236.080066 
L 65.339251 -235.625451 
L 65.283225 -235.170835 
L 65.243234 -234.71622 
L 65.215303 -234.261605 
L 65.195146 -233.806989 
L 65.178303 -233.352374 
L 65.160328 -232.897759 
L 65.136979 -232.443143 
L 65.104431 -231.988528 
L 65.059461 -231.533913 
L 64.999615 -231.079297 
L 64.923317 -230.624682 
L 64.829934 -230.170067 
L 64.719778 -229.715451 
L 64.594046 -229.260836 
L 64.454716 -228.806221 
L 64.304392 -228.351605 
L 64.146124 -227.89699 
L 63.983216 -227.442375 
L 63.819027 -226.987759 
L 63.656795 -226.533144 
L 63.499481 -226.078529 
L 63.349646 -225.623913 
L 63.209372 -225.169298 
L 63.080211 -224.714682 
L 62.963182 -224.260067 
L 62.858793 -223.805452 
L 62.767091 -223.350836 
L 62.687733 -222.896221 
L 62.620057 -222.441606 
L 62.563174 -221.98699 
z
" style="stroke: #595959; stroke-width: 1.25"/>
    </defs>
    <g clip-path="url(#p5f5f4c589f)">
     <use xlink:href="#mc979380153" x="0" y="279.674688" style="fill: #72b6a1; stroke: #595959; stroke-width: 1.25"/>
    </g>
   </g>
   <g id="PolyCollection_2">
    <defs>
     <path id="m9bbb3e4b6f" d="M 99.627602 -252.995321 
L 99.319679 -252.995321 
L 99.28585 -253.069417 
L 99.24695 -253.143512 
L 99.20281 -253.217608 
L 99.153407 -253.291703 
L 99.098886 -253.365799 
L 99.039585 -253.439894 
L 98.97605 -253.51399 
L 98.909042 -253.588085 
L 98.839528 -253.662181 
L 98.768662 -253.736277 
L 98.69775 -253.810372 
L 98.628196 -253.884468 
L 98.561439 -253.958563 
L 98.498879 -254.032659 
L 98.441785 -254.106754 
L 98.391208 -254.18085 
L 98.347886 -254.254945 
L 98.31216 -254.329041 
L 98.283891 -254.403136 
L 98.2624 -254.477232 
L 98.246422 -254.551327 
L 98.234087 -254.625423 
L 98.222923 -254.699518 
L 98.209894 -254.773614 
L 98.191464 -254.84771 
L 98.163694 -254.921805 
L 98.122368 -254.995901 
L 98.063148 -255.069996 
L 97.981752 -255.144092 
L 97.874157 -255.218187 
L 97.73681 -255.292283 
L 97.566848 -255.366378 
L 97.362315 -255.440474 
L 97.122361 -255.514569 
L 96.847417 -255.588665 
L 96.539329 -255.66276 
L 96.201436 -255.736856 
L 95.838583 -255.810951 
L 95.45706 -255.885047 
L 95.064462 -255.959142 
L 94.669455 -256.033238 
L 94.281475 -256.107334 
L 93.910343 -256.181429 
L 93.565833 -256.255525 
L 93.257193 -256.32962 
L 92.992663 -256.403716 
L 92.779001 -256.477811 
L 92.621051 -256.551907 
L 92.521378 -256.626002 
L 92.480003 -256.700098 
L 92.494241 -256.774193 
L 92.558664 -256.848289 
L 92.665199 -256.922384 
L 92.803354 -256.99648 
L 92.960566 -257.070575 
L 93.122661 -257.144671 
L 93.274402 -257.218766 
L 93.400107 -257.292862 
L 93.48432 -257.366958 
L 93.512488 -257.441053 
L 93.471646 -257.515149 
L 93.351053 -257.589244 
L 93.142784 -257.66334 
L 92.842221 -257.737435 
L 92.448447 -257.811531 
L 91.9645 -257.885626 
L 91.397474 -257.959722 
L 90.758458 -258.033817 
L 90.06229 -258.107913 
L 89.327134 -258.182008 
L 88.573887 -258.256104 
L 87.825418 -258.330199 
L 87.105691 -258.404295 
L 86.438789 -258.47839 
L 85.847896 -258.552486 
L 85.354284 -258.626582 
L 84.976376 -258.700677 
L 84.728919 -258.774773 
L 84.622336 -258.848868 
L 84.662285 -258.922964 
L 84.849457 -258.997059 
L 85.179633 -259.071155 
L 85.643969 -259.14525 
L 86.229525 -259.219346 
L 86.919961 -259.293441 
L 87.696385 -259.367537 
L 88.538273 -259.441632 
L 89.424419 -259.515728 
L 90.333844 -259.589823 
L 91.246628 -259.663919 
L 92.144605 -259.738015 
L 93.011913 -259.81211 
L 93.835366 -259.886206 
L 94.604654 -259.960301 
L 95.31238 -260.034397 
L 95.953948 -260.108492 
L 96.527335 -260.182588 
L 97.032777 -260.256683 
L 97.472388 -260.330779 
L 101.474892 -260.330779 
L 101.474892 -260.330779 
L 101.914504 -260.256683 
L 102.419945 -260.182588 
L 102.993333 -260.108492 
L 103.634901 -260.034397 
L 104.342626 -259.960301 
L 105.111914 -259.886206 
L 105.935367 -259.81211 
L 106.802675 -259.738015 
L 107.700653 -259.663919 
L 108.613436 -259.589823 
L 109.522862 -259.515728 
L 110.409008 -259.441632 
L 111.250896 -259.367537 
L 112.027319 -259.293441 
L 112.717756 -259.219346 
L 113.303311 -259.14525 
L 113.767648 -259.071155 
L 114.097823 -258.997059 
L 114.284996 -258.922964 
L 114.324944 -258.848868 
L 114.218361 -258.774773 
L 113.970905 -258.700677 
L 113.592997 -258.626582 
L 113.099385 -258.552486 
L 112.508491 -258.47839 
L 111.84159 -258.404295 
L 111.121863 -258.330199 
L 110.373394 -258.256104 
L 109.620146 -258.182008 
L 108.884991 -258.107913 
L 108.188822 -258.033817 
L 107.549806 -257.959722 
L 106.982781 -257.885626 
L 106.498833 -257.811531 
L 106.10506 -257.737435 
L 105.804497 -257.66334 
L 105.596227 -257.589244 
L 105.475635 -257.515149 
L 105.434792 -257.441053 
L 105.462961 -257.366958 
L 105.547174 -257.292862 
L 105.672879 -257.218766 
L 105.824619 -257.144671 
L 105.986714 -257.070575 
L 106.143927 -256.99648 
L 106.282082 -256.922384 
L 106.388617 -256.848289 
L 106.453039 -256.774193 
L 106.467277 -256.700098 
L 106.425903 -256.626002 
L 106.32623 -256.551907 
L 106.168279 -256.477811 
L 105.954617 -256.403716 
L 105.690088 -256.32962 
L 105.381448 -256.255525 
L 105.036937 -256.181429 
L 104.665806 -256.107334 
L 104.277825 -256.033238 
L 103.882819 -255.959142 
L 103.49022 -255.885047 
L 103.108698 -255.810951 
L 102.745844 -255.736856 
L 102.407951 -255.66276 
L 102.099864 -255.588665 
L 101.82492 -255.514569 
L 101.584966 -255.440474 
L 101.380432 -255.366378 
L 101.21047 -255.292283 
L 101.073123 -255.218187 
L 100.965528 -255.144092 
L 100.884132 -255.069996 
L 100.824912 -254.995901 
L 100.783586 -254.921805 
L 100.755816 -254.84771 
L 100.737387 -254.773614 
L 100.724358 -254.699518 
L 100.713194 -254.625423 
L 100.700858 -254.551327 
L 100.68488 -254.477232 
L 100.663389 -254.403136 
L 100.63512 -254.329041 
L 100.599394 -254.254945 
L 100.556073 -254.18085 
L 100.505495 -254.106754 
L 100.448401 -254.032659 
L 100.385841 -253.958563 
L 100.319085 -253.884468 
L 100.24953 -253.810372 
L 100.178618 -253.736277 
L 100.107753 -253.662181 
L 100.038239 -253.588085 
L 99.971231 -253.51399 
L 99.907696 -253.439894 
L 99.848394 -253.365799 
L 99.793873 -253.291703 
L 99.74447 -253.217608 
L 99.700331 -253.143512 
L 99.66143 -253.069417 
L 99.627602 -252.995321 
z
" style="stroke: #595959; stroke-width: 1.25"/>
    </defs>
    <g clip-path="url(#p5f5f4c589f)">
     <use xlink:href="#m9bbb3e4b6f" x="0" y="279.674688" style="fill: #e99675; stroke: #595959; stroke-width: 1.25"/>
    </g>
   </g>
   <g id="PolyCollection_3">
    <defs>
     <path id="m232d4e8653" d="M 136.817948 -122.928146 
L 136.385853 -122.928146 
L 136.327749 -123.886128 
L 136.257993 -124.84411 
L 136.175267 -125.802091 
L 136.07829 -126.760073 
L 135.965841 -127.718055 
L 135.836751 -128.676037 
L 135.689893 -129.634019 
L 135.524145 -130.592001 
L 135.33834 -131.549983 
L 135.131206 -132.507965 
L 134.901305 -133.465947 
L 134.646986 -134.423929 
L 134.366352 -135.38191 
L 134.057285 -136.339892 
L 133.717501 -137.297874 
L 133.344681 -138.255856 
L 132.936649 -139.213838 
L 132.491614 -140.17182 
L 132.00844 -141.129802 
L 131.486934 -142.087784 
L 130.928127 -143.045766 
L 130.334493 -144.003748 
L 129.710101 -144.96173 
L 129.060656 -145.919711 
L 128.39341 -146.877693 
L 127.716954 -147.835675 
L 127.040872 -148.793657 
L 126.375312 -149.751639 
L 125.730473 -150.709621 
L 125.116088 -151.667603 
L 124.54093 -152.625585 
L 124.012391 -153.583567 
L 123.53618 -154.541549 
L 123.116172 -155.49953 
L 122.754407 -156.457512 
L 122.451242 -157.415494 
L 122.205634 -158.373476 
L 122.015513 -159.331458 
L 121.878197 -160.28944 
L 121.790801 -161.247422 
L 121.750596 -162.205404 
L 121.755263 -163.163386 
L 121.803035 -164.121368 
L 121.892707 -165.07935 
L 122.023522 -166.037331 
L 122.194967 -166.995313 
L 122.406497 -167.953295 
L 122.657258 -168.911277 
L 122.945824 -169.869259 
L 123.270006 -170.827241 
L 123.626761 -171.785223 
L 124.012211 -172.743205 
L 124.421766 -173.701187 
L 124.850351 -174.659169 
L 125.29269 -175.61715 
L 125.743623 -176.575132 
L 126.198406 -177.533114 
L 126.652961 -178.491096 
L 127.104041 -179.449078 
L 127.549299 -180.40706 
L 127.987246 -181.365042 
L 128.417118 -182.323024 
L 128.838669 -183.281006 
L 129.25192 -184.238988 
L 129.656908 -185.19697 
L 130.053467 -186.154951 
L 130.441061 -187.112933 
L 130.81871 -188.070915 
L 131.184998 -189.028897 
L 131.538172 -189.986879 
L 131.876306 -190.944861 
L 132.197513 -191.902843 
L 132.500168 -192.860825 
L 132.783115 -193.818807 
L 133.045826 -194.776789 
L 133.288495 -195.73477 
L 133.512054 -196.692752 
L 133.718106 -197.650734 
L 133.908791 -198.608716 
L 134.086598 -199.566698 
L 134.254144 -200.52468 
L 134.413953 -201.482662 
L 134.568254 -202.440644 
L 134.718817 -203.398626 
L 134.866847 -204.356608 
L 135.012939 -205.31459 
L 135.157094 -206.272571 
L 135.298793 -207.230553 
L 135.437103 -208.188535 
L 135.57082 -209.146517 
L 135.698618 -210.104499 
L 135.819186 -211.062481 
L 135.931353 -212.020463 
L 136.034181 -212.978445 
L 136.127031 -213.936427 
L 136.209584 -214.894409 
L 136.281845 -215.85239 
L 136.344113 -216.810372 
L 136.396935 -217.768354 
L 136.806866 -217.768354 
L 136.806866 -217.768354 
L 136.859687 -216.810372 
L 136.921956 -215.85239 
L 136.994217 -214.894409 
L 137.07677 -213.936427 
L 137.16962 -212.978445 
L 137.272448 -212.020463 
L 137.384615 -211.062481 
L 137.505182 -210.104499 
L 137.632981 -209.146517 
L 137.766698 -208.188535 
L 137.905008 -207.230553 
L 138.046707 -206.272571 
L 138.190862 -205.31459 
L 138.336954 -204.356608 
L 138.484984 -203.398626 
L 138.635547 -202.440644 
L 138.789848 -201.482662 
L 138.949657 -200.52468 
L 139.117203 -199.566698 
L 139.29501 -198.608716 
L 139.485695 -197.650734 
L 139.691747 -196.692752 
L 139.915306 -195.73477 
L 140.157975 -194.776789 
L 140.420686 -193.818807 
L 140.703633 -192.860825 
L 141.006288 -191.902843 
L 141.327495 -190.944861 
L 141.665629 -189.986879 
L 142.018803 -189.028897 
L 142.385091 -188.070915 
L 142.76274 -187.112933 
L 143.150334 -186.154951 
L 143.546892 -185.19697 
L 143.951881 -184.238988 
L 144.365132 -183.281006 
L 144.786682 -182.323024 
L 145.216555 -181.365042 
L 145.654502 -180.40706 
L 146.09976 -179.449078 
L 146.55084 -178.491096 
L 147.005395 -177.533114 
L 147.460178 -176.575132 
L 147.911111 -175.61715 
L 148.35345 -174.659169 
L 148.782035 -173.701187 
L 149.19159 -172.743205 
L 149.57704 -171.785223 
L 149.933795 -170.827241 
L 150.257977 -169.869259 
L 150.546543 -168.911277 
L 150.797304 -167.953295 
L 151.008834 -166.995313 
L 151.180279 -166.037331 
L 151.311094 -165.07935 
L 151.400766 -164.121368 
L 151.448538 -163.163386 
L 151.453205 -162.205404 
L 151.412999 -161.247422 
L 151.325604 -160.28944 
L 151.188288 -159.331458 
L 150.998167 -158.373476 
L 150.752559 -157.415494 
L 150.449394 -156.457512 
L 150.087629 -155.49953 
L 149.667621 -154.541549 
L 149.19141 -153.583567 
L 148.66287 -152.625585 
L 148.087713 -151.667603 
L 147.473328 -150.709621 
L 146.828489 -149.751639 
L 146.162929 -148.793657 
L 145.486847 -147.835675 
L 144.810391 -146.877693 
L 144.143145 -145.919711 
L 143.4937 -144.96173 
L 142.869308 -144.003748 
L 142.275674 -143.045766 
L 141.716867 -142.087784 
L 141.195361 -141.129802 
L 140.712186 -140.17182 
L 140.267151 -139.213838 
L 139.85912 -138.255856 
L 139.4863 -137.297874 
L 139.146516 -136.339892 
L 138.837449 -135.38191 
L 138.556815 -134.423929 
L 138.302496 -133.465947 
L 138.072595 -132.507965 
L 137.865461 -131.549983 
L 137.679656 -130.592001 
L 137.513908 -129.634019 
L 137.36705 -128.676037 
L 137.23796 -127.718055 
L 137.125511 -126.760073 
L 137.028534 -125.802091 
L 136.945808 -124.84411 
L 136.876052 -123.886128 
L 136.817948 -122.928146 
z
" style="stroke: #595959; stroke-width: 1.25"/>
    </defs>
    <g clip-path="url(#p5f5f4c589f)">
     <use xlink:href="#m232d4e8653" x="0" y="279.674688" style="fill: #95a3c3; stroke: #595959; stroke-width: 1.25"/>
    </g>
   </g>
   <g id="PolyCollection_4">
    <defs>
     <path id="m439e32567b" d="M 174.063794 -107.637538 
L 173.396528 -107.637538 
L 173.315809 -108.367888 
L 173.220751 -109.098238 
L 173.110149 -109.828588 
L 172.983001 -110.558937 
L 172.83858 -111.289287 
L 172.676492 -112.019637 
L 172.496726 -112.749986 
L 172.299681 -113.480336 
L 172.086171 -114.210686 
L 171.857399 -114.941036 
L 171.614903 -115.671385 
L 171.360469 -116.401735 
L 171.096018 -117.132085 
L 170.823472 -117.862435 
L 170.544612 -118.592784 
L 170.260928 -119.323134 
L 169.97349 -120.053484 
L 169.682843 -120.783833 
L 169.388935 -121.514183 
L 169.0911 -122.244533 
L 168.788087 -122.974883 
L 168.478145 -123.705232 
L 168.159162 -124.435582 
L 167.828838 -125.165932 
L 167.484893 -125.896282 
L 167.125282 -126.626631 
L 166.748414 -127.356981 
L 166.353332 -128.087331 
L 165.939877 -128.817681 
L 165.508779 -129.54803 
L 165.061708 -130.27838 
L 164.601255 -131.00873 
L 164.130861 -131.739079 
L 163.654695 -132.469429 
L 163.177493 -133.199779 
L 162.704376 -133.930129 
L 162.240653 -134.660478 
L 161.791624 -135.390828 
L 161.362408 -136.121178 
L 160.957774 -136.851528 
L 160.582014 -137.581877 
L 160.238831 -138.312227 
L 159.93127 -139.042577 
L 159.661658 -139.772926 
L 159.431581 -140.503276 
L 159.24188 -141.233626 
L 159.09266 -141.963976 
L 158.983333 -142.694325 
L 158.912665 -143.424675 
L 158.878857 -144.155025 
L 158.879631 -144.885375 
L 158.912347 -145.615724 
L 158.974122 -146.346074 
L 159.061966 -147.076424 
L 159.17291 -147.806774 
L 159.304143 -148.537123 
L 159.453117 -149.267473 
L 159.617645 -149.997823 
L 159.795961 -150.728172 
L 159.986762 -151.458522 
L 160.189205 -152.188872 
L 160.402889 -152.919222 
L 160.627803 -153.649571 
L 160.864264 -154.379921 
L 161.112842 -155.110271 
L 161.374282 -155.840621 
L 161.649431 -156.57097 
L 161.939164 -157.30132 
L 162.244329 -158.03167 
L 162.565689 -158.762019 
L 162.903871 -159.492369 
L 163.259329 -160.222719 
L 163.632292 -160.953069 
L 164.022718 -161.683418 
L 164.43025 -162.413768 
L 164.854165 -163.144118 
L 165.293333 -163.874468 
L 165.746177 -164.604817 
L 166.210658 -165.335167 
L 166.684265 -166.065517 
L 167.164043 -166.795867 
L 167.646637 -167.526216 
L 168.128373 -168.256566 
L 168.60535 -168.986916 
L 169.073568 -169.717265 
L 169.529056 -170.447615 
L 169.968015 -171.177965 
L 170.38695 -171.908315 
L 170.78279 -172.638664 
L 171.152993 -173.369014 
L 171.495612 -174.099364 
L 171.809348 -174.829714 
L 172.093551 -175.560063 
L 172.348208 -176.290413 
L 172.57389 -177.020763 
L 172.771688 -177.751112 
L 172.943124 -178.481462 
L 173.090053 -179.211812 
L 173.21457 -179.942162 
L 174.245751 -179.942162 
L 174.245751 -179.942162 
L 174.370268 -179.211812 
L 174.517198 -178.481462 
L 174.688633 -177.751112 
L 174.886431 -177.020763 
L 175.112113 -176.290413 
L 175.36677 -175.560063 
L 175.650973 -174.829714 
L 175.964709 -174.099364 
L 176.307329 -173.369014 
L 176.677531 -172.638664 
L 177.073372 -171.908315 
L 177.492306 -171.177965 
L 177.931266 -170.447615 
L 178.386754 -169.717265 
L 178.854971 -168.986916 
L 179.331948 -168.256566 
L 179.813684 -167.526216 
L 180.296279 -166.795867 
L 180.776057 -166.065517 
L 181.249664 -165.335167 
L 181.714144 -164.604817 
L 182.166989 -163.874468 
L 182.606156 -163.144118 
L 183.030072 -162.413768 
L 183.437603 -161.683418 
L 183.828029 -160.953069 
L 184.200992 -160.222719 
L 184.55645 -159.492369 
L 184.894633 -158.762019 
L 185.215992 -158.03167 
L 185.521157 -157.30132 
L 185.810891 -156.57097 
L 186.086039 -155.840621 
L 186.34748 -155.110271 
L 186.596058 -154.379921 
L 186.832518 -153.649571 
L 187.057432 -152.919222 
L 187.271116 -152.188872 
L 187.473559 -151.458522 
L 187.66436 -150.728172 
L 187.842677 -149.997823 
L 188.007204 -149.267473 
L 188.156178 -148.537123 
L 188.287411 -147.806774 
L 188.398356 -147.076424 
L 188.486199 -146.346074 
L 188.547974 -145.615724 
L 188.58069 -144.885375 
L 188.581465 -144.155025 
L 188.547656 -143.424675 
L 188.476988 -142.694325 
L 188.367661 -141.963976 
L 188.218441 -141.233626 
L 188.02874 -140.503276 
L 187.798663 -139.772926 
L 187.529051 -139.042577 
L 187.22149 -138.312227 
L 186.878308 -137.581877 
L 186.502547 -136.851528 
L 186.097913 -136.121178 
L 185.668697 -135.390828 
L 185.219669 -134.660478 
L 184.755945 -133.930129 
L 184.282828 -133.199779 
L 183.805627 -132.469429 
L 183.32946 -131.739079 
L 182.859066 -131.00873 
L 182.398613 -130.27838 
L 181.951542 -129.54803 
L 181.520444 -128.817681 
L 181.106989 -128.087331 
L 180.711908 -127.356981 
L 180.335039 -126.626631 
L 179.975429 -125.896282 
L 179.631483 -125.165932 
L 179.301159 -124.435582 
L 178.982176 -123.705232 
L 178.672235 -122.974883 
L 178.369221 -122.244533 
L 178.071386 -121.514183 
L 177.777478 -120.783833 
L 177.486831 -120.053484 
L 177.199393 -119.323134 
L 176.915709 -118.592784 
L 176.636849 -117.862435 
L 176.364304 -117.132085 
L 176.099853 -116.401735 
L 175.845419 -115.671385 
L 175.602923 -114.941036 
L 175.374151 -114.210686 
L 175.160641 -113.480336 
L 174.963596 -112.749986 
L 174.78383 -112.019637 
L 174.621742 -111.289287 
L 174.47732 -110.558937 
L 174.350172 -109.828588 
L 174.23957 -109.098238 
L 174.144513 -108.367888 
L 174.063794 -107.637538 
z
" style="stroke: #595959; stroke-width: 1.25"/>
    </defs>
    <g clip-path="url(#p5f5f4c589f)">
     <use xlink:href="#m439e32567b" x="0" y="279.674688" style="fill: #db96c0; stroke: #595959; stroke-width: 1.25"/>
    </g>
   </g>
   <g id="PolyCollection_5">
    <defs>
     <path id="m9a0f03e8f7" d="M 211.061896 -105.331444 
L 210.654945 -105.331444 
L 210.602986 -106.153092 
L 210.541966 -106.974741 
L 210.471482 -107.796389 
L 210.391412 -108.618038 
L 210.301978 -109.439687 
L 210.203772 -110.261335 
L 210.097766 -111.082984 
L 209.985282 -111.904633 
L 209.867926 -112.726281 
L 209.747484 -113.54793 
L 209.625778 -114.369578 
L 209.504498 -115.191227 
L 209.38501 -116.012876 
L 209.268171 -116.834524 
L 209.154153 -117.656173 
L 209.042308 -118.477821 
L 208.931073 -119.29947 
L 208.817957 -120.121119 
L 208.699582 -120.942767 
L 208.571817 -121.764416 
L 208.429967 -122.586065 
L 208.269033 -123.407713 
L 208.084004 -124.229362 
L 207.870179 -125.05101 
L 207.623476 -125.872659 
L 207.340729 -126.694308 
L 207.019925 -127.515956 
L 206.660391 -128.337605 
L 206.262898 -129.159253 
L 205.829692 -129.980902 
L 205.364442 -130.802551 
L 204.872106 -131.624199 
L 204.358733 -132.445848 
L 203.831198 -133.267496 
L 203.296895 -134.089145 
L 202.76339 -134.910794 
L 202.238058 -135.732442 
L 201.727723 -136.554091 
L 201.238311 -137.37574 
L 200.774551 -138.197388 
L 200.339734 -139.019037 
L 199.935565 -139.840685 
L 199.562112 -140.662334 
L 199.217885 -141.483983 
L 198.900036 -142.305631 
L 198.604682 -143.12728 
L 198.327344 -143.948928 
L 198.063456 -144.770577 
L 197.808931 -145.592226 
L 197.560709 -146.413874 
L 197.317257 -147.235523 
L 197.078957 -148.057172 
L 196.848338 -148.87882 
L 196.630118 -149.700469 
L 196.431049 -150.522117 
L 196.259544 -151.343766 
L 196.125134 -152.165415 
L 196.037782 -152.987063 
L 196.007117 -153.808712 
L 196.04166 -154.63036 
L 196.14811 -155.452009 
L 196.33076 -156.273658 
L 196.591094 -157.095306 
L 196.927604 -157.916955 
L 197.335849 -158.738604 
L 197.808729 -159.560252 
L 198.336962 -160.381901 
L 198.909702 -161.203549 
L 199.515242 -162.025198 
L 200.141734 -162.846847 
L 200.777861 -163.668495 
L 201.413407 -164.490144 
L 202.039685 -165.311792 
L 202.649794 -166.133441 
L 203.238712 -166.95509 
L 203.803219 -167.776738 
L 204.341699 -168.598387 
L 204.853842 -169.420035 
L 205.340286 -170.241684 
L 205.802251 -171.063333 
L 206.241203 -171.884981 
L 206.658559 -172.70663 
L 207.055474 -173.528279 
L 207.43271 -174.349927 
L 207.790583 -175.171576 
L 208.128988 -175.993224 
L 208.447481 -176.814873 
L 208.745393 -177.636522 
L 209.021977 -178.45817 
L 209.276542 -179.279819 
L 209.508579 -180.101467 
L 209.71786 -180.923116 
L 209.904502 -181.744765 
L 210.068993 -182.566413 
L 210.212188 -183.388062 
L 210.335274 -184.209711 
L 210.439711 -185.031359 
L 210.527164 -185.853008 
L 210.599421 -186.674656 
L 211.11742 -186.674656 
L 211.11742 -186.674656 
L 211.189678 -185.853008 
L 211.27713 -185.031359 
L 211.381568 -184.209711 
L 211.504654 -183.388062 
L 211.647849 -182.566413 
L 211.812339 -181.744765 
L 211.998981 -180.923116 
L 212.208263 -180.101467 
L 212.4403 -179.279819 
L 212.694864 -178.45817 
L 212.971448 -177.636522 
L 213.269361 -176.814873 
L 213.587853 -175.993224 
L 213.926259 -175.171576 
L 214.284132 -174.349927 
L 214.661367 -173.528279 
L 215.058283 -172.70663 
L 215.475638 -171.884981 
L 215.91459 -171.063333 
L 216.376556 -170.241684 
L 216.862999 -169.420035 
L 217.375142 -168.598387 
L 217.913623 -167.776738 
L 218.47813 -166.95509 
L 219.067047 -166.133441 
L 219.677157 -165.311792 
L 220.303435 -164.490144 
L 220.938981 -163.668495 
L 221.575108 -162.846847 
L 222.201599 -162.025198 
L 222.807139 -161.203549 
L 223.379879 -160.381901 
L 223.908112 -159.560252 
L 224.380992 -158.738604 
L 224.789238 -157.916955 
L 225.125748 -157.095306 
L 225.386082 -156.273658 
L 225.568732 -155.452009 
L 225.675182 -154.63036 
L 225.709725 -153.808712 
L 225.67906 -152.987063 
L 225.591707 -152.165415 
L 225.457298 -151.343766 
L 225.285793 -150.522117 
L 225.086724 -149.700469 
L 224.868504 -148.87882 
L 224.637884 -148.057172 
L 224.399584 -147.235523 
L 224.156133 -146.413874 
L 223.907911 -145.592226 
L 223.653386 -144.770577 
L 223.389498 -143.948928 
L 223.112159 -143.12728 
L 222.816806 -142.305631 
L 222.498957 -141.483983 
L 222.15473 -140.662334 
L 221.781277 -139.840685 
L 221.377107 -139.019037 
L 220.94229 -138.197388 
L 220.47853 -137.37574 
L 219.989118 -136.554091 
L 219.478783 -135.732442 
L 218.953452 -134.910794 
L 218.419946 -134.089145 
L 217.885643 -133.267496 
L 217.358109 -132.445848 
L 216.844735 -131.624199 
L 216.3524 -130.802551 
L 215.88715 -129.980902 
L 215.453944 -129.159253 
L 215.056451 -128.337605 
L 214.696916 -127.515956 
L 214.376112 -126.694308 
L 214.093365 -125.872659 
L 213.846663 -125.05101 
L 213.632838 -124.229362 
L 213.447809 -123.407713 
L 213.286874 -122.586065 
L 213.145025 -121.764416 
L 213.017259 -120.942767 
L 212.898885 -120.121119 
L 212.785769 -119.29947 
L 212.674534 -118.477821 
L 212.562688 -117.656173 
L 212.448671 -116.834524 
L 212.331832 -116.012876 
L 212.212344 -115.191227 
L 212.091064 -114.369578 
L 211.969358 -113.54793 
L 211.848916 -112.726281 
L 211.73156 -111.904633 
L 211.619076 -111.082984 
L 211.513069 -110.261335 
L 211.414864 -109.439687 
L 211.325429 -108.618038 
L 211.24536 -107.796389 
L 211.174875 -106.974741 
L 211.113856 -106.153092 
L 211.061896 -105.331444 
z
" style="stroke: #595959; stroke-width: 1.25"/>
    </defs>
    <g clip-path="url(#p5f5f4c589f)">
     <use xlink:href="#m9a0f03e8f7" x="0" y="279.674688" style="fill: #a2c865; stroke: #595959; stroke-width: 1.25"/>
    </g>
   </g>
   <g id="PolyCollection_6">
    <defs>
     <path id="m78352e26e6" d="M 248.153916 -68.455608 
L 247.819446 -68.455608 
L 247.773484 -69.709245 
L 247.719125 -70.962882 
L 247.656141 -72.216519 
L 247.584694 -73.470156 
L 247.505423 -74.723794 
L 247.419501 -75.977431 
L 247.328658 -77.231068 
L 247.235163 -78.484705 
L 247.141761 -79.738343 
L 247.051556 -80.99198 
L 246.967849 -82.245617 
L 246.893945 -83.499254 
L 246.832939 -84.752891 
L 246.787498 -86.006529 
L 246.759665 -87.260166 
L 246.750706 -88.513803 
L 246.761001 -89.76744 
L 246.790012 -91.021078 
L 246.836308 -92.274715 
L 246.897663 -93.528352 
L 246.971191 -94.781989 
L 247.053529 -96.035626 
L 247.141019 -97.289264 
L 247.229896 -98.542901 
L 247.316433 -99.796538 
L 247.397059 -101.050175 
L 247.468417 -102.303813 
L 247.527374 -103.55745 
L 247.570987 -104.811087 
L 247.596437 -106.064724 
L 247.600939 -107.318361 
L 247.581657 -108.571999 
L 247.53564 -109.825636 
L 247.459787 -111.079273 
L 247.350865 -112.33291 
L 247.205585 -113.586548 
L 247.020719 -114.840185 
L 246.793276 -116.093822 
L 246.520706 -117.347459 
L 246.201105 -118.601096 
L 245.833421 -119.854734 
L 245.417607 -121.108371 
L 244.954725 -122.362008 
L 244.446964 -123.615645 
L 243.897583 -124.869283 
L 243.310773 -126.12292 
L 242.691463 -127.376557 
L 242.045088 -128.630194 
L 241.377367 -129.883831 
L 240.694113 -131.137469 
L 240.001118 -132.391106 
L 239.304126 -133.644743 
L 238.608909 -134.89838 
L 237.921419 -136.152017 
L 237.248009 -137.405655 
L 236.595647 -138.659292 
L 235.972097 -139.912929 
L 235.385995 -141.166566 
L 234.846784 -142.420204 
L 234.364475 -143.673841 
L 233.949242 -144.927478 
L 233.610872 -146.181115 
L 233.358117 -147.434752 
L 233.198033 -148.68839 
L 233.135377 -149.942027 
L 233.172144 -151.195664 
L 233.307315 -152.449301 
L 233.536845 -153.702939 
L 233.853911 -154.956576 
L 234.249394 -156.210213 
L 234.71253 -157.46385 
L 235.231665 -158.717487 
L 235.795023 -159.971125 
L 236.3914 -161.224762 
L 237.010706 -162.478399 
L 237.64432 -163.732036 
L 238.285224 -164.985674 
L 238.927938 -166.239311 
L 239.568281 -167.492948 
L 240.203029 -168.746585 
L 240.829516 -170.000222 
L 241.445262 -171.25386 
L 242.047668 -172.507497 
L 242.633824 -173.761134 
L 243.20044 -175.014771 
L 243.74391 -176.268409 
L 244.260464 -177.522046 
L 244.746408 -178.775683 
L 245.198376 -180.02932 
L 245.613585 -181.282957 
L 245.990042 -182.536595 
L 246.326683 -183.790232 
L 246.623431 -185.043869 
L 246.881183 -186.297506 
L 247.101713 -187.551144 
L 247.287527 -188.804781 
L 247.44168 -190.058418 
L 247.567583 -191.312055 
L 247.668808 -192.565692 
L 248.304554 -192.565692 
L 248.304554 -192.565692 
L 248.405779 -191.312055 
L 248.531682 -190.058418 
L 248.685835 -188.804781 
L 248.871649 -187.551144 
L 249.092179 -186.297506 
L 249.349931 -185.043869 
L 249.646679 -183.790232 
L 249.98332 -182.536595 
L 250.359777 -181.282957 
L 250.774986 -180.02932 
L 251.226954 -178.775683 
L 251.712898 -177.522046 
L 252.229452 -176.268409 
L 252.772922 -175.014771 
L 253.339538 -173.761134 
L 253.925694 -172.507497 
L 254.5281 -171.25386 
L 255.143846 -170.000222 
L 255.770333 -168.746585 
L 256.405081 -167.492948 
L 257.045424 -166.239311 
L 257.688138 -164.985674 
L 258.329042 -163.732036 
L 258.962656 -162.478399 
L 259.581962 -161.224762 
L 260.178339 -159.971125 
L 260.741697 -158.717487 
L 261.260832 -157.46385 
L 261.723968 -156.210213 
L 262.119451 -154.956576 
L 262.436517 -153.702939 
L 262.666047 -152.449301 
L 262.801218 -151.195664 
L 262.837985 -149.942027 
L 262.775329 -148.68839 
L 262.615245 -147.434752 
L 262.36249 -146.181115 
L 262.02412 -144.927478 
L 261.608887 -143.673841 
L 261.126578 -142.420204 
L 260.587367 -141.166566 
L 260.001265 -139.912929 
L 259.377715 -138.659292 
L 258.725353 -137.405655 
L 258.051943 -136.152017 
L 257.364453 -134.89838 
L 256.669236 -133.644743 
L 255.972244 -132.391106 
L 255.279249 -131.137469 
L 254.595995 -129.883831 
L 253.928274 -128.630194 
L 253.281899 -127.376557 
L 252.662589 -126.12292 
L 252.075779 -124.869283 
L 251.526398 -123.615645 
L 251.018637 -122.362008 
L 250.555755 -121.108371 
L 250.139941 -119.854734 
L 249.772257 -118.601096 
L 249.452656 -117.347459 
L 249.180086 -116.093822 
L 248.952644 -114.840185 
L 248.767777 -113.586548 
L 248.622497 -112.33291 
L 248.513575 -111.079273 
L 248.437722 -109.825636 
L 248.391705 -108.571999 
L 248.372423 -107.318361 
L 248.376925 -106.064724 
L 248.402375 -104.811087 
L 248.445988 -103.55745 
L 248.504945 -102.303813 
L 248.576303 -101.050175 
L 248.656929 -99.796538 
L 248.743466 -98.542901 
L 248.832343 -97.289264 
L 248.919833 -96.035626 
L 249.002171 -94.781989 
L 249.075699 -93.528352 
L 249.137054 -92.274715 
L 249.18335 -91.021078 
L 249.212361 -89.76744 
L 249.222656 -88.513803 
L 249.213697 -87.260166 
L 249.185864 -86.006529 
L 249.140423 -84.752891 
L 249.079417 -83.499254 
L 249.005513 -82.245617 
L 248.921806 -80.99198 
L 248.831601 -79.738343 
L 248.738199 -78.484705 
L 248.644704 -77.231068 
L 248.553861 -75.977431 
L 248.467939 -74.723794 
L 248.388668 -73.470156 
L 248.317221 -72.216519 
L 248.254237 -70.962882 
L 248.199878 -69.709245 
L 248.153916 -68.455608 
z
" style="stroke: #595959; stroke-width: 1.25"/>
    </defs>
    <g clip-path="url(#p5f5f4c589f)">
     <use xlink:href="#m78352e26e6" x="0" y="279.674688" style="fill: #e5c849; stroke: #595959; stroke-width: 1.25"/>
    </g>
   </g>
   <g id="matplotlib.axis_1">
    <g id="xtick_1">
     <g id="line2d_1">
      <defs>
       <path id="mad9108a8cf" d="M 0 0 
L 0 3.5 
" style="stroke: #000000; stroke-width: 0.8"/>
      </defs>
      <g>
       <use xlink:href="#mad9108a8cf" x="62.34538" y="242.118437" style="stroke: #000000; stroke-width: 0.8"/>
      </g>
     </g>
     <g id="text_1">
      <!-- 1 -->
      <g transform="translate(59.16413 256.716875) scale(0.1 -0.1)">
       <defs>
        <path id="DejaVuSans-31" d="M 794 531 
L 1825 531 
L 1825 4091 
L 703 3866 
L 703 4441 
L 1819 4666 
L 2450 4666 
L 2450 531 
L 3481 531 
L 3481 0 
L 794 0 
L 794 531 
z
" transform="scale(0.015625)"/>
       </defs>
       <use xlink:href="#DejaVuSans-31"/>
      </g>
     </g>
    </g>
    <g id="xtick_2">
     <g id="line2d_2">
      <g>
       <use xlink:href="#mad9108a8cf" x="99.47364" y="242.118437" style="stroke: #000000; stroke-width: 0.8"/>
      </g>
     </g>
     <g id="text_2">
      <!-- 2 -->
      <g transform="translate(96.29239 256.716875) scale(0.1 -0.1)">
       <defs>
        <path id="DejaVuSans-32" d="M 1228 531 
L 3431 531 
L 3431 0 
L 469 0 
L 469 531 
Q 828 903 1448 1529 
Q 2069 2156 2228 2338 
Q 2531 2678 2651 2914 
Q 2772 3150 2772 3378 
Q 2772 3750 2511 3984 
Q 2250 4219 1831 4219 
Q 1534 4219 1204 4116 
Q 875 4013 500 3803 
L 500 4441 
Q 881 4594 1212 4672 
Q 1544 4750 1819 4750 
Q 2544 4750 2975 4387 
Q 3406 4025 3406 3419 
Q 3406 3131 3298 2873 
Q 3191 2616 2906 2266 
Q 2828 2175 2409 1742 
Q 1991 1309 1228 531 
z
" transform="scale(0.015625)"/>
       </defs>
       <use xlink:href="#DejaVuSans-32"/>
      </g>
     </g>
    </g>
    <g id="xtick_3">
     <g id="line2d_3">
      <g>
       <use xlink:href="#mad9108a8cf" x="136.6019" y="242.118437" style="stroke: #000000; stroke-width: 0.8"/>
      </g>
     </g>
     <g id="text_3">
      <!-- 3 -->
      <g transform="translate(133.42065 256.716875) scale(0.1 -0.1)">
       <defs>
        <path id="DejaVuSans-33" d="M 2597 2516 
Q 3050 2419 3304 2112 
Q 3559 1806 3559 1356 
Q 3559 666 3084 287 
Q 2609 -91 1734 -91 
Q 1441 -91 1130 -33 
Q 819 25 488 141 
L 488 750 
Q 750 597 1062 519 
Q 1375 441 1716 441 
Q 2309 441 2620 675 
Q 2931 909 2931 1356 
Q 2931 1769 2642 2001 
Q 2353 2234 1838 2234 
L 1294 2234 
L 1294 2753 
L 1863 2753 
Q 2328 2753 2575 2939 
Q 2822 3125 2822 3475 
Q 2822 3834 2567 4026 
Q 2313 4219 1838 4219 
Q 1578 4219 1281 4162 
Q 984 4106 628 3988 
L 628 4550 
Q 988 4650 1302 4700 
Q 1616 4750 1894 4750 
Q 2613 4750 3031 4423 
Q 3450 4097 3450 3541 
Q 3450 3153 3228 2886 
Q 3006 2619 2597 2516 
z
" transform="scale(0.015625)"/>
       </defs>
       <use xlink:href="#DejaVuSans-33"/>
      </g>
     </g>
    </g>
    <g id="xtick_4">
     <g id="line2d_4">
      <g>
       <use xlink:href="#mad9108a8cf" x="173.730161" y="242.118437" style="stroke: #000000; stroke-width: 0.8"/>
      </g>
     </g>
     <g id="text_4">
      <!-- 4 -->
      <g transform="translate(170.548911 256.716875) scale(0.1 -0.1)">
       <defs>
        <path id="DejaVuSans-34" d="M 2419 4116 
L 825 1625 
L 2419 1625 
L 2419 4116 
z
M 2253 4666 
L 3047 4666 
L 3047 1625 
L 3713 1625 
L 3713 1100 
L 3047 1100 
L 3047 0 
L 2419 0 
L 2419 1100 
L 313 1100 
L 313 1709 
L 2253 4666 
z
" transform="scale(0.015625)"/>
       </defs>
       <use xlink:href="#DejaVuSans-34"/>
      </g>
     </g>
    </g>
    <g id="xtick_5">
     <g id="line2d_5">
      <g>
       <use xlink:href="#mad9108a8cf" x="210.858421" y="242.118437" style="stroke: #000000; stroke-width: 0.8"/>
      </g>
     </g>
     <g id="text_5">
      <!-- 5 -->
      <g transform="translate(207.677171 256.716875) scale(0.1 -0.1)">
       <defs>
        <path id="DejaVuSans-35" d="M 691 4666 
L 3169 4666 
L 3169 4134 
L 1269 4134 
L 1269 2991 
Q 1406 3038 1543 3061 
Q 1681 3084 1819 3084 
Q 2600 3084 3056 2656 
Q 3513 2228 3513 1497 
Q 3513 744 3044 326 
Q 2575 -91 1722 -91 
Q 1428 -91 1123 -41 
Q 819 9 494 109 
L 494 744 
Q 775 591 1075 516 
Q 1375 441 1709 441 
Q 2250 441 2565 725 
Q 2881 1009 2881 1497 
Q 2881 1984 2565 2268 
Q 2250 2553 1709 2553 
Q 1456 2553 1204 2497 
Q 953 2441 691 2322 
L 691 4666 
z
" transform="scale(0.015625)"/>
       </defs>
       <use xlink:href="#DejaVuSans-35"/>
      </g>
     </g>
    </g>
    <g id="xtick_6">
     <g id="line2d_6">
      <g>
       <use xlink:href="#mad9108a8cf" x="247.986681" y="242.118437" style="stroke: #000000; stroke-width: 0.8"/>
      </g>
     </g>
     <g id="text_6">
      <!-- 6 -->
      <g transform="translate(244.805431 256.716875) scale(0.1 -0.1)">
       <defs>
        <path id="DejaVuSans-36" d="M 2113 2584 
Q 1688 2584 1439 2293 
Q 1191 2003 1191 1497 
Q 1191 994 1439 701 
Q 1688 409 2113 409 
Q 2538 409 2786 701 
Q 3034 994 3034 1497 
Q 3034 2003 2786 2293 
Q 2538 2584 2113 2584 
z
M 3366 4563 
L 3366 3988 
Q 3128 4100 2886 4159 
Q 2644 4219 2406 4219 
Q 1781 4219 1451 3797 
Q 1122 3375 1075 2522 
Q 1259 2794 1537 2939 
Q 1816 3084 2150 3084 
Q 2853 3084 3261 2657 
Q 3669 2231 3669 1497 
Q 3669 778 3244 343 
Q 2819 -91 2113 -91 
Q 1303 -91 875 529 
Q 447 1150 447 2328 
Q 447 3434 972 4092 
Q 1497 4750 2381 4750 
Q 2619 4750 2861 4703 
Q 3103 4656 3366 4563 
z
" transform="scale(0.015625)"/>
       </defs>
       <use xlink:href="#DejaVuSans-36"/>
      </g>
     </g>
    </g>
    <g id="text_7">
     <!-- Layer -->
     <g transform="translate(141.224624 270.395) scale(0.1 -0.1)">
      <defs>
       <path id="DejaVuSans-4c" d="M 628 4666 
L 1259 4666 
L 1259 531 
L 3531 531 
L 3531 0 
L 628 0 
L 628 4666 
z
" transform="scale(0.015625)"/>
       <path id="DejaVuSans-61" d="M 2194 1759 
Q 1497 1759 1228 1600 
Q 959 1441 959 1056 
Q 959 750 1161 570 
Q 1363 391 1709 391 
Q 2188 391 2477 730 
Q 2766 1069 2766 1631 
L 2766 1759 
L 2194 1759 
z
M 3341 1997 
L 3341 0 
L 2766 0 
L 2766 531 
Q 2569 213 2275 61 
Q 1981 -91 1556 -91 
Q 1019 -91 701 211 
Q 384 513 384 1019 
Q 384 1609 779 1909 
Q 1175 2209 1959 2209 
L 2766 2209 
L 2766 2266 
Q 2766 2663 2505 2880 
Q 2244 3097 1772 3097 
Q 1472 3097 1187 3025 
Q 903 2953 641 2809 
L 641 3341 
Q 956 3463 1253 3523 
Q 1550 3584 1831 3584 
Q 2591 3584 2966 3190 
Q 3341 2797 3341 1997 
z
" transform="scale(0.015625)"/>
       <path id="DejaVuSans-79" d="M 2059 -325 
Q 1816 -950 1584 -1140 
Q 1353 -1331 966 -1331 
L 506 -1331 
L 506 -850 
L 844 -850 
Q 1081 -850 1212 -737 
Q 1344 -625 1503 -206 
L 1606 56 
L 191 3500 
L 800 3500 
L 1894 763 
L 2988 3500 
L 3597 3500 
L 2059 -325 
z
" transform="scale(0.015625)"/>
       <path id="DejaVuSans-65" d="M 3597 1894 
L 3597 1613 
L 953 1613 
Q 991 1019 1311 708 
Q 1631 397 2203 397 
Q 2534 397 2845 478 
Q 3156 559 3463 722 
L 3463 178 
Q 3153 47 2828 -22 
Q 2503 -91 2169 -91 
Q 1331 -91 842 396 
Q 353 884 353 1716 
Q 353 2575 817 3079 
Q 1281 3584 2069 3584 
Q 2775 3584 3186 3129 
Q 3597 2675 3597 1894 
z
M 3022 2063 
Q 3016 2534 2758 2815 
Q 2500 3097 2075 3097 
Q 1594 3097 1305 2825 
Q 1016 2553 972 2059 
L 3022 2063 
z
" transform="scale(0.015625)"/>
       <path id="DejaVuSans-72" d="M 2631 2963 
Q 2534 3019 2420 3045 
Q 2306 3072 2169 3072 
Q 1681 3072 1420 2755 
Q 1159 2438 1159 1844 
L 1159 0 
L 581 0 
L 581 3500 
L 1159 3500 
L 1159 2956 
Q 1341 3275 1631 3429 
Q 1922 3584 2338 3584 
Q 2397 3584 2469 3576 
Q 2541 3569 2628 3553 
L 2631 2963 
z
" transform="scale(0.015625)"/>
      </defs>
      <use xlink:href="#DejaVuSans-4c"/>
      <use xlink:href="#DejaVuSans-61" x="55.712891"/>
      <use xlink:href="#DejaVuSans-79" x="116.992188"/>
      <use xlink:href="#DejaVuSans-65" x="176.171875"/>
      <use xlink:href="#DejaVuSans-72" x="237.695312"/>
     </g>
    </g>
   </g>
   <g id="matplotlib.axis_2">
    <g id="ytick_1">
     <g id="line2d_7">
      <defs>
       <path id="m5b5e52a534" d="M 0 0 
L -3.5 0 
" style="stroke: #000000; stroke-width: 0.8"/>
      </defs>
      <g>
       <use xlink:href="#m5b5e52a534" x="43.78125" y="242.118437" style="stroke: #000000; stroke-width: 0.8"/>
      </g>
     </g>
     <g id="text_8">
      <!-- 0.0 -->
      <g transform="translate(20.878125 245.917656) scale(0.1 -0.1)">
       <defs>
        <path id="DejaVuSans-30" d="M 2034 4250 
Q 1547 4250 1301 3770 
Q 1056 3291 1056 2328 
Q 1056 1369 1301 889 
Q 1547 409 2034 409 
Q 2525 409 2770 889 
Q 3016 1369 3016 2328 
Q 3016 3291 2770 3770 
Q 2525 4250 2034 4250 
z
M 2034 4750 
Q 2819 4750 3233 4129 
Q 3647 3509 3647 2328 
Q 3647 1150 3233 529 
Q 2819 -91 2034 -91 
Q 1250 -91 836 529 
Q 422 1150 422 2328 
Q 422 3509 836 4129 
Q 1250 4750 2034 4750 
z
" transform="scale(0.015625)"/>
        <path id="DejaVuSans-2e" d="M 684 794 
L 1344 794 
L 1344 0 
L 684 0 
L 684 794 
z
" transform="scale(0.015625)"/>
       </defs>
       <use xlink:href="#DejaVuSans-30"/>
       <use xlink:href="#DejaVuSans-2e" x="63.623047"/>
       <use xlink:href="#DejaVuSans-30" x="95.410156"/>
      </g>
     </g>
    </g>
    <g id="ytick_2">
     <g id="line2d_8">
      <g>
       <use xlink:href="#m5b5e52a534" x="43.78125" y="197.854437" style="stroke: #000000; stroke-width: 0.8"/>
      </g>
     </g>
     <g id="text_9">
      <!-- 0.2 -->
      <g transform="translate(20.878125 201.653656) scale(0.1 -0.1)">
       <use xlink:href="#DejaVuSans-30"/>
       <use xlink:href="#DejaVuSans-2e" x="63.623047"/>
       <use xlink:href="#DejaVuSans-32" x="95.410156"/>
      </g>
     </g>
    </g>
    <g id="ytick_3">
     <g id="line2d_9">
      <g>
       <use xlink:href="#m5b5e52a534" x="43.78125" y="153.590437" style="stroke: #000000; stroke-width: 0.8"/>
      </g>
     </g>
     <g id="text_10">
      <!-- 0.4 -->
      <g transform="translate(20.878125 157.389656) scale(0.1 -0.1)">
       <use xlink:href="#DejaVuSans-30"/>
       <use xlink:href="#DejaVuSans-2e" x="63.623047"/>
       <use xlink:href="#DejaVuSans-34" x="95.410156"/>
      </g>
     </g>
    </g>
    <g id="ytick_4">
     <g id="line2d_10">
      <g>
       <use xlink:href="#m5b5e52a534" x="43.78125" y="109.326437" style="stroke: #000000; stroke-width: 0.8"/>
      </g>
     </g>
     <g id="text_11">
      <!-- 0.6 -->
      <g transform="translate(20.878125 113.125656) scale(0.1 -0.1)">
       <use xlink:href="#DejaVuSans-30"/>
       <use xlink:href="#DejaVuSans-2e" x="63.623047"/>
       <use xlink:href="#DejaVuSans-36" x="95.410156"/>
      </g>
     </g>
    </g>
    <g id="ytick_5">
     <g id="line2d_11">
      <g>
       <use xlink:href="#m5b5e52a534" x="43.78125" y="65.062437" style="stroke: #000000; stroke-width: 0.8"/>
      </g>
     </g>
     <g id="text_12">
      <!-- 0.8 -->
      <g transform="translate(20.878125 68.861656) scale(0.1 -0.1)">
       <defs>
        <path id="DejaVuSans-38" d="M 2034 2216 
Q 1584 2216 1326 1975 
Q 1069 1734 1069 1313 
Q 1069 891 1326 650 
Q 1584 409 2034 409 
Q 2484 409 2743 651 
Q 3003 894 3003 1313 
Q 3003 1734 2745 1975 
Q 2488 2216 2034 2216 
z
M 1403 2484 
Q 997 2584 770 2862 
Q 544 3141 544 3541 
Q 544 4100 942 4425 
Q 1341 4750 2034 4750 
Q 2731 4750 3128 4425 
Q 3525 4100 3525 3541 
Q 3525 3141 3298 2862 
Q 3072 2584 2669 2484 
Q 3125 2378 3379 2068 
Q 3634 1759 3634 1313 
Q 3634 634 3220 271 
Q 2806 -91 2034 -91 
Q 1263 -91 848 271 
Q 434 634 434 1313 
Q 434 1759 690 2068 
Q 947 2378 1403 2484 
z
M 1172 3481 
Q 1172 3119 1398 2916 
Q 1625 2713 2034 2713 
Q 2441 2713 2670 2916 
Q 2900 3119 2900 3481 
Q 2900 3844 2670 4047 
Q 2441 4250 2034 4250 
Q 1625 4250 1398 4047 
Q 1172 3844 1172 3481 
z
" transform="scale(0.015625)"/>
       </defs>
       <use xlink:href="#DejaVuSans-30"/>
       <use xlink:href="#DejaVuSans-2e" x="63.623047"/>
       <use xlink:href="#DejaVuSans-38" x="95.410156"/>
      </g>
     </g>
    </g>
    <g id="ytick_6">
     <g id="line2d_12">
      <g>
       <use xlink:href="#m5b5e52a534" x="43.78125" y="20.798437" style="stroke: #000000; stroke-width: 0.8"/>
      </g>
     </g>
     <g id="text_13">
      <!-- 1.0 -->
      <g transform="translate(20.878125 24.597656) scale(0.1 -0.1)">
       <use xlink:href="#DejaVuSans-31"/>
       <use xlink:href="#DejaVuSans-2e" x="63.623047"/>
       <use xlink:href="#DejaVuSans-30" x="95.410156"/>
      </g>
     </g>
    </g>
    <g id="text_14">
     <!-- Accuracy -->
     <g transform="translate(14.798438 154.286563) rotate(-90) scale(0.1 -0.1)">
      <defs>
       <path id="DejaVuSans-41" d="M 2188 4044 
L 1331 1722 
L 3047 1722 
L 2188 4044 
z
M 1831 4666 
L 2547 4666 
L 4325 0 
L 3669 0 
L 3244 1197 
L 1141 1197 
L 716 0 
L 50 0 
L 1831 4666 
z
" transform="scale(0.015625)"/>
       <path id="DejaVuSans-63" d="M 3122 3366 
L 3122 2828 
Q 2878 2963 2633 3030 
Q 2388 3097 2138 3097 
Q 1578 3097 1268 2742 
Q 959 2388 959 1747 
Q 959 1106 1268 751 
Q 1578 397 2138 397 
Q 2388 397 2633 464 
Q 2878 531 3122 666 
L 3122 134 
Q 2881 22 2623 -34 
Q 2366 -91 2075 -91 
Q 1284 -91 818 406 
Q 353 903 353 1747 
Q 353 2603 823 3093 
Q 1294 3584 2113 3584 
Q 2378 3584 2631 3529 
Q 2884 3475 3122 3366 
z
" transform="scale(0.015625)"/>
       <path id="DejaVuSans-75" d="M 544 1381 
L 544 3500 
L 1119 3500 
L 1119 1403 
Q 1119 906 1312 657 
Q 1506 409 1894 409 
Q 2359 409 2629 706 
Q 2900 1003 2900 1516 
L 2900 3500 
L 3475 3500 
L 3475 0 
L 2900 0 
L 2900 538 
Q 2691 219 2414 64 
Q 2138 -91 1772 -91 
Q 1169 -91 856 284 
Q 544 659 544 1381 
z
M 1991 3584 
L 1991 3584 
z
" transform="scale(0.015625)"/>
      </defs>
      <use xlink:href="#DejaVuSans-41"/>
      <use xlink:href="#DejaVuSans-63" x="66.658203"/>
      <use xlink:href="#DejaVuSans-63" x="121.638672"/>
      <use xlink:href="#DejaVuSans-75" x="176.619141"/>
      <use xlink:href="#DejaVuSans-72" x="239.998047"/>
      <use xlink:href="#DejaVuSans-61" x="281.111328"/>
      <use xlink:href="#DejaVuSans-63" x="342.390625"/>
      <use xlink:href="#DejaVuSans-79" x="397.371094"/>
     </g>
    </g>
   </g>
   <g id="line2d_13">
    <path d="M 43.78125 131.458438 
L 266.550811 131.458438 
" clip-path="url(#p5f5f4c589f)" style="fill: none; stroke-dasharray: 5.55,2.4; stroke-dashoffset: 0; stroke: #808080; stroke-width: 1.5"/>
   </g>
   <g id="patch_3">
    <path d="M 43.78125 242.118437 
L 43.78125 20.798437 
" style="fill: none; stroke: #000000; stroke-width: 0.8; stroke-linejoin: miter; stroke-linecap: square"/>
   </g>
   <g id="patch_4">
    <path d="M 43.78125 242.118437 
L 266.550811 242.118437 
" style="fill: none; stroke: #000000; stroke-width: 0.8; stroke-linejoin: miter; stroke-linecap: square"/>
   </g>
   <g id="PathCollection_1">
    <defs>
     <path id="me21e80307d" d="M 0 1.25 
C 0.331504 1.25 0.649475 1.118292 0.883883 0.883883 
C 1.118292 0.649475 1.25 0.331504 1.25 0 
C 1.25 -0.331504 1.118292 -0.649475 0.883883 -0.883883 
C 0.649475 -1.118292 0.331504 -1.25 0 -1.25 
C -0.331504 -1.25 -0.649475 -1.118292 -0.883883 -0.883883 
C -1.118292 -0.649475 -1.25 -0.331504 -1.25 0 
C -1.25 0.331504 -1.118292 0.649475 -0.883883 0.883883 
C -0.649475 1.118292 -0.331504 1.25 0 1.25 
z
" style="stroke: #595959"/>
    </defs>
    <g clip-path="url(#p5f5f4c589f)">
     <use xlink:href="#me21e80307d" x="62.34538" y="38.504037" style="fill: #595959; stroke: #595959"/>
     <use xlink:href="#me21e80307d" x="62.34538" y="31.864437" style="fill: #595959; stroke: #595959"/>
     <use xlink:href="#me21e80307d" x="62.34538" y="27.438037" style="fill: #595959; stroke: #595959"/>
     <use xlink:href="#me21e80307d" x="62.34538" y="34.077637" style="fill: #595959; stroke: #595959"/>
     <use xlink:href="#me21e80307d" x="62.34538" y="29.651237" style="fill: #595959; stroke: #595959"/>
     <use xlink:href="#me21e80307d" x="62.34538" y="29.651237" style="fill: #595959; stroke: #595959"/>
     <use xlink:href="#me21e80307d" x="62.34538" y="29.651237" style="fill: #595959; stroke: #595959"/>
     <use xlink:href="#me21e80307d" x="62.34538" y="49.570038" style="fill: #595959; stroke: #595959"/>
     <use xlink:href="#me21e80307d" x="62.34538" y="40.717238" style="fill: #595959; stroke: #595959"/>
     <use xlink:href="#me21e80307d" x="62.34538" y="29.651237" style="fill: #595959; stroke: #595959"/>
     <use xlink:href="#me21e80307d" x="62.34538" y="23.011637" style="fill: #595959; stroke: #595959"/>
     <use xlink:href="#me21e80307d" x="62.34538" y="47.356837" style="fill: #595959; stroke: #595959"/>
     <use xlink:href="#me21e80307d" x="62.34538" y="34.077637" style="fill: #595959; stroke: #595959"/>
     <use xlink:href="#me21e80307d" x="62.34538" y="29.651237" style="fill: #595959; stroke: #595959"/>
     <use xlink:href="#me21e80307d" x="62.34538" y="34.077637" style="fill: #595959; stroke: #595959"/>
     <use xlink:href="#me21e80307d" x="62.34538" y="31.864437" style="fill: #595959; stroke: #595959"/>
     <use xlink:href="#me21e80307d" x="62.34538" y="29.651237" style="fill: #595959; stroke: #595959"/>
     <use xlink:href="#me21e80307d" x="62.34538" y="20.798437" style="fill: #595959; stroke: #595959"/>
     <use xlink:href="#me21e80307d" x="62.34538" y="27.438037" style="fill: #595959; stroke: #595959"/>
     <use xlink:href="#me21e80307d" x="62.34538" y="23.011637" style="fill: #595959; stroke: #595959"/>
    </g>
   </g>
   <g id="PathCollection_2">
    <g clip-path="url(#p5f5f4c589f)">
     <use xlink:href="#me21e80307d" x="99.47364" y="20.798437" style="fill: #595959; stroke: #595959"/>
     <use xlink:href="#me21e80307d" x="99.47364" y="20.798437" style="fill: #595959; stroke: #595959"/>
     <use xlink:href="#me21e80307d" x="99.47364" y="23.011637" style="fill: #595959; stroke: #595959"/>
     <use xlink:href="#me21e80307d" x="99.47364" y="25.224837" style="fill: #595959; stroke: #595959"/>
     <use xlink:href="#me21e80307d" x="99.47364" y="23.011637" style="fill: #595959; stroke: #595959"/>
     <use xlink:href="#me21e80307d" x="99.47364" y="20.798437" style="fill: #595959; stroke: #595959"/>
     <use xlink:href="#me21e80307d" x="99.47364" y="20.798437" style="fill: #595959; stroke: #595959"/>
     <use xlink:href="#me21e80307d" x="99.47364" y="20.798437" style="fill: #595959; stroke: #595959"/>
     <use xlink:href="#me21e80307d" x="99.47364" y="23.011637" style="fill: #595959; stroke: #595959"/>
     <use xlink:href="#me21e80307d" x="99.47364" y="20.798437" style="fill: #595959; stroke: #595959"/>
     <use xlink:href="#me21e80307d" x="99.47364" y="20.798437" style="fill: #595959; stroke: #595959"/>
     <use xlink:href="#me21e80307d" x="99.47364" y="23.011637" style="fill: #595959; stroke: #595959"/>
     <use xlink:href="#me21e80307d" x="99.47364" y="23.011637" style="fill: #595959; stroke: #595959"/>
     <use xlink:href="#me21e80307d" x="99.47364" y="20.798437" style="fill: #595959; stroke: #595959"/>
     <use xlink:href="#me21e80307d" x="99.47364" y="23.011637" style="fill: #595959; stroke: #595959"/>
     <use xlink:href="#me21e80307d" x="99.47364" y="20.798437" style="fill: #595959; stroke: #595959"/>
     <use xlink:href="#me21e80307d" x="99.47364" y="20.798437" style="fill: #595959; stroke: #595959"/>
     <use xlink:href="#me21e80307d" x="99.47364" y="20.798437" style="fill: #595959; stroke: #595959"/>
     <use xlink:href="#me21e80307d" x="99.47364" y="20.798437" style="fill: #595959; stroke: #595959"/>
     <use xlink:href="#me21e80307d" x="99.47364" y="20.798437" style="fill: #595959; stroke: #595959"/>
    </g>
   </g>
   <g id="PathCollection_3">
    <g clip-path="url(#p5f5f4c589f)">
     <use xlink:href="#me21e80307d" x="136.6019" y="96.047237" style="fill: #595959; stroke: #595959"/>
     <use xlink:href="#me21e80307d" x="136.6019" y="104.900037" style="fill: #595959; stroke: #595959"/>
     <use xlink:href="#me21e80307d" x="136.6019" y="122.605637" style="fill: #595959; stroke: #595959"/>
     <use xlink:href="#me21e80307d" x="136.6019" y="109.326437" style="fill: #595959; stroke: #595959"/>
     <use xlink:href="#me21e80307d" x="136.6019" y="78.341637" style="fill: #595959; stroke: #595959"/>
     <use xlink:href="#me21e80307d" x="136.6019" y="124.818837" style="fill: #595959; stroke: #595959"/>
     <use xlink:href="#me21e80307d" x="136.6019" y="111.539637" style="fill: #595959; stroke: #595959"/>
     <use xlink:href="#me21e80307d" x="136.6019" y="124.818837" style="fill: #595959; stroke: #595959"/>
     <use xlink:href="#me21e80307d" x="136.6019" y="96.047237" style="fill: #595959; stroke: #595959"/>
     <use xlink:href="#me21e80307d" x="136.6019" y="129.245237" style="fill: #595959; stroke: #595959"/>
     <use xlink:href="#me21e80307d" x="136.6019" y="120.392437" style="fill: #595959; stroke: #595959"/>
     <use xlink:href="#me21e80307d" x="136.6019" y="129.245237" style="fill: #595959; stroke: #595959"/>
     <use xlink:href="#me21e80307d" x="136.6019" y="140.311237" style="fill: #595959; stroke: #595959"/>
     <use xlink:href="#me21e80307d" x="136.6019" y="115.966037" style="fill: #595959; stroke: #595959"/>
     <use xlink:href="#me21e80307d" x="136.6019" y="104.900038" style="fill: #595959; stroke: #595959"/>
     <use xlink:href="#me21e80307d" x="136.6019" y="115.966037" style="fill: #595959; stroke: #595959"/>
     <use xlink:href="#me21e80307d" x="136.6019" y="124.818837" style="fill: #595959; stroke: #595959"/>
     <use xlink:href="#me21e80307d" x="136.6019" y="109.326437" style="fill: #595959; stroke: #595959"/>
     <use xlink:href="#me21e80307d" x="136.6019" y="91.620837" style="fill: #595959; stroke: #595959"/>
     <use xlink:href="#me21e80307d" x="136.6019" y="111.539637" style="fill: #595959; stroke: #595959"/>
    </g>
   </g>
   <g id="PathCollection_4">
    <g clip-path="url(#p5f5f4c589f)">
     <use xlink:href="#me21e80307d" x="173.730161" y="142.524437" style="fill: #595959; stroke: #595959"/>
     <use xlink:href="#me21e80307d" x="173.730161" y="135.884837" style="fill: #595959; stroke: #595959"/>
     <use xlink:href="#me21e80307d" x="173.730161" y="144.737637" style="fill: #595959; stroke: #595959"/>
     <use xlink:href="#me21e80307d" x="173.730161" y="144.737637" style="fill: #595959; stroke: #595959"/>
     <use xlink:href="#me21e80307d" x="173.730161" y="124.818837" style="fill: #595959; stroke: #595959"/>
     <use xlink:href="#me21e80307d" x="173.730161" y="113.752837" style="fill: #595959; stroke: #595959"/>
     <use xlink:href="#me21e80307d" x="173.730161" y="113.752837" style="fill: #595959; stroke: #595959"/>
     <use xlink:href="#me21e80307d" x="173.730161" y="118.179237" style="fill: #595959; stroke: #595959"/>
     <use xlink:href="#me21e80307d" x="173.730161" y="120.392437" style="fill: #595959; stroke: #595959"/>
     <use xlink:href="#me21e80307d" x="173.730161" y="124.818837" style="fill: #595959; stroke: #595959"/>
     <use xlink:href="#me21e80307d" x="173.730161" y="127.032037" style="fill: #595959; stroke: #595959"/>
     <use xlink:href="#me21e80307d" x="173.730161" y="135.884837" style="fill: #595959; stroke: #595959"/>
     <use xlink:href="#me21e80307d" x="173.730161" y="133.671638" style="fill: #595959; stroke: #595959"/>
     <use xlink:href="#me21e80307d" x="173.730161" y="140.311238" style="fill: #595959; stroke: #595959"/>
     <use xlink:href="#me21e80307d" x="173.730161" y="127.032037" style="fill: #595959; stroke: #595959"/>
     <use xlink:href="#me21e80307d" x="173.730161" y="155.803637" style="fill: #595959; stroke: #595959"/>
     <use xlink:href="#me21e80307d" x="173.730161" y="146.950837" style="fill: #595959; stroke: #595959"/>
     <use xlink:href="#me21e80307d" x="173.730161" y="133.671638" style="fill: #595959; stroke: #595959"/>
     <use xlink:href="#me21e80307d" x="173.730161" y="158.016838" style="fill: #595959; stroke: #595959"/>
     <use xlink:href="#me21e80307d" x="173.730161" y="135.884837" style="fill: #595959; stroke: #595959"/>
    </g>
   </g>
   <g id="PathCollection_5">
    <g clip-path="url(#p5f5f4c589f)">
     <use xlink:href="#me21e80307d" x="210.858421" y="111.539637" style="fill: #595959; stroke: #595959"/>
     <use xlink:href="#me21e80307d" x="210.858421" y="122.605638" style="fill: #595959; stroke: #595959"/>
     <use xlink:href="#me21e80307d" x="210.858421" y="138.098037" style="fill: #595959; stroke: #595959"/>
     <use xlink:href="#me21e80307d" x="210.858421" y="160.230037" style="fill: #595959; stroke: #595959"/>
     <use xlink:href="#me21e80307d" x="210.858421" y="133.671638" style="fill: #595959; stroke: #595959"/>
     <use xlink:href="#me21e80307d" x="210.858421" y="138.098038" style="fill: #595959; stroke: #595959"/>
     <use xlink:href="#me21e80307d" x="210.858421" y="146.950837" style="fill: #595959; stroke: #595959"/>
     <use xlink:href="#me21e80307d" x="210.858421" y="107.113237" style="fill: #595959; stroke: #595959"/>
     <use xlink:href="#me21e80307d" x="210.858421" y="124.818837" style="fill: #595959; stroke: #595959"/>
     <use xlink:href="#me21e80307d" x="210.858421" y="120.392437" style="fill: #595959; stroke: #595959"/>
     <use xlink:href="#me21e80307d" x="210.858421" y="122.605637" style="fill: #595959; stroke: #595959"/>
     <use xlink:href="#me21e80307d" x="210.858421" y="115.966037" style="fill: #595959; stroke: #595959"/>
     <use xlink:href="#me21e80307d" x="210.858421" y="140.311238" style="fill: #595959; stroke: #595959"/>
     <use xlink:href="#me21e80307d" x="210.858421" y="138.098037" style="fill: #595959; stroke: #595959"/>
     <use xlink:href="#me21e80307d" x="210.858421" y="124.818837" style="fill: #595959; stroke: #595959"/>
     <use xlink:href="#me21e80307d" x="210.858421" y="129.245237" style="fill: #595959; stroke: #595959"/>
     <use xlink:href="#me21e80307d" x="210.858421" y="124.818837" style="fill: #595959; stroke: #595959"/>
     <use xlink:href="#me21e80307d" x="210.858421" y="131.458438" style="fill: #595959; stroke: #595959"/>
     <use xlink:href="#me21e80307d" x="210.858421" y="144.737637" style="fill: #595959; stroke: #595959"/>
     <use xlink:href="#me21e80307d" x="210.858421" y="122.605637" style="fill: #595959; stroke: #595959"/>
    </g>
   </g>
   <g id="PathCollection_6">
    <g clip-path="url(#p5f5f4c589f)">
     <use xlink:href="#me21e80307d" x="247.986681" y="107.113237" style="fill: #595959; stroke: #595959"/>
     <use xlink:href="#me21e80307d" x="247.986681" y="131.458437" style="fill: #595959; stroke: #595959"/>
     <use xlink:href="#me21e80307d" x="247.986681" y="131.458438" style="fill: #595959; stroke: #595959"/>
     <use xlink:href="#me21e80307d" x="247.986681" y="140.311238" style="fill: #595959; stroke: #595959"/>
     <use xlink:href="#me21e80307d" x="247.986681" y="144.737637" style="fill: #595959; stroke: #595959"/>
     <use xlink:href="#me21e80307d" x="247.986681" y="140.311238" style="fill: #595959; stroke: #595959"/>
     <use xlink:href="#me21e80307d" x="247.986681" y="122.605637" style="fill: #595959; stroke: #595959"/>
     <use xlink:href="#me21e80307d" x="247.986681" y="146.950837" style="fill: #595959; stroke: #595959"/>
     <use xlink:href="#me21e80307d" x="247.986681" y="127.032038" style="fill: #595959; stroke: #595959"/>
     <use xlink:href="#me21e80307d" x="247.986681" y="122.605637" style="fill: #595959; stroke: #595959"/>
     <use xlink:href="#me21e80307d" x="247.986681" y="111.539637" style="fill: #595959; stroke: #595959"/>
     <use xlink:href="#me21e80307d" x="247.986681" y="191.214837" style="fill: #595959; stroke: #595959"/>
     <use xlink:href="#me21e80307d" x="247.986681" y="115.966037" style="fill: #595959; stroke: #595959"/>
     <use xlink:href="#me21e80307d" x="247.986681" y="131.458438" style="fill: #595959; stroke: #595959"/>
     <use xlink:href="#me21e80307d" x="247.986681" y="127.032037" style="fill: #595959; stroke: #595959"/>
     <use xlink:href="#me21e80307d" x="247.986681" y="111.539637" style="fill: #595959; stroke: #595959"/>
     <use xlink:href="#me21e80307d" x="247.986681" y="129.245237" style="fill: #595959; stroke: #595959"/>
     <use xlink:href="#me21e80307d" x="247.986681" y="149.164037" style="fill: #595959; stroke: #595959"/>
     <use xlink:href="#me21e80307d" x="247.986681" y="127.032037" style="fill: #595959; stroke: #595959"/>
     <use xlink:href="#me21e80307d" x="247.986681" y="133.671637" style="fill: #595959; stroke: #595959"/>
    </g>
   </g>
   <g id="text_15">
    <!-- Rho = 0.4 -->
    <g transform="translate(273.08589 106.436563) rotate(-270) scale(0.1 -0.1)">
     <defs>
      <path id="DejaVuSans-52" d="M 2841 2188 
Q 3044 2119 3236 1894 
Q 3428 1669 3622 1275 
L 4263 0 
L 3584 0 
L 2988 1197 
Q 2756 1666 2539 1819 
Q 2322 1972 1947 1972 
L 1259 1972 
L 1259 0 
L 628 0 
L 628 4666 
L 2053 4666 
Q 2853 4666 3247 4331 
Q 3641 3997 3641 3322 
Q 3641 2881 3436 2590 
Q 3231 2300 2841 2188 
z
M 1259 4147 
L 1259 2491 
L 2053 2491 
Q 2509 2491 2742 2702 
Q 2975 2913 2975 3322 
Q 2975 3731 2742 3939 
Q 2509 4147 2053 4147 
L 1259 4147 
z
" transform="scale(0.015625)"/>
      <path id="DejaVuSans-68" d="M 3513 2113 
L 3513 0 
L 2938 0 
L 2938 2094 
Q 2938 2591 2744 2837 
Q 2550 3084 2163 3084 
Q 1697 3084 1428 2787 
Q 1159 2491 1159 1978 
L 1159 0 
L 581 0 
L 581 4863 
L 1159 4863 
L 1159 2956 
Q 1366 3272 1645 3428 
Q 1925 3584 2291 3584 
Q 2894 3584 3203 3211 
Q 3513 2838 3513 2113 
z
" transform="scale(0.015625)"/>
      <path id="DejaVuSans-6f" d="M 1959 3097 
Q 1497 3097 1228 2736 
Q 959 2375 959 1747 
Q 959 1119 1226 758 
Q 1494 397 1959 397 
Q 2419 397 2687 759 
Q 2956 1122 2956 1747 
Q 2956 2369 2687 2733 
Q 2419 3097 1959 3097 
z
M 1959 3584 
Q 2709 3584 3137 3096 
Q 3566 2609 3566 1747 
Q 3566 888 3137 398 
Q 2709 -91 1959 -91 
Q 1206 -91 779 398 
Q 353 888 353 1747 
Q 353 2609 779 3096 
Q 1206 3584 1959 3584 
z
" transform="scale(0.015625)"/>
      <path id="DejaVuSans-20" transform="scale(0.015625)"/>
      <path id="DejaVuSans-3d" d="M 678 2906 
L 4684 2906 
L 4684 2381 
L 678 2381 
L 678 2906 
z
M 678 1631 
L 4684 1631 
L 4684 1100 
L 678 1100 
L 678 1631 
z
" transform="scale(0.015625)"/>
     </defs>
     <use xlink:href="#DejaVuSans-52"/>
     <use xlink:href="#DejaVuSans-68" x="69.482422"/>
     <use xlink:href="#DejaVuSans-6f" x="132.861328"/>
     <use xlink:href="#DejaVuSans-20" x="194.042969"/>
     <use xlink:href="#DejaVuSans-3d" x="225.830078"/>
     <use xlink:href="#DejaVuSans-20" x="309.619141"/>
     <use xlink:href="#DejaVuSans-30" x="341.40625"/>
     <use xlink:href="#DejaVuSans-2e" x="405.029297"/>
     <use xlink:href="#DejaVuSans-34" x="436.816406"/>
    </g>
   </g>
   <g id="text_16">
    <!-- CNR_change = 1 -->
    <g transform="translate(113.008999 14.798437) scale(0.1 -0.1)">
     <defs>
      <path id="DejaVuSans-43" d="M 4122 4306 
L 4122 3641 
Q 3803 3938 3442 4084 
Q 3081 4231 2675 4231 
Q 1875 4231 1450 3742 
Q 1025 3253 1025 2328 
Q 1025 1406 1450 917 
Q 1875 428 2675 428 
Q 3081 428 3442 575 
Q 3803 722 4122 1019 
L 4122 359 
Q 3791 134 3420 21 
Q 3050 -91 2638 -91 
Q 1578 -91 968 557 
Q 359 1206 359 2328 
Q 359 3453 968 4101 
Q 1578 4750 2638 4750 
Q 3056 4750 3426 4639 
Q 3797 4528 4122 4306 
z
" transform="scale(0.015625)"/>
      <path id="DejaVuSans-4e" d="M 628 4666 
L 1478 4666 
L 3547 763 
L 3547 4666 
L 4159 4666 
L 4159 0 
L 3309 0 
L 1241 3903 
L 1241 0 
L 628 0 
L 628 4666 
z
" transform="scale(0.015625)"/>
      <path id="DejaVuSans-5f" d="M 3263 -1063 
L 3263 -1509 
L -63 -1509 
L -63 -1063 
L 3263 -1063 
z
" transform="scale(0.015625)"/>
      <path id="DejaVuSans-6e" d="M 3513 2113 
L 3513 0 
L 2938 0 
L 2938 2094 
Q 2938 2591 2744 2837 
Q 2550 3084 2163 3084 
Q 1697 3084 1428 2787 
Q 1159 2491 1159 1978 
L 1159 0 
L 581 0 
L 581 3500 
L 1159 3500 
L 1159 2956 
Q 1366 3272 1645 3428 
Q 1925 3584 2291 3584 
Q 2894 3584 3203 3211 
Q 3513 2838 3513 2113 
z
" transform="scale(0.015625)"/>
      <path id="DejaVuSans-67" d="M 2906 1791 
Q 2906 2416 2648 2759 
Q 2391 3103 1925 3103 
Q 1463 3103 1205 2759 
Q 947 2416 947 1791 
Q 947 1169 1205 825 
Q 1463 481 1925 481 
Q 2391 481 2648 825 
Q 2906 1169 2906 1791 
z
M 3481 434 
Q 3481 -459 3084 -895 
Q 2688 -1331 1869 -1331 
Q 1566 -1331 1297 -1286 
Q 1028 -1241 775 -1147 
L 775 -588 
Q 1028 -725 1275 -790 
Q 1522 -856 1778 -856 
Q 2344 -856 2625 -561 
Q 2906 -266 2906 331 
L 2906 616 
Q 2728 306 2450 153 
Q 2172 0 1784 0 
Q 1141 0 747 490 
Q 353 981 353 1791 
Q 353 2603 747 3093 
Q 1141 3584 1784 3584 
Q 2172 3584 2450 3431 
Q 2728 3278 2906 2969 
L 2906 3500 
L 3481 3500 
L 3481 434 
z
" transform="scale(0.015625)"/>
     </defs>
     <use xlink:href="#DejaVuSans-43"/>
     <use xlink:href="#DejaVuSans-4e" x="69.824219"/>
     <use xlink:href="#DejaVuSans-52" x="144.628906"/>
     <use xlink:href="#DejaVuSans-5f" x="214.111328"/>
     <use xlink:href="#DejaVuSans-63" x="264.111328"/>
     <use xlink:href="#DejaVuSans-68" x="319.091797"/>
     <use xlink:href="#DejaVuSans-61" x="382.470703"/>
     <use xlink:href="#DejaVuSans-6e" x="443.75"/>
     <use xlink:href="#DejaVuSans-67" x="507.128906"/>
     <use xlink:href="#DejaVuSans-65" x="570.605469"/>
     <use xlink:href="#DejaVuSans-20" x="632.128906"/>
     <use xlink:href="#DejaVuSans-3d" x="663.916016"/>
     <use xlink:href="#DejaVuSans-20" x="747.705078"/>
     <use xlink:href="#DejaVuSans-31" x="779.492188"/>
    </g>
   </g>
  </g>
  <g id="legend_1"/>
 </g>
 <defs>
  <clipPath id="p5f5f4c589f">
   <rect x="43.78125" y="20.798437" width="222.769561" height="221.32"/>
  </clipPath>
 </defs>
</svg>
