<?xml version="1.0" encoding="utf-8" standalone="no"?>
<!DOCTYPE svg PUBLIC "-//W3C//DTD SVG 1.1//EN"
  "http://www.w3.org/Graphics/SVG/1.1/DTD/svg11.dtd">
<svg xmlns:xlink="http://www.w3.org/1999/xlink" width="294.17125pt" height="279.674688pt" viewBox="0 0 294.17125 279.674688" xmlns="http://www.w3.org/2000/svg" version="1.1">
 <metadata>
  <rdf:RDF xmlns:dc="http://purl.org/dc/elements/1.1/" xmlns:cc="http://creativecommons.org/ns#" xmlns:rdf="http://www.w3.org/1999/02/22-rdf-syntax-ns#">
   <cc:Work>
    <dc:type rdf:resource="http://purl.org/dc/dcmitype/StillImage"/>
    <dc:date>2025-08-25T15:41:12.206558</dc:date>
    <dc:format>image/svg+xml</dc:format>
    <dc:creator>
     <cc:Agent>
      <dc:title>Matplotlib v3.8.4, https://matplotlib.org/</dc:title>
     </cc:Agent>
    </dc:creator>
   </cc:Work>
  </rdf:RDF>
 </metadata>
 <defs>
  <style type="text/css">*{stroke-linejoin: round; stroke-linecap: butt}</style>
 </defs>
 <g id="figure_1">
  <g id="patch_1">
   <path d="M 0 279.674688 
L 294.17125 279.674688 
L 294.17125 0 
L 0 0 
z
" style="fill: #ffffff"/>
  </g>
  <g id="axes_1">
   <g id="patch_2">
    <path d="M 43.78125 242.118437 
L 266.550811 242.118437 
L 266.550811 20.798437 
L 43.78125 20.798437 
z
" style="fill: #ffffff"/>
   </g>
   <g id="PolyCollection_1">
    <defs>
     <path id="ma8672f82b1" d="M 62.562259 -96.392952 
L 62.128501 -96.392952 
L 62.071353 -97.328109 
L 62.003231 -98.263267 
L 61.923169 -99.198424 
L 61.830408 -100.133582 
L 61.724463 -101.068739 
L 61.605196 -102.003897 
L 61.472865 -102.939055 
L 61.328169 -103.874212 
L 61.172255 -104.80937 
L 61.006699 -105.744527 
L 60.83346 -106.679685 
L 60.654788 -107.614842 
L 60.473108 -108.55 
L 60.290876 -109.485157 
L 60.110407 -110.420315 
L 59.933709 -111.355472 
L 59.762315 -112.29063 
L 59.597134 -113.225787 
L 59.438342 -114.160945 
L 59.285317 -115.096103 
L 59.136632 -116.03126 
L 58.99011 -116.966418 
L 58.842939 -117.901575 
L 58.691853 -118.836733 
L 58.533341 -119.77189 
L 58.363901 -120.707048 
L 58.18029 -121.642205 
L 57.979754 -122.577363 
L 57.760228 -123.51252 
L 57.520462 -124.447678 
L 57.260082 -125.382836 
L 56.979563 -126.317993 
L 56.680113 -127.253151 
L 56.363501 -128.188308 
L 56.031824 -129.123466 
L 55.68725 -130.058623 
L 55.331776 -130.993781 
L 54.967021 -131.928938 
L 54.594081 -132.864096 
L 54.213483 -133.799253 
L 53.825222 -134.734411 
L 53.42891 -135.669568 
L 53.023991 -136.604726 
L 52.610027 -137.539884 
L 52.186997 -138.475041 
L 51.755595 -139.410199 
L 51.317483 -140.345356 
L 50.875457 -141.280514 
L 50.433537 -142.215671 
L 49.99694 -143.150829 
L 49.571956 -144.085986 
L 49.16574 -145.021144 
L 48.786034 -145.956301 
L 48.440858 -146.891459 
L 48.138187 -147.826616 
L 47.885637 -148.761774 
L 47.690196 -149.696932 
L 47.557985 -150.632089 
L 47.494076 -151.567247 
L 47.50235 -152.502404 
L 47.585396 -153.437562 
L 47.744435 -154.372719 
L 47.979274 -155.307877 
L 48.288273 -156.243034 
L 48.668343 -157.178192 
L 49.114967 -158.113349 
L 49.622257 -159.048507 
L 50.183064 -159.983664 
L 50.78914 -160.918822 
L 51.431357 -161.85398 
L 52.09998 -162.789137 
L 52.784994 -163.724295 
L 53.47644 -164.659452 
L 54.164775 -165.59461 
L 54.841194 -166.529767 
L 55.497916 -167.464925 
L 56.128402 -168.400082 
L 56.727484 -169.33524 
L 57.291417 -170.270397 
L 57.817832 -171.205555 
L 58.305627 -172.140713 
L 58.754785 -173.07587 
L 59.166166 -174.011028 
L 59.541277 -174.946185 
L 59.882052 -175.881343 
L 60.190654 -176.8165 
L 60.469313 -177.751658 
L 60.720207 -178.686815 
L 60.945392 -179.621973 
L 61.14676 -180.55713 
L 61.326043 -181.492288 
L 61.484828 -182.427445 
L 61.624592 -183.362603 
L 61.746741 -184.297761 
L 61.852636 -185.232918 
L 61.943622 -186.168076 
L 62.02104 -187.103233 
L 62.086227 -188.038391 
L 62.140513 -188.973548 
L 62.550247 -188.973548 
L 62.550247 -188.973548 
L 62.604533 -188.038391 
L 62.669721 -187.103233 
L 62.747138 -186.168076 
L 62.838124 -185.232918 
L 62.944019 -184.297761 
L 63.066168 -183.362603 
L 63.205933 -182.427445 
L 63.364717 -181.492288 
L 63.544 -180.55713 
L 63.745368 -179.621973 
L 63.970553 -178.686815 
L 64.221448 -177.751658 
L 64.500106 -176.8165 
L 64.808708 -175.881343 
L 65.149483 -174.946185 
L 65.524594 -174.011028 
L 65.935975 -173.07587 
L 66.385133 -172.140713 
L 66.872928 -171.205555 
L 67.399344 -170.270397 
L 67.963276 -169.33524 
L 68.562358 -168.400082 
L 69.192844 -167.464925 
L 69.849566 -166.529767 
L 70.525985 -165.59461 
L 71.21432 -164.659452 
L 71.905766 -163.724295 
L 72.59078 -162.789137 
L 73.259404 -161.85398 
L 73.90162 -160.918822 
L 74.507696 -159.983664 
L 75.068503 -159.048507 
L 75.575793 -158.113349 
L 76.022417 -157.178192 
L 76.402487 -156.243034 
L 76.711486 -155.307877 
L 76.946325 -154.372719 
L 77.105364 -153.437562 
L 77.18841 -152.502404 
L 77.196684 -151.567247 
L 77.132775 -150.632089 
L 77.000564 -149.696932 
L 76.805123 -148.761774 
L 76.552573 -147.826616 
L 76.249902 -146.891459 
L 75.904727 -145.956301 
L 75.52502 -145.021144 
L 75.118804 -144.085986 
L 74.69382 -143.150829 
L 74.257223 -142.215671 
L 73.815303 -141.280514 
L 73.373278 -140.345356 
L 72.935165 -139.410199 
L 72.503764 -138.475041 
L 72.080733 -137.539884 
L 71.666769 -136.604726 
L 71.26185 -135.669568 
L 70.865538 -134.734411 
L 70.477278 -133.799253 
L 70.096679 -132.864096 
L 69.723739 -131.928938 
L 69.358984 -130.993781 
L 69.00351 -130.058623 
L 68.658937 -129.123466 
L 68.327259 -128.188308 
L 68.010648 -127.253151 
L 67.711198 -126.317993 
L 67.430678 -125.382836 
L 67.170298 -124.447678 
L 66.930532 -123.51252 
L 66.711006 -122.577363 
L 66.51047 -121.642205 
L 66.326859 -120.707048 
L 66.157419 -119.77189 
L 65.998908 -118.836733 
L 65.847821 -117.901575 
L 65.70065 -116.966418 
L 65.554128 -116.03126 
L 65.405443 -115.096103 
L 65.252418 -114.160945 
L 65.093627 -113.225787 
L 64.928446 -112.29063 
L 64.757051 -111.355472 
L 64.580354 -110.420315 
L 64.399884 -109.485157 
L 64.217652 -108.55 
L 64.035973 -107.614842 
L 63.857301 -106.679685 
L 63.684061 -105.744527 
L 63.518505 -104.80937 
L 63.362591 -103.874212 
L 63.217895 -102.939055 
L 63.085564 -102.003897 
L 62.966297 -101.068739 
L 62.860352 -100.133582 
L 62.767591 -99.198424 
L 62.687529 -98.263267 
L 62.619407 -97.328109 
L 62.562259 -96.392952 
z
" style="stroke: #595959; stroke-width: 1.25"/>
    </defs>
    <g clip-path="url(#pbb3995550d)">
     <use xlink:href="#ma8672f82b1" x="0" y="279.674688" style="fill: #72b6a1; stroke: #595959; stroke-width: 1.25"/>
    </g>
   </g>
   <g id="PolyCollection_2">
    <defs>
     <path id="m3178ab39d3" d="M 99.853527 -110.921875 
L 99.093754 -110.921875 
L 99.002476 -111.563519 
L 98.894361 -112.205163 
L 98.767598 -112.846807 
L 98.620474 -113.488451 
L 98.45145 -114.130095 
L 98.259233 -114.771739 
L 98.042859 -115.413383 
L 97.801765 -116.055027 
L 97.53585 -116.696671 
L 97.245536 -117.338314 
L 96.931795 -117.979958 
L 96.596167 -118.621602 
L 96.240748 -119.263246 
L 95.868151 -119.90489 
L 95.48145 -120.546534 
L 95.08409 -121.188178 
L 94.679783 -121.829822 
L 94.272388 -122.471466 
L 93.865777 -123.11311 
L 93.46371 -123.754754 
L 93.069698 -124.396398 
L 92.686893 -125.038042 
L 92.317989 -125.679686 
L 91.965148 -126.32133 
L 91.629949 -126.962974 
L 91.313371 -127.604617 
L 91.015802 -128.246261 
L 90.737075 -128.887905 
L 90.476526 -129.529549 
L 90.233067 -130.171193 
L 90.00528 -130.812837 
L 89.791506 -131.454481 
L 89.589942 -132.096125 
L 89.398722 -132.737769 
L 89.215998 -133.379413 
L 89.039992 -134.021057 
L 88.869047 -134.662701 
L 88.701644 -135.304345 
L 88.536415 -135.945989 
L 88.372137 -136.587633 
L 88.207719 -137.229277 
L 88.042183 -137.87092 
L 87.874648 -138.512564 
L 87.704322 -139.154208 
L 87.530503 -139.795852 
L 87.352597 -140.437496 
L 87.170146 -141.07914 
L 86.98288 -141.720784 
L 86.79078 -142.362428 
L 86.594145 -143.004072 
L 86.393667 -143.645716 
L 86.190502 -144.28736 
L 85.986326 -144.929004 
L 85.783375 -145.570648 
L 85.584458 -146.212292 
L 85.392943 -146.853936 
L 85.212702 -147.49558 
L 85.048033 -148.137223 
L 84.903546 -148.778867 
L 84.784022 -149.420511 
L 84.694264 -150.062155 
L 84.638922 -150.703799 
L 84.622336 -151.345443 
L 84.648372 -151.987087 
L 84.720285 -152.628731 
L 84.840605 -153.270375 
L 85.011052 -153.912019 
L 85.232477 -154.553663 
L 85.504844 -155.195307 
L 85.827237 -155.836951 
L 86.197891 -156.478595 
L 86.614253 -157.120239 
L 87.073048 -157.761883 
L 87.570367 -158.403526 
L 88.101755 -159.04517 
L 88.662309 -159.686814 
L 89.246766 -160.328458 
L 89.849609 -160.970102 
L 90.465151 -161.611746 
L 91.087639 -162.25339 
L 91.711343 -162.895034 
L 92.330657 -163.536678 
L 92.940187 -164.178322 
L 93.534853 -164.819966 
L 94.10997 -165.46161 
L 94.661339 -166.103254 
L 95.185313 -166.744898 
L 95.678864 -167.386542 
L 96.139617 -168.028186 
L 96.565882 -168.669829 
L 96.956652 -169.311473 
L 97.311589 -169.953117 
L 97.63098 -170.594761 
L 97.915685 -171.236405 
L 98.167065 -171.878049 
L 98.386897 -172.519693 
L 98.577286 -173.161337 
L 98.740575 -173.802981 
L 98.879251 -174.444625 
L 100.068029 -174.444625 
L 100.068029 -174.444625 
L 100.206706 -173.802981 
L 100.369994 -173.161337 
L 100.560384 -172.519693 
L 100.780216 -171.878049 
L 101.031595 -171.236405 
L 101.316301 -170.594761 
L 101.635692 -169.953117 
L 101.990628 -169.311473 
L 102.381399 -168.669829 
L 102.807664 -168.028186 
L 103.268417 -167.386542 
L 103.761967 -166.744898 
L 104.285942 -166.103254 
L 104.837311 -165.46161 
L 105.412428 -164.819966 
L 106.007093 -164.178322 
L 106.616624 -163.536678 
L 107.235937 -162.895034 
L 107.859642 -162.25339 
L 108.482129 -161.611746 
L 109.097672 -160.970102 
L 109.700514 -160.328458 
L 110.284972 -159.686814 
L 110.845525 -159.04517 
L 111.376914 -158.403526 
L 111.874233 -157.761883 
L 112.333028 -157.120239 
L 112.749389 -156.478595 
L 113.120044 -155.836951 
L 113.442437 -155.195307 
L 113.714804 -154.553663 
L 113.936229 -153.912019 
L 114.106675 -153.270375 
L 114.226996 -152.628731 
L 114.298909 -151.987087 
L 114.324944 -151.345443 
L 114.308358 -150.703799 
L 114.253017 -150.062155 
L 114.163258 -149.420511 
L 114.043735 -148.778867 
L 113.899247 -148.137223 
L 113.734578 -147.49558 
L 113.554337 -146.853936 
L 113.362822 -146.212292 
L 113.163906 -145.570648 
L 112.960955 -144.929004 
L 112.756779 -144.28736 
L 112.553613 -143.645716 
L 112.353135 -143.004072 
L 112.1565 -142.362428 
L 111.9644 -141.720784 
L 111.777135 -141.07914 
L 111.594684 -140.437496 
L 111.416777 -139.795852 
L 111.242959 -139.154208 
L 111.072633 -138.512564 
L 110.905098 -137.87092 
L 110.739561 -137.229277 
L 110.575143 -136.587633 
L 110.410866 -135.945989 
L 110.245637 -135.304345 
L 110.078234 -134.662701 
L 109.907289 -134.021057 
L 109.731283 -133.379413 
L 109.548558 -132.737769 
L 109.357338 -132.096125 
L 109.155774 -131.454481 
L 108.942001 -130.812837 
L 108.714214 -130.171193 
L 108.470755 -129.529549 
L 108.210205 -128.887905 
L 107.931478 -128.246261 
L 107.63391 -127.604617 
L 107.317332 -126.962974 
L 106.982132 -126.32133 
L 106.629291 -125.679686 
L 106.260388 -125.038042 
L 105.877583 -124.396398 
L 105.483571 -123.754754 
L 105.081503 -123.11311 
L 104.674893 -122.471466 
L 104.267497 -121.829822 
L 103.86319 -121.188178 
L 103.46583 -120.546534 
L 103.079129 -119.90489 
L 102.706533 -119.263246 
L 102.351113 -118.621602 
L 102.015486 -117.979958 
L 101.701745 -117.338314 
L 101.411431 -116.696671 
L 101.145516 -116.055027 
L 100.904421 -115.413383 
L 100.688047 -114.771739 
L 100.495831 -114.130095 
L 100.326806 -113.488451 
L 100.179683 -112.846807 
L 100.05292 -112.205163 
L 99.944805 -111.563519 
L 99.853527 -110.921875 
z
" style="stroke: #595959; stroke-width: 1.25"/>
    </defs>
    <g clip-path="url(#pbb3995550d)">
     <use xlink:href="#m3178ab39d3" x="0" y="279.674688" style="fill: #e99675; stroke: #595959; stroke-width: 1.25"/>
    </g>
   </g>
   <g id="PolyCollection_3">
    <defs>
     <path id="mdcd5646dd8" d="M 136.792857 -171.749888 
L 136.410944 -171.749888 
L 136.361308 -172.325172 
L 136.303033 -172.900456 
L 136.235859 -173.47574 
L 136.159885 -174.051024 
L 136.075631 -174.626308 
L 135.984101 -175.201592 
L 135.886803 -175.776876 
L 135.785738 -176.35216 
L 135.683357 -176.927444 
L 135.582458 -177.502729 
L 135.486055 -178.078013 
L 135.397203 -178.653297 
L 135.318797 -179.228581 
L 135.25336 -179.803865 
L 135.202834 -180.379149 
L 135.168389 -180.954433 
L 135.150267 -181.529717 
L 135.147674 -182.105001 
L 135.158731 -182.680285 
L 135.180479 -183.255569 
L 135.208944 -183.830854 
L 135.239257 -184.406138 
L 135.265808 -184.981422 
L 135.282426 -185.556706 
L 135.282581 -186.13199 
L 135.259578 -186.707274 
L 135.206748 -187.282558 
L 135.117624 -187.857842 
L 134.986102 -188.433126 
L 134.806585 -189.00841 
L 134.574124 -189.583694 
L 134.284555 -190.158978 
L 133.93464 -190.734263 
L 133.522222 -191.309547 
L 133.046389 -191.884831 
L 132.507649 -192.460115 
L 131.908099 -193.035399 
L 131.251593 -193.610683 
L 130.543858 -194.185967 
L 129.792575 -194.761251 
L 129.007367 -195.336535 
L 128.199706 -195.911819 
L 127.382696 -196.487103 
L 126.570746 -197.062388 
L 125.77913 -197.637672 
L 125.023442 -198.212956 
L 124.318976 -198.78824 
L 123.680061 -199.363524 
L 123.119399 -199.938808 
L 122.647439 -200.514092 
L 122.271844 -201.089376 
L 121.997075 -201.66466 
L 121.824154 -202.239944 
L 121.750596 -202.815228 
L 121.770555 -203.390512 
L 121.875153 -203.965797 
L 122.052999 -204.541081 
L 122.29086 -205.116365 
L 122.574432 -205.691649 
L 122.889186 -206.266933 
L 123.221204 -206.842217 
L 123.557973 -207.417501 
L 123.889061 -207.992785 
L 124.206641 -208.568069 
L 124.50582 -209.143353 
L 124.784755 -209.718637 
L 125.04455 -210.293922 
L 125.288945 -210.869206 
L 125.523832 -211.44449 
L 125.756636 -212.019774 
L 125.995617 -212.595058 
L 126.249149 -213.170342 
L 126.525027 -213.745626 
L 126.829867 -214.32091 
L 127.16862 -214.896194 
L 127.544239 -215.471478 
L 127.957511 -216.046762 
L 128.407046 -216.622046 
L 128.889417 -217.197331 
L 129.399425 -217.772615 
L 129.930452 -218.347899 
L 130.474878 -218.923183 
L 131.024527 -219.498467 
L 131.571097 -220.073751 
L 132.106572 -220.649035 
L 132.623565 -221.224319 
L 133.115605 -221.799603 
L 133.577338 -222.374887 
L 134.004651 -222.950171 
L 134.394719 -223.525456 
L 134.745984 -224.10074 
L 135.058069 -224.676024 
L 135.331651 -225.251308 
L 135.568297 -225.826592 
L 135.770281 -226.401876 
L 135.940397 -226.97716 
L 136.081772 -227.552444 
L 136.197702 -228.127728 
L 136.291501 -228.703012 
L 136.9123 -228.703012 
L 136.9123 -228.703012 
L 137.006099 -228.127728 
L 137.122028 -227.552444 
L 137.263404 -226.97716 
L 137.433519 -226.401876 
L 137.635504 -225.826592 
L 137.87215 -225.251308 
L 138.145732 -224.676024 
L 138.457817 -224.10074 
L 138.809082 -223.525456 
L 139.19915 -222.950171 
L 139.626463 -222.374887 
L 140.088195 -221.799603 
L 140.580236 -221.224319 
L 141.097229 -220.649035 
L 141.632704 -220.073751 
L 142.179274 -219.498467 
L 142.728923 -218.923183 
L 143.273349 -218.347899 
L 143.804376 -217.772615 
L 144.314384 -217.197331 
L 144.796755 -216.622046 
L 145.24629 -216.046762 
L 145.659562 -215.471478 
L 146.035181 -214.896194 
L 146.373934 -214.32091 
L 146.678774 -213.745626 
L 146.954652 -213.170342 
L 147.208183 -212.595058 
L 147.447165 -212.019774 
L 147.679969 -211.44449 
L 147.914856 -210.869206 
L 148.159251 -210.293922 
L 148.419046 -209.718637 
L 148.697981 -209.143353 
L 148.99716 -208.568069 
L 149.31474 -207.992785 
L 149.645828 -207.417501 
L 149.982597 -206.842217 
L 150.314615 -206.266933 
L 150.629369 -205.691649 
L 150.912941 -205.116365 
L 151.150802 -204.541081 
L 151.328648 -203.965797 
L 151.433246 -203.390512 
L 151.453205 -202.815228 
L 151.379647 -202.239944 
L 151.206726 -201.66466 
L 150.931957 -201.089376 
L 150.556362 -200.514092 
L 150.084402 -199.938808 
L 149.52374 -199.363524 
L 148.884825 -198.78824 
L 148.180359 -198.212956 
L 147.424671 -197.637672 
L 146.633055 -197.062388 
L 145.821105 -196.487103 
L 145.004095 -195.911819 
L 144.196433 -195.336535 
L 143.411226 -194.761251 
L 142.659943 -194.185967 
L 141.952208 -193.610683 
L 141.295702 -193.035399 
L 140.696152 -192.460115 
L 140.157412 -191.884831 
L 139.681579 -191.309547 
L 139.269161 -190.734263 
L 138.919246 -190.158978 
L 138.629677 -189.583694 
L 138.397216 -189.00841 
L 138.217699 -188.433126 
L 138.086177 -187.857842 
L 137.997053 -187.282558 
L 137.944223 -186.707274 
L 137.92122 -186.13199 
L 137.921375 -185.556706 
L 137.937993 -184.981422 
L 137.964544 -184.406138 
L 137.994857 -183.830854 
L 138.023322 -183.255569 
L 138.04507 -182.680285 
L 138.056126 -182.105001 
L 138.053534 -181.529717 
L 138.035412 -180.954433 
L 138.000967 -180.379149 
L 137.950441 -179.803865 
L 137.885004 -179.228581 
L 137.806598 -178.653297 
L 137.717746 -178.078013 
L 137.621343 -177.502729 
L 137.520444 -176.927444 
L 137.418063 -176.35216 
L 137.316998 -175.776876 
L 137.2197 -175.201592 
L 137.12817 -174.626308 
L 137.043916 -174.051024 
L 136.967941 -173.47574 
L 136.900768 -172.900456 
L 136.842493 -172.325172 
L 136.792857 -171.749888 
z
" style="stroke: #595959; stroke-width: 1.25"/>
    </defs>
    <g clip-path="url(#pbb3995550d)">
     <use xlink:href="#mdcd5646dd8" x="0" y="279.674688" style="fill: #95a3c3; stroke: #595959; stroke-width: 1.25"/>
    </g>
   </g>
   <g id="PolyCollection_4">
    <defs>
     <path id="mc0ba875bc3" d="M 173.929967 -209.785447 
L 173.530355 -209.785447 
L 173.481258 -210.307714 
L 173.423993 -210.829981 
L 173.358272 -211.352248 
L 173.284085 -211.874514 
L 173.201753 -212.396781 
L 173.111965 -212.919048 
L 173.015793 -213.441314 
L 172.914687 -213.963581 
L 172.810427 -214.485848 
L 172.705048 -215.008115 
L 172.600726 -215.530381 
L 172.499639 -216.052648 
L 172.403796 -216.574915 
L 172.314861 -217.097181 
L 172.233977 -217.619448 
L 172.161596 -218.141715 
L 172.097353 -218.663982 
L 172.039975 -219.186248 
L 171.987251 -219.708515 
L 171.936065 -220.230782 
L 171.882499 -220.753048 
L 171.821999 -221.275315 
L 171.749603 -221.797582 
L 171.660208 -222.319849 
L 171.548867 -222.842115 
L 171.411092 -223.364382 
L 171.243137 -223.886649 
L 171.042247 -224.408916 
L 170.80684 -224.931182 
L 170.536624 -225.453449 
L 170.232616 -225.975716 
L 169.897089 -226.497982 
L 169.533415 -227.020249 
L 169.145854 -227.542516 
L 168.739273 -228.064783 
L 168.318841 -228.587049 
L 167.889716 -229.109316 
L 167.45675 -229.631583 
L 167.024242 -230.153849 
L 166.595753 -230.676116 
L 166.173997 -231.198383 
L 165.760816 -231.72065 
L 165.357228 -232.242916 
L 164.963552 -232.765183 
L 164.579565 -233.28745 
L 164.204699 -233.809716 
L 163.838234 -234.331983 
L 163.479472 -234.85425 
L 163.127875 -235.376517 
L 162.78316 -235.898783 
L 162.445339 -236.42105 
L 162.114716 -236.943317 
L 161.791852 -237.465584 
L 161.477512 -237.98785 
L 161.172612 -238.510117 
L 160.878184 -239.032384 
L 160.595371 -239.55465 
L 160.325463 -240.076917 
L 160.069968 -240.599184 
L 159.830717 -241.121451 
L 159.609982 -241.643717 
L 159.410591 -242.165984 
L 159.236021 -242.688251 
L 159.090445 -243.210517 
L 158.978707 -243.732784 
L 158.906234 -244.255051 
L 158.878857 -244.777318 
L 158.90256 -245.299584 
L 158.983169 -245.821851 
L 159.125995 -246.344118 
L 159.335465 -246.866384 
L 159.614759 -247.388651 
L 159.965499 -247.910918 
L 160.387499 -248.433185 
L 160.878612 -248.955451 
L 161.434676 -249.477718 
L 162.049581 -249.999985 
L 162.715435 -250.522252 
L 163.422838 -251.044518 
L 164.161233 -251.566785 
L 164.919315 -252.089052 
L 165.685475 -252.611318 
L 166.448241 -253.133585 
L 167.196704 -253.655852 
L 167.920885 -254.178119 
L 168.612052 -254.700385 
L 169.26294 -255.222652 
L 169.867902 -255.744919 
L 170.422956 -256.267185 
L 170.925764 -256.789452 
L 171.375535 -257.311719 
L 171.772865 -257.833986 
L 172.119539 -258.356252 
L 172.418307 -258.878519 
L 172.672647 -259.400786 
L 172.886532 -259.923052 
L 173.064216 -260.445319 
L 173.210039 -260.967586 
L 173.328265 -261.489853 
L 174.132056 -261.489853 
L 174.132056 -261.489853 
L 174.250283 -260.967586 
L 174.396105 -260.445319 
L 174.573789 -259.923052 
L 174.787675 -259.400786 
L 175.042014 -258.878519 
L 175.340782 -258.356252 
L 175.687456 -257.833986 
L 176.084786 -257.311719 
L 176.534557 -256.789452 
L 177.037366 -256.267185 
L 177.592419 -255.744919 
L 178.197381 -255.222652 
L 178.84827 -254.700385 
L 179.539436 -254.178119 
L 180.263618 -253.655852 
L 181.01208 -253.133585 
L 181.774847 -252.611318 
L 182.541006 -252.089052 
L 183.299089 -251.566785 
L 184.037483 -251.044518 
L 184.744886 -250.522252 
L 185.41074 -249.999985 
L 186.025645 -249.477718 
L 186.58171 -248.955451 
L 187.072822 -248.433185 
L 187.494823 -247.910918 
L 187.845562 -247.388651 
L 188.124856 -246.866384 
L 188.334326 -246.344118 
L 188.477153 -245.821851 
L 188.557762 -245.299584 
L 188.581465 -244.777318 
L 188.554087 -244.255051 
L 188.481614 -243.732784 
L 188.369877 -243.210517 
L 188.2243 -242.688251 
L 188.04973 -242.165984 
L 187.850339 -241.643717 
L 187.629604 -241.121451 
L 187.390353 -240.599184 
L 187.134859 -240.076917 
L 186.864951 -239.55465 
L 186.582137 -239.032384 
L 186.287709 -238.510117 
L 185.982809 -237.98785 
L 185.668469 -237.465584 
L 185.345605 -236.943317 
L 185.014982 -236.42105 
L 184.677161 -235.898783 
L 184.332446 -235.376517 
L 183.98085 -234.85425 
L 183.622087 -234.331983 
L 183.255623 -233.809716 
L 182.880757 -233.28745 
L 182.49677 -232.765183 
L 182.103093 -232.242916 
L 181.699506 -231.72065 
L 181.286324 -231.198383 
L 180.864568 -230.676116 
L 180.436079 -230.153849 
L 180.003571 -229.631583 
L 179.570606 -229.109316 
L 179.14148 -228.587049 
L 178.721049 -228.064783 
L 178.314467 -227.542516 
L 177.926906 -227.020249 
L 177.563233 -226.497982 
L 177.227705 -225.975716 
L 176.923698 -225.453449 
L 176.653481 -224.931182 
L 176.418074 -224.408916 
L 176.217184 -223.886649 
L 176.049229 -223.364382 
L 175.911454 -222.842115 
L 175.800113 -222.319849 
L 175.710718 -221.797582 
L 175.638322 -221.275315 
L 175.577822 -220.753048 
L 175.524256 -220.230782 
L 175.47307 -219.708515 
L 175.420346 -219.186248 
L 175.362968 -218.663982 
L 175.298725 -218.141715 
L 175.226344 -217.619448 
L 175.14546 -217.097181 
L 175.056526 -216.574915 
L 174.960683 -216.052648 
L 174.859595 -215.530381 
L 174.755274 -215.008115 
L 174.649894 -214.485848 
L 174.545634 -213.963581 
L 174.444528 -213.441314 
L 174.348357 -212.919048 
L 174.258568 -212.396781 
L 174.176236 -211.874514 
L 174.102049 -211.352248 
L 174.036328 -210.829981 
L 173.979063 -210.307714 
L 173.929967 -209.785447 
z
" style="stroke: #595959; stroke-width: 1.25"/>
    </defs>
    <g clip-path="url(#pbb3995550d)">
     <use xlink:href="#mc0ba875bc3" x="0" y="279.674688" style="fill: #db96c0; stroke: #595959; stroke-width: 1.25"/>
    </g>
   </g>
   <g id="PolyCollection_5">
    <defs>
     <path id="ma28212c4c1" d="M 211.078852 -120.055836 
L 210.637989 -120.055836 
L 210.580499 -120.803578 
L 210.512636 -121.55132 
L 210.433803 -122.299061 
L 210.343677 -123.046803 
L 210.242256 -123.794545 
L 210.12987 -124.542286 
L 210.007176 -125.290028 
L 209.875092 -126.03777 
L 209.734701 -126.785511 
L 209.587107 -127.533253 
L 209.433246 -128.280995 
L 209.273688 -129.028737 
L 209.108419 -129.776478 
L 208.936648 -130.52422 
L 208.75665 -131.271962 
L 208.565681 -132.019703 
L 208.359972 -132.767445 
L 208.134826 -133.515187 
L 207.884832 -134.262928 
L 207.604167 -135.01067 
L 207.286992 -135.758412 
L 206.927913 -136.506153 
L 206.522457 -137.253895 
L 206.067543 -138.001637 
L 205.561893 -138.749379 
L 205.006347 -139.49712 
L 204.404058 -140.244862 
L 203.760535 -140.992604 
L 203.08353 -141.740345 
L 202.382778 -142.488087 
L 201.669596 -143.235829 
L 200.956386 -143.98357 
L 200.256057 -144.731312 
L 199.581418 -145.479054 
L 198.944587 -146.226795 
L 198.356437 -146.974537 
L 197.826118 -147.722279 
L 197.360683 -148.470021 
L 196.964824 -149.217762 
L 196.640739 -149.965504 
L 196.388109 -150.713246 
L 196.204216 -151.460987 
L 196.08416 -152.208729 
L 196.021189 -152.956471 
L 196.007117 -153.704212 
L 196.032815 -154.451954 
L 196.088763 -155.199696 
L 196.165626 -155.947437 
L 196.254835 -156.695179 
L 196.349137 -157.442921 
L 196.443077 -158.190663 
L 196.533377 -158.938404 
L 196.619183 -159.686146 
L 196.70214 -160.433888 
L 196.786296 -161.181629 
L 196.877817 -161.929371 
L 196.984531 -162.677113 
L 197.115327 -163.424854 
L 197.279445 -164.172596 
L 197.485725 -164.920338 
L 197.741852 -165.668079 
L 198.053682 -166.415821 
L 198.424686 -167.163563 
L 198.855575 -167.911305 
L 199.344128 -168.659046 
L 199.885243 -169.406788 
L 200.471199 -170.15453 
L 201.092122 -170.902271 
L 201.73659 -171.650013 
L 202.392347 -172.397755 
L 203.047052 -173.145496 
L 203.689001 -173.893238 
L 204.307775 -174.64098 
L 204.89475 -175.388721 
L 205.443451 -176.136463 
L 205.949717 -176.884205 
L 206.411685 -177.631947 
L 206.829607 -178.379688 
L 207.205536 -179.12743 
L 207.542901 -179.875172 
L 207.846049 -180.622913 
L 208.119767 -181.370655 
L 208.368844 -182.118397 
L 208.597714 -182.866138 
L 208.810175 -183.61388 
L 209.009227 -184.361622 
L 209.197003 -185.109363 
L 209.374805 -185.857105 
L 209.5432 -186.604847 
L 209.702181 -187.352589 
L 209.851344 -188.10033 
L 209.990079 -188.848072 
L 210.117735 -189.595814 
L 210.233763 -190.343555 
L 210.337817 -191.091297 
L 210.429816 -191.839039 
L 210.509961 -192.58678 
L 210.57873 -193.334522 
L 210.636836 -194.082264 
L 211.080006 -194.082264 
L 211.080006 -194.082264 
L 211.138111 -193.334522 
L 211.20688 -192.58678 
L 211.287026 -191.839039 
L 211.379025 -191.091297 
L 211.483079 -190.343555 
L 211.599107 -189.595814 
L 211.726763 -188.848072 
L 211.865497 -188.10033 
L 212.014661 -187.352589 
L 212.173641 -186.604847 
L 212.342037 -185.857105 
L 212.519838 -185.109363 
L 212.707615 -184.361622 
L 212.906667 -183.61388 
L 213.119128 -182.866138 
L 213.347998 -182.118397 
L 213.597075 -181.370655 
L 213.870792 -180.622913 
L 214.17394 -179.875172 
L 214.511306 -179.12743 
L 214.887234 -178.379688 
L 215.305157 -177.631947 
L 215.767124 -176.884205 
L 216.27339 -176.136463 
L 216.822092 -175.388721 
L 217.409067 -174.64098 
L 218.027841 -173.893238 
L 218.66979 -173.145496 
L 219.324494 -172.397755 
L 219.980252 -171.650013 
L 220.62472 -170.902271 
L 221.245643 -170.15453 
L 221.831599 -169.406788 
L 222.372713 -168.659046 
L 222.861267 -167.911305 
L 223.292156 -167.163563 
L 223.66316 -166.415821 
L 223.974989 -165.668079 
L 224.231117 -164.920338 
L 224.437396 -164.172596 
L 224.601515 -163.424854 
L 224.73231 -162.677113 
L 224.839025 -161.929371 
L 224.930546 -161.181629 
L 225.014702 -160.433888 
L 225.097659 -159.686146 
L 225.183464 -158.938404 
L 225.273765 -158.190663 
L 225.367704 -157.442921 
L 225.462006 -156.695179 
L 225.551215 -155.947437 
L 225.628079 -155.199696 
L 225.684027 -154.451954 
L 225.709725 -153.704212 
L 225.695652 -152.956471 
L 225.632682 -152.208729 
L 225.512626 -151.460987 
L 225.328733 -150.713246 
L 225.076103 -149.965504 
L 224.752017 -149.217762 
L 224.356159 -148.470021 
L 223.890724 -147.722279 
L 223.360405 -146.974537 
L 222.772254 -146.226795 
L 222.135424 -145.479054 
L 221.460785 -144.731312 
L 220.760455 -143.98357 
L 220.047246 -143.235829 
L 219.334064 -142.488087 
L 218.633312 -141.740345 
L 217.956306 -140.992604 
L 217.312783 -140.244862 
L 216.710495 -139.49712 
L 216.154949 -138.749379 
L 215.649298 -138.001637 
L 215.194384 -137.253895 
L 214.788929 -136.506153 
L 214.429849 -135.758412 
L 214.112675 -135.01067 
L 213.832009 -134.262928 
L 213.582015 -133.515187 
L 213.35687 -132.767445 
L 213.15116 -132.019703 
L 212.960191 -131.271962 
L 212.780194 -130.52422 
L 212.608423 -129.776478 
L 212.443154 -129.028737 
L 212.283596 -128.280995 
L 212.129735 -127.533253 
L 211.98214 -126.785511 
L 211.84175 -126.03777 
L 211.709666 -125.290028 
L 211.586971 -124.542286 
L 211.474586 -123.794545 
L 211.373164 -123.046803 
L 211.283039 -122.299061 
L 211.204206 -121.55132 
L 211.136342 -120.803578 
L 211.078852 -120.055836 
z
" style="stroke: #595959; stroke-width: 1.25"/>
    </defs>
    <g clip-path="url(#pbb3995550d)">
     <use xlink:href="#ma28212c4c1" x="0" y="279.674688" style="fill: #a2c865; stroke: #595959; stroke-width: 1.25"/>
    </g>
   </g>
   <g id="PolyCollection_6">
    <defs>
     <path id="me6ec669163" d="M 248.153776 -71.507996 
L 247.819586 -71.507996 
L 247.773108 -72.722324 
L 247.71805 -73.936653 
L 247.654182 -75.150981 
L 247.581685 -76.365309 
L 247.501239 -77.579638 
L 247.414084 -78.793966 
L 247.32204 -80.008294 
L 247.22749 -81.222623 
L 247.133304 -82.436951 
L 247.042713 -83.65128 
L 246.959139 -84.865608 
L 246.885982 -86.079936 
L 246.826394 -87.294265 
L 246.783055 -88.508593 
L 246.75797 -89.722921 
L 246.752314 -90.93725 
L 246.766333 -92.151578 
L 246.79932 -93.365906 
L 246.849662 -94.580235 
L 246.914952 -95.794563 
L 246.992151 -97.008892 
L 247.077789 -98.22322 
L 247.168163 -99.437548 
L 247.259531 -100.651877 
L 247.348268 -101.866205 
L 247.430972 -103.080533 
L 247.504512 -104.294862 
L 247.56602 -105.50919 
L 247.612828 -106.723518 
L 247.642367 -107.937847 
L 247.652038 -109.152175 
L 247.639089 -110.366504 
L 247.600501 -111.580832 
L 247.532917 -112.79516 
L 247.432623 -114.009489 
L 247.295587 -115.223817 
L 247.117577 -116.438145 
L 246.894336 -117.652474 
L 246.621815 -118.866802 
L 246.296448 -120.081131 
L 245.915439 -121.295459 
L 245.477039 -122.509787 
L 244.980793 -123.724116 
L 244.427724 -124.938444 
L 243.820441 -126.152772 
L 243.163169 -127.367101 
L 242.461691 -128.581429 
L 241.72322 -129.795757 
L 240.956222 -131.010086 
L 240.170199 -132.224414 
L 239.375468 -133.438743 
L 238.582947 -134.653071 
L 237.803958 -135.867399 
L 237.050038 -137.081728 
L 236.332771 -138.296056 
L 235.663593 -139.510384 
L 235.053581 -140.724713 
L 234.513186 -141.939041 
L 234.051924 -143.153369 
L 233.678017 -144.367698 
L 233.398012 -145.582026 
L 233.216416 -146.796355 
L 233.135377 -148.010683 
L 233.154478 -149.225011 
L 233.270667 -150.43934 
L 233.47836 -151.653668 
L 233.769729 -152.867996 
L 234.135146 -154.082325 
L 234.563773 -155.296653 
L 235.044217 -156.510982 
L 235.5652 -157.72531 
L 236.116175 -158.939638 
L 236.687816 -160.153967 
L 237.272352 -161.368295 
L 237.863702 -162.582623 
L 238.457425 -163.796952 
L 239.050496 -165.01128 
L 239.640961 -166.225608 
L 240.227517 -167.439937 
L 240.80908 -168.654265 
L 241.384408 -169.868594 
L 241.951799 -171.082922 
L 242.508926 -172.29725 
L 243.052794 -173.511579 
L 243.579828 -174.725907 
L 244.086064 -175.940235 
L 244.567411 -177.154564 
L 245.019942 -178.368892 
L 245.440183 -179.58322 
L 245.825358 -180.797549 
L 246.173574 -182.011877 
L 246.48392 -183.226206 
L 246.75649 -184.440534 
L 246.992328 -185.654862 
L 247.193305 -186.869191 
L 247.361963 -188.083519 
L 247.501322 -189.297847 
L 247.614687 -190.512176 
L 247.705475 -191.726504 
L 248.267887 -191.726504 
L 248.267887 -191.726504 
L 248.358675 -190.512176 
L 248.472041 -189.297847 
L 248.611399 -188.083519 
L 248.780057 -186.869191 
L 248.981034 -185.654862 
L 249.216872 -184.440534 
L 249.489442 -183.226206 
L 249.799788 -182.011877 
L 250.148004 -180.797549 
L 250.533179 -179.58322 
L 250.95342 -178.368892 
L 251.405951 -177.154564 
L 251.887298 -175.940235 
L 252.393534 -174.725907 
L 252.920568 -173.511579 
L 253.464436 -172.29725 
L 254.021563 -171.082922 
L 254.588954 -169.868594 
L 255.164282 -168.654265 
L 255.745846 -167.439937 
L 256.332401 -166.225608 
L 256.922866 -165.01128 
L 257.515937 -163.796952 
L 258.10966 -162.582623 
L 258.70101 -161.368295 
L 259.285546 -160.153967 
L 259.857187 -158.939638 
L 260.408162 -157.72531 
L 260.929145 -156.510982 
L 261.409589 -155.296653 
L 261.838216 -154.082325 
L 262.203634 -152.867996 
L 262.495002 -151.653668 
L 262.702695 -150.43934 
L 262.818884 -149.225011 
L 262.837985 -148.010683 
L 262.756946 -146.796355 
L 262.57535 -145.582026 
L 262.295345 -144.367698 
L 261.921438 -143.153369 
L 261.460176 -141.939041 
L 260.919781 -140.724713 
L 260.309769 -139.510384 
L 259.640591 -138.296056 
L 258.923324 -137.081728 
L 258.169404 -135.867399 
L 257.390415 -134.653071 
L 256.597894 -133.438743 
L 255.803163 -132.224414 
L 255.01714 -131.010086 
L 254.250142 -129.795757 
L 253.511671 -128.581429 
L 252.810193 -127.367101 
L 252.152921 -126.152772 
L 251.545638 -124.938444 
L 250.992569 -123.724116 
L 250.496323 -122.509787 
L 250.057923 -121.295459 
L 249.676914 -120.081131 
L 249.351547 -118.866802 
L 249.079026 -117.652474 
L 248.855785 -116.438145 
L 248.677775 -115.223817 
L 248.540739 -114.009489 
L 248.440445 -112.79516 
L 248.372861 -111.580832 
L 248.334273 -110.366504 
L 248.321324 -109.152175 
L 248.330995 -107.937847 
L 248.360534 -106.723518 
L 248.407342 -105.50919 
L 248.46885 -104.294862 
L 248.54239 -103.080533 
L 248.625094 -101.866205 
L 248.713831 -100.651877 
L 248.805199 -99.437548 
L 248.895573 -98.22322 
L 248.981211 -97.008892 
L 249.05841 -95.794563 
L 249.1237 -94.580235 
L 249.174042 -93.365906 
L 249.207029 -92.151578 
L 249.221048 -90.93725 
L 249.215392 -89.722921 
L 249.190307 -88.508593 
L 249.146968 -87.294265 
L 249.08738 -86.079936 
L 249.014223 -84.865608 
L 248.930649 -83.65128 
L 248.840058 -82.436951 
L 248.745872 -81.222623 
L 248.651322 -80.008294 
L 248.559279 -78.793966 
L 248.472123 -77.579638 
L 248.391677 -76.365309 
L 248.31918 -75.150981 
L 248.255312 -73.936653 
L 248.200254 -72.722324 
L 248.153776 -71.507996 
z
" style="stroke: #595959; stroke-width: 1.25"/>
    </defs>
    <g clip-path="url(#pbb3995550d)">
     <use xlink:href="#me6ec669163" x="0" y="279.674688" style="fill: #e5c849; stroke: #595959; stroke-width: 1.25"/>
    </g>
   </g>
   <g id="matplotlib.axis_1">
    <g id="xtick_1">
     <g id="line2d_1">
      <defs>
       <path id="m5e58eda882" d="M 0 0 
L 0 3.5 
" style="stroke: #000000; stroke-width: 0.8"/>
      </defs>
      <g>
       <use xlink:href="#m5e58eda882" x="62.34538" y="242.118437" style="stroke: #000000; stroke-width: 0.8"/>
      </g>
     </g>
     <g id="text_1">
      <!-- 1 -->
      <g transform="translate(59.16413 256.716875) scale(0.1 -0.1)">
       <defs>
        <path id="DejaVuSans-31" d="M 794 531 
L 1825 531 
L 1825 4091 
L 703 3866 
L 703 4441 
L 1819 4666 
L 2450 4666 
L 2450 531 
L 3481 531 
L 3481 0 
L 794 0 
L 794 531 
z
" transform="scale(0.015625)"/>
       </defs>
       <use xlink:href="#DejaVuSans-31"/>
      </g>
     </g>
    </g>
    <g id="xtick_2">
     <g id="line2d_2">
      <g>
       <use xlink:href="#m5e58eda882" x="99.47364" y="242.118437" style="stroke: #000000; stroke-width: 0.8"/>
      </g>
     </g>
     <g id="text_2">
      <!-- 2 -->
      <g transform="translate(96.29239 256.716875) scale(0.1 -0.1)">
       <defs>
        <path id="DejaVuSans-32" d="M 1228 531 
L 3431 531 
L 3431 0 
L 469 0 
L 469 531 
Q 828 903 1448 1529 
Q 2069 2156 2228 2338 
Q 2531 2678 2651 2914 
Q 2772 3150 2772 3378 
Q 2772 3750 2511 3984 
Q 2250 4219 1831 4219 
Q 1534 4219 1204 4116 
Q 875 4013 500 3803 
L 500 4441 
Q 881 4594 1212 4672 
Q 1544 4750 1819 4750 
Q 2544 4750 2975 4387 
Q 3406 4025 3406 3419 
Q 3406 3131 3298 2873 
Q 3191 2616 2906 2266 
Q 2828 2175 2409 1742 
Q 1991 1309 1228 531 
z
" transform="scale(0.015625)"/>
       </defs>
       <use xlink:href="#DejaVuSans-32"/>
      </g>
     </g>
    </g>
    <g id="xtick_3">
     <g id="line2d_3">
      <g>
       <use xlink:href="#m5e58eda882" x="136.6019" y="242.118437" style="stroke: #000000; stroke-width: 0.8"/>
      </g>
     </g>
     <g id="text_3">
      <!-- 3 -->
      <g transform="translate(133.42065 256.716875) scale(0.1 -0.1)">
       <defs>
        <path id="DejaVuSans-33" d="M 2597 2516 
Q 3050 2419 3304 2112 
Q 3559 1806 3559 1356 
Q 3559 666 3084 287 
Q 2609 -91 1734 -91 
Q 1441 -91 1130 -33 
Q 819 25 488 141 
L 488 750 
Q 750 597 1062 519 
Q 1375 441 1716 441 
Q 2309 441 2620 675 
Q 2931 909 2931 1356 
Q 2931 1769 2642 2001 
Q 2353 2234 1838 2234 
L 1294 2234 
L 1294 2753 
L 1863 2753 
Q 2328 2753 2575 2939 
Q 2822 3125 2822 3475 
Q 2822 3834 2567 4026 
Q 2313 4219 1838 4219 
Q 1578 4219 1281 4162 
Q 984 4106 628 3988 
L 628 4550 
Q 988 4650 1302 4700 
Q 1616 4750 1894 4750 
Q 2613 4750 3031 4423 
Q 3450 4097 3450 3541 
Q 3450 3153 3228 2886 
Q 3006 2619 2597 2516 
z
" transform="scale(0.015625)"/>
       </defs>
       <use xlink:href="#DejaVuSans-33"/>
      </g>
     </g>
    </g>
    <g id="xtick_4">
     <g id="line2d_4">
      <g>
       <use xlink:href="#m5e58eda882" x="173.730161" y="242.118437" style="stroke: #000000; stroke-width: 0.8"/>
      </g>
     </g>
     <g id="text_4">
      <!-- 4 -->
      <g transform="translate(170.548911 256.716875) scale(0.1 -0.1)">
       <defs>
        <path id="DejaVuSans-34" d="M 2419 4116 
L 825 1625 
L 2419 1625 
L 2419 4116 
z
M 2253 4666 
L 3047 4666 
L 3047 1625 
L 3713 1625 
L 3713 1100 
L 3047 1100 
L 3047 0 
L 2419 0 
L 2419 1100 
L 313 1100 
L 313 1709 
L 2253 4666 
z
" transform="scale(0.015625)"/>
       </defs>
       <use xlink:href="#DejaVuSans-34"/>
      </g>
     </g>
    </g>
    <g id="xtick_5">
     <g id="line2d_5">
      <g>
       <use xlink:href="#m5e58eda882" x="210.858421" y="242.118437" style="stroke: #000000; stroke-width: 0.8"/>
      </g>
     </g>
     <g id="text_5">
      <!-- 5 -->
      <g transform="translate(207.677171 256.716875) scale(0.1 -0.1)">
       <defs>
        <path id="DejaVuSans-35" d="M 691 4666 
L 3169 4666 
L 3169 4134 
L 1269 4134 
L 1269 2991 
Q 1406 3038 1543 3061 
Q 1681 3084 1819 3084 
Q 2600 3084 3056 2656 
Q 3513 2228 3513 1497 
Q 3513 744 3044 326 
Q 2575 -91 1722 -91 
Q 1428 -91 1123 -41 
Q 819 9 494 109 
L 494 744 
Q 775 591 1075 516 
Q 1375 441 1709 441 
Q 2250 441 2565 725 
Q 2881 1009 2881 1497 
Q 2881 1984 2565 2268 
Q 2250 2553 1709 2553 
Q 1456 2553 1204 2497 
Q 953 2441 691 2322 
L 691 4666 
z
" transform="scale(0.015625)"/>
       </defs>
       <use xlink:href="#DejaVuSans-35"/>
      </g>
     </g>
    </g>
    <g id="xtick_6">
     <g id="line2d_6">
      <g>
       <use xlink:href="#m5e58eda882" x="247.986681" y="242.118437" style="stroke: #000000; stroke-width: 0.8"/>
      </g>
     </g>
     <g id="text_6">
      <!-- 6 -->
      <g transform="translate(244.805431 256.716875) scale(0.1 -0.1)">
       <defs>
        <path id="DejaVuSans-36" d="M 2113 2584 
Q 1688 2584 1439 2293 
Q 1191 2003 1191 1497 
Q 1191 994 1439 701 
Q 1688 409 2113 409 
Q 2538 409 2786 701 
Q 3034 994 3034 1497 
Q 3034 2003 2786 2293 
Q 2538 2584 2113 2584 
z
M 3366 4563 
L 3366 3988 
Q 3128 4100 2886 4159 
Q 2644 4219 2406 4219 
Q 1781 4219 1451 3797 
Q 1122 3375 1075 2522 
Q 1259 2794 1537 2939 
Q 1816 3084 2150 3084 
Q 2853 3084 3261 2657 
Q 3669 2231 3669 1497 
Q 3669 778 3244 343 
Q 2819 -91 2113 -91 
Q 1303 -91 875 529 
Q 447 1150 447 2328 
Q 447 3434 972 4092 
Q 1497 4750 2381 4750 
Q 2619 4750 2861 4703 
Q 3103 4656 3366 4563 
z
" transform="scale(0.015625)"/>
       </defs>
       <use xlink:href="#DejaVuSans-36"/>
      </g>
     </g>
    </g>
    <g id="text_7">
     <!-- Layer -->
     <g transform="translate(141.224624 270.395) scale(0.1 -0.1)">
      <defs>
       <path id="DejaVuSans-4c" d="M 628 4666 
L 1259 4666 
L 1259 531 
L 3531 531 
L 3531 0 
L 628 0 
L 628 4666 
z
" transform="scale(0.015625)"/>
       <path id="DejaVuSans-61" d="M 2194 1759 
Q 1497 1759 1228 1600 
Q 959 1441 959 1056 
Q 959 750 1161 570 
Q 1363 391 1709 391 
Q 2188 391 2477 730 
Q 2766 1069 2766 1631 
L 2766 1759 
L 2194 1759 
z
M 3341 1997 
L 3341 0 
L 2766 0 
L 2766 531 
Q 2569 213 2275 61 
Q 1981 -91 1556 -91 
Q 1019 -91 701 211 
Q 384 513 384 1019 
Q 384 1609 779 1909 
Q 1175 2209 1959 2209 
L 2766 2209 
L 2766 2266 
Q 2766 2663 2505 2880 
Q 2244 3097 1772 3097 
Q 1472 3097 1187 3025 
Q 903 2953 641 2809 
L 641 3341 
Q 956 3463 1253 3523 
Q 1550 3584 1831 3584 
Q 2591 3584 2966 3190 
Q 3341 2797 3341 1997 
z
" transform="scale(0.015625)"/>
       <path id="DejaVuSans-79" d="M 2059 -325 
Q 1816 -950 1584 -1140 
Q 1353 -1331 966 -1331 
L 506 -1331 
L 506 -850 
L 844 -850 
Q 1081 -850 1212 -737 
Q 1344 -625 1503 -206 
L 1606 56 
L 191 3500 
L 800 3500 
L 1894 763 
L 2988 3500 
L 3597 3500 
L 2059 -325 
z
" transform="scale(0.015625)"/>
       <path id="DejaVuSans-65" d="M 3597 1894 
L 3597 1613 
L 953 1613 
Q 991 1019 1311 708 
Q 1631 397 2203 397 
Q 2534 397 2845 478 
Q 3156 559 3463 722 
L 3463 178 
Q 3153 47 2828 -22 
Q 2503 -91 2169 -91 
Q 1331 -91 842 396 
Q 353 884 353 1716 
Q 353 2575 817 3079 
Q 1281 3584 2069 3584 
Q 2775 3584 3186 3129 
Q 3597 2675 3597 1894 
z
M 3022 2063 
Q 3016 2534 2758 2815 
Q 2500 3097 2075 3097 
Q 1594 3097 1305 2825 
Q 1016 2553 972 2059 
L 3022 2063 
z
" transform="scale(0.015625)"/>
       <path id="DejaVuSans-72" d="M 2631 2963 
Q 2534 3019 2420 3045 
Q 2306 3072 2169 3072 
Q 1681 3072 1420 2755 
Q 1159 2438 1159 1844 
L 1159 0 
L 581 0 
L 581 3500 
L 1159 3500 
L 1159 2956 
Q 1341 3275 1631 3429 
Q 1922 3584 2338 3584 
Q 2397 3584 2469 3576 
Q 2541 3569 2628 3553 
L 2631 2963 
z
" transform="scale(0.015625)"/>
      </defs>
      <use xlink:href="#DejaVuSans-4c"/>
      <use xlink:href="#DejaVuSans-61" x="55.712891"/>
      <use xlink:href="#DejaVuSans-79" x="116.992188"/>
      <use xlink:href="#DejaVuSans-65" x="176.171875"/>
      <use xlink:href="#DejaVuSans-72" x="237.695312"/>
     </g>
    </g>
   </g>
   <g id="matplotlib.axis_2">
    <g id="ytick_1">
     <g id="line2d_7">
      <defs>
       <path id="ma6f4b8e59d" d="M 0 0 
L -3.5 0 
" style="stroke: #000000; stroke-width: 0.8"/>
      </defs>
      <g>
       <use xlink:href="#ma6f4b8e59d" x="43.78125" y="242.118437" style="stroke: #000000; stroke-width: 0.8"/>
      </g>
     </g>
     <g id="text_8">
      <!-- 0.0 -->
      <g transform="translate(20.878125 245.917656) scale(0.1 -0.1)">
       <defs>
        <path id="DejaVuSans-30" d="M 2034 4250 
Q 1547 4250 1301 3770 
Q 1056 3291 1056 2328 
Q 1056 1369 1301 889 
Q 1547 409 2034 409 
Q 2525 409 2770 889 
Q 3016 1369 3016 2328 
Q 3016 3291 2770 3770 
Q 2525 4250 2034 4250 
z
M 2034 4750 
Q 2819 4750 3233 4129 
Q 3647 3509 3647 2328 
Q 3647 1150 3233 529 
Q 2819 -91 2034 -91 
Q 1250 -91 836 529 
Q 422 1150 422 2328 
Q 422 3509 836 4129 
Q 1250 4750 2034 4750 
z
" transform="scale(0.015625)"/>
        <path id="DejaVuSans-2e" d="M 684 794 
L 1344 794 
L 1344 0 
L 684 0 
L 684 794 
z
" transform="scale(0.015625)"/>
       </defs>
       <use xlink:href="#DejaVuSans-30"/>
       <use xlink:href="#DejaVuSans-2e" x="63.623047"/>
       <use xlink:href="#DejaVuSans-30" x="95.410156"/>
      </g>
     </g>
    </g>
    <g id="ytick_2">
     <g id="line2d_8">
      <g>
       <use xlink:href="#ma6f4b8e59d" x="43.78125" y="197.854437" style="stroke: #000000; stroke-width: 0.8"/>
      </g>
     </g>
     <g id="text_9">
      <!-- 0.2 -->
      <g transform="translate(20.878125 201.653656) scale(0.1 -0.1)">
       <use xlink:href="#DejaVuSans-30"/>
       <use xlink:href="#DejaVuSans-2e" x="63.623047"/>
       <use xlink:href="#DejaVuSans-32" x="95.410156"/>
      </g>
     </g>
    </g>
    <g id="ytick_3">
     <g id="line2d_9">
      <g>
       <use xlink:href="#ma6f4b8e59d" x="43.78125" y="153.590437" style="stroke: #000000; stroke-width: 0.8"/>
      </g>
     </g>
     <g id="text_10">
      <!-- 0.4 -->
      <g transform="translate(20.878125 157.389656) scale(0.1 -0.1)">
       <use xlink:href="#DejaVuSans-30"/>
       <use xlink:href="#DejaVuSans-2e" x="63.623047"/>
       <use xlink:href="#DejaVuSans-34" x="95.410156"/>
      </g>
     </g>
    </g>
    <g id="ytick_4">
     <g id="line2d_10">
      <g>
       <use xlink:href="#ma6f4b8e59d" x="43.78125" y="109.326437" style="stroke: #000000; stroke-width: 0.8"/>
      </g>
     </g>
     <g id="text_11">
      <!-- 0.6 -->
      <g transform="translate(20.878125 113.125656) scale(0.1 -0.1)">
       <use xlink:href="#DejaVuSans-30"/>
       <use xlink:href="#DejaVuSans-2e" x="63.623047"/>
       <use xlink:href="#DejaVuSans-36" x="95.410156"/>
      </g>
     </g>
    </g>
    <g id="ytick_5">
     <g id="line2d_11">
      <g>
       <use xlink:href="#ma6f4b8e59d" x="43.78125" y="65.062437" style="stroke: #000000; stroke-width: 0.8"/>
      </g>
     </g>
     <g id="text_12">
      <!-- 0.8 -->
      <g transform="translate(20.878125 68.861656) scale(0.1 -0.1)">
       <defs>
        <path id="DejaVuSans-38" d="M 2034 2216 
Q 1584 2216 1326 1975 
Q 1069 1734 1069 1313 
Q 1069 891 1326 650 
Q 1584 409 2034 409 
Q 2484 409 2743 651 
Q 3003 894 3003 1313 
Q 3003 1734 2745 1975 
Q 2488 2216 2034 2216 
z
M 1403 2484 
Q 997 2584 770 2862 
Q 544 3141 544 3541 
Q 544 4100 942 4425 
Q 1341 4750 2034 4750 
Q 2731 4750 3128 4425 
Q 3525 4100 3525 3541 
Q 3525 3141 3298 2862 
Q 3072 2584 2669 2484 
Q 3125 2378 3379 2068 
Q 3634 1759 3634 1313 
Q 3634 634 3220 271 
Q 2806 -91 2034 -91 
Q 1263 -91 848 271 
Q 434 634 434 1313 
Q 434 1759 690 2068 
Q 947 2378 1403 2484 
z
M 1172 3481 
Q 1172 3119 1398 2916 
Q 1625 2713 2034 2713 
Q 2441 2713 2670 2916 
Q 2900 3119 2900 3481 
Q 2900 3844 2670 4047 
Q 2441 4250 2034 4250 
Q 1625 4250 1398 4047 
Q 1172 3844 1172 3481 
z
" transform="scale(0.015625)"/>
       </defs>
       <use xlink:href="#DejaVuSans-30"/>
       <use xlink:href="#DejaVuSans-2e" x="63.623047"/>
       <use xlink:href="#DejaVuSans-38" x="95.410156"/>
      </g>
     </g>
    </g>
    <g id="ytick_6">
     <g id="line2d_12">
      <g>
       <use xlink:href="#ma6f4b8e59d" x="43.78125" y="20.798437" style="stroke: #000000; stroke-width: 0.8"/>
      </g>
     </g>
     <g id="text_13">
      <!-- 1.0 -->
      <g transform="translate(20.878125 24.597656) scale(0.1 -0.1)">
       <use xlink:href="#DejaVuSans-31"/>
       <use xlink:href="#DejaVuSans-2e" x="63.623047"/>
       <use xlink:href="#DejaVuSans-30" x="95.410156"/>
      </g>
     </g>
    </g>
    <g id="text_14">
     <!-- Accuracy -->
     <g transform="translate(14.798438 154.286563) rotate(-90) scale(0.1 -0.1)">
      <defs>
       <path id="DejaVuSans-41" d="M 2188 4044 
L 1331 1722 
L 3047 1722 
L 2188 4044 
z
M 1831 4666 
L 2547 4666 
L 4325 0 
L 3669 0 
L 3244 1197 
L 1141 1197 
L 716 0 
L 50 0 
L 1831 4666 
z
" transform="scale(0.015625)"/>
       <path id="DejaVuSans-63" d="M 3122 3366 
L 3122 2828 
Q 2878 2963 2633 3030 
Q 2388 3097 2138 3097 
Q 1578 3097 1268 2742 
Q 959 2388 959 1747 
Q 959 1106 1268 751 
Q 1578 397 2138 397 
Q 2388 397 2633 464 
Q 2878 531 3122 666 
L 3122 134 
Q 2881 22 2623 -34 
Q 2366 -91 2075 -91 
Q 1284 -91 818 406 
Q 353 903 353 1747 
Q 353 2603 823 3093 
Q 1294 3584 2113 3584 
Q 2378 3584 2631 3529 
Q 2884 3475 3122 3366 
z
" transform="scale(0.015625)"/>
       <path id="DejaVuSans-75" d="M 544 1381 
L 544 3500 
L 1119 3500 
L 1119 1403 
Q 1119 906 1312 657 
Q 1506 409 1894 409 
Q 2359 409 2629 706 
Q 2900 1003 2900 1516 
L 2900 3500 
L 3475 3500 
L 3475 0 
L 2900 0 
L 2900 538 
Q 2691 219 2414 64 
Q 2138 -91 1772 -91 
Q 1169 -91 856 284 
Q 544 659 544 1381 
z
M 1991 3584 
L 1991 3584 
z
" transform="scale(0.015625)"/>
      </defs>
      <use xlink:href="#DejaVuSans-41"/>
      <use xlink:href="#DejaVuSans-63" x="66.658203"/>
      <use xlink:href="#DejaVuSans-63" x="121.638672"/>
      <use xlink:href="#DejaVuSans-75" x="176.619141"/>
      <use xlink:href="#DejaVuSans-72" x="239.998047"/>
      <use xlink:href="#DejaVuSans-61" x="281.111328"/>
      <use xlink:href="#DejaVuSans-63" x="342.390625"/>
      <use xlink:href="#DejaVuSans-79" x="397.371094"/>
     </g>
    </g>
   </g>
   <g id="line2d_13">
    <path d="M 43.78125 131.458438 
L 266.550811 131.458438 
" clip-path="url(#pbb3995550d)" style="fill: none; stroke-dasharray: 5.55,2.4; stroke-dashoffset: 0; stroke: #808080; stroke-width: 1.5"/>
   </g>
   <g id="patch_3">
    <path d="M 43.78125 242.118437 
L 43.78125 20.798437 
" style="fill: none; stroke: #000000; stroke-width: 0.8; stroke-linejoin: miter; stroke-linecap: square"/>
   </g>
   <g id="patch_4">
    <path d="M 43.78125 242.118437 
L 266.550811 242.118437 
" style="fill: none; stroke: #000000; stroke-width: 0.8; stroke-linejoin: miter; stroke-linecap: square"/>
   </g>
   <g id="PathCollection_1">
    <defs>
     <path id="m569eea5cf3" d="M 0 1.25 
C 0.331504 1.25 0.649475 1.118292 0.883883 0.883883 
C 1.118292 0.649475 1.25 0.331504 1.25 0 
C 1.25 -0.331504 1.118292 -0.649475 0.883883 -0.883883 
C 0.649475 -1.118292 0.331504 -1.25 0 -1.25 
C -0.331504 -1.25 -0.649475 -1.118292 -0.883883 -0.883883 
C -1.118292 -0.649475 -1.25 -0.331504 -1.25 0 
C -1.25 0.331504 -1.118292 0.649475 -0.883883 0.883883 
C -0.649475 1.118292 -0.331504 1.25 0 1.25 
z
" style="stroke: #595959"/>
    </defs>
    <g clip-path="url(#pbb3995550d)">
     <use xlink:href="#m569eea5cf3" x="62.34538" y="127.032037" style="fill: #595959; stroke: #595959"/>
     <use xlink:href="#m569eea5cf3" x="62.34538" y="120.392437" style="fill: #595959; stroke: #595959"/>
     <use xlink:href="#m569eea5cf3" x="62.34538" y="118.179237" style="fill: #595959; stroke: #595959"/>
     <use xlink:href="#m569eea5cf3" x="62.34538" y="129.245237" style="fill: #595959; stroke: #595959"/>
     <use xlink:href="#m569eea5cf3" x="62.34538" y="120.392437" style="fill: #595959; stroke: #595959"/>
     <use xlink:href="#m569eea5cf3" x="62.34538" y="122.605638" style="fill: #595959; stroke: #595959"/>
     <use xlink:href="#m569eea5cf3" x="62.34538" y="142.524437" style="fill: #595959; stroke: #595959"/>
     <use xlink:href="#m569eea5cf3" x="62.34538" y="133.671637" style="fill: #595959; stroke: #595959"/>
     <use xlink:href="#m569eea5cf3" x="62.34538" y="129.245237" style="fill: #595959; stroke: #595959"/>
     <use xlink:href="#m569eea5cf3" x="62.34538" y="118.179237" style="fill: #595959; stroke: #595959"/>
     <use xlink:href="#m569eea5cf3" x="62.34538" y="146.950837" style="fill: #595959; stroke: #595959"/>
     <use xlink:href="#m569eea5cf3" x="62.34538" y="133.671637" style="fill: #595959; stroke: #595959"/>
     <use xlink:href="#m569eea5cf3" x="62.34538" y="133.671637" style="fill: #595959; stroke: #595959"/>
     <use xlink:href="#m569eea5cf3" x="62.34538" y="166.869638" style="fill: #595959; stroke: #595959"/>
     <use xlink:href="#m569eea5cf3" x="62.34538" y="160.230037" style="fill: #595959; stroke: #595959"/>
     <use xlink:href="#m569eea5cf3" x="62.34538" y="107.113237" style="fill: #595959; stroke: #595959"/>
     <use xlink:href="#m569eea5cf3" x="62.34538" y="144.737637" style="fill: #595959; stroke: #595959"/>
     <use xlink:href="#m569eea5cf3" x="62.34538" y="149.164037" style="fill: #595959; stroke: #595959"/>
     <use xlink:href="#m569eea5cf3" x="62.34538" y="124.818837" style="fill: #595959; stroke: #595959"/>
     <use xlink:href="#m569eea5cf3" x="62.34538" y="133.671637" style="fill: #595959; stroke: #595959"/>
    </g>
   </g>
   <g id="PathCollection_2">
    <g clip-path="url(#pbb3995550d)">
     <use xlink:href="#m569eea5cf3" x="99.47364" y="133.671638" style="fill: #595959; stroke: #595959"/>
     <use xlink:href="#m569eea5cf3" x="99.47364" y="131.458438" style="fill: #595959; stroke: #595959"/>
     <use xlink:href="#m569eea5cf3" x="99.47364" y="138.098038" style="fill: #595959; stroke: #595959"/>
     <use xlink:href="#m569eea5cf3" x="99.47364" y="151.377237" style="fill: #595959; stroke: #595959"/>
     <use xlink:href="#m569eea5cf3" x="99.47364" y="124.818837" style="fill: #595959; stroke: #595959"/>
     <use xlink:href="#m569eea5cf3" x="99.47364" y="127.032037" style="fill: #595959; stroke: #595959"/>
     <use xlink:href="#m569eea5cf3" x="99.47364" y="155.803637" style="fill: #595959; stroke: #595959"/>
     <use xlink:href="#m569eea5cf3" x="99.47364" y="118.179237" style="fill: #595959; stroke: #595959"/>
     <use xlink:href="#m569eea5cf3" x="99.47364" y="153.590437" style="fill: #595959; stroke: #595959"/>
     <use xlink:href="#m569eea5cf3" x="99.47364" y="127.032037" style="fill: #595959; stroke: #595959"/>
     <use xlink:href="#m569eea5cf3" x="99.47364" y="120.392437" style="fill: #595959; stroke: #595959"/>
     <use xlink:href="#m569eea5cf3" x="99.47364" y="131.458437" style="fill: #595959; stroke: #595959"/>
     <use xlink:href="#m569eea5cf3" x="99.47364" y="146.950837" style="fill: #595959; stroke: #595959"/>
     <use xlink:href="#m569eea5cf3" x="99.47364" y="140.311237" style="fill: #595959; stroke: #595959"/>
     <use xlink:href="#m569eea5cf3" x="99.47364" y="118.179237" style="fill: #595959; stroke: #595959"/>
     <use xlink:href="#m569eea5cf3" x="99.47364" y="127.032037" style="fill: #595959; stroke: #595959"/>
     <use xlink:href="#m569eea5cf3" x="99.47364" y="124.818837" style="fill: #595959; stroke: #595959"/>
     <use xlink:href="#m569eea5cf3" x="99.47364" y="138.098038" style="fill: #595959; stroke: #595959"/>
     <use xlink:href="#m569eea5cf3" x="99.47364" y="146.950837" style="fill: #595959; stroke: #595959"/>
     <use xlink:href="#m569eea5cf3" x="99.47364" y="142.524437" style="fill: #595959; stroke: #595959"/>
    </g>
   </g>
   <g id="PathCollection_3">
    <g clip-path="url(#pbb3995550d)">
     <use xlink:href="#m569eea5cf3" x="136.6019" y="65.062437" style="fill: #595959; stroke: #595959"/>
     <use xlink:href="#m569eea5cf3" x="136.6019" y="67.275637" style="fill: #595959; stroke: #595959"/>
     <use xlink:href="#m569eea5cf3" x="136.6019" y="78.341637" style="fill: #595959; stroke: #595959"/>
     <use xlink:href="#m569eea5cf3" x="136.6019" y="69.488837" style="fill: #595959; stroke: #595959"/>
     <use xlink:href="#m569eea5cf3" x="136.6019" y="62.849237" style="fill: #595959; stroke: #595959"/>
     <use xlink:href="#m569eea5cf3" x="136.6019" y="80.554837" style="fill: #595959; stroke: #595959"/>
     <use xlink:href="#m569eea5cf3" x="136.6019" y="76.128437" style="fill: #595959; stroke: #595959"/>
     <use xlink:href="#m569eea5cf3" x="136.6019" y="80.554837" style="fill: #595959; stroke: #595959"/>
     <use xlink:href="#m569eea5cf3" x="136.6019" y="65.062437" style="fill: #595959; stroke: #595959"/>
     <use xlink:href="#m569eea5cf3" x="136.6019" y="84.981237" style="fill: #595959; stroke: #595959"/>
     <use xlink:href="#m569eea5cf3" x="136.6019" y="76.128437" style="fill: #595959; stroke: #595959"/>
     <use xlink:href="#m569eea5cf3" x="136.6019" y="98.260437" style="fill: #595959; stroke: #595959"/>
     <use xlink:href="#m569eea5cf3" x="136.6019" y="78.341637" style="fill: #595959; stroke: #595959"/>
     <use xlink:href="#m569eea5cf3" x="136.6019" y="73.915237" style="fill: #595959; stroke: #595959"/>
     <use xlink:href="#m569eea5cf3" x="136.6019" y="80.554837" style="fill: #595959; stroke: #595959"/>
     <use xlink:href="#m569eea5cf3" x="136.6019" y="78.341637" style="fill: #595959; stroke: #595959"/>
     <use xlink:href="#m569eea5cf3" x="136.6019" y="73.915237" style="fill: #595959; stroke: #595959"/>
     <use xlink:href="#m569eea5cf3" x="136.6019" y="67.275637" style="fill: #595959; stroke: #595959"/>
     <use xlink:href="#m569eea5cf3" x="136.6019" y="60.636037" style="fill: #595959; stroke: #595959"/>
     <use xlink:href="#m569eea5cf3" x="136.6019" y="73.915237" style="fill: #595959; stroke: #595959"/>
    </g>
   </g>
   <g id="PathCollection_4">
    <g clip-path="url(#pbb3995550d)">
     <use xlink:href="#m569eea5cf3" x="173.730161" y="29.651237" style="fill: #595959; stroke: #595959"/>
     <use xlink:href="#m569eea5cf3" x="173.730161" y="36.290837" style="fill: #595959; stroke: #595959"/>
     <use xlink:href="#m569eea5cf3" x="173.730161" y="31.864437" style="fill: #595959; stroke: #595959"/>
     <use xlink:href="#m569eea5cf3" x="173.730161" y="38.504037" style="fill: #595959; stroke: #595959"/>
     <use xlink:href="#m569eea5cf3" x="173.730161" y="42.930437" style="fill: #595959; stroke: #595959"/>
     <use xlink:href="#m569eea5cf3" x="173.730161" y="34.077637" style="fill: #595959; stroke: #595959"/>
     <use xlink:href="#m569eea5cf3" x="173.730161" y="47.356837" style="fill: #595959; stroke: #595959"/>
     <use xlink:href="#m569eea5cf3" x="173.730161" y="49.570037" style="fill: #595959; stroke: #595959"/>
     <use xlink:href="#m569eea5cf3" x="173.730161" y="34.077637" style="fill: #595959; stroke: #595959"/>
     <use xlink:href="#m569eea5cf3" x="173.730161" y="40.717238" style="fill: #595959; stroke: #595959"/>
     <use xlink:href="#m569eea5cf3" x="173.730161" y="40.717238" style="fill: #595959; stroke: #595959"/>
     <use xlink:href="#m569eea5cf3" x="173.730161" y="60.636037" style="fill: #595959; stroke: #595959"/>
     <use xlink:href="#m569eea5cf3" x="173.730161" y="36.290837" style="fill: #595959; stroke: #595959"/>
     <use xlink:href="#m569eea5cf3" x="173.730161" y="31.864437" style="fill: #595959; stroke: #595959"/>
     <use xlink:href="#m569eea5cf3" x="173.730161" y="29.651237" style="fill: #595959; stroke: #595959"/>
     <use xlink:href="#m569eea5cf3" x="173.730161" y="27.438037" style="fill: #595959; stroke: #595959"/>
     <use xlink:href="#m569eea5cf3" x="173.730161" y="40.717238" style="fill: #595959; stroke: #595959"/>
     <use xlink:href="#m569eea5cf3" x="173.730161" y="45.143637" style="fill: #595959; stroke: #595959"/>
     <use xlink:href="#m569eea5cf3" x="173.730161" y="31.864437" style="fill: #595959; stroke: #595959"/>
     <use xlink:href="#m569eea5cf3" x="173.730161" y="49.570037" style="fill: #595959; stroke: #595959"/>
    </g>
   </g>
   <g id="PathCollection_5">
    <g clip-path="url(#pbb3995550d)">
     <use xlink:href="#m569eea5cf3" x="210.858421" y="109.326437" style="fill: #595959; stroke: #595959"/>
     <use xlink:href="#m569eea5cf3" x="210.858421" y="124.818838" style="fill: #595959; stroke: #595959"/>
     <use xlink:href="#m569eea5cf3" x="210.858421" y="129.245237" style="fill: #595959; stroke: #595959"/>
     <use xlink:href="#m569eea5cf3" x="210.858421" y="146.950837" style="fill: #595959; stroke: #595959"/>
     <use xlink:href="#m569eea5cf3" x="210.858421" y="115.966037" style="fill: #595959; stroke: #595959"/>
     <use xlink:href="#m569eea5cf3" x="210.858421" y="127.032037" style="fill: #595959; stroke: #595959"/>
     <use xlink:href="#m569eea5cf3" x="210.858421" y="135.884838" style="fill: #595959; stroke: #595959"/>
     <use xlink:href="#m569eea5cf3" x="210.858421" y="98.260437" style="fill: #595959; stroke: #595959"/>
     <use xlink:href="#m569eea5cf3" x="210.858421" y="120.392437" style="fill: #595959; stroke: #595959"/>
     <use xlink:href="#m569eea5cf3" x="210.858421" y="113.752837" style="fill: #595959; stroke: #595959"/>
     <use xlink:href="#m569eea5cf3" x="210.858421" y="115.966037" style="fill: #595959; stroke: #595959"/>
     <use xlink:href="#m569eea5cf3" x="210.858421" y="113.752837" style="fill: #595959; stroke: #595959"/>
     <use xlink:href="#m569eea5cf3" x="210.858421" y="133.671637" style="fill: #595959; stroke: #595959"/>
     <use xlink:href="#m569eea5cf3" x="210.858421" y="131.458438" style="fill: #595959; stroke: #595959"/>
     <use xlink:href="#m569eea5cf3" x="210.858421" y="111.539637" style="fill: #595959; stroke: #595959"/>
     <use xlink:href="#m569eea5cf3" x="210.858421" y="124.818837" style="fill: #595959; stroke: #595959"/>
     <use xlink:href="#m569eea5cf3" x="210.858421" y="129.245237" style="fill: #595959; stroke: #595959"/>
     <use xlink:href="#m569eea5cf3" x="210.858421" y="122.605637" style="fill: #595959; stroke: #595959"/>
     <use xlink:href="#m569eea5cf3" x="210.858421" y="133.671637" style="fill: #595959; stroke: #595959"/>
     <use xlink:href="#m569eea5cf3" x="210.858421" y="109.326437" style="fill: #595959; stroke: #595959"/>
    </g>
   </g>
   <g id="PathCollection_6">
    <g clip-path="url(#pbb3995550d)">
     <use xlink:href="#m569eea5cf3" x="247.986681" y="107.113237" style="fill: #595959; stroke: #595959"/>
     <use xlink:href="#m569eea5cf3" x="247.986681" y="131.458437" style="fill: #595959; stroke: #595959"/>
     <use xlink:href="#m569eea5cf3" x="247.986681" y="135.884838" style="fill: #595959; stroke: #595959"/>
     <use xlink:href="#m569eea5cf3" x="247.986681" y="140.311238" style="fill: #595959; stroke: #595959"/>
     <use xlink:href="#m569eea5cf3" x="247.986681" y="144.737637" style="fill: #595959; stroke: #595959"/>
     <use xlink:href="#m569eea5cf3" x="247.986681" y="138.098037" style="fill: #595959; stroke: #595959"/>
     <use xlink:href="#m569eea5cf3" x="247.986681" y="122.605637" style="fill: #595959; stroke: #595959"/>
     <use xlink:href="#m569eea5cf3" x="247.986681" y="144.737637" style="fill: #595959; stroke: #595959"/>
     <use xlink:href="#m569eea5cf3" x="247.986681" y="127.032037" style="fill: #595959; stroke: #595959"/>
     <use xlink:href="#m569eea5cf3" x="247.986681" y="122.605637" style="fill: #595959; stroke: #595959"/>
     <use xlink:href="#m569eea5cf3" x="247.986681" y="113.752837" style="fill: #595959; stroke: #595959"/>
     <use xlink:href="#m569eea5cf3" x="247.986681" y="189.001637" style="fill: #595959; stroke: #595959"/>
     <use xlink:href="#m569eea5cf3" x="247.986681" y="115.966037" style="fill: #595959; stroke: #595959"/>
     <use xlink:href="#m569eea5cf3" x="247.986681" y="131.458438" style="fill: #595959; stroke: #595959"/>
     <use xlink:href="#m569eea5cf3" x="247.986681" y="129.245237" style="fill: #595959; stroke: #595959"/>
     <use xlink:href="#m569eea5cf3" x="247.986681" y="111.539637" style="fill: #595959; stroke: #595959"/>
     <use xlink:href="#m569eea5cf3" x="247.986681" y="127.032037" style="fill: #595959; stroke: #595959"/>
     <use xlink:href="#m569eea5cf3" x="247.986681" y="146.950837" style="fill: #595959; stroke: #595959"/>
     <use xlink:href="#m569eea5cf3" x="247.986681" y="131.458438" style="fill: #595959; stroke: #595959"/>
     <use xlink:href="#m569eea5cf3" x="247.986681" y="133.671637" style="fill: #595959; stroke: #595959"/>
    </g>
   </g>
   <g id="text_15">
    <!-- Rho = 0.4 -->
    <g transform="translate(273.08589 106.436563) rotate(-270) scale(0.1 -0.1)">
     <defs>
      <path id="DejaVuSans-52" d="M 2841 2188 
Q 3044 2119 3236 1894 
Q 3428 1669 3622 1275 
L 4263 0 
L 3584 0 
L 2988 1197 
Q 2756 1666 2539 1819 
Q 2322 1972 1947 1972 
L 1259 1972 
L 1259 0 
L 628 0 
L 628 4666 
L 2053 4666 
Q 2853 4666 3247 4331 
Q 3641 3997 3641 3322 
Q 3641 2881 3436 2590 
Q 3231 2300 2841 2188 
z
M 1259 4147 
L 1259 2491 
L 2053 2491 
Q 2509 2491 2742 2702 
Q 2975 2913 2975 3322 
Q 2975 3731 2742 3939 
Q 2509 4147 2053 4147 
L 1259 4147 
z
" transform="scale(0.015625)"/>
      <path id="DejaVuSans-68" d="M 3513 2113 
L 3513 0 
L 2938 0 
L 2938 2094 
Q 2938 2591 2744 2837 
Q 2550 3084 2163 3084 
Q 1697 3084 1428 2787 
Q 1159 2491 1159 1978 
L 1159 0 
L 581 0 
L 581 4863 
L 1159 4863 
L 1159 2956 
Q 1366 3272 1645 3428 
Q 1925 3584 2291 3584 
Q 2894 3584 3203 3211 
Q 3513 2838 3513 2113 
z
" transform="scale(0.015625)"/>
      <path id="DejaVuSans-6f" d="M 1959 3097 
Q 1497 3097 1228 2736 
Q 959 2375 959 1747 
Q 959 1119 1226 758 
Q 1494 397 1959 397 
Q 2419 397 2687 759 
Q 2956 1122 2956 1747 
Q 2956 2369 2687 2733 
Q 2419 3097 1959 3097 
z
M 1959 3584 
Q 2709 3584 3137 3096 
Q 3566 2609 3566 1747 
Q 3566 888 3137 398 
Q 2709 -91 1959 -91 
Q 1206 -91 779 398 
Q 353 888 353 1747 
Q 353 2609 779 3096 
Q 1206 3584 1959 3584 
z
" transform="scale(0.015625)"/>
      <path id="DejaVuSans-20" transform="scale(0.015625)"/>
      <path id="DejaVuSans-3d" d="M 678 2906 
L 4684 2906 
L 4684 2381 
L 678 2381 
L 678 2906 
z
M 678 1631 
L 4684 1631 
L 4684 1100 
L 678 1100 
L 678 1631 
z
" transform="scale(0.015625)"/>
     </defs>
     <use xlink:href="#DejaVuSans-52"/>
     <use xlink:href="#DejaVuSans-68" x="69.482422"/>
     <use xlink:href="#DejaVuSans-6f" x="132.861328"/>
     <use xlink:href="#DejaVuSans-20" x="194.042969"/>
     <use xlink:href="#DejaVuSans-3d" x="225.830078"/>
     <use xlink:href="#DejaVuSans-20" x="309.619141"/>
     <use xlink:href="#DejaVuSans-30" x="341.40625"/>
     <use xlink:href="#DejaVuSans-2e" x="405.029297"/>
     <use xlink:href="#DejaVuSans-34" x="436.816406"/>
    </g>
   </g>
   <g id="text_16">
    <!-- CNR_change = 1 -->
    <g transform="translate(113.008999 14.798437) scale(0.1 -0.1)">
     <defs>
      <path id="DejaVuSans-43" d="M 4122 4306 
L 4122 3641 
Q 3803 3938 3442 4084 
Q 3081 4231 2675 4231 
Q 1875 4231 1450 3742 
Q 1025 3253 1025 2328 
Q 1025 1406 1450 917 
Q 1875 428 2675 428 
Q 3081 428 3442 575 
Q 3803 722 4122 1019 
L 4122 359 
Q 3791 134 3420 21 
Q 3050 -91 2638 -91 
Q 1578 -91 968 557 
Q 359 1206 359 2328 
Q 359 3453 968 4101 
Q 1578 4750 2638 4750 
Q 3056 4750 3426 4639 
Q 3797 4528 4122 4306 
z
" transform="scale(0.015625)"/>
      <path id="DejaVuSans-4e" d="M 628 4666 
L 1478 4666 
L 3547 763 
L 3547 4666 
L 4159 4666 
L 4159 0 
L 3309 0 
L 1241 3903 
L 1241 0 
L 628 0 
L 628 4666 
z
" transform="scale(0.015625)"/>
      <path id="DejaVuSans-5f" d="M 3263 -1063 
L 3263 -1509 
L -63 -1509 
L -63 -1063 
L 3263 -1063 
z
" transform="scale(0.015625)"/>
      <path id="DejaVuSans-6e" d="M 3513 2113 
L 3513 0 
L 2938 0 
L 2938 2094 
Q 2938 2591 2744 2837 
Q 2550 3084 2163 3084 
Q 1697 3084 1428 2787 
Q 1159 2491 1159 1978 
L 1159 0 
L 581 0 
L 581 3500 
L 1159 3500 
L 1159 2956 
Q 1366 3272 1645 3428 
Q 1925 3584 2291 3584 
Q 2894 3584 3203 3211 
Q 3513 2838 3513 2113 
z
" transform="scale(0.015625)"/>
      <path id="DejaVuSans-67" d="M 2906 1791 
Q 2906 2416 2648 2759 
Q 2391 3103 1925 3103 
Q 1463 3103 1205 2759 
Q 947 2416 947 1791 
Q 947 1169 1205 825 
Q 1463 481 1925 481 
Q 2391 481 2648 825 
Q 2906 1169 2906 1791 
z
M 3481 434 
Q 3481 -459 3084 -895 
Q 2688 -1331 1869 -1331 
Q 1566 -1331 1297 -1286 
Q 1028 -1241 775 -1147 
L 775 -588 
Q 1028 -725 1275 -790 
Q 1522 -856 1778 -856 
Q 2344 -856 2625 -561 
Q 2906 -266 2906 331 
L 2906 616 
Q 2728 306 2450 153 
Q 2172 0 1784 0 
Q 1141 0 747 490 
Q 353 981 353 1791 
Q 353 2603 747 3093 
Q 1141 3584 1784 3584 
Q 2172 3584 2450 3431 
Q 2728 3278 2906 2969 
L 2906 3500 
L 3481 3500 
L 3481 434 
z
" transform="scale(0.015625)"/>
     </defs>
     <use xlink:href="#DejaVuSans-43"/>
     <use xlink:href="#DejaVuSans-4e" x="69.824219"/>
     <use xlink:href="#DejaVuSans-52" x="144.628906"/>
     <use xlink:href="#DejaVuSans-5f" x="214.111328"/>
     <use xlink:href="#DejaVuSans-63" x="264.111328"/>
     <use xlink:href="#DejaVuSans-68" x="319.091797"/>
     <use xlink:href="#DejaVuSans-61" x="382.470703"/>
     <use xlink:href="#DejaVuSans-6e" x="443.75"/>
     <use xlink:href="#DejaVuSans-67" x="507.128906"/>
     <use xlink:href="#DejaVuSans-65" x="570.605469"/>
     <use xlink:href="#DejaVuSans-20" x="632.128906"/>
     <use xlink:href="#DejaVuSans-3d" x="663.916016"/>
     <use xlink:href="#DejaVuSans-20" x="747.705078"/>
     <use xlink:href="#DejaVuSans-31" x="779.492188"/>
    </g>
   </g>
  </g>
  <g id="legend_1"/>
 </g>
 <defs>
  <clipPath id="pbb3995550d">
   <rect x="43.78125" y="20.798437" width="222.769561" height="221.32"/>
  </clipPath>
 </defs>
</svg>
