<?xml version="1.0" encoding="utf-8" standalone="no"?>
<!DOCTYPE svg PUBLIC "-//W3C//DTD SVG 1.1//EN"
  "http://www.w3.org/Graphics/SVG/1.1/DTD/svg11.dtd">
<svg xmlns:xlink="http://www.w3.org/1999/xlink" width="294.17125pt" height="279.674688pt" viewBox="0 0 294.17125 279.674688" xmlns="http://www.w3.org/2000/svg" version="1.1">
 <metadata>
  <rdf:RDF xmlns:dc="http://purl.org/dc/elements/1.1/" xmlns:cc="http://creativecommons.org/ns#" xmlns:rdf="http://www.w3.org/1999/02/22-rdf-syntax-ns#">
   <cc:Work>
    <dc:type rdf:resource="http://purl.org/dc/dcmitype/StillImage"/>
    <dc:date>2025-08-25T15:42:22.021162</dc:date>
    <dc:format>image/svg+xml</dc:format>
    <dc:creator>
     <cc:Agent>
      <dc:title>Matplotlib v3.8.4, https://matplotlib.org/</dc:title>
     </cc:Agent>
    </dc:creator>
   </cc:Work>
  </rdf:RDF>
 </metadata>
 <defs>
  <style type="text/css">*{stroke-linejoin: round; stroke-linecap: butt}</style>
 </defs>
 <g id="figure_1">
  <g id="patch_1">
   <path d="M 0 279.674688 
L 294.17125 279.674688 
L 294.17125 0 
L 0 0 
z
" style="fill: #ffffff"/>
  </g>
  <g id="axes_1">
   <g id="patch_2">
    <path d="M 43.78125 242.118437 
L 266.550811 242.118437 
L 266.550811 20.798437 
L 43.78125 20.798437 
z
" style="fill: #ffffff"/>
   </g>
   <g id="PolyCollection_1">
    <defs>
     <path id="m68e28f9b54" d="M 62.563174 -221.98699 
L 62.127587 -221.98699 
L 62.070703 -222.441606 
L 62.003028 -222.896221 
L 61.923669 -223.350836 
L 61.831968 -223.805452 
L 61.727579 -224.260067 
L 61.610549 -224.714682 
L 61.481388 -225.169298 
L 61.341114 -225.623913 
L 61.19128 -226.078529 
L 61.033966 -226.533144 
L 60.871734 -226.987759 
L 60.707544 -227.442375 
L 60.544636 -227.89699 
L 60.386368 -228.351605 
L 60.236044 -228.806221 
L 60.096714 -229.260836 
L 59.970982 -229.715451 
L 59.860826 -230.170067 
L 59.767443 -230.624682 
L 59.691145 -231.079297 
L 59.631299 -231.533913 
L 59.58633 -231.988528 
L 59.553781 -232.443143 
L 59.530432 -232.897759 
L 59.512457 -233.352374 
L 59.495615 -233.806989 
L 59.475457 -234.261605 
L 59.447526 -234.71622 
L 59.407535 -235.170835 
L 59.351509 -235.625451 
L 59.27588 -236.080066 
L 59.177532 -236.534681 
L 59.053793 -236.989297 
L 58.902389 -237.443912 
L 58.721365 -237.898527 
L 58.508995 -238.353143 
L 58.263701 -238.807758 
L 57.983992 -239.262374 
L 57.668447 -239.716989 
L 57.315748 -240.171604 
L 56.924776 -240.62622 
L 56.494753 -241.080835 
L 56.025443 -241.53545 
L 55.517384 -241.990066 
L 54.972131 -242.444681 
L 54.392496 -242.899296 
L 53.782752 -243.353912 
L 53.148783 -243.808527 
L 52.498151 -244.263142 
L 51.840071 -244.717758 
L 51.18528 -245.172373 
L 50.545788 -245.626988 
L 49.934528 -246.081604 
L 49.364907 -246.536219 
L 48.85028 -246.990834 
L 48.403382 -247.44545 
L 48.035738 -247.900065 
L 47.757099 -248.35468 
L 47.574944 -248.809296 
L 47.494076 -249.263911 
L 47.516358 -249.718526 
L 47.640595 -250.173142 
L 47.862601 -250.627757 
L 48.175422 -251.082373 
L 48.569729 -251.536988 
L 49.034334 -251.991603 
L 49.556804 -252.446219 
L 50.124119 -252.900834 
L 50.723331 -253.355449 
L 51.342166 -253.810065 
L 51.969537 -254.26468 
L 52.595925 -254.719295 
L 53.213614 -255.173911 
L 53.816768 -255.628526 
L 54.401369 -256.083141 
L 54.965022 -256.537757 
L 55.506671 -256.992372 
L 56.026263 -257.446987 
L 56.524381 -257.901603 
L 57.001912 -258.356218 
L 57.459746 -258.810833 
L 57.898557 -259.265449 
L 58.318658 -259.720064 
L 58.719942 -260.174679 
L 59.101892 -260.629295 
L 59.463663 -261.08391 
L 59.804197 -261.538525 
L 60.122369 -261.993141 
L 60.417129 -262.447756 
L 60.687638 -262.902371 
L 60.933372 -263.356987 
L 61.154197 -263.811602 
L 61.350404 -264.266218 
L 61.522706 -264.720833 
L 61.672207 -265.175448 
L 61.800345 -265.630064 
L 61.908817 -266.084679 
L 61.999496 -266.539294 
L 62.074349 -266.99391 
L 62.616412 -266.99391 
L 62.616412 -266.99391 
L 62.691264 -266.539294 
L 62.781943 -266.084679 
L 62.890415 -265.630064 
L 63.018553 -265.175448 
L 63.168055 -264.720833 
L 63.340356 -264.266218 
L 63.536563 -263.811602 
L 63.757388 -263.356987 
L 64.003122 -262.902371 
L 64.273631 -262.447756 
L 64.568391 -261.993141 
L 64.886563 -261.538525 
L 65.227098 -261.08391 
L 65.588868 -260.629295 
L 65.970819 -260.174679 
L 66.372102 -259.720064 
L 66.792203 -259.265449 
L 67.231015 -258.810833 
L 67.688849 -258.356218 
L 68.166379 -257.901603 
L 68.664497 -257.446987 
L 69.184089 -256.992372 
L 69.725738 -256.537757 
L 70.289391 -256.083141 
L 70.873992 -255.628526 
L 71.477146 -255.173911 
L 72.094835 -254.719295 
L 72.721224 -254.26468 
L 73.348595 -253.810065 
L 73.96743 -253.355449 
L 74.566641 -252.900834 
L 75.133957 -252.446219 
L 75.656426 -251.991603 
L 76.121031 -251.536988 
L 76.515338 -251.082373 
L 76.828159 -250.627757 
L 77.050165 -250.173142 
L 77.174403 -249.718526 
L 77.196684 -249.263911 
L 77.115817 -248.809296 
L 76.933661 -248.35468 
L 76.655022 -247.900065 
L 76.287378 -247.44545 
L 75.84048 -246.990834 
L 75.325854 -246.536219 
L 74.756232 -246.081604 
L 74.144972 -245.626988 
L 73.50548 -245.172373 
L 72.850689 -244.717758 
L 72.192609 -244.263142 
L 71.541977 -243.808527 
L 70.908008 -243.353912 
L 70.298264 -242.899296 
L 69.718629 -242.444681 
L 69.173376 -241.990066 
L 68.665317 -241.53545 
L 68.196008 -241.080835 
L 67.765984 -240.62622 
L 67.375012 -240.171604 
L 67.022314 -239.716989 
L 66.706768 -239.262374 
L 66.427059 -238.807758 
L 66.181765 -238.353143 
L 65.969395 -237.898527 
L 65.788371 -237.443912 
L 65.636967 -236.989297 
L 65.513228 -236.534681 
L 65.41488 -236.080066 
L 65.339251 -235.625451 
L 65.283225 -235.170835 
L 65.243234 -234.71622 
L 65.215303 -234.261605 
L 65.195146 -233.806989 
L 65.178303 -233.352374 
L 65.160328 -232.897759 
L 65.136979 -232.443143 
L 65.104431 -231.988528 
L 65.059461 -231.533913 
L 64.999615 -231.079297 
L 64.923317 -230.624682 
L 64.829934 -230.170067 
L 64.719778 -229.715451 
L 64.594046 -229.260836 
L 64.454716 -228.806221 
L 64.304392 -228.351605 
L 64.146124 -227.89699 
L 63.983216 -227.442375 
L 63.819027 -226.987759 
L 63.656795 -226.533144 
L 63.499481 -226.078529 
L 63.349646 -225.623913 
L 63.209372 -225.169298 
L 63.080211 -224.714682 
L 62.963182 -224.260067 
L 62.858793 -223.805452 
L 62.767091 -223.350836 
L 62.687733 -222.896221 
L 62.620057 -222.441606 
L 62.563174 -221.98699 
z
" style="stroke: #595959; stroke-width: 1.25"/>
    </defs>
    <g clip-path="url(#pb9ec407f5e)">
     <use xlink:href="#m68e28f9b54" x="0" y="279.674688" style="fill: #72b6a1; stroke: #595959; stroke-width: 1.25"/>
    </g>
   </g>
   <g id="PolyCollection_2">
    <defs>
     <path id="mf367e8f55d" d="M 99.627602 -252.995321 
L 99.319679 -252.995321 
L 99.28585 -253.069417 
L 99.24695 -253.143512 
L 99.20281 -253.217608 
L 99.153407 -253.291703 
L 99.098886 -253.365799 
L 99.039585 -253.439894 
L 98.97605 -253.51399 
L 98.909042 -253.588085 
L 98.839528 -253.662181 
L 98.768662 -253.736277 
L 98.69775 -253.810372 
L 98.628196 -253.884468 
L 98.561439 -253.958563 
L 98.498879 -254.032659 
L 98.441785 -254.106754 
L 98.391208 -254.18085 
L 98.347886 -254.254945 
L 98.31216 -254.329041 
L 98.283891 -254.403136 
L 98.2624 -254.477232 
L 98.246422 -254.551327 
L 98.234087 -254.625423 
L 98.222923 -254.699518 
L 98.209894 -254.773614 
L 98.191464 -254.84771 
L 98.163694 -254.921805 
L 98.122368 -254.995901 
L 98.063148 -255.069996 
L 97.981752 -255.144092 
L 97.874157 -255.218187 
L 97.73681 -255.292283 
L 97.566848 -255.366378 
L 97.362315 -255.440474 
L 97.122361 -255.514569 
L 96.847417 -255.588665 
L 96.539329 -255.66276 
L 96.201436 -255.736856 
L 95.838583 -255.810951 
L 95.45706 -255.885047 
L 95.064462 -255.959142 
L 94.669455 -256.033238 
L 94.281475 -256.107334 
L 93.910343 -256.181429 
L 93.565833 -256.255525 
L 93.257193 -256.32962 
L 92.992663 -256.403716 
L 92.779001 -256.477811 
L 92.621051 -256.551907 
L 92.521378 -256.626002 
L 92.480003 -256.700098 
L 92.494241 -256.774193 
L 92.558664 -256.848289 
L 92.665199 -256.922384 
L 92.803354 -256.99648 
L 92.960566 -257.070575 
L 93.122661 -257.144671 
L 93.274402 -257.218766 
L 93.400107 -257.292862 
L 93.48432 -257.366958 
L 93.512488 -257.441053 
L 93.471646 -257.515149 
L 93.351053 -257.589244 
L 93.142784 -257.66334 
L 92.842221 -257.737435 
L 92.448447 -257.811531 
L 91.9645 -257.885626 
L 91.397474 -257.959722 
L 90.758458 -258.033817 
L 90.06229 -258.107913 
L 89.327134 -258.182008 
L 88.573887 -258.256104 
L 87.825418 -258.330199 
L 87.105691 -258.404295 
L 86.438789 -258.47839 
L 85.847896 -258.552486 
L 85.354284 -258.626582 
L 84.976376 -258.700677 
L 84.728919 -258.774773 
L 84.622336 -258.848868 
L 84.662285 -258.922964 
L 84.849457 -258.997059 
L 85.179633 -259.071155 
L 85.643969 -259.14525 
L 86.229525 -259.219346 
L 86.919961 -259.293441 
L 87.696385 -259.367537 
L 88.538273 -259.441632 
L 89.424419 -259.515728 
L 90.333844 -259.589823 
L 91.246628 -259.663919 
L 92.144605 -259.738015 
L 93.011913 -259.81211 
L 93.835366 -259.886206 
L 94.604654 -259.960301 
L 95.31238 -260.034397 
L 95.953948 -260.108492 
L 96.527335 -260.182588 
L 97.032777 -260.256683 
L 97.472388 -260.330779 
L 101.474892 -260.330779 
L 101.474892 -260.330779 
L 101.914504 -260.256683 
L 102.419945 -260.182588 
L 102.993333 -260.108492 
L 103.634901 -260.034397 
L 104.342626 -259.960301 
L 105.111914 -259.886206 
L 105.935367 -259.81211 
L 106.802675 -259.738015 
L 107.700653 -259.663919 
L 108.613436 -259.589823 
L 109.522862 -259.515728 
L 110.409008 -259.441632 
L 111.250896 -259.367537 
L 112.027319 -259.293441 
L 112.717756 -259.219346 
L 113.303311 -259.14525 
L 113.767648 -259.071155 
L 114.097823 -258.997059 
L 114.284996 -258.922964 
L 114.324944 -258.848868 
L 114.218361 -258.774773 
L 113.970905 -258.700677 
L 113.592997 -258.626582 
L 113.099385 -258.552486 
L 112.508491 -258.47839 
L 111.84159 -258.404295 
L 111.121863 -258.330199 
L 110.373394 -258.256104 
L 109.620146 -258.182008 
L 108.884991 -258.107913 
L 108.188822 -258.033817 
L 107.549806 -257.959722 
L 106.982781 -257.885626 
L 106.498833 -257.811531 
L 106.10506 -257.737435 
L 105.804497 -257.66334 
L 105.596227 -257.589244 
L 105.475635 -257.515149 
L 105.434792 -257.441053 
L 105.462961 -257.366958 
L 105.547174 -257.292862 
L 105.672879 -257.218766 
L 105.824619 -257.144671 
L 105.986714 -257.070575 
L 106.143927 -256.99648 
L 106.282082 -256.922384 
L 106.388617 -256.848289 
L 106.453039 -256.774193 
L 106.467277 -256.700098 
L 106.425903 -256.626002 
L 106.32623 -256.551907 
L 106.168279 -256.477811 
L 105.954617 -256.403716 
L 105.690088 -256.32962 
L 105.381448 -256.255525 
L 105.036937 -256.181429 
L 104.665806 -256.107334 
L 104.277825 -256.033238 
L 103.882819 -255.959142 
L 103.49022 -255.885047 
L 103.108698 -255.810951 
L 102.745844 -255.736856 
L 102.407951 -255.66276 
L 102.099864 -255.588665 
L 101.82492 -255.514569 
L 101.584966 -255.440474 
L 101.380432 -255.366378 
L 101.21047 -255.292283 
L 101.073123 -255.218187 
L 100.965528 -255.144092 
L 100.884132 -255.069996 
L 100.824912 -254.995901 
L 100.783586 -254.921805 
L 100.755816 -254.84771 
L 100.737387 -254.773614 
L 100.724358 -254.699518 
L 100.713194 -254.625423 
L 100.700858 -254.551327 
L 100.68488 -254.477232 
L 100.663389 -254.403136 
L 100.63512 -254.329041 
L 100.599394 -254.254945 
L 100.556073 -254.18085 
L 100.505495 -254.106754 
L 100.448401 -254.032659 
L 100.385841 -253.958563 
L 100.319085 -253.884468 
L 100.24953 -253.810372 
L 100.178618 -253.736277 
L 100.107753 -253.662181 
L 100.038239 -253.588085 
L 99.971231 -253.51399 
L 99.907696 -253.439894 
L 99.848394 -253.365799 
L 99.793873 -253.291703 
L 99.74447 -253.217608 
L 99.700331 -253.143512 
L 99.66143 -253.069417 
L 99.627602 -252.995321 
z
" style="stroke: #595959; stroke-width: 1.25"/>
    </defs>
    <g clip-path="url(#pb9ec407f5e)">
     <use xlink:href="#mf367e8f55d" x="0" y="279.674688" style="fill: #e99675; stroke: #595959; stroke-width: 1.25"/>
    </g>
   </g>
   <g id="PolyCollection_3">
    <defs>
     <path id="m176f0403d9" d="M 136.833083 -125.575375 
L 136.370718 -125.575375 
L 136.308225 -126.502233 
L 136.233013 -127.429091 
L 136.14358 -128.355949 
L 136.038464 -129.282808 
L 135.916269 -130.209666 
L 135.775687 -131.136524 
L 135.615501 -132.063382 
L 135.434579 -132.99024 
L 135.231853 -133.917098 
L 135.006282 -134.843956 
L 134.756814 -135.770814 
L 134.48235 -136.697672 
L 134.18172 -137.62453 
L 133.85368 -138.551388 
L 133.496941 -139.478246 
L 133.110233 -140.405104 
L 132.692418 -141.331963 
L 132.242627 -142.258821 
L 131.760442 -143.185679 
L 131.246089 -144.112537 
L 130.700625 -145.039395 
L 130.126119 -145.966253 
L 129.52578 -146.893111 
L 128.904028 -147.819969 
L 128.266498 -148.746827 
L 127.61995 -149.673685 
L 126.972097 -150.600543 
L 126.331359 -151.527401 
L 125.706546 -152.454259 
L 125.1065 -153.381118 
L 124.539715 -154.307976 
L 124.013969 -155.234834 
L 123.535985 -156.161692 
L 123.111154 -157.08855 
L 122.743342 -158.015408 
L 122.434777 -158.942266 
L 122.186045 -159.869124 
L 121.996171 -160.795982 
L 121.862791 -161.72284 
L 121.782391 -162.649698 
L 121.750596 -163.576556 
L 121.762485 -164.503414 
L 121.812909 -165.430273 
L 121.896797 -166.357131 
L 122.009419 -167.283989 
L 122.146608 -168.210847 
L 122.304919 -169.137705 
L 122.481729 -170.064563 
L 122.675279 -170.991421 
L 122.884655 -171.918279 
L 123.109724 -172.845137 
L 123.35103 -173.771995 
L 123.60965 -174.698853 
L 123.887033 -175.625711 
L 124.184822 -176.552569 
L 124.504657 -177.479427 
L 124.847986 -178.406286 
L 125.215873 -179.333144 
L 125.608818 -180.260002 
L 126.0266 -181.18686 
L 126.468152 -182.113718 
L 126.931474 -183.040576 
L 127.413596 -183.967434 
L 127.910611 -184.894292 
L 128.41776 -185.82115 
L 128.929589 -186.748008 
L 129.440167 -187.674866 
L 129.943352 -188.601724 
L 130.433087 -189.528582 
L 130.903715 -190.455441 
L 131.350274 -191.382299 
L 131.768761 -192.309157 
L 132.156331 -193.236015 
L 132.511424 -194.162873 
L 132.8338 -195.089731 
L 133.124477 -196.016589 
L 133.385593 -196.943447 
L 133.620182 -197.870305 
L 133.831903 -198.797163 
L 134.024741 -199.724021 
L 134.202702 -200.650879 
L 134.369532 -201.577737 
L 134.528488 -202.504596 
L 134.682166 -203.431454 
L 134.832399 -204.358312 
L 134.980236 -205.28517 
L 135.125983 -206.212028 
L 135.269304 -207.138886 
L 135.409361 -208.065744 
L 135.544981 -208.992602 
L 135.674821 -209.91946 
L 135.79753 -210.846318 
L 135.911888 -211.773176 
L 136.016901 -212.700034 
L 136.11188 -213.626892 
L 136.196463 -214.553751 
L 136.270623 -215.480609 
L 136.334632 -216.407467 
L 136.389023 -217.334325 
L 136.814778 -217.334325 
L 136.814778 -217.334325 
L 136.869169 -216.407467 
L 136.933178 -215.480609 
L 137.007338 -214.553751 
L 137.091921 -213.626892 
L 137.1869 -212.700034 
L 137.291913 -211.773176 
L 137.406271 -210.846318 
L 137.52898 -209.91946 
L 137.65882 -208.992602 
L 137.79444 -208.065744 
L 137.934497 -207.138886 
L 138.077818 -206.212028 
L 138.223565 -205.28517 
L 138.371402 -204.358312 
L 138.521635 -203.431454 
L 138.675313 -202.504596 
L 138.834269 -201.577737 
L 139.001099 -200.650879 
L 139.17906 -199.724021 
L 139.371898 -198.797163 
L 139.583619 -197.870305 
L 139.818207 -196.943447 
L 140.079323 -196.016589 
L 140.370001 -195.089731 
L 140.692377 -194.162873 
L 141.04747 -193.236015 
L 141.43504 -192.309157 
L 141.853527 -191.382299 
L 142.300086 -190.455441 
L 142.770714 -189.528582 
L 143.260449 -188.601724 
L 143.763633 -187.674866 
L 144.274212 -186.748008 
L 144.786041 -185.82115 
L 145.29319 -184.894292 
L 145.790205 -183.967434 
L 146.272327 -183.040576 
L 146.735648 -182.113718 
L 147.177201 -181.18686 
L 147.594983 -180.260002 
L 147.987928 -179.333144 
L 148.355814 -178.406286 
L 148.699144 -177.479427 
L 149.018979 -176.552569 
L 149.316768 -175.625711 
L 149.594151 -174.698853 
L 149.852771 -173.771995 
L 150.094077 -172.845137 
L 150.319146 -171.918279 
L 150.528522 -170.991421 
L 150.722072 -170.064563 
L 150.898882 -169.137705 
L 151.057193 -168.210847 
L 151.194382 -167.283989 
L 151.307004 -166.357131 
L 151.390892 -165.430273 
L 151.441316 -164.503414 
L 151.453205 -163.576556 
L 151.42141 -162.649698 
L 151.34101 -161.72284 
L 151.20763 -160.795982 
L 151.017756 -159.869124 
L 150.769023 -158.942266 
L 150.460459 -158.015408 
L 150.092647 -157.08855 
L 149.667816 -156.161692 
L 149.189832 -155.234834 
L 148.664086 -154.307976 
L 148.097301 -153.381118 
L 147.497255 -152.454259 
L 146.872442 -151.527401 
L 146.231704 -150.600543 
L 145.583851 -149.673685 
L 144.937302 -148.746827 
L 144.299773 -147.819969 
L 143.678021 -146.893111 
L 143.077682 -145.966253 
L 142.503176 -145.039395 
L 141.957712 -144.112537 
L 141.443359 -143.185679 
L 140.961174 -142.258821 
L 140.511383 -141.331963 
L 140.093568 -140.405104 
L 139.70686 -139.478246 
L 139.350121 -138.551388 
L 139.022081 -137.62453 
L 138.721451 -136.697672 
L 138.446987 -135.770814 
L 138.197519 -134.843956 
L 137.971947 -133.917098 
L 137.769222 -132.99024 
L 137.5883 -132.063382 
L 137.428114 -131.136524 
L 137.287532 -130.209666 
L 137.165337 -129.282808 
L 137.060221 -128.355949 
L 136.970788 -127.429091 
L 136.895576 -126.502233 
L 136.833083 -125.575375 
z
" style="stroke: #595959; stroke-width: 1.25"/>
    </defs>
    <g clip-path="url(#pb9ec407f5e)">
     <use xlink:href="#m176f0403d9" x="0" y="279.674688" style="fill: #95a3c3; stroke: #595959; stroke-width: 1.25"/>
    </g>
   </g>
   <g id="PolyCollection_4">
    <defs>
     <path id="m6ddf212e8b" d="M 174.010916 -104.49015 
L 173.449406 -104.49015 
L 173.379874 -105.284084 
L 173.297611 -106.078017 
L 173.201475 -106.87195 
L 173.090501 -107.665884 
L 172.963971 -108.459817 
L 172.82148 -109.25375 
L 172.662989 -110.047683 
L 172.488867 -110.841617 
L 172.299909 -111.63555 
L 172.09733 -112.429483 
L 171.882729 -113.223417 
L 171.658019 -114.01735 
L 171.425334 -114.811283 
L 171.186897 -115.605217 
L 170.94488 -116.39915 
L 170.701245 -117.193083 
L 170.45758 -117.987017 
L 170.214959 -118.78095 
L 169.973811 -119.574883 
L 169.733834 -120.368817 
L 169.493952 -121.16275 
L 169.252319 -121.956683 
L 169.006386 -122.750617 
L 168.753014 -123.54455 
L 168.488643 -124.338483 
L 168.209498 -125.132417 
L 167.911822 -125.92635 
L 167.592127 -126.720283 
L 167.247442 -127.514217 
L 166.875544 -128.30815 
L 166.475163 -129.102083 
L 166.046145 -129.896017 
L 165.589561 -130.68995 
L 165.107768 -131.483883 
L 164.604404 -132.277817 
L 164.084329 -133.07175 
L 163.553507 -133.865683 
L 163.018836 -134.659617 
L 162.487924 -135.45355 
L 161.968833 -136.247483 
L 161.469779 -137.041417 
L 160.998821 -137.83535 
L 160.563521 -138.629283 
L 160.170621 -139.423217 
L 159.82573 -140.21715 
L 159.533042 -141.011083 
L 159.295116 -141.805017 
L 159.11272 -142.59895 
L 158.984767 -143.392883 
L 158.908344 -144.186817 
L 158.878857 -144.98075 
L 158.890277 -145.774683 
L 158.935485 -146.568617 
L 159.006698 -147.36255 
L 159.095955 -148.156483 
L 159.195617 -148.950417 
L 159.29887 -149.74435 
L 159.400169 -150.538283 
L 159.495604 -151.332217 
L 159.583152 -152.12615 
L 159.662805 -152.920083 
L 159.736548 -153.714017 
L 159.808202 -154.50795 
L 159.883144 -155.301883 
L 159.967919 -156.095817 
L 160.069788 -156.88975 
L 160.196233 -157.683683 
L 160.354467 -158.477617 
L 160.550978 -159.27155 
L 160.791135 -160.065483 
L 161.078879 -160.859417 
L 161.416519 -161.65335 
L 161.804622 -162.447283 
L 162.24201 -163.241217 
L 162.725847 -164.03515 
L 163.251795 -164.829083 
L 163.81424 -165.623017 
L 164.406548 -166.41695 
L 165.02135 -167.210883 
L 165.650828 -168.004817 
L 166.286997 -168.79875 
L 166.921973 -169.592683 
L 167.548206 -170.386617 
L 168.15869 -171.18055 
L 168.747131 -171.974483 
L 169.308081 -172.768417 
L 169.837028 -173.56235 
L 170.330454 -174.356283 
L 170.785849 -175.150217 
L 171.201692 -175.94415 
L 171.577405 -176.738083 
L 171.913268 -177.532017 
L 172.210327 -178.32595 
L 172.470269 -179.119883 
L 172.695305 -179.913816 
L 172.888032 -180.70775 
L 173.051309 -181.501683 
L 173.188139 -182.295616 
L 173.301559 -183.08955 
L 174.158763 -183.08955 
L 174.158763 -183.08955 
L 174.272182 -182.295616 
L 174.409012 -181.501683 
L 174.57229 -180.70775 
L 174.765016 -179.913816 
L 174.990052 -179.119883 
L 175.249995 -178.32595 
L 175.547053 -177.532017 
L 175.882917 -176.738083 
L 176.258629 -175.94415 
L 176.674473 -175.150217 
L 177.129867 -174.356283 
L 177.623293 -173.56235 
L 178.15224 -172.768417 
L 178.71319 -171.974483 
L 179.301631 -171.18055 
L 179.912115 -170.386617 
L 180.538349 -169.592683 
L 181.173324 -168.79875 
L 181.809494 -168.004817 
L 182.438971 -167.210883 
L 183.053773 -166.41695 
L 183.646082 -165.623017 
L 184.208527 -164.829083 
L 184.734475 -164.03515 
L 185.218311 -163.241217 
L 185.655699 -162.447283 
L 186.043802 -161.65335 
L 186.381442 -160.859417 
L 186.669186 -160.065483 
L 186.909343 -159.27155 
L 187.105854 -158.477617 
L 187.264089 -157.683683 
L 187.390534 -156.88975 
L 187.492403 -156.095817 
L 187.577178 -155.301883 
L 187.652119 -154.50795 
L 187.723773 -153.714017 
L 187.797516 -152.920083 
L 187.877169 -152.12615 
L 187.964718 -151.332217 
L 188.060152 -150.538283 
L 188.161451 -149.74435 
L 188.264704 -148.950417 
L 188.364367 -148.156483 
L 188.453623 -147.36255 
L 188.524837 -146.568617 
L 188.570045 -145.774683 
L 188.581465 -144.98075 
L 188.551978 -144.186817 
L 188.475554 -143.392883 
L 188.347601 -142.59895 
L 188.165205 -141.805017 
L 187.92728 -141.011083 
L 187.634592 -140.21715 
L 187.2897 -139.423217 
L 186.8968 -138.629283 
L 186.4615 -137.83535 
L 185.990542 -137.041417 
L 185.491489 -136.247483 
L 184.972397 -135.45355 
L 184.441485 -134.659617 
L 183.906814 -133.865683 
L 183.375992 -133.07175 
L 182.855918 -132.277817 
L 182.352553 -131.483883 
L 181.87076 -130.68995 
L 181.414176 -129.896017 
L 180.985158 -129.102083 
L 180.584777 -128.30815 
L 180.212879 -127.514217 
L 179.868194 -126.720283 
L 179.548499 -125.92635 
L 179.250823 -125.132417 
L 178.971678 -124.338483 
L 178.707307 -123.54455 
L 178.453935 -122.750617 
L 178.208002 -121.956683 
L 177.966369 -121.16275 
L 177.726487 -120.368817 
L 177.48651 -119.574883 
L 177.245362 -118.78095 
L 177.002741 -117.987017 
L 176.759076 -117.193083 
L 176.515441 -116.39915 
L 176.273425 -115.605217 
L 176.034988 -114.811283 
L 175.802302 -114.01735 
L 175.577593 -113.223417 
L 175.362991 -112.429483 
L 175.160412 -111.63555 
L 174.971455 -110.841617 
L 174.797333 -110.047683 
L 174.638842 -109.25375 
L 174.496351 -108.459817 
L 174.36982 -107.665884 
L 174.258846 -106.87195 
L 174.16271 -106.078017 
L 174.080448 -105.284084 
L 174.010916 -104.49015 
z
" style="stroke: #595959; stroke-width: 1.25"/>
    </defs>
    <g clip-path="url(#pb9ec407f5e)">
     <use xlink:href="#m6ddf212e8b" x="0" y="279.674688" style="fill: #db96c0; stroke: #595959; stroke-width: 1.25"/>
    </g>
   </g>
   <g id="PolyCollection_5">
    <defs>
     <path id="m815abd3221" d="M 211.13609 -142.906328 
L 210.580752 -142.906328 
L 210.507211 -143.550132 
L 210.418503 -144.193937 
L 210.312668 -144.837741 
L 210.187771 -145.481546 
L 210.041966 -146.12535 
L 209.873575 -146.769155 
L 209.681162 -147.412959 
L 209.463612 -148.056764 
L 209.220201 -148.700568 
L 208.950652 -149.344373 
L 208.655188 -149.988177 
L 208.334547 -150.631982 
L 207.98999 -151.275786 
L 207.623272 -151.919591 
L 207.236595 -152.563395 
L 206.832533 -153.2072 
L 206.413935 -153.851004 
L 205.983809 -154.494809 
L 205.545205 -155.138613 
L 205.101083 -155.782418 
L 204.654191 -156.426222 
L 204.206963 -157.070026 
L 203.761428 -157.713831 
L 203.319156 -158.357635 
L 202.881231 -159.00144 
L 202.448268 -159.645244 
L 202.020458 -160.289049 
L 201.597658 -160.932853 
L 201.179504 -161.576658 
L 200.765551 -162.220462 
L 200.355433 -162.864267 
L 199.94902 -163.508071 
L 199.546582 -164.151876 
L 199.148931 -164.79568 
L 198.757547 -165.439485 
L 198.374664 -166.083289 
L 198.003323 -166.727094 
L 197.647381 -167.370898 
L 197.311469 -168.014703 
L 197.000896 -168.658507 
L 196.721512 -169.302312 
L 196.47951 -169.946116 
L 196.281194 -170.589921 
L 196.132704 -171.233725 
L 196.039715 -171.87753 
L 196.007117 -172.521334 
L 196.038707 -173.165139 
L 196.136894 -173.808943 
L 196.302441 -174.452748 
L 196.534278 -175.096552 
L 196.829388 -175.740357 
L 197.182794 -176.384161 
L 197.587649 -177.027966 
L 198.035442 -177.67177 
L 198.516311 -178.315575 
L 199.019451 -178.959379 
L 199.533597 -179.603184 
L 200.047549 -180.246988 
L 200.550715 -180.890793 
L 201.033624 -181.534597 
L 201.488377 -182.178402 
L 201.90901 -182.822206 
L 202.29173 -183.466011 
L 202.635023 -184.109815 
L 202.939612 -184.75362 
L 203.208288 -185.397424 
L 203.44561 -186.041229 
L 203.657519 -186.685033 
L 203.85088 -187.328838 
L 204.033002 -187.972642 
L 204.211155 -188.616447 
L 204.392133 -189.260251 
L 204.581874 -189.904056 
L 204.785175 -190.54786 
L 205.005493 -191.191665 
L 205.244852 -191.835469 
L 205.503847 -192.479274 
L 205.781729 -193.123078 
L 206.076559 -193.766882 
L 206.38542 -194.410687 
L 206.704653 -195.054491 
L 207.030111 -195.698296 
L 207.357406 -196.3421 
L 207.682141 -196.985905 
L 208.000109 -197.629709 
L 208.307464 -198.273514 
L 208.600848 -198.917318 
L 208.877475 -199.561123 
L 209.135186 -200.204927 
L 209.372458 -200.848732 
L 209.58839 -201.492536 
L 209.782663 -202.136341 
L 209.955481 -202.780145 
L 210.107493 -203.42395 
L 210.239718 -204.067754 
L 210.353456 -204.711559 
L 210.45021 -205.355363 
L 210.531605 -205.999168 
L 210.59932 -206.642972 
L 211.117522 -206.642972 
L 211.117522 -206.642972 
L 211.185237 -205.999168 
L 211.266632 -205.355363 
L 211.363385 -204.711559 
L 211.477124 -204.067754 
L 211.609348 -203.42395 
L 211.761361 -202.780145 
L 211.934178 -202.136341 
L 212.128452 -201.492536 
L 212.344384 -200.848732 
L 212.581656 -200.204927 
L 212.839366 -199.561123 
L 213.115994 -198.917318 
L 213.409378 -198.273514 
L 213.716733 -197.629709 
L 214.034701 -196.985905 
L 214.359435 -196.3421 
L 214.68673 -195.698296 
L 215.012189 -195.054491 
L 215.331422 -194.410687 
L 215.640283 -193.766882 
L 215.935113 -193.123078 
L 216.212994 -192.479274 
L 216.47199 -191.835469 
L 216.711349 -191.191665 
L 216.931667 -190.54786 
L 217.134968 -189.904056 
L 217.324709 -189.260251 
L 217.505687 -188.616447 
L 217.68384 -187.972642 
L 217.865962 -187.328838 
L 218.059323 -186.685033 
L 218.271232 -186.041229 
L 218.508554 -185.397424 
L 218.77723 -184.75362 
L 219.081819 -184.109815 
L 219.425112 -183.466011 
L 219.807832 -182.822206 
L 220.228464 -182.178402 
L 220.683218 -181.534597 
L 221.166126 -180.890793 
L 221.669293 -180.246988 
L 222.183245 -179.603184 
L 222.697391 -178.959379 
L 223.200531 -178.315575 
L 223.6814 -177.67177 
L 224.129193 -177.027966 
L 224.534048 -176.384161 
L 224.887454 -175.740357 
L 225.182564 -175.096552 
L 225.414401 -174.452748 
L 225.579948 -173.808943 
L 225.678134 -173.165139 
L 225.709725 -172.521334 
L 225.677127 -171.87753 
L 225.584137 -171.233725 
L 225.435648 -170.589921 
L 225.237332 -169.946116 
L 224.99533 -169.302312 
L 224.715945 -168.658507 
L 224.405373 -168.014703 
L 224.06946 -167.370898 
L 223.713519 -166.727094 
L 223.342178 -166.083289 
L 222.959295 -165.439485 
L 222.56791 -164.79568 
L 222.17026 -164.151876 
L 221.767822 -163.508071 
L 221.361409 -162.864267 
L 220.951291 -162.220462 
L 220.537338 -161.576658 
L 220.119184 -160.932853 
L 219.696384 -160.289049 
L 219.268574 -159.645244 
L 218.83561 -159.00144 
L 218.397686 -158.357635 
L 217.955414 -157.713831 
L 217.509879 -157.070026 
L 217.062651 -156.426222 
L 216.615759 -155.782418 
L 216.171636 -155.138613 
L 215.733032 -154.494809 
L 215.302907 -153.851004 
L 214.884308 -153.2072 
L 214.480246 -152.563395 
L 214.09357 -151.919591 
L 213.726852 -151.275786 
L 213.382294 -150.631982 
L 213.061654 -149.988177 
L 212.766189 -149.344373 
L 212.496641 -148.700568 
L 212.253229 -148.056764 
L 212.035679 -147.412959 
L 211.843266 -146.769155 
L 211.674875 -146.12535 
L 211.529071 -145.481546 
L 211.404174 -144.837741 
L 211.298339 -144.193937 
L 211.209631 -143.550132 
L 211.13609 -142.906328 
z
" style="stroke: #595959; stroke-width: 1.25"/>
    </defs>
    <g clip-path="url(#pb9ec407f5e)">
     <use xlink:href="#m815abd3221" x="0" y="279.674688" style="fill: #a2c865; stroke: #595959; stroke-width: 1.25"/>
    </g>
   </g>
   <g id="PolyCollection_6">
    <defs>
     <path id="ma20fa7b1f3" d="M 248.189043 -161.007491 
L 247.784319 -161.007491 
L 247.731598 -161.911571 
L 247.668915 -162.815651 
L 247.595444 -163.719731 
L 247.510564 -164.623811 
L 247.413933 -165.527891 
L 247.305555 -166.431971 
L 247.185842 -167.336051 
L 247.05566 -168.240131 
L 246.916356 -169.144211 
L 246.769758 -170.048291 
L 246.618148 -170.952371 
L 246.464195 -171.856451 
L 246.310867 -172.760531 
L 246.161301 -173.664611 
L 246.018649 -174.568691 
L 245.885905 -175.472771 
L 245.765715 -176.376851 
L 245.660182 -177.280931 
L 245.570682 -178.185011 
L 245.49769 -179.089091 
L 245.440644 -179.993171 
L 245.397836 -180.897251 
L 245.366363 -181.801331 
L 245.342121 -182.705411 
L 245.319871 -183.60949 
L 245.293359 -184.51357 
L 245.255504 -185.41765 
L 245.19864 -186.32173 
L 245.11481 -187.22581 
L 244.996103 -188.12989 
L 244.835007 -189.03397 
L 244.624778 -189.93805 
L 244.359795 -190.84213 
L 244.035888 -191.74621 
L 243.650608 -192.65029 
L 243.203442 -193.55437 
L 242.695941 -194.45845 
L 242.131766 -195.36253 
L 241.516629 -196.26661 
L 240.858157 -197.17069 
L 240.165656 -198.07477 
L 239.44982 -198.97885 
L 238.722367 -199.88293 
L 237.995651 -200.78701 
L 237.282256 -201.69109 
L 236.594596 -202.59517 
L 235.94454 -203.49925 
L 235.343086 -204.40333 
L 234.800082 -205.30741 
L 234.324013 -206.21149 
L 233.921854 -207.11557 
L 233.598978 -208.01965 
L 233.359127 -208.92373 
L 233.204416 -209.82781 
L 233.135377 -210.73189 
L 233.151026 -211.63597 
L 233.248934 -212.54005 
L 233.425316 -213.44413 
L 233.675116 -214.34821 
L 233.992108 -215.25229 
L 234.369008 -216.15637 
L 234.797608 -217.06045 
L 235.268951 -217.96453 
L 235.773535 -218.86861 
L 236.301571 -219.77269 
L 236.843278 -220.67677 
L 237.389208 -221.58085 
L 237.930592 -222.48493 
L 238.459672 -223.38901 
L 238.970009 -224.29309 
L 239.456725 -225.19717 
L 239.916663 -226.10125 
L 240.348442 -227.00533 
L 240.752402 -227.90941 
L 241.130431 -228.813489 
L 241.485691 -229.717569 
L 241.822262 -230.621649 
L 242.144736 -231.525729 
L 242.457791 -232.429809 
L 242.765778 -233.333889 
L 243.072374 -234.237969 
L 243.3803 -235.142049 
L 243.691146 -236.046129 
L 244.005303 -236.950209 
L 244.321996 -237.854289 
L 244.639421 -238.758369 
L 244.954947 -239.662449 
L 245.265377 -240.566529 
L 245.567225 -241.470609 
L 245.856997 -242.374689 
L 246.13144 -243.278769 
L 246.387752 -244.182849 
L 246.623732 -245.086929 
L 246.837871 -245.991009 
L 247.029381 -246.895089 
L 247.198174 -247.799169 
L 247.344796 -248.703249 
L 247.470322 -249.607329 
L 247.576247 -250.511409 
L 248.397115 -250.511409 
L 248.397115 -250.511409 
L 248.50304 -249.607329 
L 248.628566 -248.703249 
L 248.775188 -247.799169 
L 248.943981 -246.895089 
L 249.135491 -245.991009 
L 249.34963 -245.086929 
L 249.58561 -244.182849 
L 249.841922 -243.278769 
L 250.116365 -242.374689 
L 250.406137 -241.470609 
L 250.707985 -240.566529 
L 251.018415 -239.662449 
L 251.333941 -238.758369 
L 251.651366 -237.854289 
L 251.968059 -236.950209 
L 252.282216 -236.046129 
L 252.593062 -235.142049 
L 252.900988 -234.237969 
L 253.207584 -233.333889 
L 253.515572 -232.429809 
L 253.828626 -231.525729 
L 254.1511 -230.621649 
L 254.487671 -229.717569 
L 254.842931 -228.813489 
L 255.22096 -227.90941 
L 255.62492 -227.00533 
L 256.056699 -226.10125 
L 256.516637 -225.19717 
L 257.003353 -224.29309 
L 257.51369 -223.38901 
L 258.042771 -222.48493 
L 258.584154 -221.58085 
L 259.130084 -220.67677 
L 259.671791 -219.77269 
L 260.199827 -218.86861 
L 260.704411 -217.96453 
L 261.175754 -217.06045 
L 261.604354 -216.15637 
L 261.981254 -215.25229 
L 262.298246 -214.34821 
L 262.548046 -213.44413 
L 262.724428 -212.54005 
L 262.822336 -211.63597 
L 262.837985 -210.73189 
L 262.768946 -209.82781 
L 262.614235 -208.92373 
L 262.374384 -208.01965 
L 262.051509 -207.11557 
L 261.649349 -206.21149 
L 261.17328 -205.30741 
L 260.630276 -204.40333 
L 260.028822 -203.49925 
L 259.378766 -202.59517 
L 258.691106 -201.69109 
L 257.977711 -200.78701 
L 257.250995 -199.88293 
L 256.523542 -198.97885 
L 255.807706 -198.07477 
L 255.115205 -197.17069 
L 254.456733 -196.26661 
L 253.841596 -195.36253 
L 253.277421 -194.45845 
L 252.769921 -193.55437 
L 252.322754 -192.65029 
L 251.937474 -191.74621 
L 251.613567 -190.84213 
L 251.348584 -189.93805 
L 251.138355 -189.03397 
L 250.977259 -188.12989 
L 250.858552 -187.22581 
L 250.774722 -186.32173 
L 250.717858 -185.41765 
L 250.680003 -184.51357 
L 250.653491 -183.60949 
L 250.631241 -182.705411 
L 250.606999 -181.801331 
L 250.575526 -180.897251 
L 250.532718 -179.993171 
L 250.475672 -179.089091 
L 250.40268 -178.185011 
L 250.31318 -177.280931 
L 250.207647 -176.376851 
L 250.087457 -175.472771 
L 249.954713 -174.568691 
L 249.812061 -173.664611 
L 249.662495 -172.760531 
L 249.509167 -171.856451 
L 249.355215 -170.952371 
L 249.203604 -170.048291 
L 249.057006 -169.144211 
L 248.917702 -168.240131 
L 248.78752 -167.336051 
L 248.667807 -166.431971 
L 248.559429 -165.527891 
L 248.462798 -164.623811 
L 248.377918 -163.719731 
L 248.304447 -162.815651 
L 248.241764 -161.911571 
L 248.189043 -161.007491 
z
" style="stroke: #595959; stroke-width: 1.25"/>
    </defs>
    <g clip-path="url(#pb9ec407f5e)">
     <use xlink:href="#ma20fa7b1f3" x="0" y="279.674688" style="fill: #e5c849; stroke: #595959; stroke-width: 1.25"/>
    </g>
   </g>
   <g id="matplotlib.axis_1">
    <g id="xtick_1">
     <g id="line2d_1">
      <defs>
       <path id="m9c5603d76c" d="M 0 0 
L 0 3.5 
" style="stroke: #000000; stroke-width: 0.8"/>
      </defs>
      <g>
       <use xlink:href="#m9c5603d76c" x="62.34538" y="242.118437" style="stroke: #000000; stroke-width: 0.8"/>
      </g>
     </g>
     <g id="text_1">
      <!-- 1 -->
      <g transform="translate(59.16413 256.716875) scale(0.1 -0.1)">
       <defs>
        <path id="DejaVuSans-31" d="M 794 531 
L 1825 531 
L 1825 4091 
L 703 3866 
L 703 4441 
L 1819 4666 
L 2450 4666 
L 2450 531 
L 3481 531 
L 3481 0 
L 794 0 
L 794 531 
z
" transform="scale(0.015625)"/>
       </defs>
       <use xlink:href="#DejaVuSans-31"/>
      </g>
     </g>
    </g>
    <g id="xtick_2">
     <g id="line2d_2">
      <g>
       <use xlink:href="#m9c5603d76c" x="99.47364" y="242.118437" style="stroke: #000000; stroke-width: 0.8"/>
      </g>
     </g>
     <g id="text_2">
      <!-- 2 -->
      <g transform="translate(96.29239 256.716875) scale(0.1 -0.1)">
       <defs>
        <path id="DejaVuSans-32" d="M 1228 531 
L 3431 531 
L 3431 0 
L 469 0 
L 469 531 
Q 828 903 1448 1529 
Q 2069 2156 2228 2338 
Q 2531 2678 2651 2914 
Q 2772 3150 2772 3378 
Q 2772 3750 2511 3984 
Q 2250 4219 1831 4219 
Q 1534 4219 1204 4116 
Q 875 4013 500 3803 
L 500 4441 
Q 881 4594 1212 4672 
Q 1544 4750 1819 4750 
Q 2544 4750 2975 4387 
Q 3406 4025 3406 3419 
Q 3406 3131 3298 2873 
Q 3191 2616 2906 2266 
Q 2828 2175 2409 1742 
Q 1991 1309 1228 531 
z
" transform="scale(0.015625)"/>
       </defs>
       <use xlink:href="#DejaVuSans-32"/>
      </g>
     </g>
    </g>
    <g id="xtick_3">
     <g id="line2d_3">
      <g>
       <use xlink:href="#m9c5603d76c" x="136.6019" y="242.118437" style="stroke: #000000; stroke-width: 0.8"/>
      </g>
     </g>
     <g id="text_3">
      <!-- 3 -->
      <g transform="translate(133.42065 256.716875) scale(0.1 -0.1)">
       <defs>
        <path id="DejaVuSans-33" d="M 2597 2516 
Q 3050 2419 3304 2112 
Q 3559 1806 3559 1356 
Q 3559 666 3084 287 
Q 2609 -91 1734 -91 
Q 1441 -91 1130 -33 
Q 819 25 488 141 
L 488 750 
Q 750 597 1062 519 
Q 1375 441 1716 441 
Q 2309 441 2620 675 
Q 2931 909 2931 1356 
Q 2931 1769 2642 2001 
Q 2353 2234 1838 2234 
L 1294 2234 
L 1294 2753 
L 1863 2753 
Q 2328 2753 2575 2939 
Q 2822 3125 2822 3475 
Q 2822 3834 2567 4026 
Q 2313 4219 1838 4219 
Q 1578 4219 1281 4162 
Q 984 4106 628 3988 
L 628 4550 
Q 988 4650 1302 4700 
Q 1616 4750 1894 4750 
Q 2613 4750 3031 4423 
Q 3450 4097 3450 3541 
Q 3450 3153 3228 2886 
Q 3006 2619 2597 2516 
z
" transform="scale(0.015625)"/>
       </defs>
       <use xlink:href="#DejaVuSans-33"/>
      </g>
     </g>
    </g>
    <g id="xtick_4">
     <g id="line2d_4">
      <g>
       <use xlink:href="#m9c5603d76c" x="173.730161" y="242.118437" style="stroke: #000000; stroke-width: 0.8"/>
      </g>
     </g>
     <g id="text_4">
      <!-- 4 -->
      <g transform="translate(170.548911 256.716875) scale(0.1 -0.1)">
       <defs>
        <path id="DejaVuSans-34" d="M 2419 4116 
L 825 1625 
L 2419 1625 
L 2419 4116 
z
M 2253 4666 
L 3047 4666 
L 3047 1625 
L 3713 1625 
L 3713 1100 
L 3047 1100 
L 3047 0 
L 2419 0 
L 2419 1100 
L 313 1100 
L 313 1709 
L 2253 4666 
z
" transform="scale(0.015625)"/>
       </defs>
       <use xlink:href="#DejaVuSans-34"/>
      </g>
     </g>
    </g>
    <g id="xtick_5">
     <g id="line2d_5">
      <g>
       <use xlink:href="#m9c5603d76c" x="210.858421" y="242.118437" style="stroke: #000000; stroke-width: 0.8"/>
      </g>
     </g>
     <g id="text_5">
      <!-- 5 -->
      <g transform="translate(207.677171 256.716875) scale(0.1 -0.1)">
       <defs>
        <path id="DejaVuSans-35" d="M 691 4666 
L 3169 4666 
L 3169 4134 
L 1269 4134 
L 1269 2991 
Q 1406 3038 1543 3061 
Q 1681 3084 1819 3084 
Q 2600 3084 3056 2656 
Q 3513 2228 3513 1497 
Q 3513 744 3044 326 
Q 2575 -91 1722 -91 
Q 1428 -91 1123 -41 
Q 819 9 494 109 
L 494 744 
Q 775 591 1075 516 
Q 1375 441 1709 441 
Q 2250 441 2565 725 
Q 2881 1009 2881 1497 
Q 2881 1984 2565 2268 
Q 2250 2553 1709 2553 
Q 1456 2553 1204 2497 
Q 953 2441 691 2322 
L 691 4666 
z
" transform="scale(0.015625)"/>
       </defs>
       <use xlink:href="#DejaVuSans-35"/>
      </g>
     </g>
    </g>
    <g id="xtick_6">
     <g id="line2d_6">
      <g>
       <use xlink:href="#m9c5603d76c" x="247.986681" y="242.118437" style="stroke: #000000; stroke-width: 0.8"/>
      </g>
     </g>
     <g id="text_6">
      <!-- 6 -->
      <g transform="translate(244.805431 256.716875) scale(0.1 -0.1)">
       <defs>
        <path id="DejaVuSans-36" d="M 2113 2584 
Q 1688 2584 1439 2293 
Q 1191 2003 1191 1497 
Q 1191 994 1439 701 
Q 1688 409 2113 409 
Q 2538 409 2786 701 
Q 3034 994 3034 1497 
Q 3034 2003 2786 2293 
Q 2538 2584 2113 2584 
z
M 3366 4563 
L 3366 3988 
Q 3128 4100 2886 4159 
Q 2644 4219 2406 4219 
Q 1781 4219 1451 3797 
Q 1122 3375 1075 2522 
Q 1259 2794 1537 2939 
Q 1816 3084 2150 3084 
Q 2853 3084 3261 2657 
Q 3669 2231 3669 1497 
Q 3669 778 3244 343 
Q 2819 -91 2113 -91 
Q 1303 -91 875 529 
Q 447 1150 447 2328 
Q 447 3434 972 4092 
Q 1497 4750 2381 4750 
Q 2619 4750 2861 4703 
Q 3103 4656 3366 4563 
z
" transform="scale(0.015625)"/>
       </defs>
       <use xlink:href="#DejaVuSans-36"/>
      </g>
     </g>
    </g>
    <g id="text_7">
     <!-- Layer -->
     <g transform="translate(141.224624 270.395) scale(0.1 -0.1)">
      <defs>
       <path id="DejaVuSans-4c" d="M 628 4666 
L 1259 4666 
L 1259 531 
L 3531 531 
L 3531 0 
L 628 0 
L 628 4666 
z
" transform="scale(0.015625)"/>
       <path id="DejaVuSans-61" d="M 2194 1759 
Q 1497 1759 1228 1600 
Q 959 1441 959 1056 
Q 959 750 1161 570 
Q 1363 391 1709 391 
Q 2188 391 2477 730 
Q 2766 1069 2766 1631 
L 2766 1759 
L 2194 1759 
z
M 3341 1997 
L 3341 0 
L 2766 0 
L 2766 531 
Q 2569 213 2275 61 
Q 1981 -91 1556 -91 
Q 1019 -91 701 211 
Q 384 513 384 1019 
Q 384 1609 779 1909 
Q 1175 2209 1959 2209 
L 2766 2209 
L 2766 2266 
Q 2766 2663 2505 2880 
Q 2244 3097 1772 3097 
Q 1472 3097 1187 3025 
Q 903 2953 641 2809 
L 641 3341 
Q 956 3463 1253 3523 
Q 1550 3584 1831 3584 
Q 2591 3584 2966 3190 
Q 3341 2797 3341 1997 
z
" transform="scale(0.015625)"/>
       <path id="DejaVuSans-79" d="M 2059 -325 
Q 1816 -950 1584 -1140 
Q 1353 -1331 966 -1331 
L 506 -1331 
L 506 -850 
L 844 -850 
Q 1081 -850 1212 -737 
Q 1344 -625 1503 -206 
L 1606 56 
L 191 3500 
L 800 3500 
L 1894 763 
L 2988 3500 
L 3597 3500 
L 2059 -325 
z
" transform="scale(0.015625)"/>
       <path id="DejaVuSans-65" d="M 3597 1894 
L 3597 1613 
L 953 1613 
Q 991 1019 1311 708 
Q 1631 397 2203 397 
Q 2534 397 2845 478 
Q 3156 559 3463 722 
L 3463 178 
Q 3153 47 2828 -22 
Q 2503 -91 2169 -91 
Q 1331 -91 842 396 
Q 353 884 353 1716 
Q 353 2575 817 3079 
Q 1281 3584 2069 3584 
Q 2775 3584 3186 3129 
Q 3597 2675 3597 1894 
z
M 3022 2063 
Q 3016 2534 2758 2815 
Q 2500 3097 2075 3097 
Q 1594 3097 1305 2825 
Q 1016 2553 972 2059 
L 3022 2063 
z
" transform="scale(0.015625)"/>
       <path id="DejaVuSans-72" d="M 2631 2963 
Q 2534 3019 2420 3045 
Q 2306 3072 2169 3072 
Q 1681 3072 1420 2755 
Q 1159 2438 1159 1844 
L 1159 0 
L 581 0 
L 581 3500 
L 1159 3500 
L 1159 2956 
Q 1341 3275 1631 3429 
Q 1922 3584 2338 3584 
Q 2397 3584 2469 3576 
Q 2541 3569 2628 3553 
L 2631 2963 
z
" transform="scale(0.015625)"/>
      </defs>
      <use xlink:href="#DejaVuSans-4c"/>
      <use xlink:href="#DejaVuSans-61" x="55.712891"/>
      <use xlink:href="#DejaVuSans-79" x="116.992188"/>
      <use xlink:href="#DejaVuSans-65" x="176.171875"/>
      <use xlink:href="#DejaVuSans-72" x="237.695312"/>
     </g>
    </g>
   </g>
   <g id="matplotlib.axis_2">
    <g id="ytick_1">
     <g id="line2d_7">
      <defs>
       <path id="me8bb7c98f9" d="M 0 0 
L -3.5 0 
" style="stroke: #000000; stroke-width: 0.8"/>
      </defs>
      <g>
       <use xlink:href="#me8bb7c98f9" x="43.78125" y="242.118437" style="stroke: #000000; stroke-width: 0.8"/>
      </g>
     </g>
     <g id="text_8">
      <!-- 0.0 -->
      <g transform="translate(20.878125 245.917656) scale(0.1 -0.1)">
       <defs>
        <path id="DejaVuSans-30" d="M 2034 4250 
Q 1547 4250 1301 3770 
Q 1056 3291 1056 2328 
Q 1056 1369 1301 889 
Q 1547 409 2034 409 
Q 2525 409 2770 889 
Q 3016 1369 3016 2328 
Q 3016 3291 2770 3770 
Q 2525 4250 2034 4250 
z
M 2034 4750 
Q 2819 4750 3233 4129 
Q 3647 3509 3647 2328 
Q 3647 1150 3233 529 
Q 2819 -91 2034 -91 
Q 1250 -91 836 529 
Q 422 1150 422 2328 
Q 422 3509 836 4129 
Q 1250 4750 2034 4750 
z
" transform="scale(0.015625)"/>
        <path id="DejaVuSans-2e" d="M 684 794 
L 1344 794 
L 1344 0 
L 684 0 
L 684 794 
z
" transform="scale(0.015625)"/>
       </defs>
       <use xlink:href="#DejaVuSans-30"/>
       <use xlink:href="#DejaVuSans-2e" x="63.623047"/>
       <use xlink:href="#DejaVuSans-30" x="95.410156"/>
      </g>
     </g>
    </g>
    <g id="ytick_2">
     <g id="line2d_8">
      <g>
       <use xlink:href="#me8bb7c98f9" x="43.78125" y="197.854437" style="stroke: #000000; stroke-width: 0.8"/>
      </g>
     </g>
     <g id="text_9">
      <!-- 0.2 -->
      <g transform="translate(20.878125 201.653656) scale(0.1 -0.1)">
       <use xlink:href="#DejaVuSans-30"/>
       <use xlink:href="#DejaVuSans-2e" x="63.623047"/>
       <use xlink:href="#DejaVuSans-32" x="95.410156"/>
      </g>
     </g>
    </g>
    <g id="ytick_3">
     <g id="line2d_9">
      <g>
       <use xlink:href="#me8bb7c98f9" x="43.78125" y="153.590437" style="stroke: #000000; stroke-width: 0.8"/>
      </g>
     </g>
     <g id="text_10">
      <!-- 0.4 -->
      <g transform="translate(20.878125 157.389656) scale(0.1 -0.1)">
       <use xlink:href="#DejaVuSans-30"/>
       <use xlink:href="#DejaVuSans-2e" x="63.623047"/>
       <use xlink:href="#DejaVuSans-34" x="95.410156"/>
      </g>
     </g>
    </g>
    <g id="ytick_4">
     <g id="line2d_10">
      <g>
       <use xlink:href="#me8bb7c98f9" x="43.78125" y="109.326437" style="stroke: #000000; stroke-width: 0.8"/>
      </g>
     </g>
     <g id="text_11">
      <!-- 0.6 -->
      <g transform="translate(20.878125 113.125656) scale(0.1 -0.1)">
       <use xlink:href="#DejaVuSans-30"/>
       <use xlink:href="#DejaVuSans-2e" x="63.623047"/>
       <use xlink:href="#DejaVuSans-36" x="95.410156"/>
      </g>
     </g>
    </g>
    <g id="ytick_5">
     <g id="line2d_11">
      <g>
       <use xlink:href="#me8bb7c98f9" x="43.78125" y="65.062437" style="stroke: #000000; stroke-width: 0.8"/>
      </g>
     </g>
     <g id="text_12">
      <!-- 0.8 -->
      <g transform="translate(20.878125 68.861656) scale(0.1 -0.1)">
       <defs>
        <path id="DejaVuSans-38" d="M 2034 2216 
Q 1584 2216 1326 1975 
Q 1069 1734 1069 1313 
Q 1069 891 1326 650 
Q 1584 409 2034 409 
Q 2484 409 2743 651 
Q 3003 894 3003 1313 
Q 3003 1734 2745 1975 
Q 2488 2216 2034 2216 
z
M 1403 2484 
Q 997 2584 770 2862 
Q 544 3141 544 3541 
Q 544 4100 942 4425 
Q 1341 4750 2034 4750 
Q 2731 4750 3128 4425 
Q 3525 4100 3525 3541 
Q 3525 3141 3298 2862 
Q 3072 2584 2669 2484 
Q 3125 2378 3379 2068 
Q 3634 1759 3634 1313 
Q 3634 634 3220 271 
Q 2806 -91 2034 -91 
Q 1263 -91 848 271 
Q 434 634 434 1313 
Q 434 1759 690 2068 
Q 947 2378 1403 2484 
z
M 1172 3481 
Q 1172 3119 1398 2916 
Q 1625 2713 2034 2713 
Q 2441 2713 2670 2916 
Q 2900 3119 2900 3481 
Q 2900 3844 2670 4047 
Q 2441 4250 2034 4250 
Q 1625 4250 1398 4047 
Q 1172 3844 1172 3481 
z
" transform="scale(0.015625)"/>
       </defs>
       <use xlink:href="#DejaVuSans-30"/>
       <use xlink:href="#DejaVuSans-2e" x="63.623047"/>
       <use xlink:href="#DejaVuSans-38" x="95.410156"/>
      </g>
     </g>
    </g>
    <g id="ytick_6">
     <g id="line2d_12">
      <g>
       <use xlink:href="#me8bb7c98f9" x="43.78125" y="20.798437" style="stroke: #000000; stroke-width: 0.8"/>
      </g>
     </g>
     <g id="text_13">
      <!-- 1.0 -->
      <g transform="translate(20.878125 24.597656) scale(0.1 -0.1)">
       <use xlink:href="#DejaVuSans-31"/>
       <use xlink:href="#DejaVuSans-2e" x="63.623047"/>
       <use xlink:href="#DejaVuSans-30" x="95.410156"/>
      </g>
     </g>
    </g>
    <g id="text_14">
     <!-- Accuracy -->
     <g transform="translate(14.798438 154.286563) rotate(-90) scale(0.1 -0.1)">
      <defs>
       <path id="DejaVuSans-41" d="M 2188 4044 
L 1331 1722 
L 3047 1722 
L 2188 4044 
z
M 1831 4666 
L 2547 4666 
L 4325 0 
L 3669 0 
L 3244 1197 
L 1141 1197 
L 716 0 
L 50 0 
L 1831 4666 
z
" transform="scale(0.015625)"/>
       <path id="DejaVuSans-63" d="M 3122 3366 
L 3122 2828 
Q 2878 2963 2633 3030 
Q 2388 3097 2138 3097 
Q 1578 3097 1268 2742 
Q 959 2388 959 1747 
Q 959 1106 1268 751 
Q 1578 397 2138 397 
Q 2388 397 2633 464 
Q 2878 531 3122 666 
L 3122 134 
Q 2881 22 2623 -34 
Q 2366 -91 2075 -91 
Q 1284 -91 818 406 
Q 353 903 353 1747 
Q 353 2603 823 3093 
Q 1294 3584 2113 3584 
Q 2378 3584 2631 3529 
Q 2884 3475 3122 3366 
z
" transform="scale(0.015625)"/>
       <path id="DejaVuSans-75" d="M 544 1381 
L 544 3500 
L 1119 3500 
L 1119 1403 
Q 1119 906 1312 657 
Q 1506 409 1894 409 
Q 2359 409 2629 706 
Q 2900 1003 2900 1516 
L 2900 3500 
L 3475 3500 
L 3475 0 
L 2900 0 
L 2900 538 
Q 2691 219 2414 64 
Q 2138 -91 1772 -91 
Q 1169 -91 856 284 
Q 544 659 544 1381 
z
M 1991 3584 
L 1991 3584 
z
" transform="scale(0.015625)"/>
      </defs>
      <use xlink:href="#DejaVuSans-41"/>
      <use xlink:href="#DejaVuSans-63" x="66.658203"/>
      <use xlink:href="#DejaVuSans-63" x="121.638672"/>
      <use xlink:href="#DejaVuSans-75" x="176.619141"/>
      <use xlink:href="#DejaVuSans-72" x="239.998047"/>
      <use xlink:href="#DejaVuSans-61" x="281.111328"/>
      <use xlink:href="#DejaVuSans-63" x="342.390625"/>
      <use xlink:href="#DejaVuSans-79" x="397.371094"/>
     </g>
    </g>
   </g>
   <g id="line2d_13">
    <path d="M 43.78125 131.458438 
L 266.550811 131.458438 
" clip-path="url(#pb9ec407f5e)" style="fill: none; stroke-dasharray: 5.55,2.4; stroke-dashoffset: 0; stroke: #808080; stroke-width: 1.5"/>
   </g>
   <g id="patch_3">
    <path d="M 43.78125 242.118437 
L 43.78125 20.798437 
" style="fill: none; stroke: #000000; stroke-width: 0.8; stroke-linejoin: miter; stroke-linecap: square"/>
   </g>
   <g id="patch_4">
    <path d="M 43.78125 242.118437 
L 266.550811 242.118437 
" style="fill: none; stroke: #000000; stroke-width: 0.8; stroke-linejoin: miter; stroke-linecap: square"/>
   </g>
   <g id="PathCollection_1">
    <defs>
     <path id="m3f12722ff3" d="M 0 1.25 
C 0.331504 1.25 0.649475 1.118292 0.883883 0.883883 
C 1.118292 0.649475 1.25 0.331504 1.25 0 
C 1.25 -0.331504 1.118292 -0.649475 0.883883 -0.883883 
C 0.649475 -1.118292 0.331504 -1.25 0 -1.25 
C -0.331504 -1.25 -0.649475 -1.118292 -0.883883 -0.883883 
C -1.118292 -0.649475 -1.25 -0.331504 -1.25 0 
C -1.25 0.331504 -1.118292 0.649475 -0.883883 0.883883 
C -0.649475 1.118292 -0.331504 1.25 0 1.25 
z
" style="stroke: #595959"/>
    </defs>
    <g clip-path="url(#pb9ec407f5e)">
     <use xlink:href="#m3f12722ff3" x="62.34538" y="38.504037" style="fill: #595959; stroke: #595959"/>
     <use xlink:href="#m3f12722ff3" x="62.34538" y="31.864437" style="fill: #595959; stroke: #595959"/>
     <use xlink:href="#m3f12722ff3" x="62.34538" y="27.438037" style="fill: #595959; stroke: #595959"/>
     <use xlink:href="#m3f12722ff3" x="62.34538" y="34.077637" style="fill: #595959; stroke: #595959"/>
     <use xlink:href="#m3f12722ff3" x="62.34538" y="29.651237" style="fill: #595959; stroke: #595959"/>
     <use xlink:href="#m3f12722ff3" x="62.34538" y="29.651237" style="fill: #595959; stroke: #595959"/>
     <use xlink:href="#m3f12722ff3" x="62.34538" y="29.651237" style="fill: #595959; stroke: #595959"/>
     <use xlink:href="#m3f12722ff3" x="62.34538" y="49.570038" style="fill: #595959; stroke: #595959"/>
     <use xlink:href="#m3f12722ff3" x="62.34538" y="40.717238" style="fill: #595959; stroke: #595959"/>
     <use xlink:href="#m3f12722ff3" x="62.34538" y="29.651237" style="fill: #595959; stroke: #595959"/>
     <use xlink:href="#m3f12722ff3" x="62.34538" y="23.011637" style="fill: #595959; stroke: #595959"/>
     <use xlink:href="#m3f12722ff3" x="62.34538" y="47.356837" style="fill: #595959; stroke: #595959"/>
     <use xlink:href="#m3f12722ff3" x="62.34538" y="34.077637" style="fill: #595959; stroke: #595959"/>
     <use xlink:href="#m3f12722ff3" x="62.34538" y="29.651237" style="fill: #595959; stroke: #595959"/>
     <use xlink:href="#m3f12722ff3" x="62.34538" y="34.077637" style="fill: #595959; stroke: #595959"/>
     <use xlink:href="#m3f12722ff3" x="62.34538" y="31.864437" style="fill: #595959; stroke: #595959"/>
     <use xlink:href="#m3f12722ff3" x="62.34538" y="29.651237" style="fill: #595959; stroke: #595959"/>
     <use xlink:href="#m3f12722ff3" x="62.34538" y="20.798437" style="fill: #595959; stroke: #595959"/>
     <use xlink:href="#m3f12722ff3" x="62.34538" y="27.438037" style="fill: #595959; stroke: #595959"/>
     <use xlink:href="#m3f12722ff3" x="62.34538" y="23.011637" style="fill: #595959; stroke: #595959"/>
    </g>
   </g>
   <g id="PathCollection_2">
    <g clip-path="url(#pb9ec407f5e)">
     <use xlink:href="#m3f12722ff3" x="99.47364" y="20.798437" style="fill: #595959; stroke: #595959"/>
     <use xlink:href="#m3f12722ff3" x="99.47364" y="20.798437" style="fill: #595959; stroke: #595959"/>
     <use xlink:href="#m3f12722ff3" x="99.47364" y="23.011637" style="fill: #595959; stroke: #595959"/>
     <use xlink:href="#m3f12722ff3" x="99.47364" y="25.224837" style="fill: #595959; stroke: #595959"/>
     <use xlink:href="#m3f12722ff3" x="99.47364" y="23.011637" style="fill: #595959; stroke: #595959"/>
     <use xlink:href="#m3f12722ff3" x="99.47364" y="20.798437" style="fill: #595959; stroke: #595959"/>
     <use xlink:href="#m3f12722ff3" x="99.47364" y="20.798437" style="fill: #595959; stroke: #595959"/>
     <use xlink:href="#m3f12722ff3" x="99.47364" y="20.798437" style="fill: #595959; stroke: #595959"/>
     <use xlink:href="#m3f12722ff3" x="99.47364" y="23.011637" style="fill: #595959; stroke: #595959"/>
     <use xlink:href="#m3f12722ff3" x="99.47364" y="20.798437" style="fill: #595959; stroke: #595959"/>
     <use xlink:href="#m3f12722ff3" x="99.47364" y="20.798437" style="fill: #595959; stroke: #595959"/>
     <use xlink:href="#m3f12722ff3" x="99.47364" y="23.011637" style="fill: #595959; stroke: #595959"/>
     <use xlink:href="#m3f12722ff3" x="99.47364" y="23.011637" style="fill: #595959; stroke: #595959"/>
     <use xlink:href="#m3f12722ff3" x="99.47364" y="20.798437" style="fill: #595959; stroke: #595959"/>
     <use xlink:href="#m3f12722ff3" x="99.47364" y="23.011637" style="fill: #595959; stroke: #595959"/>
     <use xlink:href="#m3f12722ff3" x="99.47364" y="20.798437" style="fill: #595959; stroke: #595959"/>
     <use xlink:href="#m3f12722ff3" x="99.47364" y="20.798437" style="fill: #595959; stroke: #595959"/>
     <use xlink:href="#m3f12722ff3" x="99.47364" y="20.798437" style="fill: #595959; stroke: #595959"/>
     <use xlink:href="#m3f12722ff3" x="99.47364" y="20.798437" style="fill: #595959; stroke: #595959"/>
     <use xlink:href="#m3f12722ff3" x="99.47364" y="20.798437" style="fill: #595959; stroke: #595959"/>
    </g>
   </g>
   <g id="PathCollection_3">
    <g clip-path="url(#pb9ec407f5e)">
     <use xlink:href="#m3f12722ff3" x="136.6019" y="96.047237" style="fill: #595959; stroke: #595959"/>
     <use xlink:href="#m3f12722ff3" x="136.6019" y="102.686837" style="fill: #595959; stroke: #595959"/>
     <use xlink:href="#m3f12722ff3" x="136.6019" y="120.392437" style="fill: #595959; stroke: #595959"/>
     <use xlink:href="#m3f12722ff3" x="136.6019" y="100.473637" style="fill: #595959; stroke: #595959"/>
     <use xlink:href="#m3f12722ff3" x="136.6019" y="78.341637" style="fill: #595959; stroke: #595959"/>
     <use xlink:href="#m3f12722ff3" x="136.6019" y="122.605637" style="fill: #595959; stroke: #595959"/>
     <use xlink:href="#m3f12722ff3" x="136.6019" y="111.539637" style="fill: #595959; stroke: #595959"/>
     <use xlink:href="#m3f12722ff3" x="136.6019" y="124.818837" style="fill: #595959; stroke: #595959"/>
     <use xlink:href="#m3f12722ff3" x="136.6019" y="96.047237" style="fill: #595959; stroke: #595959"/>
     <use xlink:href="#m3f12722ff3" x="136.6019" y="129.245237" style="fill: #595959; stroke: #595959"/>
     <use xlink:href="#m3f12722ff3" x="136.6019" y="115.966037" style="fill: #595959; stroke: #595959"/>
     <use xlink:href="#m3f12722ff3" x="136.6019" y="127.032037" style="fill: #595959; stroke: #595959"/>
     <use xlink:href="#m3f12722ff3" x="136.6019" y="138.098037" style="fill: #595959; stroke: #595959"/>
     <use xlink:href="#m3f12722ff3" x="136.6019" y="113.752838" style="fill: #595959; stroke: #595959"/>
     <use xlink:href="#m3f12722ff3" x="136.6019" y="104.900038" style="fill: #595959; stroke: #595959"/>
     <use xlink:href="#m3f12722ff3" x="136.6019" y="118.179237" style="fill: #595959; stroke: #595959"/>
     <use xlink:href="#m3f12722ff3" x="136.6019" y="120.392437" style="fill: #595959; stroke: #595959"/>
     <use xlink:href="#m3f12722ff3" x="136.6019" y="107.113237" style="fill: #595959; stroke: #595959"/>
     <use xlink:href="#m3f12722ff3" x="136.6019" y="91.620837" style="fill: #595959; stroke: #595959"/>
     <use xlink:href="#m3f12722ff3" x="136.6019" y="109.326437" style="fill: #595959; stroke: #595959"/>
    </g>
   </g>
   <g id="PathCollection_4">
    <g clip-path="url(#pb9ec407f5e)">
     <use xlink:href="#m3f12722ff3" x="173.730161" y="142.524437" style="fill: #595959; stroke: #595959"/>
     <use xlink:href="#m3f12722ff3" x="173.730161" y="138.098037" style="fill: #595959; stroke: #595959"/>
     <use xlink:href="#m3f12722ff3" x="173.730161" y="146.950837" style="fill: #595959; stroke: #595959"/>
     <use xlink:href="#m3f12722ff3" x="173.730161" y="144.737637" style="fill: #595959; stroke: #595959"/>
     <use xlink:href="#m3f12722ff3" x="173.730161" y="122.605637" style="fill: #595959; stroke: #595959"/>
     <use xlink:href="#m3f12722ff3" x="173.730161" y="111.539637" style="fill: #595959; stroke: #595959"/>
     <use xlink:href="#m3f12722ff3" x="173.730161" y="113.752837" style="fill: #595959; stroke: #595959"/>
     <use xlink:href="#m3f12722ff3" x="173.730161" y="115.966037" style="fill: #595959; stroke: #595959"/>
     <use xlink:href="#m3f12722ff3" x="173.730161" y="120.392437" style="fill: #595959; stroke: #595959"/>
     <use xlink:href="#m3f12722ff3" x="173.730161" y="120.392437" style="fill: #595959; stroke: #595959"/>
     <use xlink:href="#m3f12722ff3" x="173.730161" y="122.605637" style="fill: #595959; stroke: #595959"/>
     <use xlink:href="#m3f12722ff3" x="173.730161" y="133.671638" style="fill: #595959; stroke: #595959"/>
     <use xlink:href="#m3f12722ff3" x="173.730161" y="133.671637" style="fill: #595959; stroke: #595959"/>
     <use xlink:href="#m3f12722ff3" x="173.730161" y="138.098037" style="fill: #595959; stroke: #595959"/>
     <use xlink:href="#m3f12722ff3" x="173.730161" y="122.605637" style="fill: #595959; stroke: #595959"/>
     <use xlink:href="#m3f12722ff3" x="173.730161" y="155.803637" style="fill: #595959; stroke: #595959"/>
     <use xlink:href="#m3f12722ff3" x="173.730161" y="138.098037" style="fill: #595959; stroke: #595959"/>
     <use xlink:href="#m3f12722ff3" x="173.730161" y="131.458438" style="fill: #595959; stroke: #595959"/>
     <use xlink:href="#m3f12722ff3" x="173.730161" y="160.230037" style="fill: #595959; stroke: #595959"/>
     <use xlink:href="#m3f12722ff3" x="173.730161" y="133.671637" style="fill: #595959; stroke: #595959"/>
    </g>
   </g>
   <g id="PathCollection_5">
    <g clip-path="url(#pb9ec407f5e)">
     <use xlink:href="#m3f12722ff3" x="210.858421" y="89.407637" style="fill: #595959; stroke: #595959"/>
     <use xlink:href="#m3f12722ff3" x="210.858421" y="102.686837" style="fill: #595959; stroke: #595959"/>
     <use xlink:href="#m3f12722ff3" x="210.858421" y="120.392437" style="fill: #595959; stroke: #595959"/>
     <use xlink:href="#m3f12722ff3" x="210.858421" y="124.818837" style="fill: #595959; stroke: #595959"/>
     <use xlink:href="#m3f12722ff3" x="210.858421" y="107.113237" style="fill: #595959; stroke: #595959"/>
     <use xlink:href="#m3f12722ff3" x="210.858421" y="104.900037" style="fill: #595959; stroke: #595959"/>
     <use xlink:href="#m3f12722ff3" x="210.858421" y="109.326437" style="fill: #595959; stroke: #595959"/>
     <use xlink:href="#m3f12722ff3" x="210.858421" y="91.620837" style="fill: #595959; stroke: #595959"/>
     <use xlink:href="#m3f12722ff3" x="210.858421" y="109.326437" style="fill: #595959; stroke: #595959"/>
     <use xlink:href="#m3f12722ff3" x="210.858421" y="115.966037" style="fill: #595959; stroke: #595959"/>
     <use xlink:href="#m3f12722ff3" x="210.858421" y="100.473637" style="fill: #595959; stroke: #595959"/>
     <use xlink:href="#m3f12722ff3" x="210.858421" y="84.981237" style="fill: #595959; stroke: #595959"/>
     <use xlink:href="#m3f12722ff3" x="210.858421" y="115.966037" style="fill: #595959; stroke: #595959"/>
     <use xlink:href="#m3f12722ff3" x="210.858421" y="111.539637" style="fill: #595959; stroke: #595959"/>
     <use xlink:href="#m3f12722ff3" x="210.858421" y="91.620837" style="fill: #595959; stroke: #595959"/>
     <use xlink:href="#m3f12722ff3" x="210.858421" y="104.900037" style="fill: #595959; stroke: #595959"/>
     <use xlink:href="#m3f12722ff3" x="210.858421" y="111.539637" style="fill: #595959; stroke: #595959"/>
     <use xlink:href="#m3f12722ff3" x="210.858421" y="102.686837" style="fill: #595959; stroke: #595959"/>
     <use xlink:href="#m3f12722ff3" x="210.858421" y="120.392437" style="fill: #595959; stroke: #595959"/>
     <use xlink:href="#m3f12722ff3" x="210.858421" y="102.686837" style="fill: #595959; stroke: #595959"/>
    </g>
   </g>
   <g id="PathCollection_6">
    <g clip-path="url(#pb9ec407f5e)">
     <use xlink:href="#m3f12722ff3" x="247.986681" y="49.570038" style="fill: #595959; stroke: #595959"/>
     <use xlink:href="#m3f12722ff3" x="247.986681" y="60.636037" style="fill: #595959; stroke: #595959"/>
     <use xlink:href="#m3f12722ff3" x="247.986681" y="71.702037" style="fill: #595959; stroke: #595959"/>
     <use xlink:href="#m3f12722ff3" x="247.986681" y="73.915237" style="fill: #595959; stroke: #595959"/>
     <use xlink:href="#m3f12722ff3" x="247.986681" y="78.341637" style="fill: #595959; stroke: #595959"/>
     <use xlink:href="#m3f12722ff3" x="247.986681" y="58.422838" style="fill: #595959; stroke: #595959"/>
     <use xlink:href="#m3f12722ff3" x="247.986681" y="67.275638" style="fill: #595959; stroke: #595959"/>
     <use xlink:href="#m3f12722ff3" x="247.986681" y="102.686837" style="fill: #595959; stroke: #595959"/>
     <use xlink:href="#m3f12722ff3" x="247.986681" y="78.341637" style="fill: #595959; stroke: #595959"/>
     <use xlink:href="#m3f12722ff3" x="247.986681" y="45.143637" style="fill: #595959; stroke: #595959"/>
     <use xlink:href="#m3f12722ff3" x="247.986681" y="45.143638" style="fill: #595959; stroke: #595959"/>
     <use xlink:href="#m3f12722ff3" x="247.986681" y="96.047237" style="fill: #595959; stroke: #595959"/>
     <use xlink:href="#m3f12722ff3" x="247.986681" y="78.341637" style="fill: #595959; stroke: #595959"/>
     <use xlink:href="#m3f12722ff3" x="247.986681" y="62.849237" style="fill: #595959; stroke: #595959"/>
     <use xlink:href="#m3f12722ff3" x="247.986681" y="69.488837" style="fill: #595959; stroke: #595959"/>
     <use xlink:href="#m3f12722ff3" x="247.986681" y="60.636037" style="fill: #595959; stroke: #595959"/>
     <use xlink:href="#m3f12722ff3" x="247.986681" y="62.849237" style="fill: #595959; stroke: #595959"/>
     <use xlink:href="#m3f12722ff3" x="247.986681" y="71.702037" style="fill: #595959; stroke: #595959"/>
     <use xlink:href="#m3f12722ff3" x="247.986681" y="67.275637" style="fill: #595959; stroke: #595959"/>
     <use xlink:href="#m3f12722ff3" x="247.986681" y="71.702037" style="fill: #595959; stroke: #595959"/>
    </g>
   </g>
   <g id="text_15">
    <!-- Rho = 0.4 -->
    <g transform="translate(273.08589 106.436563) rotate(-270) scale(0.1 -0.1)">
     <defs>
      <path id="DejaVuSans-52" d="M 2841 2188 
Q 3044 2119 3236 1894 
Q 3428 1669 3622 1275 
L 4263 0 
L 3584 0 
L 2988 1197 
Q 2756 1666 2539 1819 
Q 2322 1972 1947 1972 
L 1259 1972 
L 1259 0 
L 628 0 
L 628 4666 
L 2053 4666 
Q 2853 4666 3247 4331 
Q 3641 3997 3641 3322 
Q 3641 2881 3436 2590 
Q 3231 2300 2841 2188 
z
M 1259 4147 
L 1259 2491 
L 2053 2491 
Q 2509 2491 2742 2702 
Q 2975 2913 2975 3322 
Q 2975 3731 2742 3939 
Q 2509 4147 2053 4147 
L 1259 4147 
z
" transform="scale(0.015625)"/>
      <path id="DejaVuSans-68" d="M 3513 2113 
L 3513 0 
L 2938 0 
L 2938 2094 
Q 2938 2591 2744 2837 
Q 2550 3084 2163 3084 
Q 1697 3084 1428 2787 
Q 1159 2491 1159 1978 
L 1159 0 
L 581 0 
L 581 4863 
L 1159 4863 
L 1159 2956 
Q 1366 3272 1645 3428 
Q 1925 3584 2291 3584 
Q 2894 3584 3203 3211 
Q 3513 2838 3513 2113 
z
" transform="scale(0.015625)"/>
      <path id="DejaVuSans-6f" d="M 1959 3097 
Q 1497 3097 1228 2736 
Q 959 2375 959 1747 
Q 959 1119 1226 758 
Q 1494 397 1959 397 
Q 2419 397 2687 759 
Q 2956 1122 2956 1747 
Q 2956 2369 2687 2733 
Q 2419 3097 1959 3097 
z
M 1959 3584 
Q 2709 3584 3137 3096 
Q 3566 2609 3566 1747 
Q 3566 888 3137 398 
Q 2709 -91 1959 -91 
Q 1206 -91 779 398 
Q 353 888 353 1747 
Q 353 2609 779 3096 
Q 1206 3584 1959 3584 
z
" transform="scale(0.015625)"/>
      <path id="DejaVuSans-20" transform="scale(0.015625)"/>
      <path id="DejaVuSans-3d" d="M 678 2906 
L 4684 2906 
L 4684 2381 
L 678 2381 
L 678 2906 
z
M 678 1631 
L 4684 1631 
L 4684 1100 
L 678 1100 
L 678 1631 
z
" transform="scale(0.015625)"/>
     </defs>
     <use xlink:href="#DejaVuSans-52"/>
     <use xlink:href="#DejaVuSans-68" x="69.482422"/>
     <use xlink:href="#DejaVuSans-6f" x="132.861328"/>
     <use xlink:href="#DejaVuSans-20" x="194.042969"/>
     <use xlink:href="#DejaVuSans-3d" x="225.830078"/>
     <use xlink:href="#DejaVuSans-20" x="309.619141"/>
     <use xlink:href="#DejaVuSans-30" x="341.40625"/>
     <use xlink:href="#DejaVuSans-2e" x="405.029297"/>
     <use xlink:href="#DejaVuSans-34" x="436.816406"/>
    </g>
   </g>
   <g id="text_16">
    <!-- CNR_change = 1 -->
    <g transform="translate(113.008999 14.798437) scale(0.1 -0.1)">
     <defs>
      <path id="DejaVuSans-43" d="M 4122 4306 
L 4122 3641 
Q 3803 3938 3442 4084 
Q 3081 4231 2675 4231 
Q 1875 4231 1450 3742 
Q 1025 3253 1025 2328 
Q 1025 1406 1450 917 
Q 1875 428 2675 428 
Q 3081 428 3442 575 
Q 3803 722 4122 1019 
L 4122 359 
Q 3791 134 3420 21 
Q 3050 -91 2638 -91 
Q 1578 -91 968 557 
Q 359 1206 359 2328 
Q 359 3453 968 4101 
Q 1578 4750 2638 4750 
Q 3056 4750 3426 4639 
Q 3797 4528 4122 4306 
z
" transform="scale(0.015625)"/>
      <path id="DejaVuSans-4e" d="M 628 4666 
L 1478 4666 
L 3547 763 
L 3547 4666 
L 4159 4666 
L 4159 0 
L 3309 0 
L 1241 3903 
L 1241 0 
L 628 0 
L 628 4666 
z
" transform="scale(0.015625)"/>
      <path id="DejaVuSans-5f" d="M 3263 -1063 
L 3263 -1509 
L -63 -1509 
L -63 -1063 
L 3263 -1063 
z
" transform="scale(0.015625)"/>
      <path id="DejaVuSans-6e" d="M 3513 2113 
L 3513 0 
L 2938 0 
L 2938 2094 
Q 2938 2591 2744 2837 
Q 2550 3084 2163 3084 
Q 1697 3084 1428 2787 
Q 1159 2491 1159 1978 
L 1159 0 
L 581 0 
L 581 3500 
L 1159 3500 
L 1159 2956 
Q 1366 3272 1645 3428 
Q 1925 3584 2291 3584 
Q 2894 3584 3203 3211 
Q 3513 2838 3513 2113 
z
" transform="scale(0.015625)"/>
      <path id="DejaVuSans-67" d="M 2906 1791 
Q 2906 2416 2648 2759 
Q 2391 3103 1925 3103 
Q 1463 3103 1205 2759 
Q 947 2416 947 1791 
Q 947 1169 1205 825 
Q 1463 481 1925 481 
Q 2391 481 2648 825 
Q 2906 1169 2906 1791 
z
M 3481 434 
Q 3481 -459 3084 -895 
Q 2688 -1331 1869 -1331 
Q 1566 -1331 1297 -1286 
Q 1028 -1241 775 -1147 
L 775 -588 
Q 1028 -725 1275 -790 
Q 1522 -856 1778 -856 
Q 2344 -856 2625 -561 
Q 2906 -266 2906 331 
L 2906 616 
Q 2728 306 2450 153 
Q 2172 0 1784 0 
Q 1141 0 747 490 
Q 353 981 353 1791 
Q 353 2603 747 3093 
Q 1141 3584 1784 3584 
Q 2172 3584 2450 3431 
Q 2728 3278 2906 2969 
L 2906 3500 
L 3481 3500 
L 3481 434 
z
" transform="scale(0.015625)"/>
     </defs>
     <use xlink:href="#DejaVuSans-43"/>
     <use xlink:href="#DejaVuSans-4e" x="69.824219"/>
     <use xlink:href="#DejaVuSans-52" x="144.628906"/>
     <use xlink:href="#DejaVuSans-5f" x="214.111328"/>
     <use xlink:href="#DejaVuSans-63" x="264.111328"/>
     <use xlink:href="#DejaVuSans-68" x="319.091797"/>
     <use xlink:href="#DejaVuSans-61" x="382.470703"/>
     <use xlink:href="#DejaVuSans-6e" x="443.75"/>
     <use xlink:href="#DejaVuSans-67" x="507.128906"/>
     <use xlink:href="#DejaVuSans-65" x="570.605469"/>
     <use xlink:href="#DejaVuSans-20" x="632.128906"/>
     <use xlink:href="#DejaVuSans-3d" x="663.916016"/>
     <use xlink:href="#DejaVuSans-20" x="747.705078"/>
     <use xlink:href="#DejaVuSans-31" x="779.492188"/>
    </g>
   </g>
  </g>
  <g id="legend_1"/>
 </g>
 <defs>
  <clipPath id="pb9ec407f5e">
   <rect x="43.78125" y="20.798437" width="222.769561" height="221.32"/>
  </clipPath>
 </defs>
</svg>
