<?xml version="1.0" encoding="utf-8" standalone="no"?>
<!DOCTYPE svg PUBLIC "-//W3C//DTD SVG 1.1//EN"
  "http://www.w3.org/Graphics/SVG/1.1/DTD/svg11.dtd">
<svg xmlns:xlink="http://www.w3.org/1999/xlink" width="294.17125pt" height="279.674688pt" viewBox="0 0 294.17125 279.674688" xmlns="http://www.w3.org/2000/svg" version="1.1">
 <metadata>
  <rdf:RDF xmlns:dc="http://purl.org/dc/elements/1.1/" xmlns:cc="http://creativecommons.org/ns#" xmlns:rdf="http://www.w3.org/1999/02/22-rdf-syntax-ns#">
   <cc:Work>
    <dc:type rdf:resource="http://purl.org/dc/dcmitype/StillImage"/>
    <dc:date>2025-08-25T15:41:46.756012</dc:date>
    <dc:format>image/svg+xml</dc:format>
    <dc:creator>
     <cc:Agent>
      <dc:title>Matplotlib v3.8.4, https://matplotlib.org/</dc:title>
     </cc:Agent>
    </dc:creator>
   </cc:Work>
  </rdf:RDF>
 </metadata>
 <defs>
  <style type="text/css">*{stroke-linejoin: round; stroke-linecap: butt}</style>
 </defs>
 <g id="figure_1">
  <g id="patch_1">
   <path d="M 0 279.674688 
L 294.17125 279.674688 
L 294.17125 0 
L 0 0 
z
" style="fill: #ffffff"/>
  </g>
  <g id="axes_1">
   <g id="patch_2">
    <path d="M 43.78125 242.118437 
L 266.550811 242.118437 
L 266.550811 20.798437 
L 43.78125 20.798437 
z
" style="fill: #ffffff"/>
   </g>
   <g id="PolyCollection_1">
    <defs>
     <path id="m1d96dd651f" d="M 62.532405 -93.823435 
L 62.158355 -93.823435 
L 62.107006 -94.832858 
L 62.045573 -95.84228 
L 61.973234 -96.851703 
L 61.889396 -97.861125 
L 61.793767 -98.870548 
L 61.686412 -99.87997 
L 61.567798 -100.889393 
L 61.438808 -101.898815 
L 61.300735 -102.908238 
L 61.155235 -103.91766 
L 61.004255 -104.927083 
L 60.849927 -105.936505 
L 60.694445 -106.945928 
L 60.539923 -107.95535 
L 60.388251 -108.964773 
L 60.240961 -109.974195 
L 60.099108 -110.983618 
L 59.963187 -111.99304 
L 59.833079 -113.002463 
L 59.708042 -114.011886 
L 59.586747 -115.021308 
L 59.467342 -116.030731 
L 59.347564 -117.040153 
L 59.224854 -118.049576 
L 59.096497 -119.058998 
L 58.959747 -120.068421 
L 58.811945 -121.077843 
L 58.650601 -122.087266 
L 58.473443 -123.096688 
L 58.278431 -124.106111 
L 58.063735 -125.115533 
L 57.827676 -126.124956 
L 57.568667 -127.134378 
L 57.285151 -128.143801 
L 56.975554 -129.153223 
L 56.638293 -130.162646 
L 56.271827 -131.172068 
L 55.87477 -132.181491 
L 55.446074 -133.190913 
L 54.985252 -134.200336 
L 54.492641 -135.209759 
L 53.969668 -136.219181 
L 53.419099 -137.228604 
L 52.845227 -138.238026 
L 52.25399 -139.247449 
L 51.652979 -140.256871 
L 51.051347 -141.266294 
L 50.4596 -142.275716 
L 49.889291 -143.285139 
L 49.352634 -144.294561 
L 48.862066 -145.303984 
L 48.429782 -146.313406 
L 48.067274 -147.322829 
L 47.784901 -148.332251 
L 47.591502 -149.341674 
L 47.494076 -150.351096 
L 47.497523 -151.360519 
L 47.604455 -152.369941 
L 47.815077 -153.379364 
L 48.127132 -154.388787 
L 48.535908 -155.398209 
L 49.034325 -156.407632 
L 49.613086 -157.417054 
L 50.260909 -158.426477 
L 50.964848 -159.435899 
L 51.710685 -160.445322 
L 52.483414 -161.454744 
L 53.267768 -162.464167 
L 54.0488 -163.473589 
L 54.81246 -164.483012 
L 55.54614 -165.492434 
L 56.239153 -166.501857 
L 56.88311 -167.511279 
L 57.472151 -168.520702 
L 58.003037 -169.530124 
L 58.47507 -170.539547 
L 58.889877 -171.548969 
L 59.251051 -172.558392 
L 59.563711 -173.567814 
L 59.833992 -174.577237 
L 60.068536 -175.58666 
L 60.273998 -176.596082 
L 60.456626 -177.605505 
L 60.621928 -178.614927 
L 60.774446 -179.62435 
L 60.91764 -180.633772 
L 61.053884 -181.643195 
L 61.184547 -182.652617 
L 61.310141 -183.66204 
L 61.430516 -184.671462 
L 61.545075 -185.680885 
L 61.652983 -186.690307 
L 61.753346 -187.69973 
L 61.845369 -188.709152 
L 61.928458 -189.718575 
L 62.002286 -190.727997 
L 62.066812 -191.73742 
L 62.122274 -192.746842 
L 62.169153 -193.756265 
L 62.521607 -193.756265 
L 62.521607 -193.756265 
L 62.568486 -192.746842 
L 62.623948 -191.73742 
L 62.688474 -190.727997 
L 62.762302 -189.718575 
L 62.845391 -188.709152 
L 62.937414 -187.69973 
L 63.037777 -186.690307 
L 63.145685 -185.680885 
L 63.260244 -184.671462 
L 63.380619 -183.66204 
L 63.506213 -182.652617 
L 63.636876 -181.643195 
L 63.77312 -180.633772 
L 63.916315 -179.62435 
L 64.068832 -178.614927 
L 64.234134 -177.605505 
L 64.416763 -176.596082 
L 64.622225 -175.58666 
L 64.856768 -174.577237 
L 65.12705 -173.567814 
L 65.439709 -172.558392 
L 65.800883 -171.548969 
L 66.21569 -170.539547 
L 66.687723 -169.530124 
L 67.218609 -168.520702 
L 67.80765 -167.511279 
L 68.451607 -166.501857 
L 69.144621 -165.492434 
L 69.8783 -164.483012 
L 70.64196 -163.473589 
L 71.422993 -162.464167 
L 72.207347 -161.454744 
L 72.980075 -160.445322 
L 73.725912 -159.435899 
L 74.429851 -158.426477 
L 75.077674 -157.417054 
L 75.656435 -156.407632 
L 76.154853 -155.398209 
L 76.563629 -154.388787 
L 76.875683 -153.379364 
L 77.086305 -152.369941 
L 77.193237 -151.360519 
L 77.196684 -150.351096 
L 77.099258 -149.341674 
L 76.905859 -148.332251 
L 76.623486 -147.322829 
L 76.260978 -146.313406 
L 75.828694 -145.303984 
L 75.338126 -144.294561 
L 74.80147 -143.285139 
L 74.23116 -142.275716 
L 73.639413 -141.266294 
L 73.037781 -140.256871 
L 72.43677 -139.247449 
L 71.845533 -138.238026 
L 71.271661 -137.228604 
L 70.721092 -136.219181 
L 70.19812 -135.209759 
L 69.705508 -134.200336 
L 69.244686 -133.190913 
L 68.81599 -132.181491 
L 68.418933 -131.172068 
L 68.052467 -130.162646 
L 67.715206 -129.153223 
L 67.405609 -128.143801 
L 67.122093 -127.134378 
L 66.863085 -126.124956 
L 66.627026 -125.115533 
L 66.412329 -124.106111 
L 66.217318 -123.096688 
L 66.040159 -122.087266 
L 65.878815 -121.077843 
L 65.731013 -120.068421 
L 65.594263 -119.058998 
L 65.465906 -118.049576 
L 65.343196 -117.040153 
L 65.223418 -116.030731 
L 65.104014 -115.021308 
L 64.982718 -114.011886 
L 64.857681 -113.002463 
L 64.727573 -111.99304 
L 64.591652 -110.983618 
L 64.4498 -109.974195 
L 64.302509 -108.964773 
L 64.150838 -107.95535 
L 63.996315 -106.945928 
L 63.840833 -105.936505 
L 63.686505 -104.927083 
L 63.535525 -103.91766 
L 63.390025 -102.908238 
L 63.251952 -101.898815 
L 63.122963 -100.889393 
L 63.004348 -99.87997 
L 62.896993 -98.870548 
L 62.801364 -97.861125 
L 62.717527 -96.851703 
L 62.645188 -95.84228 
L 62.583755 -94.832858 
L 62.532405 -93.823435 
z
" style="stroke: #595959; stroke-width: 1.25"/>
    </defs>
    <g clip-path="url(#p3a7fa5b4ed)">
     <use xlink:href="#m1d96dd651f" x="0" y="279.674688" style="fill: #72b6a1; stroke: #595959; stroke-width: 1.25"/>
    </g>
   </g>
   <g id="PolyCollection_2">
    <defs>
     <path id="m04786e8f39" d="M 99.850085 -108.855469 
L 99.097195 -108.855469 
L 99.006954 -109.494148 
L 98.900193 -110.132826 
L 98.775186 -110.771504 
L 98.63032 -111.410183 
L 98.464169 -112.048861 
L 98.275575 -112.68754 
L 98.063716 -113.326218 
L 97.828186 -113.964896 
L 97.569054 -114.603575 
L 97.286907 -115.242253 
L 96.982882 -115.880932 
L 96.65867 -116.51961 
L 96.316486 -117.158288 
L 95.959024 -117.796967 
L 95.589373 -118.435645 
L 95.210911 -119.074324 
L 94.827175 -119.713002 
L 94.441711 -120.35168 
L 94.057923 -120.990359 
L 93.678908 -121.629037 
L 93.307314 -122.267716 
L 92.945208 -122.906394 
L 92.593973 -123.545072 
L 92.254246 -124.183751 
L 91.9259 -124.822429 
L 91.608069 -125.461108 
L 91.299224 -126.099786 
L 90.997302 -126.738464 
L 90.699868 -127.377143 
L 90.404313 -128.015821 
L 90.108071 -128.6545 
L 89.808843 -129.293178 
L 89.504807 -129.931856 
L 89.194806 -130.570535 
L 88.87849 -131.209213 
L 88.556405 -131.847892 
L 88.230019 -132.48657 
L 87.901681 -133.125248 
L 87.57451 -133.763927 
L 87.252221 -134.402605 
L 86.938907 -135.041284 
L 86.638779 -135.679962 
L 86.355894 -136.31864 
L 86.093888 -136.957319 
L 85.855735 -137.595997 
L 85.643545 -138.234676 
L 85.458436 -138.873354 
L 85.300466 -139.512032 
L 85.168646 -140.150711 
L 85.061038 -140.789389 
L 84.974913 -141.428068 
L 84.906972 -142.066746 
L 84.853613 -142.705424 
L 84.811212 -143.344103 
L 84.776413 -143.982781 
L 84.746394 -144.62146 
L 84.7191 -145.260138 
L 84.693423 -145.898816 
L 84.669312 -146.537495 
L 84.64783 -147.176173 
L 84.631122 -147.814852 
L 84.622336 -148.45353 
L 84.62547 -149.092208 
L 84.645186 -149.730887 
L 84.686575 -150.369565 
L 84.75492 -151.008244 
L 84.855432 -151.646922 
L 84.993008 -152.2856 
L 85.171993 -152.924279 
L 85.39598 -153.562957 
L 85.667637 -154.201636 
L 85.98857 -154.840314 
L 86.359233 -155.478992 
L 86.778882 -156.117671 
L 87.245565 -156.756349 
L 87.756167 -157.395028 
L 88.306481 -158.033706 
L 88.891327 -158.672384 
L 89.504698 -159.311063 
L 90.139935 -159.949741 
L 90.78992 -160.58842 
L 91.447287 -161.227098 
L 92.104632 -161.865776 
L 92.754724 -162.504455 
L 93.390708 -163.143133 
L 94.006278 -163.781812 
L 94.595835 -164.42049 
L 95.154608 -165.059168 
L 95.678738 -165.697847 
L 96.165327 -166.336525 
L 96.612446 -166.975204 
L 97.01911 -167.613882 
L 97.385216 -168.25256 
L 97.711464 -168.891239 
L 97.999241 -169.529917 
L 98.25051 -170.168596 
L 98.467678 -170.807274 
L 98.653469 -171.445952 
L 98.810805 -172.084631 
L 100.136475 -172.084631 
L 100.136475 -172.084631 
L 100.293811 -171.445952 
L 100.479603 -170.807274 
L 100.696771 -170.168596 
L 100.94804 -169.529917 
L 101.235817 -168.891239 
L 101.562064 -168.25256 
L 101.928171 -167.613882 
L 102.334834 -166.975204 
L 102.781953 -166.336525 
L 103.268542 -165.697847 
L 103.792673 -165.059168 
L 104.351446 -164.42049 
L 104.941003 -163.781812 
L 105.556573 -163.143133 
L 106.192556 -162.504455 
L 106.842649 -161.865776 
L 107.499994 -161.227098 
L 108.15736 -160.58842 
L 108.807346 -159.949741 
L 109.442583 -159.311063 
L 110.055954 -158.672384 
L 110.6408 -158.033706 
L 111.191113 -157.395028 
L 111.701715 -156.756349 
L 112.168399 -156.117671 
L 112.588047 -155.478992 
L 112.95871 -154.840314 
L 113.279643 -154.201636 
L 113.5513 -153.562957 
L 113.775288 -152.924279 
L 113.954273 -152.2856 
L 114.091848 -151.646922 
L 114.19236 -151.008244 
L 114.260705 -150.369565 
L 114.302095 -149.730887 
L 114.32181 -149.092208 
L 114.324944 -148.45353 
L 114.316158 -147.814852 
L 114.299451 -147.176173 
L 114.277968 -146.537495 
L 114.253858 -145.898816 
L 114.22818 -145.260138 
L 114.200887 -144.62146 
L 114.170868 -143.982781 
L 114.136068 -143.344103 
L 114.093667 -142.705424 
L 114.040308 -142.066746 
L 113.972368 -141.428068 
L 113.886242 -140.789389 
L 113.778634 -140.150711 
L 113.646815 -139.512032 
L 113.488844 -138.873354 
L 113.303735 -138.234676 
L 113.091546 -137.595997 
L 112.853392 -136.957319 
L 112.591387 -136.31864 
L 112.308502 -135.679962 
L 112.008374 -135.041284 
L 111.69506 -134.402605 
L 111.372771 -133.763927 
L 111.045599 -133.125248 
L 110.717262 -132.48657 
L 110.390876 -131.847892 
L 110.068791 -131.209213 
L 109.752474 -130.570535 
L 109.442473 -129.931856 
L 109.138438 -129.293178 
L 108.839209 -128.6545 
L 108.542967 -128.015821 
L 108.247412 -127.377143 
L 107.949978 -126.738464 
L 107.648056 -126.099786 
L 107.339212 -125.461108 
L 107.02138 -124.822429 
L 106.693034 -124.183751 
L 106.353308 -123.545072 
L 106.002073 -122.906394 
L 105.639966 -122.267716 
L 105.268373 -121.629037 
L 104.889358 -120.990359 
L 104.505569 -120.35168 
L 104.120106 -119.713002 
L 103.736369 -119.074324 
L 103.357908 -118.435645 
L 102.988257 -117.796967 
L 102.630795 -117.158288 
L 102.288611 -116.51961 
L 101.964398 -115.880932 
L 101.660374 -115.242253 
L 101.378227 -114.603575 
L 101.119094 -113.964896 
L 100.883565 -113.326218 
L 100.671706 -112.68754 
L 100.483111 -112.048861 
L 100.316961 -111.410183 
L 100.172094 -110.771504 
L 100.047087 -110.132826 
L 99.940326 -109.494148 
L 99.850085 -108.855469 
z
" style="stroke: #595959; stroke-width: 1.25"/>
    </defs>
    <g clip-path="url(#p3a7fa5b4ed)">
     <use xlink:href="#m04786e8f39" x="0" y="279.674688" style="fill: #e99675; stroke: #595959; stroke-width: 1.25"/>
    </g>
   </g>
   <g id="PolyCollection_3">
    <defs>
     <path id="m39f81bd14f" d="M 137.010328 -110.8026 
L 136.193473 -110.8026 
L 136.082455 -111.71492 
L 135.947308 -112.62724 
L 135.784503 -113.53956 
L 135.590435 -114.451881 
L 135.361532 -115.364201 
L 135.094394 -116.276521 
L 134.785948 -117.188841 
L 134.433618 -118.101161 
L 134.035501 -119.013482 
L 133.590539 -119.925802 
L 133.098687 -120.838122 
L 132.561046 -121.750442 
L 131.97997 -122.662762 
L 131.359127 -123.575083 
L 130.703501 -124.487403 
L 130.01934 -125.399723 
L 129.314039 -126.312043 
L 128.595963 -127.224363 
L 127.874213 -128.136684 
L 127.158346 -129.049004 
L 126.458063 -129.961324 
L 125.782885 -130.873644 
L 125.141818 -131.785964 
L 124.543054 -132.698285 
L 123.993704 -133.610605 
L 123.499576 -134.522925 
L 123.065032 -135.435245 
L 122.692908 -136.347566 
L 122.38451 -137.259886 
L 122.139683 -138.172206 
L 121.956944 -139.084526 
L 121.833664 -139.996846 
L 121.766292 -140.909167 
L 121.750596 -141.821487 
L 121.781921 -142.733807 
L 121.855419 -143.646127 
L 121.966276 -144.558447 
L 122.10989 -145.470768 
L 122.282022 -146.383088 
L 122.478888 -147.295408 
L 122.697225 -148.207728 
L 122.9343 -149.120048 
L 123.187893 -150.032369 
L 123.456247 -150.944689 
L 123.738 -151.857009 
L 124.032102 -152.769329 
L 124.337727 -153.681649 
L 124.654186 -154.59397 
L 124.980845 -155.50629 
L 125.317051 -156.41861 
L 125.662074 -157.33093 
L 126.015049 -158.243251 
L 126.374943 -159.155571 
L 126.740516 -160.067891 
L 127.110308 -160.980211 
L 127.482621 -161.892531 
L 127.855523 -162.804852 
L 128.22686 -163.717172 
L 128.594281 -164.629492 
L 128.955281 -165.541812 
L 129.307265 -166.454132 
L 129.647632 -167.366453 
L 129.973868 -168.278773 
L 130.283667 -169.191093 
L 130.575049 -170.103413 
L 130.846488 -171.015733 
L 131.097021 -171.928054 
L 131.32635 -172.840374 
L 131.534899 -173.752694 
L 131.723845 -174.665014 
L 131.895094 -175.577334 
L 132.051216 -176.489655 
L 132.19533 -177.401975 
L 132.330941 -178.314295 
L 132.461762 -179.226615 
L 132.591497 -180.138936 
L 132.723635 -181.051256 
L 132.861251 -181.963576 
L 133.006831 -182.875896 
L 133.162143 -183.788216 
L 133.328146 -184.700537 
L 133.504968 -185.612857 
L 133.691924 -186.525177 
L 133.887592 -187.437497 
L 134.089933 -188.349817 
L 134.296435 -189.262138 
L 134.504287 -190.174458 
L 134.710548 -191.086778 
L 134.912318 -191.999098 
L 135.106888 -192.911418 
L 135.291864 -193.823739 
L 135.465257 -194.736059 
L 135.625547 -195.648379 
L 135.7717 -196.560699 
L 135.90317 -197.473019 
L 136.019861 -198.38534 
L 136.122075 -199.29766 
L 136.21045 -200.20998 
L 136.285881 -201.1223 
L 136.91792 -201.1223 
L 136.91792 -201.1223 
L 136.993351 -200.20998 
L 137.081726 -199.29766 
L 137.18394 -198.38534 
L 137.300631 -197.473019 
L 137.432101 -196.560699 
L 137.578254 -195.648379 
L 137.738544 -194.736059 
L 137.911937 -193.823739 
L 138.096913 -192.911418 
L 138.291483 -191.999098 
L 138.493253 -191.086778 
L 138.699514 -190.174458 
L 138.907365 -189.262138 
L 139.113868 -188.349817 
L 139.316208 -187.437497 
L 139.511877 -186.525177 
L 139.698833 -185.612857 
L 139.875655 -184.700537 
L 140.041658 -183.788216 
L 140.19697 -182.875896 
L 140.34255 -181.963576 
L 140.480166 -181.051256 
L 140.612304 -180.138936 
L 140.742039 -179.226615 
L 140.872859 -178.314295 
L 141.008471 -177.401975 
L 141.152585 -176.489655 
L 141.308707 -175.577334 
L 141.479956 -174.665014 
L 141.668902 -173.752694 
L 141.877451 -172.840374 
L 142.10678 -171.928054 
L 142.357313 -171.015733 
L 142.628752 -170.103413 
L 142.920134 -169.191093 
L 143.229933 -168.278773 
L 143.556169 -167.366453 
L 143.896535 -166.454132 
L 144.24852 -165.541812 
L 144.60952 -164.629492 
L 144.976941 -163.717172 
L 145.348278 -162.804852 
L 145.72118 -161.892531 
L 146.093493 -160.980211 
L 146.463285 -160.067891 
L 146.828858 -159.155571 
L 147.188752 -158.243251 
L 147.541727 -157.33093 
L 147.88675 -156.41861 
L 148.222956 -155.50629 
L 148.549615 -154.59397 
L 148.866074 -153.681649 
L 149.171699 -152.769329 
L 149.465801 -151.857009 
L 149.747554 -150.944689 
L 150.015908 -150.032369 
L 150.269501 -149.120048 
L 150.506575 -148.207728 
L 150.724912 -147.295408 
L 150.921779 -146.383088 
L 151.09391 -145.470768 
L 151.237525 -144.558447 
L 151.348382 -143.646127 
L 151.42188 -142.733807 
L 151.453205 -141.821487 
L 151.437509 -140.909167 
L 151.370137 -139.996846 
L 151.246857 -139.084526 
L 151.064118 -138.172206 
L 150.819291 -137.259886 
L 150.510893 -136.347566 
L 150.138769 -135.435245 
L 149.704225 -134.522925 
L 149.210097 -133.610605 
L 148.660746 -132.698285 
L 148.061983 -131.785964 
L 147.420916 -130.873644 
L 146.745737 -129.961324 
L 146.045455 -129.049004 
L 145.329588 -128.136684 
L 144.607838 -127.224363 
L 143.889762 -126.312043 
L 143.184461 -125.399723 
L 142.5003 -124.487403 
L 141.844674 -123.575083 
L 141.223831 -122.662762 
L 140.642755 -121.750442 
L 140.105114 -120.838122 
L 139.613262 -119.925802 
L 139.1683 -119.013482 
L 138.770183 -118.101161 
L 138.417853 -117.188841 
L 138.109407 -116.276521 
L 137.842269 -115.364201 
L 137.613366 -114.451881 
L 137.419298 -113.53956 
L 137.256493 -112.62724 
L 137.121346 -111.71492 
L 137.010328 -110.8026 
z
" style="stroke: #595959; stroke-width: 1.25"/>
    </defs>
    <g clip-path="url(#p3a7fa5b4ed)">
     <use xlink:href="#m39f81bd14f" x="0" y="279.674688" style="fill: #95a3c3; stroke: #595959; stroke-width: 1.25"/>
    </g>
   </g>
   <g id="PolyCollection_4">
    <defs>
     <path id="m36f73ac6bc" d="M 174.203027 -106.921309 
L 173.257295 -106.921309 
L 173.152493 -107.666128 
L 173.031233 -108.410947 
L 172.892544 -109.155766 
L 172.735734 -109.900585 
L 172.560451 -110.645404 
L 172.366722 -111.390223 
L 172.154969 -112.135042 
L 171.926013 -112.879861 
L 171.681031 -113.62468 
L 171.4215 -114.369499 
L 171.149101 -115.114318 
L 170.865607 -115.859137 
L 170.572746 -116.603956 
L 170.272062 -117.348775 
L 169.964784 -118.093594 
L 169.651704 -118.838413 
L 169.3331 -119.583232 
L 169.008691 -120.328051 
L 168.677653 -121.07287 
L 168.338687 -121.817689 
L 167.990152 -122.562508 
L 167.630245 -123.307327 
L 167.257217 -124.052146 
L 166.869624 -124.796965 
L 166.466572 -125.541784 
L 166.047942 -126.286603 
L 165.614581 -127.031422 
L 165.168421 -127.776241 
L 164.712526 -128.52106 
L 164.251044 -129.265879 
L 163.789078 -130.010698 
L 163.332459 -130.755517 
L 162.887461 -131.500336 
L 162.460456 -132.245155 
L 162.057549 -132.989974 
L 161.684216 -133.734793 
L 161.344974 -134.479612 
L 161.043111 -135.224431 
L 160.780495 -135.96925 
L 160.557477 -136.714069 
L 160.372895 -137.458888 
L 160.224179 -138.203707 
L 160.107538 -138.948526 
L 160.018222 -139.693345 
L 159.950832 -140.438164 
L 159.899654 -141.182983 
L 159.858992 -141.927802 
L 159.823476 -142.672621 
L 159.788332 -143.41744 
L 159.749594 -144.16226 
L 159.704256 -144.907079 
L 159.650354 -145.651898 
L 159.587004 -146.396717 
L 159.51437 -147.141536 
L 159.433607 -147.886355 
L 159.346771 -148.631174 
L 159.256707 -149.375993 
L 159.166939 -150.120812 
L 159.081554 -150.865631 
L 159.005083 -151.61045 
L 158.942395 -152.355269 
L 158.898584 -153.100088 
L 158.878857 -153.844907 
L 158.888412 -154.589726 
L 158.932315 -155.334545 
L 159.015353 -156.079364 
L 159.141891 -156.824183 
L 159.315709 -157.569002 
L 159.539848 -158.313821 
L 159.816458 -159.05864 
L 160.146661 -159.803459 
L 160.530447 -160.548278 
L 160.966595 -161.293097 
L 161.452643 -162.037916 
L 161.984908 -162.782735 
L 162.558553 -163.527554 
L 163.167699 -164.272373 
L 163.805597 -165.017192 
L 164.464819 -165.762011 
L 165.137498 -166.50683 
L 165.815564 -167.251649 
L 166.491003 -167.996468 
L 167.156093 -168.741287 
L 167.803634 -169.486106 
L 168.427136 -170.230925 
L 169.020977 -170.975744 
L 169.580514 -171.720563 
L 170.102154 -172.465382 
L 170.583372 -173.210201 
L 171.022693 -173.95502 
L 171.419632 -174.699839 
L 171.774605 -175.444658 
L 172.088813 -176.189477 
L 172.364117 -176.934296 
L 172.602895 -177.679115 
L 172.807904 -178.423934 
L 172.982148 -179.168753 
L 173.128758 -179.913572 
L 173.250877 -180.658391 
L 174.209444 -180.658391 
L 174.209444 -180.658391 
L 174.331563 -179.913572 
L 174.478173 -179.168753 
L 174.652418 -178.423934 
L 174.857426 -177.679115 
L 175.096204 -176.934296 
L 175.371508 -176.189477 
L 175.685717 -175.444658 
L 176.040689 -174.699839 
L 176.437628 -173.95502 
L 176.876949 -173.210201 
L 177.358167 -172.465382 
L 177.879807 -171.720563 
L 178.439344 -170.975744 
L 179.033185 -170.230925 
L 179.656687 -169.486106 
L 180.304228 -168.741287 
L 180.969319 -167.996468 
L 181.644757 -167.251649 
L 182.322823 -166.50683 
L 182.995502 -165.762011 
L 183.654725 -165.017192 
L 184.292622 -164.272373 
L 184.901769 -163.527554 
L 185.475413 -162.782735 
L 186.007678 -162.037916 
L 186.493727 -161.293097 
L 186.929874 -160.548278 
L 187.31366 -159.803459 
L 187.643864 -159.05864 
L 187.920473 -158.313821 
L 188.144612 -157.569002 
L 188.31843 -156.824183 
L 188.444968 -156.079364 
L 188.528007 -155.334545 
L 188.571909 -154.589726 
L 188.581465 -153.844907 
L 188.561737 -153.100088 
L 188.517926 -152.355269 
L 188.455238 -151.61045 
L 188.378767 -150.865631 
L 188.293382 -150.120812 
L 188.203615 -149.375993 
L 188.113551 -148.631174 
L 188.026714 -147.886355 
L 187.945951 -147.141536 
L 187.873317 -146.396717 
L 187.809967 -145.651898 
L 187.756066 -144.907079 
L 187.710727 -144.16226 
L 187.671989 -143.41744 
L 187.636845 -142.672621 
L 187.601329 -141.927802 
L 187.560667 -141.182983 
L 187.509489 -140.438164 
L 187.4421 -139.693345 
L 187.352783 -138.948526 
L 187.236142 -138.203707 
L 187.087426 -137.458888 
L 186.902844 -136.714069 
L 186.679826 -135.96925 
L 186.41721 -135.224431 
L 186.115347 -134.479612 
L 185.776106 -133.734793 
L 185.402773 -132.989974 
L 184.999866 -132.245155 
L 184.57286 -131.500336 
L 184.127862 -130.755517 
L 183.671243 -130.010698 
L 183.209277 -129.265879 
L 182.747796 -128.52106 
L 182.2919 -127.776241 
L 181.84574 -127.031422 
L 181.412379 -126.286603 
L 180.99375 -125.541784 
L 180.590697 -124.796965 
L 180.203105 -124.052146 
L 179.830077 -123.307327 
L 179.470169 -122.562508 
L 179.121635 -121.817689 
L 178.782669 -121.07287 
L 178.45163 -120.328051 
L 178.127221 -119.583232 
L 177.808617 -118.838413 
L 177.495538 -118.093594 
L 177.188259 -117.348775 
L 176.887575 -116.603956 
L 176.594714 -115.859137 
L 176.31122 -115.114318 
L 176.038821 -114.369499 
L 175.77929 -113.62468 
L 175.534308 -112.879861 
L 175.305352 -112.135042 
L 175.0936 -111.390223 
L 174.89987 -110.645404 
L 174.724587 -109.900585 
L 174.567778 -109.155766 
L 174.429088 -108.410947 
L 174.307829 -107.666128 
L 174.203027 -106.921309 
z
" style="stroke: #595959; stroke-width: 1.25"/>
    </defs>
    <g clip-path="url(#p3a7fa5b4ed)">
     <use xlink:href="#m36f73ac6bc" x="0" y="279.674688" style="fill: #db96c0; stroke: #595959; stroke-width: 1.25"/>
    </g>
   </g>
   <g id="PolyCollection_5">
    <defs>
     <path id="m624d54365f" d="M 211.075807 -143.499041 
L 210.641035 -143.499041 
L 210.587742 -144.130872 
L 210.525334 -144.762702 
L 210.453287 -145.394533 
L 210.371295 -146.026363 
L 210.279303 -146.658194 
L 210.177538 -147.290024 
L 210.06651 -147.921854 
L 209.946997 -148.553685 
L 209.819995 -149.185515 
L 209.686638 -149.817346 
L 209.548097 -150.449176 
L 209.405448 -151.081007 
L 209.259527 -151.712837 
L 209.110788 -152.344668 
L 208.959158 -152.976498 
L 208.803924 -153.608329 
L 208.643653 -154.240159 
L 208.476163 -154.87199 
L 208.298547 -155.50382 
L 208.107272 -156.135651 
L 207.898327 -156.767481 
L 207.667445 -157.399312 
L 207.41036 -158.031142 
L 207.123107 -158.662973 
L 206.802331 -159.294803 
L 206.445583 -159.926634 
L 206.051591 -160.558464 
L 205.620466 -161.190295 
L 205.153845 -161.822125 
L 204.654923 -162.453956 
L 204.128405 -163.085786 
L 203.580331 -163.717617 
L 203.017823 -164.349447 
L 202.44873 -164.981278 
L 201.881227 -165.613108 
L 201.323363 -166.244938 
L 200.782632 -166.876769 
L 200.265565 -167.508599 
L 199.777405 -168.14043 
L 199.321884 -168.77226 
L 198.901128 -169.404091 
L 198.515696 -170.035921 
L 198.164757 -170.667752 
L 197.84639 -171.299582 
L 197.557969 -171.931413 
L 197.296611 -172.563243 
L 197.059618 -173.195074 
L 196.844896 -173.826904 
L 196.651276 -174.458735 
L 196.478729 -175.090565 
L 196.328429 -175.722396 
L 196.202674 -176.354226 
L 196.104668 -176.986057 
L 196.038176 -177.617887 
L 196.007117 -178.249718 
L 196.015109 -178.881548 
L 196.065044 -179.513379 
L 196.158713 -180.145209 
L 196.296553 -180.77704 
L 196.47751 -181.40887 
L 196.699057 -182.040701 
L 196.957356 -182.672531 
L 197.247545 -183.304362 
L 197.564116 -183.936192 
L 197.901357 -184.568022 
L 198.253791 -185.199853 
L 198.616595 -185.831683 
L 198.985926 -186.463514 
L 199.359152 -187.095344 
L 199.734951 -187.727175 
L 200.113277 -188.359005 
L 200.495204 -188.990836 
L 200.882659 -189.622666 
L 201.278082 -190.254497 
L 201.684046 -190.886327 
L 202.102872 -191.518158 
L 202.53628 -192.149988 
L 202.985097 -192.781819 
L 203.449068 -193.413649 
L 203.92675 -194.04548 
L 204.415525 -194.67731 
L 204.911709 -195.309141 
L 205.410739 -195.940971 
L 205.907435 -196.572802 
L 206.396283 -197.204632 
L 206.87175 -197.836463 
L 207.32857 -198.468293 
L 207.762005 -199.100124 
L 208.16805 -199.731954 
L 208.543585 -200.363785 
L 208.886451 -200.995615 
L 209.195474 -201.627446 
L 209.470421 -202.259276 
L 209.711919 -202.891106 
L 209.921328 -203.522937 
L 210.100602 -204.154767 
L 210.25213 -204.786598 
L 210.378587 -205.418428 
L 210.482792 -206.050259 
L 211.23405 -206.050259 
L 211.23405 -206.050259 
L 211.338255 -205.418428 
L 211.464712 -204.786598 
L 211.61624 -204.154767 
L 211.795513 -203.522937 
L 212.004923 -202.891106 
L 212.24642 -202.259276 
L 212.521368 -201.627446 
L 212.83039 -200.995615 
L 213.173257 -200.363785 
L 213.548791 -199.731954 
L 213.954837 -199.100124 
L 214.388272 -198.468293 
L 214.845092 -197.836463 
L 215.320559 -197.204632 
L 215.809407 -196.572802 
L 216.306102 -195.940971 
L 216.805133 -195.309141 
L 217.301317 -194.67731 
L 217.790092 -194.04548 
L 218.267774 -193.413649 
L 218.731744 -192.781819 
L 219.180562 -192.149988 
L 219.613969 -191.518158 
L 220.032796 -190.886327 
L 220.43876 -190.254497 
L 220.834183 -189.622666 
L 221.221637 -188.990836 
L 221.603564 -188.359005 
L 221.981891 -187.727175 
L 222.35769 -187.095344 
L 222.730915 -186.463514 
L 223.100246 -185.831683 
L 223.46305 -185.199853 
L 223.815485 -184.568022 
L 224.152726 -183.936192 
L 224.469297 -183.304362 
L 224.759486 -182.672531 
L 225.017785 -182.040701 
L 225.239332 -181.40887 
L 225.420288 -180.77704 
L 225.558128 -180.145209 
L 225.651798 -179.513379 
L 225.701732 -178.881548 
L 225.709725 -178.249718 
L 225.678666 -177.617887 
L 225.612174 -176.986057 
L 225.514167 -176.354226 
L 225.388413 -175.722396 
L 225.238113 -175.090565 
L 225.065566 -174.458735 
L 224.871946 -173.826904 
L 224.657224 -173.195074 
L 224.420231 -172.563243 
L 224.158872 -171.931413 
L 223.870452 -171.299582 
L 223.552085 -170.667752 
L 223.201146 -170.035921 
L 222.815714 -169.404091 
L 222.394958 -168.77226 
L 221.939437 -168.14043 
L 221.451277 -167.508599 
L 220.93421 -166.876769 
L 220.393479 -166.244938 
L 219.835615 -165.613108 
L 219.268111 -164.981278 
L 218.699019 -164.349447 
L 218.136511 -163.717617 
L 217.588437 -163.085786 
L 217.061918 -162.453956 
L 216.562997 -161.822125 
L 216.096375 -161.190295 
L 215.665251 -160.558464 
L 215.271259 -159.926634 
L 214.914511 -159.294803 
L 214.593734 -158.662973 
L 214.306482 -158.031142 
L 214.049397 -157.399312 
L 213.818514 -156.767481 
L 213.60957 -156.135651 
L 213.418294 -155.50382 
L 213.240679 -154.87199 
L 213.073188 -154.240159 
L 212.912918 -153.608329 
L 212.757684 -152.976498 
L 212.606054 -152.344668 
L 212.457315 -151.712837 
L 212.311394 -151.081007 
L 212.168744 -150.449176 
L 212.030203 -149.817346 
L 211.896847 -149.185515 
L 211.769844 -148.553685 
L 211.650332 -147.921854 
L 211.539304 -147.290024 
L 211.437538 -146.658194 
L 211.345546 -146.026363 
L 211.263554 -145.394533 
L 211.191508 -144.762702 
L 211.129099 -144.130872 
L 211.075807 -143.499041 
z
" style="stroke: #595959; stroke-width: 1.25"/>
    </defs>
    <g clip-path="url(#p3a7fa5b4ed)">
     <use xlink:href="#m624d54365f" x="0" y="279.674688" style="fill: #a2c865; stroke: #595959; stroke-width: 1.25"/>
    </g>
   </g>
   <g id="PolyCollection_6">
    <defs>
     <path id="m6ff60e5609" d="M 248.369293 -159.6572 
L 247.604069 -159.6572 
L 247.51683 -160.454425 
L 247.416081 -161.251651 
L 247.301388 -162.048876 
L 247.172738 -162.846101 
L 247.030619 -163.643326 
L 246.876086 -164.440552 
L 246.710813 -165.237777 
L 246.537106 -166.035002 
L 246.357883 -166.832227 
L 246.176618 -167.629453 
L 245.997232 -168.426678 
L 245.823955 -169.223903 
L 245.661142 -170.021128 
L 245.513064 -170.818354 
L 245.38368 -171.615579 
L 245.276403 -172.412804 
L 245.193876 -173.210029 
L 245.137768 -174.007255 
L 245.108605 -174.80448 
L 245.105653 -175.601705 
L 245.12685 -176.39893 
L 245.168799 -177.196156 
L 245.226817 -177.993381 
L 245.29505 -178.790606 
L 245.366635 -179.587831 
L 245.433901 -180.385057 
L 245.488619 -181.182282 
L 245.522266 -181.979507 
L 245.526317 -182.776732 
L 245.492534 -183.573958 
L 245.413265 -184.371183 
L 245.281731 -185.168408 
L 245.092301 -185.965633 
L 244.840736 -186.762859 
L 244.524414 -187.560084 
L 244.1425 -188.357309 
L 243.696072 -189.154534 
L 243.188184 -189.95176 
L 242.623854 -190.748985 
L 242.009974 -191.54621 
L 241.355134 -192.343435 
L 240.669361 -193.140661 
L 239.963784 -193.937886 
L 239.250223 -194.735111 
L 238.540742 -195.532336 
L 237.847166 -196.329562 
L 237.18061 -197.126787 
L 236.551039 -197.924012 
L 235.966889 -198.721237 
L 235.434788 -199.518463 
L 234.959374 -200.315688 
L 234.543243 -201.112913 
L 234.187024 -201.910138 
L 233.889565 -202.707364 
L 233.648225 -203.504589 
L 233.45924 -204.301814 
L 233.318135 -205.099039 
L 233.220146 -205.896265 
L 233.160623 -206.69349 
L 233.135377 -207.490715 
L 233.14096 -208.28794 
L 233.174844 -209.085166 
L 233.235513 -209.882391 
L 233.322452 -210.679616 
L 233.436054 -211.476841 
L 233.577455 -212.274067 
L 233.748328 -213.071292 
L 233.950636 -213.868517 
L 234.186393 -214.665742 
L 234.45743 -215.462968 
L 234.765191 -216.260193 
L 235.110563 -217.057418 
L 235.493754 -217.854643 
L 235.91421 -218.651869 
L 236.370574 -219.449094 
L 236.860681 -220.246319 
L 237.381586 -221.043544 
L 237.929621 -221.84077 
L 238.500466 -222.637995 
L 239.089243 -223.43522 
L 239.690629 -224.232445 
L 240.298978 -225.029671 
L 240.908453 -225.826896 
L 241.513172 -226.624121 
L 242.107357 -227.421346 
L 242.685483 -228.218572 
L 243.242424 -229.015797 
L 243.773588 -229.813022 
L 244.275032 -230.610247 
L 244.743553 -231.407473 
L 245.176753 -232.204698 
L 245.57307 -233.001923 
L 245.931772 -233.799148 
L 246.252924 -234.596374 
L 246.537319 -235.393599 
L 246.78639 -236.190824 
L 247.002104 -236.988049 
L 247.186838 -237.785275 
L 247.343262 -238.5825 
L 248.6301 -238.5825 
L 248.6301 -238.5825 
L 248.786524 -237.785275 
L 248.971258 -236.988049 
L 249.186972 -236.190824 
L 249.436043 -235.393599 
L 249.720438 -234.596374 
L 250.04159 -233.799148 
L 250.400292 -233.001923 
L 250.796609 -232.204698 
L 251.229809 -231.407473 
L 251.69833 -230.610247 
L 252.199774 -229.813022 
L 252.730938 -229.015797 
L 253.287879 -228.218572 
L 253.866005 -227.421346 
L 254.46019 -226.624121 
L 255.064909 -225.826896 
L 255.674384 -225.029671 
L 256.282733 -224.232445 
L 256.884119 -223.43522 
L 257.472896 -222.637995 
L 258.043741 -221.84077 
L 258.591776 -221.043544 
L 259.112681 -220.246319 
L 259.602788 -219.449094 
L 260.059152 -218.651869 
L 260.479608 -217.854643 
L 260.862799 -217.057418 
L 261.208171 -216.260193 
L 261.515932 -215.462968 
L 261.786969 -214.665742 
L 262.022726 -213.868517 
L 262.225034 -213.071292 
L 262.395907 -212.274067 
L 262.537308 -211.476841 
L 262.65091 -210.679616 
L 262.737849 -209.882391 
L 262.798518 -209.085166 
L 262.832402 -208.28794 
L 262.837985 -207.490715 
L 262.81274 -206.69349 
L 262.753216 -205.896265 
L 262.655227 -205.099039 
L 262.514122 -204.301814 
L 262.325137 -203.504589 
L 262.083797 -202.707364 
L 261.786338 -201.910138 
L 261.430119 -201.112913 
L 261.013988 -200.315688 
L 260.538574 -199.518463 
L 260.006473 -198.721237 
L 259.422323 -197.924012 
L 258.792752 -197.126787 
L 258.126196 -196.329562 
L 257.43262 -195.532336 
L 256.723139 -194.735111 
L 256.009578 -193.937886 
L 255.304001 -193.140661 
L 254.618228 -192.343435 
L 253.963388 -191.54621 
L 253.349508 -190.748985 
L 252.785178 -189.95176 
L 252.27729 -189.154534 
L 251.830862 -188.357309 
L 251.448948 -187.560084 
L 251.132626 -186.762859 
L 250.881061 -185.965633 
L 250.691631 -185.168408 
L 250.560097 -184.371183 
L 250.480828 -183.573958 
L 250.447045 -182.776732 
L 250.451096 -181.979507 
L 250.484743 -181.182282 
L 250.539461 -180.385057 
L 250.606727 -179.587831 
L 250.678312 -178.790606 
L 250.746545 -177.993381 
L 250.804563 -177.196156 
L 250.846512 -176.39893 
L 250.867709 -175.601705 
L 250.864758 -174.80448 
L 250.835594 -174.007255 
L 250.779486 -173.210029 
L 250.696959 -172.412804 
L 250.589682 -171.615579 
L 250.460298 -170.818354 
L 250.31222 -170.021128 
L 250.149407 -169.223903 
L 249.97613 -168.426678 
L 249.796744 -167.629453 
L 249.615479 -166.832227 
L 249.436256 -166.035002 
L 249.262549 -165.237777 
L 249.097276 -164.440552 
L 248.942743 -163.643326 
L 248.800624 -162.846101 
L 248.671974 -162.048876 
L 248.557281 -161.251651 
L 248.456532 -160.454425 
L 248.369293 -159.6572 
z
" style="stroke: #595959; stroke-width: 1.25"/>
    </defs>
    <g clip-path="url(#p3a7fa5b4ed)">
     <use xlink:href="#m6ff60e5609" x="0" y="279.674688" style="fill: #e5c849; stroke: #595959; stroke-width: 1.25"/>
    </g>
   </g>
   <g id="matplotlib.axis_1">
    <g id="xtick_1">
     <g id="line2d_1">
      <defs>
       <path id="m1c1a6f156c" d="M 0 0 
L 0 3.5 
" style="stroke: #000000; stroke-width: 0.8"/>
      </defs>
      <g>
       <use xlink:href="#m1c1a6f156c" x="62.34538" y="242.118437" style="stroke: #000000; stroke-width: 0.8"/>
      </g>
     </g>
     <g id="text_1">
      <!-- 1 -->
      <g transform="translate(59.16413 256.716875) scale(0.1 -0.1)">
       <defs>
        <path id="DejaVuSans-31" d="M 794 531 
L 1825 531 
L 1825 4091 
L 703 3866 
L 703 4441 
L 1819 4666 
L 2450 4666 
L 2450 531 
L 3481 531 
L 3481 0 
L 794 0 
L 794 531 
z
" transform="scale(0.015625)"/>
       </defs>
       <use xlink:href="#DejaVuSans-31"/>
      </g>
     </g>
    </g>
    <g id="xtick_2">
     <g id="line2d_2">
      <g>
       <use xlink:href="#m1c1a6f156c" x="99.47364" y="242.118437" style="stroke: #000000; stroke-width: 0.8"/>
      </g>
     </g>
     <g id="text_2">
      <!-- 2 -->
      <g transform="translate(96.29239 256.716875) scale(0.1 -0.1)">
       <defs>
        <path id="DejaVuSans-32" d="M 1228 531 
L 3431 531 
L 3431 0 
L 469 0 
L 469 531 
Q 828 903 1448 1529 
Q 2069 2156 2228 2338 
Q 2531 2678 2651 2914 
Q 2772 3150 2772 3378 
Q 2772 3750 2511 3984 
Q 2250 4219 1831 4219 
Q 1534 4219 1204 4116 
Q 875 4013 500 3803 
L 500 4441 
Q 881 4594 1212 4672 
Q 1544 4750 1819 4750 
Q 2544 4750 2975 4387 
Q 3406 4025 3406 3419 
Q 3406 3131 3298 2873 
Q 3191 2616 2906 2266 
Q 2828 2175 2409 1742 
Q 1991 1309 1228 531 
z
" transform="scale(0.015625)"/>
       </defs>
       <use xlink:href="#DejaVuSans-32"/>
      </g>
     </g>
    </g>
    <g id="xtick_3">
     <g id="line2d_3">
      <g>
       <use xlink:href="#m1c1a6f156c" x="136.6019" y="242.118437" style="stroke: #000000; stroke-width: 0.8"/>
      </g>
     </g>
     <g id="text_3">
      <!-- 3 -->
      <g transform="translate(133.42065 256.716875) scale(0.1 -0.1)">
       <defs>
        <path id="DejaVuSans-33" d="M 2597 2516 
Q 3050 2419 3304 2112 
Q 3559 1806 3559 1356 
Q 3559 666 3084 287 
Q 2609 -91 1734 -91 
Q 1441 -91 1130 -33 
Q 819 25 488 141 
L 488 750 
Q 750 597 1062 519 
Q 1375 441 1716 441 
Q 2309 441 2620 675 
Q 2931 909 2931 1356 
Q 2931 1769 2642 2001 
Q 2353 2234 1838 2234 
L 1294 2234 
L 1294 2753 
L 1863 2753 
Q 2328 2753 2575 2939 
Q 2822 3125 2822 3475 
Q 2822 3834 2567 4026 
Q 2313 4219 1838 4219 
Q 1578 4219 1281 4162 
Q 984 4106 628 3988 
L 628 4550 
Q 988 4650 1302 4700 
Q 1616 4750 1894 4750 
Q 2613 4750 3031 4423 
Q 3450 4097 3450 3541 
Q 3450 3153 3228 2886 
Q 3006 2619 2597 2516 
z
" transform="scale(0.015625)"/>
       </defs>
       <use xlink:href="#DejaVuSans-33"/>
      </g>
     </g>
    </g>
    <g id="xtick_4">
     <g id="line2d_4">
      <g>
       <use xlink:href="#m1c1a6f156c" x="173.730161" y="242.118437" style="stroke: #000000; stroke-width: 0.8"/>
      </g>
     </g>
     <g id="text_4">
      <!-- 4 -->
      <g transform="translate(170.548911 256.716875) scale(0.1 -0.1)">
       <defs>
        <path id="DejaVuSans-34" d="M 2419 4116 
L 825 1625 
L 2419 1625 
L 2419 4116 
z
M 2253 4666 
L 3047 4666 
L 3047 1625 
L 3713 1625 
L 3713 1100 
L 3047 1100 
L 3047 0 
L 2419 0 
L 2419 1100 
L 313 1100 
L 313 1709 
L 2253 4666 
z
" transform="scale(0.015625)"/>
       </defs>
       <use xlink:href="#DejaVuSans-34"/>
      </g>
     </g>
    </g>
    <g id="xtick_5">
     <g id="line2d_5">
      <g>
       <use xlink:href="#m1c1a6f156c" x="210.858421" y="242.118437" style="stroke: #000000; stroke-width: 0.8"/>
      </g>
     </g>
     <g id="text_5">
      <!-- 5 -->
      <g transform="translate(207.677171 256.716875) scale(0.1 -0.1)">
       <defs>
        <path id="DejaVuSans-35" d="M 691 4666 
L 3169 4666 
L 3169 4134 
L 1269 4134 
L 1269 2991 
Q 1406 3038 1543 3061 
Q 1681 3084 1819 3084 
Q 2600 3084 3056 2656 
Q 3513 2228 3513 1497 
Q 3513 744 3044 326 
Q 2575 -91 1722 -91 
Q 1428 -91 1123 -41 
Q 819 9 494 109 
L 494 744 
Q 775 591 1075 516 
Q 1375 441 1709 441 
Q 2250 441 2565 725 
Q 2881 1009 2881 1497 
Q 2881 1984 2565 2268 
Q 2250 2553 1709 2553 
Q 1456 2553 1204 2497 
Q 953 2441 691 2322 
L 691 4666 
z
" transform="scale(0.015625)"/>
       </defs>
       <use xlink:href="#DejaVuSans-35"/>
      </g>
     </g>
    </g>
    <g id="xtick_6">
     <g id="line2d_6">
      <g>
       <use xlink:href="#m1c1a6f156c" x="247.986681" y="242.118437" style="stroke: #000000; stroke-width: 0.8"/>
      </g>
     </g>
     <g id="text_6">
      <!-- 6 -->
      <g transform="translate(244.805431 256.716875) scale(0.1 -0.1)">
       <defs>
        <path id="DejaVuSans-36" d="M 2113 2584 
Q 1688 2584 1439 2293 
Q 1191 2003 1191 1497 
Q 1191 994 1439 701 
Q 1688 409 2113 409 
Q 2538 409 2786 701 
Q 3034 994 3034 1497 
Q 3034 2003 2786 2293 
Q 2538 2584 2113 2584 
z
M 3366 4563 
L 3366 3988 
Q 3128 4100 2886 4159 
Q 2644 4219 2406 4219 
Q 1781 4219 1451 3797 
Q 1122 3375 1075 2522 
Q 1259 2794 1537 2939 
Q 1816 3084 2150 3084 
Q 2853 3084 3261 2657 
Q 3669 2231 3669 1497 
Q 3669 778 3244 343 
Q 2819 -91 2113 -91 
Q 1303 -91 875 529 
Q 447 1150 447 2328 
Q 447 3434 972 4092 
Q 1497 4750 2381 4750 
Q 2619 4750 2861 4703 
Q 3103 4656 3366 4563 
z
" transform="scale(0.015625)"/>
       </defs>
       <use xlink:href="#DejaVuSans-36"/>
      </g>
     </g>
    </g>
    <g id="text_7">
     <!-- Layer -->
     <g transform="translate(141.224624 270.395) scale(0.1 -0.1)">
      <defs>
       <path id="DejaVuSans-4c" d="M 628 4666 
L 1259 4666 
L 1259 531 
L 3531 531 
L 3531 0 
L 628 0 
L 628 4666 
z
" transform="scale(0.015625)"/>
       <path id="DejaVuSans-61" d="M 2194 1759 
Q 1497 1759 1228 1600 
Q 959 1441 959 1056 
Q 959 750 1161 570 
Q 1363 391 1709 391 
Q 2188 391 2477 730 
Q 2766 1069 2766 1631 
L 2766 1759 
L 2194 1759 
z
M 3341 1997 
L 3341 0 
L 2766 0 
L 2766 531 
Q 2569 213 2275 61 
Q 1981 -91 1556 -91 
Q 1019 -91 701 211 
Q 384 513 384 1019 
Q 384 1609 779 1909 
Q 1175 2209 1959 2209 
L 2766 2209 
L 2766 2266 
Q 2766 2663 2505 2880 
Q 2244 3097 1772 3097 
Q 1472 3097 1187 3025 
Q 903 2953 641 2809 
L 641 3341 
Q 956 3463 1253 3523 
Q 1550 3584 1831 3584 
Q 2591 3584 2966 3190 
Q 3341 2797 3341 1997 
z
" transform="scale(0.015625)"/>
       <path id="DejaVuSans-79" d="M 2059 -325 
Q 1816 -950 1584 -1140 
Q 1353 -1331 966 -1331 
L 506 -1331 
L 506 -850 
L 844 -850 
Q 1081 -850 1212 -737 
Q 1344 -625 1503 -206 
L 1606 56 
L 191 3500 
L 800 3500 
L 1894 763 
L 2988 3500 
L 3597 3500 
L 2059 -325 
z
" transform="scale(0.015625)"/>
       <path id="DejaVuSans-65" d="M 3597 1894 
L 3597 1613 
L 953 1613 
Q 991 1019 1311 708 
Q 1631 397 2203 397 
Q 2534 397 2845 478 
Q 3156 559 3463 722 
L 3463 178 
Q 3153 47 2828 -22 
Q 2503 -91 2169 -91 
Q 1331 -91 842 396 
Q 353 884 353 1716 
Q 353 2575 817 3079 
Q 1281 3584 2069 3584 
Q 2775 3584 3186 3129 
Q 3597 2675 3597 1894 
z
M 3022 2063 
Q 3016 2534 2758 2815 
Q 2500 3097 2075 3097 
Q 1594 3097 1305 2825 
Q 1016 2553 972 2059 
L 3022 2063 
z
" transform="scale(0.015625)"/>
       <path id="DejaVuSans-72" d="M 2631 2963 
Q 2534 3019 2420 3045 
Q 2306 3072 2169 3072 
Q 1681 3072 1420 2755 
Q 1159 2438 1159 1844 
L 1159 0 
L 581 0 
L 581 3500 
L 1159 3500 
L 1159 2956 
Q 1341 3275 1631 3429 
Q 1922 3584 2338 3584 
Q 2397 3584 2469 3576 
Q 2541 3569 2628 3553 
L 2631 2963 
z
" transform="scale(0.015625)"/>
      </defs>
      <use xlink:href="#DejaVuSans-4c"/>
      <use xlink:href="#DejaVuSans-61" x="55.712891"/>
      <use xlink:href="#DejaVuSans-79" x="116.992188"/>
      <use xlink:href="#DejaVuSans-65" x="176.171875"/>
      <use xlink:href="#DejaVuSans-72" x="237.695312"/>
     </g>
    </g>
   </g>
   <g id="matplotlib.axis_2">
    <g id="ytick_1">
     <g id="line2d_7">
      <defs>
       <path id="m655f8aa65f" d="M 0 0 
L -3.5 0 
" style="stroke: #000000; stroke-width: 0.8"/>
      </defs>
      <g>
       <use xlink:href="#m655f8aa65f" x="43.78125" y="242.118437" style="stroke: #000000; stroke-width: 0.8"/>
      </g>
     </g>
     <g id="text_8">
      <!-- 0.0 -->
      <g transform="translate(20.878125 245.917656) scale(0.1 -0.1)">
       <defs>
        <path id="DejaVuSans-30" d="M 2034 4250 
Q 1547 4250 1301 3770 
Q 1056 3291 1056 2328 
Q 1056 1369 1301 889 
Q 1547 409 2034 409 
Q 2525 409 2770 889 
Q 3016 1369 3016 2328 
Q 3016 3291 2770 3770 
Q 2525 4250 2034 4250 
z
M 2034 4750 
Q 2819 4750 3233 4129 
Q 3647 3509 3647 2328 
Q 3647 1150 3233 529 
Q 2819 -91 2034 -91 
Q 1250 -91 836 529 
Q 422 1150 422 2328 
Q 422 3509 836 4129 
Q 1250 4750 2034 4750 
z
" transform="scale(0.015625)"/>
        <path id="DejaVuSans-2e" d="M 684 794 
L 1344 794 
L 1344 0 
L 684 0 
L 684 794 
z
" transform="scale(0.015625)"/>
       </defs>
       <use xlink:href="#DejaVuSans-30"/>
       <use xlink:href="#DejaVuSans-2e" x="63.623047"/>
       <use xlink:href="#DejaVuSans-30" x="95.410156"/>
      </g>
     </g>
    </g>
    <g id="ytick_2">
     <g id="line2d_8">
      <g>
       <use xlink:href="#m655f8aa65f" x="43.78125" y="197.854437" style="stroke: #000000; stroke-width: 0.8"/>
      </g>
     </g>
     <g id="text_9">
      <!-- 0.2 -->
      <g transform="translate(20.878125 201.653656) scale(0.1 -0.1)">
       <use xlink:href="#DejaVuSans-30"/>
       <use xlink:href="#DejaVuSans-2e" x="63.623047"/>
       <use xlink:href="#DejaVuSans-32" x="95.410156"/>
      </g>
     </g>
    </g>
    <g id="ytick_3">
     <g id="line2d_9">
      <g>
       <use xlink:href="#m655f8aa65f" x="43.78125" y="153.590437" style="stroke: #000000; stroke-width: 0.8"/>
      </g>
     </g>
     <g id="text_10">
      <!-- 0.4 -->
      <g transform="translate(20.878125 157.389656) scale(0.1 -0.1)">
       <use xlink:href="#DejaVuSans-30"/>
       <use xlink:href="#DejaVuSans-2e" x="63.623047"/>
       <use xlink:href="#DejaVuSans-34" x="95.410156"/>
      </g>
     </g>
    </g>
    <g id="ytick_4">
     <g id="line2d_10">
      <g>
       <use xlink:href="#m655f8aa65f" x="43.78125" y="109.326437" style="stroke: #000000; stroke-width: 0.8"/>
      </g>
     </g>
     <g id="text_11">
      <!-- 0.6 -->
      <g transform="translate(20.878125 113.125656) scale(0.1 -0.1)">
       <use xlink:href="#DejaVuSans-30"/>
       <use xlink:href="#DejaVuSans-2e" x="63.623047"/>
       <use xlink:href="#DejaVuSans-36" x="95.410156"/>
      </g>
     </g>
    </g>
    <g id="ytick_5">
     <g id="line2d_11">
      <g>
       <use xlink:href="#m655f8aa65f" x="43.78125" y="65.062437" style="stroke: #000000; stroke-width: 0.8"/>
      </g>
     </g>
     <g id="text_12">
      <!-- 0.8 -->
      <g transform="translate(20.878125 68.861656) scale(0.1 -0.1)">
       <defs>
        <path id="DejaVuSans-38" d="M 2034 2216 
Q 1584 2216 1326 1975 
Q 1069 1734 1069 1313 
Q 1069 891 1326 650 
Q 1584 409 2034 409 
Q 2484 409 2743 651 
Q 3003 894 3003 1313 
Q 3003 1734 2745 1975 
Q 2488 2216 2034 2216 
z
M 1403 2484 
Q 997 2584 770 2862 
Q 544 3141 544 3541 
Q 544 4100 942 4425 
Q 1341 4750 2034 4750 
Q 2731 4750 3128 4425 
Q 3525 4100 3525 3541 
Q 3525 3141 3298 2862 
Q 3072 2584 2669 2484 
Q 3125 2378 3379 2068 
Q 3634 1759 3634 1313 
Q 3634 634 3220 271 
Q 2806 -91 2034 -91 
Q 1263 -91 848 271 
Q 434 634 434 1313 
Q 434 1759 690 2068 
Q 947 2378 1403 2484 
z
M 1172 3481 
Q 1172 3119 1398 2916 
Q 1625 2713 2034 2713 
Q 2441 2713 2670 2916 
Q 2900 3119 2900 3481 
Q 2900 3844 2670 4047 
Q 2441 4250 2034 4250 
Q 1625 4250 1398 4047 
Q 1172 3844 1172 3481 
z
" transform="scale(0.015625)"/>
       </defs>
       <use xlink:href="#DejaVuSans-30"/>
       <use xlink:href="#DejaVuSans-2e" x="63.623047"/>
       <use xlink:href="#DejaVuSans-38" x="95.410156"/>
      </g>
     </g>
    </g>
    <g id="ytick_6">
     <g id="line2d_12">
      <g>
       <use xlink:href="#m655f8aa65f" x="43.78125" y="20.798437" style="stroke: #000000; stroke-width: 0.8"/>
      </g>
     </g>
     <g id="text_13">
      <!-- 1.0 -->
      <g transform="translate(20.878125 24.597656) scale(0.1 -0.1)">
       <use xlink:href="#DejaVuSans-31"/>
       <use xlink:href="#DejaVuSans-2e" x="63.623047"/>
       <use xlink:href="#DejaVuSans-30" x="95.410156"/>
      </g>
     </g>
    </g>
    <g id="text_14">
     <!-- Accuracy -->
     <g transform="translate(14.798438 154.286563) rotate(-90) scale(0.1 -0.1)">
      <defs>
       <path id="DejaVuSans-41" d="M 2188 4044 
L 1331 1722 
L 3047 1722 
L 2188 4044 
z
M 1831 4666 
L 2547 4666 
L 4325 0 
L 3669 0 
L 3244 1197 
L 1141 1197 
L 716 0 
L 50 0 
L 1831 4666 
z
" transform="scale(0.015625)"/>
       <path id="DejaVuSans-63" d="M 3122 3366 
L 3122 2828 
Q 2878 2963 2633 3030 
Q 2388 3097 2138 3097 
Q 1578 3097 1268 2742 
Q 959 2388 959 1747 
Q 959 1106 1268 751 
Q 1578 397 2138 397 
Q 2388 397 2633 464 
Q 2878 531 3122 666 
L 3122 134 
Q 2881 22 2623 -34 
Q 2366 -91 2075 -91 
Q 1284 -91 818 406 
Q 353 903 353 1747 
Q 353 2603 823 3093 
Q 1294 3584 2113 3584 
Q 2378 3584 2631 3529 
Q 2884 3475 3122 3366 
z
" transform="scale(0.015625)"/>
       <path id="DejaVuSans-75" d="M 544 1381 
L 544 3500 
L 1119 3500 
L 1119 1403 
Q 1119 906 1312 657 
Q 1506 409 1894 409 
Q 2359 409 2629 706 
Q 2900 1003 2900 1516 
L 2900 3500 
L 3475 3500 
L 3475 0 
L 2900 0 
L 2900 538 
Q 2691 219 2414 64 
Q 2138 -91 1772 -91 
Q 1169 -91 856 284 
Q 544 659 544 1381 
z
M 1991 3584 
L 1991 3584 
z
" transform="scale(0.015625)"/>
      </defs>
      <use xlink:href="#DejaVuSans-41"/>
      <use xlink:href="#DejaVuSans-63" x="66.658203"/>
      <use xlink:href="#DejaVuSans-63" x="121.638672"/>
      <use xlink:href="#DejaVuSans-75" x="176.619141"/>
      <use xlink:href="#DejaVuSans-72" x="239.998047"/>
      <use xlink:href="#DejaVuSans-61" x="281.111328"/>
      <use xlink:href="#DejaVuSans-63" x="342.390625"/>
      <use xlink:href="#DejaVuSans-79" x="397.371094"/>
     </g>
    </g>
   </g>
   <g id="line2d_13">
    <path d="M 43.78125 131.458438 
L 266.550811 131.458438 
" clip-path="url(#p3a7fa5b4ed)" style="fill: none; stroke-dasharray: 5.55,2.4; stroke-dashoffset: 0; stroke: #808080; stroke-width: 1.5"/>
   </g>
   <g id="patch_3">
    <path d="M 43.78125 242.118437 
L 43.78125 20.798437 
" style="fill: none; stroke: #000000; stroke-width: 0.8; stroke-linejoin: miter; stroke-linecap: square"/>
   </g>
   <g id="patch_4">
    <path d="M 43.78125 242.118437 
L 266.550811 242.118437 
" style="fill: none; stroke: #000000; stroke-width: 0.8; stroke-linejoin: miter; stroke-linecap: square"/>
   </g>
   <g id="PathCollection_1">
    <defs>
     <path id="m60e3e3725d" d="M 0 1.25 
C 0.331504 1.25 0.649475 1.118292 0.883883 0.883883 
C 1.118292 0.649475 1.25 0.331504 1.25 0 
C 1.25 -0.331504 1.118292 -0.649475 0.883883 -0.883883 
C 0.649475 -1.118292 0.331504 -1.25 0 -1.25 
C -0.331504 -1.25 -0.649475 -1.118292 -0.883883 -0.883883 
C -1.118292 -0.649475 -1.25 -0.331504 -1.25 0 
C -1.25 0.331504 -1.118292 0.649475 -0.883883 0.883883 
C -0.649475 1.118292 -0.331504 1.25 0 1.25 
z
" style="stroke: #595959"/>
    </defs>
    <g clip-path="url(#p3a7fa5b4ed)">
     <use xlink:href="#m60e3e3725d" x="62.34538" y="129.245237" style="fill: #595959; stroke: #595959"/>
     <use xlink:href="#m60e3e3725d" x="62.34538" y="122.605637" style="fill: #595959; stroke: #595959"/>
     <use xlink:href="#m60e3e3725d" x="62.34538" y="120.392437" style="fill: #595959; stroke: #595959"/>
     <use xlink:href="#m60e3e3725d" x="62.34538" y="131.458438" style="fill: #595959; stroke: #595959"/>
     <use xlink:href="#m60e3e3725d" x="62.34538" y="120.392437" style="fill: #595959; stroke: #595959"/>
     <use xlink:href="#m60e3e3725d" x="62.34538" y="124.818837" style="fill: #595959; stroke: #595959"/>
     <use xlink:href="#m60e3e3725d" x="62.34538" y="140.311238" style="fill: #595959; stroke: #595959"/>
     <use xlink:href="#m60e3e3725d" x="62.34538" y="133.671637" style="fill: #595959; stroke: #595959"/>
     <use xlink:href="#m60e3e3725d" x="62.34538" y="127.032037" style="fill: #595959; stroke: #595959"/>
     <use xlink:href="#m60e3e3725d" x="62.34538" y="118.179237" style="fill: #595959; stroke: #595959"/>
     <use xlink:href="#m60e3e3725d" x="62.34538" y="149.164037" style="fill: #595959; stroke: #595959"/>
     <use xlink:href="#m60e3e3725d" x="62.34538" y="131.458438" style="fill: #595959; stroke: #595959"/>
     <use xlink:href="#m60e3e3725d" x="62.34538" y="133.671637" style="fill: #595959; stroke: #595959"/>
     <use xlink:href="#m60e3e3725d" x="62.34538" y="169.082837" style="fill: #595959; stroke: #595959"/>
     <use xlink:href="#m60e3e3725d" x="62.34538" y="160.230037" style="fill: #595959; stroke: #595959"/>
     <use xlink:href="#m60e3e3725d" x="62.34538" y="102.686837" style="fill: #595959; stroke: #595959"/>
     <use xlink:href="#m60e3e3725d" x="62.34538" y="140.311238" style="fill: #595959; stroke: #595959"/>
     <use xlink:href="#m60e3e3725d" x="62.34538" y="149.164037" style="fill: #595959; stroke: #595959"/>
     <use xlink:href="#m60e3e3725d" x="62.34538" y="124.818837" style="fill: #595959; stroke: #595959"/>
     <use xlink:href="#m60e3e3725d" x="62.34538" y="133.671637" style="fill: #595959; stroke: #595959"/>
    </g>
   </g>
   <g id="PathCollection_2">
    <g clip-path="url(#p3a7fa5b4ed)">
     <use xlink:href="#m60e3e3725d" x="99.47364" y="135.884838" style="fill: #595959; stroke: #595959"/>
     <use xlink:href="#m60e3e3725d" x="99.47364" y="131.458437" style="fill: #595959; stroke: #595959"/>
     <use xlink:href="#m60e3e3725d" x="99.47364" y="140.311238" style="fill: #595959; stroke: #595959"/>
     <use xlink:href="#m60e3e3725d" x="99.47364" y="151.377237" style="fill: #595959; stroke: #595959"/>
     <use xlink:href="#m60e3e3725d" x="99.47364" y="124.818837" style="fill: #595959; stroke: #595959"/>
     <use xlink:href="#m60e3e3725d" x="99.47364" y="127.032037" style="fill: #595959; stroke: #595959"/>
     <use xlink:href="#m60e3e3725d" x="99.47364" y="155.803637" style="fill: #595959; stroke: #595959"/>
     <use xlink:href="#m60e3e3725d" x="99.47364" y="120.392437" style="fill: #595959; stroke: #595959"/>
     <use xlink:href="#m60e3e3725d" x="99.47364" y="158.016838" style="fill: #595959; stroke: #595959"/>
     <use xlink:href="#m60e3e3725d" x="99.47364" y="129.245237" style="fill: #595959; stroke: #595959"/>
     <use xlink:href="#m60e3e3725d" x="99.47364" y="122.605637" style="fill: #595959; stroke: #595959"/>
     <use xlink:href="#m60e3e3725d" x="99.47364" y="138.098037" style="fill: #595959; stroke: #595959"/>
     <use xlink:href="#m60e3e3725d" x="99.47364" y="140.311238" style="fill: #595959; stroke: #595959"/>
     <use xlink:href="#m60e3e3725d" x="99.47364" y="142.524437" style="fill: #595959; stroke: #595959"/>
     <use xlink:href="#m60e3e3725d" x="99.47364" y="120.392437" style="fill: #595959; stroke: #595959"/>
     <use xlink:href="#m60e3e3725d" x="99.47364" y="131.458438" style="fill: #595959; stroke: #595959"/>
     <use xlink:href="#m60e3e3725d" x="99.47364" y="127.032037" style="fill: #595959; stroke: #595959"/>
     <use xlink:href="#m60e3e3725d" x="99.47364" y="144.737637" style="fill: #595959; stroke: #595959"/>
     <use xlink:href="#m60e3e3725d" x="99.47364" y="151.377237" style="fill: #595959; stroke: #595959"/>
     <use xlink:href="#m60e3e3725d" x="99.47364" y="142.524437" style="fill: #595959; stroke: #595959"/>
    </g>
   </g>
   <g id="PathCollection_3">
    <g clip-path="url(#p3a7fa5b4ed)">
     <use xlink:href="#m60e3e3725d" x="136.6019" y="118.179237" style="fill: #595959; stroke: #595959"/>
     <use xlink:href="#m60e3e3725d" x="136.6019" y="124.818837" style="fill: #595959; stroke: #595959"/>
     <use xlink:href="#m60e3e3725d" x="136.6019" y="133.671637" style="fill: #595959; stroke: #595959"/>
     <use xlink:href="#m60e3e3725d" x="136.6019" y="151.377237" style="fill: #595959; stroke: #595959"/>
     <use xlink:href="#m60e3e3725d" x="136.6019" y="98.260437" style="fill: #595959; stroke: #595959"/>
     <use xlink:href="#m60e3e3725d" x="136.6019" y="142.524437" style="fill: #595959; stroke: #595959"/>
     <use xlink:href="#m60e3e3725d" x="136.6019" y="127.032037" style="fill: #595959; stroke: #595959"/>
     <use xlink:href="#m60e3e3725d" x="136.6019" y="135.884837" style="fill: #595959; stroke: #595959"/>
     <use xlink:href="#m60e3e3725d" x="136.6019" y="111.539637" style="fill: #595959; stroke: #595959"/>
     <use xlink:href="#m60e3e3725d" x="136.6019" y="144.737637" style="fill: #595959; stroke: #595959"/>
     <use xlink:href="#m60e3e3725d" x="136.6019" y="127.032037" style="fill: #595959; stroke: #595959"/>
     <use xlink:href="#m60e3e3725d" x="136.6019" y="146.950837" style="fill: #595959; stroke: #595959"/>
     <use xlink:href="#m60e3e3725d" x="136.6019" y="146.950837" style="fill: #595959; stroke: #595959"/>
     <use xlink:href="#m60e3e3725d" x="136.6019" y="135.884838" style="fill: #595959; stroke: #595959"/>
     <use xlink:href="#m60e3e3725d" x="136.6019" y="122.605637" style="fill: #595959; stroke: #595959"/>
     <use xlink:href="#m60e3e3725d" x="136.6019" y="142.524437" style="fill: #595959; stroke: #595959"/>
     <use xlink:href="#m60e3e3725d" x="136.6019" y="142.524437" style="fill: #595959; stroke: #595959"/>
     <use xlink:href="#m60e3e3725d" x="136.6019" y="113.752837" style="fill: #595959; stroke: #595959"/>
     <use xlink:href="#m60e3e3725d" x="136.6019" y="96.047237" style="fill: #595959; stroke: #595959"/>
     <use xlink:href="#m60e3e3725d" x="136.6019" y="133.671637" style="fill: #595959; stroke: #595959"/>
    </g>
   </g>
   <g id="PathCollection_4">
    <g clip-path="url(#p3a7fa5b4ed)">
     <use xlink:href="#m60e3e3725d" x="173.730161" y="144.737637" style="fill: #595959; stroke: #595959"/>
     <use xlink:href="#m60e3e3725d" x="173.730161" y="135.884837" style="fill: #595959; stroke: #595959"/>
     <use xlink:href="#m60e3e3725d" x="173.730161" y="146.950837" style="fill: #595959; stroke: #595959"/>
     <use xlink:href="#m60e3e3725d" x="173.730161" y="144.737637" style="fill: #595959; stroke: #595959"/>
     <use xlink:href="#m60e3e3725d" x="173.730161" y="122.605637" style="fill: #595959; stroke: #595959"/>
     <use xlink:href="#m60e3e3725d" x="173.730161" y="113.752837" style="fill: #595959; stroke: #595959"/>
     <use xlink:href="#m60e3e3725d" x="173.730161" y="115.966037" style="fill: #595959; stroke: #595959"/>
     <use xlink:href="#m60e3e3725d" x="173.730161" y="118.179237" style="fill: #595959; stroke: #595959"/>
     <use xlink:href="#m60e3e3725d" x="173.730161" y="120.392437" style="fill: #595959; stroke: #595959"/>
     <use xlink:href="#m60e3e3725d" x="173.730161" y="120.392437" style="fill: #595959; stroke: #595959"/>
     <use xlink:href="#m60e3e3725d" x="173.730161" y="127.032037" style="fill: #595959; stroke: #595959"/>
     <use xlink:href="#m60e3e3725d" x="173.730161" y="140.311238" style="fill: #595959; stroke: #595959"/>
     <use xlink:href="#m60e3e3725d" x="173.730161" y="131.458438" style="fill: #595959; stroke: #595959"/>
     <use xlink:href="#m60e3e3725d" x="173.730161" y="144.737637" style="fill: #595959; stroke: #595959"/>
     <use xlink:href="#m60e3e3725d" x="173.730161" y="124.818837" style="fill: #595959; stroke: #595959"/>
     <use xlink:href="#m60e3e3725d" x="173.730161" y="158.016838" style="fill: #595959; stroke: #595959"/>
     <use xlink:href="#m60e3e3725d" x="173.730161" y="142.524437" style="fill: #595959; stroke: #595959"/>
     <use xlink:href="#m60e3e3725d" x="173.730161" y="131.458438" style="fill: #595959; stroke: #595959"/>
     <use xlink:href="#m60e3e3725d" x="173.730161" y="158.016838" style="fill: #595959; stroke: #595959"/>
     <use xlink:href="#m60e3e3725d" x="173.730161" y="131.458438" style="fill: #595959; stroke: #595959"/>
    </g>
   </g>
   <g id="PathCollection_5">
    <g clip-path="url(#p3a7fa5b4ed)">
     <use xlink:href="#m60e3e3725d" x="210.858421" y="87.194437" style="fill: #595959; stroke: #595959"/>
     <use xlink:href="#m60e3e3725d" x="210.858421" y="93.834037" style="fill: #595959; stroke: #595959"/>
     <use xlink:href="#m60e3e3725d" x="210.858421" y="115.966037" style="fill: #595959; stroke: #595959"/>
     <use xlink:href="#m60e3e3725d" x="210.858421" y="124.818837" style="fill: #595959; stroke: #595959"/>
     <use xlink:href="#m60e3e3725d" x="210.858421" y="100.473637" style="fill: #595959; stroke: #595959"/>
     <use xlink:href="#m60e3e3725d" x="210.858421" y="96.047237" style="fill: #595959; stroke: #595959"/>
     <use xlink:href="#m60e3e3725d" x="210.858421" y="102.686837" style="fill: #595959; stroke: #595959"/>
     <use xlink:href="#m60e3e3725d" x="210.858421" y="89.407637" style="fill: #595959; stroke: #595959"/>
     <use xlink:href="#m60e3e3725d" x="210.858421" y="104.900037" style="fill: #595959; stroke: #595959"/>
     <use xlink:href="#m60e3e3725d" x="210.858421" y="111.539637" style="fill: #595959; stroke: #595959"/>
     <use xlink:href="#m60e3e3725d" x="210.858421" y="98.260437" style="fill: #595959; stroke: #595959"/>
     <use xlink:href="#m60e3e3725d" x="210.858421" y="84.981237" style="fill: #595959; stroke: #595959"/>
     <use xlink:href="#m60e3e3725d" x="210.858421" y="109.326437" style="fill: #595959; stroke: #595959"/>
     <use xlink:href="#m60e3e3725d" x="210.858421" y="109.326437" style="fill: #595959; stroke: #595959"/>
     <use xlink:href="#m60e3e3725d" x="210.858421" y="89.407637" style="fill: #595959; stroke: #595959"/>
     <use xlink:href="#m60e3e3725d" x="210.858421" y="100.473637" style="fill: #595959; stroke: #595959"/>
     <use xlink:href="#m60e3e3725d" x="210.858421" y="111.539637" style="fill: #595959; stroke: #595959"/>
     <use xlink:href="#m60e3e3725d" x="210.858421" y="98.260437" style="fill: #595959; stroke: #595959"/>
     <use xlink:href="#m60e3e3725d" x="210.858421" y="109.326437" style="fill: #595959; stroke: #595959"/>
     <use xlink:href="#m60e3e3725d" x="210.858421" y="100.473637" style="fill: #595959; stroke: #595959"/>
    </g>
   </g>
   <g id="PathCollection_6">
    <g clip-path="url(#p3a7fa5b4ed)">
     <use xlink:href="#m60e3e3725d" x="247.986681" y="56.209637" style="fill: #595959; stroke: #595959"/>
     <use xlink:href="#m60e3e3725d" x="247.986681" y="62.849237" style="fill: #595959; stroke: #595959"/>
     <use xlink:href="#m60e3e3725d" x="247.986681" y="78.341637" style="fill: #595959; stroke: #595959"/>
     <use xlink:href="#m60e3e3725d" x="247.986681" y="82.768037" style="fill: #595959; stroke: #595959"/>
     <use xlink:href="#m60e3e3725d" x="247.986681" y="80.554837" style="fill: #595959; stroke: #595959"/>
     <use xlink:href="#m60e3e3725d" x="247.986681" y="67.275637" style="fill: #595959; stroke: #595959"/>
     <use xlink:href="#m60e3e3725d" x="247.986681" y="69.488837" style="fill: #595959; stroke: #595959"/>
     <use xlink:href="#m60e3e3725d" x="247.986681" y="104.900037" style="fill: #595959; stroke: #595959"/>
     <use xlink:href="#m60e3e3725d" x="247.986681" y="80.554837" style="fill: #595959; stroke: #595959"/>
     <use xlink:href="#m60e3e3725d" x="247.986681" y="56.209637" style="fill: #595959; stroke: #595959"/>
     <use xlink:href="#m60e3e3725d" x="247.986681" y="56.209637" style="fill: #595959; stroke: #595959"/>
     <use xlink:href="#m60e3e3725d" x="247.986681" y="104.900037" style="fill: #595959; stroke: #595959"/>
     <use xlink:href="#m60e3e3725d" x="247.986681" y="78.341637" style="fill: #595959; stroke: #595959"/>
     <use xlink:href="#m60e3e3725d" x="247.986681" y="65.062437" style="fill: #595959; stroke: #595959"/>
     <use xlink:href="#m60e3e3725d" x="247.986681" y="73.915237" style="fill: #595959; stroke: #595959"/>
     <use xlink:href="#m60e3e3725d" x="247.986681" y="62.849237" style="fill: #595959; stroke: #595959"/>
     <use xlink:href="#m60e3e3725d" x="247.986681" y="65.062437" style="fill: #595959; stroke: #595959"/>
     <use xlink:href="#m60e3e3725d" x="247.986681" y="76.128437" style="fill: #595959; stroke: #595959"/>
     <use xlink:href="#m60e3e3725d" x="247.986681" y="69.488837" style="fill: #595959; stroke: #595959"/>
     <use xlink:href="#m60e3e3725d" x="247.986681" y="80.554837" style="fill: #595959; stroke: #595959"/>
    </g>
   </g>
   <g id="text_15">
    <!-- Rho = 0.4 -->
    <g transform="translate(273.08589 106.436563) rotate(-270) scale(0.1 -0.1)">
     <defs>
      <path id="DejaVuSans-52" d="M 2841 2188 
Q 3044 2119 3236 1894 
Q 3428 1669 3622 1275 
L 4263 0 
L 3584 0 
L 2988 1197 
Q 2756 1666 2539 1819 
Q 2322 1972 1947 1972 
L 1259 1972 
L 1259 0 
L 628 0 
L 628 4666 
L 2053 4666 
Q 2853 4666 3247 4331 
Q 3641 3997 3641 3322 
Q 3641 2881 3436 2590 
Q 3231 2300 2841 2188 
z
M 1259 4147 
L 1259 2491 
L 2053 2491 
Q 2509 2491 2742 2702 
Q 2975 2913 2975 3322 
Q 2975 3731 2742 3939 
Q 2509 4147 2053 4147 
L 1259 4147 
z
" transform="scale(0.015625)"/>
      <path id="DejaVuSans-68" d="M 3513 2113 
L 3513 0 
L 2938 0 
L 2938 2094 
Q 2938 2591 2744 2837 
Q 2550 3084 2163 3084 
Q 1697 3084 1428 2787 
Q 1159 2491 1159 1978 
L 1159 0 
L 581 0 
L 581 4863 
L 1159 4863 
L 1159 2956 
Q 1366 3272 1645 3428 
Q 1925 3584 2291 3584 
Q 2894 3584 3203 3211 
Q 3513 2838 3513 2113 
z
" transform="scale(0.015625)"/>
      <path id="DejaVuSans-6f" d="M 1959 3097 
Q 1497 3097 1228 2736 
Q 959 2375 959 1747 
Q 959 1119 1226 758 
Q 1494 397 1959 397 
Q 2419 397 2687 759 
Q 2956 1122 2956 1747 
Q 2956 2369 2687 2733 
Q 2419 3097 1959 3097 
z
M 1959 3584 
Q 2709 3584 3137 3096 
Q 3566 2609 3566 1747 
Q 3566 888 3137 398 
Q 2709 -91 1959 -91 
Q 1206 -91 779 398 
Q 353 888 353 1747 
Q 353 2609 779 3096 
Q 1206 3584 1959 3584 
z
" transform="scale(0.015625)"/>
      <path id="DejaVuSans-20" transform="scale(0.015625)"/>
      <path id="DejaVuSans-3d" d="M 678 2906 
L 4684 2906 
L 4684 2381 
L 678 2381 
L 678 2906 
z
M 678 1631 
L 4684 1631 
L 4684 1100 
L 678 1100 
L 678 1631 
z
" transform="scale(0.015625)"/>
     </defs>
     <use xlink:href="#DejaVuSans-52"/>
     <use xlink:href="#DejaVuSans-68" x="69.482422"/>
     <use xlink:href="#DejaVuSans-6f" x="132.861328"/>
     <use xlink:href="#DejaVuSans-20" x="194.042969"/>
     <use xlink:href="#DejaVuSans-3d" x="225.830078"/>
     <use xlink:href="#DejaVuSans-20" x="309.619141"/>
     <use xlink:href="#DejaVuSans-30" x="341.40625"/>
     <use xlink:href="#DejaVuSans-2e" x="405.029297"/>
     <use xlink:href="#DejaVuSans-34" x="436.816406"/>
    </g>
   </g>
   <g id="text_16">
    <!-- CNR_change = 1 -->
    <g transform="translate(113.008999 14.798437) scale(0.1 -0.1)">
     <defs>
      <path id="DejaVuSans-43" d="M 4122 4306 
L 4122 3641 
Q 3803 3938 3442 4084 
Q 3081 4231 2675 4231 
Q 1875 4231 1450 3742 
Q 1025 3253 1025 2328 
Q 1025 1406 1450 917 
Q 1875 428 2675 428 
Q 3081 428 3442 575 
Q 3803 722 4122 1019 
L 4122 359 
Q 3791 134 3420 21 
Q 3050 -91 2638 -91 
Q 1578 -91 968 557 
Q 359 1206 359 2328 
Q 359 3453 968 4101 
Q 1578 4750 2638 4750 
Q 3056 4750 3426 4639 
Q 3797 4528 4122 4306 
z
" transform="scale(0.015625)"/>
      <path id="DejaVuSans-4e" d="M 628 4666 
L 1478 4666 
L 3547 763 
L 3547 4666 
L 4159 4666 
L 4159 0 
L 3309 0 
L 1241 3903 
L 1241 0 
L 628 0 
L 628 4666 
z
" transform="scale(0.015625)"/>
      <path id="DejaVuSans-5f" d="M 3263 -1063 
L 3263 -1509 
L -63 -1509 
L -63 -1063 
L 3263 -1063 
z
" transform="scale(0.015625)"/>
      <path id="DejaVuSans-6e" d="M 3513 2113 
L 3513 0 
L 2938 0 
L 2938 2094 
Q 2938 2591 2744 2837 
Q 2550 3084 2163 3084 
Q 1697 3084 1428 2787 
Q 1159 2491 1159 1978 
L 1159 0 
L 581 0 
L 581 3500 
L 1159 3500 
L 1159 2956 
Q 1366 3272 1645 3428 
Q 1925 3584 2291 3584 
Q 2894 3584 3203 3211 
Q 3513 2838 3513 2113 
z
" transform="scale(0.015625)"/>
      <path id="DejaVuSans-67" d="M 2906 1791 
Q 2906 2416 2648 2759 
Q 2391 3103 1925 3103 
Q 1463 3103 1205 2759 
Q 947 2416 947 1791 
Q 947 1169 1205 825 
Q 1463 481 1925 481 
Q 2391 481 2648 825 
Q 2906 1169 2906 1791 
z
M 3481 434 
Q 3481 -459 3084 -895 
Q 2688 -1331 1869 -1331 
Q 1566 -1331 1297 -1286 
Q 1028 -1241 775 -1147 
L 775 -588 
Q 1028 -725 1275 -790 
Q 1522 -856 1778 -856 
Q 2344 -856 2625 -561 
Q 2906 -266 2906 331 
L 2906 616 
Q 2728 306 2450 153 
Q 2172 0 1784 0 
Q 1141 0 747 490 
Q 353 981 353 1791 
Q 353 2603 747 3093 
Q 1141 3584 1784 3584 
Q 2172 3584 2450 3431 
Q 2728 3278 2906 2969 
L 2906 3500 
L 3481 3500 
L 3481 434 
z
" transform="scale(0.015625)"/>
     </defs>
     <use xlink:href="#DejaVuSans-43"/>
     <use xlink:href="#DejaVuSans-4e" x="69.824219"/>
     <use xlink:href="#DejaVuSans-52" x="144.628906"/>
     <use xlink:href="#DejaVuSans-5f" x="214.111328"/>
     <use xlink:href="#DejaVuSans-63" x="264.111328"/>
     <use xlink:href="#DejaVuSans-68" x="319.091797"/>
     <use xlink:href="#DejaVuSans-61" x="382.470703"/>
     <use xlink:href="#DejaVuSans-6e" x="443.75"/>
     <use xlink:href="#DejaVuSans-67" x="507.128906"/>
     <use xlink:href="#DejaVuSans-65" x="570.605469"/>
     <use xlink:href="#DejaVuSans-20" x="632.128906"/>
     <use xlink:href="#DejaVuSans-3d" x="663.916016"/>
     <use xlink:href="#DejaVuSans-20" x="747.705078"/>
     <use xlink:href="#DejaVuSans-31" x="779.492188"/>
    </g>
   </g>
  </g>
  <g id="legend_1"/>
 </g>
 <defs>
  <clipPath id="p3a7fa5b4ed">
   <rect x="43.78125" y="20.798437" width="222.769561" height="221.32"/>
  </clipPath>
 </defs>
</svg>
