<?xml version="1.0" encoding="utf-8" standalone="no"?>
<!DOCTYPE svg PUBLIC "-//W3C//DTD SVG 1.1//EN"
  "http://www.w3.org/Graphics/SVG/1.1/DTD/svg11.dtd">
<svg xmlns:xlink="http://www.w3.org/1999/xlink" width="294.17125pt" height="279.674688pt" viewBox="0 0 294.17125 279.674688" xmlns="http://www.w3.org/2000/svg" version="1.1">
 <metadata>
  <rdf:RDF xmlns:dc="http://purl.org/dc/elements/1.1/" xmlns:cc="http://creativecommons.org/ns#" xmlns:rdf="http://www.w3.org/1999/02/22-rdf-syntax-ns#">
   <cc:Work>
    <dc:type rdf:resource="http://purl.org/dc/dcmitype/StillImage"/>
    <dc:date>2025-08-25T17:08:48.668602</dc:date>
    <dc:format>image/svg+xml</dc:format>
    <dc:creator>
     <cc:Agent>
      <dc:title>Matplotlib v3.8.4, https://matplotlib.org/</dc:title>
     </cc:Agent>
    </dc:creator>
   </cc:Work>
  </rdf:RDF>
 </metadata>
 <defs>
  <style type="text/css">*{stroke-linejoin: round; stroke-linecap: butt}</style>
 </defs>
 <g id="figure_1">
  <g id="patch_1">
   <path d="M 0 279.674688 
L 294.17125 279.674688 
L 294.17125 0 
L 0 0 
z
" style="fill: #ffffff"/>
  </g>
  <g id="axes_1">
   <g id="patch_2">
    <path d="M 43.78125 242.118437 
L 266.550811 242.118437 
L 266.550811 20.798437 
L 43.78125 20.798437 
z
" style="fill: #ffffff"/>
   </g>
   <g id="PolyCollection_1">
    <defs>
     <path id="m1f017969fa" d="M 62.563174 -221.98699 
L 62.127587 -221.98699 
L 62.070703 -222.441606 
L 62.003028 -222.896221 
L 61.923669 -223.350836 
L 61.831968 -223.805452 
L 61.727579 -224.260067 
L 61.610549 -224.714682 
L 61.481388 -225.169298 
L 61.341114 -225.623913 
L 61.19128 -226.078529 
L 61.033966 -226.533144 
L 60.871734 -226.987759 
L 60.707544 -227.442375 
L 60.544636 -227.89699 
L 60.386368 -228.351605 
L 60.236044 -228.806221 
L 60.096714 -229.260836 
L 59.970982 -229.715451 
L 59.860826 -230.170067 
L 59.767443 -230.624682 
L 59.691145 -231.079297 
L 59.631299 -231.533913 
L 59.58633 -231.988528 
L 59.553781 -232.443143 
L 59.530432 -232.897759 
L 59.512457 -233.352374 
L 59.495615 -233.806989 
L 59.475457 -234.261605 
L 59.447526 -234.71622 
L 59.407535 -235.170835 
L 59.351509 -235.625451 
L 59.27588 -236.080066 
L 59.177532 -236.534681 
L 59.053793 -236.989297 
L 58.902389 -237.443912 
L 58.721365 -237.898527 
L 58.508995 -238.353143 
L 58.263701 -238.807758 
L 57.983992 -239.262374 
L 57.668447 -239.716989 
L 57.315748 -240.171604 
L 56.924776 -240.62622 
L 56.494753 -241.080835 
L 56.025443 -241.53545 
L 55.517384 -241.990066 
L 54.972131 -242.444681 
L 54.392496 -242.899296 
L 53.782752 -243.353912 
L 53.148783 -243.808527 
L 52.498151 -244.263142 
L 51.840071 -244.717758 
L 51.18528 -245.172373 
L 50.545788 -245.626988 
L 49.934528 -246.081604 
L 49.364907 -246.536219 
L 48.85028 -246.990834 
L 48.403382 -247.44545 
L 48.035738 -247.900065 
L 47.757099 -248.35468 
L 47.574944 -248.809296 
L 47.494076 -249.263911 
L 47.516358 -249.718526 
L 47.640595 -250.173142 
L 47.862601 -250.627757 
L 48.175422 -251.082373 
L 48.569729 -251.536988 
L 49.034334 -251.991603 
L 49.556804 -252.446219 
L 50.124119 -252.900834 
L 50.723331 -253.355449 
L 51.342166 -253.810065 
L 51.969537 -254.26468 
L 52.595925 -254.719295 
L 53.213614 -255.173911 
L 53.816768 -255.628526 
L 54.401369 -256.083141 
L 54.965022 -256.537757 
L 55.506671 -256.992372 
L 56.026263 -257.446987 
L 56.524381 -257.901603 
L 57.001912 -258.356218 
L 57.459746 -258.810833 
L 57.898557 -259.265449 
L 58.318658 -259.720064 
L 58.719942 -260.174679 
L 59.101892 -260.629295 
L 59.463663 -261.08391 
L 59.804197 -261.538525 
L 60.122369 -261.993141 
L 60.417129 -262.447756 
L 60.687638 -262.902371 
L 60.933372 -263.356987 
L 61.154197 -263.811602 
L 61.350404 -264.266218 
L 61.522706 -264.720833 
L 61.672207 -265.175448 
L 61.800345 -265.630064 
L 61.908817 -266.084679 
L 61.999496 -266.539294 
L 62.074349 -266.99391 
L 62.616412 -266.99391 
L 62.616412 -266.99391 
L 62.691264 -266.539294 
L 62.781943 -266.084679 
L 62.890415 -265.630064 
L 63.018553 -265.175448 
L 63.168055 -264.720833 
L 63.340356 -264.266218 
L 63.536563 -263.811602 
L 63.757388 -263.356987 
L 64.003122 -262.902371 
L 64.273631 -262.447756 
L 64.568391 -261.993141 
L 64.886563 -261.538525 
L 65.227098 -261.08391 
L 65.588868 -260.629295 
L 65.970819 -260.174679 
L 66.372102 -259.720064 
L 66.792203 -259.265449 
L 67.231015 -258.810833 
L 67.688849 -258.356218 
L 68.166379 -257.901603 
L 68.664497 -257.446987 
L 69.184089 -256.992372 
L 69.725738 -256.537757 
L 70.289391 -256.083141 
L 70.873992 -255.628526 
L 71.477146 -255.173911 
L 72.094835 -254.719295 
L 72.721224 -254.26468 
L 73.348595 -253.810065 
L 73.96743 -253.355449 
L 74.566641 -252.900834 
L 75.133957 -252.446219 
L 75.656426 -251.991603 
L 76.121031 -251.536988 
L 76.515338 -251.082373 
L 76.828159 -250.627757 
L 77.050165 -250.173142 
L 77.174403 -249.718526 
L 77.196684 -249.263911 
L 77.115817 -248.809296 
L 76.933661 -248.35468 
L 76.655022 -247.900065 
L 76.287378 -247.44545 
L 75.84048 -246.990834 
L 75.325854 -246.536219 
L 74.756232 -246.081604 
L 74.144972 -245.626988 
L 73.50548 -245.172373 
L 72.850689 -244.717758 
L 72.192609 -244.263142 
L 71.541977 -243.808527 
L 70.908008 -243.353912 
L 70.298264 -242.899296 
L 69.718629 -242.444681 
L 69.173376 -241.990066 
L 68.665317 -241.53545 
L 68.196008 -241.080835 
L 67.765984 -240.62622 
L 67.375012 -240.171604 
L 67.022314 -239.716989 
L 66.706768 -239.262374 
L 66.427059 -238.807758 
L 66.181765 -238.353143 
L 65.969395 -237.898527 
L 65.788371 -237.443912 
L 65.636967 -236.989297 
L 65.513228 -236.534681 
L 65.41488 -236.080066 
L 65.339251 -235.625451 
L 65.283225 -235.170835 
L 65.243234 -234.71622 
L 65.215303 -234.261605 
L 65.195146 -233.806989 
L 65.178303 -233.352374 
L 65.160328 -232.897759 
L 65.136979 -232.443143 
L 65.104431 -231.988528 
L 65.059461 -231.533913 
L 64.999615 -231.079297 
L 64.923317 -230.624682 
L 64.829934 -230.170067 
L 64.719778 -229.715451 
L 64.594046 -229.260836 
L 64.454716 -228.806221 
L 64.304392 -228.351605 
L 64.146124 -227.89699 
L 63.983216 -227.442375 
L 63.819027 -226.987759 
L 63.656795 -226.533144 
L 63.499481 -226.078529 
L 63.349646 -225.623913 
L 63.209372 -225.169298 
L 63.080211 -224.714682 
L 62.963182 -224.260067 
L 62.858793 -223.805452 
L 62.767091 -223.350836 
L 62.687733 -222.896221 
L 62.620057 -222.441606 
L 62.563174 -221.98699 
z
" style="stroke: #595959; stroke-width: 1.25"/>
    </defs>
    <g clip-path="url(#p4e47cb03bb)">
     <use xlink:href="#m1f017969fa" x="0" y="279.674688" style="fill: #72b6a1; stroke: #595959; stroke-width: 1.25"/>
    </g>
   </g>
   <g id="PolyCollection_2">
    <defs>
     <path id="m901dfa394b" d="M 136.769351 -214.096732 
L 136.43445 -214.096732 
L 136.393521 -214.487191 
L 136.345417 -214.87765 
L 136.28961 -215.268109 
L 136.225698 -215.658568 
L 136.153442 -216.049027 
L 136.072789 -216.439486 
L 135.983896 -216.829945 
L 135.887138 -217.220404 
L 135.783108 -217.610863 
L 135.672596 -218.001321 
L 135.556572 -218.39178 
L 135.436143 -218.782239 
L 135.312513 -219.172698 
L 135.186936 -219.563157 
L 135.060678 -219.953616 
L 134.934974 -220.344075 
L 134.811006 -220.734534 
L 134.689884 -221.124993 
L 134.57265 -221.515452 
L 134.460278 -221.905911 
L 134.353697 -222.29637 
L 134.253803 -222.686829 
L 134.161479 -223.077288 
L 134.077592 -223.467747 
L 134.002982 -223.858206 
L 133.938431 -224.248665 
L 133.884599 -224.639124 
L 133.841952 -225.029583 
L 133.810662 -225.420042 
L 133.7905 -225.8105 
L 133.780724 -226.200959 
L 133.77998 -226.591418 
L 133.786215 -226.981877 
L 133.796628 -227.372336 
L 133.807653 -227.762795 
L 133.814994 -228.153254 
L 133.813698 -228.543713 
L 133.798287 -228.934172 
L 133.762924 -229.324631 
L 133.70162 -229.71509 
L 133.60846 -230.105549 
L 133.477852 -230.496008 
L 133.304762 -230.886467 
L 133.08495 -231.276926 
L 132.815164 -231.667385 
L 132.493315 -232.057844 
L 132.118595 -232.448303 
L 131.691552 -232.838762 
L 131.214117 -233.229221 
L 130.68958 -233.619679 
L 130.122523 -234.010138 
L 129.518716 -234.400597 
L 128.884986 -234.791056 
L 128.229057 -235.181515 
L 127.559389 -235.571974 
L 126.885003 -235.962433 
L 126.215309 -236.352892 
L 125.559934 -236.743351 
L 124.928563 -237.13381 
L 124.330775 -237.524269 
L 123.775891 -237.914728 
L 123.272821 -238.305187 
L 122.829905 -238.695646 
L 122.454765 -239.086105 
L 122.154148 -239.476564 
L 121.933771 -239.867023 
L 121.798176 -240.257482 
L 121.750596 -240.647941 
L 121.792843 -241.0384 
L 121.925218 -241.428858 
L 122.14646 -241.819317 
L 122.453736 -242.209776 
L 122.842676 -242.600235 
L 123.307454 -242.990694 
L 123.840916 -243.381153 
L 124.434754 -243.771612 
L 125.079713 -244.162071 
L 125.765832 -244.55253 
L 126.482703 -244.942989 
L 127.21974 -245.333448 
L 127.96645 -245.723907 
L 128.712693 -246.114366 
L 129.44892 -246.504825 
L 130.166388 -246.895284 
L 130.857332 -247.285743 
L 131.515107 -247.676202 
L 132.134278 -248.066661 
L 132.710671 -248.45712 
L 133.241375 -248.847579 
L 133.724703 -249.238037 
L 134.160123 -249.628496 
L 134.548141 -250.018955 
L 134.890176 -250.409414 
L 135.188406 -250.799873 
L 135.445611 -251.190332 
L 135.665008 -251.580791 
L 135.850097 -251.97125 
L 136.004518 -252.361709 
L 136.131921 -252.752168 
L 137.07188 -252.752168 
L 137.07188 -252.752168 
L 137.199283 -252.361709 
L 137.353704 -251.97125 
L 137.538793 -251.580791 
L 137.75819 -251.190332 
L 138.015395 -250.799873 
L 138.313625 -250.409414 
L 138.65566 -250.018955 
L 139.043678 -249.628496 
L 139.479097 -249.238037 
L 139.962426 -248.847579 
L 140.49313 -248.45712 
L 141.069523 -248.066661 
L 141.688694 -247.676202 
L 142.346469 -247.285743 
L 143.037413 -246.895284 
L 143.754881 -246.504825 
L 144.491108 -246.114366 
L 145.237351 -245.723907 
L 145.984061 -245.333448 
L 146.721098 -244.942989 
L 147.437969 -244.55253 
L 148.124088 -244.162071 
L 148.769047 -243.771612 
L 149.362885 -243.381153 
L 149.896347 -242.990694 
L 150.361125 -242.600235 
L 150.750065 -242.209776 
L 151.057341 -241.819317 
L 151.278583 -241.428858 
L 151.410957 -241.0384 
L 151.453205 -240.647941 
L 151.405625 -240.257482 
L 151.27003 -239.867023 
L 151.049653 -239.476564 
L 150.749036 -239.086105 
L 150.373896 -238.695646 
L 149.93098 -238.305187 
L 149.427909 -237.914728 
L 148.873026 -237.524269 
L 148.275238 -237.13381 
L 147.643867 -236.743351 
L 146.988492 -236.352892 
L 146.318798 -235.962433 
L 145.644412 -235.571974 
L 144.974744 -235.181515 
L 144.318815 -234.791056 
L 143.685085 -234.400597 
L 143.081278 -234.010138 
L 142.514221 -233.619679 
L 141.989684 -233.229221 
L 141.512249 -232.838762 
L 141.085206 -232.448303 
L 140.710486 -232.057844 
L 140.388637 -231.667385 
L 140.118851 -231.276926 
L 139.899039 -230.886467 
L 139.725949 -230.496008 
L 139.595341 -230.105549 
L 139.502181 -229.71509 
L 139.440877 -229.324631 
L 139.405514 -228.934172 
L 139.390103 -228.543713 
L 139.388807 -228.153254 
L 139.396148 -227.762795 
L 139.407173 -227.372336 
L 139.417586 -226.981877 
L 139.423821 -226.591418 
L 139.423077 -226.200959 
L 139.413301 -225.8105 
L 139.393139 -225.420042 
L 139.361849 -225.029583 
L 139.319202 -224.639124 
L 139.26537 -224.248665 
L 139.200819 -223.858206 
L 139.126209 -223.467747 
L 139.042322 -223.077288 
L 138.949998 -222.686829 
L 138.850104 -222.29637 
L 138.743523 -221.905911 
L 138.631151 -221.515452 
L 138.513916 -221.124993 
L 138.392795 -220.734534 
L 138.268827 -220.344075 
L 138.143123 -219.953616 
L 138.016865 -219.563157 
L 137.891288 -219.172698 
L 137.767658 -218.782239 
L 137.647229 -218.39178 
L 137.531205 -218.001321 
L 137.420693 -217.610863 
L 137.316663 -217.220404 
L 137.219905 -216.829945 
L 137.131012 -216.439486 
L 137.050359 -216.049027 
L 136.978103 -215.658568 
L 136.914191 -215.268109 
L 136.858384 -214.87765 
L 136.81028 -214.487191 
L 136.769351 -214.096732 
z
" style="stroke: #595959; stroke-width: 1.25"/>
    </defs>
    <g clip-path="url(#p4e47cb03bb)">
     <use xlink:href="#m901dfa394b" x="0" y="279.674688" style="fill: #95a3c3; stroke: #595959; stroke-width: 1.25"/>
    </g>
   </g>
   <g id="PolyCollection_3">
    <defs>
     <path id="m40c7bfeb3d" d="M 173.928191 -176.042803 
L 173.53213 -176.042803 
L 173.48205 -176.598429 
L 173.422998 -177.154054 
L 173.354346 -177.709679 
L 173.275647 -178.265304 
L 173.18667 -178.820929 
L 173.087424 -179.376555 
L 172.978168 -179.93218 
L 172.859388 -180.487805 
L 172.731754 -181.04343 
L 172.596049 -181.599055 
L 172.453074 -182.15468 
L 172.303531 -182.710306 
L 172.147895 -183.265931 
L 171.986284 -183.821556 
L 171.818342 -184.377181 
L 171.643143 -184.932806 
L 171.459125 -185.488432 
L 171.264076 -186.044057 
L 171.055166 -186.599682 
L 170.829034 -187.155307 
L 170.581927 -187.710932 
L 170.309889 -188.266557 
L 170.008977 -188.822183 
L 169.67551 -189.377808 
L 169.306322 -189.933433 
L 168.899006 -190.489058 
L 168.452138 -191.044683 
L 167.965463 -191.600309 
L 167.440036 -192.155934 
L 166.878305 -192.711559 
L 166.284143 -193.267184 
L 165.662809 -193.822809 
L 165.020869 -194.378434 
L 164.366053 -194.93406 
L 163.707076 -195.489685 
L 163.053414 -196.04531 
L 162.415059 -196.600935 
L 161.80225 -197.15656 
L 161.225182 -197.712186 
L 160.693718 -198.267811 
L 160.217095 -198.823436 
L 159.803632 -199.379061 
L 159.460462 -199.934686 
L 159.193281 -200.490311 
L 159.006129 -201.045937 
L 158.901227 -201.601562 
L 158.878857 -202.157187 
L 158.937318 -202.712812 
L 159.072953 -203.268437 
L 159.280257 -203.824063 
L 159.552066 -204.379688 
L 159.879821 -204.935313 
L 160.2539 -205.490938 
L 160.664005 -206.046563 
L 161.099576 -206.602189 
L 161.550215 -207.157814 
L 162.006104 -207.713439 
L 162.45837 -208.269064 
L 162.899403 -208.824689 
L 163.323089 -209.380314 
L 163.724956 -209.93594 
L 164.102221 -210.491565 
L 164.453749 -211.04719 
L 164.779926 -211.602815 
L 165.082458 -212.15844 
L 165.364122 -212.714066 
L 165.628488 -213.269691 
L 165.879623 -213.825316 
L 166.121819 -214.380941 
L 166.35933 -214.936566 
L 166.596162 -215.492191 
L 166.835894 -216.047817 
L 167.081558 -216.603442 
L 167.335543 -217.159067 
L 167.599557 -217.714692 
L 167.874606 -218.270317 
L 168.161002 -218.825943 
L 168.458388 -219.381568 
L 168.765781 -219.937193 
L 169.081624 -220.492818 
L 169.403853 -221.048443 
L 169.729974 -221.604068 
L 170.057156 -222.159694 
L 170.382335 -222.715319 
L 170.702328 -223.270944 
L 171.013956 -223.826569 
L 171.314169 -224.382194 
L 171.600161 -224.93782 
L 171.86948 -225.493445 
L 172.120117 -226.04907 
L 172.350565 -226.604695 
L 172.559859 -227.16032 
L 172.747579 -227.715945 
L 172.913832 -228.271571 
L 173.0592 -228.827196 
L 173.184676 -229.382821 
L 173.291583 -229.938446 
L 173.381484 -230.494071 
L 173.456099 -231.049697 
L 174.004222 -231.049697 
L 174.004222 -231.049697 
L 174.078837 -230.494071 
L 174.168739 -229.938446 
L 174.275645 -229.382821 
L 174.401121 -228.827196 
L 174.546489 -228.271571 
L 174.712742 -227.715945 
L 174.900463 -227.16032 
L 175.109756 -226.604695 
L 175.340204 -226.04907 
L 175.590841 -225.493445 
L 175.860161 -224.93782 
L 176.146152 -224.382194 
L 176.446365 -223.826569 
L 176.757993 -223.270944 
L 177.077986 -222.715319 
L 177.403165 -222.159694 
L 177.730347 -221.604068 
L 178.056468 -221.048443 
L 178.378697 -220.492818 
L 178.694541 -219.937193 
L 179.001934 -219.381568 
L 179.299319 -218.825943 
L 179.585715 -218.270317 
L 179.860764 -217.714692 
L 180.124779 -217.159067 
L 180.378764 -216.603442 
L 180.624427 -216.047817 
L 180.86416 -215.492191 
L 181.100991 -214.936566 
L 181.338502 -214.380941 
L 181.580698 -213.825316 
L 181.831834 -213.269691 
L 182.096199 -212.714066 
L 182.377863 -212.15844 
L 182.680395 -211.602815 
L 183.006572 -211.04719 
L 183.358101 -210.491565 
L 183.735365 -209.93594 
L 184.137232 -209.380314 
L 184.560918 -208.824689 
L 185.001952 -208.269064 
L 185.454217 -207.713439 
L 185.910106 -207.157814 
L 186.360746 -206.602189 
L 186.796316 -206.046563 
L 187.206421 -205.490938 
L 187.580501 -204.935313 
L 187.908255 -204.379688 
L 188.180064 -203.824063 
L 188.387368 -203.268437 
L 188.523004 -202.712812 
L 188.581465 -202.157187 
L 188.559095 -201.601562 
L 188.454193 -201.045937 
L 188.267041 -200.490311 
L 187.999859 -199.934686 
L 187.656689 -199.379061 
L 187.243226 -198.823436 
L 186.766603 -198.267811 
L 186.23514 -197.712186 
L 185.658072 -197.15656 
L 185.045262 -196.600935 
L 184.406908 -196.04531 
L 183.753245 -195.489685 
L 183.094268 -194.93406 
L 182.439452 -194.378434 
L 181.797513 -193.822809 
L 181.176179 -193.267184 
L 180.582016 -192.711559 
L 180.020286 -192.155934 
L 179.494859 -191.600309 
L 179.008184 -191.044683 
L 178.561315 -190.489058 
L 178.153999 -189.933433 
L 177.784811 -189.377808 
L 177.451344 -188.822183 
L 177.150432 -188.266557 
L 176.878394 -187.710932 
L 176.631288 -187.155307 
L 176.405156 -186.599682 
L 176.196245 -186.044057 
L 176.001196 -185.488432 
L 175.817178 -184.932806 
L 175.641979 -184.377181 
L 175.474038 -183.821556 
L 175.312427 -183.265931 
L 175.15679 -182.710306 
L 175.007247 -182.15468 
L 174.864272 -181.599055 
L 174.728567 -181.04343 
L 174.600933 -180.487805 
L 174.482153 -179.93218 
L 174.372897 -179.376555 
L 174.273652 -178.820929 
L 174.184674 -178.265304 
L 174.105975 -177.709679 
L 174.037324 -177.154054 
L 173.978272 -176.598429 
L 173.928191 -176.042803 
z
" style="stroke: #595959; stroke-width: 1.25"/>
    </defs>
    <g clip-path="url(#p4e47cb03bb)">
     <use xlink:href="#m40c7bfeb3d" x="0" y="279.674688" style="fill: #db96c0; stroke: #595959; stroke-width: 1.25"/>
    </g>
   </g>
   <g id="PolyCollection_4">
    <defs>
     <path id="me16966662b" d="M 211.081774 -174.185258 
L 210.635067 -174.185258 
L 210.578947 -174.934899 
L 210.512199 -175.684539 
L 210.433683 -176.434179 
L 210.342312 -177.183819 
L 210.237092 -177.93346 
L 210.117144 -178.6831 
L 209.981731 -179.43274 
L 209.830275 -180.18238 
L 209.662364 -180.932021 
L 209.477754 -181.681661 
L 209.276359 -182.431301 
L 209.058245 -183.180941 
L 208.823612 -183.930581 
L 208.572795 -184.680222 
L 208.306257 -185.429862 
L 208.024606 -186.179502 
L 207.728616 -186.929142 
L 207.419272 -187.678783 
L 207.097816 -188.428423 
L 206.76581 -189.178063 
L 206.425188 -189.927703 
L 206.078305 -190.677344 
L 205.727961 -191.426984 
L 205.377391 -192.176624 
L 205.030217 -192.926264 
L 204.690349 -193.675905 
L 204.361839 -194.425545 
L 204.048684 -195.175185 
L 203.754594 -195.924825 
L 203.482733 -196.674465 
L 203.235457 -197.424106 
L 203.014067 -198.173746 
L 202.818598 -198.923386 
L 202.647677 -199.673026 
L 202.498456 -200.422667 
L 202.366646 -201.172307 
L 202.24665 -201.921947 
L 202.131805 -202.671587 
L 202.014709 -203.421228 
L 201.887634 -204.170868 
L 201.74298 -204.920508 
L 201.573763 -205.670148 
L 201.37408 -206.419788 
L 201.139536 -207.169429 
L 200.867596 -207.919069 
L 200.557827 -208.668709 
L 200.21203 -209.418349 
L 199.834228 -210.16799 
L 199.430535 -210.91763 
L 199.008893 -211.66727 
L 198.578706 -212.41691 
L 198.150401 -213.166551 
L 197.734942 -213.916191 
L 197.343324 -214.665831 
L 196.986097 -215.415471 
L 196.67294 -216.165112 
L 196.412311 -216.914752 
L 196.211186 -217.664392 
L 196.074905 -218.414032 
L 196.007117 -219.163672 
L 196.00981 -219.913313 
L 196.083422 -220.662953 
L 196.226995 -221.412593 
L 196.438375 -222.162233 
L 196.714404 -222.911874 
L 197.051121 -223.661514 
L 197.443928 -224.411154 
L 197.887735 -225.160794 
L 198.377078 -225.910435 
L 198.906198 -226.660075 
L 199.469115 -227.409715 
L 200.059684 -228.159355 
L 200.671647 -228.908995 
L 201.298697 -229.658636 
L 201.934547 -230.408276 
L 202.573016 -231.157916 
L 203.208116 -231.907556 
L 203.834158 -232.657197 
L 204.445845 -233.406837 
L 205.038369 -234.156477 
L 205.607487 -234.906117 
L 206.149587 -235.655758 
L 206.661723 -236.405398 
L 207.141634 -237.155038 
L 207.587743 -237.904678 
L 207.999127 -238.654319 
L 208.375476 -239.403959 
L 208.717039 -240.153599 
L 209.024562 -240.903239 
L 209.299211 -241.652879 
L 209.542509 -242.40252 
L 209.756257 -243.15216 
L 209.942469 -243.9018 
L 210.103304 -244.65144 
L 210.241005 -245.401081 
L 210.357845 -246.150721 
L 210.456077 -246.900361 
L 210.537891 -247.650001 
L 210.605377 -248.399642 
L 211.111465 -248.399642 
L 211.111465 -248.399642 
L 211.178951 -247.650001 
L 211.260765 -246.900361 
L 211.358997 -246.150721 
L 211.475837 -245.401081 
L 211.613538 -244.65144 
L 211.774372 -243.9018 
L 211.960584 -243.15216 
L 212.174333 -242.40252 
L 212.41763 -241.652879 
L 212.69228 -240.903239 
L 212.999802 -240.153599 
L 213.341366 -239.403959 
L 213.717715 -238.654319 
L 214.129098 -237.904678 
L 214.575207 -237.155038 
L 215.055119 -236.405398 
L 215.567254 -235.655758 
L 216.109354 -234.906117 
L 216.678473 -234.156477 
L 217.270997 -233.406837 
L 217.882684 -232.657197 
L 218.508725 -231.907556 
L 219.143826 -231.157916 
L 219.782294 -230.408276 
L 220.418145 -229.658636 
L 221.045195 -228.908995 
L 221.657158 -228.159355 
L 222.247727 -227.409715 
L 222.810644 -226.660075 
L 223.339764 -225.910435 
L 223.829106 -225.160794 
L 224.272914 -224.411154 
L 224.665721 -223.661514 
L 225.002437 -222.911874 
L 225.278467 -222.162233 
L 225.489846 -221.412593 
L 225.63342 -220.662953 
L 225.707031 -219.913313 
L 225.709725 -219.163672 
L 225.641937 -218.414032 
L 225.505656 -217.664392 
L 225.304531 -216.914752 
L 225.043901 -216.165112 
L 224.730745 -215.415471 
L 224.373518 -214.665831 
L 223.9819 -213.916191 
L 223.56644 -213.166551 
L 223.138136 -212.41691 
L 222.707949 -211.66727 
L 222.286306 -210.91763 
L 221.882614 -210.16799 
L 221.504812 -209.418349 
L 221.159015 -208.668709 
L 220.849246 -207.919069 
L 220.577306 -207.169429 
L 220.342762 -206.419788 
L 220.143079 -205.670148 
L 219.973862 -204.920508 
L 219.829208 -204.170868 
L 219.702132 -203.421228 
L 219.585037 -202.671587 
L 219.470191 -201.921947 
L 219.350196 -201.172307 
L 219.218386 -200.422667 
L 219.069165 -199.673026 
L 218.898243 -198.923386 
L 218.702775 -198.173746 
L 218.481384 -197.424106 
L 218.234109 -196.674465 
L 217.962248 -195.924825 
L 217.668158 -195.175185 
L 217.355002 -194.425545 
L 217.026492 -193.675905 
L 216.686625 -192.926264 
L 216.33945 -192.176624 
L 215.988881 -191.426984 
L 215.638536 -190.677344 
L 215.291654 -189.927703 
L 214.951032 -189.178063 
L 214.619026 -188.428423 
L 214.29757 -187.678783 
L 213.988226 -186.929142 
L 213.692236 -186.179502 
L 213.410584 -185.429862 
L 213.144047 -184.680222 
L 212.89323 -183.930581 
L 212.658597 -183.180941 
L 212.440482 -182.431301 
L 212.239088 -181.681661 
L 212.054477 -180.932021 
L 211.886567 -180.18238 
L 211.735111 -179.43274 
L 211.599698 -178.6831 
L 211.479749 -177.93346 
L 211.374529 -177.183819 
L 211.283159 -176.434179 
L 211.204643 -175.684539 
L 211.137895 -174.934899 
L 211.081774 -174.185258 
z
" style="stroke: #595959; stroke-width: 1.25"/>
    </defs>
    <g clip-path="url(#p4e47cb03bb)">
     <use xlink:href="#me16966662b" x="0" y="279.674688" style="fill: #a2c865; stroke: #595959; stroke-width: 1.25"/>
    </g>
   </g>
   <g id="PolyCollection_5">
    <defs>
     <path id="m8a1bccd75e" d="M 248.20424 -163.671734 
L 247.769122 -163.671734 
L 247.715991 -164.611414 
L 247.653334 -165.551093 
L 247.58035 -166.490772 
L 247.496389 -167.430451 
L 247.401003 -168.37013 
L 247.293999 -169.309809 
L 247.175488 -170.249488 
L 247.045914 -171.189167 
L 246.906079 -172.128846 
L 246.757145 -173.068525 
L 246.600612 -174.008205 
L 246.43828 -174.947884 
L 246.272179 -175.887563 
L 246.104485 -176.827242 
L 245.937411 -177.766921 
L 245.773087 -178.7066 
L 245.613441 -179.646279 
L 245.460067 -180.585958 
L 245.31412 -181.525637 
L 245.176217 -182.465316 
L 245.046377 -183.404996 
L 244.923986 -184.344675 
L 244.807805 -185.284354 
L 244.69602 -186.224033 
L 244.586321 -187.163712 
L 244.476027 -188.103391 
L 244.36223 -189.04307 
L 244.241953 -189.982749 
L 244.112326 -190.922428 
L 243.970735 -191.862108 
L 243.814971 -192.801787 
L 243.643342 -193.741466 
L 243.45474 -194.681145 
L 243.248684 -195.620824 
L 243.025301 -196.560503 
L 242.785279 -197.500182 
L 242.529776 -198.439861 
L 242.260309 -199.37954 
L 241.978619 -200.319219 
L 241.686533 -201.258899 
L 241.385833 -202.198578 
L 241.078136 -203.138257 
L 240.764801 -204.077936 
L 240.446859 -205.017615 
L 240.124985 -205.957294 
L 239.79949 -206.896973 
L 239.470355 -207.836652 
L 239.137292 -208.776331 
L 238.79982 -209.71601 
L 238.457375 -210.65569 
L 238.10942 -211.595369 
L 237.755577 -212.535048 
L 237.395752 -213.474727 
L 237.030264 -214.414406 
L 236.659973 -215.354085 
L 236.286384 -216.293764 
L 235.911748 -217.233443 
L 235.539124 -218.173122 
L 235.172428 -219.112801 
L 234.816431 -220.052481 
L 234.476721 -220.99216 
L 234.159622 -221.931839 
L 233.872056 -222.871518 
L 233.621367 -223.811197 
L 233.415091 -224.750876 
L 233.2607 -225.690555 
L 233.165309 -226.630234 
L 233.135377 -227.569913 
L 233.176405 -228.509592 
L 233.292656 -229.449272 
L 233.486914 -230.388951 
L 233.760281 -231.32863 
L 234.112052 -232.268309 
L 234.539657 -233.207988 
L 235.038676 -234.147667 
L 235.602948 -235.087346 
L 236.22474 -236.027025 
L 236.894991 -236.966704 
L 237.603613 -237.906384 
L 238.339824 -238.846063 
L 239.092513 -239.785742 
L 239.850598 -240.725421 
L 240.603377 -241.6651 
L 241.340848 -242.604779 
L 242.053986 -243.544458 
L 242.734955 -244.484137 
L 243.377272 -245.423816 
L 243.975895 -246.363495 
L 244.527249 -247.303175 
L 245.029193 -248.242854 
L 245.480929 -249.182533 
L 245.882876 -250.122212 
L 246.236502 -251.061891 
L 246.54414 -252.00157 
L 246.808796 -252.941249 
L 247.033953 -253.880928 
L 247.22339 -254.820607 
L 247.381016 -255.760286 
L 247.510731 -256.699966 
L 248.462631 -256.699966 
L 248.462631 -256.699966 
L 248.592346 -255.760286 
L 248.749972 -254.820607 
L 248.939409 -253.880928 
L 249.164566 -252.941249 
L 249.429222 -252.00157 
L 249.73686 -251.061891 
L 250.090486 -250.122212 
L 250.492433 -249.182533 
L 250.94417 -248.242854 
L 251.446113 -247.303175 
L 251.997467 -246.363495 
L 252.59609 -245.423816 
L 253.238407 -244.484137 
L 253.919376 -243.544458 
L 254.632514 -242.604779 
L 255.369985 -241.6651 
L 256.122764 -240.725421 
L 256.880849 -239.785742 
L 257.633538 -238.846063 
L 258.369749 -237.906384 
L 259.078371 -236.966704 
L 259.748622 -236.027025 
L 260.370414 -235.087346 
L 260.934686 -234.147667 
L 261.433705 -233.207988 
L 261.86131 -232.268309 
L 262.213081 -231.32863 
L 262.486448 -230.388951 
L 262.680706 -229.449272 
L 262.796958 -228.509592 
L 262.837985 -227.569913 
L 262.808053 -226.630234 
L 262.712662 -225.690555 
L 262.558271 -224.750876 
L 262.351995 -223.811197 
L 262.101306 -222.871518 
L 261.81374 -221.931839 
L 261.496641 -220.99216 
L 261.156931 -220.052481 
L 260.800934 -219.112801 
L 260.434238 -218.173122 
L 260.061615 -217.233443 
L 259.686978 -216.293764 
L 259.313389 -215.354085 
L 258.943098 -214.414406 
L 258.57761 -213.474727 
L 258.217785 -212.535048 
L 257.863942 -211.595369 
L 257.515987 -210.65569 
L 257.173542 -209.71601 
L 256.83607 -208.776331 
L 256.503007 -207.836652 
L 256.173872 -206.896973 
L 255.848377 -205.957294 
L 255.526503 -205.017615 
L 255.208561 -204.077936 
L 254.895226 -203.138257 
L 254.587529 -202.198578 
L 254.286829 -201.258899 
L 253.994743 -200.319219 
L 253.713053 -199.37954 
L 253.443586 -198.439861 
L 253.188083 -197.500182 
L 252.948061 -196.560503 
L 252.724678 -195.620824 
L 252.518622 -194.681145 
L 252.33002 -193.741466 
L 252.158391 -192.801787 
L 252.002627 -191.862108 
L 251.861036 -190.922428 
L 251.731409 -189.982749 
L 251.611132 -189.04307 
L 251.497335 -188.103391 
L 251.387041 -187.163712 
L 251.277342 -186.224033 
L 251.165557 -185.284354 
L 251.049376 -184.344675 
L 250.926985 -183.404996 
L 250.797145 -182.465316 
L 250.659242 -181.525637 
L 250.513295 -180.585958 
L 250.359921 -179.646279 
L 250.200275 -178.7066 
L 250.035951 -177.766921 
L 249.868877 -176.827242 
L 249.701183 -175.887563 
L 249.535082 -174.947884 
L 249.37275 -174.008205 
L 249.216217 -173.068525 
L 249.067283 -172.128846 
L 248.927448 -171.189167 
L 248.797874 -170.249488 
L 248.679363 -169.309809 
L 248.572359 -168.37013 
L 248.476973 -167.430451 
L 248.393012 -166.490772 
L 248.320028 -165.551093 
L 248.257371 -164.611414 
L 248.20424 -163.671734 
z
" style="stroke: #595959; stroke-width: 1.25"/>
    </defs>
    <g clip-path="url(#p4e47cb03bb)">
     <use xlink:href="#m8a1bccd75e" x="0" y="279.674688" style="fill: #e5c849; stroke: #595959; stroke-width: 1.25"/>
    </g>
   </g>
   <g id="matplotlib.axis_1">
    <g id="xtick_1">
     <g id="line2d_1">
      <defs>
       <path id="ma26edfe2f6" d="M 0 0 
L 0 3.5 
" style="stroke: #000000; stroke-width: 0.8"/>
      </defs>
      <g>
       <use xlink:href="#ma26edfe2f6" x="62.34538" y="242.118437" style="stroke: #000000; stroke-width: 0.8"/>
      </g>
     </g>
     <g id="text_1">
      <!-- 1 -->
      <g transform="translate(59.16413 256.716875) scale(0.1 -0.1)">
       <defs>
        <path id="DejaVuSans-31" d="M 794 531 
L 1825 531 
L 1825 4091 
L 703 3866 
L 703 4441 
L 1819 4666 
L 2450 4666 
L 2450 531 
L 3481 531 
L 3481 0 
L 794 0 
L 794 531 
z
" transform="scale(0.015625)"/>
       </defs>
       <use xlink:href="#DejaVuSans-31"/>
      </g>
     </g>
    </g>
    <g id="xtick_2">
     <g id="line2d_2">
      <g>
       <use xlink:href="#ma26edfe2f6" x="99.47364" y="242.118437" style="stroke: #000000; stroke-width: 0.8"/>
      </g>
     </g>
     <g id="text_2">
      <!-- 2 -->
      <g transform="translate(96.29239 256.716875) scale(0.1 -0.1)">
       <defs>
        <path id="DejaVuSans-32" d="M 1228 531 
L 3431 531 
L 3431 0 
L 469 0 
L 469 531 
Q 828 903 1448 1529 
Q 2069 2156 2228 2338 
Q 2531 2678 2651 2914 
Q 2772 3150 2772 3378 
Q 2772 3750 2511 3984 
Q 2250 4219 1831 4219 
Q 1534 4219 1204 4116 
Q 875 4013 500 3803 
L 500 4441 
Q 881 4594 1212 4672 
Q 1544 4750 1819 4750 
Q 2544 4750 2975 4387 
Q 3406 4025 3406 3419 
Q 3406 3131 3298 2873 
Q 3191 2616 2906 2266 
Q 2828 2175 2409 1742 
Q 1991 1309 1228 531 
z
" transform="scale(0.015625)"/>
       </defs>
       <use xlink:href="#DejaVuSans-32"/>
      </g>
     </g>
    </g>
    <g id="xtick_3">
     <g id="line2d_3">
      <g>
       <use xlink:href="#ma26edfe2f6" x="136.6019" y="242.118437" style="stroke: #000000; stroke-width: 0.8"/>
      </g>
     </g>
     <g id="text_3">
      <!-- 3 -->
      <g transform="translate(133.42065 256.716875) scale(0.1 -0.1)">
       <defs>
        <path id="DejaVuSans-33" d="M 2597 2516 
Q 3050 2419 3304 2112 
Q 3559 1806 3559 1356 
Q 3559 666 3084 287 
Q 2609 -91 1734 -91 
Q 1441 -91 1130 -33 
Q 819 25 488 141 
L 488 750 
Q 750 597 1062 519 
Q 1375 441 1716 441 
Q 2309 441 2620 675 
Q 2931 909 2931 1356 
Q 2931 1769 2642 2001 
Q 2353 2234 1838 2234 
L 1294 2234 
L 1294 2753 
L 1863 2753 
Q 2328 2753 2575 2939 
Q 2822 3125 2822 3475 
Q 2822 3834 2567 4026 
Q 2313 4219 1838 4219 
Q 1578 4219 1281 4162 
Q 984 4106 628 3988 
L 628 4550 
Q 988 4650 1302 4700 
Q 1616 4750 1894 4750 
Q 2613 4750 3031 4423 
Q 3450 4097 3450 3541 
Q 3450 3153 3228 2886 
Q 3006 2619 2597 2516 
z
" transform="scale(0.015625)"/>
       </defs>
       <use xlink:href="#DejaVuSans-33"/>
      </g>
     </g>
    </g>
    <g id="xtick_4">
     <g id="line2d_4">
      <g>
       <use xlink:href="#ma26edfe2f6" x="173.730161" y="242.118437" style="stroke: #000000; stroke-width: 0.8"/>
      </g>
     </g>
     <g id="text_4">
      <!-- 4 -->
      <g transform="translate(170.548911 256.716875) scale(0.1 -0.1)">
       <defs>
        <path id="DejaVuSans-34" d="M 2419 4116 
L 825 1625 
L 2419 1625 
L 2419 4116 
z
M 2253 4666 
L 3047 4666 
L 3047 1625 
L 3713 1625 
L 3713 1100 
L 3047 1100 
L 3047 0 
L 2419 0 
L 2419 1100 
L 313 1100 
L 313 1709 
L 2253 4666 
z
" transform="scale(0.015625)"/>
       </defs>
       <use xlink:href="#DejaVuSans-34"/>
      </g>
     </g>
    </g>
    <g id="xtick_5">
     <g id="line2d_5">
      <g>
       <use xlink:href="#ma26edfe2f6" x="210.858421" y="242.118437" style="stroke: #000000; stroke-width: 0.8"/>
      </g>
     </g>
     <g id="text_5">
      <!-- 5 -->
      <g transform="translate(207.677171 256.716875) scale(0.1 -0.1)">
       <defs>
        <path id="DejaVuSans-35" d="M 691 4666 
L 3169 4666 
L 3169 4134 
L 1269 4134 
L 1269 2991 
Q 1406 3038 1543 3061 
Q 1681 3084 1819 3084 
Q 2600 3084 3056 2656 
Q 3513 2228 3513 1497 
Q 3513 744 3044 326 
Q 2575 -91 1722 -91 
Q 1428 -91 1123 -41 
Q 819 9 494 109 
L 494 744 
Q 775 591 1075 516 
Q 1375 441 1709 441 
Q 2250 441 2565 725 
Q 2881 1009 2881 1497 
Q 2881 1984 2565 2268 
Q 2250 2553 1709 2553 
Q 1456 2553 1204 2497 
Q 953 2441 691 2322 
L 691 4666 
z
" transform="scale(0.015625)"/>
       </defs>
       <use xlink:href="#DejaVuSans-35"/>
      </g>
     </g>
    </g>
    <g id="xtick_6">
     <g id="line2d_6">
      <g>
       <use xlink:href="#ma26edfe2f6" x="247.986681" y="242.118437" style="stroke: #000000; stroke-width: 0.8"/>
      </g>
     </g>
     <g id="text_6">
      <!-- 6 -->
      <g transform="translate(244.805431 256.716875) scale(0.1 -0.1)">
       <defs>
        <path id="DejaVuSans-36" d="M 2113 2584 
Q 1688 2584 1439 2293 
Q 1191 2003 1191 1497 
Q 1191 994 1439 701 
Q 1688 409 2113 409 
Q 2538 409 2786 701 
Q 3034 994 3034 1497 
Q 3034 2003 2786 2293 
Q 2538 2584 2113 2584 
z
M 3366 4563 
L 3366 3988 
Q 3128 4100 2886 4159 
Q 2644 4219 2406 4219 
Q 1781 4219 1451 3797 
Q 1122 3375 1075 2522 
Q 1259 2794 1537 2939 
Q 1816 3084 2150 3084 
Q 2853 3084 3261 2657 
Q 3669 2231 3669 1497 
Q 3669 778 3244 343 
Q 2819 -91 2113 -91 
Q 1303 -91 875 529 
Q 447 1150 447 2328 
Q 447 3434 972 4092 
Q 1497 4750 2381 4750 
Q 2619 4750 2861 4703 
Q 3103 4656 3366 4563 
z
" transform="scale(0.015625)"/>
       </defs>
       <use xlink:href="#DejaVuSans-36"/>
      </g>
     </g>
    </g>
    <g id="text_7">
     <!-- Layer -->
     <g transform="translate(141.224624 270.395) scale(0.1 -0.1)">
      <defs>
       <path id="DejaVuSans-4c" d="M 628 4666 
L 1259 4666 
L 1259 531 
L 3531 531 
L 3531 0 
L 628 0 
L 628 4666 
z
" transform="scale(0.015625)"/>
       <path id="DejaVuSans-61" d="M 2194 1759 
Q 1497 1759 1228 1600 
Q 959 1441 959 1056 
Q 959 750 1161 570 
Q 1363 391 1709 391 
Q 2188 391 2477 730 
Q 2766 1069 2766 1631 
L 2766 1759 
L 2194 1759 
z
M 3341 1997 
L 3341 0 
L 2766 0 
L 2766 531 
Q 2569 213 2275 61 
Q 1981 -91 1556 -91 
Q 1019 -91 701 211 
Q 384 513 384 1019 
Q 384 1609 779 1909 
Q 1175 2209 1959 2209 
L 2766 2209 
L 2766 2266 
Q 2766 2663 2505 2880 
Q 2244 3097 1772 3097 
Q 1472 3097 1187 3025 
Q 903 2953 641 2809 
L 641 3341 
Q 956 3463 1253 3523 
Q 1550 3584 1831 3584 
Q 2591 3584 2966 3190 
Q 3341 2797 3341 1997 
z
" transform="scale(0.015625)"/>
       <path id="DejaVuSans-79" d="M 2059 -325 
Q 1816 -950 1584 -1140 
Q 1353 -1331 966 -1331 
L 506 -1331 
L 506 -850 
L 844 -850 
Q 1081 -850 1212 -737 
Q 1344 -625 1503 -206 
L 1606 56 
L 191 3500 
L 800 3500 
L 1894 763 
L 2988 3500 
L 3597 3500 
L 2059 -325 
z
" transform="scale(0.015625)"/>
       <path id="DejaVuSans-65" d="M 3597 1894 
L 3597 1613 
L 953 1613 
Q 991 1019 1311 708 
Q 1631 397 2203 397 
Q 2534 397 2845 478 
Q 3156 559 3463 722 
L 3463 178 
Q 3153 47 2828 -22 
Q 2503 -91 2169 -91 
Q 1331 -91 842 396 
Q 353 884 353 1716 
Q 353 2575 817 3079 
Q 1281 3584 2069 3584 
Q 2775 3584 3186 3129 
Q 3597 2675 3597 1894 
z
M 3022 2063 
Q 3016 2534 2758 2815 
Q 2500 3097 2075 3097 
Q 1594 3097 1305 2825 
Q 1016 2553 972 2059 
L 3022 2063 
z
" transform="scale(0.015625)"/>
       <path id="DejaVuSans-72" d="M 2631 2963 
Q 2534 3019 2420 3045 
Q 2306 3072 2169 3072 
Q 1681 3072 1420 2755 
Q 1159 2438 1159 1844 
L 1159 0 
L 581 0 
L 581 3500 
L 1159 3500 
L 1159 2956 
Q 1341 3275 1631 3429 
Q 1922 3584 2338 3584 
Q 2397 3584 2469 3576 
Q 2541 3569 2628 3553 
L 2631 2963 
z
" transform="scale(0.015625)"/>
      </defs>
      <use xlink:href="#DejaVuSans-4c"/>
      <use xlink:href="#DejaVuSans-61" x="55.712891"/>
      <use xlink:href="#DejaVuSans-79" x="116.992188"/>
      <use xlink:href="#DejaVuSans-65" x="176.171875"/>
      <use xlink:href="#DejaVuSans-72" x="237.695312"/>
     </g>
    </g>
   </g>
   <g id="matplotlib.axis_2">
    <g id="ytick_1">
     <g id="line2d_7">
      <defs>
       <path id="m05a0ef1a43" d="M 0 0 
L -3.5 0 
" style="stroke: #000000; stroke-width: 0.8"/>
      </defs>
      <g>
       <use xlink:href="#m05a0ef1a43" x="43.78125" y="242.118437" style="stroke: #000000; stroke-width: 0.8"/>
      </g>
     </g>
     <g id="text_8">
      <!-- 0.0 -->
      <g transform="translate(20.878125 245.917656) scale(0.1 -0.1)">
       <defs>
        <path id="DejaVuSans-30" d="M 2034 4250 
Q 1547 4250 1301 3770 
Q 1056 3291 1056 2328 
Q 1056 1369 1301 889 
Q 1547 409 2034 409 
Q 2525 409 2770 889 
Q 3016 1369 3016 2328 
Q 3016 3291 2770 3770 
Q 2525 4250 2034 4250 
z
M 2034 4750 
Q 2819 4750 3233 4129 
Q 3647 3509 3647 2328 
Q 3647 1150 3233 529 
Q 2819 -91 2034 -91 
Q 1250 -91 836 529 
Q 422 1150 422 2328 
Q 422 3509 836 4129 
Q 1250 4750 2034 4750 
z
" transform="scale(0.015625)"/>
        <path id="DejaVuSans-2e" d="M 684 794 
L 1344 794 
L 1344 0 
L 684 0 
L 684 794 
z
" transform="scale(0.015625)"/>
       </defs>
       <use xlink:href="#DejaVuSans-30"/>
       <use xlink:href="#DejaVuSans-2e" x="63.623047"/>
       <use xlink:href="#DejaVuSans-30" x="95.410156"/>
      </g>
     </g>
    </g>
    <g id="ytick_2">
     <g id="line2d_8">
      <g>
       <use xlink:href="#m05a0ef1a43" x="43.78125" y="197.854437" style="stroke: #000000; stroke-width: 0.8"/>
      </g>
     </g>
     <g id="text_9">
      <!-- 0.2 -->
      <g transform="translate(20.878125 201.653656) scale(0.1 -0.1)">
       <use xlink:href="#DejaVuSans-30"/>
       <use xlink:href="#DejaVuSans-2e" x="63.623047"/>
       <use xlink:href="#DejaVuSans-32" x="95.410156"/>
      </g>
     </g>
    </g>
    <g id="ytick_3">
     <g id="line2d_9">
      <g>
       <use xlink:href="#m05a0ef1a43" x="43.78125" y="153.590437" style="stroke: #000000; stroke-width: 0.8"/>
      </g>
     </g>
     <g id="text_10">
      <!-- 0.4 -->
      <g transform="translate(20.878125 157.389656) scale(0.1 -0.1)">
       <use xlink:href="#DejaVuSans-30"/>
       <use xlink:href="#DejaVuSans-2e" x="63.623047"/>
       <use xlink:href="#DejaVuSans-34" x="95.410156"/>
      </g>
     </g>
    </g>
    <g id="ytick_4">
     <g id="line2d_10">
      <g>
       <use xlink:href="#m05a0ef1a43" x="43.78125" y="109.326437" style="stroke: #000000; stroke-width: 0.8"/>
      </g>
     </g>
     <g id="text_11">
      <!-- 0.6 -->
      <g transform="translate(20.878125 113.125656) scale(0.1 -0.1)">
       <use xlink:href="#DejaVuSans-30"/>
       <use xlink:href="#DejaVuSans-2e" x="63.623047"/>
       <use xlink:href="#DejaVuSans-36" x="95.410156"/>
      </g>
     </g>
    </g>
    <g id="ytick_5">
     <g id="line2d_11">
      <g>
       <use xlink:href="#m05a0ef1a43" x="43.78125" y="65.062437" style="stroke: #000000; stroke-width: 0.8"/>
      </g>
     </g>
     <g id="text_12">
      <!-- 0.8 -->
      <g transform="translate(20.878125 68.861656) scale(0.1 -0.1)">
       <defs>
        <path id="DejaVuSans-38" d="M 2034 2216 
Q 1584 2216 1326 1975 
Q 1069 1734 1069 1313 
Q 1069 891 1326 650 
Q 1584 409 2034 409 
Q 2484 409 2743 651 
Q 3003 894 3003 1313 
Q 3003 1734 2745 1975 
Q 2488 2216 2034 2216 
z
M 1403 2484 
Q 997 2584 770 2862 
Q 544 3141 544 3541 
Q 544 4100 942 4425 
Q 1341 4750 2034 4750 
Q 2731 4750 3128 4425 
Q 3525 4100 3525 3541 
Q 3525 3141 3298 2862 
Q 3072 2584 2669 2484 
Q 3125 2378 3379 2068 
Q 3634 1759 3634 1313 
Q 3634 634 3220 271 
Q 2806 -91 2034 -91 
Q 1263 -91 848 271 
Q 434 634 434 1313 
Q 434 1759 690 2068 
Q 947 2378 1403 2484 
z
M 1172 3481 
Q 1172 3119 1398 2916 
Q 1625 2713 2034 2713 
Q 2441 2713 2670 2916 
Q 2900 3119 2900 3481 
Q 2900 3844 2670 4047 
Q 2441 4250 2034 4250 
Q 1625 4250 1398 4047 
Q 1172 3844 1172 3481 
z
" transform="scale(0.015625)"/>
       </defs>
       <use xlink:href="#DejaVuSans-30"/>
       <use xlink:href="#DejaVuSans-2e" x="63.623047"/>
       <use xlink:href="#DejaVuSans-38" x="95.410156"/>
      </g>
     </g>
    </g>
    <g id="ytick_6">
     <g id="line2d_12">
      <g>
       <use xlink:href="#m05a0ef1a43" x="43.78125" y="20.798437" style="stroke: #000000; stroke-width: 0.8"/>
      </g>
     </g>
     <g id="text_13">
      <!-- 1.0 -->
      <g transform="translate(20.878125 24.597656) scale(0.1 -0.1)">
       <use xlink:href="#DejaVuSans-31"/>
       <use xlink:href="#DejaVuSans-2e" x="63.623047"/>
       <use xlink:href="#DejaVuSans-30" x="95.410156"/>
      </g>
     </g>
    </g>
    <g id="text_14">
     <!-- Accuracy -->
     <g transform="translate(14.798438 154.286563) rotate(-90) scale(0.1 -0.1)">
      <defs>
       <path id="DejaVuSans-41" d="M 2188 4044 
L 1331 1722 
L 3047 1722 
L 2188 4044 
z
M 1831 4666 
L 2547 4666 
L 4325 0 
L 3669 0 
L 3244 1197 
L 1141 1197 
L 716 0 
L 50 0 
L 1831 4666 
z
" transform="scale(0.015625)"/>
       <path id="DejaVuSans-63" d="M 3122 3366 
L 3122 2828 
Q 2878 2963 2633 3030 
Q 2388 3097 2138 3097 
Q 1578 3097 1268 2742 
Q 959 2388 959 1747 
Q 959 1106 1268 751 
Q 1578 397 2138 397 
Q 2388 397 2633 464 
Q 2878 531 3122 666 
L 3122 134 
Q 2881 22 2623 -34 
Q 2366 -91 2075 -91 
Q 1284 -91 818 406 
Q 353 903 353 1747 
Q 353 2603 823 3093 
Q 1294 3584 2113 3584 
Q 2378 3584 2631 3529 
Q 2884 3475 3122 3366 
z
" transform="scale(0.015625)"/>
       <path id="DejaVuSans-75" d="M 544 1381 
L 544 3500 
L 1119 3500 
L 1119 1403 
Q 1119 906 1312 657 
Q 1506 409 1894 409 
Q 2359 409 2629 706 
Q 2900 1003 2900 1516 
L 2900 3500 
L 3475 3500 
L 3475 0 
L 2900 0 
L 2900 538 
Q 2691 219 2414 64 
Q 2138 -91 1772 -91 
Q 1169 -91 856 284 
Q 544 659 544 1381 
z
M 1991 3584 
L 1991 3584 
z
" transform="scale(0.015625)"/>
      </defs>
      <use xlink:href="#DejaVuSans-41"/>
      <use xlink:href="#DejaVuSans-63" x="66.658203"/>
      <use xlink:href="#DejaVuSans-63" x="121.638672"/>
      <use xlink:href="#DejaVuSans-75" x="176.619141"/>
      <use xlink:href="#DejaVuSans-72" x="239.998047"/>
      <use xlink:href="#DejaVuSans-61" x="281.111328"/>
      <use xlink:href="#DejaVuSans-63" x="342.390625"/>
      <use xlink:href="#DejaVuSans-79" x="397.371094"/>
     </g>
    </g>
   </g>
   <g id="line2d_13">
    <path d="M 84.622336 20.798437 
L 114.324944 20.798437 
" clip-path="url(#p4e47cb03bb)" style="fill: none; stroke: #595959; stroke-width: 1.25; stroke-linecap: square"/>
   </g>
   <g id="line2d_14">
    <path d="M 43.78125 131.458438 
L 266.550811 131.458438 
" clip-path="url(#p4e47cb03bb)" style="fill: none; stroke-dasharray: 5.55,2.4; stroke-dashoffset: 0; stroke: #808080; stroke-width: 1.5"/>
   </g>
   <g id="patch_3">
    <path d="M 43.78125 242.118437 
L 43.78125 20.798437 
" style="fill: none; stroke: #000000; stroke-width: 0.8; stroke-linejoin: miter; stroke-linecap: square"/>
   </g>
   <g id="patch_4">
    <path d="M 43.78125 242.118437 
L 266.550811 242.118437 
" style="fill: none; stroke: #000000; stroke-width: 0.8; stroke-linejoin: miter; stroke-linecap: square"/>
   </g>
   <g id="PathCollection_1">
    <defs>
     <path id="m5b5b5dda5b" d="M 0 1.25 
C 0.331504 1.25 0.649475 1.118292 0.883883 0.883883 
C 1.118292 0.649475 1.25 0.331504 1.25 0 
C 1.25 -0.331504 1.118292 -0.649475 0.883883 -0.883883 
C 0.649475 -1.118292 0.331504 -1.25 0 -1.25 
C -0.331504 -1.25 -0.649475 -1.118292 -0.883883 -0.883883 
C -1.118292 -0.649475 -1.25 -0.331504 -1.25 0 
C -1.25 0.331504 -1.118292 0.649475 -0.883883 0.883883 
C -0.649475 1.118292 -0.331504 1.25 0 1.25 
z
" style="stroke: #595959"/>
    </defs>
    <g clip-path="url(#p4e47cb03bb)">
     <use xlink:href="#m5b5b5dda5b" x="62.34538" y="38.504037" style="fill: #595959; stroke: #595959"/>
     <use xlink:href="#m5b5b5dda5b" x="62.34538" y="31.864437" style="fill: #595959; stroke: #595959"/>
     <use xlink:href="#m5b5b5dda5b" x="62.34538" y="27.438037" style="fill: #595959; stroke: #595959"/>
     <use xlink:href="#m5b5b5dda5b" x="62.34538" y="34.077637" style="fill: #595959; stroke: #595959"/>
     <use xlink:href="#m5b5b5dda5b" x="62.34538" y="29.651237" style="fill: #595959; stroke: #595959"/>
     <use xlink:href="#m5b5b5dda5b" x="62.34538" y="29.651237" style="fill: #595959; stroke: #595959"/>
     <use xlink:href="#m5b5b5dda5b" x="62.34538" y="29.651237" style="fill: #595959; stroke: #595959"/>
     <use xlink:href="#m5b5b5dda5b" x="62.34538" y="49.570038" style="fill: #595959; stroke: #595959"/>
     <use xlink:href="#m5b5b5dda5b" x="62.34538" y="40.717238" style="fill: #595959; stroke: #595959"/>
     <use xlink:href="#m5b5b5dda5b" x="62.34538" y="29.651237" style="fill: #595959; stroke: #595959"/>
     <use xlink:href="#m5b5b5dda5b" x="62.34538" y="23.011637" style="fill: #595959; stroke: #595959"/>
     <use xlink:href="#m5b5b5dda5b" x="62.34538" y="47.356837" style="fill: #595959; stroke: #595959"/>
     <use xlink:href="#m5b5b5dda5b" x="62.34538" y="34.077637" style="fill: #595959; stroke: #595959"/>
     <use xlink:href="#m5b5b5dda5b" x="62.34538" y="29.651237" style="fill: #595959; stroke: #595959"/>
     <use xlink:href="#m5b5b5dda5b" x="62.34538" y="34.077637" style="fill: #595959; stroke: #595959"/>
     <use xlink:href="#m5b5b5dda5b" x="62.34538" y="31.864437" style="fill: #595959; stroke: #595959"/>
     <use xlink:href="#m5b5b5dda5b" x="62.34538" y="29.651237" style="fill: #595959; stroke: #595959"/>
     <use xlink:href="#m5b5b5dda5b" x="62.34538" y="20.798437" style="fill: #595959; stroke: #595959"/>
     <use xlink:href="#m5b5b5dda5b" x="62.34538" y="27.438037" style="fill: #595959; stroke: #595959"/>
     <use xlink:href="#m5b5b5dda5b" x="62.34538" y="23.011637" style="fill: #595959; stroke: #595959"/>
    </g>
   </g>
   <g id="PathCollection_2">
    <g clip-path="url(#p4e47cb03bb)">
     <use xlink:href="#m5b5b5dda5b" x="136.6019" y="38.504037" style="fill: #595959; stroke: #595959"/>
     <use xlink:href="#m5b5b5dda5b" x="136.6019" y="42.930437" style="fill: #595959; stroke: #595959"/>
     <use xlink:href="#m5b5b5dda5b" x="136.6019" y="38.504037" style="fill: #595959; stroke: #595959"/>
     <use xlink:href="#m5b5b5dda5b" x="136.6019" y="36.290837" style="fill: #595959; stroke: #595959"/>
     <use xlink:href="#m5b5b5dda5b" x="136.6019" y="34.077637" style="fill: #595959; stroke: #595959"/>
     <use xlink:href="#m5b5b5dda5b" x="136.6019" y="42.930437" style="fill: #595959; stroke: #595959"/>
     <use xlink:href="#m5b5b5dda5b" x="136.6019" y="38.504037" style="fill: #595959; stroke: #595959"/>
     <use xlink:href="#m5b5b5dda5b" x="136.6019" y="53.996437" style="fill: #595959; stroke: #595959"/>
     <use xlink:href="#m5b5b5dda5b" x="136.6019" y="34.077637" style="fill: #595959; stroke: #595959"/>
     <use xlink:href="#m5b5b5dda5b" x="136.6019" y="51.783237" style="fill: #595959; stroke: #595959"/>
     <use xlink:href="#m5b5b5dda5b" x="136.6019" y="38.504037" style="fill: #595959; stroke: #595959"/>
     <use xlink:href="#m5b5b5dda5b" x="136.6019" y="38.504037" style="fill: #595959; stroke: #595959"/>
     <use xlink:href="#m5b5b5dda5b" x="136.6019" y="40.717237" style="fill: #595959; stroke: #595959"/>
     <use xlink:href="#m5b5b5dda5b" x="136.6019" y="36.290837" style="fill: #595959; stroke: #595959"/>
     <use xlink:href="#m5b5b5dda5b" x="136.6019" y="58.422838" style="fill: #595959; stroke: #595959"/>
     <use xlink:href="#m5b5b5dda5b" x="136.6019" y="42.930437" style="fill: #595959; stroke: #595959"/>
     <use xlink:href="#m5b5b5dda5b" x="136.6019" y="40.717238" style="fill: #595959; stroke: #595959"/>
     <use xlink:href="#m5b5b5dda5b" x="136.6019" y="45.143638" style="fill: #595959; stroke: #595959"/>
     <use xlink:href="#m5b5b5dda5b" x="136.6019" y="36.290837" style="fill: #595959; stroke: #595959"/>
     <use xlink:href="#m5b5b5dda5b" x="136.6019" y="40.717238" style="fill: #595959; stroke: #595959"/>
    </g>
   </g>
   <g id="PathCollection_3">
    <g clip-path="url(#p4e47cb03bb)">
     <use xlink:href="#m5b5b5dda5b" x="173.730161" y="65.062437" style="fill: #595959; stroke: #595959"/>
     <use xlink:href="#m5b5b5dda5b" x="173.730161" y="82.768037" style="fill: #595959; stroke: #595959"/>
     <use xlink:href="#m5b5b5dda5b" x="173.730161" y="60.636037" style="fill: #595959; stroke: #595959"/>
     <use xlink:href="#m5b5b5dda5b" x="173.730161" y="78.341637" style="fill: #595959; stroke: #595959"/>
     <use xlink:href="#m5b5b5dda5b" x="173.730161" y="78.341637" style="fill: #595959; stroke: #595959"/>
     <use xlink:href="#m5b5b5dda5b" x="173.730161" y="65.062437" style="fill: #595959; stroke: #595959"/>
     <use xlink:href="#m5b5b5dda5b" x="173.730161" y="71.702037" style="fill: #595959; stroke: #595959"/>
     <use xlink:href="#m5b5b5dda5b" x="173.730161" y="71.702037" style="fill: #595959; stroke: #595959"/>
     <use xlink:href="#m5b5b5dda5b" x="173.730161" y="76.128437" style="fill: #595959; stroke: #595959"/>
     <use xlink:href="#m5b5b5dda5b" x="173.730161" y="78.341637" style="fill: #595959; stroke: #595959"/>
     <use xlink:href="#m5b5b5dda5b" x="173.730161" y="73.915237" style="fill: #595959; stroke: #595959"/>
     <use xlink:href="#m5b5b5dda5b" x="173.730161" y="93.834037" style="fill: #595959; stroke: #595959"/>
     <use xlink:href="#m5b5b5dda5b" x="173.730161" y="67.275637" style="fill: #595959; stroke: #595959"/>
     <use xlink:href="#m5b5b5dda5b" x="173.730161" y="80.554837" style="fill: #595959; stroke: #595959"/>
     <use xlink:href="#m5b5b5dda5b" x="173.730161" y="58.422837" style="fill: #595959; stroke: #595959"/>
     <use xlink:href="#m5b5b5dda5b" x="173.730161" y="82.768037" style="fill: #595959; stroke: #595959"/>
     <use xlink:href="#m5b5b5dda5b" x="173.730161" y="82.768037" style="fill: #595959; stroke: #595959"/>
     <use xlink:href="#m5b5b5dda5b" x="173.730161" y="76.128437" style="fill: #595959; stroke: #595959"/>
     <use xlink:href="#m5b5b5dda5b" x="173.730161" y="76.128437" style="fill: #595959; stroke: #595959"/>
     <use xlink:href="#m5b5b5dda5b" x="173.730161" y="87.194437" style="fill: #595959; stroke: #595959"/>
    </g>
   </g>
   <g id="PathCollection_4">
    <g clip-path="url(#p4e47cb03bb)">
     <use xlink:href="#m5b5b5dda5b" x="210.858421" y="53.996437" style="fill: #595959; stroke: #595959"/>
     <use xlink:href="#m5b5b5dda5b" x="210.858421" y="56.209637" style="fill: #595959; stroke: #595959"/>
     <use xlink:href="#m5b5b5dda5b" x="210.858421" y="84.981237" style="fill: #595959; stroke: #595959"/>
     <use xlink:href="#m5b5b5dda5b" x="210.858421" y="91.620837" style="fill: #595959; stroke: #595959"/>
     <use xlink:href="#m5b5b5dda5b" x="210.858421" y="80.554838" style="fill: #595959; stroke: #595959"/>
     <use xlink:href="#m5b5b5dda5b" x="210.858421" y="45.143637" style="fill: #595959; stroke: #595959"/>
     <use xlink:href="#m5b5b5dda5b" x="210.858421" y="62.849237" style="fill: #595959; stroke: #595959"/>
     <use xlink:href="#m5b5b5dda5b" x="210.858421" y="69.488837" style="fill: #595959; stroke: #595959"/>
     <use xlink:href="#m5b5b5dda5b" x="210.858421" y="60.636037" style="fill: #595959; stroke: #595959"/>
     <use xlink:href="#m5b5b5dda5b" x="210.858421" y="80.554837" style="fill: #595959; stroke: #595959"/>
     <use xlink:href="#m5b5b5dda5b" x="210.858421" y="60.636037" style="fill: #595959; stroke: #595959"/>
     <use xlink:href="#m5b5b5dda5b" x="210.858421" y="51.783237" style="fill: #595959; stroke: #595959"/>
     <use xlink:href="#m5b5b5dda5b" x="210.858421" y="62.849237" style="fill: #595959; stroke: #595959"/>
     <use xlink:href="#m5b5b5dda5b" x="210.858421" y="78.341637" style="fill: #595959; stroke: #595959"/>
     <use xlink:href="#m5b5b5dda5b" x="210.858421" y="62.849237" style="fill: #595959; stroke: #595959"/>
     <use xlink:href="#m5b5b5dda5b" x="210.858421" y="53.996437" style="fill: #595959; stroke: #595959"/>
     <use xlink:href="#m5b5b5dda5b" x="210.858421" y="76.128437" style="fill: #595959; stroke: #595959"/>
     <use xlink:href="#m5b5b5dda5b" x="210.858421" y="62.849237" style="fill: #595959; stroke: #595959"/>
     <use xlink:href="#m5b5b5dda5b" x="210.858421" y="51.783237" style="fill: #595959; stroke: #595959"/>
     <use xlink:href="#m5b5b5dda5b" x="210.858421" y="67.275637" style="fill: #595959; stroke: #595959"/>
    </g>
   </g>
   <g id="PathCollection_5">
    <g clip-path="url(#p4e47cb03bb)">
     <use xlink:href="#m5b5b5dda5b" x="247.986681" y="40.717238" style="fill: #595959; stroke: #595959"/>
     <use xlink:href="#m5b5b5dda5b" x="247.986681" y="45.143637" style="fill: #595959; stroke: #595959"/>
     <use xlink:href="#m5b5b5dda5b" x="247.986681" y="58.422837" style="fill: #595959; stroke: #595959"/>
     <use xlink:href="#m5b5b5dda5b" x="247.986681" y="78.341637" style="fill: #595959; stroke: #595959"/>
     <use xlink:href="#m5b5b5dda5b" x="247.986681" y="78.341637" style="fill: #595959; stroke: #595959"/>
     <use xlink:href="#m5b5b5dda5b" x="247.986681" y="42.930437" style="fill: #595959; stroke: #595959"/>
     <use xlink:href="#m5b5b5dda5b" x="247.986681" y="49.570037" style="fill: #595959; stroke: #595959"/>
     <use xlink:href="#m5b5b5dda5b" x="247.986681" y="98.260437" style="fill: #595959; stroke: #595959"/>
     <use xlink:href="#m5b5b5dda5b" x="247.986681" y="71.702037" style="fill: #595959; stroke: #595959"/>
     <use xlink:href="#m5b5b5dda5b" x="247.986681" y="49.570038" style="fill: #595959; stroke: #595959"/>
     <use xlink:href="#m5b5b5dda5b" x="247.986681" y="45.143637" style="fill: #595959; stroke: #595959"/>
     <use xlink:href="#m5b5b5dda5b" x="247.986681" y="91.620837" style="fill: #595959; stroke: #595959"/>
     <use xlink:href="#m5b5b5dda5b" x="247.986681" y="60.636037" style="fill: #595959; stroke: #595959"/>
     <use xlink:href="#m5b5b5dda5b" x="247.986681" y="49.570037" style="fill: #595959; stroke: #595959"/>
     <use xlink:href="#m5b5b5dda5b" x="247.986681" y="53.996437" style="fill: #595959; stroke: #595959"/>
     <use xlink:href="#m5b5b5dda5b" x="247.986681" y="51.783237" style="fill: #595959; stroke: #595959"/>
     <use xlink:href="#m5b5b5dda5b" x="247.986681" y="53.996437" style="fill: #595959; stroke: #595959"/>
     <use xlink:href="#m5b5b5dda5b" x="247.986681" y="69.488837" style="fill: #595959; stroke: #595959"/>
     <use xlink:href="#m5b5b5dda5b" x="247.986681" y="62.849237" style="fill: #595959; stroke: #595959"/>
     <use xlink:href="#m5b5b5dda5b" x="247.986681" y="65.062437" style="fill: #595959; stroke: #595959"/>
    </g>
   </g>
   <g id="text_15">
    <!-- Rho = 0.4 -->
    <g transform="translate(273.08589 106.436563) rotate(-270) scale(0.1 -0.1)">
     <defs>
      <path id="DejaVuSans-52" d="M 2841 2188 
Q 3044 2119 3236 1894 
Q 3428 1669 3622 1275 
L 4263 0 
L 3584 0 
L 2988 1197 
Q 2756 1666 2539 1819 
Q 2322 1972 1947 1972 
L 1259 1972 
L 1259 0 
L 628 0 
L 628 4666 
L 2053 4666 
Q 2853 4666 3247 4331 
Q 3641 3997 3641 3322 
Q 3641 2881 3436 2590 
Q 3231 2300 2841 2188 
z
M 1259 4147 
L 1259 2491 
L 2053 2491 
Q 2509 2491 2742 2702 
Q 2975 2913 2975 3322 
Q 2975 3731 2742 3939 
Q 2509 4147 2053 4147 
L 1259 4147 
z
" transform="scale(0.015625)"/>
      <path id="DejaVuSans-68" d="M 3513 2113 
L 3513 0 
L 2938 0 
L 2938 2094 
Q 2938 2591 2744 2837 
Q 2550 3084 2163 3084 
Q 1697 3084 1428 2787 
Q 1159 2491 1159 1978 
L 1159 0 
L 581 0 
L 581 4863 
L 1159 4863 
L 1159 2956 
Q 1366 3272 1645 3428 
Q 1925 3584 2291 3584 
Q 2894 3584 3203 3211 
Q 3513 2838 3513 2113 
z
" transform="scale(0.015625)"/>
      <path id="DejaVuSans-6f" d="M 1959 3097 
Q 1497 3097 1228 2736 
Q 959 2375 959 1747 
Q 959 1119 1226 758 
Q 1494 397 1959 397 
Q 2419 397 2687 759 
Q 2956 1122 2956 1747 
Q 2956 2369 2687 2733 
Q 2419 3097 1959 3097 
z
M 1959 3584 
Q 2709 3584 3137 3096 
Q 3566 2609 3566 1747 
Q 3566 888 3137 398 
Q 2709 -91 1959 -91 
Q 1206 -91 779 398 
Q 353 888 353 1747 
Q 353 2609 779 3096 
Q 1206 3584 1959 3584 
z
" transform="scale(0.015625)"/>
      <path id="DejaVuSans-20" transform="scale(0.015625)"/>
      <path id="DejaVuSans-3d" d="M 678 2906 
L 4684 2906 
L 4684 2381 
L 678 2381 
L 678 2906 
z
M 678 1631 
L 4684 1631 
L 4684 1100 
L 678 1100 
L 678 1631 
z
" transform="scale(0.015625)"/>
     </defs>
     <use xlink:href="#DejaVuSans-52"/>
     <use xlink:href="#DejaVuSans-68" x="69.482422"/>
     <use xlink:href="#DejaVuSans-6f" x="132.861328"/>
     <use xlink:href="#DejaVuSans-20" x="194.042969"/>
     <use xlink:href="#DejaVuSans-3d" x="225.830078"/>
     <use xlink:href="#DejaVuSans-20" x="309.619141"/>
     <use xlink:href="#DejaVuSans-30" x="341.40625"/>
     <use xlink:href="#DejaVuSans-2e" x="405.029297"/>
     <use xlink:href="#DejaVuSans-34" x="436.816406"/>
    </g>
   </g>
   <g id="text_16">
    <!-- CNR_change = 1 -->
    <g transform="translate(113.008999 14.798437) scale(0.1 -0.1)">
     <defs>
      <path id="DejaVuSans-43" d="M 4122 4306 
L 4122 3641 
Q 3803 3938 3442 4084 
Q 3081 4231 2675 4231 
Q 1875 4231 1450 3742 
Q 1025 3253 1025 2328 
Q 1025 1406 1450 917 
Q 1875 428 2675 428 
Q 3081 428 3442 575 
Q 3803 722 4122 1019 
L 4122 359 
Q 3791 134 3420 21 
Q 3050 -91 2638 -91 
Q 1578 -91 968 557 
Q 359 1206 359 2328 
Q 359 3453 968 4101 
Q 1578 4750 2638 4750 
Q 3056 4750 3426 4639 
Q 3797 4528 4122 4306 
z
" transform="scale(0.015625)"/>
      <path id="DejaVuSans-4e" d="M 628 4666 
L 1478 4666 
L 3547 763 
L 3547 4666 
L 4159 4666 
L 4159 0 
L 3309 0 
L 1241 3903 
L 1241 0 
L 628 0 
L 628 4666 
z
" transform="scale(0.015625)"/>
      <path id="DejaVuSans-5f" d="M 3263 -1063 
L 3263 -1509 
L -63 -1509 
L -63 -1063 
L 3263 -1063 
z
" transform="scale(0.015625)"/>
      <path id="DejaVuSans-6e" d="M 3513 2113 
L 3513 0 
L 2938 0 
L 2938 2094 
Q 2938 2591 2744 2837 
Q 2550 3084 2163 3084 
Q 1697 3084 1428 2787 
Q 1159 2491 1159 1978 
L 1159 0 
L 581 0 
L 581 3500 
L 1159 3500 
L 1159 2956 
Q 1366 3272 1645 3428 
Q 1925 3584 2291 3584 
Q 2894 3584 3203 3211 
Q 3513 2838 3513 2113 
z
" transform="scale(0.015625)"/>
      <path id="DejaVuSans-67" d="M 2906 1791 
Q 2906 2416 2648 2759 
Q 2391 3103 1925 3103 
Q 1463 3103 1205 2759 
Q 947 2416 947 1791 
Q 947 1169 1205 825 
Q 1463 481 1925 481 
Q 2391 481 2648 825 
Q 2906 1169 2906 1791 
z
M 3481 434 
Q 3481 -459 3084 -895 
Q 2688 -1331 1869 -1331 
Q 1566 -1331 1297 -1286 
Q 1028 -1241 775 -1147 
L 775 -588 
Q 1028 -725 1275 -790 
Q 1522 -856 1778 -856 
Q 2344 -856 2625 -561 
Q 2906 -266 2906 331 
L 2906 616 
Q 2728 306 2450 153 
Q 2172 0 1784 0 
Q 1141 0 747 490 
Q 353 981 353 1791 
Q 353 2603 747 3093 
Q 1141 3584 1784 3584 
Q 2172 3584 2450 3431 
Q 2728 3278 2906 2969 
L 2906 3500 
L 3481 3500 
L 3481 434 
z
" transform="scale(0.015625)"/>
     </defs>
     <use xlink:href="#DejaVuSans-43"/>
     <use xlink:href="#DejaVuSans-4e" x="69.824219"/>
     <use xlink:href="#DejaVuSans-52" x="144.628906"/>
     <use xlink:href="#DejaVuSans-5f" x="214.111328"/>
     <use xlink:href="#DejaVuSans-63" x="264.111328"/>
     <use xlink:href="#DejaVuSans-68" x="319.091797"/>
     <use xlink:href="#DejaVuSans-61" x="382.470703"/>
     <use xlink:href="#DejaVuSans-6e" x="443.75"/>
     <use xlink:href="#DejaVuSans-67" x="507.128906"/>
     <use xlink:href="#DejaVuSans-65" x="570.605469"/>
     <use xlink:href="#DejaVuSans-20" x="632.128906"/>
     <use xlink:href="#DejaVuSans-3d" x="663.916016"/>
     <use xlink:href="#DejaVuSans-20" x="747.705078"/>
     <use xlink:href="#DejaVuSans-31" x="779.492188"/>
    </g>
   </g>
  </g>
  <g id="legend_1"/>
 </g>
 <defs>
  <clipPath id="p4e47cb03bb">
   <rect x="43.78125" y="20.798437" width="222.769561" height="221.32"/>
  </clipPath>
 </defs>
</svg>
