<?xml version="1.0" encoding="utf-8" standalone="no"?>
<!DOCTYPE svg PUBLIC "-//W3C//DTD SVG 1.1//EN"
  "http://www.w3.org/Graphics/SVG/1.1/DTD/svg11.dtd">
<svg xmlns:xlink="http://www.w3.org/1999/xlink" width="294.17125pt" height="279.674688pt" viewBox="0 0 294.17125 279.674688" xmlns="http://www.w3.org/2000/svg" version="1.1">
 <metadata>
  <rdf:RDF xmlns:dc="http://purl.org/dc/elements/1.1/" xmlns:cc="http://creativecommons.org/ns#" xmlns:rdf="http://www.w3.org/1999/02/22-rdf-syntax-ns#">
   <cc:Work>
    <dc:type rdf:resource="http://purl.org/dc/dcmitype/StillImage"/>
    <dc:date>2025-08-25T17:08:48.537592</dc:date>
    <dc:format>image/svg+xml</dc:format>
    <dc:creator>
     <cc:Agent>
      <dc:title>Matplotlib v3.8.4, https://matplotlib.org/</dc:title>
     </cc:Agent>
    </dc:creator>
   </cc:Work>
  </rdf:RDF>
 </metadata>
 <defs>
  <style type="text/css">*{stroke-linejoin: round; stroke-linecap: butt}</style>
 </defs>
 <g id="figure_1">
  <g id="patch_1">
   <path d="M 0 279.674688 
L 294.17125 279.674688 
L 294.17125 0 
L 0 0 
z
" style="fill: #ffffff"/>
  </g>
  <g id="axes_1">
   <g id="patch_2">
    <path d="M 43.78125 242.118437 
L 266.550811 242.118437 
L 266.550811 20.798437 
L 43.78125 20.798437 
z
" style="fill: #ffffff"/>
   </g>
   <g id="PolyCollection_1">
    <defs>
     <path id="m51f536a47f" d="M 62.563174 -221.98699 
L 62.127587 -221.98699 
L 62.070703 -222.441606 
L 62.003028 -222.896221 
L 61.923669 -223.350836 
L 61.831968 -223.805452 
L 61.727579 -224.260067 
L 61.610549 -224.714682 
L 61.481388 -225.169298 
L 61.341114 -225.623913 
L 61.19128 -226.078529 
L 61.033966 -226.533144 
L 60.871734 -226.987759 
L 60.707544 -227.442375 
L 60.544636 -227.89699 
L 60.386368 -228.351605 
L 60.236044 -228.806221 
L 60.096714 -229.260836 
L 59.970982 -229.715451 
L 59.860826 -230.170067 
L 59.767443 -230.624682 
L 59.691145 -231.079297 
L 59.631299 -231.533913 
L 59.58633 -231.988528 
L 59.553781 -232.443143 
L 59.530432 -232.897759 
L 59.512457 -233.352374 
L 59.495615 -233.806989 
L 59.475457 -234.261605 
L 59.447526 -234.71622 
L 59.407535 -235.170835 
L 59.351509 -235.625451 
L 59.27588 -236.080066 
L 59.177532 -236.534681 
L 59.053793 -236.989297 
L 58.902389 -237.443912 
L 58.721365 -237.898527 
L 58.508995 -238.353143 
L 58.263701 -238.807758 
L 57.983992 -239.262374 
L 57.668447 -239.716989 
L 57.315748 -240.171604 
L 56.924776 -240.62622 
L 56.494753 -241.080835 
L 56.025443 -241.53545 
L 55.517384 -241.990066 
L 54.972131 -242.444681 
L 54.392496 -242.899296 
L 53.782752 -243.353912 
L 53.148783 -243.808527 
L 52.498151 -244.263142 
L 51.840071 -244.717758 
L 51.18528 -245.172373 
L 50.545788 -245.626988 
L 49.934528 -246.081604 
L 49.364907 -246.536219 
L 48.85028 -246.990834 
L 48.403382 -247.44545 
L 48.035738 -247.900065 
L 47.757099 -248.35468 
L 47.574944 -248.809296 
L 47.494076 -249.263911 
L 47.516358 -249.718526 
L 47.640595 -250.173142 
L 47.862601 -250.627757 
L 48.175422 -251.082373 
L 48.569729 -251.536988 
L 49.034334 -251.991603 
L 49.556804 -252.446219 
L 50.124119 -252.900834 
L 50.723331 -253.355449 
L 51.342166 -253.810065 
L 51.969537 -254.26468 
L 52.595925 -254.719295 
L 53.213614 -255.173911 
L 53.816768 -255.628526 
L 54.401369 -256.083141 
L 54.965022 -256.537757 
L 55.506671 -256.992372 
L 56.026263 -257.446987 
L 56.524381 -257.901603 
L 57.001912 -258.356218 
L 57.459746 -258.810833 
L 57.898557 -259.265449 
L 58.318658 -259.720064 
L 58.719942 -260.174679 
L 59.101892 -260.629295 
L 59.463663 -261.08391 
L 59.804197 -261.538525 
L 60.122369 -261.993141 
L 60.417129 -262.447756 
L 60.687638 -262.902371 
L 60.933372 -263.356987 
L 61.154197 -263.811602 
L 61.350404 -264.266218 
L 61.522706 -264.720833 
L 61.672207 -265.175448 
L 61.800345 -265.630064 
L 61.908817 -266.084679 
L 61.999496 -266.539294 
L 62.074349 -266.99391 
L 62.616412 -266.99391 
L 62.616412 -266.99391 
L 62.691264 -266.539294 
L 62.781943 -266.084679 
L 62.890415 -265.630064 
L 63.018553 -265.175448 
L 63.168055 -264.720833 
L 63.340356 -264.266218 
L 63.536563 -263.811602 
L 63.757388 -263.356987 
L 64.003122 -262.902371 
L 64.273631 -262.447756 
L 64.568391 -261.993141 
L 64.886563 -261.538525 
L 65.227098 -261.08391 
L 65.588868 -260.629295 
L 65.970819 -260.174679 
L 66.372102 -259.720064 
L 66.792203 -259.265449 
L 67.231015 -258.810833 
L 67.688849 -258.356218 
L 68.166379 -257.901603 
L 68.664497 -257.446987 
L 69.184089 -256.992372 
L 69.725738 -256.537757 
L 70.289391 -256.083141 
L 70.873992 -255.628526 
L 71.477146 -255.173911 
L 72.094835 -254.719295 
L 72.721224 -254.26468 
L 73.348595 -253.810065 
L 73.96743 -253.355449 
L 74.566641 -252.900834 
L 75.133957 -252.446219 
L 75.656426 -251.991603 
L 76.121031 -251.536988 
L 76.515338 -251.082373 
L 76.828159 -250.627757 
L 77.050165 -250.173142 
L 77.174403 -249.718526 
L 77.196684 -249.263911 
L 77.115817 -248.809296 
L 76.933661 -248.35468 
L 76.655022 -247.900065 
L 76.287378 -247.44545 
L 75.84048 -246.990834 
L 75.325854 -246.536219 
L 74.756232 -246.081604 
L 74.144972 -245.626988 
L 73.50548 -245.172373 
L 72.850689 -244.717758 
L 72.192609 -244.263142 
L 71.541977 -243.808527 
L 70.908008 -243.353912 
L 70.298264 -242.899296 
L 69.718629 -242.444681 
L 69.173376 -241.990066 
L 68.665317 -241.53545 
L 68.196008 -241.080835 
L 67.765984 -240.62622 
L 67.375012 -240.171604 
L 67.022314 -239.716989 
L 66.706768 -239.262374 
L 66.427059 -238.807758 
L 66.181765 -238.353143 
L 65.969395 -237.898527 
L 65.788371 -237.443912 
L 65.636967 -236.989297 
L 65.513228 -236.534681 
L 65.41488 -236.080066 
L 65.339251 -235.625451 
L 65.283225 -235.170835 
L 65.243234 -234.71622 
L 65.215303 -234.261605 
L 65.195146 -233.806989 
L 65.178303 -233.352374 
L 65.160328 -232.897759 
L 65.136979 -232.443143 
L 65.104431 -231.988528 
L 65.059461 -231.533913 
L 64.999615 -231.079297 
L 64.923317 -230.624682 
L 64.829934 -230.170067 
L 64.719778 -229.715451 
L 64.594046 -229.260836 
L 64.454716 -228.806221 
L 64.304392 -228.351605 
L 64.146124 -227.89699 
L 63.983216 -227.442375 
L 63.819027 -226.987759 
L 63.656795 -226.533144 
L 63.499481 -226.078529 
L 63.349646 -225.623913 
L 63.209372 -225.169298 
L 63.080211 -224.714682 
L 62.963182 -224.260067 
L 62.858793 -223.805452 
L 62.767091 -223.350836 
L 62.687733 -222.896221 
L 62.620057 -222.441606 
L 62.563174 -221.98699 
z
" style="stroke: #595959; stroke-width: 1.25"/>
    </defs>
    <g clip-path="url(#p8d80b78aaf)">
     <use xlink:href="#m51f536a47f" x="0" y="279.674688" style="fill: #72b6a1; stroke: #595959; stroke-width: 1.25"/>
    </g>
   </g>
   <g id="PolyCollection_2">
    <defs>
     <path id="m8bbcc83e10" d="M 136.761112 -214.302988 
L 136.442689 -214.302988 
L 136.403242 -214.68928 
L 136.356879 -215.075572 
L 136.303146 -215.461864 
L 136.241744 -215.848156 
L 136.172565 -216.234448 
L 136.095725 -216.620741 
L 136.011588 -217.007033 
L 135.920775 -217.393325 
L 135.82416 -217.779617 
L 135.722847 -218.165909 
L 135.618141 -218.552201 
L 135.511491 -218.938494 
L 135.404433 -219.324786 
L 135.29852 -219.711078 
L 135.195258 -220.09737 
L 135.096033 -220.483662 
L 135.002062 -220.869954 
L 134.914339 -221.256247 
L 134.833615 -221.642539 
L 134.760374 -222.028831 
L 134.694842 -222.415123 
L 134.636999 -222.801415 
L 134.586604 -223.187707 
L 134.543232 -223.574 
L 134.5063 -223.960292 
L 134.475109 -224.346584 
L 134.448868 -224.732876 
L 134.426718 -225.119168 
L 134.407741 -225.50546 
L 134.390966 -225.891753 
L 134.375361 -226.278045 
L 134.359816 -226.664337 
L 134.343115 -227.050629 
L 134.323908 -227.436921 
L 134.300669 -227.823214 
L 134.271656 -228.209506 
L 134.234871 -228.595798 
L 134.188019 -228.98209 
L 134.128482 -229.368382 
L 134.053301 -229.754674 
L 133.959174 -230.140967 
L 133.842481 -230.527259 
L 133.699336 -230.913551 
L 133.525669 -231.299843 
L 133.317339 -231.686135 
L 133.070284 -232.072427 
L 132.780702 -232.45872 
L 132.445262 -232.845012 
L 132.061328 -233.231304 
L 131.627201 -233.617596 
L 131.142356 -234.003888 
L 130.607662 -234.39018 
L 130.025571 -234.776473 
L 129.400263 -235.162765 
L 128.737721 -235.549057 
L 128.04574 -235.935349 
L 127.33384 -236.321641 
L 126.613098 -236.707933 
L 125.89589 -237.094226 
L 125.195542 -237.480518 
L 124.525927 -237.86681 
L 123.900998 -238.253102 
L 123.334305 -238.639394 
L 122.838505 -239.025686 
L 122.424901 -239.411979 
L 122.103039 -239.798271 
L 121.880369 -240.184563 
L 121.762008 -240.570855 
L 121.750596 -240.957147 
L 121.846266 -241.34344 
L 122.046707 -241.729732 
L 122.347326 -242.116024 
L 122.741483 -242.502316 
L 123.220781 -242.888608 
L 123.775407 -243.2749 
L 124.394482 -243.661193 
L 125.066418 -244.047485 
L 125.779267 -244.433777 
L 126.521041 -244.820069 
L 127.280004 -245.206361 
L 128.044933 -245.592653 
L 128.805331 -245.978946 
L 129.551611 -246.365238 
L 130.275236 -246.75153 
L 130.968826 -247.137822 
L 131.626228 -247.524114 
L 132.242549 -247.910406 
L 132.814159 -248.296699 
L 133.338662 -248.682991 
L 133.814834 -249.069283 
L 134.242536 -249.455575 
L 134.622604 -249.841867 
L 134.956715 -250.228159 
L 135.247248 -250.614452 
L 135.497127 -251.000744 
L 135.709671 -251.387036 
L 135.888447 -251.773328 
L 136.03713 -252.15962 
L 136.159384 -252.545912 
L 137.044417 -252.545912 
L 137.044417 -252.545912 
L 137.16667 -252.15962 
L 137.315354 -251.773328 
L 137.49413 -251.387036 
L 137.706674 -251.000744 
L 137.956553 -250.614452 
L 138.247086 -250.228159 
L 138.581197 -249.841867 
L 138.961265 -249.455575 
L 139.388967 -249.069283 
L 139.865139 -248.682991 
L 140.389642 -248.296699 
L 140.961252 -247.910406 
L 141.577573 -247.524114 
L 142.234975 -247.137822 
L 142.928565 -246.75153 
L 143.65219 -246.365238 
L 144.39847 -245.978946 
L 145.158868 -245.592653 
L 145.923797 -245.206361 
L 146.68276 -244.820069 
L 147.424534 -244.433777 
L 148.137383 -244.047485 
L 148.809319 -243.661193 
L 149.428394 -243.2749 
L 149.98302 -242.888608 
L 150.462318 -242.502316 
L 150.856474 -242.116024 
L 151.157094 -241.729732 
L 151.357535 -241.34344 
L 151.453205 -240.957147 
L 151.441793 -240.570855 
L 151.323431 -240.184563 
L 151.100762 -239.798271 
L 150.7789 -239.411979 
L 150.365296 -239.025686 
L 149.869496 -238.639394 
L 149.302802 -238.253102 
L 148.677874 -237.86681 
L 148.008259 -237.480518 
L 147.307911 -237.094226 
L 146.590703 -236.707933 
L 145.869961 -236.321641 
L 145.158061 -235.935349 
L 144.46608 -235.549057 
L 143.803538 -235.162765 
L 143.17823 -234.776473 
L 142.596139 -234.39018 
L 142.061445 -234.003888 
L 141.5766 -233.617596 
L 141.142473 -233.231304 
L 140.758539 -232.845012 
L 140.423099 -232.45872 
L 140.133517 -232.072427 
L 139.886462 -231.686135 
L 139.678131 -231.299843 
L 139.504465 -230.913551 
L 139.36132 -230.527259 
L 139.244627 -230.140967 
L 139.1505 -229.754674 
L 139.075319 -229.368382 
L 139.015782 -228.98209 
L 138.96893 -228.595798 
L 138.932145 -228.209506 
L 138.903132 -227.823214 
L 138.879893 -227.436921 
L 138.860686 -227.050629 
L 138.843985 -226.664337 
L 138.82844 -226.278045 
L 138.812835 -225.891753 
L 138.79606 -225.50546 
L 138.777083 -225.119168 
L 138.754933 -224.732876 
L 138.728692 -224.346584 
L 138.697501 -223.960292 
L 138.660569 -223.574 
L 138.617196 -223.187707 
L 138.566802 -222.801415 
L 138.508959 -222.415123 
L 138.443427 -222.028831 
L 138.370186 -221.642539 
L 138.289462 -221.256247 
L 138.201739 -220.869954 
L 138.107768 -220.483662 
L 138.008543 -220.09737 
L 137.905281 -219.711078 
L 137.799368 -219.324786 
L 137.69231 -218.938494 
L 137.58566 -218.552201 
L 137.480954 -218.165909 
L 137.379641 -217.779617 
L 137.283026 -217.393325 
L 137.192213 -217.007033 
L 137.108076 -216.620741 
L 137.031236 -216.234448 
L 136.962057 -215.848156 
L 136.900655 -215.461864 
L 136.846922 -215.075572 
L 136.800559 -214.68928 
L 136.761112 -214.302988 
z
" style="stroke: #595959; stroke-width: 1.25"/>
    </defs>
    <g clip-path="url(#p8d80b78aaf)">
     <use xlink:href="#m8bbcc83e10" x="0" y="279.674688" style="fill: #95a3c3; stroke: #595959; stroke-width: 1.25"/>
    </g>
   </g>
   <g id="PolyCollection_3">
    <defs>
     <path id="m8419d6d66c" d="M 173.931635 -171.968044 
L 173.528687 -171.968044 
L 173.475088 -172.53892 
L 173.411786 -173.109797 
L 173.338336 -173.680674 
L 173.25462 -174.251551 
L 173.160909 -174.822428 
L 173.057886 -175.393305 
L 172.946649 -175.964182 
L 172.828655 -176.535059 
L 172.705623 -177.105936 
L 172.57938 -177.676813 
L 172.451669 -178.247689 
L 172.323918 -178.818566 
L 172.196998 -179.389443 
L 172.070986 -179.96032 
L 171.944963 -180.531197 
L 171.816863 -181.102074 
L 171.683409 -181.672951 
L 171.540137 -182.243828 
L 171.381526 -182.814705 
L 171.201232 -183.385582 
L 170.992411 -183.956458 
L 170.748112 -184.527335 
L 170.46172 -185.098212 
L 170.127403 -185.669089 
L 169.74055 -186.239966 
L 169.298151 -186.810843 
L 168.799107 -187.38172 
L 168.244446 -187.952597 
L 167.637434 -188.523474 
L 166.983578 -189.094351 
L 166.290524 -189.665227 
L 165.567854 -190.236104 
L 164.826804 -190.806981 
L 164.079895 -191.377858 
L 163.340504 -191.948735 
L 162.622383 -192.519612 
L 161.939139 -193.090489 
L 161.303688 -193.661366 
L 160.727714 -194.232243 
L 160.221142 -194.803119 
L 159.791675 -195.373996 
L 159.444416 -195.944873 
L 159.181612 -196.51575 
L 159.002561 -197.086627 
L 158.903694 -197.657504 
L 158.878857 -198.228381 
L 158.919772 -198.799258 
L 159.016669 -199.370135 
L 159.159023 -199.941012 
L 159.336366 -200.511888 
L 159.539072 -201.082765 
L 159.759068 -201.653642 
L 159.990382 -202.224519 
L 160.229488 -202.795396 
L 160.475404 -203.366273 
L 160.72954 -203.93715 
L 160.995306 -204.508027 
L 161.277532 -205.078904 
L 161.58175 -205.649781 
L 161.913431 -206.220657 
L 162.277233 -206.791534 
L 162.676355 -207.362411 
L 163.112052 -207.933288 
L 163.58335 -208.504165 
L 164.086979 -209.075042 
L 164.617533 -209.645919 
L 165.167818 -210.216796 
L 165.729343 -210.787673 
L 166.292919 -211.358549 
L 166.84928 -211.929426 
L 167.389691 -212.500303 
L 167.90648 -213.07118 
L 168.393449 -213.642057 
L 168.846157 -214.212934 
L 169.262037 -214.783811 
L 169.64038 -215.354688 
L 169.982165 -215.925565 
L 170.289798 -216.496442 
L 170.566756 -217.067318 
L 170.817206 -217.638195 
L 171.045601 -218.209072 
L 171.25631 -218.779949 
L 171.453309 -219.350826 
L 171.639933 -219.921703 
L 171.818722 -220.49258 
L 171.991363 -221.063457 
L 172.158703 -221.634334 
L 172.320843 -222.205211 
L 172.477285 -222.776087 
L 172.627106 -223.346964 
L 172.769152 -223.917841 
L 172.902214 -224.488718 
L 173.025191 -225.059595 
L 173.137205 -225.630472 
L 173.237688 -226.201349 
L 173.326419 -226.772226 
L 173.403523 -227.343103 
L 173.469444 -227.91398 
L 173.524888 -228.484856 
L 173.935434 -228.484856 
L 173.935434 -228.484856 
L 173.990878 -227.91398 
L 174.056798 -227.343103 
L 174.133902 -226.772226 
L 174.222633 -226.201349 
L 174.323116 -225.630472 
L 174.435131 -225.059595 
L 174.558107 -224.488718 
L 174.691169 -223.917841 
L 174.833215 -223.346964 
L 174.983037 -222.776087 
L 175.139478 -222.205211 
L 175.301619 -221.634334 
L 175.468958 -221.063457 
L 175.641599 -220.49258 
L 175.820389 -219.921703 
L 176.007012 -219.350826 
L 176.204011 -218.779949 
L 176.414721 -218.209072 
L 176.643115 -217.638195 
L 176.893565 -217.067318 
L 177.170524 -216.496442 
L 177.478156 -215.925565 
L 177.819941 -215.354688 
L 178.198284 -214.783811 
L 178.614165 -214.212934 
L 179.066872 -213.642057 
L 179.553841 -213.07118 
L 180.07063 -212.500303 
L 180.611042 -211.929426 
L 181.167402 -211.358549 
L 181.730978 -210.787673 
L 182.292503 -210.216796 
L 182.842788 -209.645919 
L 183.373343 -209.075042 
L 183.876972 -208.504165 
L 184.348269 -207.933288 
L 184.783966 -207.362411 
L 185.183088 -206.791534 
L 185.54689 -206.220657 
L 185.878571 -205.649781 
L 186.18279 -205.078904 
L 186.465015 -204.508027 
L 186.730781 -203.93715 
L 186.984917 -203.366273 
L 187.230833 -202.795396 
L 187.469939 -202.224519 
L 187.701253 -201.653642 
L 187.921249 -201.082765 
L 188.123956 -200.511888 
L 188.301298 -199.941012 
L 188.443653 -199.370135 
L 188.540549 -198.799258 
L 188.581465 -198.228381 
L 188.556628 -197.657504 
L 188.457761 -197.086627 
L 188.278709 -196.51575 
L 188.015905 -195.944873 
L 187.668646 -195.373996 
L 187.23918 -194.803119 
L 186.732608 -194.232243 
L 186.156633 -193.661366 
L 185.521183 -193.090489 
L 184.837938 -192.519612 
L 184.119818 -191.948735 
L 183.380426 -191.377858 
L 182.633517 -190.806981 
L 181.892467 -190.236104 
L 181.169798 -189.665227 
L 180.476743 -189.094351 
L 179.822887 -188.523474 
L 179.215875 -187.952597 
L 178.661215 -187.38172 
L 178.162171 -186.810843 
L 177.719771 -186.239966 
L 177.332918 -185.669089 
L 176.998601 -185.098212 
L 176.712209 -184.527335 
L 176.46791 -183.956458 
L 176.259089 -183.385582 
L 176.078796 -182.814705 
L 175.920185 -182.243828 
L 175.776912 -181.672951 
L 175.643458 -181.102074 
L 175.515359 -180.531197 
L 175.389335 -179.96032 
L 175.263323 -179.389443 
L 175.136403 -178.818566 
L 175.008652 -178.247689 
L 174.880941 -177.676813 
L 174.754698 -177.105936 
L 174.631666 -176.535059 
L 174.513672 -175.964182 
L 174.402435 -175.393305 
L 174.299413 -174.822428 
L 174.205701 -174.251551 
L 174.121986 -173.680674 
L 174.048535 -173.109797 
L 173.985233 -172.53892 
L 173.931635 -171.968044 
z
" style="stroke: #595959; stroke-width: 1.25"/>
    </defs>
    <g clip-path="url(#p8d80b78aaf)">
     <use xlink:href="#m8419d6d66c" x="0" y="279.674688" style="fill: #db96c0; stroke: #595959; stroke-width: 1.25"/>
    </g>
   </g>
   <g id="PolyCollection_4">
    <defs>
     <path id="m238a26321f" d="M 211.100208 -225.28001 
L 210.616634 -225.28001 
L 210.55429 -225.6681 
L 210.480091 -226.056189 
L 210.392937 -226.444279 
L 210.29191 -226.832369 
L 210.17634 -227.220458 
L 210.045879 -227.608548 
L 209.900551 -227.996638 
L 209.740793 -228.384728 
L 209.567479 -228.772817 
L 209.381904 -229.160907 
L 209.185752 -229.548997 
L 208.981024 -229.937086 
L 208.769939 -230.325176 
L 208.554816 -230.713266 
L 208.337933 -231.101355 
L 208.121383 -231.489445 
L 207.906936 -231.877535 
L 207.695918 -232.265625 
L 207.489116 -232.653714 
L 207.28672 -233.041804 
L 207.088315 -233.429894 
L 206.892912 -233.817983 
L 206.699022 -234.206073 
L 206.504766 -234.594163 
L 206.30802 -234.982252 
L 206.10656 -235.370342 
L 205.898216 -235.758432 
L 205.681009 -236.146522 
L 205.453266 -236.534611 
L 205.213696 -236.922701 
L 204.961436 -237.310791 
L 204.696055 -237.69888 
L 204.417525 -238.08697 
L 204.126172 -238.47506 
L 203.822602 -238.863149 
L 203.507626 -239.251239 
L 203.182183 -239.639329 
L 202.847276 -240.027418 
L 202.503921 -240.415508 
L 202.153109 -240.803598 
L 201.795794 -241.191688 
L 201.432887 -241.579777 
L 201.065275 -241.967867 
L 200.693847 -242.355957 
L 200.319536 -242.744046 
L 199.94338 -243.132136 
L 199.566586 -243.520226 
L 199.190617 -243.908315 
L 198.817296 -244.296405 
L 198.448904 -244.684495 
L 198.088297 -245.072585 
L 197.739001 -245.460674 
L 197.405286 -245.848764 
L 197.092206 -246.236854 
L 196.805567 -246.624943 
L 196.551843 -247.013033 
L 196.338001 -247.401123 
L 196.171252 -247.789212 
L 196.05873 -248.177302 
L 196.007117 -248.565392 
L 196.022244 -248.953482 
L 196.108698 -249.341571 
L 196.269463 -249.729661 
L 196.505644 -250.117751 
L 196.816291 -250.50584 
L 197.198347 -250.89393 
L 197.646731 -251.28202 
L 198.154545 -251.670109 
L 198.7134 -252.058199 
L 199.313821 -252.446289 
L 199.945705 -252.834378 
L 200.598792 -253.222468 
L 201.263109 -253.610558 
L 201.929357 -253.998648 
L 202.589215 -254.386737 
L 203.235546 -254.774827 
L 203.862501 -255.162917 
L 204.46553 -255.551006 
L 205.041303 -255.939096 
L 205.587577 -256.327186 
L 206.103022 -256.715275 
L 206.587025 -257.103365 
L 207.039511 -257.491455 
L 207.46077 -257.879545 
L 207.851328 -258.267634 
L 208.21185 -258.655724 
L 208.543082 -259.043814 
L 208.845819 -259.431903 
L 209.120911 -259.819993 
L 209.369272 -260.208083 
L 209.591906 -260.596172 
L 209.78993 -260.984262 
L 209.964587 -261.372352 
L 210.117254 -261.760442 
L 210.249434 -262.148531 
L 210.362738 -262.536621 
L 210.458857 -262.924711 
L 210.539524 -263.3128 
L 210.606479 -263.70089 
L 211.110363 -263.70089 
L 211.110363 -263.70089 
L 211.177318 -263.3128 
L 211.257985 -262.924711 
L 211.354103 -262.536621 
L 211.467407 -262.148531 
L 211.599588 -261.760442 
L 211.752255 -261.372352 
L 211.926912 -260.984262 
L 212.124936 -260.596172 
L 212.34757 -260.208083 
L 212.595931 -259.819993 
L 212.871023 -259.431903 
L 213.17376 -259.043814 
L 213.504991 -258.655724 
L 213.865514 -258.267634 
L 214.256072 -257.879545 
L 214.677331 -257.491455 
L 215.129816 -257.103365 
L 215.61382 -256.715275 
L 216.129265 -256.327186 
L 216.675539 -255.939096 
L 217.251312 -255.551006 
L 217.854341 -255.162917 
L 218.481296 -254.774827 
L 219.127627 -254.386737 
L 219.787484 -253.998648 
L 220.453732 -253.610558 
L 221.118049 -253.222468 
L 221.771137 -252.834378 
L 222.403021 -252.446289 
L 223.003442 -252.058199 
L 223.562297 -251.670109 
L 224.070111 -251.28202 
L 224.518494 -250.89393 
L 224.900551 -250.50584 
L 225.211198 -250.117751 
L 225.447379 -249.729661 
L 225.608143 -249.341571 
L 225.694597 -248.953482 
L 225.709725 -248.565392 
L 225.658112 -248.177302 
L 225.545589 -247.789212 
L 225.37884 -247.401123 
L 225.164999 -247.013033 
L 224.911275 -246.624943 
L 224.624636 -246.236854 
L 224.311555 -245.848764 
L 223.977841 -245.460674 
L 223.628545 -245.072585 
L 223.267938 -244.684495 
L 222.899546 -244.296405 
L 222.526224 -243.908315 
L 222.150256 -243.520226 
L 221.773461 -243.132136 
L 221.397305 -242.744046 
L 221.022995 -242.355957 
L 220.651567 -241.967867 
L 220.283955 -241.579777 
L 219.921048 -241.191688 
L 219.563732 -240.803598 
L 219.212921 -240.415508 
L 218.869566 -240.027418 
L 218.534659 -239.639329 
L 218.209216 -239.251239 
L 217.894239 -238.863149 
L 217.590669 -238.47506 
L 217.299317 -238.08697 
L 217.020787 -237.69888 
L 216.755405 -237.310791 
L 216.503145 -236.922701 
L 216.263575 -236.534611 
L 216.035832 -236.146522 
L 215.818626 -235.758432 
L 215.610282 -235.370342 
L 215.408822 -234.982252 
L 215.212076 -234.594163 
L 215.01782 -234.206073 
L 214.823929 -233.817983 
L 214.628526 -233.429894 
L 214.430122 -233.041804 
L 214.227726 -232.653714 
L 214.020923 -232.265625 
L 213.809905 -231.877535 
L 213.595459 -231.489445 
L 213.378909 -231.101355 
L 213.162025 -230.713266 
L 212.946903 -230.325176 
L 212.735818 -229.937086 
L 212.531089 -229.548997 
L 212.334937 -229.160907 
L 212.149363 -228.772817 
L 211.976048 -228.384728 
L 211.816291 -227.996638 
L 211.670962 -227.608548 
L 211.540501 -227.220458 
L 211.424932 -226.832369 
L 211.323904 -226.444279 
L 211.23675 -226.056189 
L 211.162551 -225.6681 
L 211.100208 -225.28001 
z
" style="stroke: #595959; stroke-width: 1.25"/>
    </defs>
    <g clip-path="url(#p8d80b78aaf)">
     <use xlink:href="#m238a26321f" x="0" y="279.674688" style="fill: #a2c865; stroke: #595959; stroke-width: 1.25"/>
    </g>
   </g>
   <g id="PolyCollection_5">
    <defs>
     <path id="m2fc357c099" d="M 248.136046 -250.225523 
L 247.837316 -250.225523 
L 247.802642 -250.333218 
L 247.762488 -250.440914 
L 247.716662 -250.548609 
L 247.665139 -250.656305 
L 247.608092 -250.764 
L 247.545921 -250.871696 
L 247.479268 -250.979391 
L 247.409016 -251.087087 
L 247.336282 -251.194782 
L 247.26238 -251.302478 
L 247.18878 -251.410173 
L 247.11704 -251.517869 
L 247.048728 -251.625564 
L 246.985341 -251.73326 
L 246.928213 -251.840955 
L 246.878432 -251.948651 
L 246.836765 -252.056346 
L 246.803599 -252.164042 
L 246.778913 -252.271737 
L 246.762263 -252.379433 
L 246.752807 -252.487128 
L 246.749353 -252.594824 
L 246.750432 -252.702519 
L 246.754389 -252.810215 
L 246.759486 -252.91791 
L 246.764005 -253.025606 
L 246.766347 -253.133301 
L 246.765107 -253.240997 
L 246.75913 -253.348692 
L 246.747533 -253.456388 
L 246.729692 -253.564083 
L 246.705198 -253.671779 
L 246.673781 -253.779474 
L 246.635216 -253.88717 
L 246.589206 -253.994865 
L 246.53528 -254.102561 
L 246.472696 -254.210256 
L 246.400369 -254.317952 
L 246.316848 -254.425647 
L 246.220328 -254.533343 
L 246.108728 -254.641038 
L 245.979808 -254.748734 
L 245.831341 -254.856429 
L 245.661321 -254.964125 
L 245.46818 -255.07182 
L 245.251011 -255.179516 
L 245.00976 -255.287211 
L 244.745369 -255.394907 
L 244.459843 -255.502602 
L 244.156234 -255.610298 
L 243.838511 -255.717993 
L 243.51134 -255.825689 
L 243.17976 -255.933384 
L 242.848778 -256.04108 
L 242.522931 -256.148775 
L 242.205818 -256.256471 
L 241.899676 -256.364166 
L 241.605032 -256.471862 
L 241.32047 -256.579557 
L 241.042566 -256.687253 
L 240.765994 -256.794948 
L 240.483837 -256.902644 
L 240.188088 -257.010339 
L 239.87031 -257.118035 
L 239.52243 -257.22573 
L 239.137593 -257.333426 
L 238.711023 -257.441121 
L 238.240805 -257.548817 
L 237.728517 -257.656512 
L 237.179651 -257.764208 
L 236.603767 -257.871903 
L 236.014341 -257.979599 
L 235.42831 -258.087294 
L 234.865327 -258.19499 
L 234.346762 -258.302685 
L 233.894526 -258.410381 
L 233.529797 -258.518076 
L 233.271746 -258.625772 
L 233.136346 -258.733467 
L 233.135377 -258.841163 
L 233.275681 -258.948858 
L 233.558734 -259.056554 
L 233.980553 -259.164249 
L 234.531951 -259.271945 
L 235.199096 -259.37964 
L 235.964332 -259.487336 
L 236.807192 -259.595031 
L 237.705519 -259.702727 
L 238.636607 -259.810422 
L 239.578298 -259.918118 
L 240.509938 -260.025813 
L 241.413171 -260.133509 
L 242.272509 -260.241204 
L 243.075688 -260.3489 
L 243.813793 -260.456595 
L 244.481192 -260.564291 
L 245.075297 -260.671986 
L 245.596201 -260.779682 
L 246.046233 -260.887377 
L 249.927129 -260.887377 
L 249.927129 -260.887377 
L 250.377161 -260.779682 
L 250.898065 -260.671986 
L 251.49217 -260.564291 
L 252.159569 -260.456595 
L 252.897674 -260.3489 
L 253.700853 -260.241204 
L 254.560191 -260.133509 
L 255.463424 -260.025813 
L 256.395064 -259.918118 
L 257.336755 -259.810422 
L 258.267843 -259.702727 
L 259.16617 -259.595031 
L 260.00903 -259.487336 
L 260.774266 -259.37964 
L 261.441411 -259.271945 
L 261.992809 -259.164249 
L 262.414629 -259.056554 
L 262.697681 -258.948858 
L 262.837985 -258.841163 
L 262.837016 -258.733467 
L 262.701616 -258.625772 
L 262.443565 -258.518076 
L 262.078837 -258.410381 
L 261.6266 -258.302685 
L 261.108035 -258.19499 
L 260.545052 -258.087294 
L 259.959022 -257.979599 
L 259.369595 -257.871903 
L 258.793711 -257.764208 
L 258.244846 -257.656512 
L 257.732557 -257.548817 
L 257.262339 -257.441121 
L 256.835769 -257.333426 
L 256.450932 -257.22573 
L 256.103052 -257.118035 
L 255.785274 -257.010339 
L 255.489525 -256.902644 
L 255.207368 -256.794948 
L 254.930796 -256.687253 
L 254.652892 -256.579557 
L 254.36833 -256.471862 
L 254.073686 -256.364166 
L 253.767544 -256.256471 
L 253.450431 -256.148775 
L 253.124584 -256.04108 
L 252.793603 -255.933384 
L 252.462022 -255.825689 
L 252.134851 -255.717993 
L 251.817128 -255.610298 
L 251.513519 -255.502602 
L 251.227993 -255.394907 
L 250.963602 -255.287211 
L 250.722351 -255.179516 
L 250.505182 -255.07182 
L 250.312041 -254.964125 
L 250.142021 -254.856429 
L 249.993554 -254.748734 
L 249.864634 -254.641038 
L 249.753034 -254.533343 
L 249.656514 -254.425647 
L 249.572993 -254.317952 
L 249.500666 -254.210256 
L 249.438082 -254.102561 
L 249.384156 -253.994865 
L 249.338146 -253.88717 
L 249.299581 -253.779474 
L 249.268164 -253.671779 
L 249.24367 -253.564083 
L 249.225829 -253.456388 
L 249.214232 -253.348692 
L 249.208255 -253.240997 
L 249.207015 -253.133301 
L 249.209357 -253.025606 
L 249.213877 -252.91791 
L 249.218973 -252.810215 
L 249.22293 -252.702519 
L 249.224009 -252.594824 
L 249.220555 -252.487128 
L 249.211099 -252.379433 
L 249.194449 -252.271737 
L 249.169763 -252.164042 
L 249.136598 -252.056346 
L 249.09493 -251.948651 
L 249.045149 -251.840955 
L 248.988022 -251.73326 
L 248.924634 -251.625564 
L 248.856322 -251.517869 
L 248.784582 -251.410173 
L 248.710982 -251.302478 
L 248.63708 -251.194782 
L 248.564346 -251.087087 
L 248.494094 -250.979391 
L 248.427441 -250.871696 
L 248.36527 -250.764 
L 248.308223 -250.656305 
L 248.2567 -250.548609 
L 248.210874 -250.440914 
L 248.17072 -250.333218 
L 248.136046 -250.225523 
z
" style="stroke: #595959; stroke-width: 1.25"/>
    </defs>
    <g clip-path="url(#p8d80b78aaf)">
     <use xlink:href="#m2fc357c099" x="0" y="279.674688" style="fill: #e5c849; stroke: #595959; stroke-width: 1.25"/>
    </g>
   </g>
   <g id="matplotlib.axis_1">
    <g id="xtick_1">
     <g id="line2d_1">
      <defs>
       <path id="m2964c82f49" d="M 0 0 
L 0 3.5 
" style="stroke: #000000; stroke-width: 0.8"/>
      </defs>
      <g>
       <use xlink:href="#m2964c82f49" x="62.34538" y="242.118437" style="stroke: #000000; stroke-width: 0.8"/>
      </g>
     </g>
     <g id="text_1">
      <!-- 1 -->
      <g transform="translate(59.16413 256.716875) scale(0.1 -0.1)">
       <defs>
        <path id="DejaVuSans-31" d="M 794 531 
L 1825 531 
L 1825 4091 
L 703 3866 
L 703 4441 
L 1819 4666 
L 2450 4666 
L 2450 531 
L 3481 531 
L 3481 0 
L 794 0 
L 794 531 
z
" transform="scale(0.015625)"/>
       </defs>
       <use xlink:href="#DejaVuSans-31"/>
      </g>
     </g>
    </g>
    <g id="xtick_2">
     <g id="line2d_2">
      <g>
       <use xlink:href="#m2964c82f49" x="99.47364" y="242.118437" style="stroke: #000000; stroke-width: 0.8"/>
      </g>
     </g>
     <g id="text_2">
      <!-- 2 -->
      <g transform="translate(96.29239 256.716875) scale(0.1 -0.1)">
       <defs>
        <path id="DejaVuSans-32" d="M 1228 531 
L 3431 531 
L 3431 0 
L 469 0 
L 469 531 
Q 828 903 1448 1529 
Q 2069 2156 2228 2338 
Q 2531 2678 2651 2914 
Q 2772 3150 2772 3378 
Q 2772 3750 2511 3984 
Q 2250 4219 1831 4219 
Q 1534 4219 1204 4116 
Q 875 4013 500 3803 
L 500 4441 
Q 881 4594 1212 4672 
Q 1544 4750 1819 4750 
Q 2544 4750 2975 4387 
Q 3406 4025 3406 3419 
Q 3406 3131 3298 2873 
Q 3191 2616 2906 2266 
Q 2828 2175 2409 1742 
Q 1991 1309 1228 531 
z
" transform="scale(0.015625)"/>
       </defs>
       <use xlink:href="#DejaVuSans-32"/>
      </g>
     </g>
    </g>
    <g id="xtick_3">
     <g id="line2d_3">
      <g>
       <use xlink:href="#m2964c82f49" x="136.6019" y="242.118437" style="stroke: #000000; stroke-width: 0.8"/>
      </g>
     </g>
     <g id="text_3">
      <!-- 3 -->
      <g transform="translate(133.42065 256.716875) scale(0.1 -0.1)">
       <defs>
        <path id="DejaVuSans-33" d="M 2597 2516 
Q 3050 2419 3304 2112 
Q 3559 1806 3559 1356 
Q 3559 666 3084 287 
Q 2609 -91 1734 -91 
Q 1441 -91 1130 -33 
Q 819 25 488 141 
L 488 750 
Q 750 597 1062 519 
Q 1375 441 1716 441 
Q 2309 441 2620 675 
Q 2931 909 2931 1356 
Q 2931 1769 2642 2001 
Q 2353 2234 1838 2234 
L 1294 2234 
L 1294 2753 
L 1863 2753 
Q 2328 2753 2575 2939 
Q 2822 3125 2822 3475 
Q 2822 3834 2567 4026 
Q 2313 4219 1838 4219 
Q 1578 4219 1281 4162 
Q 984 4106 628 3988 
L 628 4550 
Q 988 4650 1302 4700 
Q 1616 4750 1894 4750 
Q 2613 4750 3031 4423 
Q 3450 4097 3450 3541 
Q 3450 3153 3228 2886 
Q 3006 2619 2597 2516 
z
" transform="scale(0.015625)"/>
       </defs>
       <use xlink:href="#DejaVuSans-33"/>
      </g>
     </g>
    </g>
    <g id="xtick_4">
     <g id="line2d_4">
      <g>
       <use xlink:href="#m2964c82f49" x="173.730161" y="242.118437" style="stroke: #000000; stroke-width: 0.8"/>
      </g>
     </g>
     <g id="text_4">
      <!-- 4 -->
      <g transform="translate(170.548911 256.716875) scale(0.1 -0.1)">
       <defs>
        <path id="DejaVuSans-34" d="M 2419 4116 
L 825 1625 
L 2419 1625 
L 2419 4116 
z
M 2253 4666 
L 3047 4666 
L 3047 1625 
L 3713 1625 
L 3713 1100 
L 3047 1100 
L 3047 0 
L 2419 0 
L 2419 1100 
L 313 1100 
L 313 1709 
L 2253 4666 
z
" transform="scale(0.015625)"/>
       </defs>
       <use xlink:href="#DejaVuSans-34"/>
      </g>
     </g>
    </g>
    <g id="xtick_5">
     <g id="line2d_5">
      <g>
       <use xlink:href="#m2964c82f49" x="210.858421" y="242.118437" style="stroke: #000000; stroke-width: 0.8"/>
      </g>
     </g>
     <g id="text_5">
      <!-- 5 -->
      <g transform="translate(207.677171 256.716875) scale(0.1 -0.1)">
       <defs>
        <path id="DejaVuSans-35" d="M 691 4666 
L 3169 4666 
L 3169 4134 
L 1269 4134 
L 1269 2991 
Q 1406 3038 1543 3061 
Q 1681 3084 1819 3084 
Q 2600 3084 3056 2656 
Q 3513 2228 3513 1497 
Q 3513 744 3044 326 
Q 2575 -91 1722 -91 
Q 1428 -91 1123 -41 
Q 819 9 494 109 
L 494 744 
Q 775 591 1075 516 
Q 1375 441 1709 441 
Q 2250 441 2565 725 
Q 2881 1009 2881 1497 
Q 2881 1984 2565 2268 
Q 2250 2553 1709 2553 
Q 1456 2553 1204 2497 
Q 953 2441 691 2322 
L 691 4666 
z
" transform="scale(0.015625)"/>
       </defs>
       <use xlink:href="#DejaVuSans-35"/>
      </g>
     </g>
    </g>
    <g id="xtick_6">
     <g id="line2d_6">
      <g>
       <use xlink:href="#m2964c82f49" x="247.986681" y="242.118437" style="stroke: #000000; stroke-width: 0.8"/>
      </g>
     </g>
     <g id="text_6">
      <!-- 6 -->
      <g transform="translate(244.805431 256.716875) scale(0.1 -0.1)">
       <defs>
        <path id="DejaVuSans-36" d="M 2113 2584 
Q 1688 2584 1439 2293 
Q 1191 2003 1191 1497 
Q 1191 994 1439 701 
Q 1688 409 2113 409 
Q 2538 409 2786 701 
Q 3034 994 3034 1497 
Q 3034 2003 2786 2293 
Q 2538 2584 2113 2584 
z
M 3366 4563 
L 3366 3988 
Q 3128 4100 2886 4159 
Q 2644 4219 2406 4219 
Q 1781 4219 1451 3797 
Q 1122 3375 1075 2522 
Q 1259 2794 1537 2939 
Q 1816 3084 2150 3084 
Q 2853 3084 3261 2657 
Q 3669 2231 3669 1497 
Q 3669 778 3244 343 
Q 2819 -91 2113 -91 
Q 1303 -91 875 529 
Q 447 1150 447 2328 
Q 447 3434 972 4092 
Q 1497 4750 2381 4750 
Q 2619 4750 2861 4703 
Q 3103 4656 3366 4563 
z
" transform="scale(0.015625)"/>
       </defs>
       <use xlink:href="#DejaVuSans-36"/>
      </g>
     </g>
    </g>
    <g id="text_7">
     <!-- Layer -->
     <g transform="translate(141.224624 270.395) scale(0.1 -0.1)">
      <defs>
       <path id="DejaVuSans-4c" d="M 628 4666 
L 1259 4666 
L 1259 531 
L 3531 531 
L 3531 0 
L 628 0 
L 628 4666 
z
" transform="scale(0.015625)"/>
       <path id="DejaVuSans-61" d="M 2194 1759 
Q 1497 1759 1228 1600 
Q 959 1441 959 1056 
Q 959 750 1161 570 
Q 1363 391 1709 391 
Q 2188 391 2477 730 
Q 2766 1069 2766 1631 
L 2766 1759 
L 2194 1759 
z
M 3341 1997 
L 3341 0 
L 2766 0 
L 2766 531 
Q 2569 213 2275 61 
Q 1981 -91 1556 -91 
Q 1019 -91 701 211 
Q 384 513 384 1019 
Q 384 1609 779 1909 
Q 1175 2209 1959 2209 
L 2766 2209 
L 2766 2266 
Q 2766 2663 2505 2880 
Q 2244 3097 1772 3097 
Q 1472 3097 1187 3025 
Q 903 2953 641 2809 
L 641 3341 
Q 956 3463 1253 3523 
Q 1550 3584 1831 3584 
Q 2591 3584 2966 3190 
Q 3341 2797 3341 1997 
z
" transform="scale(0.015625)"/>
       <path id="DejaVuSans-79" d="M 2059 -325 
Q 1816 -950 1584 -1140 
Q 1353 -1331 966 -1331 
L 506 -1331 
L 506 -850 
L 844 -850 
Q 1081 -850 1212 -737 
Q 1344 -625 1503 -206 
L 1606 56 
L 191 3500 
L 800 3500 
L 1894 763 
L 2988 3500 
L 3597 3500 
L 2059 -325 
z
" transform="scale(0.015625)"/>
       <path id="DejaVuSans-65" d="M 3597 1894 
L 3597 1613 
L 953 1613 
Q 991 1019 1311 708 
Q 1631 397 2203 397 
Q 2534 397 2845 478 
Q 3156 559 3463 722 
L 3463 178 
Q 3153 47 2828 -22 
Q 2503 -91 2169 -91 
Q 1331 -91 842 396 
Q 353 884 353 1716 
Q 353 2575 817 3079 
Q 1281 3584 2069 3584 
Q 2775 3584 3186 3129 
Q 3597 2675 3597 1894 
z
M 3022 2063 
Q 3016 2534 2758 2815 
Q 2500 3097 2075 3097 
Q 1594 3097 1305 2825 
Q 1016 2553 972 2059 
L 3022 2063 
z
" transform="scale(0.015625)"/>
       <path id="DejaVuSans-72" d="M 2631 2963 
Q 2534 3019 2420 3045 
Q 2306 3072 2169 3072 
Q 1681 3072 1420 2755 
Q 1159 2438 1159 1844 
L 1159 0 
L 581 0 
L 581 3500 
L 1159 3500 
L 1159 2956 
Q 1341 3275 1631 3429 
Q 1922 3584 2338 3584 
Q 2397 3584 2469 3576 
Q 2541 3569 2628 3553 
L 2631 2963 
z
" transform="scale(0.015625)"/>
      </defs>
      <use xlink:href="#DejaVuSans-4c"/>
      <use xlink:href="#DejaVuSans-61" x="55.712891"/>
      <use xlink:href="#DejaVuSans-79" x="116.992188"/>
      <use xlink:href="#DejaVuSans-65" x="176.171875"/>
      <use xlink:href="#DejaVuSans-72" x="237.695312"/>
     </g>
    </g>
   </g>
   <g id="matplotlib.axis_2">
    <g id="ytick_1">
     <g id="line2d_7">
      <defs>
       <path id="md0a957c03d" d="M 0 0 
L -3.5 0 
" style="stroke: #000000; stroke-width: 0.8"/>
      </defs>
      <g>
       <use xlink:href="#md0a957c03d" x="43.78125" y="242.118437" style="stroke: #000000; stroke-width: 0.8"/>
      </g>
     </g>
     <g id="text_8">
      <!-- 0.0 -->
      <g transform="translate(20.878125 245.917656) scale(0.1 -0.1)">
       <defs>
        <path id="DejaVuSans-30" d="M 2034 4250 
Q 1547 4250 1301 3770 
Q 1056 3291 1056 2328 
Q 1056 1369 1301 889 
Q 1547 409 2034 409 
Q 2525 409 2770 889 
Q 3016 1369 3016 2328 
Q 3016 3291 2770 3770 
Q 2525 4250 2034 4250 
z
M 2034 4750 
Q 2819 4750 3233 4129 
Q 3647 3509 3647 2328 
Q 3647 1150 3233 529 
Q 2819 -91 2034 -91 
Q 1250 -91 836 529 
Q 422 1150 422 2328 
Q 422 3509 836 4129 
Q 1250 4750 2034 4750 
z
" transform="scale(0.015625)"/>
        <path id="DejaVuSans-2e" d="M 684 794 
L 1344 794 
L 1344 0 
L 684 0 
L 684 794 
z
" transform="scale(0.015625)"/>
       </defs>
       <use xlink:href="#DejaVuSans-30"/>
       <use xlink:href="#DejaVuSans-2e" x="63.623047"/>
       <use xlink:href="#DejaVuSans-30" x="95.410156"/>
      </g>
     </g>
    </g>
    <g id="ytick_2">
     <g id="line2d_8">
      <g>
       <use xlink:href="#md0a957c03d" x="43.78125" y="197.854437" style="stroke: #000000; stroke-width: 0.8"/>
      </g>
     </g>
     <g id="text_9">
      <!-- 0.2 -->
      <g transform="translate(20.878125 201.653656) scale(0.1 -0.1)">
       <use xlink:href="#DejaVuSans-30"/>
       <use xlink:href="#DejaVuSans-2e" x="63.623047"/>
       <use xlink:href="#DejaVuSans-32" x="95.410156"/>
      </g>
     </g>
    </g>
    <g id="ytick_3">
     <g id="line2d_9">
      <g>
       <use xlink:href="#md0a957c03d" x="43.78125" y="153.590437" style="stroke: #000000; stroke-width: 0.8"/>
      </g>
     </g>
     <g id="text_10">
      <!-- 0.4 -->
      <g transform="translate(20.878125 157.389656) scale(0.1 -0.1)">
       <use xlink:href="#DejaVuSans-30"/>
       <use xlink:href="#DejaVuSans-2e" x="63.623047"/>
       <use xlink:href="#DejaVuSans-34" x="95.410156"/>
      </g>
     </g>
    </g>
    <g id="ytick_4">
     <g id="line2d_10">
      <g>
       <use xlink:href="#md0a957c03d" x="43.78125" y="109.326437" style="stroke: #000000; stroke-width: 0.8"/>
      </g>
     </g>
     <g id="text_11">
      <!-- 0.6 -->
      <g transform="translate(20.878125 113.125656) scale(0.1 -0.1)">
       <use xlink:href="#DejaVuSans-30"/>
       <use xlink:href="#DejaVuSans-2e" x="63.623047"/>
       <use xlink:href="#DejaVuSans-36" x="95.410156"/>
      </g>
     </g>
    </g>
    <g id="ytick_5">
     <g id="line2d_11">
      <g>
       <use xlink:href="#md0a957c03d" x="43.78125" y="65.062437" style="stroke: #000000; stroke-width: 0.8"/>
      </g>
     </g>
     <g id="text_12">
      <!-- 0.8 -->
      <g transform="translate(20.878125 68.861656) scale(0.1 -0.1)">
       <defs>
        <path id="DejaVuSans-38" d="M 2034 2216 
Q 1584 2216 1326 1975 
Q 1069 1734 1069 1313 
Q 1069 891 1326 650 
Q 1584 409 2034 409 
Q 2484 409 2743 651 
Q 3003 894 3003 1313 
Q 3003 1734 2745 1975 
Q 2488 2216 2034 2216 
z
M 1403 2484 
Q 997 2584 770 2862 
Q 544 3141 544 3541 
Q 544 4100 942 4425 
Q 1341 4750 2034 4750 
Q 2731 4750 3128 4425 
Q 3525 4100 3525 3541 
Q 3525 3141 3298 2862 
Q 3072 2584 2669 2484 
Q 3125 2378 3379 2068 
Q 3634 1759 3634 1313 
Q 3634 634 3220 271 
Q 2806 -91 2034 -91 
Q 1263 -91 848 271 
Q 434 634 434 1313 
Q 434 1759 690 2068 
Q 947 2378 1403 2484 
z
M 1172 3481 
Q 1172 3119 1398 2916 
Q 1625 2713 2034 2713 
Q 2441 2713 2670 2916 
Q 2900 3119 2900 3481 
Q 2900 3844 2670 4047 
Q 2441 4250 2034 4250 
Q 1625 4250 1398 4047 
Q 1172 3844 1172 3481 
z
" transform="scale(0.015625)"/>
       </defs>
       <use xlink:href="#DejaVuSans-30"/>
       <use xlink:href="#DejaVuSans-2e" x="63.623047"/>
       <use xlink:href="#DejaVuSans-38" x="95.410156"/>
      </g>
     </g>
    </g>
    <g id="ytick_6">
     <g id="line2d_12">
      <g>
       <use xlink:href="#md0a957c03d" x="43.78125" y="20.798437" style="stroke: #000000; stroke-width: 0.8"/>
      </g>
     </g>
     <g id="text_13">
      <!-- 1.0 -->
      <g transform="translate(20.878125 24.597656) scale(0.1 -0.1)">
       <use xlink:href="#DejaVuSans-31"/>
       <use xlink:href="#DejaVuSans-2e" x="63.623047"/>
       <use xlink:href="#DejaVuSans-30" x="95.410156"/>
      </g>
     </g>
    </g>
    <g id="text_14">
     <!-- Accuracy -->
     <g transform="translate(14.798438 154.286563) rotate(-90) scale(0.1 -0.1)">
      <defs>
       <path id="DejaVuSans-41" d="M 2188 4044 
L 1331 1722 
L 3047 1722 
L 2188 4044 
z
M 1831 4666 
L 2547 4666 
L 4325 0 
L 3669 0 
L 3244 1197 
L 1141 1197 
L 716 0 
L 50 0 
L 1831 4666 
z
" transform="scale(0.015625)"/>
       <path id="DejaVuSans-63" d="M 3122 3366 
L 3122 2828 
Q 2878 2963 2633 3030 
Q 2388 3097 2138 3097 
Q 1578 3097 1268 2742 
Q 959 2388 959 1747 
Q 959 1106 1268 751 
Q 1578 397 2138 397 
Q 2388 397 2633 464 
Q 2878 531 3122 666 
L 3122 134 
Q 2881 22 2623 -34 
Q 2366 -91 2075 -91 
Q 1284 -91 818 406 
Q 353 903 353 1747 
Q 353 2603 823 3093 
Q 1294 3584 2113 3584 
Q 2378 3584 2631 3529 
Q 2884 3475 3122 3366 
z
" transform="scale(0.015625)"/>
       <path id="DejaVuSans-75" d="M 544 1381 
L 544 3500 
L 1119 3500 
L 1119 1403 
Q 1119 906 1312 657 
Q 1506 409 1894 409 
Q 2359 409 2629 706 
Q 2900 1003 2900 1516 
L 2900 3500 
L 3475 3500 
L 3475 0 
L 2900 0 
L 2900 538 
Q 2691 219 2414 64 
Q 2138 -91 1772 -91 
Q 1169 -91 856 284 
Q 544 659 544 1381 
z
M 1991 3584 
L 1991 3584 
z
" transform="scale(0.015625)"/>
      </defs>
      <use xlink:href="#DejaVuSans-41"/>
      <use xlink:href="#DejaVuSans-63" x="66.658203"/>
      <use xlink:href="#DejaVuSans-63" x="121.638672"/>
      <use xlink:href="#DejaVuSans-75" x="176.619141"/>
      <use xlink:href="#DejaVuSans-72" x="239.998047"/>
      <use xlink:href="#DejaVuSans-61" x="281.111328"/>
      <use xlink:href="#DejaVuSans-63" x="342.390625"/>
      <use xlink:href="#DejaVuSans-79" x="397.371094"/>
     </g>
    </g>
   </g>
   <g id="line2d_13">
    <path d="M 84.622336 20.798437 
L 114.324944 20.798437 
" clip-path="url(#p8d80b78aaf)" style="fill: none; stroke: #595959; stroke-width: 1.25; stroke-linecap: square"/>
   </g>
   <g id="line2d_14">
    <path d="M 43.78125 131.458438 
L 266.550811 131.458438 
" clip-path="url(#p8d80b78aaf)" style="fill: none; stroke-dasharray: 5.55,2.4; stroke-dashoffset: 0; stroke: #808080; stroke-width: 1.5"/>
   </g>
   <g id="patch_3">
    <path d="M 43.78125 242.118437 
L 43.78125 20.798437 
" style="fill: none; stroke: #000000; stroke-width: 0.8; stroke-linejoin: miter; stroke-linecap: square"/>
   </g>
   <g id="patch_4">
    <path d="M 43.78125 242.118437 
L 266.550811 242.118437 
" style="fill: none; stroke: #000000; stroke-width: 0.8; stroke-linejoin: miter; stroke-linecap: square"/>
   </g>
   <g id="PathCollection_1">
    <defs>
     <path id="m733e4d0a0e" d="M 0 1.25 
C 0.331504 1.25 0.649475 1.118292 0.883883 0.883883 
C 1.118292 0.649475 1.25 0.331504 1.25 0 
C 1.25 -0.331504 1.118292 -0.649475 0.883883 -0.883883 
C 0.649475 -1.118292 0.331504 -1.25 0 -1.25 
C -0.331504 -1.25 -0.649475 -1.118292 -0.883883 -0.883883 
C -1.118292 -0.649475 -1.25 -0.331504 -1.25 0 
C -1.25 0.331504 -1.118292 0.649475 -0.883883 0.883883 
C -0.649475 1.118292 -0.331504 1.25 0 1.25 
z
" style="stroke: #595959"/>
    </defs>
    <g clip-path="url(#p8d80b78aaf)">
     <use xlink:href="#m733e4d0a0e" x="62.34538" y="38.504037" style="fill: #595959; stroke: #595959"/>
     <use xlink:href="#m733e4d0a0e" x="62.34538" y="31.864437" style="fill: #595959; stroke: #595959"/>
     <use xlink:href="#m733e4d0a0e" x="62.34538" y="27.438037" style="fill: #595959; stroke: #595959"/>
     <use xlink:href="#m733e4d0a0e" x="62.34538" y="34.077637" style="fill: #595959; stroke: #595959"/>
     <use xlink:href="#m733e4d0a0e" x="62.34538" y="29.651237" style="fill: #595959; stroke: #595959"/>
     <use xlink:href="#m733e4d0a0e" x="62.34538" y="29.651237" style="fill: #595959; stroke: #595959"/>
     <use xlink:href="#m733e4d0a0e" x="62.34538" y="29.651237" style="fill: #595959; stroke: #595959"/>
     <use xlink:href="#m733e4d0a0e" x="62.34538" y="49.570038" style="fill: #595959; stroke: #595959"/>
     <use xlink:href="#m733e4d0a0e" x="62.34538" y="40.717238" style="fill: #595959; stroke: #595959"/>
     <use xlink:href="#m733e4d0a0e" x="62.34538" y="29.651237" style="fill: #595959; stroke: #595959"/>
     <use xlink:href="#m733e4d0a0e" x="62.34538" y="23.011637" style="fill: #595959; stroke: #595959"/>
     <use xlink:href="#m733e4d0a0e" x="62.34538" y="47.356837" style="fill: #595959; stroke: #595959"/>
     <use xlink:href="#m733e4d0a0e" x="62.34538" y="34.077637" style="fill: #595959; stroke: #595959"/>
     <use xlink:href="#m733e4d0a0e" x="62.34538" y="29.651237" style="fill: #595959; stroke: #595959"/>
     <use xlink:href="#m733e4d0a0e" x="62.34538" y="34.077637" style="fill: #595959; stroke: #595959"/>
     <use xlink:href="#m733e4d0a0e" x="62.34538" y="31.864437" style="fill: #595959; stroke: #595959"/>
     <use xlink:href="#m733e4d0a0e" x="62.34538" y="29.651237" style="fill: #595959; stroke: #595959"/>
     <use xlink:href="#m733e4d0a0e" x="62.34538" y="20.798437" style="fill: #595959; stroke: #595959"/>
     <use xlink:href="#m733e4d0a0e" x="62.34538" y="27.438037" style="fill: #595959; stroke: #595959"/>
     <use xlink:href="#m733e4d0a0e" x="62.34538" y="23.011637" style="fill: #595959; stroke: #595959"/>
    </g>
   </g>
   <g id="PathCollection_2">
    <g clip-path="url(#p8d80b78aaf)">
     <use xlink:href="#m733e4d0a0e" x="136.6019" y="38.504037" style="fill: #595959; stroke: #595959"/>
     <use xlink:href="#m733e4d0a0e" x="136.6019" y="42.930437" style="fill: #595959; stroke: #595959"/>
     <use xlink:href="#m733e4d0a0e" x="136.6019" y="38.504037" style="fill: #595959; stroke: #595959"/>
     <use xlink:href="#m733e4d0a0e" x="136.6019" y="36.290837" style="fill: #595959; stroke: #595959"/>
     <use xlink:href="#m733e4d0a0e" x="136.6019" y="34.077637" style="fill: #595959; stroke: #595959"/>
     <use xlink:href="#m733e4d0a0e" x="136.6019" y="40.717238" style="fill: #595959; stroke: #595959"/>
     <use xlink:href="#m733e4d0a0e" x="136.6019" y="38.504037" style="fill: #595959; stroke: #595959"/>
     <use xlink:href="#m733e4d0a0e" x="136.6019" y="53.996437" style="fill: #595959; stroke: #595959"/>
     <use xlink:href="#m733e4d0a0e" x="136.6019" y="34.077637" style="fill: #595959; stroke: #595959"/>
     <use xlink:href="#m733e4d0a0e" x="136.6019" y="49.570038" style="fill: #595959; stroke: #595959"/>
     <use xlink:href="#m733e4d0a0e" x="136.6019" y="38.504037" style="fill: #595959; stroke: #595959"/>
     <use xlink:href="#m733e4d0a0e" x="136.6019" y="38.504037" style="fill: #595959; stroke: #595959"/>
     <use xlink:href="#m733e4d0a0e" x="136.6019" y="40.717237" style="fill: #595959; stroke: #595959"/>
     <use xlink:href="#m733e4d0a0e" x="136.6019" y="36.290837" style="fill: #595959; stroke: #595959"/>
     <use xlink:href="#m733e4d0a0e" x="136.6019" y="58.422838" style="fill: #595959; stroke: #595959"/>
     <use xlink:href="#m733e4d0a0e" x="136.6019" y="40.717238" style="fill: #595959; stroke: #595959"/>
     <use xlink:href="#m733e4d0a0e" x="136.6019" y="40.717238" style="fill: #595959; stroke: #595959"/>
     <use xlink:href="#m733e4d0a0e" x="136.6019" y="45.143638" style="fill: #595959; stroke: #595959"/>
     <use xlink:href="#m733e4d0a0e" x="136.6019" y="36.290837" style="fill: #595959; stroke: #595959"/>
     <use xlink:href="#m733e4d0a0e" x="136.6019" y="40.717238" style="fill: #595959; stroke: #595959"/>
    </g>
   </g>
   <g id="PathCollection_3">
    <g clip-path="url(#p8d80b78aaf)">
     <use xlink:href="#m733e4d0a0e" x="173.730161" y="71.702037" style="fill: #595959; stroke: #595959"/>
     <use xlink:href="#m733e4d0a0e" x="173.730161" y="82.768037" style="fill: #595959; stroke: #595959"/>
     <use xlink:href="#m733e4d0a0e" x="173.730161" y="60.636037" style="fill: #595959; stroke: #595959"/>
     <use xlink:href="#m733e4d0a0e" x="173.730161" y="82.768037" style="fill: #595959; stroke: #595959"/>
     <use xlink:href="#m733e4d0a0e" x="173.730161" y="80.554837" style="fill: #595959; stroke: #595959"/>
     <use xlink:href="#m733e4d0a0e" x="173.730161" y="71.702037" style="fill: #595959; stroke: #595959"/>
     <use xlink:href="#m733e4d0a0e" x="173.730161" y="73.915237" style="fill: #595959; stroke: #595959"/>
     <use xlink:href="#m733e4d0a0e" x="173.730161" y="76.128437" style="fill: #595959; stroke: #595959"/>
     <use xlink:href="#m733e4d0a0e" x="173.730161" y="78.341637" style="fill: #595959; stroke: #595959"/>
     <use xlink:href="#m733e4d0a0e" x="173.730161" y="80.554837" style="fill: #595959; stroke: #595959"/>
     <use xlink:href="#m733e4d0a0e" x="173.730161" y="73.915237" style="fill: #595959; stroke: #595959"/>
     <use xlink:href="#m733e4d0a0e" x="173.730161" y="98.260437" style="fill: #595959; stroke: #595959"/>
     <use xlink:href="#m733e4d0a0e" x="173.730161" y="71.702037" style="fill: #595959; stroke: #595959"/>
     <use xlink:href="#m733e4d0a0e" x="173.730161" y="87.194437" style="fill: #595959; stroke: #595959"/>
     <use xlink:href="#m733e4d0a0e" x="173.730161" y="67.275637" style="fill: #595959; stroke: #595959"/>
     <use xlink:href="#m733e4d0a0e" x="173.730161" y="84.981237" style="fill: #595959; stroke: #595959"/>
     <use xlink:href="#m733e4d0a0e" x="173.730161" y="87.194437" style="fill: #595959; stroke: #595959"/>
     <use xlink:href="#m733e4d0a0e" x="173.730161" y="82.768037" style="fill: #595959; stroke: #595959"/>
     <use xlink:href="#m733e4d0a0e" x="173.730161" y="82.768037" style="fill: #595959; stroke: #595959"/>
     <use xlink:href="#m733e4d0a0e" x="173.730161" y="89.407637" style="fill: #595959; stroke: #595959"/>
    </g>
   </g>
   <g id="PathCollection_4">
    <g clip-path="url(#p8d80b78aaf)">
     <use xlink:href="#m733e4d0a0e" x="210.858421" y="29.651237" style="fill: #595959; stroke: #595959"/>
     <use xlink:href="#m733e4d0a0e" x="210.858421" y="36.290837" style="fill: #595959; stroke: #595959"/>
     <use xlink:href="#m733e4d0a0e" x="210.858421" y="45.143637" style="fill: #595959; stroke: #595959"/>
     <use xlink:href="#m733e4d0a0e" x="210.858421" y="40.717238" style="fill: #595959; stroke: #595959"/>
     <use xlink:href="#m733e4d0a0e" x="210.858421" y="40.717238" style="fill: #595959; stroke: #595959"/>
     <use xlink:href="#m733e4d0a0e" x="210.858421" y="23.011637" style="fill: #595959; stroke: #595959"/>
     <use xlink:href="#m733e4d0a0e" x="210.858421" y="29.651237" style="fill: #595959; stroke: #595959"/>
     <use xlink:href="#m733e4d0a0e" x="210.858421" y="38.504037" style="fill: #595959; stroke: #595959"/>
     <use xlink:href="#m733e4d0a0e" x="210.858421" y="31.864437" style="fill: #595959; stroke: #595959"/>
     <use xlink:href="#m733e4d0a0e" x="210.858421" y="47.356838" style="fill: #595959; stroke: #595959"/>
     <use xlink:href="#m733e4d0a0e" x="210.858421" y="29.651237" style="fill: #595959; stroke: #595959"/>
     <use xlink:href="#m733e4d0a0e" x="210.858421" y="29.651237" style="fill: #595959; stroke: #595959"/>
     <use xlink:href="#m733e4d0a0e" x="210.858421" y="34.077637" style="fill: #595959; stroke: #595959"/>
     <use xlink:href="#m733e4d0a0e" x="210.858421" y="34.077637" style="fill: #595959; stroke: #595959"/>
     <use xlink:href="#m733e4d0a0e" x="210.858421" y="25.224837" style="fill: #595959; stroke: #595959"/>
     <use xlink:href="#m733e4d0a0e" x="210.858421" y="27.438037" style="fill: #595959; stroke: #595959"/>
     <use xlink:href="#m733e4d0a0e" x="210.858421" y="36.290837" style="fill: #595959; stroke: #595959"/>
     <use xlink:href="#m733e4d0a0e" x="210.858421" y="29.651237" style="fill: #595959; stroke: #595959"/>
     <use xlink:href="#m733e4d0a0e" x="210.858421" y="29.651237" style="fill: #595959; stroke: #595959"/>
     <use xlink:href="#m733e4d0a0e" x="210.858421" y="34.077637" style="fill: #595959; stroke: #595959"/>
    </g>
   </g>
   <g id="PathCollection_5">
    <g clip-path="url(#p8d80b78aaf)">
     <use xlink:href="#m733e4d0a0e" x="247.986681" y="20.798437" style="fill: #595959; stroke: #595959"/>
     <use xlink:href="#m733e4d0a0e" x="247.986681" y="20.798437" style="fill: #595959; stroke: #595959"/>
     <use xlink:href="#m733e4d0a0e" x="247.986681" y="20.798437" style="fill: #595959; stroke: #595959"/>
     <use xlink:href="#m733e4d0a0e" x="247.986681" y="27.438037" style="fill: #595959; stroke: #595959"/>
     <use xlink:href="#m733e4d0a0e" x="247.986681" y="23.011637" style="fill: #595959; stroke: #595959"/>
     <use xlink:href="#m733e4d0a0e" x="247.986681" y="20.798437" style="fill: #595959; stroke: #595959"/>
     <use xlink:href="#m733e4d0a0e" x="247.986681" y="20.798437" style="fill: #595959; stroke: #595959"/>
     <use xlink:href="#m733e4d0a0e" x="247.986681" y="25.224837" style="fill: #595959; stroke: #595959"/>
     <use xlink:href="#m733e4d0a0e" x="247.986681" y="23.011637" style="fill: #595959; stroke: #595959"/>
     <use xlink:href="#m733e4d0a0e" x="247.986681" y="20.798437" style="fill: #595959; stroke: #595959"/>
     <use xlink:href="#m733e4d0a0e" x="247.986681" y="20.798437" style="fill: #595959; stroke: #595959"/>
     <use xlink:href="#m733e4d0a0e" x="247.986681" y="20.798437" style="fill: #595959; stroke: #595959"/>
     <use xlink:href="#m733e4d0a0e" x="247.986681" y="20.798437" style="fill: #595959; stroke: #595959"/>
     <use xlink:href="#m733e4d0a0e" x="247.986681" y="23.011637" style="fill: #595959; stroke: #595959"/>
     <use xlink:href="#m733e4d0a0e" x="247.986681" y="20.798437" style="fill: #595959; stroke: #595959"/>
     <use xlink:href="#m733e4d0a0e" x="247.986681" y="23.011637" style="fill: #595959; stroke: #595959"/>
     <use xlink:href="#m733e4d0a0e" x="247.986681" y="23.011637" style="fill: #595959; stroke: #595959"/>
     <use xlink:href="#m733e4d0a0e" x="247.986681" y="20.798437" style="fill: #595959; stroke: #595959"/>
     <use xlink:href="#m733e4d0a0e" x="247.986681" y="20.798437" style="fill: #595959; stroke: #595959"/>
     <use xlink:href="#m733e4d0a0e" x="247.986681" y="20.798437" style="fill: #595959; stroke: #595959"/>
    </g>
   </g>
   <g id="text_15">
    <!-- Rho = 0.4 -->
    <g transform="translate(273.08589 106.436563) rotate(-270) scale(0.1 -0.1)">
     <defs>
      <path id="DejaVuSans-52" d="M 2841 2188 
Q 3044 2119 3236 1894 
Q 3428 1669 3622 1275 
L 4263 0 
L 3584 0 
L 2988 1197 
Q 2756 1666 2539 1819 
Q 2322 1972 1947 1972 
L 1259 1972 
L 1259 0 
L 628 0 
L 628 4666 
L 2053 4666 
Q 2853 4666 3247 4331 
Q 3641 3997 3641 3322 
Q 3641 2881 3436 2590 
Q 3231 2300 2841 2188 
z
M 1259 4147 
L 1259 2491 
L 2053 2491 
Q 2509 2491 2742 2702 
Q 2975 2913 2975 3322 
Q 2975 3731 2742 3939 
Q 2509 4147 2053 4147 
L 1259 4147 
z
" transform="scale(0.015625)"/>
      <path id="DejaVuSans-68" d="M 3513 2113 
L 3513 0 
L 2938 0 
L 2938 2094 
Q 2938 2591 2744 2837 
Q 2550 3084 2163 3084 
Q 1697 3084 1428 2787 
Q 1159 2491 1159 1978 
L 1159 0 
L 581 0 
L 581 4863 
L 1159 4863 
L 1159 2956 
Q 1366 3272 1645 3428 
Q 1925 3584 2291 3584 
Q 2894 3584 3203 3211 
Q 3513 2838 3513 2113 
z
" transform="scale(0.015625)"/>
      <path id="DejaVuSans-6f" d="M 1959 3097 
Q 1497 3097 1228 2736 
Q 959 2375 959 1747 
Q 959 1119 1226 758 
Q 1494 397 1959 397 
Q 2419 397 2687 759 
Q 2956 1122 2956 1747 
Q 2956 2369 2687 2733 
Q 2419 3097 1959 3097 
z
M 1959 3584 
Q 2709 3584 3137 3096 
Q 3566 2609 3566 1747 
Q 3566 888 3137 398 
Q 2709 -91 1959 -91 
Q 1206 -91 779 398 
Q 353 888 353 1747 
Q 353 2609 779 3096 
Q 1206 3584 1959 3584 
z
" transform="scale(0.015625)"/>
      <path id="DejaVuSans-20" transform="scale(0.015625)"/>
      <path id="DejaVuSans-3d" d="M 678 2906 
L 4684 2906 
L 4684 2381 
L 678 2381 
L 678 2906 
z
M 678 1631 
L 4684 1631 
L 4684 1100 
L 678 1100 
L 678 1631 
z
" transform="scale(0.015625)"/>
     </defs>
     <use xlink:href="#DejaVuSans-52"/>
     <use xlink:href="#DejaVuSans-68" x="69.482422"/>
     <use xlink:href="#DejaVuSans-6f" x="132.861328"/>
     <use xlink:href="#DejaVuSans-20" x="194.042969"/>
     <use xlink:href="#DejaVuSans-3d" x="225.830078"/>
     <use xlink:href="#DejaVuSans-20" x="309.619141"/>
     <use xlink:href="#DejaVuSans-30" x="341.40625"/>
     <use xlink:href="#DejaVuSans-2e" x="405.029297"/>
     <use xlink:href="#DejaVuSans-34" x="436.816406"/>
    </g>
   </g>
   <g id="text_16">
    <!-- CNR_change = 1 -->
    <g transform="translate(113.008999 14.798437) scale(0.1 -0.1)">
     <defs>
      <path id="DejaVuSans-43" d="M 4122 4306 
L 4122 3641 
Q 3803 3938 3442 4084 
Q 3081 4231 2675 4231 
Q 1875 4231 1450 3742 
Q 1025 3253 1025 2328 
Q 1025 1406 1450 917 
Q 1875 428 2675 428 
Q 3081 428 3442 575 
Q 3803 722 4122 1019 
L 4122 359 
Q 3791 134 3420 21 
Q 3050 -91 2638 -91 
Q 1578 -91 968 557 
Q 359 1206 359 2328 
Q 359 3453 968 4101 
Q 1578 4750 2638 4750 
Q 3056 4750 3426 4639 
Q 3797 4528 4122 4306 
z
" transform="scale(0.015625)"/>
      <path id="DejaVuSans-4e" d="M 628 4666 
L 1478 4666 
L 3547 763 
L 3547 4666 
L 4159 4666 
L 4159 0 
L 3309 0 
L 1241 3903 
L 1241 0 
L 628 0 
L 628 4666 
z
" transform="scale(0.015625)"/>
      <path id="DejaVuSans-5f" d="M 3263 -1063 
L 3263 -1509 
L -63 -1509 
L -63 -1063 
L 3263 -1063 
z
" transform="scale(0.015625)"/>
      <path id="DejaVuSans-6e" d="M 3513 2113 
L 3513 0 
L 2938 0 
L 2938 2094 
Q 2938 2591 2744 2837 
Q 2550 3084 2163 3084 
Q 1697 3084 1428 2787 
Q 1159 2491 1159 1978 
L 1159 0 
L 581 0 
L 581 3500 
L 1159 3500 
L 1159 2956 
Q 1366 3272 1645 3428 
Q 1925 3584 2291 3584 
Q 2894 3584 3203 3211 
Q 3513 2838 3513 2113 
z
" transform="scale(0.015625)"/>
      <path id="DejaVuSans-67" d="M 2906 1791 
Q 2906 2416 2648 2759 
Q 2391 3103 1925 3103 
Q 1463 3103 1205 2759 
Q 947 2416 947 1791 
Q 947 1169 1205 825 
Q 1463 481 1925 481 
Q 2391 481 2648 825 
Q 2906 1169 2906 1791 
z
M 3481 434 
Q 3481 -459 3084 -895 
Q 2688 -1331 1869 -1331 
Q 1566 -1331 1297 -1286 
Q 1028 -1241 775 -1147 
L 775 -588 
Q 1028 -725 1275 -790 
Q 1522 -856 1778 -856 
Q 2344 -856 2625 -561 
Q 2906 -266 2906 331 
L 2906 616 
Q 2728 306 2450 153 
Q 2172 0 1784 0 
Q 1141 0 747 490 
Q 353 981 353 1791 
Q 353 2603 747 3093 
Q 1141 3584 1784 3584 
Q 2172 3584 2450 3431 
Q 2728 3278 2906 2969 
L 2906 3500 
L 3481 3500 
L 3481 434 
z
" transform="scale(0.015625)"/>
     </defs>
     <use xlink:href="#DejaVuSans-43"/>
     <use xlink:href="#DejaVuSans-4e" x="69.824219"/>
     <use xlink:href="#DejaVuSans-52" x="144.628906"/>
     <use xlink:href="#DejaVuSans-5f" x="214.111328"/>
     <use xlink:href="#DejaVuSans-63" x="264.111328"/>
     <use xlink:href="#DejaVuSans-68" x="319.091797"/>
     <use xlink:href="#DejaVuSans-61" x="382.470703"/>
     <use xlink:href="#DejaVuSans-6e" x="443.75"/>
     <use xlink:href="#DejaVuSans-67" x="507.128906"/>
     <use xlink:href="#DejaVuSans-65" x="570.605469"/>
     <use xlink:href="#DejaVuSans-20" x="632.128906"/>
     <use xlink:href="#DejaVuSans-3d" x="663.916016"/>
     <use xlink:href="#DejaVuSans-20" x="747.705078"/>
     <use xlink:href="#DejaVuSans-31" x="779.492188"/>
    </g>
   </g>
  </g>
  <g id="legend_1"/>
 </g>
 <defs>
  <clipPath id="p8d80b78aaf">
   <rect x="43.78125" y="20.798437" width="222.769561" height="221.32"/>
  </clipPath>
 </defs>
</svg>
