<?xml version="1.0" encoding="utf-8" standalone="no"?>
<!DOCTYPE svg PUBLIC "-//W3C//DTD SVG 1.1//EN"
  "http://www.w3.org/Graphics/SVG/1.1/DTD/svg11.dtd">
<svg xmlns:xlink="http://www.w3.org/1999/xlink" width="294.17125pt" height="279.674688pt" viewBox="0 0 294.17125 279.674688" xmlns="http://www.w3.org/2000/svg" version="1.1">
 <metadata>
  <rdf:RDF xmlns:dc="http://purl.org/dc/elements/1.1/" xmlns:cc="http://creativecommons.org/ns#" xmlns:rdf="http://www.w3.org/1999/02/22-rdf-syntax-ns#">
   <cc:Work>
    <dc:type rdf:resource="http://purl.org/dc/dcmitype/StillImage"/>
    <dc:date>2025-08-25T17:08:48.686095</dc:date>
    <dc:format>image/svg+xml</dc:format>
    <dc:creator>
     <cc:Agent>
      <dc:title>Matplotlib v3.8.4, https://matplotlib.org/</dc:title>
     </cc:Agent>
    </dc:creator>
   </cc:Work>
  </rdf:RDF>
 </metadata>
 <defs>
  <style type="text/css">*{stroke-linejoin: round; stroke-linecap: butt}</style>
 </defs>
 <g id="figure_1">
  <g id="patch_1">
   <path d="M 0 279.674688 
L 294.17125 279.674688 
L 294.17125 0 
L 0 0 
z
" style="fill: #ffffff"/>
  </g>
  <g id="axes_1">
   <g id="patch_2">
    <path d="M 43.78125 242.118437 
L 266.550811 242.118437 
L 266.550811 20.798437 
L 43.78125 20.798437 
z
" style="fill: #ffffff"/>
   </g>
   <g id="PolyCollection_1">
    <defs>
     <path id="m3b2aa60e09" d="M 62.568214 -221.97263 
L 62.122546 -221.97263 
L 62.064416 -222.427536 
L 61.99527 -222.882441 
L 61.914199 -223.337347 
L 61.820529 -223.792252 
L 61.713906 -224.247158 
L 61.594377 -224.702063 
L 61.462457 -225.156969 
L 61.319179 -225.611874 
L 61.166121 -226.066779 
L 61.005395 -226.521685 
L 60.839607 -226.97659 
L 60.671766 -227.431496 
L 60.505161 -227.886401 
L 60.34321 -228.341307 
L 60.189265 -228.796212 
L 60.046423 -229.251118 
L 59.917321 -229.706023 
L 59.803951 -230.160928 
L 59.707505 -230.615834 
L 59.628255 -231.070739 
L 59.565499 -231.525645 
L 59.517548 -231.98055 
L 59.481792 -232.435456 
L 59.454807 -232.890361 
L 59.432515 -233.345267 
L 59.410378 -233.800172 
L 59.383604 -234.255077 
L 59.347357 -234.709983 
L 59.296945 -235.164888 
L 59.227982 -235.619794 
L 59.1365 -236.074699 
L 59.019027 -236.529605 
L 58.872609 -236.98451 
L 58.6948 -237.439416 
L 58.483622 -237.894321 
L 58.237517 -238.349226 
L 57.955294 -238.804132 
L 57.636098 -239.259037 
L 57.279405 -239.713943 
L 56.885049 -240.168848 
L 56.453296 -240.623754 
L 55.984941 -241.078659 
L 55.481436 -241.533565 
L 54.945037 -241.98847 
L 54.378942 -242.443375 
L 53.787418 -242.898281 
L 53.175893 -243.353186 
L 52.551003 -243.808092 
L 51.920581 -244.262997 
L 51.293576 -244.717903 
L 50.679908 -245.172808 
L 50.090246 -245.627714 
L 49.535722 -246.082619 
L 49.027581 -246.537525 
L 48.57679 -246.99243 
L 48.193611 -247.447335 
L 47.887173 -247.902241 
L 47.665048 -248.357146 
L 47.53288 -248.812052 
L 47.494076 -249.266957 
L 47.549603 -249.721863 
L 47.697889 -250.176768 
L 47.934868 -250.631674 
L 48.254157 -251.086579 
L 48.647361 -251.541484 
L 49.104496 -251.99639 
L 49.614497 -252.451295 
L 50.165776 -252.906201 
L 50.746782 -253.361106 
L 51.346529 -253.816012 
L 51.955052 -254.270917 
L 52.56375 -254.725823 
L 53.165601 -255.180728 
L 53.755248 -255.635633 
L 54.328943 -256.090539 
L 54.884385 -256.545444 
L 55.420466 -257.00035 
L 55.936963 -257.455255 
L 56.434214 -257.910161 
L 56.912806 -258.365066 
L 57.37331 -258.819972 
L 57.816073 -259.274877 
L 58.241098 -259.729782 
L 58.647986 -260.184688 
L 59.035965 -260.639593 
L 59.403965 -261.094499 
L 59.750741 -261.549404 
L 60.075014 -262.00431 
L 60.375615 -262.459215 
L 60.651614 -262.914121 
L 60.902426 -263.369026 
L 61.127877 -263.823931 
L 61.328241 -264.278837 
L 61.504228 -264.733742 
L 61.656955 -265.188648 
L 61.787881 -265.643553 
L 61.898733 -266.098459 
L 61.991421 -266.553364 
L 62.067948 -267.00827 
L 62.622812 -267.00827 
L 62.622812 -267.00827 
L 62.699339 -266.553364 
L 62.792027 -266.098459 
L 62.902879 -265.643553 
L 63.033806 -265.188648 
L 63.186532 -264.733742 
L 63.362519 -264.278837 
L 63.562883 -263.823931 
L 63.788335 -263.369026 
L 64.039147 -262.914121 
L 64.315146 -262.459215 
L 64.615746 -262.00431 
L 64.940019 -261.549404 
L 65.286795 -261.094499 
L 65.654795 -260.639593 
L 66.042774 -260.184688 
L 66.449662 -259.729782 
L 66.874687 -259.274877 
L 67.31745 -258.819972 
L 67.777954 -258.365066 
L 68.256547 -257.910161 
L 68.753798 -257.455255 
L 69.270295 -257.00035 
L 69.806375 -256.545444 
L 70.361818 -256.090539 
L 70.935513 -255.635633 
L 71.525159 -255.180728 
L 72.12701 -254.725823 
L 72.735708 -254.270917 
L 73.344231 -253.816012 
L 73.943978 -253.361106 
L 74.524984 -252.906201 
L 75.076263 -252.451295 
L 75.586265 -251.99639 
L 76.043399 -251.541484 
L 76.436603 -251.086579 
L 76.755892 -250.631674 
L 76.992872 -250.176768 
L 77.141158 -249.721863 
L 77.196684 -249.266957 
L 77.157881 -248.812052 
L 77.025712 -248.357146 
L 76.803587 -247.902241 
L 76.497149 -247.447335 
L 76.113971 -246.99243 
L 75.663179 -246.537525 
L 75.155038 -246.082619 
L 74.600514 -245.627714 
L 74.010852 -245.172808 
L 73.397185 -244.717903 
L 72.77018 -244.262997 
L 72.139757 -243.808092 
L 71.514867 -243.353186 
L 70.903342 -242.898281 
L 70.311818 -242.443375 
L 69.745723 -241.98847 
L 69.209324 -241.533565 
L 68.70582 -241.078659 
L 68.237464 -240.623754 
L 67.805711 -240.168848 
L 67.411356 -239.713943 
L 67.054662 -239.259037 
L 66.735466 -238.804132 
L 66.453243 -238.349226 
L 66.207138 -237.894321 
L 65.99596 -237.439416 
L 65.818151 -236.98451 
L 65.671733 -236.529605 
L 65.55426 -236.074699 
L 65.462778 -235.619794 
L 65.393815 -235.164888 
L 65.343403 -234.709983 
L 65.307156 -234.255077 
L 65.280382 -233.800172 
L 65.258245 -233.345267 
L 65.235953 -232.890361 
L 65.208968 -232.435456 
L 65.173212 -231.98055 
L 65.125262 -231.525645 
L 65.062505 -231.070739 
L 64.983255 -230.615834 
L 64.886809 -230.160928 
L 64.773439 -229.706023 
L 64.644338 -229.251118 
L 64.501496 -228.796212 
L 64.347551 -228.341307 
L 64.185599 -227.886401 
L 64.018994 -227.431496 
L 63.851153 -226.97659 
L 63.685365 -226.521685 
L 63.52464 -226.066779 
L 63.371581 -225.611874 
L 63.228303 -225.156969 
L 63.096383 -224.702063 
L 62.976854 -224.247158 
L 62.870232 -223.792252 
L 62.776561 -223.337347 
L 62.69549 -222.882441 
L 62.626344 -222.427536 
L 62.568214 -221.97263 
z
" style="stroke: #595959; stroke-width: 1.25"/>
    </defs>
    <g clip-path="url(#pe486edb52c)">
     <use xlink:href="#m3b2aa60e09" x="0" y="279.674688" style="fill: #72b6a1; stroke: #595959; stroke-width: 1.25"/>
    </g>
   </g>
   <g id="PolyCollection_2">
    <defs>
     <path id="m3969cea3cb" d="M 136.773888 -231.543061 
L 136.429913 -231.543061 
L 136.38222 -231.871691 
L 136.325746 -232.200321 
L 136.260254 -232.528951 
L 136.185924 -232.857581 
L 136.103445 -233.186211 
L 136.014071 -233.514841 
L 135.919649 -233.843471 
L 135.822593 -234.172101 
L 135.725814 -234.500732 
L 135.63259 -234.829362 
L 135.546383 -235.157992 
L 135.470634 -235.486622 
L 135.408519 -235.815252 
L 135.362716 -236.143882 
L 135.335191 -236.472512 
L 135.327025 -236.801142 
L 135.338301 -237.129772 
L 135.368063 -237.458402 
L 135.414343 -237.787032 
L 135.474264 -238.115663 
L 135.544187 -238.444293 
L 135.61991 -238.772923 
L 135.696877 -239.101553 
L 135.770386 -239.430183 
L 135.835783 -239.758813 
L 135.888614 -240.087443 
L 135.924737 -240.416073 
L 135.940385 -240.744703 
L 135.932186 -241.073333 
L 135.897128 -241.401963 
L 135.832504 -241.730593 
L 135.73581 -242.059224 
L 135.604639 -242.387854 
L 135.436563 -242.716484 
L 135.229023 -243.045114 
L 134.979245 -243.373744 
L 134.684201 -243.702374 
L 134.340631 -244.031004 
L 133.945161 -244.359634 
L 133.49451 -244.688264 
L 132.985819 -245.016894 
L 132.417078 -245.345524 
L 131.787641 -245.674154 
L 131.09878 -246.002785 
L 130.354228 -246.331415 
L 129.560639 -246.660045 
L 128.727871 -246.988675 
L 127.869054 -247.317305 
L 127.00035 -247.645935 
L 126.140408 -247.974565 
L 125.309505 -248.303195 
L 124.528439 -248.631825 
L 123.817259 -248.960455 
L 123.193947 -249.289085 
L 122.673207 -249.617715 
L 122.265484 -249.946346 
L 121.976326 -250.274976 
L 121.806174 -250.603606 
L 121.750596 -250.932236 
L 121.800945 -251.260866 
L 121.945341 -251.589496 
L 122.169881 -251.918126 
L 122.459915 -252.246756 
L 122.801252 -252.575386 
L 123.181164 -252.904016 
L 123.589107 -253.232646 
L 124.017098 -253.561276 
L 124.459759 -253.889907 
L 124.914061 -254.218537 
L 125.378851 -254.547167 
L 125.854241 -254.875797 
L 126.340971 -255.204427 
L 126.839812 -255.533057 
L 127.351082 -255.861687 
L 127.874314 -256.190317 
L 128.408085 -256.518947 
L 128.949991 -256.847577 
L 129.49675 -257.176207 
L 130.044387 -257.504837 
L 130.588467 -257.833468 
L 131.124344 -258.162098 
L 131.647386 -258.490728 
L 132.153184 -258.819358 
L 132.637703 -259.147988 
L 133.097408 -259.476618 
L 133.52934 -259.805248 
L 133.931167 -260.133878 
L 134.301214 -260.462508 
L 134.638458 -260.791138 
L 134.942522 -261.119768 
L 135.213645 -261.448399 
L 135.452634 -261.777029 
L 135.66081 -262.105659 
L 135.839931 -262.434289 
L 135.992111 -262.762919 
L 136.119723 -263.091549 
L 136.225306 -263.420179 
L 136.311469 -263.748809 
L 136.3808 -264.077439 
L 136.823001 -264.077439 
L 136.823001 -264.077439 
L 136.892332 -263.748809 
L 136.978495 -263.420179 
L 137.084078 -263.091549 
L 137.21169 -262.762919 
L 137.36387 -262.434289 
L 137.542991 -262.105659 
L 137.751167 -261.777029 
L 137.990156 -261.448399 
L 138.261279 -261.119768 
L 138.565343 -260.791138 
L 138.902587 -260.462508 
L 139.272633 -260.133878 
L 139.674461 -259.805248 
L 140.106393 -259.476618 
L 140.566097 -259.147988 
L 141.050617 -258.819358 
L 141.556415 -258.490728 
L 142.079457 -258.162098 
L 142.615334 -257.833468 
L 143.159414 -257.504837 
L 143.707051 -257.176207 
L 144.25381 -256.847577 
L 144.795716 -256.518947 
L 145.329487 -256.190317 
L 145.852719 -255.861687 
L 146.363989 -255.533057 
L 146.86283 -255.204427 
L 147.34956 -254.875797 
L 147.82495 -254.547167 
L 148.289739 -254.218537 
L 148.744042 -253.889907 
L 149.186702 -253.561276 
L 149.614694 -253.232646 
L 150.022637 -252.904016 
L 150.402549 -252.575386 
L 150.743886 -252.246756 
L 151.03392 -251.918126 
L 151.25846 -251.589496 
L 151.402856 -251.260866 
L 151.453205 -250.932236 
L 151.397627 -250.603606 
L 151.227475 -250.274976 
L 150.938317 -249.946346 
L 150.530594 -249.617715 
L 150.009854 -249.289085 
L 149.386542 -248.960455 
L 148.675361 -248.631825 
L 147.894296 -248.303195 
L 147.063393 -247.974565 
L 146.203451 -247.645935 
L 145.334747 -247.317305 
L 144.47593 -246.988675 
L 143.643162 -246.660045 
L 142.849572 -246.331415 
L 142.105021 -246.002785 
L 141.41616 -245.674154 
L 140.786723 -245.345524 
L 140.217982 -245.016894 
L 139.709291 -244.688264 
L 139.25864 -244.359634 
L 138.86317 -244.031004 
L 138.5196 -243.702374 
L 138.224556 -243.373744 
L 137.974778 -243.045114 
L 137.767238 -242.716484 
L 137.599162 -242.387854 
L 137.467991 -242.059224 
L 137.371297 -241.730593 
L 137.306673 -241.401963 
L 137.271615 -241.073333 
L 137.263416 -240.744703 
L 137.279064 -240.416073 
L 137.315187 -240.087443 
L 137.368018 -239.758813 
L 137.433415 -239.430183 
L 137.506924 -239.101553 
L 137.583891 -238.772923 
L 137.659614 -238.444293 
L 137.729537 -238.115663 
L 137.789457 -237.787032 
L 137.835738 -237.458402 
L 137.8655 -237.129772 
L 137.876776 -236.801142 
L 137.86861 -236.472512 
L 137.841085 -236.143882 
L 137.795282 -235.815252 
L 137.733167 -235.486622 
L 137.657418 -235.157992 
L 137.571211 -234.829362 
L 137.477986 -234.500732 
L 137.381208 -234.172101 
L 137.284152 -233.843471 
L 137.18973 -233.514841 
L 137.100356 -233.186211 
L 137.017877 -232.857581 
L 136.943547 -232.528951 
L 136.878055 -232.200321 
L 136.821581 -231.871691 
L 136.773888 -231.543061 
z
" style="stroke: #595959; stroke-width: 1.25"/>
    </defs>
    <g clip-path="url(#pe486edb52c)">
     <use xlink:href="#m3969cea3cb" x="0" y="279.674688" style="fill: #95a3c3; stroke: #595959; stroke-width: 1.25"/>
    </g>
   </g>
   <g id="PolyCollection_3">
    <defs>
     <path id="mb5906f1556" d="M 173.946234 -178.750349 
L 173.514087 -178.750349 
L 173.458562 -179.273632 
L 173.392695 -179.796914 
L 173.315629 -180.320197 
L 173.226698 -180.84348 
L 173.125486 -181.366763 
L 173.011885 -181.890046 
L 172.886135 -182.413329 
L 172.748853 -182.936612 
L 172.601036 -183.459894 
L 172.444038 -183.983177 
L 172.279514 -184.50646 
L 172.109343 -185.029743 
L 171.935512 -185.553026 
L 171.759984 -186.076309 
L 171.584547 -186.599592 
L 171.410647 -187.122874 
L 171.239234 -187.646157 
L 171.07061 -188.16944 
L 170.904314 -188.692723 
L 170.739029 -189.216006 
L 170.572551 -189.739289 
L 170.401804 -190.262572 
L 170.222919 -190.785854 
L 170.031372 -191.309137 
L 169.822188 -191.83242 
L 169.590189 -192.355703 
L 169.330289 -192.878986 
L 169.037812 -193.402269 
L 168.708804 -193.925552 
L 168.340346 -194.448834 
L 167.930807 -194.972117 
L 167.480052 -195.4954 
L 166.989565 -196.018683 
L 166.462482 -196.541966 
L 165.903535 -197.065249 
L 165.318898 -197.588531 
L 164.715966 -198.111814 
L 164.103056 -198.635097 
L 163.489084 -199.15838 
L 162.883222 -199.681663 
L 162.29457 -200.204946 
L 161.731862 -200.728229 
L 161.203227 -201.251511 
L 160.71601 -201.774794 
L 160.276655 -202.298077 
L 159.890643 -202.82136 
L 159.562474 -203.344643 
L 159.295672 -203.867926 
L 159.092795 -204.391209 
L 158.955445 -204.914491 
L 158.884255 -205.437774 
L 158.878857 -205.961057 
L 158.937837 -206.48434 
L 159.058698 -207.007623 
L 159.237824 -207.530906 
L 159.470501 -208.054189 
L 159.750977 -208.577471 
L 160.072601 -209.100754 
L 160.42803 -209.624037 
L 160.809507 -210.14732 
L 161.209187 -210.670603 
L 161.619501 -211.193886 
L 162.033512 -211.717169 
L 162.445243 -212.240451 
L 162.849947 -212.763734 
L 163.244286 -213.287017 
L 163.626412 -213.8103 
L 163.995941 -214.333583 
L 164.353819 -214.856866 
L 164.702104 -215.380148 
L 165.043677 -215.903431 
L 165.381913 -216.426714 
L 165.720336 -216.949997 
L 166.06229 -217.47328 
L 166.410649 -217.996563 
L 166.767578 -218.519846 
L 167.134367 -219.043128 
L 167.511337 -219.566411 
L 167.897816 -220.089694 
L 168.292192 -220.612977 
L 168.692016 -221.13626 
L 169.094154 -221.659543 
L 169.494977 -222.182826 
L 169.89056 -222.706108 
L 170.276892 -223.229391 
L 170.650075 -223.752674 
L 171.006506 -224.275957 
L 171.343026 -224.79924 
L 171.657036 -225.322523 
L 171.946577 -225.845806 
L 172.210369 -226.369088 
L 172.44781 -226.892371 
L 172.658943 -227.415654 
L 172.844396 -227.938937 
L 173.0053 -228.46222 
L 173.143187 -228.985503 
L 173.259892 -229.508786 
L 173.357445 -230.032068 
L 173.437977 -230.555351 
L 174.022345 -230.555351 
L 174.022345 -230.555351 
L 174.102876 -230.032068 
L 174.200429 -229.508786 
L 174.317134 -228.985503 
L 174.455022 -228.46222 
L 174.615925 -227.938937 
L 174.801379 -227.415654 
L 175.012512 -226.892371 
L 175.249952 -226.369088 
L 175.513744 -225.845806 
L 175.803286 -225.322523 
L 176.117296 -224.79924 
L 176.453815 -224.275957 
L 176.810246 -223.752674 
L 177.18343 -223.229391 
L 177.569761 -222.706108 
L 177.965344 -222.182826 
L 178.366167 -221.659543 
L 178.768306 -221.13626 
L 179.168129 -220.612977 
L 179.562506 -220.089694 
L 179.948985 -219.566411 
L 180.325954 -219.043128 
L 180.692743 -218.519846 
L 181.049672 -217.996563 
L 181.398031 -217.47328 
L 181.739985 -216.949997 
L 182.078408 -216.426714 
L 182.416644 -215.903431 
L 182.758217 -215.380148 
L 183.106503 -214.856866 
L 183.46438 -214.333583 
L 183.833909 -213.8103 
L 184.216035 -213.287017 
L 184.610374 -212.763734 
L 185.015078 -212.240451 
L 185.426809 -211.717169 
L 185.84082 -211.193886 
L 186.251134 -210.670603 
L 186.650814 -210.14732 
L 187.032291 -209.624037 
L 187.38772 -209.100754 
L 187.709344 -208.577471 
L 187.98982 -208.054189 
L 188.222497 -207.530906 
L 188.401624 -207.007623 
L 188.522484 -206.48434 
L 188.581465 -205.961057 
L 188.576066 -205.437774 
L 188.504876 -204.914491 
L 188.367526 -204.391209 
L 188.16465 -203.867926 
L 187.897847 -203.344643 
L 187.569678 -202.82136 
L 187.183666 -202.298077 
L 186.744311 -201.774794 
L 186.257094 -201.251511 
L 185.728459 -200.728229 
L 185.165751 -200.204946 
L 184.577099 -199.681663 
L 183.971237 -199.15838 
L 183.357265 -198.635097 
L 182.744355 -198.111814 
L 182.141423 -197.588531 
L 181.556787 -197.065249 
L 180.997839 -196.541966 
L 180.470756 -196.018683 
L 179.980269 -195.4954 
L 179.529515 -194.972117 
L 179.119976 -194.448834 
L 178.751517 -193.925552 
L 178.42251 -193.402269 
L 178.130032 -192.878986 
L 177.870133 -192.355703 
L 177.638134 -191.83242 
L 177.428949 -191.309137 
L 177.237402 -190.785854 
L 177.058517 -190.262572 
L 176.88777 -189.739289 
L 176.721293 -189.216006 
L 176.556008 -188.692723 
L 176.389711 -188.16944 
L 176.221087 -187.646157 
L 176.049674 -187.122874 
L 175.875774 -186.599592 
L 175.700337 -186.076309 
L 175.52481 -185.553026 
L 175.350979 -185.029743 
L 175.180807 -184.50646 
L 175.016283 -183.983177 
L 174.859285 -183.459894 
L 174.711468 -182.936612 
L 174.574187 -182.413329 
L 174.448437 -181.890046 
L 174.334835 -181.366763 
L 174.233623 -180.84348 
L 174.144692 -180.320197 
L 174.067627 -179.796914 
L 174.001759 -179.273632 
L 173.946234 -178.750349 
z
" style="stroke: #595959; stroke-width: 1.25"/>
    </defs>
    <g clip-path="url(#pe486edb52c)">
     <use xlink:href="#mb5906f1556" x="0" y="279.674688" style="fill: #db96c0; stroke: #595959; stroke-width: 1.25"/>
    </g>
   </g>
   <g id="PolyCollection_4">
    <defs>
     <path id="m4e3fefa3ac" d="M 211.081745 -255.914701 
L 210.635097 -255.914701 
L 210.586935 -255.952175 
L 210.531681 -255.989649 
L 210.469105 -256.027122 
L 210.399175 -256.064596 
L 210.32209 -256.10207 
L 210.238318 -256.139543 
L 210.148615 -256.177017 
L 210.054046 -256.214491 
L 209.955973 -256.251965 
L 209.856048 -256.289438 
L 209.756169 -256.326912 
L 209.658435 -256.364386 
L 209.565073 -256.401859 
L 209.478359 -256.439333 
L 209.400527 -256.476807 
L 209.333676 -256.514281 
L 209.279674 -256.551754 
L 209.240074 -256.589228 
L 209.216036 -256.626702 
L 209.208276 -256.664175 
L 209.217025 -256.701649 
L 209.242021 -256.739123 
L 209.282523 -256.776597 
L 209.337342 -256.81407 
L 209.404905 -256.851544 
L 209.483327 -256.889018 
L 209.570497 -256.926491 
L 209.664173 -256.963965 
L 209.762077 -257.001439 
L 209.861982 -257.038913 
L 209.961793 -257.076386 
L 210.059614 -257.11386 
L 210.153792 -257.151334 
L 210.242957 -257.188807 
L 210.326025 -257.226281 
L 210.402204 -257.263755 
L 210.470962 -257.301229 
L 210.532005 -257.338702 
L 210.58522 -257.376176 
L 210.630628 -257.41365 
L 210.668321 -257.451123 
L 210.698395 -257.488597 
L 210.720885 -257.526071 
L 210.735692 -257.563545 
L 210.742515 -257.601018 
L 210.740781 -257.638492 
L 210.729576 -257.675966 
L 210.707583 -257.713439 
L 210.673021 -257.750913 
L 210.623596 -257.788387 
L 210.556462 -257.825861 
L 210.468208 -257.863334 
L 210.354855 -257.900808 
L 210.211901 -257.938282 
L 210.034389 -257.975755 
L 209.817029 -258.013229 
L 209.554361 -258.050703 
L 209.240976 -258.088177 
L 208.871785 -258.12565 
L 208.442326 -258.163124 
L 207.949123 -258.200598 
L 207.39005 -258.238071 
L 206.764707 -258.275545 
L 206.074772 -258.313019 
L 205.324303 -258.350493 
L 204.519969 -258.387966 
L 203.671166 -258.42544 
L 202.790022 -258.462914 
L 201.891239 -258.500387 
L 200.991793 -258.537861 
L 200.110471 -258.575335 
L 199.267271 -258.612809 
L 198.482674 -258.650282 
L 197.776838 -258.687756 
L 197.168744 -258.72523 
L 196.675357 -258.762703 
L 196.310835 -258.800177 
L 196.085861 -258.837651 
L 196.007117 -258.875125 
L 196.076958 -258.912598 
L 196.293296 -258.950072 
L 196.6497 -258.987546 
L 197.135716 -259.025019 
L 197.737374 -259.062493 
L 198.43786 -259.099967 
L 199.218289 -259.137441 
L 200.058549 -259.174914 
L 200.938156 -259.212388 
L 201.837062 -259.249862 
L 202.736391 -259.287335 
L 203.619044 -259.324809 
L 204.470172 -259.362283 
L 205.277493 -259.399757 
L 206.031447 -259.43723 
L 206.72521 -259.474704 
L 207.354582 -259.512178 
L 207.917762 -259.549651 
L 208.415052 -259.587125 
L 208.848506 -259.624599 
L 212.868335 -259.624599 
L 212.868335 -259.624599 
L 213.30179 -259.587125 
L 213.799079 -259.549651 
L 214.362259 -259.512178 
L 214.991631 -259.474704 
L 215.685395 -259.43723 
L 216.439349 -259.399757 
L 217.24667 -259.362283 
L 218.097798 -259.324809 
L 218.980451 -259.287335 
L 219.879779 -259.249862 
L 220.778686 -259.212388 
L 221.658293 -259.174914 
L 222.498553 -259.137441 
L 223.278982 -259.099967 
L 223.979467 -259.062493 
L 224.581126 -259.025019 
L 225.067141 -258.987546 
L 225.423545 -258.950072 
L 225.639883 -258.912598 
L 225.709725 -258.875125 
L 225.630981 -258.837651 
L 225.406006 -258.800177 
L 225.041485 -258.762703 
L 224.548097 -258.72523 
L 223.940004 -258.687756 
L 223.234167 -258.650282 
L 222.44957 -258.612809 
L 221.60637 -258.575335 
L 220.725049 -258.537861 
L 219.825603 -258.500387 
L 218.92682 -258.462914 
L 218.045675 -258.42544 
L 217.196873 -258.387966 
L 216.392539 -258.350493 
L 215.64207 -258.313019 
L 214.952135 -258.275545 
L 214.326792 -258.238071 
L 213.767718 -258.200598 
L 213.274515 -258.163124 
L 212.845057 -258.12565 
L 212.475865 -258.088177 
L 212.162481 -258.050703 
L 211.899813 -258.013229 
L 211.682453 -257.975755 
L 211.504941 -257.938282 
L 211.361987 -257.900808 
L 211.248634 -257.863334 
L 211.160379 -257.825861 
L 211.093246 -257.788387 
L 211.04382 -257.750913 
L 211.009258 -257.713439 
L 210.987265 -257.675966 
L 210.976061 -257.638492 
L 210.974326 -257.601018 
L 210.981149 -257.563545 
L 210.995956 -257.526071 
L 211.018446 -257.488597 
L 211.048521 -257.451123 
L 211.086213 -257.41365 
L 211.131622 -257.376176 
L 211.184837 -257.338702 
L 211.245879 -257.301229 
L 211.314638 -257.263755 
L 211.390816 -257.226281 
L 211.473885 -257.188807 
L 211.563049 -257.151334 
L 211.657228 -257.11386 
L 211.755048 -257.076386 
L 211.85486 -257.038913 
L 211.954765 -257.001439 
L 212.052669 -256.963965 
L 212.146345 -256.926491 
L 212.233515 -256.889018 
L 212.311936 -256.851544 
L 212.3795 -256.81407 
L 212.434319 -256.776597 
L 212.47482 -256.739123 
L 212.499817 -256.701649 
L 212.508566 -256.664175 
L 212.500806 -256.626702 
L 212.476768 -256.589228 
L 212.437168 -256.551754 
L 212.383166 -256.514281 
L 212.316315 -256.476807 
L 212.238483 -256.439333 
L 212.151769 -256.401859 
L 212.058407 -256.364386 
L 211.960673 -256.326912 
L 211.860794 -256.289438 
L 211.760869 -256.251965 
L 211.662796 -256.214491 
L 211.568226 -256.177017 
L 211.478524 -256.139543 
L 211.394751 -256.10207 
L 211.317666 -256.064596 
L 211.247736 -256.027122 
L 211.185161 -255.989649 
L 211.129906 -255.952175 
L 211.081745 -255.914701 
z
" style="stroke: #595959; stroke-width: 1.25"/>
    </defs>
    <g clip-path="url(#pe486edb52c)">
     <use xlink:href="#m4e3fefa3ac" x="0" y="279.674688" style="fill: #a2c865; stroke: #595959; stroke-width: 1.25"/>
    </g>
   </g>
   <g id="matplotlib.axis_1">
    <g id="xtick_1">
     <g id="line2d_1">
      <defs>
       <path id="m9252a472d7" d="M 0 0 
L 0 3.5 
" style="stroke: #000000; stroke-width: 0.8"/>
      </defs>
      <g>
       <use xlink:href="#m9252a472d7" x="62.34538" y="242.118437" style="stroke: #000000; stroke-width: 0.8"/>
      </g>
     </g>
     <g id="text_1">
      <!-- 1 -->
      <g transform="translate(59.16413 256.716875) scale(0.1 -0.1)">
       <defs>
        <path id="DejaVuSans-31" d="M 794 531 
L 1825 531 
L 1825 4091 
L 703 3866 
L 703 4441 
L 1819 4666 
L 2450 4666 
L 2450 531 
L 3481 531 
L 3481 0 
L 794 0 
L 794 531 
z
" transform="scale(0.015625)"/>
       </defs>
       <use xlink:href="#DejaVuSans-31"/>
      </g>
     </g>
    </g>
    <g id="xtick_2">
     <g id="line2d_2">
      <g>
       <use xlink:href="#m9252a472d7" x="99.47364" y="242.118437" style="stroke: #000000; stroke-width: 0.8"/>
      </g>
     </g>
     <g id="text_2">
      <!-- 2 -->
      <g transform="translate(96.29239 256.716875) scale(0.1 -0.1)">
       <defs>
        <path id="DejaVuSans-32" d="M 1228 531 
L 3431 531 
L 3431 0 
L 469 0 
L 469 531 
Q 828 903 1448 1529 
Q 2069 2156 2228 2338 
Q 2531 2678 2651 2914 
Q 2772 3150 2772 3378 
Q 2772 3750 2511 3984 
Q 2250 4219 1831 4219 
Q 1534 4219 1204 4116 
Q 875 4013 500 3803 
L 500 4441 
Q 881 4594 1212 4672 
Q 1544 4750 1819 4750 
Q 2544 4750 2975 4387 
Q 3406 4025 3406 3419 
Q 3406 3131 3298 2873 
Q 3191 2616 2906 2266 
Q 2828 2175 2409 1742 
Q 1991 1309 1228 531 
z
" transform="scale(0.015625)"/>
       </defs>
       <use xlink:href="#DejaVuSans-32"/>
      </g>
     </g>
    </g>
    <g id="xtick_3">
     <g id="line2d_3">
      <g>
       <use xlink:href="#m9252a472d7" x="136.6019" y="242.118437" style="stroke: #000000; stroke-width: 0.8"/>
      </g>
     </g>
     <g id="text_3">
      <!-- 3 -->
      <g transform="translate(133.42065 256.716875) scale(0.1 -0.1)">
       <defs>
        <path id="DejaVuSans-33" d="M 2597 2516 
Q 3050 2419 3304 2112 
Q 3559 1806 3559 1356 
Q 3559 666 3084 287 
Q 2609 -91 1734 -91 
Q 1441 -91 1130 -33 
Q 819 25 488 141 
L 488 750 
Q 750 597 1062 519 
Q 1375 441 1716 441 
Q 2309 441 2620 675 
Q 2931 909 2931 1356 
Q 2931 1769 2642 2001 
Q 2353 2234 1838 2234 
L 1294 2234 
L 1294 2753 
L 1863 2753 
Q 2328 2753 2575 2939 
Q 2822 3125 2822 3475 
Q 2822 3834 2567 4026 
Q 2313 4219 1838 4219 
Q 1578 4219 1281 4162 
Q 984 4106 628 3988 
L 628 4550 
Q 988 4650 1302 4700 
Q 1616 4750 1894 4750 
Q 2613 4750 3031 4423 
Q 3450 4097 3450 3541 
Q 3450 3153 3228 2886 
Q 3006 2619 2597 2516 
z
" transform="scale(0.015625)"/>
       </defs>
       <use xlink:href="#DejaVuSans-33"/>
      </g>
     </g>
    </g>
    <g id="xtick_4">
     <g id="line2d_4">
      <g>
       <use xlink:href="#m9252a472d7" x="173.730161" y="242.118437" style="stroke: #000000; stroke-width: 0.8"/>
      </g>
     </g>
     <g id="text_4">
      <!-- 4 -->
      <g transform="translate(170.548911 256.716875) scale(0.1 -0.1)">
       <defs>
        <path id="DejaVuSans-34" d="M 2419 4116 
L 825 1625 
L 2419 1625 
L 2419 4116 
z
M 2253 4666 
L 3047 4666 
L 3047 1625 
L 3713 1625 
L 3713 1100 
L 3047 1100 
L 3047 0 
L 2419 0 
L 2419 1100 
L 313 1100 
L 313 1709 
L 2253 4666 
z
" transform="scale(0.015625)"/>
       </defs>
       <use xlink:href="#DejaVuSans-34"/>
      </g>
     </g>
    </g>
    <g id="xtick_5">
     <g id="line2d_5">
      <g>
       <use xlink:href="#m9252a472d7" x="210.858421" y="242.118437" style="stroke: #000000; stroke-width: 0.8"/>
      </g>
     </g>
     <g id="text_5">
      <!-- 5 -->
      <g transform="translate(207.677171 256.716875) scale(0.1 -0.1)">
       <defs>
        <path id="DejaVuSans-35" d="M 691 4666 
L 3169 4666 
L 3169 4134 
L 1269 4134 
L 1269 2991 
Q 1406 3038 1543 3061 
Q 1681 3084 1819 3084 
Q 2600 3084 3056 2656 
Q 3513 2228 3513 1497 
Q 3513 744 3044 326 
Q 2575 -91 1722 -91 
Q 1428 -91 1123 -41 
Q 819 9 494 109 
L 494 744 
Q 775 591 1075 516 
Q 1375 441 1709 441 
Q 2250 441 2565 725 
Q 2881 1009 2881 1497 
Q 2881 1984 2565 2268 
Q 2250 2553 1709 2553 
Q 1456 2553 1204 2497 
Q 953 2441 691 2322 
L 691 4666 
z
" transform="scale(0.015625)"/>
       </defs>
       <use xlink:href="#DejaVuSans-35"/>
      </g>
     </g>
    </g>
    <g id="xtick_6">
     <g id="line2d_6">
      <g>
       <use xlink:href="#m9252a472d7" x="247.986681" y="242.118437" style="stroke: #000000; stroke-width: 0.8"/>
      </g>
     </g>
     <g id="text_6">
      <!-- 6 -->
      <g transform="translate(244.805431 256.716875) scale(0.1 -0.1)">
       <defs>
        <path id="DejaVuSans-36" d="M 2113 2584 
Q 1688 2584 1439 2293 
Q 1191 2003 1191 1497 
Q 1191 994 1439 701 
Q 1688 409 2113 409 
Q 2538 409 2786 701 
Q 3034 994 3034 1497 
Q 3034 2003 2786 2293 
Q 2538 2584 2113 2584 
z
M 3366 4563 
L 3366 3988 
Q 3128 4100 2886 4159 
Q 2644 4219 2406 4219 
Q 1781 4219 1451 3797 
Q 1122 3375 1075 2522 
Q 1259 2794 1537 2939 
Q 1816 3084 2150 3084 
Q 2853 3084 3261 2657 
Q 3669 2231 3669 1497 
Q 3669 778 3244 343 
Q 2819 -91 2113 -91 
Q 1303 -91 875 529 
Q 447 1150 447 2328 
Q 447 3434 972 4092 
Q 1497 4750 2381 4750 
Q 2619 4750 2861 4703 
Q 3103 4656 3366 4563 
z
" transform="scale(0.015625)"/>
       </defs>
       <use xlink:href="#DejaVuSans-36"/>
      </g>
     </g>
    </g>
    <g id="text_7">
     <!-- Layer -->
     <g transform="translate(141.224624 270.395) scale(0.1 -0.1)">
      <defs>
       <path id="DejaVuSans-4c" d="M 628 4666 
L 1259 4666 
L 1259 531 
L 3531 531 
L 3531 0 
L 628 0 
L 628 4666 
z
" transform="scale(0.015625)"/>
       <path id="DejaVuSans-61" d="M 2194 1759 
Q 1497 1759 1228 1600 
Q 959 1441 959 1056 
Q 959 750 1161 570 
Q 1363 391 1709 391 
Q 2188 391 2477 730 
Q 2766 1069 2766 1631 
L 2766 1759 
L 2194 1759 
z
M 3341 1997 
L 3341 0 
L 2766 0 
L 2766 531 
Q 2569 213 2275 61 
Q 1981 -91 1556 -91 
Q 1019 -91 701 211 
Q 384 513 384 1019 
Q 384 1609 779 1909 
Q 1175 2209 1959 2209 
L 2766 2209 
L 2766 2266 
Q 2766 2663 2505 2880 
Q 2244 3097 1772 3097 
Q 1472 3097 1187 3025 
Q 903 2953 641 2809 
L 641 3341 
Q 956 3463 1253 3523 
Q 1550 3584 1831 3584 
Q 2591 3584 2966 3190 
Q 3341 2797 3341 1997 
z
" transform="scale(0.015625)"/>
       <path id="DejaVuSans-79" d="M 2059 -325 
Q 1816 -950 1584 -1140 
Q 1353 -1331 966 -1331 
L 506 -1331 
L 506 -850 
L 844 -850 
Q 1081 -850 1212 -737 
Q 1344 -625 1503 -206 
L 1606 56 
L 191 3500 
L 800 3500 
L 1894 763 
L 2988 3500 
L 3597 3500 
L 2059 -325 
z
" transform="scale(0.015625)"/>
       <path id="DejaVuSans-65" d="M 3597 1894 
L 3597 1613 
L 953 1613 
Q 991 1019 1311 708 
Q 1631 397 2203 397 
Q 2534 397 2845 478 
Q 3156 559 3463 722 
L 3463 178 
Q 3153 47 2828 -22 
Q 2503 -91 2169 -91 
Q 1331 -91 842 396 
Q 353 884 353 1716 
Q 353 2575 817 3079 
Q 1281 3584 2069 3584 
Q 2775 3584 3186 3129 
Q 3597 2675 3597 1894 
z
M 3022 2063 
Q 3016 2534 2758 2815 
Q 2500 3097 2075 3097 
Q 1594 3097 1305 2825 
Q 1016 2553 972 2059 
L 3022 2063 
z
" transform="scale(0.015625)"/>
       <path id="DejaVuSans-72" d="M 2631 2963 
Q 2534 3019 2420 3045 
Q 2306 3072 2169 3072 
Q 1681 3072 1420 2755 
Q 1159 2438 1159 1844 
L 1159 0 
L 581 0 
L 581 3500 
L 1159 3500 
L 1159 2956 
Q 1341 3275 1631 3429 
Q 1922 3584 2338 3584 
Q 2397 3584 2469 3576 
Q 2541 3569 2628 3553 
L 2631 2963 
z
" transform="scale(0.015625)"/>
      </defs>
      <use xlink:href="#DejaVuSans-4c"/>
      <use xlink:href="#DejaVuSans-61" x="55.712891"/>
      <use xlink:href="#DejaVuSans-79" x="116.992188"/>
      <use xlink:href="#DejaVuSans-65" x="176.171875"/>
      <use xlink:href="#DejaVuSans-72" x="237.695312"/>
     </g>
    </g>
   </g>
   <g id="matplotlib.axis_2">
    <g id="ytick_1">
     <g id="line2d_7">
      <defs>
       <path id="m39bca26208" d="M 0 0 
L -3.5 0 
" style="stroke: #000000; stroke-width: 0.8"/>
      </defs>
      <g>
       <use xlink:href="#m39bca26208" x="43.78125" y="242.118437" style="stroke: #000000; stroke-width: 0.8"/>
      </g>
     </g>
     <g id="text_8">
      <!-- 0.0 -->
      <g transform="translate(20.878125 245.917656) scale(0.1 -0.1)">
       <defs>
        <path id="DejaVuSans-30" d="M 2034 4250 
Q 1547 4250 1301 3770 
Q 1056 3291 1056 2328 
Q 1056 1369 1301 889 
Q 1547 409 2034 409 
Q 2525 409 2770 889 
Q 3016 1369 3016 2328 
Q 3016 3291 2770 3770 
Q 2525 4250 2034 4250 
z
M 2034 4750 
Q 2819 4750 3233 4129 
Q 3647 3509 3647 2328 
Q 3647 1150 3233 529 
Q 2819 -91 2034 -91 
Q 1250 -91 836 529 
Q 422 1150 422 2328 
Q 422 3509 836 4129 
Q 1250 4750 2034 4750 
z
" transform="scale(0.015625)"/>
        <path id="DejaVuSans-2e" d="M 684 794 
L 1344 794 
L 1344 0 
L 684 0 
L 684 794 
z
" transform="scale(0.015625)"/>
       </defs>
       <use xlink:href="#DejaVuSans-30"/>
       <use xlink:href="#DejaVuSans-2e" x="63.623047"/>
       <use xlink:href="#DejaVuSans-30" x="95.410156"/>
      </g>
     </g>
    </g>
    <g id="ytick_2">
     <g id="line2d_8">
      <g>
       <use xlink:href="#m39bca26208" x="43.78125" y="197.854437" style="stroke: #000000; stroke-width: 0.8"/>
      </g>
     </g>
     <g id="text_9">
      <!-- 0.2 -->
      <g transform="translate(20.878125 201.653656) scale(0.1 -0.1)">
       <use xlink:href="#DejaVuSans-30"/>
       <use xlink:href="#DejaVuSans-2e" x="63.623047"/>
       <use xlink:href="#DejaVuSans-32" x="95.410156"/>
      </g>
     </g>
    </g>
    <g id="ytick_3">
     <g id="line2d_9">
      <g>
       <use xlink:href="#m39bca26208" x="43.78125" y="153.590437" style="stroke: #000000; stroke-width: 0.8"/>
      </g>
     </g>
     <g id="text_10">
      <!-- 0.4 -->
      <g transform="translate(20.878125 157.389656) scale(0.1 -0.1)">
       <use xlink:href="#DejaVuSans-30"/>
       <use xlink:href="#DejaVuSans-2e" x="63.623047"/>
       <use xlink:href="#DejaVuSans-34" x="95.410156"/>
      </g>
     </g>
    </g>
    <g id="ytick_4">
     <g id="line2d_10">
      <g>
       <use xlink:href="#m39bca26208" x="43.78125" y="109.326437" style="stroke: #000000; stroke-width: 0.8"/>
      </g>
     </g>
     <g id="text_11">
      <!-- 0.6 -->
      <g transform="translate(20.878125 113.125656) scale(0.1 -0.1)">
       <use xlink:href="#DejaVuSans-30"/>
       <use xlink:href="#DejaVuSans-2e" x="63.623047"/>
       <use xlink:href="#DejaVuSans-36" x="95.410156"/>
      </g>
     </g>
    </g>
    <g id="ytick_5">
     <g id="line2d_11">
      <g>
       <use xlink:href="#m39bca26208" x="43.78125" y="65.062437" style="stroke: #000000; stroke-width: 0.8"/>
      </g>
     </g>
     <g id="text_12">
      <!-- 0.8 -->
      <g transform="translate(20.878125 68.861656) scale(0.1 -0.1)">
       <defs>
        <path id="DejaVuSans-38" d="M 2034 2216 
Q 1584 2216 1326 1975 
Q 1069 1734 1069 1313 
Q 1069 891 1326 650 
Q 1584 409 2034 409 
Q 2484 409 2743 651 
Q 3003 894 3003 1313 
Q 3003 1734 2745 1975 
Q 2488 2216 2034 2216 
z
M 1403 2484 
Q 997 2584 770 2862 
Q 544 3141 544 3541 
Q 544 4100 942 4425 
Q 1341 4750 2034 4750 
Q 2731 4750 3128 4425 
Q 3525 4100 3525 3541 
Q 3525 3141 3298 2862 
Q 3072 2584 2669 2484 
Q 3125 2378 3379 2068 
Q 3634 1759 3634 1313 
Q 3634 634 3220 271 
Q 2806 -91 2034 -91 
Q 1263 -91 848 271 
Q 434 634 434 1313 
Q 434 1759 690 2068 
Q 947 2378 1403 2484 
z
M 1172 3481 
Q 1172 3119 1398 2916 
Q 1625 2713 2034 2713 
Q 2441 2713 2670 2916 
Q 2900 3119 2900 3481 
Q 2900 3844 2670 4047 
Q 2441 4250 2034 4250 
Q 1625 4250 1398 4047 
Q 1172 3844 1172 3481 
z
" transform="scale(0.015625)"/>
       </defs>
       <use xlink:href="#DejaVuSans-30"/>
       <use xlink:href="#DejaVuSans-2e" x="63.623047"/>
       <use xlink:href="#DejaVuSans-38" x="95.410156"/>
      </g>
     </g>
    </g>
    <g id="ytick_6">
     <g id="line2d_12">
      <g>
       <use xlink:href="#m39bca26208" x="43.78125" y="20.798437" style="stroke: #000000; stroke-width: 0.8"/>
      </g>
     </g>
     <g id="text_13">
      <!-- 1.0 -->
      <g transform="translate(20.878125 24.597656) scale(0.1 -0.1)">
       <use xlink:href="#DejaVuSans-31"/>
       <use xlink:href="#DejaVuSans-2e" x="63.623047"/>
       <use xlink:href="#DejaVuSans-30" x="95.410156"/>
      </g>
     </g>
    </g>
    <g id="text_14">
     <!-- Accuracy -->
     <g transform="translate(14.798438 154.286563) rotate(-90) scale(0.1 -0.1)">
      <defs>
       <path id="DejaVuSans-41" d="M 2188 4044 
L 1331 1722 
L 3047 1722 
L 2188 4044 
z
M 1831 4666 
L 2547 4666 
L 4325 0 
L 3669 0 
L 3244 1197 
L 1141 1197 
L 716 0 
L 50 0 
L 1831 4666 
z
" transform="scale(0.015625)"/>
       <path id="DejaVuSans-63" d="M 3122 3366 
L 3122 2828 
Q 2878 2963 2633 3030 
Q 2388 3097 2138 3097 
Q 1578 3097 1268 2742 
Q 959 2388 959 1747 
Q 959 1106 1268 751 
Q 1578 397 2138 397 
Q 2388 397 2633 464 
Q 2878 531 3122 666 
L 3122 134 
Q 2881 22 2623 -34 
Q 2366 -91 2075 -91 
Q 1284 -91 818 406 
Q 353 903 353 1747 
Q 353 2603 823 3093 
Q 1294 3584 2113 3584 
Q 2378 3584 2631 3529 
Q 2884 3475 3122 3366 
z
" transform="scale(0.015625)"/>
       <path id="DejaVuSans-75" d="M 544 1381 
L 544 3500 
L 1119 3500 
L 1119 1403 
Q 1119 906 1312 657 
Q 1506 409 1894 409 
Q 2359 409 2629 706 
Q 2900 1003 2900 1516 
L 2900 3500 
L 3475 3500 
L 3475 0 
L 2900 0 
L 2900 538 
Q 2691 219 2414 64 
Q 2138 -91 1772 -91 
Q 1169 -91 856 284 
Q 544 659 544 1381 
z
M 1991 3584 
L 1991 3584 
z
" transform="scale(0.015625)"/>
      </defs>
      <use xlink:href="#DejaVuSans-41"/>
      <use xlink:href="#DejaVuSans-63" x="66.658203"/>
      <use xlink:href="#DejaVuSans-63" x="121.638672"/>
      <use xlink:href="#DejaVuSans-75" x="176.619141"/>
      <use xlink:href="#DejaVuSans-72" x="239.998047"/>
      <use xlink:href="#DejaVuSans-61" x="281.111328"/>
      <use xlink:href="#DejaVuSans-63" x="342.390625"/>
      <use xlink:href="#DejaVuSans-79" x="397.371094"/>
     </g>
    </g>
   </g>
   <g id="line2d_13">
    <path d="M 84.622336 20.798437 
L 114.324944 20.798437 
" clip-path="url(#pe486edb52c)" style="fill: none; stroke: #595959; stroke-width: 1.25; stroke-linecap: square"/>
   </g>
   <g id="line2d_14">
    <path d="M 233.135377 20.798437 
L 262.837985 20.798437 
" clip-path="url(#pe486edb52c)" style="fill: none; stroke: #595959; stroke-width: 1.25; stroke-linecap: square"/>
   </g>
   <g id="line2d_15">
    <path d="M 43.78125 131.458438 
L 266.550811 131.458438 
" clip-path="url(#pe486edb52c)" style="fill: none; stroke-dasharray: 5.55,2.4; stroke-dashoffset: 0; stroke: #808080; stroke-width: 1.5"/>
   </g>
   <g id="patch_3">
    <path d="M 43.78125 242.118437 
L 43.78125 20.798437 
" style="fill: none; stroke: #000000; stroke-width: 0.8; stroke-linejoin: miter; stroke-linecap: square"/>
   </g>
   <g id="patch_4">
    <path d="M 43.78125 242.118437 
L 266.550811 242.118437 
" style="fill: none; stroke: #000000; stroke-width: 0.8; stroke-linejoin: miter; stroke-linecap: square"/>
   </g>
   <g id="PathCollection_1">
    <defs>
     <path id="mb94d9c4b89" d="M 0 1.25 
C 0.331504 1.25 0.649475 1.118292 0.883883 0.883883 
C 1.118292 0.649475 1.25 0.331504 1.25 0 
C 1.25 -0.331504 1.118292 -0.649475 0.883883 -0.883883 
C 0.649475 -1.118292 0.331504 -1.25 0 -1.25 
C -0.331504 -1.25 -0.649475 -1.118292 -0.883883 -0.883883 
C -1.118292 -0.649475 -1.25 -0.331504 -1.25 0 
C -1.25 0.331504 -1.118292 0.649475 -0.883883 0.883883 
C -0.649475 1.118292 -0.331504 1.25 0 1.25 
z
" style="stroke: #595959"/>
    </defs>
    <g clip-path="url(#pe486edb52c)">
     <use xlink:href="#mb94d9c4b89" x="62.34538" y="38.504037" style="fill: #595959; stroke: #595959"/>
     <use xlink:href="#mb94d9c4b89" x="62.34538" y="34.077637" style="fill: #595959; stroke: #595959"/>
     <use xlink:href="#mb94d9c4b89" x="62.34538" y="27.438037" style="fill: #595959; stroke: #595959"/>
     <use xlink:href="#mb94d9c4b89" x="62.34538" y="34.077637" style="fill: #595959; stroke: #595959"/>
     <use xlink:href="#mb94d9c4b89" x="62.34538" y="29.651237" style="fill: #595959; stroke: #595959"/>
     <use xlink:href="#mb94d9c4b89" x="62.34538" y="29.651237" style="fill: #595959; stroke: #595959"/>
     <use xlink:href="#mb94d9c4b89" x="62.34538" y="29.651237" style="fill: #595959; stroke: #595959"/>
     <use xlink:href="#mb94d9c4b89" x="62.34538" y="49.570038" style="fill: #595959; stroke: #595959"/>
     <use xlink:href="#mb94d9c4b89" x="62.34538" y="40.717238" style="fill: #595959; stroke: #595959"/>
     <use xlink:href="#mb94d9c4b89" x="62.34538" y="29.651237" style="fill: #595959; stroke: #595959"/>
     <use xlink:href="#mb94d9c4b89" x="62.34538" y="23.011637" style="fill: #595959; stroke: #595959"/>
     <use xlink:href="#mb94d9c4b89" x="62.34538" y="47.356837" style="fill: #595959; stroke: #595959"/>
     <use xlink:href="#mb94d9c4b89" x="62.34538" y="34.077637" style="fill: #595959; stroke: #595959"/>
     <use xlink:href="#mb94d9c4b89" x="62.34538" y="29.651237" style="fill: #595959; stroke: #595959"/>
     <use xlink:href="#mb94d9c4b89" x="62.34538" y="34.077637" style="fill: #595959; stroke: #595959"/>
     <use xlink:href="#mb94d9c4b89" x="62.34538" y="31.864437" style="fill: #595959; stroke: #595959"/>
     <use xlink:href="#mb94d9c4b89" x="62.34538" y="29.651237" style="fill: #595959; stroke: #595959"/>
     <use xlink:href="#mb94d9c4b89" x="62.34538" y="20.798437" style="fill: #595959; stroke: #595959"/>
     <use xlink:href="#mb94d9c4b89" x="62.34538" y="27.438037" style="fill: #595959; stroke: #595959"/>
     <use xlink:href="#mb94d9c4b89" x="62.34538" y="23.011637" style="fill: #595959; stroke: #595959"/>
    </g>
   </g>
   <g id="PathCollection_2">
    <g clip-path="url(#pe486edb52c)">
     <use xlink:href="#mb94d9c4b89" x="136.6019" y="20.798437" style="fill: #595959; stroke: #595959"/>
     <use xlink:href="#mb94d9c4b89" x="136.6019" y="25.224837" style="fill: #595959; stroke: #595959"/>
     <use xlink:href="#mb94d9c4b89" x="136.6019" y="27.438037" style="fill: #595959; stroke: #595959"/>
     <use xlink:href="#mb94d9c4b89" x="136.6019" y="29.651237" style="fill: #595959; stroke: #595959"/>
     <use xlink:href="#mb94d9c4b89" x="136.6019" y="25.224837" style="fill: #595959; stroke: #595959"/>
     <use xlink:href="#mb94d9c4b89" x="136.6019" y="23.011637" style="fill: #595959; stroke: #595959"/>
     <use xlink:href="#mb94d9c4b89" x="136.6019" y="29.651237" style="fill: #595959; stroke: #595959"/>
     <use xlink:href="#mb94d9c4b89" x="136.6019" y="42.930437" style="fill: #595959; stroke: #595959"/>
     <use xlink:href="#mb94d9c4b89" x="136.6019" y="27.438037" style="fill: #595959; stroke: #595959"/>
     <use xlink:href="#mb94d9c4b89" x="136.6019" y="29.651237" style="fill: #595959; stroke: #595959"/>
     <use xlink:href="#mb94d9c4b89" x="136.6019" y="25.224837" style="fill: #595959; stroke: #595959"/>
     <use xlink:href="#mb94d9c4b89" x="136.6019" y="29.651237" style="fill: #595959; stroke: #595959"/>
     <use xlink:href="#mb94d9c4b89" x="136.6019" y="29.651237" style="fill: #595959; stroke: #595959"/>
     <use xlink:href="#mb94d9c4b89" x="136.6019" y="29.651237" style="fill: #595959; stroke: #595959"/>
     <use xlink:href="#mb94d9c4b89" x="136.6019" y="34.077637" style="fill: #595959; stroke: #595959"/>
     <use xlink:href="#mb94d9c4b89" x="136.6019" y="29.651237" style="fill: #595959; stroke: #595959"/>
     <use xlink:href="#mb94d9c4b89" x="136.6019" y="29.651237" style="fill: #595959; stroke: #595959"/>
     <use xlink:href="#mb94d9c4b89" x="136.6019" y="31.864437" style="fill: #595959; stroke: #595959"/>
     <use xlink:href="#mb94d9c4b89" x="136.6019" y="23.011637" style="fill: #595959; stroke: #595959"/>
     <use xlink:href="#mb94d9c4b89" x="136.6019" y="25.224837" style="fill: #595959; stroke: #595959"/>
    </g>
   </g>
   <g id="PathCollection_3">
    <g clip-path="url(#pe486edb52c)">
     <use xlink:href="#mb94d9c4b89" x="173.730161" y="65.062437" style="fill: #595959; stroke: #595959"/>
     <use xlink:href="#mb94d9c4b89" x="173.730161" y="80.554837" style="fill: #595959; stroke: #595959"/>
     <use xlink:href="#mb94d9c4b89" x="173.730161" y="58.422838" style="fill: #595959; stroke: #595959"/>
     <use xlink:href="#mb94d9c4b89" x="173.730161" y="71.702037" style="fill: #595959; stroke: #595959"/>
     <use xlink:href="#mb94d9c4b89" x="173.730161" y="78.341637" style="fill: #595959; stroke: #595959"/>
     <use xlink:href="#mb94d9c4b89" x="173.730161" y="62.849237" style="fill: #595959; stroke: #595959"/>
     <use xlink:href="#mb94d9c4b89" x="173.730161" y="71.702037" style="fill: #595959; stroke: #595959"/>
     <use xlink:href="#mb94d9c4b89" x="173.730161" y="76.128437" style="fill: #595959; stroke: #595959"/>
     <use xlink:href="#mb94d9c4b89" x="173.730161" y="76.128437" style="fill: #595959; stroke: #595959"/>
     <use xlink:href="#mb94d9c4b89" x="173.730161" y="71.702037" style="fill: #595959; stroke: #595959"/>
     <use xlink:href="#mb94d9c4b89" x="173.730161" y="69.488837" style="fill: #595959; stroke: #595959"/>
     <use xlink:href="#mb94d9c4b89" x="173.730161" y="91.620837" style="fill: #595959; stroke: #595959"/>
     <use xlink:href="#mb94d9c4b89" x="173.730161" y="65.062437" style="fill: #595959; stroke: #595959"/>
     <use xlink:href="#mb94d9c4b89" x="173.730161" y="71.702037" style="fill: #595959; stroke: #595959"/>
     <use xlink:href="#mb94d9c4b89" x="173.730161" y="60.636037" style="fill: #595959; stroke: #595959"/>
     <use xlink:href="#mb94d9c4b89" x="173.730161" y="78.341637" style="fill: #595959; stroke: #595959"/>
     <use xlink:href="#mb94d9c4b89" x="173.730161" y="87.194437" style="fill: #595959; stroke: #595959"/>
     <use xlink:href="#mb94d9c4b89" x="173.730161" y="71.702037" style="fill: #595959; stroke: #595959"/>
     <use xlink:href="#mb94d9c4b89" x="173.730161" y="76.128437" style="fill: #595959; stroke: #595959"/>
     <use xlink:href="#mb94d9c4b89" x="173.730161" y="80.554837" style="fill: #595959; stroke: #595959"/>
    </g>
   </g>
   <g id="PathCollection_4">
    <g clip-path="url(#pe486edb52c)">
     <use xlink:href="#mb94d9c4b89" x="210.858421" y="20.798437" style="fill: #595959; stroke: #595959"/>
     <use xlink:href="#mb94d9c4b89" x="210.858421" y="20.798437" style="fill: #595959; stroke: #595959"/>
     <use xlink:href="#mb94d9c4b89" x="210.858421" y="20.798437" style="fill: #595959; stroke: #595959"/>
     <use xlink:href="#mb94d9c4b89" x="210.858421" y="20.798437" style="fill: #595959; stroke: #595959"/>
     <use xlink:href="#mb94d9c4b89" x="210.858421" y="20.798437" style="fill: #595959; stroke: #595959"/>
     <use xlink:href="#mb94d9c4b89" x="210.858421" y="20.798437" style="fill: #595959; stroke: #595959"/>
     <use xlink:href="#mb94d9c4b89" x="210.858421" y="20.798437" style="fill: #595959; stroke: #595959"/>
     <use xlink:href="#mb94d9c4b89" x="210.858421" y="20.798437" style="fill: #595959; stroke: #595959"/>
     <use xlink:href="#mb94d9c4b89" x="210.858421" y="20.798437" style="fill: #595959; stroke: #595959"/>
     <use xlink:href="#mb94d9c4b89" x="210.858421" y="20.798437" style="fill: #595959; stroke: #595959"/>
     <use xlink:href="#mb94d9c4b89" x="210.858421" y="23.011637" style="fill: #595959; stroke: #595959"/>
     <use xlink:href="#mb94d9c4b89" x="210.858421" y="20.798437" style="fill: #595959; stroke: #595959"/>
     <use xlink:href="#mb94d9c4b89" x="210.858421" y="20.798437" style="fill: #595959; stroke: #595959"/>
     <use xlink:href="#mb94d9c4b89" x="210.858421" y="20.798437" style="fill: #595959; stroke: #595959"/>
     <use xlink:href="#mb94d9c4b89" x="210.858421" y="20.798437" style="fill: #595959; stroke: #595959"/>
     <use xlink:href="#mb94d9c4b89" x="210.858421" y="20.798437" style="fill: #595959; stroke: #595959"/>
     <use xlink:href="#mb94d9c4b89" x="210.858421" y="23.011637" style="fill: #595959; stroke: #595959"/>
     <use xlink:href="#mb94d9c4b89" x="210.858421" y="20.798437" style="fill: #595959; stroke: #595959"/>
     <use xlink:href="#mb94d9c4b89" x="210.858421" y="20.798437" style="fill: #595959; stroke: #595959"/>
     <use xlink:href="#mb94d9c4b89" x="210.858421" y="20.798437" style="fill: #595959; stroke: #595959"/>
    </g>
   </g>
   <g id="text_15">
    <!-- Rho = 0.4 -->
    <g transform="translate(273.08589 106.436563) rotate(-270) scale(0.1 -0.1)">
     <defs>
      <path id="DejaVuSans-52" d="M 2841 2188 
Q 3044 2119 3236 1894 
Q 3428 1669 3622 1275 
L 4263 0 
L 3584 0 
L 2988 1197 
Q 2756 1666 2539 1819 
Q 2322 1972 1947 1972 
L 1259 1972 
L 1259 0 
L 628 0 
L 628 4666 
L 2053 4666 
Q 2853 4666 3247 4331 
Q 3641 3997 3641 3322 
Q 3641 2881 3436 2590 
Q 3231 2300 2841 2188 
z
M 1259 4147 
L 1259 2491 
L 2053 2491 
Q 2509 2491 2742 2702 
Q 2975 2913 2975 3322 
Q 2975 3731 2742 3939 
Q 2509 4147 2053 4147 
L 1259 4147 
z
" transform="scale(0.015625)"/>
      <path id="DejaVuSans-68" d="M 3513 2113 
L 3513 0 
L 2938 0 
L 2938 2094 
Q 2938 2591 2744 2837 
Q 2550 3084 2163 3084 
Q 1697 3084 1428 2787 
Q 1159 2491 1159 1978 
L 1159 0 
L 581 0 
L 581 4863 
L 1159 4863 
L 1159 2956 
Q 1366 3272 1645 3428 
Q 1925 3584 2291 3584 
Q 2894 3584 3203 3211 
Q 3513 2838 3513 2113 
z
" transform="scale(0.015625)"/>
      <path id="DejaVuSans-6f" d="M 1959 3097 
Q 1497 3097 1228 2736 
Q 959 2375 959 1747 
Q 959 1119 1226 758 
Q 1494 397 1959 397 
Q 2419 397 2687 759 
Q 2956 1122 2956 1747 
Q 2956 2369 2687 2733 
Q 2419 3097 1959 3097 
z
M 1959 3584 
Q 2709 3584 3137 3096 
Q 3566 2609 3566 1747 
Q 3566 888 3137 398 
Q 2709 -91 1959 -91 
Q 1206 -91 779 398 
Q 353 888 353 1747 
Q 353 2609 779 3096 
Q 1206 3584 1959 3584 
z
" transform="scale(0.015625)"/>
      <path id="DejaVuSans-20" transform="scale(0.015625)"/>
      <path id="DejaVuSans-3d" d="M 678 2906 
L 4684 2906 
L 4684 2381 
L 678 2381 
L 678 2906 
z
M 678 1631 
L 4684 1631 
L 4684 1100 
L 678 1100 
L 678 1631 
z
" transform="scale(0.015625)"/>
     </defs>
     <use xlink:href="#DejaVuSans-52"/>
     <use xlink:href="#DejaVuSans-68" x="69.482422"/>
     <use xlink:href="#DejaVuSans-6f" x="132.861328"/>
     <use xlink:href="#DejaVuSans-20" x="194.042969"/>
     <use xlink:href="#DejaVuSans-3d" x="225.830078"/>
     <use xlink:href="#DejaVuSans-20" x="309.619141"/>
     <use xlink:href="#DejaVuSans-30" x="341.40625"/>
     <use xlink:href="#DejaVuSans-2e" x="405.029297"/>
     <use xlink:href="#DejaVuSans-34" x="436.816406"/>
    </g>
   </g>
   <g id="text_16">
    <!-- CNR_change = 1 -->
    <g transform="translate(113.008999 14.798437) scale(0.1 -0.1)">
     <defs>
      <path id="DejaVuSans-43" d="M 4122 4306 
L 4122 3641 
Q 3803 3938 3442 4084 
Q 3081 4231 2675 4231 
Q 1875 4231 1450 3742 
Q 1025 3253 1025 2328 
Q 1025 1406 1450 917 
Q 1875 428 2675 428 
Q 3081 428 3442 575 
Q 3803 722 4122 1019 
L 4122 359 
Q 3791 134 3420 21 
Q 3050 -91 2638 -91 
Q 1578 -91 968 557 
Q 359 1206 359 2328 
Q 359 3453 968 4101 
Q 1578 4750 2638 4750 
Q 3056 4750 3426 4639 
Q 3797 4528 4122 4306 
z
" transform="scale(0.015625)"/>
      <path id="DejaVuSans-4e" d="M 628 4666 
L 1478 4666 
L 3547 763 
L 3547 4666 
L 4159 4666 
L 4159 0 
L 3309 0 
L 1241 3903 
L 1241 0 
L 628 0 
L 628 4666 
z
" transform="scale(0.015625)"/>
      <path id="DejaVuSans-5f" d="M 3263 -1063 
L 3263 -1509 
L -63 -1509 
L -63 -1063 
L 3263 -1063 
z
" transform="scale(0.015625)"/>
      <path id="DejaVuSans-6e" d="M 3513 2113 
L 3513 0 
L 2938 0 
L 2938 2094 
Q 2938 2591 2744 2837 
Q 2550 3084 2163 3084 
Q 1697 3084 1428 2787 
Q 1159 2491 1159 1978 
L 1159 0 
L 581 0 
L 581 3500 
L 1159 3500 
L 1159 2956 
Q 1366 3272 1645 3428 
Q 1925 3584 2291 3584 
Q 2894 3584 3203 3211 
Q 3513 2838 3513 2113 
z
" transform="scale(0.015625)"/>
      <path id="DejaVuSans-67" d="M 2906 1791 
Q 2906 2416 2648 2759 
Q 2391 3103 1925 3103 
Q 1463 3103 1205 2759 
Q 947 2416 947 1791 
Q 947 1169 1205 825 
Q 1463 481 1925 481 
Q 2391 481 2648 825 
Q 2906 1169 2906 1791 
z
M 3481 434 
Q 3481 -459 3084 -895 
Q 2688 -1331 1869 -1331 
Q 1566 -1331 1297 -1286 
Q 1028 -1241 775 -1147 
L 775 -588 
Q 1028 -725 1275 -790 
Q 1522 -856 1778 -856 
Q 2344 -856 2625 -561 
Q 2906 -266 2906 331 
L 2906 616 
Q 2728 306 2450 153 
Q 2172 0 1784 0 
Q 1141 0 747 490 
Q 353 981 353 1791 
Q 353 2603 747 3093 
Q 1141 3584 1784 3584 
Q 2172 3584 2450 3431 
Q 2728 3278 2906 2969 
L 2906 3500 
L 3481 3500 
L 3481 434 
z
" transform="scale(0.015625)"/>
     </defs>
     <use xlink:href="#DejaVuSans-43"/>
     <use xlink:href="#DejaVuSans-4e" x="69.824219"/>
     <use xlink:href="#DejaVuSans-52" x="144.628906"/>
     <use xlink:href="#DejaVuSans-5f" x="214.111328"/>
     <use xlink:href="#DejaVuSans-63" x="264.111328"/>
     <use xlink:href="#DejaVuSans-68" x="319.091797"/>
     <use xlink:href="#DejaVuSans-61" x="382.470703"/>
     <use xlink:href="#DejaVuSans-6e" x="443.75"/>
     <use xlink:href="#DejaVuSans-67" x="507.128906"/>
     <use xlink:href="#DejaVuSans-65" x="570.605469"/>
     <use xlink:href="#DejaVuSans-20" x="632.128906"/>
     <use xlink:href="#DejaVuSans-3d" x="663.916016"/>
     <use xlink:href="#DejaVuSans-20" x="747.705078"/>
     <use xlink:href="#DejaVuSans-31" x="779.492188"/>
    </g>
   </g>
  </g>
  <g id="legend_1"/>
 </g>
 <defs>
  <clipPath id="pe486edb52c">
   <rect x="43.78125" y="20.798437" width="222.769561" height="221.32"/>
  </clipPath>
 </defs>
</svg>
