<?xml version="1.0" encoding="utf-8" standalone="no"?>
<!DOCTYPE svg PUBLIC "-//W3C//DTD SVG 1.1//EN"
  "http://www.w3.org/Graphics/SVG/1.1/DTD/svg11.dtd">
<svg xmlns:xlink="http://www.w3.org/1999/xlink" width="294.17125pt" height="279.674688pt" viewBox="0 0 294.17125 279.674688" xmlns="http://www.w3.org/2000/svg" version="1.1">
 <metadata>
  <rdf:RDF xmlns:dc="http://purl.org/dc/elements/1.1/" xmlns:cc="http://creativecommons.org/ns#" xmlns:rdf="http://www.w3.org/1999/02/22-rdf-syntax-ns#">
   <cc:Work>
    <dc:type rdf:resource="http://purl.org/dc/dcmitype/StillImage"/>
    <dc:date>2025-08-25T17:08:48.718850</dc:date>
    <dc:format>image/svg+xml</dc:format>
    <dc:creator>
     <cc:Agent>
      <dc:title>Matplotlib v3.8.4, https://matplotlib.org/</dc:title>
     </cc:Agent>
    </dc:creator>
   </cc:Work>
  </rdf:RDF>
 </metadata>
 <defs>
  <style type="text/css">*{stroke-linejoin: round; stroke-linecap: butt}</style>
 </defs>
 <g id="figure_1">
  <g id="patch_1">
   <path d="M 0 279.674688 
L 294.17125 279.674688 
L 294.17125 0 
L 0 0 
z
" style="fill: #ffffff"/>
  </g>
  <g id="axes_1">
   <g id="patch_2">
    <path d="M 43.78125 242.118437 
L 266.550811 242.118437 
L 266.550811 20.798437 
L 43.78125 20.798437 
z
" style="fill: #ffffff"/>
   </g>
   <g id="PolyCollection_1">
    <defs>
     <path id="m43dfcce8bf" d="M 62.562259 -96.392952 
L 62.128501 -96.392952 
L 62.071353 -97.328109 
L 62.003231 -98.263267 
L 61.923169 -99.198424 
L 61.830408 -100.133582 
L 61.724463 -101.068739 
L 61.605196 -102.003897 
L 61.472865 -102.939055 
L 61.328169 -103.874212 
L 61.172255 -104.80937 
L 61.006699 -105.744527 
L 60.83346 -106.679685 
L 60.654788 -107.614842 
L 60.473108 -108.55 
L 60.290876 -109.485157 
L 60.110407 -110.420315 
L 59.933709 -111.355472 
L 59.762315 -112.29063 
L 59.597134 -113.225787 
L 59.438342 -114.160945 
L 59.285317 -115.096103 
L 59.136632 -116.03126 
L 58.99011 -116.966418 
L 58.842939 -117.901575 
L 58.691853 -118.836733 
L 58.533341 -119.77189 
L 58.363901 -120.707048 
L 58.18029 -121.642205 
L 57.979754 -122.577363 
L 57.760228 -123.51252 
L 57.520462 -124.447678 
L 57.260082 -125.382836 
L 56.979563 -126.317993 
L 56.680113 -127.253151 
L 56.363501 -128.188308 
L 56.031824 -129.123466 
L 55.68725 -130.058623 
L 55.331776 -130.993781 
L 54.967021 -131.928938 
L 54.594081 -132.864096 
L 54.213483 -133.799253 
L 53.825222 -134.734411 
L 53.42891 -135.669568 
L 53.023991 -136.604726 
L 52.610027 -137.539884 
L 52.186997 -138.475041 
L 51.755595 -139.410199 
L 51.317483 -140.345356 
L 50.875457 -141.280514 
L 50.433537 -142.215671 
L 49.99694 -143.150829 
L 49.571956 -144.085986 
L 49.16574 -145.021144 
L 48.786034 -145.956301 
L 48.440858 -146.891459 
L 48.138187 -147.826616 
L 47.885637 -148.761774 
L 47.690196 -149.696932 
L 47.557985 -150.632089 
L 47.494076 -151.567247 
L 47.50235 -152.502404 
L 47.585396 -153.437562 
L 47.744435 -154.372719 
L 47.979274 -155.307877 
L 48.288273 -156.243034 
L 48.668343 -157.178192 
L 49.114967 -158.113349 
L 49.622257 -159.048507 
L 50.183064 -159.983664 
L 50.78914 -160.918822 
L 51.431357 -161.85398 
L 52.09998 -162.789137 
L 52.784994 -163.724295 
L 53.47644 -164.659452 
L 54.164775 -165.59461 
L 54.841194 -166.529767 
L 55.497916 -167.464925 
L 56.128402 -168.400082 
L 56.727484 -169.33524 
L 57.291417 -170.270397 
L 57.817832 -171.205555 
L 58.305627 -172.140713 
L 58.754785 -173.07587 
L 59.166166 -174.011028 
L 59.541277 -174.946185 
L 59.882052 -175.881343 
L 60.190654 -176.8165 
L 60.469313 -177.751658 
L 60.720207 -178.686815 
L 60.945392 -179.621973 
L 61.14676 -180.55713 
L 61.326043 -181.492288 
L 61.484828 -182.427445 
L 61.624592 -183.362603 
L 61.746741 -184.297761 
L 61.852636 -185.232918 
L 61.943622 -186.168076 
L 62.02104 -187.103233 
L 62.086227 -188.038391 
L 62.140513 -188.973548 
L 62.550247 -188.973548 
L 62.550247 -188.973548 
L 62.604533 -188.038391 
L 62.669721 -187.103233 
L 62.747138 -186.168076 
L 62.838124 -185.232918 
L 62.944019 -184.297761 
L 63.066168 -183.362603 
L 63.205933 -182.427445 
L 63.364717 -181.492288 
L 63.544 -180.55713 
L 63.745368 -179.621973 
L 63.970553 -178.686815 
L 64.221448 -177.751658 
L 64.500106 -176.8165 
L 64.808708 -175.881343 
L 65.149483 -174.946185 
L 65.524594 -174.011028 
L 65.935975 -173.07587 
L 66.385133 -172.140713 
L 66.872928 -171.205555 
L 67.399344 -170.270397 
L 67.963276 -169.33524 
L 68.562358 -168.400082 
L 69.192844 -167.464925 
L 69.849566 -166.529767 
L 70.525985 -165.59461 
L 71.21432 -164.659452 
L 71.905766 -163.724295 
L 72.59078 -162.789137 
L 73.259404 -161.85398 
L 73.90162 -160.918822 
L 74.507696 -159.983664 
L 75.068503 -159.048507 
L 75.575793 -158.113349 
L 76.022417 -157.178192 
L 76.402487 -156.243034 
L 76.711486 -155.307877 
L 76.946325 -154.372719 
L 77.105364 -153.437562 
L 77.18841 -152.502404 
L 77.196684 -151.567247 
L 77.132775 -150.632089 
L 77.000564 -149.696932 
L 76.805123 -148.761774 
L 76.552573 -147.826616 
L 76.249902 -146.891459 
L 75.904727 -145.956301 
L 75.52502 -145.021144 
L 75.118804 -144.085986 
L 74.69382 -143.150829 
L 74.257223 -142.215671 
L 73.815303 -141.280514 
L 73.373278 -140.345356 
L 72.935165 -139.410199 
L 72.503764 -138.475041 
L 72.080733 -137.539884 
L 71.666769 -136.604726 
L 71.26185 -135.669568 
L 70.865538 -134.734411 
L 70.477278 -133.799253 
L 70.096679 -132.864096 
L 69.723739 -131.928938 
L 69.358984 -130.993781 
L 69.00351 -130.058623 
L 68.658937 -129.123466 
L 68.327259 -128.188308 
L 68.010648 -127.253151 
L 67.711198 -126.317993 
L 67.430678 -125.382836 
L 67.170298 -124.447678 
L 66.930532 -123.51252 
L 66.711006 -122.577363 
L 66.51047 -121.642205 
L 66.326859 -120.707048 
L 66.157419 -119.77189 
L 65.998908 -118.836733 
L 65.847821 -117.901575 
L 65.70065 -116.966418 
L 65.554128 -116.03126 
L 65.405443 -115.096103 
L 65.252418 -114.160945 
L 65.093627 -113.225787 
L 64.928446 -112.29063 
L 64.757051 -111.355472 
L 64.580354 -110.420315 
L 64.399884 -109.485157 
L 64.217652 -108.55 
L 64.035973 -107.614842 
L 63.857301 -106.679685 
L 63.684061 -105.744527 
L 63.518505 -104.80937 
L 63.362591 -103.874212 
L 63.217895 -102.939055 
L 63.085564 -102.003897 
L 62.966297 -101.068739 
L 62.860352 -100.133582 
L 62.767591 -99.198424 
L 62.687529 -98.263267 
L 62.619407 -97.328109 
L 62.562259 -96.392952 
z
" style="stroke: #595959; stroke-width: 1.25"/>
    </defs>
    <g clip-path="url(#pf4dcfbaca6)">
     <use xlink:href="#m43dfcce8bf" x="0" y="279.674688" style="fill: #72b6a1; stroke: #595959; stroke-width: 1.25"/>
    </g>
   </g>
   <g id="PolyCollection_2">
    <defs>
     <path id="mf944e516e7" d="M 99.969722 -113.246074 
L 98.977558 -113.246074 
L 98.841556 -113.930186 
L 98.676035 -114.614299 
L 98.476815 -115.298412 
L 98.239689 -115.982524 
L 97.96059 -116.666637 
L 97.635774 -117.350749 
L 97.262026 -118.034862 
L 96.836889 -118.718975 
L 96.358889 -119.403087 
L 95.827758 -120.0872 
L 95.244636 -120.771313 
L 94.61223 -121.455425 
L 93.934929 -122.139538 
L 93.218847 -122.823651 
L 92.471787 -123.507763 
L 91.70312 -124.191876 
L 90.923573 -124.875989 
L 90.144921 -125.560101 
L 89.379606 -126.244214 
L 88.64028 -126.928327 
L 87.939304 -127.612439 
L 87.288222 -128.296552 
L 86.697244 -128.980665 
L 86.174768 -129.664777 
L 85.726964 -130.34889 
L 85.357469 -131.033003 
L 85.06719 -131.717115 
L 84.854263 -132.401228 
L 84.71414 -133.085341 
L 84.639844 -133.769453 
L 84.622336 -134.453566 
L 84.651017 -135.137679 
L 84.714293 -135.821791 
L 84.800202 -136.505904 
L 84.89704 -137.190016 
L 84.993959 -137.874129 
L 85.081493 -138.558242 
L 85.151987 -139.242354 
L 85.199898 -139.926467 
L 85.221965 -140.61058 
L 85.21723 -141.294692 
L 85.18694 -141.978805 
L 85.134316 -142.662918 
L 85.064253 -143.34703 
L 84.982933 -144.031143 
L 84.897433 -144.715256 
L 84.815309 -145.399368 
L 84.744225 -146.083481 
L 84.691617 -146.767594 
L 84.664418 -147.451706 
L 84.668856 -148.135819 
L 84.710313 -148.819932 
L 84.793234 -149.504044 
L 84.92109 -150.188157 
L 85.096366 -150.87227 
L 85.320565 -151.556382 
L 85.59422 -152.240495 
L 85.916897 -152.924608 
L 86.287199 -153.60872 
L 86.702764 -154.292833 
L 87.160274 -154.976946 
L 87.655471 -155.661058 
L 88.183214 -156.345171 
L 88.737559 -157.029284 
L 89.3119 -157.713396 
L 89.899144 -158.397509 
L 90.491938 -159.081621 
L 91.082925 -159.765734 
L 91.665021 -160.449847 
L 92.231689 -161.133959 
L 92.777193 -161.818072 
L 93.296808 -162.502185 
L 93.78697 -163.186297 
L 94.245357 -163.87041 
L 94.670892 -164.554523 
L 95.063669 -165.238635 
L 95.424814 -165.922748 
L 95.756285 -166.606861 
L 96.060645 -167.290973 
L 96.340816 -167.975086 
L 96.599836 -168.659199 
L 96.840642 -169.343311 
L 97.065892 -170.027424 
L 97.27783 -170.711537 
L 97.478214 -171.395649 
L 97.668283 -172.079762 
L 97.848785 -172.763875 
L 98.020034 -173.447987 
L 98.181999 -174.1321 
L 98.334407 -174.816213 
L 98.476851 -175.500325 
L 98.608893 -176.184438 
L 98.730149 -176.868551 
L 98.84036 -177.552663 
L 98.939437 -178.236776 
L 99.027483 -178.920888 
L 99.1048 -179.605001 
L 99.171873 -180.289114 
L 99.229343 -180.973226 
L 99.717938 -180.973226 
L 99.717938 -180.973226 
L 99.775408 -180.289114 
L 99.842481 -179.605001 
L 99.919798 -178.920888 
L 100.007844 -178.236776 
L 100.10692 -177.552663 
L 100.217131 -176.868551 
L 100.338387 -176.184438 
L 100.470429 -175.500325 
L 100.612873 -174.816213 
L 100.765281 -174.1321 
L 100.927246 -173.447987 
L 101.098495 -172.763875 
L 101.278997 -172.079762 
L 101.469067 -171.395649 
L 101.66945 -170.711537 
L 101.881389 -170.027424 
L 102.106639 -169.343311 
L 102.347445 -168.659199 
L 102.606465 -167.975086 
L 102.886636 -167.290973 
L 103.190996 -166.606861 
L 103.522467 -165.922748 
L 103.883611 -165.238635 
L 104.276389 -164.554523 
L 104.701924 -163.87041 
L 105.160311 -163.186297 
L 105.650472 -162.502185 
L 106.170087 -161.818072 
L 106.715591 -161.133959 
L 107.28226 -160.449847 
L 107.864356 -159.765734 
L 108.455342 -159.081621 
L 109.048136 -158.397509 
L 109.63538 -157.713396 
L 110.209721 -157.029284 
L 110.764067 -156.345171 
L 111.291809 -155.661058 
L 111.787007 -154.976946 
L 112.244516 -154.292833 
L 112.660081 -153.60872 
L 113.030383 -152.924608 
L 113.35306 -152.240495 
L 113.626715 -151.556382 
L 113.850915 -150.87227 
L 114.026191 -150.188157 
L 114.154047 -149.504044 
L 114.236967 -148.819932 
L 114.278424 -148.135819 
L 114.282863 -147.451706 
L 114.255664 -146.767594 
L 114.203055 -146.083481 
L 114.131971 -145.399368 
L 114.049848 -144.715256 
L 113.964347 -144.031143 
L 113.883028 -143.34703 
L 113.812964 -142.662918 
L 113.760341 -141.978805 
L 113.73005 -141.294692 
L 113.725316 -140.61058 
L 113.747382 -139.926467 
L 113.795294 -139.242354 
L 113.865787 -138.558242 
L 113.953321 -137.874129 
L 114.05024 -137.190016 
L 114.147078 -136.505904 
L 114.232987 -135.821791 
L 114.296264 -135.137679 
L 114.324944 -134.453566 
L 114.307437 -133.769453 
L 114.23314 -133.085341 
L 114.093018 -132.401228 
L 113.88009 -131.717115 
L 113.589812 -131.033003 
L 113.220316 -130.34889 
L 112.772513 -129.664777 
L 112.250036 -128.980665 
L 111.659059 -128.296552 
L 111.007977 -127.612439 
L 110.307001 -126.928327 
L 109.567675 -126.244214 
L 108.80236 -125.560101 
L 108.023708 -124.875989 
L 107.244161 -124.191876 
L 106.475494 -123.507763 
L 105.728434 -122.823651 
L 105.012352 -122.139538 
L 104.335051 -121.455425 
L 103.702645 -120.771313 
L 103.119522 -120.0872 
L 102.588391 -119.403087 
L 102.110391 -118.718975 
L 101.685254 -118.034862 
L 101.311507 -117.350749 
L 100.986691 -116.666637 
L 100.707592 -115.982524 
L 100.470466 -115.298412 
L 100.271245 -114.614299 
L 100.105725 -113.930186 
L 99.969722 -113.246074 
z
" style="stroke: #595959; stroke-width: 1.25"/>
    </defs>
    <g clip-path="url(#pf4dcfbaca6)">
     <use xlink:href="#mf944e516e7" x="0" y="279.674688" style="fill: #e99675; stroke: #595959; stroke-width: 1.25"/>
    </g>
   </g>
   <g id="PolyCollection_3">
    <defs>
     <path id="me8b488ae44" d="M 136.790232 -163.104379 
L 136.413569 -163.104379 
L 136.365524 -163.787253 
L 136.309258 -164.470127 
L 136.244525 -165.153002 
L 136.171404 -165.835876 
L 136.090371 -166.51875 
L 136.002341 -167.201624 
L 135.908703 -167.884498 
L 135.811315 -168.567372 
L 135.712462 -169.250247 
L 135.614787 -169.933121 
L 135.521173 -170.615995 
L 135.434598 -171.298869 
L 135.357967 -171.981743 
L 135.293929 -172.664617 
L 135.244696 -173.347492 
L 135.211876 -174.030366 
L 135.196338 -174.71324 
L 135.198115 -175.396114 
L 135.216356 -176.078988 
L 135.249332 -176.761862 
L 135.294493 -177.444736 
L 135.348567 -178.127611 
L 135.407706 -178.810485 
L 135.46764 -179.493359 
L 135.523858 -180.176233 
L 135.571773 -180.859107 
L 135.606879 -181.541981 
L 135.624879 -182.224856 
L 135.621779 -182.90773 
L 135.593951 -183.590604 
L 135.538157 -184.273478 
L 135.451542 -184.956352 
L 135.331605 -185.639226 
L 135.176153 -186.322101 
L 134.983253 -187.004975 
L 134.751197 -187.687849 
L 134.478479 -188.370723 
L 134.163808 -189.053597 
L 133.806161 -189.736471 
L 133.404869 -190.419345 
L 132.959749 -191.10222 
L 132.471255 -191.785094 
L 131.940655 -192.467968 
L 131.370197 -193.150842 
L 130.763256 -193.833716 
L 130.12443 -194.51659 
L 129.459573 -195.199465 
L 128.775744 -195.882339 
L 128.081074 -196.565213 
L 127.384536 -197.248087 
L 126.695655 -197.930961 
L 126.024151 -198.613835 
L 125.379565 -199.29671 
L 124.770876 -199.979584 
L 124.206159 -200.662458 
L 123.692294 -201.345332 
L 123.234749 -202.028206 
L 122.837452 -202.71108 
L 122.502752 -203.393955 
L 122.231457 -204.076829 
L 122.022952 -204.759703 
L 121.87537 -205.442577 
L 121.785812 -206.125451 
L 121.750596 -206.808325 
L 121.765524 -207.491199 
L 121.82616 -208.174074 
L 121.928108 -208.856948 
L 122.067278 -209.539822 
L 122.240129 -210.222696 
L 122.443875 -210.90557 
L 122.676635 -211.588444 
L 122.937517 -212.271319 
L 123.226616 -212.954193 
L 123.544908 -213.637067 
L 123.894058 -214.319941 
L 124.276135 -215.002815 
L 124.693256 -215.685689 
L 125.147184 -216.368564 
L 125.638934 -217.051438 
L 126.168397 -217.734312 
L 126.734053 -218.417186 
L 127.332783 -219.10006 
L 127.959816 -219.782934 
L 128.608815 -220.465808 
L 129.272101 -221.148683 
L 129.940989 -221.831557 
L 130.60622 -222.514431 
L 131.258427 -223.197305 
L 131.888618 -223.880179 
L 132.488616 -224.563053 
L 133.051428 -225.245928 
L 133.571527 -225.928802 
L 134.045006 -226.611676 
L 134.469632 -227.29455 
L 134.844789 -227.977424 
L 135.171323 -228.660298 
L 135.451334 -229.343173 
L 135.68791 -230.026047 
L 135.88485 -230.708921 
L 137.31895 -230.708921 
L 137.31895 -230.708921 
L 137.515891 -230.026047 
L 137.752467 -229.343173 
L 138.032478 -228.660298 
L 138.359012 -227.977424 
L 138.734168 -227.29455 
L 139.158795 -226.611676 
L 139.632274 -225.928802 
L 140.152373 -225.245928 
L 140.715185 -224.563053 
L 141.315183 -223.880179 
L 141.945374 -223.197305 
L 142.597581 -222.514431 
L 143.262812 -221.831557 
L 143.9317 -221.148683 
L 144.594986 -220.465808 
L 145.243985 -219.782934 
L 145.871018 -219.10006 
L 146.469748 -218.417186 
L 147.035404 -217.734312 
L 147.564867 -217.051438 
L 148.056617 -216.368564 
L 148.510545 -215.685689 
L 148.927666 -215.002815 
L 149.309743 -214.319941 
L 149.658893 -213.637067 
L 149.977185 -212.954193 
L 150.266283 -212.271319 
L 150.527166 -211.588444 
L 150.759926 -210.90557 
L 150.963672 -210.222696 
L 151.136522 -209.539822 
L 151.275693 -208.856948 
L 151.377641 -208.174074 
L 151.438277 -207.491199 
L 151.453205 -206.808325 
L 151.417989 -206.125451 
L 151.328431 -205.442577 
L 151.180849 -204.759703 
L 150.972344 -204.076829 
L 150.701049 -203.393955 
L 150.366349 -202.71108 
L 149.969052 -202.028206 
L 149.511507 -201.345332 
L 148.997642 -200.662458 
L 148.432925 -199.979584 
L 147.824236 -199.29671 
L 147.17965 -198.613835 
L 146.508146 -197.930961 
L 145.819265 -197.248087 
L 145.122727 -196.565213 
L 144.428057 -195.882339 
L 143.744228 -195.199465 
L 143.079371 -194.51659 
L 142.440545 -193.833716 
L 141.833604 -193.150842 
L 141.263146 -192.467968 
L 140.732546 -191.785094 
L 140.244052 -191.10222 
L 139.798932 -190.419345 
L 139.39764 -189.736471 
L 139.039993 -189.053597 
L 138.725322 -188.370723 
L 138.452604 -187.687849 
L 138.220548 -187.004975 
L 138.027648 -186.322101 
L 137.872196 -185.639226 
L 137.752259 -184.956352 
L 137.665644 -184.273478 
L 137.60985 -183.590604 
L 137.582022 -182.90773 
L 137.578922 -182.224856 
L 137.596922 -181.541981 
L 137.632028 -180.859107 
L 137.679943 -180.176233 
L 137.736161 -179.493359 
L 137.796095 -178.810485 
L 137.855234 -178.127611 
L 137.909308 -177.444736 
L 137.954469 -176.761862 
L 137.987445 -176.078988 
L 138.005685 -175.396114 
L 138.007462 -174.71324 
L 137.991925 -174.030366 
L 137.959105 -173.347492 
L 137.909872 -172.664617 
L 137.845834 -171.981743 
L 137.769203 -171.298869 
L 137.682628 -170.615995 
L 137.589014 -169.933121 
L 137.491339 -169.250247 
L 137.392486 -168.567372 
L 137.295098 -167.884498 
L 137.20146 -167.201624 
L 137.11343 -166.51875 
L 137.032397 -165.835876 
L 136.959276 -165.153002 
L 136.894543 -164.470127 
L 136.838276 -163.787253 
L 136.790232 -163.104379 
z
" style="stroke: #595959; stroke-width: 1.25"/>
    </defs>
    <g clip-path="url(#pf4dcfbaca6)">
     <use xlink:href="#me8b488ae44" x="0" y="279.674688" style="fill: #95a3c3; stroke: #595959; stroke-width: 1.25"/>
    </g>
   </g>
   <g id="PolyCollection_4">
    <defs>
     <path id="mdde991410c" d="M 173.909692 -225.847769 
L 173.55063 -225.847769 
L 173.502148 -226.246745 
L 173.444944 -226.64572 
L 173.378774 -227.044695 
L 173.303787 -227.443671 
L 173.220606 -227.842646 
L 173.130385 -228.241621 
L 173.034842 -228.640597 
L 172.936238 -229.039572 
L 172.837318 -229.438547 
L 172.741202 -229.837523 
L 172.651228 -230.236498 
L 172.57076 -230.635474 
L 172.502972 -231.034449 
L 172.450627 -231.433424 
L 172.415868 -231.8324 
L 172.400044 -232.231375 
L 172.403578 -232.63035 
L 172.425903 -233.029326 
L 172.465453 -233.428301 
L 172.519722 -233.827277 
L 172.585373 -234.226252 
L 172.658396 -234.625227 
L 172.73428 -235.024203 
L 172.808199 -235.423178 
L 172.875191 -235.822153 
L 172.930312 -236.221129 
L 172.968769 -236.620104 
L 172.98602 -237.01908 
L 172.977842 -237.418055 
L 172.940392 -237.81703 
L 172.870235 -238.216006 
L 172.764379 -238.614981 
L 172.620304 -239.013956 
L 172.435994 -239.412932 
L 172.20997 -239.811907 
L 171.941328 -240.210882 
L 171.629758 -240.609858 
L 171.275571 -241.008833 
L 170.879689 -241.407809 
L 170.443632 -241.806784 
L 169.969473 -242.205759 
L 169.459795 -242.604735 
L 168.917622 -243.00371 
L 168.346372 -243.402685 
L 167.74981 -243.801661 
L 167.13203 -244.200636 
L 166.497458 -244.599612 
L 165.850881 -244.998587 
L 165.197491 -245.397562 
L 164.542929 -245.796538 
L 163.893308 -246.195513 
L 163.25521 -246.594488 
L 162.635621 -246.993464 
L 162.041809 -247.392439 
L 161.481141 -247.791415 
L 160.960841 -248.19039 
L 160.48772 -248.589365 
L 160.067906 -248.988341 
L 159.706599 -249.387316 
L 159.407884 -249.786291 
L 159.174634 -250.185267 
L 159.00851 -250.584242 
L 158.910052 -250.983218 
L 158.878857 -251.382193 
L 158.913804 -251.781168 
L 159.0133 -252.180144 
L 159.175496 -252.579119 
L 159.398454 -252.978094 
L 159.680231 -253.37707 
L 160.018871 -253.776045 
L 160.412317 -254.17502 
L 160.858249 -254.573996 
L 161.353893 -254.972971 
L 161.895824 -255.371947 
L 162.479798 -255.770922 
L 163.100653 -256.169897 
L 163.752277 -256.568873 
L 164.427682 -256.967848 
L 165.119144 -257.366823 
L 165.818429 -257.765799 
L 166.517061 -258.164774 
L 167.206624 -258.56375 
L 167.879055 -258.962725 
L 168.526924 -259.3617 
L 169.143672 -259.760676 
L 169.723795 -260.159651 
L 170.262966 -260.558626 
L 170.758103 -260.957602 
L 171.207367 -261.356577 
L 171.610113 -261.755553 
L 171.966797 -262.154528 
L 172.278837 -262.553503 
L 172.548465 -262.952479 
L 172.778548 -263.351454 
L 172.972416 -263.750429 
L 173.133687 -264.149405 
L 173.266112 -264.54838 
L 173.373428 -264.947355 
L 173.459244 -265.346331 
L 174.001077 -265.346331 
L 174.001077 -265.346331 
L 174.086894 -264.947355 
L 174.19421 -264.54838 
L 174.326634 -264.149405 
L 174.487905 -263.750429 
L 174.681773 -263.351454 
L 174.911856 -262.952479 
L 175.181484 -262.553503 
L 175.493524 -262.154528 
L 175.850208 -261.755553 
L 176.252954 -261.356577 
L 176.702218 -260.957602 
L 177.197355 -260.558626 
L 177.736527 -260.159651 
L 178.316649 -259.760676 
L 178.933397 -259.3617 
L 179.581266 -258.962725 
L 180.253697 -258.56375 
L 180.94326 -258.164774 
L 181.641893 -257.765799 
L 182.341177 -257.366823 
L 183.032639 -256.967848 
L 183.708044 -256.568873 
L 184.359669 -256.169897 
L 184.980523 -255.770922 
L 185.564498 -255.371947 
L 186.106428 -254.972971 
L 186.602073 -254.573996 
L 187.048004 -254.17502 
L 187.44145 -253.776045 
L 187.78009 -253.37707 
L 188.061867 -252.978094 
L 188.284825 -252.579119 
L 188.447021 -252.180144 
L 188.546517 -251.781168 
L 188.581465 -251.382193 
L 188.55027 -250.983218 
L 188.451811 -250.584242 
L 188.285687 -250.185267 
L 188.052437 -249.786291 
L 187.753722 -249.387316 
L 187.392415 -248.988341 
L 186.972601 -248.589365 
L 186.499481 -248.19039 
L 185.97918 -247.791415 
L 185.418512 -247.392439 
L 184.824701 -246.993464 
L 184.205112 -246.594488 
L 183.567013 -246.195513 
L 182.917392 -245.796538 
L 182.26283 -245.397562 
L 181.60944 -244.998587 
L 180.962864 -244.599612 
L 180.328291 -244.200636 
L 179.710511 -243.801661 
L 179.113949 -243.402685 
L 178.542699 -243.00371 
L 178.000526 -242.604735 
L 177.490848 -242.205759 
L 177.01669 -241.806784 
L 176.580632 -241.407809 
L 176.18475 -241.008833 
L 175.830563 -240.609858 
L 175.518994 -240.210882 
L 175.250351 -239.811907 
L 175.024328 -239.412932 
L 174.840018 -239.013956 
L 174.695943 -238.614981 
L 174.590086 -238.216006 
L 174.519929 -237.81703 
L 174.482479 -237.418055 
L 174.474302 -237.01908 
L 174.491552 -236.620104 
L 174.530009 -236.221129 
L 174.58513 -235.822153 
L 174.652122 -235.423178 
L 174.726041 -235.024203 
L 174.801925 -234.625227 
L 174.874948 -234.226252 
L 174.9406 -233.827277 
L 174.994868 -233.428301 
L 175.034418 -233.029326 
L 175.056743 -232.63035 
L 175.060278 -232.231375 
L 175.044453 -231.8324 
L 175.009694 -231.433424 
L 174.957349 -231.034449 
L 174.889561 -230.635474 
L 174.809094 -230.236498 
L 174.71912 -229.837523 
L 174.623004 -229.438547 
L 174.524083 -229.039572 
L 174.425479 -228.640597 
L 174.329936 -228.241621 
L 174.239716 -227.842646 
L 174.156534 -227.443671 
L 174.081547 -227.044695 
L 174.015377 -226.64572 
L 173.958174 -226.246745 
L 173.909692 -225.847769 
z
" style="stroke: #595959; stroke-width: 1.25"/>
    </defs>
    <g clip-path="url(#pf4dcfbaca6)">
     <use xlink:href="#mdde991410c" x="0" y="279.674688" style="fill: #db96c0; stroke: #595959; stroke-width: 1.25"/>
    </g>
   </g>
   <g id="PolyCollection_5">
    <defs>
     <path id="m88a9ff9259" d="M 211.150067 -170.881087 
L 210.566775 -170.881087 
L 210.497174 -171.496278 
L 210.414467 -172.111469 
L 210.317066 -172.72666 
L 210.203386 -173.341851 
L 210.071899 -173.957043 
L 209.921188 -174.572234 
L 209.750007 -175.187425 
L 209.557349 -175.802616 
L 209.342514 -176.417807 
L 209.105172 -177.032999 
L 208.845427 -177.64819 
L 208.563867 -178.263381 
L 208.261606 -178.878572 
L 207.94031 -179.493763 
L 207.602202 -180.108954 
L 207.250047 -180.724146 
L 206.887116 -181.339337 
L 206.517119 -181.954528 
L 206.144123 -182.569719 
L 205.772443 -183.18491 
L 205.406516 -183.800101 
L 205.050757 -184.415293 
L 204.709417 -185.030484 
L 204.386426 -185.645675 
L 204.085253 -186.260866 
L 203.808774 -186.876057 
L 203.559161 -187.491249 
L 203.337798 -188.10644 
L 203.145234 -188.721631 
L 202.981161 -189.336822 
L 202.844438 -189.952013 
L 202.733148 -190.567204 
L 202.644681 -191.182396 
L 202.575855 -191.797587 
L 202.523046 -192.412778 
L 202.482333 -193.027969 
L 202.449644 -193.64316 
L 202.420898 -194.258351 
L 202.392125 -194.873543 
L 202.359572 -195.488734 
L 202.319776 -196.103925 
L 202.269617 -196.719116 
L 202.206334 -197.334307 
L 202.12753 -197.949499 
L 202.03115 -198.56469 
L 201.915452 -199.179881 
L 201.778978 -199.795072 
L 201.620532 -200.410263 
L 201.439167 -201.025454 
L 201.234204 -201.640646 
L 201.005263 -202.255837 
L 200.752326 -202.871028 
L 200.475819 -203.486219 
L 200.176714 -204.10141 
L 199.856636 -204.716601 
L 199.517972 -205.331793 
L 199.16396 -205.946984 
L 198.798761 -206.562175 
L 198.427487 -207.177366 
L 198.056194 -207.792557 
L 197.691809 -208.407749 
L 197.342019 -209.02294 
L 197.015091 -209.638131 
L 196.719655 -210.253322 
L 196.464439 -210.868513 
L 196.257977 -211.483704 
L 196.108302 -212.098896 
L 196.022639 -212.714087 
L 196.007117 -213.329278 
L 196.066503 -213.944469 
L 196.203995 -214.55966 
L 196.421062 -215.174851 
L 196.717352 -215.790043 
L 197.090673 -216.405234 
L 197.537043 -217.020425 
L 198.050807 -217.635616 
L 198.624824 -218.250807 
L 199.250696 -218.865999 
L 199.919052 -219.48119 
L 200.619848 -220.096381 
L 201.342689 -220.711572 
L 202.07715 -221.326763 
L 202.813075 -221.941954 
L 203.540862 -222.557146 
L 204.251698 -223.172337 
L 204.93776 -223.787528 
L 205.592359 -224.402719 
L 206.210034 -225.01791 
L 206.786595 -225.633101 
L 207.319118 -226.248293 
L 207.805891 -226.863484 
L 208.246325 -227.478675 
L 208.640841 -228.093866 
L 208.990731 -228.709057 
L 209.298 -229.324249 
L 209.565219 -229.93944 
L 209.795366 -230.554631 
L 209.991682 -231.169822 
L 210.157543 -231.785013 
L 211.559299 -231.785013 
L 211.559299 -231.785013 
L 211.72516 -231.169822 
L 211.921476 -230.554631 
L 212.151623 -229.93944 
L 212.418842 -229.324249 
L 212.726111 -228.709057 
L 213.076 -228.093866 
L 213.470517 -227.478675 
L 213.910951 -226.863484 
L 214.397723 -226.248293 
L 214.930246 -225.633101 
L 215.506808 -225.01791 
L 216.124483 -224.402719 
L 216.779082 -223.787528 
L 217.465143 -223.172337 
L 218.17598 -222.557146 
L 218.903766 -221.941954 
L 219.639692 -221.326763 
L 220.374152 -220.711572 
L 221.096994 -220.096381 
L 221.79779 -219.48119 
L 222.466146 -218.865999 
L 223.092018 -218.250807 
L 223.666035 -217.635616 
L 224.179799 -217.020425 
L 224.626169 -216.405234 
L 224.99949 -215.790043 
L 225.29578 -215.174851 
L 225.512847 -214.55966 
L 225.650339 -213.944469 
L 225.709725 -213.329278 
L 225.694202 -212.714087 
L 225.60854 -212.098896 
L 225.458865 -211.483704 
L 225.252402 -210.868513 
L 224.997186 -210.253322 
L 224.70175 -209.638131 
L 224.374823 -209.02294 
L 224.025032 -208.407749 
L 223.660648 -207.792557 
L 223.289354 -207.177366 
L 222.918081 -206.562175 
L 222.552881 -205.946984 
L 222.198869 -205.331793 
L 221.860205 -204.716601 
L 221.540128 -204.10141 
L 221.241023 -203.486219 
L 220.964516 -202.871028 
L 220.711579 -202.255837 
L 220.482637 -201.640646 
L 220.277675 -201.025454 
L 220.09631 -200.410263 
L 219.937863 -199.795072 
L 219.801389 -199.179881 
L 219.685691 -198.56469 
L 219.589311 -197.949499 
L 219.510508 -197.334307 
L 219.447225 -196.719116 
L 219.397065 -196.103925 
L 219.35727 -195.488734 
L 219.324716 -194.873543 
L 219.295944 -194.258351 
L 219.267197 -193.64316 
L 219.234509 -193.027969 
L 219.193795 -192.412778 
L 219.140986 -191.797587 
L 219.072161 -191.182396 
L 218.983694 -190.567204 
L 218.872403 -189.952013 
L 218.735681 -189.336822 
L 218.571607 -188.721631 
L 218.379043 -188.10644 
L 218.157681 -187.491249 
L 217.908068 -186.876057 
L 217.631589 -186.260866 
L 217.330416 -185.645675 
L 217.007425 -185.030484 
L 216.666084 -184.415293 
L 216.310326 -183.800101 
L 215.944398 -183.18491 
L 215.572719 -182.569719 
L 215.199723 -181.954528 
L 214.829726 -181.339337 
L 214.466794 -180.724146 
L 214.11464 -180.108954 
L 213.776532 -179.493763 
L 213.455236 -178.878572 
L 213.152975 -178.263381 
L 212.871415 -177.64819 
L 212.611669 -177.032999 
L 212.374328 -176.417807 
L 212.159493 -175.802616 
L 211.966835 -175.187425 
L 211.795654 -174.572234 
L 211.644942 -173.957043 
L 211.513456 -173.341851 
L 211.399776 -172.72666 
L 211.302374 -172.111469 
L 211.219668 -171.496278 
L 211.150067 -170.881087 
z
" style="stroke: #595959; stroke-width: 1.25"/>
    </defs>
    <g clip-path="url(#pf4dcfbaca6)">
     <use xlink:href="#m88a9ff9259" x="0" y="279.674688" style="fill: #a2c865; stroke: #595959; stroke-width: 1.25"/>
    </g>
   </g>
   <g id="PolyCollection_6">
    <defs>
     <path id="m4a1b3a8d8a" d="M 248.196897 -120.851679 
L 247.776465 -120.851679 
L 247.720268 -122.05281 
L 247.653178 -123.253941 
L 247.574256 -124.455071 
L 247.482785 -125.656202 
L 247.378347 -126.857333 
L 247.260889 -128.058464 
L 247.130785 -129.259594 
L 246.988872 -130.460725 
L 246.836455 -131.661856 
L 246.675282 -132.862986 
L 246.507482 -134.064117 
L 246.335459 -135.265248 
L 246.161749 -136.466379 
L 245.988842 -137.667509 
L 245.818978 -138.86864 
L 245.653928 -140.069771 
L 245.494775 -141.270901 
L 245.341705 -142.472032 
L 245.193835 -143.673163 
L 245.049084 -144.874294 
L 244.904114 -146.075424 
L 244.754341 -147.276555 
L 244.594041 -148.477686 
L 244.416542 -149.678817 
L 244.214507 -150.879947 
L 243.980307 -152.081078 
L 243.706451 -153.282209 
L 243.386076 -154.483339 
L 243.013449 -155.68447 
L 242.584461 -156.885601 
L 242.097079 -158.086732 
L 241.551711 -159.287862 
L 240.951464 -160.488993 
L 240.302258 -161.690124 
L 239.612781 -162.891255 
L 238.894276 -164.092385 
L 238.160156 -165.293516 
L 237.425478 -166.494647 
L 236.706278 -167.695777 
L 236.018838 -168.896908 
L 235.378905 -170.098039 
L 234.800931 -171.29917 
L 234.297381 -172.5003 
L 233.878161 -173.701431 
L 233.550204 -174.902562 
L 233.317249 -176.103692 
L 233.179815 -177.304823 
L 233.135377 -178.505954 
L 233.178723 -179.707085 
L 233.302448 -180.908215 
L 233.497552 -182.109346 
L 233.754078 -183.310477 
L 234.061748 -184.511608 
L 234.410537 -185.712738 
L 234.791149 -186.913869 
L 235.195364 -188.115 
L 235.616242 -189.31613 
L 236.04819 -190.517261 
L 236.486891 -191.718392 
L 236.929135 -192.919523 
L 237.372585 -194.120653 
L 237.815507 -195.321784 
L 238.256502 -196.522915 
L 238.694278 -197.724045 
L 239.127487 -198.925176 
L 239.554627 -200.126307 
L 239.974032 -201.327438 
L 240.383927 -202.528568 
L 240.782543 -203.729699 
L 241.168263 -204.93083 
L 241.539777 -206.131961 
L 241.896223 -207.333091 
L 242.237283 -208.534222 
L 242.563229 -209.735353 
L 242.87491 -210.936483 
L 243.173669 -212.137614 
L 243.461211 -213.338745 
L 243.73943 -214.539876 
L 244.010222 -215.741006 
L 244.275287 -216.942137 
L 244.535968 -218.143268 
L 244.79312 -219.344399 
L 245.047032 -220.545529 
L 245.29741 -221.74666 
L 245.543409 -222.947791 
L 245.783724 -224.148921 
L 246.016709 -225.350052 
L 246.240532 -226.551183 
L 246.453321 -227.752314 
L 246.653323 -228.953444 
L 246.839024 -230.154575 
L 247.009255 -231.355706 
L 247.163252 -232.556836 
L 247.300688 -233.757967 
L 247.421665 -234.959098 
L 247.526679 -236.160229 
L 247.616566 -237.361359 
L 247.692426 -238.56249 
L 247.755548 -239.763621 
L 248.217814 -239.763621 
L 248.217814 -239.763621 
L 248.280936 -238.56249 
L 248.356796 -237.361359 
L 248.446683 -236.160229 
L 248.551697 -234.959098 
L 248.672674 -233.757967 
L 248.81011 -232.556836 
L 248.964107 -231.355706 
L 249.134338 -230.154575 
L 249.320039 -228.953444 
L 249.520041 -227.752314 
L 249.73283 -226.551183 
L 249.956653 -225.350052 
L 250.189638 -224.148921 
L 250.429953 -222.947791 
L 250.675952 -221.74666 
L 250.92633 -220.545529 
L 251.180242 -219.344399 
L 251.437394 -218.143268 
L 251.698075 -216.942137 
L 251.96314 -215.741006 
L 252.233932 -214.539876 
L 252.512151 -213.338745 
L 252.799693 -212.137614 
L 253.098452 -210.936483 
L 253.410133 -209.735353 
L 253.736079 -208.534222 
L 254.077139 -207.333091 
L 254.433585 -206.131961 
L 254.805099 -204.93083 
L 255.190819 -203.729699 
L 255.589435 -202.528568 
L 255.99933 -201.327438 
L 256.418735 -200.126307 
L 256.845875 -198.925176 
L 257.279084 -197.724045 
L 257.71686 -196.522915 
L 258.157855 -195.321784 
L 258.600777 -194.120653 
L 259.044227 -192.919523 
L 259.486471 -191.718392 
L 259.925172 -190.517261 
L 260.35712 -189.31613 
L 260.777998 -188.115 
L 261.182213 -186.913869 
L 261.562825 -185.712738 
L 261.911614 -184.511608 
L 262.219284 -183.310477 
L 262.47581 -182.109346 
L 262.670914 -180.908215 
L 262.794639 -179.707085 
L 262.837985 -178.505954 
L 262.793547 -177.304823 
L 262.656113 -176.103692 
L 262.423158 -174.902562 
L 262.095201 -173.701431 
L 261.675981 -172.5003 
L 261.172431 -171.29917 
L 260.594457 -170.098039 
L 259.954524 -168.896908 
L 259.267084 -167.695777 
L 258.547884 -166.494647 
L 257.813206 -165.293516 
L 257.079086 -164.092385 
L 256.360581 -162.891255 
L 255.671104 -161.690124 
L 255.021898 -160.488993 
L 254.421651 -159.287862 
L 253.876284 -158.086732 
L 253.388901 -156.885601 
L 252.959913 -155.68447 
L 252.587286 -154.483339 
L 252.266911 -153.282209 
L 251.993055 -152.081078 
L 251.758855 -150.879947 
L 251.55682 -149.678817 
L 251.379321 -148.477686 
L 251.219021 -147.276555 
L 251.069248 -146.075424 
L 250.924278 -144.874294 
L 250.779527 -143.673163 
L 250.631657 -142.472032 
L 250.478587 -141.270901 
L 250.319434 -140.069771 
L 250.154384 -138.86864 
L 249.98452 -137.667509 
L 249.811613 -136.466379 
L 249.637903 -135.265248 
L 249.46588 -134.064117 
L 249.29808 -132.862986 
L 249.136907 -131.661856 
L 248.98449 -130.460725 
L 248.842577 -129.259594 
L 248.712473 -128.058464 
L 248.595015 -126.857333 
L 248.490577 -125.656202 
L 248.399106 -124.455071 
L 248.320184 -123.253941 
L 248.253094 -122.05281 
L 248.196897 -120.851679 
z
" style="stroke: #595959; stroke-width: 1.25"/>
    </defs>
    <g clip-path="url(#pf4dcfbaca6)">
     <use xlink:href="#m4a1b3a8d8a" x="0" y="279.674688" style="fill: #e5c849; stroke: #595959; stroke-width: 1.25"/>
    </g>
   </g>
   <g id="matplotlib.axis_1">
    <g id="xtick_1">
     <g id="line2d_1">
      <defs>
       <path id="m8c3e6fa355" d="M 0 0 
L 0 3.5 
" style="stroke: #000000; stroke-width: 0.8"/>
      </defs>
      <g>
       <use xlink:href="#m8c3e6fa355" x="62.34538" y="242.118437" style="stroke: #000000; stroke-width: 0.8"/>
      </g>
     </g>
     <g id="text_1">
      <!-- 1 -->
      <g transform="translate(59.16413 256.716875) scale(0.1 -0.1)">
       <defs>
        <path id="DejaVuSans-31" d="M 794 531 
L 1825 531 
L 1825 4091 
L 703 3866 
L 703 4441 
L 1819 4666 
L 2450 4666 
L 2450 531 
L 3481 531 
L 3481 0 
L 794 0 
L 794 531 
z
" transform="scale(0.015625)"/>
       </defs>
       <use xlink:href="#DejaVuSans-31"/>
      </g>
     </g>
    </g>
    <g id="xtick_2">
     <g id="line2d_2">
      <g>
       <use xlink:href="#m8c3e6fa355" x="99.47364" y="242.118437" style="stroke: #000000; stroke-width: 0.8"/>
      </g>
     </g>
     <g id="text_2">
      <!-- 2 -->
      <g transform="translate(96.29239 256.716875) scale(0.1 -0.1)">
       <defs>
        <path id="DejaVuSans-32" d="M 1228 531 
L 3431 531 
L 3431 0 
L 469 0 
L 469 531 
Q 828 903 1448 1529 
Q 2069 2156 2228 2338 
Q 2531 2678 2651 2914 
Q 2772 3150 2772 3378 
Q 2772 3750 2511 3984 
Q 2250 4219 1831 4219 
Q 1534 4219 1204 4116 
Q 875 4013 500 3803 
L 500 4441 
Q 881 4594 1212 4672 
Q 1544 4750 1819 4750 
Q 2544 4750 2975 4387 
Q 3406 4025 3406 3419 
Q 3406 3131 3298 2873 
Q 3191 2616 2906 2266 
Q 2828 2175 2409 1742 
Q 1991 1309 1228 531 
z
" transform="scale(0.015625)"/>
       </defs>
       <use xlink:href="#DejaVuSans-32"/>
      </g>
     </g>
    </g>
    <g id="xtick_3">
     <g id="line2d_3">
      <g>
       <use xlink:href="#m8c3e6fa355" x="136.6019" y="242.118437" style="stroke: #000000; stroke-width: 0.8"/>
      </g>
     </g>
     <g id="text_3">
      <!-- 3 -->
      <g transform="translate(133.42065 256.716875) scale(0.1 -0.1)">
       <defs>
        <path id="DejaVuSans-33" d="M 2597 2516 
Q 3050 2419 3304 2112 
Q 3559 1806 3559 1356 
Q 3559 666 3084 287 
Q 2609 -91 1734 -91 
Q 1441 -91 1130 -33 
Q 819 25 488 141 
L 488 750 
Q 750 597 1062 519 
Q 1375 441 1716 441 
Q 2309 441 2620 675 
Q 2931 909 2931 1356 
Q 2931 1769 2642 2001 
Q 2353 2234 1838 2234 
L 1294 2234 
L 1294 2753 
L 1863 2753 
Q 2328 2753 2575 2939 
Q 2822 3125 2822 3475 
Q 2822 3834 2567 4026 
Q 2313 4219 1838 4219 
Q 1578 4219 1281 4162 
Q 984 4106 628 3988 
L 628 4550 
Q 988 4650 1302 4700 
Q 1616 4750 1894 4750 
Q 2613 4750 3031 4423 
Q 3450 4097 3450 3541 
Q 3450 3153 3228 2886 
Q 3006 2619 2597 2516 
z
" transform="scale(0.015625)"/>
       </defs>
       <use xlink:href="#DejaVuSans-33"/>
      </g>
     </g>
    </g>
    <g id="xtick_4">
     <g id="line2d_4">
      <g>
       <use xlink:href="#m8c3e6fa355" x="173.730161" y="242.118437" style="stroke: #000000; stroke-width: 0.8"/>
      </g>
     </g>
     <g id="text_4">
      <!-- 4 -->
      <g transform="translate(170.548911 256.716875) scale(0.1 -0.1)">
       <defs>
        <path id="DejaVuSans-34" d="M 2419 4116 
L 825 1625 
L 2419 1625 
L 2419 4116 
z
M 2253 4666 
L 3047 4666 
L 3047 1625 
L 3713 1625 
L 3713 1100 
L 3047 1100 
L 3047 0 
L 2419 0 
L 2419 1100 
L 313 1100 
L 313 1709 
L 2253 4666 
z
" transform="scale(0.015625)"/>
       </defs>
       <use xlink:href="#DejaVuSans-34"/>
      </g>
     </g>
    </g>
    <g id="xtick_5">
     <g id="line2d_5">
      <g>
       <use xlink:href="#m8c3e6fa355" x="210.858421" y="242.118437" style="stroke: #000000; stroke-width: 0.8"/>
      </g>
     </g>
     <g id="text_5">
      <!-- 5 -->
      <g transform="translate(207.677171 256.716875) scale(0.1 -0.1)">
       <defs>
        <path id="DejaVuSans-35" d="M 691 4666 
L 3169 4666 
L 3169 4134 
L 1269 4134 
L 1269 2991 
Q 1406 3038 1543 3061 
Q 1681 3084 1819 3084 
Q 2600 3084 3056 2656 
Q 3513 2228 3513 1497 
Q 3513 744 3044 326 
Q 2575 -91 1722 -91 
Q 1428 -91 1123 -41 
Q 819 9 494 109 
L 494 744 
Q 775 591 1075 516 
Q 1375 441 1709 441 
Q 2250 441 2565 725 
Q 2881 1009 2881 1497 
Q 2881 1984 2565 2268 
Q 2250 2553 1709 2553 
Q 1456 2553 1204 2497 
Q 953 2441 691 2322 
L 691 4666 
z
" transform="scale(0.015625)"/>
       </defs>
       <use xlink:href="#DejaVuSans-35"/>
      </g>
     </g>
    </g>
    <g id="xtick_6">
     <g id="line2d_6">
      <g>
       <use xlink:href="#m8c3e6fa355" x="247.986681" y="242.118437" style="stroke: #000000; stroke-width: 0.8"/>
      </g>
     </g>
     <g id="text_6">
      <!-- 6 -->
      <g transform="translate(244.805431 256.716875) scale(0.1 -0.1)">
       <defs>
        <path id="DejaVuSans-36" d="M 2113 2584 
Q 1688 2584 1439 2293 
Q 1191 2003 1191 1497 
Q 1191 994 1439 701 
Q 1688 409 2113 409 
Q 2538 409 2786 701 
Q 3034 994 3034 1497 
Q 3034 2003 2786 2293 
Q 2538 2584 2113 2584 
z
M 3366 4563 
L 3366 3988 
Q 3128 4100 2886 4159 
Q 2644 4219 2406 4219 
Q 1781 4219 1451 3797 
Q 1122 3375 1075 2522 
Q 1259 2794 1537 2939 
Q 1816 3084 2150 3084 
Q 2853 3084 3261 2657 
Q 3669 2231 3669 1497 
Q 3669 778 3244 343 
Q 2819 -91 2113 -91 
Q 1303 -91 875 529 
Q 447 1150 447 2328 
Q 447 3434 972 4092 
Q 1497 4750 2381 4750 
Q 2619 4750 2861 4703 
Q 3103 4656 3366 4563 
z
" transform="scale(0.015625)"/>
       </defs>
       <use xlink:href="#DejaVuSans-36"/>
      </g>
     </g>
    </g>
    <g id="text_7">
     <!-- Layer -->
     <g transform="translate(141.224624 270.395) scale(0.1 -0.1)">
      <defs>
       <path id="DejaVuSans-4c" d="M 628 4666 
L 1259 4666 
L 1259 531 
L 3531 531 
L 3531 0 
L 628 0 
L 628 4666 
z
" transform="scale(0.015625)"/>
       <path id="DejaVuSans-61" d="M 2194 1759 
Q 1497 1759 1228 1600 
Q 959 1441 959 1056 
Q 959 750 1161 570 
Q 1363 391 1709 391 
Q 2188 391 2477 730 
Q 2766 1069 2766 1631 
L 2766 1759 
L 2194 1759 
z
M 3341 1997 
L 3341 0 
L 2766 0 
L 2766 531 
Q 2569 213 2275 61 
Q 1981 -91 1556 -91 
Q 1019 -91 701 211 
Q 384 513 384 1019 
Q 384 1609 779 1909 
Q 1175 2209 1959 2209 
L 2766 2209 
L 2766 2266 
Q 2766 2663 2505 2880 
Q 2244 3097 1772 3097 
Q 1472 3097 1187 3025 
Q 903 2953 641 2809 
L 641 3341 
Q 956 3463 1253 3523 
Q 1550 3584 1831 3584 
Q 2591 3584 2966 3190 
Q 3341 2797 3341 1997 
z
" transform="scale(0.015625)"/>
       <path id="DejaVuSans-79" d="M 2059 -325 
Q 1816 -950 1584 -1140 
Q 1353 -1331 966 -1331 
L 506 -1331 
L 506 -850 
L 844 -850 
Q 1081 -850 1212 -737 
Q 1344 -625 1503 -206 
L 1606 56 
L 191 3500 
L 800 3500 
L 1894 763 
L 2988 3500 
L 3597 3500 
L 2059 -325 
z
" transform="scale(0.015625)"/>
       <path id="DejaVuSans-65" d="M 3597 1894 
L 3597 1613 
L 953 1613 
Q 991 1019 1311 708 
Q 1631 397 2203 397 
Q 2534 397 2845 478 
Q 3156 559 3463 722 
L 3463 178 
Q 3153 47 2828 -22 
Q 2503 -91 2169 -91 
Q 1331 -91 842 396 
Q 353 884 353 1716 
Q 353 2575 817 3079 
Q 1281 3584 2069 3584 
Q 2775 3584 3186 3129 
Q 3597 2675 3597 1894 
z
M 3022 2063 
Q 3016 2534 2758 2815 
Q 2500 3097 2075 3097 
Q 1594 3097 1305 2825 
Q 1016 2553 972 2059 
L 3022 2063 
z
" transform="scale(0.015625)"/>
       <path id="DejaVuSans-72" d="M 2631 2963 
Q 2534 3019 2420 3045 
Q 2306 3072 2169 3072 
Q 1681 3072 1420 2755 
Q 1159 2438 1159 1844 
L 1159 0 
L 581 0 
L 581 3500 
L 1159 3500 
L 1159 2956 
Q 1341 3275 1631 3429 
Q 1922 3584 2338 3584 
Q 2397 3584 2469 3576 
Q 2541 3569 2628 3553 
L 2631 2963 
z
" transform="scale(0.015625)"/>
      </defs>
      <use xlink:href="#DejaVuSans-4c"/>
      <use xlink:href="#DejaVuSans-61" x="55.712891"/>
      <use xlink:href="#DejaVuSans-79" x="116.992188"/>
      <use xlink:href="#DejaVuSans-65" x="176.171875"/>
      <use xlink:href="#DejaVuSans-72" x="237.695312"/>
     </g>
    </g>
   </g>
   <g id="matplotlib.axis_2">
    <g id="ytick_1">
     <g id="line2d_7">
      <defs>
       <path id="mf38fe015cb" d="M 0 0 
L -3.5 0 
" style="stroke: #000000; stroke-width: 0.8"/>
      </defs>
      <g>
       <use xlink:href="#mf38fe015cb" x="43.78125" y="242.118437" style="stroke: #000000; stroke-width: 0.8"/>
      </g>
     </g>
     <g id="text_8">
      <!-- 0.0 -->
      <g transform="translate(20.878125 245.917656) scale(0.1 -0.1)">
       <defs>
        <path id="DejaVuSans-30" d="M 2034 4250 
Q 1547 4250 1301 3770 
Q 1056 3291 1056 2328 
Q 1056 1369 1301 889 
Q 1547 409 2034 409 
Q 2525 409 2770 889 
Q 3016 1369 3016 2328 
Q 3016 3291 2770 3770 
Q 2525 4250 2034 4250 
z
M 2034 4750 
Q 2819 4750 3233 4129 
Q 3647 3509 3647 2328 
Q 3647 1150 3233 529 
Q 2819 -91 2034 -91 
Q 1250 -91 836 529 
Q 422 1150 422 2328 
Q 422 3509 836 4129 
Q 1250 4750 2034 4750 
z
" transform="scale(0.015625)"/>
        <path id="DejaVuSans-2e" d="M 684 794 
L 1344 794 
L 1344 0 
L 684 0 
L 684 794 
z
" transform="scale(0.015625)"/>
       </defs>
       <use xlink:href="#DejaVuSans-30"/>
       <use xlink:href="#DejaVuSans-2e" x="63.623047"/>
       <use xlink:href="#DejaVuSans-30" x="95.410156"/>
      </g>
     </g>
    </g>
    <g id="ytick_2">
     <g id="line2d_8">
      <g>
       <use xlink:href="#mf38fe015cb" x="43.78125" y="197.854437" style="stroke: #000000; stroke-width: 0.8"/>
      </g>
     </g>
     <g id="text_9">
      <!-- 0.2 -->
      <g transform="translate(20.878125 201.653656) scale(0.1 -0.1)">
       <use xlink:href="#DejaVuSans-30"/>
       <use xlink:href="#DejaVuSans-2e" x="63.623047"/>
       <use xlink:href="#DejaVuSans-32" x="95.410156"/>
      </g>
     </g>
    </g>
    <g id="ytick_3">
     <g id="line2d_9">
      <g>
       <use xlink:href="#mf38fe015cb" x="43.78125" y="153.590437" style="stroke: #000000; stroke-width: 0.8"/>
      </g>
     </g>
     <g id="text_10">
      <!-- 0.4 -->
      <g transform="translate(20.878125 157.389656) scale(0.1 -0.1)">
       <use xlink:href="#DejaVuSans-30"/>
       <use xlink:href="#DejaVuSans-2e" x="63.623047"/>
       <use xlink:href="#DejaVuSans-34" x="95.410156"/>
      </g>
     </g>
    </g>
    <g id="ytick_4">
     <g id="line2d_10">
      <g>
       <use xlink:href="#mf38fe015cb" x="43.78125" y="109.326437" style="stroke: #000000; stroke-width: 0.8"/>
      </g>
     </g>
     <g id="text_11">
      <!-- 0.6 -->
      <g transform="translate(20.878125 113.125656) scale(0.1 -0.1)">
       <use xlink:href="#DejaVuSans-30"/>
       <use xlink:href="#DejaVuSans-2e" x="63.623047"/>
       <use xlink:href="#DejaVuSans-36" x="95.410156"/>
      </g>
     </g>
    </g>
    <g id="ytick_5">
     <g id="line2d_11">
      <g>
       <use xlink:href="#mf38fe015cb" x="43.78125" y="65.062437" style="stroke: #000000; stroke-width: 0.8"/>
      </g>
     </g>
     <g id="text_12">
      <!-- 0.8 -->
      <g transform="translate(20.878125 68.861656) scale(0.1 -0.1)">
       <defs>
        <path id="DejaVuSans-38" d="M 2034 2216 
Q 1584 2216 1326 1975 
Q 1069 1734 1069 1313 
Q 1069 891 1326 650 
Q 1584 409 2034 409 
Q 2484 409 2743 651 
Q 3003 894 3003 1313 
Q 3003 1734 2745 1975 
Q 2488 2216 2034 2216 
z
M 1403 2484 
Q 997 2584 770 2862 
Q 544 3141 544 3541 
Q 544 4100 942 4425 
Q 1341 4750 2034 4750 
Q 2731 4750 3128 4425 
Q 3525 4100 3525 3541 
Q 3525 3141 3298 2862 
Q 3072 2584 2669 2484 
Q 3125 2378 3379 2068 
Q 3634 1759 3634 1313 
Q 3634 634 3220 271 
Q 2806 -91 2034 -91 
Q 1263 -91 848 271 
Q 434 634 434 1313 
Q 434 1759 690 2068 
Q 947 2378 1403 2484 
z
M 1172 3481 
Q 1172 3119 1398 2916 
Q 1625 2713 2034 2713 
Q 2441 2713 2670 2916 
Q 2900 3119 2900 3481 
Q 2900 3844 2670 4047 
Q 2441 4250 2034 4250 
Q 1625 4250 1398 4047 
Q 1172 3844 1172 3481 
z
" transform="scale(0.015625)"/>
       </defs>
       <use xlink:href="#DejaVuSans-30"/>
       <use xlink:href="#DejaVuSans-2e" x="63.623047"/>
       <use xlink:href="#DejaVuSans-38" x="95.410156"/>
      </g>
     </g>
    </g>
    <g id="ytick_6">
     <g id="line2d_12">
      <g>
       <use xlink:href="#mf38fe015cb" x="43.78125" y="20.798437" style="stroke: #000000; stroke-width: 0.8"/>
      </g>
     </g>
     <g id="text_13">
      <!-- 1.0 -->
      <g transform="translate(20.878125 24.597656) scale(0.1 -0.1)">
       <use xlink:href="#DejaVuSans-31"/>
       <use xlink:href="#DejaVuSans-2e" x="63.623047"/>
       <use xlink:href="#DejaVuSans-30" x="95.410156"/>
      </g>
     </g>
    </g>
    <g id="text_14">
     <!-- Accuracy -->
     <g transform="translate(14.798438 154.286563) rotate(-90) scale(0.1 -0.1)">
      <defs>
       <path id="DejaVuSans-41" d="M 2188 4044 
L 1331 1722 
L 3047 1722 
L 2188 4044 
z
M 1831 4666 
L 2547 4666 
L 4325 0 
L 3669 0 
L 3244 1197 
L 1141 1197 
L 716 0 
L 50 0 
L 1831 4666 
z
" transform="scale(0.015625)"/>
       <path id="DejaVuSans-63" d="M 3122 3366 
L 3122 2828 
Q 2878 2963 2633 3030 
Q 2388 3097 2138 3097 
Q 1578 3097 1268 2742 
Q 959 2388 959 1747 
Q 959 1106 1268 751 
Q 1578 397 2138 397 
Q 2388 397 2633 464 
Q 2878 531 3122 666 
L 3122 134 
Q 2881 22 2623 -34 
Q 2366 -91 2075 -91 
Q 1284 -91 818 406 
Q 353 903 353 1747 
Q 353 2603 823 3093 
Q 1294 3584 2113 3584 
Q 2378 3584 2631 3529 
Q 2884 3475 3122 3366 
z
" transform="scale(0.015625)"/>
       <path id="DejaVuSans-75" d="M 544 1381 
L 544 3500 
L 1119 3500 
L 1119 1403 
Q 1119 906 1312 657 
Q 1506 409 1894 409 
Q 2359 409 2629 706 
Q 2900 1003 2900 1516 
L 2900 3500 
L 3475 3500 
L 3475 0 
L 2900 0 
L 2900 538 
Q 2691 219 2414 64 
Q 2138 -91 1772 -91 
Q 1169 -91 856 284 
Q 544 659 544 1381 
z
M 1991 3584 
L 1991 3584 
z
" transform="scale(0.015625)"/>
      </defs>
      <use xlink:href="#DejaVuSans-41"/>
      <use xlink:href="#DejaVuSans-63" x="66.658203"/>
      <use xlink:href="#DejaVuSans-63" x="121.638672"/>
      <use xlink:href="#DejaVuSans-75" x="176.619141"/>
      <use xlink:href="#DejaVuSans-72" x="239.998047"/>
      <use xlink:href="#DejaVuSans-61" x="281.111328"/>
      <use xlink:href="#DejaVuSans-63" x="342.390625"/>
      <use xlink:href="#DejaVuSans-79" x="397.371094"/>
     </g>
    </g>
   </g>
   <g id="line2d_13">
    <path d="M 43.78125 131.458438 
L 266.550811 131.458438 
" clip-path="url(#pf4dcfbaca6)" style="fill: none; stroke-dasharray: 5.55,2.4; stroke-dashoffset: 0; stroke: #808080; stroke-width: 1.5"/>
   </g>
   <g id="patch_3">
    <path d="M 43.78125 242.118437 
L 43.78125 20.798437 
" style="fill: none; stroke: #000000; stroke-width: 0.8; stroke-linejoin: miter; stroke-linecap: square"/>
   </g>
   <g id="patch_4">
    <path d="M 43.78125 242.118437 
L 266.550811 242.118437 
" style="fill: none; stroke: #000000; stroke-width: 0.8; stroke-linejoin: miter; stroke-linecap: square"/>
   </g>
   <g id="PathCollection_1">
    <defs>
     <path id="m8885aac340" d="M 0 1.25 
C 0.331504 1.25 0.649475 1.118292 0.883883 0.883883 
C 1.118292 0.649475 1.25 0.331504 1.25 0 
C 1.25 -0.331504 1.118292 -0.649475 0.883883 -0.883883 
C 0.649475 -1.118292 0.331504 -1.25 0 -1.25 
C -0.331504 -1.25 -0.649475 -1.118292 -0.883883 -0.883883 
C -1.118292 -0.649475 -1.25 -0.331504 -1.25 0 
C -1.25 0.331504 -1.118292 0.649475 -0.883883 0.883883 
C -0.649475 1.118292 -0.331504 1.25 0 1.25 
z
" style="stroke: #595959"/>
    </defs>
    <g clip-path="url(#pf4dcfbaca6)">
     <use xlink:href="#m8885aac340" x="62.34538" y="127.032037" style="fill: #595959; stroke: #595959"/>
     <use xlink:href="#m8885aac340" x="62.34538" y="120.392437" style="fill: #595959; stroke: #595959"/>
     <use xlink:href="#m8885aac340" x="62.34538" y="118.179237" style="fill: #595959; stroke: #595959"/>
     <use xlink:href="#m8885aac340" x="62.34538" y="129.245237" style="fill: #595959; stroke: #595959"/>
     <use xlink:href="#m8885aac340" x="62.34538" y="120.392437" style="fill: #595959; stroke: #595959"/>
     <use xlink:href="#m8885aac340" x="62.34538" y="122.605638" style="fill: #595959; stroke: #595959"/>
     <use xlink:href="#m8885aac340" x="62.34538" y="142.524437" style="fill: #595959; stroke: #595959"/>
     <use xlink:href="#m8885aac340" x="62.34538" y="133.671637" style="fill: #595959; stroke: #595959"/>
     <use xlink:href="#m8885aac340" x="62.34538" y="129.245237" style="fill: #595959; stroke: #595959"/>
     <use xlink:href="#m8885aac340" x="62.34538" y="118.179237" style="fill: #595959; stroke: #595959"/>
     <use xlink:href="#m8885aac340" x="62.34538" y="146.950837" style="fill: #595959; stroke: #595959"/>
     <use xlink:href="#m8885aac340" x="62.34538" y="133.671637" style="fill: #595959; stroke: #595959"/>
     <use xlink:href="#m8885aac340" x="62.34538" y="133.671637" style="fill: #595959; stroke: #595959"/>
     <use xlink:href="#m8885aac340" x="62.34538" y="166.869638" style="fill: #595959; stroke: #595959"/>
     <use xlink:href="#m8885aac340" x="62.34538" y="160.230037" style="fill: #595959; stroke: #595959"/>
     <use xlink:href="#m8885aac340" x="62.34538" y="107.113237" style="fill: #595959; stroke: #595959"/>
     <use xlink:href="#m8885aac340" x="62.34538" y="144.737637" style="fill: #595959; stroke: #595959"/>
     <use xlink:href="#m8885aac340" x="62.34538" y="149.164037" style="fill: #595959; stroke: #595959"/>
     <use xlink:href="#m8885aac340" x="62.34538" y="124.818837" style="fill: #595959; stroke: #595959"/>
     <use xlink:href="#m8885aac340" x="62.34538" y="133.671637" style="fill: #595959; stroke: #595959"/>
    </g>
   </g>
   <g id="PathCollection_2">
    <g clip-path="url(#pf4dcfbaca6)">
     <use xlink:href="#m8885aac340" x="99.47364" y="138.098037" style="fill: #595959; stroke: #595959"/>
     <use xlink:href="#m8885aac340" x="99.47364" y="129.245237" style="fill: #595959; stroke: #595959"/>
     <use xlink:href="#m8885aac340" x="99.47364" y="146.950837" style="fill: #595959; stroke: #595959"/>
     <use xlink:href="#m8885aac340" x="99.47364" y="153.590438" style="fill: #595959; stroke: #595959"/>
     <use xlink:href="#m8885aac340" x="99.47364" y="131.458438" style="fill: #595959; stroke: #595959"/>
     <use xlink:href="#m8885aac340" x="99.47364" y="122.605637" style="fill: #595959; stroke: #595959"/>
     <use xlink:href="#m8885aac340" x="99.47364" y="144.737637" style="fill: #595959; stroke: #595959"/>
     <use xlink:href="#m8885aac340" x="99.47364" y="124.818837" style="fill: #595959; stroke: #595959"/>
     <use xlink:href="#m8885aac340" x="99.47364" y="151.377237" style="fill: #595959; stroke: #595959"/>
     <use xlink:href="#m8885aac340" x="99.47364" y="133.671637" style="fill: #595959; stroke: #595959"/>
     <use xlink:href="#m8885aac340" x="99.47364" y="124.818837" style="fill: #595959; stroke: #595959"/>
     <use xlink:href="#m8885aac340" x="99.47364" y="146.950837" style="fill: #595959; stroke: #595959"/>
     <use xlink:href="#m8885aac340" x="99.47364" y="133.671637" style="fill: #595959; stroke: #595959"/>
     <use xlink:href="#m8885aac340" x="99.47364" y="131.458438" style="fill: #595959; stroke: #595959"/>
     <use xlink:href="#m8885aac340" x="99.47364" y="111.539637" style="fill: #595959; stroke: #595959"/>
     <use xlink:href="#m8885aac340" x="99.47364" y="138.098037" style="fill: #595959; stroke: #595959"/>
     <use xlink:href="#m8885aac340" x="99.47364" y="122.605637" style="fill: #595959; stroke: #595959"/>
     <use xlink:href="#m8885aac340" x="99.47364" y="149.164037" style="fill: #595959; stroke: #595959"/>
     <use xlink:href="#m8885aac340" x="99.47364" y="149.164037" style="fill: #595959; stroke: #595959"/>
     <use xlink:href="#m8885aac340" x="99.47364" y="144.737638" style="fill: #595959; stroke: #595959"/>
    </g>
   </g>
   <g id="PathCollection_3">
    <g clip-path="url(#pf4dcfbaca6)">
     <use xlink:href="#m8885aac340" x="136.6019" y="71.702037" style="fill: #595959; stroke: #595959"/>
     <use xlink:href="#m8885aac340" x="136.6019" y="69.488837" style="fill: #595959; stroke: #595959"/>
     <use xlink:href="#m8885aac340" x="136.6019" y="78.341637" style="fill: #595959; stroke: #595959"/>
     <use xlink:href="#m8885aac340" x="136.6019" y="62.849237" style="fill: #595959; stroke: #595959"/>
     <use xlink:href="#m8885aac340" x="136.6019" y="60.636037" style="fill: #595959; stroke: #595959"/>
     <use xlink:href="#m8885aac340" x="136.6019" y="80.554837" style="fill: #595959; stroke: #595959"/>
     <use xlink:href="#m8885aac340" x="136.6019" y="71.702037" style="fill: #595959; stroke: #595959"/>
     <use xlink:href="#m8885aac340" x="136.6019" y="78.341637" style="fill: #595959; stroke: #595959"/>
     <use xlink:href="#m8885aac340" x="136.6019" y="60.636037" style="fill: #595959; stroke: #595959"/>
     <use xlink:href="#m8885aac340" x="136.6019" y="104.900037" style="fill: #595959; stroke: #595959"/>
     <use xlink:href="#m8885aac340" x="136.6019" y="76.128437" style="fill: #595959; stroke: #595959"/>
     <use xlink:href="#m8885aac340" x="136.6019" y="87.194437" style="fill: #595959; stroke: #595959"/>
     <use xlink:href="#m8885aac340" x="136.6019" y="65.062437" style="fill: #595959; stroke: #595959"/>
     <use xlink:href="#m8885aac340" x="136.6019" y="65.062437" style="fill: #595959; stroke: #595959"/>
     <use xlink:href="#m8885aac340" x="136.6019" y="80.554837" style="fill: #595959; stroke: #595959"/>
     <use xlink:href="#m8885aac340" x="136.6019" y="78.341637" style="fill: #595959; stroke: #595959"/>
     <use xlink:href="#m8885aac340" x="136.6019" y="69.488837" style="fill: #595959; stroke: #595959"/>
     <use xlink:href="#m8885aac340" x="136.6019" y="71.702037" style="fill: #595959; stroke: #595959"/>
     <use xlink:href="#m8885aac340" x="136.6019" y="60.636037" style="fill: #595959; stroke: #595959"/>
     <use xlink:href="#m8885aac340" x="136.6019" y="73.915237" style="fill: #595959; stroke: #595959"/>
    </g>
   </g>
   <g id="PathCollection_4">
    <g clip-path="url(#pf4dcfbaca6)">
     <use xlink:href="#m8885aac340" x="173.730161" y="29.651237" style="fill: #595959; stroke: #595959"/>
     <use xlink:href="#m8885aac340" x="173.730161" y="29.651237" style="fill: #595959; stroke: #595959"/>
     <use xlink:href="#m8885aac340" x="173.730161" y="25.224837" style="fill: #595959; stroke: #595959"/>
     <use xlink:href="#m8885aac340" x="173.730161" y="25.224837" style="fill: #595959; stroke: #595959"/>
     <use xlink:href="#m8885aac340" x="173.730161" y="29.651237" style="fill: #595959; stroke: #595959"/>
     <use xlink:href="#m8885aac340" x="173.730161" y="27.438037" style="fill: #595959; stroke: #595959"/>
     <use xlink:href="#m8885aac340" x="173.730161" y="25.224837" style="fill: #595959; stroke: #595959"/>
     <use xlink:href="#m8885aac340" x="173.730161" y="29.651237" style="fill: #595959; stroke: #595959"/>
     <use xlink:href="#m8885aac340" x="173.730161" y="31.864437" style="fill: #595959; stroke: #595959"/>
     <use xlink:href="#m8885aac340" x="173.730161" y="36.290837" style="fill: #595959; stroke: #595959"/>
     <use xlink:href="#m8885aac340" x="173.730161" y="31.864437" style="fill: #595959; stroke: #595959"/>
     <use xlink:href="#m8885aac340" x="173.730161" y="47.356837" style="fill: #595959; stroke: #595959"/>
     <use xlink:href="#m8885aac340" x="173.730161" y="23.011637" style="fill: #595959; stroke: #595959"/>
     <use xlink:href="#m8885aac340" x="173.730161" y="25.224837" style="fill: #595959; stroke: #595959"/>
     <use xlink:href="#m8885aac340" x="173.730161" y="23.011637" style="fill: #595959; stroke: #595959"/>
     <use xlink:href="#m8885aac340" x="173.730161" y="20.798437" style="fill: #595959; stroke: #595959"/>
     <use xlink:href="#m8885aac340" x="173.730161" y="29.651237" style="fill: #595959; stroke: #595959"/>
     <use xlink:href="#m8885aac340" x="173.730161" y="34.077637" style="fill: #595959; stroke: #595959"/>
     <use xlink:href="#m8885aac340" x="173.730161" y="27.438037" style="fill: #595959; stroke: #595959"/>
     <use xlink:href="#m8885aac340" x="173.730161" y="34.077638" style="fill: #595959; stroke: #595959"/>
    </g>
   </g>
   <g id="PathCollection_5">
    <g clip-path="url(#pf4dcfbaca6)">
     <use xlink:href="#m8885aac340" x="210.858421" y="60.636037" style="fill: #595959; stroke: #595959"/>
     <use xlink:href="#m8885aac340" x="210.858421" y="65.062437" style="fill: #595959; stroke: #595959"/>
     <use xlink:href="#m8885aac340" x="210.858421" y="91.620837" style="fill: #595959; stroke: #595959"/>
     <use xlink:href="#m8885aac340" x="210.858421" y="91.620837" style="fill: #595959; stroke: #595959"/>
     <use xlink:href="#m8885aac340" x="210.858421" y="87.194437" style="fill: #595959; stroke: #595959"/>
     <use xlink:href="#m8885aac340" x="210.858421" y="62.849237" style="fill: #595959; stroke: #595959"/>
     <use xlink:href="#m8885aac340" x="210.858421" y="78.341637" style="fill: #595959; stroke: #595959"/>
     <use xlink:href="#m8885aac340" x="210.858421" y="76.128437" style="fill: #595959; stroke: #595959"/>
     <use xlink:href="#m8885aac340" x="210.858421" y="78.341637" style="fill: #595959; stroke: #595959"/>
     <use xlink:href="#m8885aac340" x="210.858421" y="96.047237" style="fill: #595959; stroke: #595959"/>
     <use xlink:href="#m8885aac340" x="210.858421" y="71.702037" style="fill: #595959; stroke: #595959"/>
     <use xlink:href="#m8885aac340" x="210.858421" y="65.062437" style="fill: #595959; stroke: #595959"/>
     <use xlink:href="#m8885aac340" x="210.858421" y="67.275637" style="fill: #595959; stroke: #595959"/>
     <use xlink:href="#m8885aac340" x="210.858421" y="82.768037" style="fill: #595959; stroke: #595959"/>
     <use xlink:href="#m8885aac340" x="210.858421" y="67.275637" style="fill: #595959; stroke: #595959"/>
     <use xlink:href="#m8885aac340" x="210.858421" y="60.636037" style="fill: #595959; stroke: #595959"/>
     <use xlink:href="#m8885aac340" x="210.858421" y="89.407637" style="fill: #595959; stroke: #595959"/>
     <use xlink:href="#m8885aac340" x="210.858421" y="67.275637" style="fill: #595959; stroke: #595959"/>
     <use xlink:href="#m8885aac340" x="210.858421" y="62.849237" style="fill: #595959; stroke: #595959"/>
     <use xlink:href="#m8885aac340" x="210.858421" y="69.488837" style="fill: #595959; stroke: #595959"/>
    </g>
   </g>
   <g id="PathCollection_6">
    <g clip-path="url(#pf4dcfbaca6)">
     <use xlink:href="#m8885aac340" x="247.986681" y="60.636037" style="fill: #595959; stroke: #595959"/>
     <use xlink:href="#m8885aac340" x="247.986681" y="78.341637" style="fill: #595959; stroke: #595959"/>
     <use xlink:href="#m8885aac340" x="247.986681" y="107.113237" style="fill: #595959; stroke: #595959"/>
     <use xlink:href="#m8885aac340" x="247.986681" y="113.752837" style="fill: #595959; stroke: #595959"/>
     <use xlink:href="#m8885aac340" x="247.986681" y="111.539637" style="fill: #595959; stroke: #595959"/>
     <use xlink:href="#m8885aac340" x="247.986681" y="98.260437" style="fill: #595959; stroke: #595959"/>
     <use xlink:href="#m8885aac340" x="247.986681" y="67.275638" style="fill: #595959; stroke: #595959"/>
     <use xlink:href="#m8885aac340" x="247.986681" y="129.245237" style="fill: #595959; stroke: #595959"/>
     <use xlink:href="#m8885aac340" x="247.986681" y="104.900037" style="fill: #595959; stroke: #595959"/>
     <use xlink:href="#m8885aac340" x="247.986681" y="102.686837" style="fill: #595959; stroke: #595959"/>
     <use xlink:href="#m8885aac340" x="247.986681" y="82.768037" style="fill: #595959; stroke: #595959"/>
     <use xlink:href="#m8885aac340" x="247.986681" y="138.098037" style="fill: #595959; stroke: #595959"/>
     <use xlink:href="#m8885aac340" x="247.986681" y="100.473637" style="fill: #595959; stroke: #595959"/>
     <use xlink:href="#m8885aac340" x="247.986681" y="107.113237" style="fill: #595959; stroke: #595959"/>
     <use xlink:href="#m8885aac340" x="247.986681" y="91.620837" style="fill: #595959; stroke: #595959"/>
     <use xlink:href="#m8885aac340" x="247.986681" y="89.407637" style="fill: #595959; stroke: #595959"/>
     <use xlink:href="#m8885aac340" x="247.986681" y="80.554837" style="fill: #595959; stroke: #595959"/>
     <use xlink:href="#m8885aac340" x="247.986681" y="104.900037" style="fill: #595959; stroke: #595959"/>
     <use xlink:href="#m8885aac340" x="247.986681" y="89.407637" style="fill: #595959; stroke: #595959"/>
     <use xlink:href="#m8885aac340" x="247.986681" y="100.473637" style="fill: #595959; stroke: #595959"/>
    </g>
   </g>
   <g id="text_15">
    <!-- Rho = 0.4 -->
    <g transform="translate(273.08589 106.436563) rotate(-270) scale(0.1 -0.1)">
     <defs>
      <path id="DejaVuSans-52" d="M 2841 2188 
Q 3044 2119 3236 1894 
Q 3428 1669 3622 1275 
L 4263 0 
L 3584 0 
L 2988 1197 
Q 2756 1666 2539 1819 
Q 2322 1972 1947 1972 
L 1259 1972 
L 1259 0 
L 628 0 
L 628 4666 
L 2053 4666 
Q 2853 4666 3247 4331 
Q 3641 3997 3641 3322 
Q 3641 2881 3436 2590 
Q 3231 2300 2841 2188 
z
M 1259 4147 
L 1259 2491 
L 2053 2491 
Q 2509 2491 2742 2702 
Q 2975 2913 2975 3322 
Q 2975 3731 2742 3939 
Q 2509 4147 2053 4147 
L 1259 4147 
z
" transform="scale(0.015625)"/>
      <path id="DejaVuSans-68" d="M 3513 2113 
L 3513 0 
L 2938 0 
L 2938 2094 
Q 2938 2591 2744 2837 
Q 2550 3084 2163 3084 
Q 1697 3084 1428 2787 
Q 1159 2491 1159 1978 
L 1159 0 
L 581 0 
L 581 4863 
L 1159 4863 
L 1159 2956 
Q 1366 3272 1645 3428 
Q 1925 3584 2291 3584 
Q 2894 3584 3203 3211 
Q 3513 2838 3513 2113 
z
" transform="scale(0.015625)"/>
      <path id="DejaVuSans-6f" d="M 1959 3097 
Q 1497 3097 1228 2736 
Q 959 2375 959 1747 
Q 959 1119 1226 758 
Q 1494 397 1959 397 
Q 2419 397 2687 759 
Q 2956 1122 2956 1747 
Q 2956 2369 2687 2733 
Q 2419 3097 1959 3097 
z
M 1959 3584 
Q 2709 3584 3137 3096 
Q 3566 2609 3566 1747 
Q 3566 888 3137 398 
Q 2709 -91 1959 -91 
Q 1206 -91 779 398 
Q 353 888 353 1747 
Q 353 2609 779 3096 
Q 1206 3584 1959 3584 
z
" transform="scale(0.015625)"/>
      <path id="DejaVuSans-20" transform="scale(0.015625)"/>
      <path id="DejaVuSans-3d" d="M 678 2906 
L 4684 2906 
L 4684 2381 
L 678 2381 
L 678 2906 
z
M 678 1631 
L 4684 1631 
L 4684 1100 
L 678 1100 
L 678 1631 
z
" transform="scale(0.015625)"/>
     </defs>
     <use xlink:href="#DejaVuSans-52"/>
     <use xlink:href="#DejaVuSans-68" x="69.482422"/>
     <use xlink:href="#DejaVuSans-6f" x="132.861328"/>
     <use xlink:href="#DejaVuSans-20" x="194.042969"/>
     <use xlink:href="#DejaVuSans-3d" x="225.830078"/>
     <use xlink:href="#DejaVuSans-20" x="309.619141"/>
     <use xlink:href="#DejaVuSans-30" x="341.40625"/>
     <use xlink:href="#DejaVuSans-2e" x="405.029297"/>
     <use xlink:href="#DejaVuSans-34" x="436.816406"/>
    </g>
   </g>
   <g id="text_16">
    <!-- CNR_change = 1 -->
    <g transform="translate(113.008999 14.798437) scale(0.1 -0.1)">
     <defs>
      <path id="DejaVuSans-43" d="M 4122 4306 
L 4122 3641 
Q 3803 3938 3442 4084 
Q 3081 4231 2675 4231 
Q 1875 4231 1450 3742 
Q 1025 3253 1025 2328 
Q 1025 1406 1450 917 
Q 1875 428 2675 428 
Q 3081 428 3442 575 
Q 3803 722 4122 1019 
L 4122 359 
Q 3791 134 3420 21 
Q 3050 -91 2638 -91 
Q 1578 -91 968 557 
Q 359 1206 359 2328 
Q 359 3453 968 4101 
Q 1578 4750 2638 4750 
Q 3056 4750 3426 4639 
Q 3797 4528 4122 4306 
z
" transform="scale(0.015625)"/>
      <path id="DejaVuSans-4e" d="M 628 4666 
L 1478 4666 
L 3547 763 
L 3547 4666 
L 4159 4666 
L 4159 0 
L 3309 0 
L 1241 3903 
L 1241 0 
L 628 0 
L 628 4666 
z
" transform="scale(0.015625)"/>
      <path id="DejaVuSans-5f" d="M 3263 -1063 
L 3263 -1509 
L -63 -1509 
L -63 -1063 
L 3263 -1063 
z
" transform="scale(0.015625)"/>
      <path id="DejaVuSans-6e" d="M 3513 2113 
L 3513 0 
L 2938 0 
L 2938 2094 
Q 2938 2591 2744 2837 
Q 2550 3084 2163 3084 
Q 1697 3084 1428 2787 
Q 1159 2491 1159 1978 
L 1159 0 
L 581 0 
L 581 3500 
L 1159 3500 
L 1159 2956 
Q 1366 3272 1645 3428 
Q 1925 3584 2291 3584 
Q 2894 3584 3203 3211 
Q 3513 2838 3513 2113 
z
" transform="scale(0.015625)"/>
      <path id="DejaVuSans-67" d="M 2906 1791 
Q 2906 2416 2648 2759 
Q 2391 3103 1925 3103 
Q 1463 3103 1205 2759 
Q 947 2416 947 1791 
Q 947 1169 1205 825 
Q 1463 481 1925 481 
Q 2391 481 2648 825 
Q 2906 1169 2906 1791 
z
M 3481 434 
Q 3481 -459 3084 -895 
Q 2688 -1331 1869 -1331 
Q 1566 -1331 1297 -1286 
Q 1028 -1241 775 -1147 
L 775 -588 
Q 1028 -725 1275 -790 
Q 1522 -856 1778 -856 
Q 2344 -856 2625 -561 
Q 2906 -266 2906 331 
L 2906 616 
Q 2728 306 2450 153 
Q 2172 0 1784 0 
Q 1141 0 747 490 
Q 353 981 353 1791 
Q 353 2603 747 3093 
Q 1141 3584 1784 3584 
Q 2172 3584 2450 3431 
Q 2728 3278 2906 2969 
L 2906 3500 
L 3481 3500 
L 3481 434 
z
" transform="scale(0.015625)"/>
     </defs>
     <use xlink:href="#DejaVuSans-43"/>
     <use xlink:href="#DejaVuSans-4e" x="69.824219"/>
     <use xlink:href="#DejaVuSans-52" x="144.628906"/>
     <use xlink:href="#DejaVuSans-5f" x="214.111328"/>
     <use xlink:href="#DejaVuSans-63" x="264.111328"/>
     <use xlink:href="#DejaVuSans-68" x="319.091797"/>
     <use xlink:href="#DejaVuSans-61" x="382.470703"/>
     <use xlink:href="#DejaVuSans-6e" x="443.75"/>
     <use xlink:href="#DejaVuSans-67" x="507.128906"/>
     <use xlink:href="#DejaVuSans-65" x="570.605469"/>
     <use xlink:href="#DejaVuSans-20" x="632.128906"/>
     <use xlink:href="#DejaVuSans-3d" x="663.916016"/>
     <use xlink:href="#DejaVuSans-20" x="747.705078"/>
     <use xlink:href="#DejaVuSans-31" x="779.492188"/>
    </g>
   </g>
  </g>
  <g id="legend_1"/>
 </g>
 <defs>
  <clipPath id="pf4dcfbaca6">
   <rect x="43.78125" y="20.798437" width="222.769561" height="221.32"/>
  </clipPath>
 </defs>
</svg>
