<?xml version="1.0" encoding="utf-8" standalone="no"?>
<!DOCTYPE svg PUBLIC "-//W3C//DTD SVG 1.1//EN"
  "http://www.w3.org/Graphics/SVG/1.1/DTD/svg11.dtd">
<svg xmlns:xlink="http://www.w3.org/1999/xlink" width="294.17125pt" height="279.674688pt" viewBox="0 0 294.17125 279.674688" xmlns="http://www.w3.org/2000/svg" version="1.1">
 <metadata>
  <rdf:RDF xmlns:dc="http://purl.org/dc/elements/1.1/" xmlns:cc="http://creativecommons.org/ns#" xmlns:rdf="http://www.w3.org/1999/02/22-rdf-syntax-ns#">
   <cc:Work>
    <dc:type rdf:resource="http://purl.org/dc/dcmitype/StillImage"/>
    <dc:date>2025-08-25T17:08:48.596053</dc:date>
    <dc:format>image/svg+xml</dc:format>
    <dc:creator>
     <cc:Agent>
      <dc:title>Matplotlib v3.8.4, https://matplotlib.org/</dc:title>
     </cc:Agent>
    </dc:creator>
   </cc:Work>
  </rdf:RDF>
 </metadata>
 <defs>
  <style type="text/css">*{stroke-linejoin: round; stroke-linecap: butt}</style>
 </defs>
 <g id="figure_1">
  <g id="patch_1">
   <path d="M 0 279.674688 
L 294.17125 279.674688 
L 294.17125 0 
L 0 0 
z
" style="fill: #ffffff"/>
  </g>
  <g id="axes_1">
   <g id="patch_2">
    <path d="M 43.78125 242.118437 
L 266.550811 242.118437 
L 266.550811 20.798437 
L 43.78125 20.798437 
z
" style="fill: #ffffff"/>
   </g>
   <g id="PolyCollection_1">
    <defs>
     <path id="m706f40855c" d="M 62.532405 -93.823435 
L 62.158355 -93.823435 
L 62.107006 -94.832858 
L 62.045573 -95.84228 
L 61.973234 -96.851703 
L 61.889396 -97.861125 
L 61.793767 -98.870548 
L 61.686412 -99.87997 
L 61.567798 -100.889393 
L 61.438808 -101.898815 
L 61.300735 -102.908238 
L 61.155235 -103.91766 
L 61.004255 -104.927083 
L 60.849927 -105.936505 
L 60.694445 -106.945928 
L 60.539923 -107.95535 
L 60.388251 -108.964773 
L 60.240961 -109.974195 
L 60.099108 -110.983618 
L 59.963187 -111.99304 
L 59.833079 -113.002463 
L 59.708042 -114.011886 
L 59.586747 -115.021308 
L 59.467342 -116.030731 
L 59.347564 -117.040153 
L 59.224854 -118.049576 
L 59.096497 -119.058998 
L 58.959747 -120.068421 
L 58.811945 -121.077843 
L 58.650601 -122.087266 
L 58.473443 -123.096688 
L 58.278431 -124.106111 
L 58.063735 -125.115533 
L 57.827676 -126.124956 
L 57.568667 -127.134378 
L 57.285151 -128.143801 
L 56.975554 -129.153223 
L 56.638293 -130.162646 
L 56.271827 -131.172068 
L 55.87477 -132.181491 
L 55.446074 -133.190913 
L 54.985252 -134.200336 
L 54.492641 -135.209759 
L 53.969668 -136.219181 
L 53.419099 -137.228604 
L 52.845227 -138.238026 
L 52.25399 -139.247449 
L 51.652979 -140.256871 
L 51.051347 -141.266294 
L 50.4596 -142.275716 
L 49.889291 -143.285139 
L 49.352634 -144.294561 
L 48.862066 -145.303984 
L 48.429782 -146.313406 
L 48.067274 -147.322829 
L 47.784901 -148.332251 
L 47.591502 -149.341674 
L 47.494076 -150.351096 
L 47.497523 -151.360519 
L 47.604455 -152.369941 
L 47.815077 -153.379364 
L 48.127132 -154.388787 
L 48.535908 -155.398209 
L 49.034325 -156.407632 
L 49.613086 -157.417054 
L 50.260909 -158.426477 
L 50.964848 -159.435899 
L 51.710685 -160.445322 
L 52.483414 -161.454744 
L 53.267768 -162.464167 
L 54.0488 -163.473589 
L 54.81246 -164.483012 
L 55.54614 -165.492434 
L 56.239153 -166.501857 
L 56.88311 -167.511279 
L 57.472151 -168.520702 
L 58.003037 -169.530124 
L 58.47507 -170.539547 
L 58.889877 -171.548969 
L 59.251051 -172.558392 
L 59.563711 -173.567814 
L 59.833992 -174.577237 
L 60.068536 -175.58666 
L 60.273998 -176.596082 
L 60.456626 -177.605505 
L 60.621928 -178.614927 
L 60.774446 -179.62435 
L 60.91764 -180.633772 
L 61.053884 -181.643195 
L 61.184547 -182.652617 
L 61.310141 -183.66204 
L 61.430516 -184.671462 
L 61.545075 -185.680885 
L 61.652983 -186.690307 
L 61.753346 -187.69973 
L 61.845369 -188.709152 
L 61.928458 -189.718575 
L 62.002286 -190.727997 
L 62.066812 -191.73742 
L 62.122274 -192.746842 
L 62.169153 -193.756265 
L 62.521607 -193.756265 
L 62.521607 -193.756265 
L 62.568486 -192.746842 
L 62.623948 -191.73742 
L 62.688474 -190.727997 
L 62.762302 -189.718575 
L 62.845391 -188.709152 
L 62.937414 -187.69973 
L 63.037777 -186.690307 
L 63.145685 -185.680885 
L 63.260244 -184.671462 
L 63.380619 -183.66204 
L 63.506213 -182.652617 
L 63.636876 -181.643195 
L 63.77312 -180.633772 
L 63.916315 -179.62435 
L 64.068832 -178.614927 
L 64.234134 -177.605505 
L 64.416763 -176.596082 
L 64.622225 -175.58666 
L 64.856768 -174.577237 
L 65.12705 -173.567814 
L 65.439709 -172.558392 
L 65.800883 -171.548969 
L 66.21569 -170.539547 
L 66.687723 -169.530124 
L 67.218609 -168.520702 
L 67.80765 -167.511279 
L 68.451607 -166.501857 
L 69.144621 -165.492434 
L 69.8783 -164.483012 
L 70.64196 -163.473589 
L 71.422993 -162.464167 
L 72.207347 -161.454744 
L 72.980075 -160.445322 
L 73.725912 -159.435899 
L 74.429851 -158.426477 
L 75.077674 -157.417054 
L 75.656435 -156.407632 
L 76.154853 -155.398209 
L 76.563629 -154.388787 
L 76.875683 -153.379364 
L 77.086305 -152.369941 
L 77.193237 -151.360519 
L 77.196684 -150.351096 
L 77.099258 -149.341674 
L 76.905859 -148.332251 
L 76.623486 -147.322829 
L 76.260978 -146.313406 
L 75.828694 -145.303984 
L 75.338126 -144.294561 
L 74.80147 -143.285139 
L 74.23116 -142.275716 
L 73.639413 -141.266294 
L 73.037781 -140.256871 
L 72.43677 -139.247449 
L 71.845533 -138.238026 
L 71.271661 -137.228604 
L 70.721092 -136.219181 
L 70.19812 -135.209759 
L 69.705508 -134.200336 
L 69.244686 -133.190913 
L 68.81599 -132.181491 
L 68.418933 -131.172068 
L 68.052467 -130.162646 
L 67.715206 -129.153223 
L 67.405609 -128.143801 
L 67.122093 -127.134378 
L 66.863085 -126.124956 
L 66.627026 -125.115533 
L 66.412329 -124.106111 
L 66.217318 -123.096688 
L 66.040159 -122.087266 
L 65.878815 -121.077843 
L 65.731013 -120.068421 
L 65.594263 -119.058998 
L 65.465906 -118.049576 
L 65.343196 -117.040153 
L 65.223418 -116.030731 
L 65.104014 -115.021308 
L 64.982718 -114.011886 
L 64.857681 -113.002463 
L 64.727573 -111.99304 
L 64.591652 -110.983618 
L 64.4498 -109.974195 
L 64.302509 -108.964773 
L 64.150838 -107.95535 
L 63.996315 -106.945928 
L 63.840833 -105.936505 
L 63.686505 -104.927083 
L 63.535525 -103.91766 
L 63.390025 -102.908238 
L 63.251952 -101.898815 
L 63.122963 -100.889393 
L 63.004348 -99.87997 
L 62.896993 -98.870548 
L 62.801364 -97.861125 
L 62.717527 -96.851703 
L 62.645188 -95.84228 
L 62.583755 -94.832858 
L 62.532405 -93.823435 
z
" style="stroke: #595959; stroke-width: 1.25"/>
    </defs>
    <g clip-path="url(#pf085648cb6)">
     <use xlink:href="#m706f40855c" x="0" y="279.674688" style="fill: #72b6a1; stroke: #595959; stroke-width: 1.25"/>
    </g>
   </g>
   <g id="PolyCollection_2">
    <defs>
     <path id="m875cdb08f4" d="M 99.893958 -110.839844 
L 99.053323 -110.839844 
L 98.934625 -111.572567 
L 98.790024 -112.30529 
L 98.616087 -113.038014 
L 98.40949 -113.770737 
L 98.16717 -114.50346 
L 97.886485 -115.236184 
L 97.565374 -115.968907 
L 97.202507 -116.701631 
L 96.797408 -117.434354 
L 96.350549 -118.167077 
L 95.863391 -118.899801 
L 95.338384 -119.632524 
L 94.778907 -120.365247 
L 94.189175 -121.097971 
L 93.574093 -121.830694 
L 92.939098 -122.563417 
L 92.28999 -123.296141 
L 91.632773 -124.028864 
L 90.973523 -124.761587 
L 90.318288 -125.494311 
L 89.67303 -126.227034 
L 89.04361 -126.959758 
L 88.43579 -127.692481 
L 87.855255 -128.425204 
L 87.30762 -129.157928 
L 86.798407 -129.890651 
L 86.332978 -130.623374 
L 85.916394 -131.356098 
L 85.553227 -132.088821 
L 85.247302 -132.821544 
L 85.001411 -133.554268 
L 84.817015 -134.286991 
L 84.69398 -135.019715 
L 84.630368 -135.752438 
L 84.622336 -136.485161 
L 84.664163 -137.217885 
L 84.748417 -137.950608 
L 84.866275 -138.683331 
L 85.007973 -139.416055 
L 85.163378 -140.148778 
L 85.322618 -140.881501 
L 85.476747 -141.614225 
L 85.618382 -142.346948 
L 85.742254 -143.079672 
L 85.845647 -143.812395 
L 85.928658 -144.545118 
L 85.994274 -145.277842 
L 86.048241 -146.010565 
L 86.098735 -146.743288 
L 86.155843 -147.476012 
L 86.230897 -148.208735 
L 86.335701 -148.941458 
L 86.481701 -149.674182 
L 86.679169 -150.406905 
L 86.936443 -151.139628 
L 87.259297 -151.872352 
L 87.650472 -152.605075 
L 88.109414 -153.337799 
L 88.632225 -154.070522 
L 89.211844 -154.803245 
L 89.838422 -155.535969 
L 90.499885 -156.268692 
L 91.182616 -157.001415 
L 91.872215 -157.734139 
L 92.554292 -158.466862 
L 93.215211 -159.199585 
L 93.842766 -159.932309 
L 94.426728 -160.665032 
L 94.959241 -161.397756 
L 95.435058 -162.130479 
L 95.8516 -162.863202 
L 96.208868 -163.595926 
L 96.509205 -164.328649 
L 96.756951 -165.061372 
L 96.958014 -165.794096 
L 97.1194 -166.526819 
L 97.248721 -167.259542 
L 97.353725 -167.992266 
L 97.44187 -168.724989 
L 97.519958 -169.457713 
L 97.593856 -170.190436 
L 97.668303 -170.923159 
L 97.746806 -171.655883 
L 97.831627 -172.388606 
L 97.923845 -173.121329 
L 98.023485 -173.854053 
L 98.129694 -174.586776 
L 98.240944 -175.319499 
L 98.355258 -176.052223 
L 98.470416 -176.784946 
L 98.584156 -177.517669 
L 98.694342 -178.250393 
L 98.799088 -178.983116 
L 98.896856 -179.71584 
L 98.986503 -180.448563 
L 99.067293 -181.181286 
L 99.138886 -181.91401 
L 99.201296 -182.646733 
L 99.254834 -183.379456 
L 99.692447 -183.379456 
L 99.692447 -183.379456 
L 99.745985 -182.646733 
L 99.808395 -181.91401 
L 99.879988 -181.181286 
L 99.960778 -180.448563 
L 100.050424 -179.71584 
L 100.148192 -178.983116 
L 100.252939 -178.250393 
L 100.363124 -177.517669 
L 100.476865 -176.784946 
L 100.592022 -176.052223 
L 100.706336 -175.319499 
L 100.817587 -174.586776 
L 100.923796 -173.854053 
L 101.023436 -173.121329 
L 101.115654 -172.388606 
L 101.200475 -171.655883 
L 101.278977 -170.923159 
L 101.353424 -170.190436 
L 101.427323 -169.457713 
L 101.50541 -168.724989 
L 101.593555 -167.992266 
L 101.69856 -167.259542 
L 101.827881 -166.526819 
L 101.989267 -165.794096 
L 102.19033 -165.061372 
L 102.438075 -164.328649 
L 102.738412 -163.595926 
L 103.09568 -162.863202 
L 103.512223 -162.130479 
L 103.98804 -161.397756 
L 104.520553 -160.665032 
L 105.104515 -159.932309 
L 105.73207 -159.199585 
L 106.392989 -158.466862 
L 107.075065 -157.734139 
L 107.764665 -157.001415 
L 108.447395 -156.268692 
L 109.108859 -155.535969 
L 109.735437 -154.803245 
L 110.315055 -154.070522 
L 110.837866 -153.337799 
L 111.296808 -152.605075 
L 111.687984 -151.872352 
L 112.010838 -151.139628 
L 112.268112 -150.406905 
L 112.465579 -149.674182 
L 112.611579 -148.941458 
L 112.716383 -148.208735 
L 112.791437 -147.476012 
L 112.848546 -146.743288 
L 112.89904 -146.010565 
L 112.953007 -145.277842 
L 113.018623 -144.545118 
L 113.101633 -143.812395 
L 113.205026 -143.079672 
L 113.328899 -142.346948 
L 113.470533 -141.614225 
L 113.624663 -140.881501 
L 113.783902 -140.148778 
L 113.939307 -139.416055 
L 114.081006 -138.683331 
L 114.198863 -137.950608 
L 114.283117 -137.217885 
L 114.324944 -136.485161 
L 114.316913 -135.752438 
L 114.2533 -135.019715 
L 114.130265 -134.286991 
L 113.94587 -133.554268 
L 113.699979 -132.821544 
L 113.394054 -132.088821 
L 113.030887 -131.356098 
L 112.614303 -130.623374 
L 112.148873 -129.890651 
L 111.639661 -129.157928 
L 111.092026 -128.425204 
L 110.511491 -127.692481 
L 109.903671 -126.959758 
L 109.274251 -126.227034 
L 108.628993 -125.494311 
L 107.973757 -124.761587 
L 107.314507 -124.028864 
L 106.657291 -123.296141 
L 106.008183 -122.563417 
L 105.373187 -121.830694 
L 104.758105 -121.097971 
L 104.168373 -120.365247 
L 103.608897 -119.632524 
L 103.083889 -118.899801 
L 102.596731 -118.167077 
L 102.149872 -117.434354 
L 101.744774 -116.701631 
L 101.381907 -115.968907 
L 101.060796 -115.236184 
L 100.780111 -114.50346 
L 100.537791 -113.770737 
L 100.331194 -113.038014 
L 100.157257 -112.30529 
L 100.012656 -111.572567 
L 99.893958 -110.839844 
z
" style="stroke: #595959; stroke-width: 1.25"/>
    </defs>
    <g clip-path="url(#pf085648cb6)">
     <use xlink:href="#m875cdb08f4" x="0" y="279.674688" style="fill: #e99675; stroke: #595959; stroke-width: 1.25"/>
    </g>
   </g>
   <g id="PolyCollection_3">
    <defs>
     <path id="md0872c8880" d="M 136.836685 -99.938471 
L 136.367116 -99.938471 
L 136.304149 -101.025557 
L 136.228034 -102.112644 
L 136.136981 -103.19973 
L 136.029153 -104.286817 
L 135.902686 -105.373903 
L 135.755715 -106.46099 
L 135.586396 -107.548076 
L 135.392924 -108.635162 
L 135.17354 -109.722249 
L 134.926549 -110.809335 
L 134.650324 -111.896422 
L 134.343323 -112.983508 
L 134.004111 -114.070595 
L 133.631397 -115.157681 
L 133.22409 -116.244768 
L 132.781379 -117.331854 
L 132.302836 -118.41894 
L 131.788545 -119.506027 
L 131.239239 -120.593113 
L 130.656464 -121.6802 
L 130.042725 -122.767286 
L 129.401619 -123.854373 
L 128.737947 -124.941459 
L 128.057754 -126.028546 
L 127.36833 -127.115632 
L 126.678117 -128.202718 
L 125.996544 -129.289805 
L 125.333775 -130.376891 
L 124.70039 -131.463978 
L 124.106992 -132.551064 
L 123.563783 -133.638151 
L 123.080123 -134.725237 
L 122.664094 -135.812324 
L 122.322124 -136.89941 
L 122.058663 -137.986497 
L 121.87598 -139.073583 
L 121.774052 -140.160669 
L 121.750596 -141.247756 
L 121.801222 -142.334842 
L 121.919696 -143.421929 
L 122.09831 -144.509015 
L 122.328316 -145.596102 
L 122.600396 -146.683188 
L 122.905145 -147.770275 
L 123.233511 -148.857361 
L 123.577177 -149.944447 
L 123.928865 -151.031534 
L 124.282527 -152.11862 
L 124.633446 -153.205707 
L 124.978223 -154.292793 
L 125.314688 -155.37988 
L 125.641742 -156.466966 
L 125.959158 -157.554053 
L 126.267362 -158.641139 
L 126.567226 -159.728225 
L 126.859881 -160.815312 
L 127.146568 -161.902398 
L 127.42853 -162.989485 
L 127.706948 -164.076571 
L 127.982902 -165.163658 
L 128.257361 -166.250744 
L 128.531186 -167.337831 
L 128.80513 -168.424917 
L 129.079838 -169.512003 
L 129.35583 -170.59909 
L 129.633483 -171.686176 
L 129.913002 -172.773263 
L 130.194394 -173.860349 
L 130.477448 -174.947436 
L 130.761737 -176.034522 
L 131.04662 -177.121609 
L 131.331286 -178.208695 
L 131.61479 -179.295782 
L 131.896123 -180.382868 
L 132.174267 -181.469954 
L 132.448253 -182.557041 
L 132.717211 -183.644127 
L 132.980393 -184.731214 
L 133.237183 -185.8183 
L 133.487083 -186.905387 
L 133.729688 -187.992473 
L 133.964644 -189.07956 
L 134.191608 -190.166646 
L 134.41021 -191.253732 
L 134.620027 -192.340819 
L 134.820568 -193.427905 
L 135.011285 -194.514992 
L 135.191588 -195.602078 
L 135.360883 -196.689165 
L 135.518616 -197.776251 
L 135.664317 -198.863338 
L 135.797648 -199.950424 
L 135.918434 -201.03751 
L 136.026692 -202.124597 
L 136.122638 -203.211683 
L 136.206687 -204.29877 
L 136.279434 -205.385856 
L 136.341627 -206.472943 
L 136.394133 -207.560029 
L 136.809668 -207.560029 
L 136.809668 -207.560029 
L 136.862174 -206.472943 
L 136.924367 -205.385856 
L 136.997114 -204.29877 
L 137.081163 -203.211683 
L 137.177109 -202.124597 
L 137.285367 -201.03751 
L 137.406153 -199.950424 
L 137.539484 -198.863338 
L 137.685185 -197.776251 
L 137.842918 -196.689165 
L 138.012213 -195.602078 
L 138.192516 -194.514992 
L 138.383233 -193.427905 
L 138.583774 -192.340819 
L 138.793591 -191.253732 
L 139.012193 -190.166646 
L 139.239157 -189.07956 
L 139.474113 -187.992473 
L 139.716718 -186.905387 
L 139.966618 -185.8183 
L 140.223408 -184.731214 
L 140.48659 -183.644127 
L 140.755548 -182.557041 
L 141.029534 -181.469954 
L 141.307678 -180.382868 
L 141.589011 -179.295782 
L 141.872515 -178.208695 
L 142.157181 -177.121609 
L 142.442064 -176.034522 
L 142.726352 -174.947436 
L 143.009407 -173.860349 
L 143.290799 -172.773263 
L 143.570317 -171.686176 
L 143.84797 -170.59909 
L 144.123963 -169.512003 
L 144.398671 -168.424917 
L 144.672615 -167.337831 
L 144.94644 -166.250744 
L 145.220899 -165.163658 
L 145.496853 -164.076571 
L 145.775271 -162.989485 
L 146.057233 -161.902398 
L 146.34392 -160.815312 
L 146.636575 -159.728225 
L 146.936439 -158.641139 
L 147.244643 -157.554053 
L 147.562059 -156.466966 
L 147.889113 -155.37988 
L 148.225578 -154.292793 
L 148.570355 -153.205707 
L 148.921274 -152.11862 
L 149.274936 -151.031534 
L 149.626624 -149.944447 
L 149.97029 -148.857361 
L 150.298656 -147.770275 
L 150.603405 -146.683188 
L 150.875485 -145.596102 
L 151.105491 -144.509015 
L 151.284105 -143.421929 
L 151.402579 -142.334842 
L 151.453205 -141.247756 
L 151.429749 -140.160669 
L 151.327821 -139.073583 
L 151.145137 -137.986497 
L 150.881677 -136.89941 
L 150.539707 -135.812324 
L 150.123678 -134.725237 
L 149.640017 -133.638151 
L 149.096809 -132.551064 
L 148.503411 -131.463978 
L 147.870026 -130.376891 
L 147.207257 -129.289805 
L 146.525684 -128.202718 
L 145.835471 -127.115632 
L 145.146047 -126.028546 
L 144.465854 -124.941459 
L 143.802181 -123.854373 
L 143.161076 -122.767286 
L 142.547337 -121.6802 
L 141.964562 -120.593113 
L 141.415256 -119.506027 
L 140.900964 -118.41894 
L 140.422422 -117.331854 
L 139.979711 -116.244768 
L 139.572404 -115.157681 
L 139.19969 -114.070595 
L 138.860478 -112.983508 
L 138.553477 -111.896422 
L 138.277252 -110.809335 
L 138.030261 -109.722249 
L 137.810877 -108.635162 
L 137.617404 -107.548076 
L 137.448086 -106.46099 
L 137.301115 -105.373903 
L 137.174648 -104.286817 
L 137.06682 -103.19973 
L 136.975767 -102.112644 
L 136.899652 -101.025557 
L 136.836685 -99.938471 
z
" style="stroke: #595959; stroke-width: 1.25"/>
    </defs>
    <g clip-path="url(#pf085648cb6)">
     <use xlink:href="#md0872c8880" x="0" y="279.674688" style="fill: #95a3c3; stroke: #595959; stroke-width: 1.25"/>
    </g>
   </g>
   <g id="PolyCollection_4">
    <defs>
     <path id="ma0f1b22cfb" d="M 173.892209 -85.01662 
L 173.568112 -85.01662 
L 173.523094 -86.069825 
L 173.469655 -87.123029 
L 173.407461 -88.176234 
L 173.336523 -89.229438 
L 173.257265 -90.282643 
L 173.17057 -91.335848 
L 173.077787 -92.389052 
L 172.980705 -93.442257 
L 172.881474 -94.495462 
L 172.782489 -95.548666 
L 172.686233 -96.601871 
L 172.5951 -97.655076 
L 172.511216 -98.70828 
L 172.436268 -99.761485 
L 172.371374 -100.81469 
L 172.317008 -101.867894 
L 172.272986 -102.921099 
L 172.23852 -103.974304 
L 172.21233 -105.027508 
L 172.192807 -106.080713 
L 172.178191 -107.133918 
L 172.166736 -108.187122 
L 172.156846 -109.240327 
L 172.147149 -110.293531 
L 172.136484 -111.346736 
L 172.12381 -112.399941 
L 172.108044 -113.453145 
L 172.087827 -114.50635 
L 172.061278 -115.559555 
L 172.025752 -116.612759 
L 171.977646 -117.665964 
L 171.912298 -118.719169 
L 171.823989 -119.772373 
L 171.70609 -120.825578 
L 171.551331 -121.878783 
L 171.352195 -122.931987 
L 171.101405 -123.985192 
L 170.79246 -125.038397 
L 170.420183 -126.091601 
L 169.981214 -127.144806 
L 169.474425 -128.19801 
L 168.901197 -129.251215 
L 168.26554 -130.30442 
L 167.574059 -131.357624 
L 166.835752 -132.410829 
L 166.061683 -133.464034 
L 165.264553 -134.517238 
L 164.458223 -135.570443 
L 163.657226 -136.623648 
L 162.87631 -137.676852 
L 162.130035 -138.730057 
L 161.432449 -139.783262 
L 160.796821 -140.836466 
L 160.235434 -141.889671 
L 159.759398 -142.942876 
L 159.378465 -143.99608 
L 159.100823 -145.049285 
L 158.932851 -146.10249 
L 158.878857 -147.155694 
L 158.940795 -148.208899 
L 159.118023 -149.262103 
L 159.407122 -150.315308 
L 159.801823 -151.368513 
L 160.293079 -152.421717 
L 160.869308 -153.474922 
L 161.516785 -154.528127 
L 162.22019 -155.581331 
L 162.96326 -156.634536 
L 163.7295 -157.687741 
L 164.502896 -158.740945 
L 165.268581 -159.79415 
L 166.013398 -160.847355 
L 166.726338 -161.900559 
L 167.39881 -162.953764 
L 168.024761 -164.006969 
L 168.600634 -165.060173 
L 169.125191 -166.113378 
L 169.599217 -167.166582 
L 170.025157 -168.219787 
L 170.406687 -169.272992 
L 170.74828 -170.326196 
L 171.054789 -171.379401 
L 171.331063 -172.432606 
L 171.581634 -173.48581 
L 171.810483 -174.539015 
L 172.020887 -175.59222 
L 172.215362 -176.645424 
L 172.395674 -177.698629 
L 172.562924 -178.751834 
L 172.717675 -179.805038 
L 172.860111 -180.858243 
L 172.990194 -181.911448 
L 173.107818 -182.964652 
L 173.212938 -184.017857 
L 173.305655 -185.071062 
L 173.386274 -186.124266 
L 173.455325 -187.177471 
L 173.513544 -188.230675 
L 173.561843 -189.28388 
L 173.898478 -189.28388 
L 173.898478 -189.28388 
L 173.946777 -188.230675 
L 174.004996 -187.177471 
L 174.074047 -186.124266 
L 174.154667 -185.071062 
L 174.247383 -184.017857 
L 174.352503 -182.964652 
L 174.470128 -181.911448 
L 174.60021 -180.858243 
L 174.742646 -179.805038 
L 174.897398 -178.751834 
L 175.064648 -177.698629 
L 175.24496 -176.645424 
L 175.439434 -175.59222 
L 175.649839 -174.539015 
L 175.878687 -173.48581 
L 176.129258 -172.432606 
L 176.405532 -171.379401 
L 176.712041 -170.326196 
L 177.053635 -169.272992 
L 177.435164 -168.219787 
L 177.861104 -167.166582 
L 178.335131 -166.113378 
L 178.859687 -165.060173 
L 179.435561 -164.006969 
L 180.061512 -162.953764 
L 180.733984 -161.900559 
L 181.446923 -160.847355 
L 182.191741 -159.79415 
L 182.957425 -158.740945 
L 183.730821 -157.687741 
L 184.497061 -156.634536 
L 185.240131 -155.581331 
L 185.943537 -154.528127 
L 186.591014 -153.474922 
L 187.167242 -152.421717 
L 187.658499 -151.368513 
L 188.053199 -150.315308 
L 188.342298 -149.262103 
L 188.519527 -148.208899 
L 188.581465 -147.155694 
L 188.52747 -146.10249 
L 188.359498 -145.049285 
L 188.081856 -143.99608 
L 187.700923 -142.942876 
L 187.224887 -141.889671 
L 186.6635 -140.836466 
L 186.027872 -139.783262 
L 185.330286 -138.730057 
L 184.584011 -137.676852 
L 183.803095 -136.623648 
L 183.002098 -135.570443 
L 182.195768 -134.517238 
L 181.398638 -133.464034 
L 180.624569 -132.410829 
L 179.886262 -131.357624 
L 179.194781 -130.30442 
L 178.559125 -129.251215 
L 177.985896 -128.19801 
L 177.479107 -127.144806 
L 177.040139 -126.091601 
L 176.667861 -125.038397 
L 176.358916 -123.985192 
L 176.108126 -122.931987 
L 175.908991 -121.878783 
L 175.754232 -120.825578 
L 175.636333 -119.772373 
L 175.548024 -118.719169 
L 175.482675 -117.665964 
L 175.43457 -116.612759 
L 175.399044 -115.559555 
L 175.372495 -114.50635 
L 175.352278 -113.453145 
L 175.336511 -112.399941 
L 175.323838 -111.346736 
L 175.313172 -110.293531 
L 175.303475 -109.240327 
L 175.293586 -108.187122 
L 175.28213 -107.133918 
L 175.267514 -106.080713 
L 175.247992 -105.027508 
L 175.221802 -103.974304 
L 175.187335 -102.921099 
L 175.143313 -101.867894 
L 175.088947 -100.81469 
L 175.024054 -99.761485 
L 174.949105 -98.70828 
L 174.865221 -97.655076 
L 174.774089 -96.601871 
L 174.677832 -95.548666 
L 174.578847 -94.495462 
L 174.479616 -93.442257 
L 174.382534 -92.389052 
L 174.289751 -91.335848 
L 174.203056 -90.282643 
L 174.123798 -89.229438 
L 174.05286 -88.176234 
L 173.990667 -87.123029 
L 173.937228 -86.069825 
L 173.892209 -85.01662 
z
" style="stroke: #595959; stroke-width: 1.25"/>
    </defs>
    <g clip-path="url(#pf085648cb6)">
     <use xlink:href="#ma0f1b22cfb" x="0" y="279.674688" style="fill: #db96c0; stroke: #595959; stroke-width: 1.25"/>
    </g>
   </g>
   <g id="PolyCollection_5">
    <defs>
     <path id="m47ba1e862d" d="M 211.354772 -152.129377 
L 210.36207 -152.129377 
L 210.228542 -152.788057 
L 210.067898 -153.446737 
L 209.877034 -154.105418 
L 209.65305 -154.764098 
L 209.393389 -155.422778 
L 209.095976 -156.081458 
L 208.759346 -156.740139 
L 208.382769 -157.398819 
L 207.966342 -158.057499 
L 207.511065 -158.716179 
L 207.018882 -159.37486 
L 206.492688 -160.03354 
L 205.93631 -160.69222 
L 205.354443 -161.350901 
L 204.752572 -162.009581 
L 204.136848 -162.668261 
L 203.51395 -163.326941 
L 202.890917 -163.985622 
L 202.274953 -164.644302 
L 201.673222 -165.302982 
L 201.092612 -165.961662 
L 200.5395 -166.620343 
L 200.019511 -167.279023 
L 199.537283 -167.937703 
L 199.096263 -168.596383 
L 198.698545 -169.255064 
L 198.344763 -169.913744 
L 198.034062 -170.572424 
L 197.764161 -171.231105 
L 197.531502 -171.889785 
L 197.331495 -172.548465 
L 197.15885 -173.207145 
L 197.007966 -173.865826 
L 196.873363 -174.524506 
L 196.750125 -175.183186 
L 196.634308 -175.841866 
L 196.523299 -176.500547 
L 196.416077 -177.159227 
L 196.313365 -177.817907 
L 196.217654 -178.476587 
L 196.133097 -179.135268 
L 196.065269 -179.793948 
L 196.020835 -180.452628 
L 196.007117 -181.111309 
L 196.031628 -181.769989 
L 196.101579 -182.428669 
L 196.223417 -183.087349 
L 196.402406 -183.74603 
L 196.642296 -184.40471 
L 196.945089 -185.06339 
L 197.310911 -185.72207 
L 197.737993 -186.380751 
L 198.222745 -187.039431 
L 198.759929 -187.698111 
L 199.342879 -188.356791 
L 199.963773 -189.015472 
L 200.613931 -189.674152 
L 201.28411 -190.332832 
L 201.964795 -190.991513 
L 202.646469 -191.650193 
L 203.319862 -192.308873 
L 203.976174 -192.967553 
L 204.607276 -193.626234 
L 205.205888 -194.284914 
L 205.765737 -194.943594 
L 206.281693 -195.602274 
L 206.749886 -196.260955 
L 207.16779 -196.919635 
L 207.534275 -197.578315 
L 207.849622 -198.236995 
L 208.115484 -198.895676 
L 208.334806 -199.554356 
L 208.51168 -200.213036 
L 208.651163 -200.871717 
L 208.759036 -201.530397 
L 208.841546 -202.189077 
L 208.905114 -202.847757 
L 208.956042 -203.506438 
L 209.000242 -204.165118 
L 209.042985 -204.823798 
L 209.088703 -205.482478 
L 209.140843 -206.141159 
L 209.201791 -206.799839 
L 209.272861 -207.458519 
L 209.354348 -208.117199 
L 209.445635 -208.77588 
L 209.545352 -209.43456 
L 209.65156 -210.09324 
L 209.761947 -210.751921 
L 209.874029 -211.410601 
L 209.985334 -212.069281 
L 210.093557 -212.727961 
L 210.196684 -213.386642 
L 210.293075 -214.045322 
L 210.381514 -214.704002 
L 210.461213 -215.362682 
L 210.531798 -216.021363 
L 210.593264 -216.680043 
L 210.645913 -217.338723 
L 211.070929 -217.338723 
L 211.070929 -217.338723 
L 211.123577 -216.680043 
L 211.185043 -216.021363 
L 211.255629 -215.362682 
L 211.335328 -214.704002 
L 211.423766 -214.045322 
L 211.520158 -213.386642 
L 211.623284 -212.727961 
L 211.731508 -212.069281 
L 211.842813 -211.410601 
L 211.954895 -210.751921 
L 212.065282 -210.09324 
L 212.171489 -209.43456 
L 212.271207 -208.77588 
L 212.362494 -208.117199 
L 212.44398 -207.458519 
L 212.515051 -206.799839 
L 212.575999 -206.141159 
L 212.628139 -205.482478 
L 212.673857 -204.823798 
L 212.7166 -204.165118 
L 212.7608 -203.506438 
L 212.811728 -202.847757 
L 212.875295 -202.189077 
L 212.957806 -201.530397 
L 213.065679 -200.871717 
L 213.205161 -200.213036 
L 213.382036 -199.554356 
L 213.601357 -198.895676 
L 213.86722 -198.236995 
L 214.182567 -197.578315 
L 214.549052 -196.919635 
L 214.966955 -196.260955 
L 215.435148 -195.602274 
L 215.951105 -194.943594 
L 216.510953 -194.284914 
L 217.109565 -193.626234 
L 217.740668 -192.967553 
L 218.39698 -192.308873 
L 219.070372 -191.650193 
L 219.752046 -190.991513 
L 220.432731 -190.332832 
L 221.102911 -189.674152 
L 221.753069 -189.015472 
L 222.373963 -188.356791 
L 222.956912 -187.698111 
L 223.494096 -187.039431 
L 223.978849 -186.380751 
L 224.40593 -185.72207 
L 224.771753 -185.06339 
L 225.074546 -184.40471 
L 225.314436 -183.74603 
L 225.493424 -183.087349 
L 225.615262 -182.428669 
L 225.685214 -181.769989 
L 225.709725 -181.111309 
L 225.696007 -180.452628 
L 225.651572 -179.793948 
L 225.583745 -179.135268 
L 225.499187 -178.476587 
L 225.403477 -177.817907 
L 225.300765 -177.159227 
L 225.193543 -176.500547 
L 225.082534 -175.841866 
L 224.966717 -175.183186 
L 224.843478 -174.524506 
L 224.708876 -173.865826 
L 224.557991 -173.207145 
L 224.385346 -172.548465 
L 224.18534 -171.889785 
L 223.95268 -171.231105 
L 223.682779 -170.572424 
L 223.372079 -169.913744 
L 223.018296 -169.255064 
L 222.620578 -168.596383 
L 222.179559 -167.937703 
L 221.69733 -167.279023 
L 221.177341 -166.620343 
L 220.62423 -165.961662 
L 220.04362 -165.302982 
L 219.441889 -164.644302 
L 218.825925 -163.985622 
L 218.202892 -163.326941 
L 217.579994 -162.668261 
L 216.96427 -162.009581 
L 216.362398 -161.350901 
L 215.780532 -160.69222 
L 215.224153 -160.03354 
L 214.69796 -159.37486 
L 214.205776 -158.716179 
L 213.750499 -158.057499 
L 213.334072 -157.398819 
L 212.957495 -156.740139 
L 212.620866 -156.081458 
L 212.323453 -155.422778 
L 212.063792 -154.764098 
L 211.839808 -154.105418 
L 211.648944 -153.446737 
L 211.4883 -152.788057 
L 211.354772 -152.129377 
z
" style="stroke: #595959; stroke-width: 1.25"/>
    </defs>
    <g clip-path="url(#pf085648cb6)">
     <use xlink:href="#m47ba1e862d" x="0" y="279.674688" style="fill: #a2c865; stroke: #595959; stroke-width: 1.25"/>
    </g>
   </g>
   <g id="PolyCollection_6">
    <defs>
     <path id="me872d5d9c4" d="M 248.179793 -164.139076 
L 247.793569 -164.139076 
L 247.742868 -165.13638 
L 247.682618 -166.133685 
L 247.612074 -167.130989 
L 247.530703 -168.128294 
L 247.438245 -169.125598 
L 247.33478 -170.122903 
L 247.220772 -171.120207 
L 247.097104 -172.117512 
L 246.96509 -173.114816 
L 246.826459 -174.112121 
L 246.683319 -175.109425 
L 246.538088 -176.10673 
L 246.393402 -177.104034 
L 246.252001 -178.101339 
L 246.116594 -179.098644 
L 245.989723 -180.095948 
L 245.873608 -181.093253 
L 245.770006 -182.090557 
L 245.680073 -183.087862 
L 245.604249 -184.085166 
L 245.542157 -185.082471 
L 245.492542 -186.079775 
L 245.453235 -187.07708 
L 245.421167 -188.074384 
L 245.392421 -189.071689 
L 245.362334 -190.068993 
L 245.32565 -191.066298 
L 245.276714 -192.063602 
L 245.209711 -193.060907 
L 245.11893 -194.058212 
L 244.999052 -195.055516 
L 244.845431 -196.052821 
L 244.654364 -197.050125 
L 244.423308 -198.04743 
L 244.151053 -199.044734 
L 243.837805 -200.042039 
L 243.485189 -201.039343 
L 243.096155 -202.036648 
L 242.674797 -203.033952 
L 242.226092 -204.031257 
L 241.755578 -205.028561 
L 241.269012 -206.025866 
L 240.772009 -207.023171 
L 240.269727 -208.020475 
L 239.766606 -209.01778 
L 239.2662 -210.015084 
L 238.771108 -211.012389 
L 238.283027 -212.009693 
L 237.802908 -213.006998 
L 237.331213 -214.004302 
L 236.868247 -215.001607 
L 236.414518 -215.998911 
L 235.971119 -216.996216 
L 235.540052 -217.99352 
L 235.124498 -218.990825 
L 234.728971 -219.988129 
L 234.359355 -220.985434 
L 234.022798 -221.982739 
L 233.727476 -222.980043 
L 233.482231 -223.977348 
L 233.296116 -224.974652 
L 233.177872 -225.971957 
L 233.135377 -226.969261 
L 233.175123 -227.966566 
L 233.301738 -228.96387 
L 233.517615 -229.961175 
L 233.822657 -230.958479 
L 234.214176 -231.955784 
L 234.686936 -232.953088 
L 235.233353 -233.950393 
L 235.843824 -234.947698 
L 236.507163 -235.945002 
L 237.211119 -236.942307 
L 237.942918 -237.939611 
L 238.689815 -238.936916 
L 239.439595 -239.93422 
L 240.181013 -240.931525 
L 240.904135 -241.928829 
L 241.60057 -242.926134 
L 242.263592 -243.923438 
L 242.888162 -244.920743 
L 243.470845 -245.918047 
L 244.009671 -246.915352 
L 244.503933 -247.912656 
L 244.953968 -248.909961 
L 245.36093 -249.907266 
L 245.726573 -250.90457 
L 246.053067 -251.901875 
L 246.342836 -252.899179 
L 246.598442 -253.896484 
L 246.822493 -254.893788 
L 247.017588 -255.891093 
L 247.186276 -256.888397 
L 247.331033 -257.885702 
L 247.454251 -258.883006 
L 247.55823 -259.880311 
L 247.645164 -260.877615 
L 247.717139 -261.87492 
L 247.776115 -262.872224 
L 248.197247 -262.872224 
L 248.197247 -262.872224 
L 248.256223 -261.87492 
L 248.328198 -260.877615 
L 248.415133 -259.880311 
L 248.519111 -258.883006 
L 248.642329 -257.885702 
L 248.787086 -256.888397 
L 248.955774 -255.891093 
L 249.150869 -254.893788 
L 249.374921 -253.896484 
L 249.630526 -252.899179 
L 249.920295 -251.901875 
L 250.246789 -250.90457 
L 250.612432 -249.907266 
L 251.019394 -248.909961 
L 251.469429 -247.912656 
L 251.963691 -246.915352 
L 252.502517 -245.918047 
L 253.0852 -244.920743 
L 253.70977 -243.923438 
L 254.372792 -242.926134 
L 255.069227 -241.928829 
L 255.792349 -240.931525 
L 256.533767 -239.93422 
L 257.283547 -238.936916 
L 258.030444 -237.939611 
L 258.762243 -236.942307 
L 259.466199 -235.945002 
L 260.129538 -234.947698 
L 260.740009 -233.950393 
L 261.286426 -232.953088 
L 261.759186 -231.955784 
L 262.150705 -230.958479 
L 262.455747 -229.961175 
L 262.671624 -228.96387 
L 262.798239 -227.966566 
L 262.837985 -226.969261 
L 262.79549 -225.971957 
L 262.677246 -224.974652 
L 262.491131 -223.977348 
L 262.245886 -222.980043 
L 261.950564 -221.982739 
L 261.614007 -220.985434 
L 261.244391 -219.988129 
L 260.848864 -218.990825 
L 260.43331 -217.99352 
L 260.002243 -216.996216 
L 259.558844 -215.998911 
L 259.105116 -215.001607 
L 258.642149 -214.004302 
L 258.170454 -213.006998 
L 257.690335 -212.009693 
L 257.202254 -211.012389 
L 256.707162 -210.015084 
L 256.206756 -209.01778 
L 255.703635 -208.020475 
L 255.201353 -207.023171 
L 254.70435 -206.025866 
L 254.217784 -205.028561 
L 253.747271 -204.031257 
L 253.298565 -203.033952 
L 252.877207 -202.036648 
L 252.488173 -201.039343 
L 252.135557 -200.042039 
L 251.822309 -199.044734 
L 251.550054 -198.04743 
L 251.318998 -197.050125 
L 251.127931 -196.052821 
L 250.97431 -195.055516 
L 250.854432 -194.058212 
L 250.763651 -193.060907 
L 250.696648 -192.063602 
L 250.647712 -191.066298 
L 250.611028 -190.068993 
L 250.580941 -189.071689 
L 250.552195 -188.074384 
L 250.520127 -187.07708 
L 250.48082 -186.079775 
L 250.431205 -185.082471 
L 250.369113 -184.085166 
L 250.293289 -183.087862 
L 250.203356 -182.090557 
L 250.099754 -181.093253 
L 249.983639 -180.095948 
L 249.856768 -179.098644 
L 249.721361 -178.101339 
L 249.57996 -177.104034 
L 249.435274 -176.10673 
L 249.290043 -175.109425 
L 249.146903 -174.112121 
L 249.008272 -173.114816 
L 248.876258 -172.117512 
L 248.75259 -171.120207 
L 248.638582 -170.122903 
L 248.535117 -169.125598 
L 248.442659 -168.128294 
L 248.361288 -167.130989 
L 248.290744 -166.133685 
L 248.230494 -165.13638 
L 248.179793 -164.139076 
z
" style="stroke: #595959; stroke-width: 1.25"/>
    </defs>
    <g clip-path="url(#pf085648cb6)">
     <use xlink:href="#me872d5d9c4" x="0" y="279.674688" style="fill: #e5c849; stroke: #595959; stroke-width: 1.25"/>
    </g>
   </g>
   <g id="matplotlib.axis_1">
    <g id="xtick_1">
     <g id="line2d_1">
      <defs>
       <path id="m480995678e" d="M 0 0 
L 0 3.5 
" style="stroke: #000000; stroke-width: 0.8"/>
      </defs>
      <g>
       <use xlink:href="#m480995678e" x="62.34538" y="242.118437" style="stroke: #000000; stroke-width: 0.8"/>
      </g>
     </g>
     <g id="text_1">
      <!-- 1 -->
      <g transform="translate(59.16413 256.716875) scale(0.1 -0.1)">
       <defs>
        <path id="DejaVuSans-31" d="M 794 531 
L 1825 531 
L 1825 4091 
L 703 3866 
L 703 4441 
L 1819 4666 
L 2450 4666 
L 2450 531 
L 3481 531 
L 3481 0 
L 794 0 
L 794 531 
z
" transform="scale(0.015625)"/>
       </defs>
       <use xlink:href="#DejaVuSans-31"/>
      </g>
     </g>
    </g>
    <g id="xtick_2">
     <g id="line2d_2">
      <g>
       <use xlink:href="#m480995678e" x="99.47364" y="242.118437" style="stroke: #000000; stroke-width: 0.8"/>
      </g>
     </g>
     <g id="text_2">
      <!-- 2 -->
      <g transform="translate(96.29239 256.716875) scale(0.1 -0.1)">
       <defs>
        <path id="DejaVuSans-32" d="M 1228 531 
L 3431 531 
L 3431 0 
L 469 0 
L 469 531 
Q 828 903 1448 1529 
Q 2069 2156 2228 2338 
Q 2531 2678 2651 2914 
Q 2772 3150 2772 3378 
Q 2772 3750 2511 3984 
Q 2250 4219 1831 4219 
Q 1534 4219 1204 4116 
Q 875 4013 500 3803 
L 500 4441 
Q 881 4594 1212 4672 
Q 1544 4750 1819 4750 
Q 2544 4750 2975 4387 
Q 3406 4025 3406 3419 
Q 3406 3131 3298 2873 
Q 3191 2616 2906 2266 
Q 2828 2175 2409 1742 
Q 1991 1309 1228 531 
z
" transform="scale(0.015625)"/>
       </defs>
       <use xlink:href="#DejaVuSans-32"/>
      </g>
     </g>
    </g>
    <g id="xtick_3">
     <g id="line2d_3">
      <g>
       <use xlink:href="#m480995678e" x="136.6019" y="242.118437" style="stroke: #000000; stroke-width: 0.8"/>
      </g>
     </g>
     <g id="text_3">
      <!-- 3 -->
      <g transform="translate(133.42065 256.716875) scale(0.1 -0.1)">
       <defs>
        <path id="DejaVuSans-33" d="M 2597 2516 
Q 3050 2419 3304 2112 
Q 3559 1806 3559 1356 
Q 3559 666 3084 287 
Q 2609 -91 1734 -91 
Q 1441 -91 1130 -33 
Q 819 25 488 141 
L 488 750 
Q 750 597 1062 519 
Q 1375 441 1716 441 
Q 2309 441 2620 675 
Q 2931 909 2931 1356 
Q 2931 1769 2642 2001 
Q 2353 2234 1838 2234 
L 1294 2234 
L 1294 2753 
L 1863 2753 
Q 2328 2753 2575 2939 
Q 2822 3125 2822 3475 
Q 2822 3834 2567 4026 
Q 2313 4219 1838 4219 
Q 1578 4219 1281 4162 
Q 984 4106 628 3988 
L 628 4550 
Q 988 4650 1302 4700 
Q 1616 4750 1894 4750 
Q 2613 4750 3031 4423 
Q 3450 4097 3450 3541 
Q 3450 3153 3228 2886 
Q 3006 2619 2597 2516 
z
" transform="scale(0.015625)"/>
       </defs>
       <use xlink:href="#DejaVuSans-33"/>
      </g>
     </g>
    </g>
    <g id="xtick_4">
     <g id="line2d_4">
      <g>
       <use xlink:href="#m480995678e" x="173.730161" y="242.118437" style="stroke: #000000; stroke-width: 0.8"/>
      </g>
     </g>
     <g id="text_4">
      <!-- 4 -->
      <g transform="translate(170.548911 256.716875) scale(0.1 -0.1)">
       <defs>
        <path id="DejaVuSans-34" d="M 2419 4116 
L 825 1625 
L 2419 1625 
L 2419 4116 
z
M 2253 4666 
L 3047 4666 
L 3047 1625 
L 3713 1625 
L 3713 1100 
L 3047 1100 
L 3047 0 
L 2419 0 
L 2419 1100 
L 313 1100 
L 313 1709 
L 2253 4666 
z
" transform="scale(0.015625)"/>
       </defs>
       <use xlink:href="#DejaVuSans-34"/>
      </g>
     </g>
    </g>
    <g id="xtick_5">
     <g id="line2d_5">
      <g>
       <use xlink:href="#m480995678e" x="210.858421" y="242.118437" style="stroke: #000000; stroke-width: 0.8"/>
      </g>
     </g>
     <g id="text_5">
      <!-- 5 -->
      <g transform="translate(207.677171 256.716875) scale(0.1 -0.1)">
       <defs>
        <path id="DejaVuSans-35" d="M 691 4666 
L 3169 4666 
L 3169 4134 
L 1269 4134 
L 1269 2991 
Q 1406 3038 1543 3061 
Q 1681 3084 1819 3084 
Q 2600 3084 3056 2656 
Q 3513 2228 3513 1497 
Q 3513 744 3044 326 
Q 2575 -91 1722 -91 
Q 1428 -91 1123 -41 
Q 819 9 494 109 
L 494 744 
Q 775 591 1075 516 
Q 1375 441 1709 441 
Q 2250 441 2565 725 
Q 2881 1009 2881 1497 
Q 2881 1984 2565 2268 
Q 2250 2553 1709 2553 
Q 1456 2553 1204 2497 
Q 953 2441 691 2322 
L 691 4666 
z
" transform="scale(0.015625)"/>
       </defs>
       <use xlink:href="#DejaVuSans-35"/>
      </g>
     </g>
    </g>
    <g id="xtick_6">
     <g id="line2d_6">
      <g>
       <use xlink:href="#m480995678e" x="247.986681" y="242.118437" style="stroke: #000000; stroke-width: 0.8"/>
      </g>
     </g>
     <g id="text_6">
      <!-- 6 -->
      <g transform="translate(244.805431 256.716875) scale(0.1 -0.1)">
       <defs>
        <path id="DejaVuSans-36" d="M 2113 2584 
Q 1688 2584 1439 2293 
Q 1191 2003 1191 1497 
Q 1191 994 1439 701 
Q 1688 409 2113 409 
Q 2538 409 2786 701 
Q 3034 994 3034 1497 
Q 3034 2003 2786 2293 
Q 2538 2584 2113 2584 
z
M 3366 4563 
L 3366 3988 
Q 3128 4100 2886 4159 
Q 2644 4219 2406 4219 
Q 1781 4219 1451 3797 
Q 1122 3375 1075 2522 
Q 1259 2794 1537 2939 
Q 1816 3084 2150 3084 
Q 2853 3084 3261 2657 
Q 3669 2231 3669 1497 
Q 3669 778 3244 343 
Q 2819 -91 2113 -91 
Q 1303 -91 875 529 
Q 447 1150 447 2328 
Q 447 3434 972 4092 
Q 1497 4750 2381 4750 
Q 2619 4750 2861 4703 
Q 3103 4656 3366 4563 
z
" transform="scale(0.015625)"/>
       </defs>
       <use xlink:href="#DejaVuSans-36"/>
      </g>
     </g>
    </g>
    <g id="text_7">
     <!-- Layer -->
     <g transform="translate(141.224624 270.395) scale(0.1 -0.1)">
      <defs>
       <path id="DejaVuSans-4c" d="M 628 4666 
L 1259 4666 
L 1259 531 
L 3531 531 
L 3531 0 
L 628 0 
L 628 4666 
z
" transform="scale(0.015625)"/>
       <path id="DejaVuSans-61" d="M 2194 1759 
Q 1497 1759 1228 1600 
Q 959 1441 959 1056 
Q 959 750 1161 570 
Q 1363 391 1709 391 
Q 2188 391 2477 730 
Q 2766 1069 2766 1631 
L 2766 1759 
L 2194 1759 
z
M 3341 1997 
L 3341 0 
L 2766 0 
L 2766 531 
Q 2569 213 2275 61 
Q 1981 -91 1556 -91 
Q 1019 -91 701 211 
Q 384 513 384 1019 
Q 384 1609 779 1909 
Q 1175 2209 1959 2209 
L 2766 2209 
L 2766 2266 
Q 2766 2663 2505 2880 
Q 2244 3097 1772 3097 
Q 1472 3097 1187 3025 
Q 903 2953 641 2809 
L 641 3341 
Q 956 3463 1253 3523 
Q 1550 3584 1831 3584 
Q 2591 3584 2966 3190 
Q 3341 2797 3341 1997 
z
" transform="scale(0.015625)"/>
       <path id="DejaVuSans-79" d="M 2059 -325 
Q 1816 -950 1584 -1140 
Q 1353 -1331 966 -1331 
L 506 -1331 
L 506 -850 
L 844 -850 
Q 1081 -850 1212 -737 
Q 1344 -625 1503 -206 
L 1606 56 
L 191 3500 
L 800 3500 
L 1894 763 
L 2988 3500 
L 3597 3500 
L 2059 -325 
z
" transform="scale(0.015625)"/>
       <path id="DejaVuSans-65" d="M 3597 1894 
L 3597 1613 
L 953 1613 
Q 991 1019 1311 708 
Q 1631 397 2203 397 
Q 2534 397 2845 478 
Q 3156 559 3463 722 
L 3463 178 
Q 3153 47 2828 -22 
Q 2503 -91 2169 -91 
Q 1331 -91 842 396 
Q 353 884 353 1716 
Q 353 2575 817 3079 
Q 1281 3584 2069 3584 
Q 2775 3584 3186 3129 
Q 3597 2675 3597 1894 
z
M 3022 2063 
Q 3016 2534 2758 2815 
Q 2500 3097 2075 3097 
Q 1594 3097 1305 2825 
Q 1016 2553 972 2059 
L 3022 2063 
z
" transform="scale(0.015625)"/>
       <path id="DejaVuSans-72" d="M 2631 2963 
Q 2534 3019 2420 3045 
Q 2306 3072 2169 3072 
Q 1681 3072 1420 2755 
Q 1159 2438 1159 1844 
L 1159 0 
L 581 0 
L 581 3500 
L 1159 3500 
L 1159 2956 
Q 1341 3275 1631 3429 
Q 1922 3584 2338 3584 
Q 2397 3584 2469 3576 
Q 2541 3569 2628 3553 
L 2631 2963 
z
" transform="scale(0.015625)"/>
      </defs>
      <use xlink:href="#DejaVuSans-4c"/>
      <use xlink:href="#DejaVuSans-61" x="55.712891"/>
      <use xlink:href="#DejaVuSans-79" x="116.992188"/>
      <use xlink:href="#DejaVuSans-65" x="176.171875"/>
      <use xlink:href="#DejaVuSans-72" x="237.695312"/>
     </g>
    </g>
   </g>
   <g id="matplotlib.axis_2">
    <g id="ytick_1">
     <g id="line2d_7">
      <defs>
       <path id="m15c28591f7" d="M 0 0 
L -3.5 0 
" style="stroke: #000000; stroke-width: 0.8"/>
      </defs>
      <g>
       <use xlink:href="#m15c28591f7" x="43.78125" y="242.118437" style="stroke: #000000; stroke-width: 0.8"/>
      </g>
     </g>
     <g id="text_8">
      <!-- 0.0 -->
      <g transform="translate(20.878125 245.917656) scale(0.1 -0.1)">
       <defs>
        <path id="DejaVuSans-30" d="M 2034 4250 
Q 1547 4250 1301 3770 
Q 1056 3291 1056 2328 
Q 1056 1369 1301 889 
Q 1547 409 2034 409 
Q 2525 409 2770 889 
Q 3016 1369 3016 2328 
Q 3016 3291 2770 3770 
Q 2525 4250 2034 4250 
z
M 2034 4750 
Q 2819 4750 3233 4129 
Q 3647 3509 3647 2328 
Q 3647 1150 3233 529 
Q 2819 -91 2034 -91 
Q 1250 -91 836 529 
Q 422 1150 422 2328 
Q 422 3509 836 4129 
Q 1250 4750 2034 4750 
z
" transform="scale(0.015625)"/>
        <path id="DejaVuSans-2e" d="M 684 794 
L 1344 794 
L 1344 0 
L 684 0 
L 684 794 
z
" transform="scale(0.015625)"/>
       </defs>
       <use xlink:href="#DejaVuSans-30"/>
       <use xlink:href="#DejaVuSans-2e" x="63.623047"/>
       <use xlink:href="#DejaVuSans-30" x="95.410156"/>
      </g>
     </g>
    </g>
    <g id="ytick_2">
     <g id="line2d_8">
      <g>
       <use xlink:href="#m15c28591f7" x="43.78125" y="197.854437" style="stroke: #000000; stroke-width: 0.8"/>
      </g>
     </g>
     <g id="text_9">
      <!-- 0.2 -->
      <g transform="translate(20.878125 201.653656) scale(0.1 -0.1)">
       <use xlink:href="#DejaVuSans-30"/>
       <use xlink:href="#DejaVuSans-2e" x="63.623047"/>
       <use xlink:href="#DejaVuSans-32" x="95.410156"/>
      </g>
     </g>
    </g>
    <g id="ytick_3">
     <g id="line2d_9">
      <g>
       <use xlink:href="#m15c28591f7" x="43.78125" y="153.590437" style="stroke: #000000; stroke-width: 0.8"/>
      </g>
     </g>
     <g id="text_10">
      <!-- 0.4 -->
      <g transform="translate(20.878125 157.389656) scale(0.1 -0.1)">
       <use xlink:href="#DejaVuSans-30"/>
       <use xlink:href="#DejaVuSans-2e" x="63.623047"/>
       <use xlink:href="#DejaVuSans-34" x="95.410156"/>
      </g>
     </g>
    </g>
    <g id="ytick_4">
     <g id="line2d_10">
      <g>
       <use xlink:href="#m15c28591f7" x="43.78125" y="109.326437" style="stroke: #000000; stroke-width: 0.8"/>
      </g>
     </g>
     <g id="text_11">
      <!-- 0.6 -->
      <g transform="translate(20.878125 113.125656) scale(0.1 -0.1)">
       <use xlink:href="#DejaVuSans-30"/>
       <use xlink:href="#DejaVuSans-2e" x="63.623047"/>
       <use xlink:href="#DejaVuSans-36" x="95.410156"/>
      </g>
     </g>
    </g>
    <g id="ytick_5">
     <g id="line2d_11">
      <g>
       <use xlink:href="#m15c28591f7" x="43.78125" y="65.062437" style="stroke: #000000; stroke-width: 0.8"/>
      </g>
     </g>
     <g id="text_12">
      <!-- 0.8 -->
      <g transform="translate(20.878125 68.861656) scale(0.1 -0.1)">
       <defs>
        <path id="DejaVuSans-38" d="M 2034 2216 
Q 1584 2216 1326 1975 
Q 1069 1734 1069 1313 
Q 1069 891 1326 650 
Q 1584 409 2034 409 
Q 2484 409 2743 651 
Q 3003 894 3003 1313 
Q 3003 1734 2745 1975 
Q 2488 2216 2034 2216 
z
M 1403 2484 
Q 997 2584 770 2862 
Q 544 3141 544 3541 
Q 544 4100 942 4425 
Q 1341 4750 2034 4750 
Q 2731 4750 3128 4425 
Q 3525 4100 3525 3541 
Q 3525 3141 3298 2862 
Q 3072 2584 2669 2484 
Q 3125 2378 3379 2068 
Q 3634 1759 3634 1313 
Q 3634 634 3220 271 
Q 2806 -91 2034 -91 
Q 1263 -91 848 271 
Q 434 634 434 1313 
Q 434 1759 690 2068 
Q 947 2378 1403 2484 
z
M 1172 3481 
Q 1172 3119 1398 2916 
Q 1625 2713 2034 2713 
Q 2441 2713 2670 2916 
Q 2900 3119 2900 3481 
Q 2900 3844 2670 4047 
Q 2441 4250 2034 4250 
Q 1625 4250 1398 4047 
Q 1172 3844 1172 3481 
z
" transform="scale(0.015625)"/>
       </defs>
       <use xlink:href="#DejaVuSans-30"/>
       <use xlink:href="#DejaVuSans-2e" x="63.623047"/>
       <use xlink:href="#DejaVuSans-38" x="95.410156"/>
      </g>
     </g>
    </g>
    <g id="ytick_6">
     <g id="line2d_12">
      <g>
       <use xlink:href="#m15c28591f7" x="43.78125" y="20.798437" style="stroke: #000000; stroke-width: 0.8"/>
      </g>
     </g>
     <g id="text_13">
      <!-- 1.0 -->
      <g transform="translate(20.878125 24.597656) scale(0.1 -0.1)">
       <use xlink:href="#DejaVuSans-31"/>
       <use xlink:href="#DejaVuSans-2e" x="63.623047"/>
       <use xlink:href="#DejaVuSans-30" x="95.410156"/>
      </g>
     </g>
    </g>
    <g id="text_14">
     <!-- Accuracy -->
     <g transform="translate(14.798438 154.286563) rotate(-90) scale(0.1 -0.1)">
      <defs>
       <path id="DejaVuSans-41" d="M 2188 4044 
L 1331 1722 
L 3047 1722 
L 2188 4044 
z
M 1831 4666 
L 2547 4666 
L 4325 0 
L 3669 0 
L 3244 1197 
L 1141 1197 
L 716 0 
L 50 0 
L 1831 4666 
z
" transform="scale(0.015625)"/>
       <path id="DejaVuSans-63" d="M 3122 3366 
L 3122 2828 
Q 2878 2963 2633 3030 
Q 2388 3097 2138 3097 
Q 1578 3097 1268 2742 
Q 959 2388 959 1747 
Q 959 1106 1268 751 
Q 1578 397 2138 397 
Q 2388 397 2633 464 
Q 2878 531 3122 666 
L 3122 134 
Q 2881 22 2623 -34 
Q 2366 -91 2075 -91 
Q 1284 -91 818 406 
Q 353 903 353 1747 
Q 353 2603 823 3093 
Q 1294 3584 2113 3584 
Q 2378 3584 2631 3529 
Q 2884 3475 3122 3366 
z
" transform="scale(0.015625)"/>
       <path id="DejaVuSans-75" d="M 544 1381 
L 544 3500 
L 1119 3500 
L 1119 1403 
Q 1119 906 1312 657 
Q 1506 409 1894 409 
Q 2359 409 2629 706 
Q 2900 1003 2900 1516 
L 2900 3500 
L 3475 3500 
L 3475 0 
L 2900 0 
L 2900 538 
Q 2691 219 2414 64 
Q 2138 -91 1772 -91 
Q 1169 -91 856 284 
Q 544 659 544 1381 
z
M 1991 3584 
L 1991 3584 
z
" transform="scale(0.015625)"/>
      </defs>
      <use xlink:href="#DejaVuSans-41"/>
      <use xlink:href="#DejaVuSans-63" x="66.658203"/>
      <use xlink:href="#DejaVuSans-63" x="121.638672"/>
      <use xlink:href="#DejaVuSans-75" x="176.619141"/>
      <use xlink:href="#DejaVuSans-72" x="239.998047"/>
      <use xlink:href="#DejaVuSans-61" x="281.111328"/>
      <use xlink:href="#DejaVuSans-63" x="342.390625"/>
      <use xlink:href="#DejaVuSans-79" x="397.371094"/>
     </g>
    </g>
   </g>
   <g id="line2d_13">
    <path d="M 43.78125 131.458438 
L 266.550811 131.458438 
" clip-path="url(#pf085648cb6)" style="fill: none; stroke-dasharray: 5.55,2.4; stroke-dashoffset: 0; stroke: #808080; stroke-width: 1.5"/>
   </g>
   <g id="patch_3">
    <path d="M 43.78125 242.118437 
L 43.78125 20.798437 
" style="fill: none; stroke: #000000; stroke-width: 0.8; stroke-linejoin: miter; stroke-linecap: square"/>
   </g>
   <g id="patch_4">
    <path d="M 43.78125 242.118437 
L 266.550811 242.118437 
" style="fill: none; stroke: #000000; stroke-width: 0.8; stroke-linejoin: miter; stroke-linecap: square"/>
   </g>
   <g id="PathCollection_1">
    <defs>
     <path id="ma7d8cbd51b" d="M 0 1.25 
C 0.331504 1.25 0.649475 1.118292 0.883883 0.883883 
C 1.118292 0.649475 1.25 0.331504 1.25 0 
C 1.25 -0.331504 1.118292 -0.649475 0.883883 -0.883883 
C 0.649475 -1.118292 0.331504 -1.25 0 -1.25 
C -0.331504 -1.25 -0.649475 -1.118292 -0.883883 -0.883883 
C -1.118292 -0.649475 -1.25 -0.331504 -1.25 0 
C -1.25 0.331504 -1.118292 0.649475 -0.883883 0.883883 
C -0.649475 1.118292 -0.331504 1.25 0 1.25 
z
" style="stroke: #595959"/>
    </defs>
    <g clip-path="url(#pf085648cb6)">
     <use xlink:href="#ma7d8cbd51b" x="62.34538" y="129.245237" style="fill: #595959; stroke: #595959"/>
     <use xlink:href="#ma7d8cbd51b" x="62.34538" y="122.605637" style="fill: #595959; stroke: #595959"/>
     <use xlink:href="#ma7d8cbd51b" x="62.34538" y="120.392437" style="fill: #595959; stroke: #595959"/>
     <use xlink:href="#ma7d8cbd51b" x="62.34538" y="131.458438" style="fill: #595959; stroke: #595959"/>
     <use xlink:href="#ma7d8cbd51b" x="62.34538" y="120.392437" style="fill: #595959; stroke: #595959"/>
     <use xlink:href="#ma7d8cbd51b" x="62.34538" y="124.818837" style="fill: #595959; stroke: #595959"/>
     <use xlink:href="#ma7d8cbd51b" x="62.34538" y="140.311238" style="fill: #595959; stroke: #595959"/>
     <use xlink:href="#ma7d8cbd51b" x="62.34538" y="133.671637" style="fill: #595959; stroke: #595959"/>
     <use xlink:href="#ma7d8cbd51b" x="62.34538" y="127.032037" style="fill: #595959; stroke: #595959"/>
     <use xlink:href="#ma7d8cbd51b" x="62.34538" y="118.179237" style="fill: #595959; stroke: #595959"/>
     <use xlink:href="#ma7d8cbd51b" x="62.34538" y="149.164037" style="fill: #595959; stroke: #595959"/>
     <use xlink:href="#ma7d8cbd51b" x="62.34538" y="131.458438" style="fill: #595959; stroke: #595959"/>
     <use xlink:href="#ma7d8cbd51b" x="62.34538" y="133.671637" style="fill: #595959; stroke: #595959"/>
     <use xlink:href="#ma7d8cbd51b" x="62.34538" y="169.082837" style="fill: #595959; stroke: #595959"/>
     <use xlink:href="#ma7d8cbd51b" x="62.34538" y="160.230037" style="fill: #595959; stroke: #595959"/>
     <use xlink:href="#ma7d8cbd51b" x="62.34538" y="102.686837" style="fill: #595959; stroke: #595959"/>
     <use xlink:href="#ma7d8cbd51b" x="62.34538" y="140.311238" style="fill: #595959; stroke: #595959"/>
     <use xlink:href="#ma7d8cbd51b" x="62.34538" y="149.164037" style="fill: #595959; stroke: #595959"/>
     <use xlink:href="#ma7d8cbd51b" x="62.34538" y="124.818837" style="fill: #595959; stroke: #595959"/>
     <use xlink:href="#ma7d8cbd51b" x="62.34538" y="133.671637" style="fill: #595959; stroke: #595959"/>
    </g>
   </g>
   <g id="PathCollection_2">
    <g clip-path="url(#pf085648cb6)">
     <use xlink:href="#ma7d8cbd51b" x="99.47364" y="144.737637" style="fill: #595959; stroke: #595959"/>
     <use xlink:href="#ma7d8cbd51b" x="99.47364" y="129.245237" style="fill: #595959; stroke: #595959"/>
     <use xlink:href="#ma7d8cbd51b" x="99.47364" y="151.377237" style="fill: #595959; stroke: #595959"/>
     <use xlink:href="#ma7d8cbd51b" x="99.47364" y="155.803637" style="fill: #595959; stroke: #595959"/>
     <use xlink:href="#ma7d8cbd51b" x="99.47364" y="129.245237" style="fill: #595959; stroke: #595959"/>
     <use xlink:href="#ma7d8cbd51b" x="99.47364" y="127.032037" style="fill: #595959; stroke: #595959"/>
     <use xlink:href="#ma7d8cbd51b" x="99.47364" y="144.737637" style="fill: #595959; stroke: #595959"/>
     <use xlink:href="#ma7d8cbd51b" x="99.47364" y="124.818837" style="fill: #595959; stroke: #595959"/>
     <use xlink:href="#ma7d8cbd51b" x="99.47364" y="153.590437" style="fill: #595959; stroke: #595959"/>
     <use xlink:href="#ma7d8cbd51b" x="99.47364" y="135.884838" style="fill: #595959; stroke: #595959"/>
     <use xlink:href="#ma7d8cbd51b" x="99.47364" y="127.032038" style="fill: #595959; stroke: #595959"/>
     <use xlink:href="#ma7d8cbd51b" x="99.47364" y="144.737637" style="fill: #595959; stroke: #595959"/>
     <use xlink:href="#ma7d8cbd51b" x="99.47364" y="138.098037" style="fill: #595959; stroke: #595959"/>
     <use xlink:href="#ma7d8cbd51b" x="99.47364" y="133.671638" style="fill: #595959; stroke: #595959"/>
     <use xlink:href="#ma7d8cbd51b" x="99.47364" y="109.326437" style="fill: #595959; stroke: #595959"/>
     <use xlink:href="#ma7d8cbd51b" x="99.47364" y="142.524437" style="fill: #595959; stroke: #595959"/>
     <use xlink:href="#ma7d8cbd51b" x="99.47364" y="127.032037" style="fill: #595959; stroke: #595959"/>
     <use xlink:href="#ma7d8cbd51b" x="99.47364" y="144.737637" style="fill: #595959; stroke: #595959"/>
     <use xlink:href="#ma7d8cbd51b" x="99.47364" y="151.377237" style="fill: #595959; stroke: #595959"/>
     <use xlink:href="#ma7d8cbd51b" x="99.47364" y="142.524437" style="fill: #595959; stroke: #595959"/>
    </g>
   </g>
   <g id="PathCollection_3">
    <g clip-path="url(#pf085648cb6)">
     <use xlink:href="#ma7d8cbd51b" x="136.6019" y="118.179237" style="fill: #595959; stroke: #595959"/>
     <use xlink:href="#ma7d8cbd51b" x="136.6019" y="131.458437" style="fill: #595959; stroke: #595959"/>
     <use xlink:href="#ma7d8cbd51b" x="136.6019" y="144.737637" style="fill: #595959; stroke: #595959"/>
     <use xlink:href="#ma7d8cbd51b" x="136.6019" y="151.377237" style="fill: #595959; stroke: #595959"/>
     <use xlink:href="#ma7d8cbd51b" x="136.6019" y="104.900037" style="fill: #595959; stroke: #595959"/>
     <use xlink:href="#ma7d8cbd51b" x="136.6019" y="135.884837" style="fill: #595959; stroke: #595959"/>
     <use xlink:href="#ma7d8cbd51b" x="136.6019" y="120.392437" style="fill: #595959; stroke: #595959"/>
     <use xlink:href="#ma7d8cbd51b" x="136.6019" y="138.098037" style="fill: #595959; stroke: #595959"/>
     <use xlink:href="#ma7d8cbd51b" x="136.6019" y="104.900037" style="fill: #595959; stroke: #595959"/>
     <use xlink:href="#ma7d8cbd51b" x="136.6019" y="160.230037" style="fill: #595959; stroke: #595959"/>
     <use xlink:href="#ma7d8cbd51b" x="136.6019" y="142.524437" style="fill: #595959; stroke: #595959"/>
     <use xlink:href="#ma7d8cbd51b" x="136.6019" y="142.524437" style="fill: #595959; stroke: #595959"/>
     <use xlink:href="#ma7d8cbd51b" x="136.6019" y="142.524437" style="fill: #595959; stroke: #595959"/>
     <use xlink:href="#ma7d8cbd51b" x="136.6019" y="124.818837" style="fill: #595959; stroke: #595959"/>
     <use xlink:href="#ma7d8cbd51b" x="136.6019" y="122.605637" style="fill: #595959; stroke: #595959"/>
     <use xlink:href="#ma7d8cbd51b" x="136.6019" y="133.671637" style="fill: #595959; stroke: #595959"/>
     <use xlink:href="#ma7d8cbd51b" x="136.6019" y="149.164038" style="fill: #595959; stroke: #595959"/>
     <use xlink:href="#ma7d8cbd51b" x="136.6019" y="111.539637" style="fill: #595959; stroke: #595959"/>
     <use xlink:href="#ma7d8cbd51b" x="136.6019" y="91.620837" style="fill: #595959; stroke: #595959"/>
     <use xlink:href="#ma7d8cbd51b" x="136.6019" y="138.098037" style="fill: #595959; stroke: #595959"/>
    </g>
   </g>
   <g id="PathCollection_4">
    <g clip-path="url(#pf085648cb6)">
     <use xlink:href="#ma7d8cbd51b" x="173.730161" y="140.311237" style="fill: #595959; stroke: #595959"/>
     <use xlink:href="#ma7d8cbd51b" x="173.730161" y="131.458438" style="fill: #595959; stroke: #595959"/>
     <use xlink:href="#ma7d8cbd51b" x="173.730161" y="140.311237" style="fill: #595959; stroke: #595959"/>
     <use xlink:href="#ma7d8cbd51b" x="173.730161" y="135.884837" style="fill: #595959; stroke: #595959"/>
     <use xlink:href="#ma7d8cbd51b" x="173.730161" y="120.392437" style="fill: #595959; stroke: #595959"/>
     <use xlink:href="#ma7d8cbd51b" x="173.730161" y="129.245237" style="fill: #595959; stroke: #595959"/>
     <use xlink:href="#ma7d8cbd51b" x="173.730161" y="107.113237" style="fill: #595959; stroke: #595959"/>
     <use xlink:href="#ma7d8cbd51b" x="173.730161" y="135.884837" style="fill: #595959; stroke: #595959"/>
     <use xlink:href="#ma7d8cbd51b" x="173.730161" y="127.032037" style="fill: #595959; stroke: #595959"/>
     <use xlink:href="#ma7d8cbd51b" x="173.730161" y="127.032037" style="fill: #595959; stroke: #595959"/>
     <use xlink:href="#ma7d8cbd51b" x="173.730161" y="118.179237" style="fill: #595959; stroke: #595959"/>
     <use xlink:href="#ma7d8cbd51b" x="173.730161" y="131.458438" style="fill: #595959; stroke: #595959"/>
     <use xlink:href="#ma7d8cbd51b" x="173.730161" y="144.737637" style="fill: #595959; stroke: #595959"/>
     <use xlink:href="#ma7d8cbd51b" x="173.730161" y="142.524437" style="fill: #595959; stroke: #595959"/>
     <use xlink:href="#ma7d8cbd51b" x="173.730161" y="129.245237" style="fill: #595959; stroke: #595959"/>
     <use xlink:href="#ma7d8cbd51b" x="173.730161" y="177.935638" style="fill: #595959; stroke: #595959"/>
     <use xlink:href="#ma7d8cbd51b" x="173.730161" y="140.311238" style="fill: #595959; stroke: #595959"/>
     <use xlink:href="#ma7d8cbd51b" x="173.730161" y="127.032037" style="fill: #595959; stroke: #595959"/>
     <use xlink:href="#ma7d8cbd51b" x="173.730161" y="162.443238" style="fill: #595959; stroke: #595959"/>
     <use xlink:href="#ma7d8cbd51b" x="173.730161" y="131.458438" style="fill: #595959; stroke: #595959"/>
    </g>
   </g>
   <g id="PathCollection_5">
    <g clip-path="url(#pf085648cb6)">
     <use xlink:href="#ma7d8cbd51b" x="210.858421" y="73.915237" style="fill: #595959; stroke: #595959"/>
     <use xlink:href="#ma7d8cbd51b" x="210.858421" y="93.834037" style="fill: #595959; stroke: #595959"/>
     <use xlink:href="#ma7d8cbd51b" x="210.858421" y="109.326437" style="fill: #595959; stroke: #595959"/>
     <use xlink:href="#ma7d8cbd51b" x="210.858421" y="115.966037" style="fill: #595959; stroke: #595959"/>
     <use xlink:href="#ma7d8cbd51b" x="210.858421" y="109.326437" style="fill: #595959; stroke: #595959"/>
     <use xlink:href="#ma7d8cbd51b" x="210.858421" y="96.047237" style="fill: #595959; stroke: #595959"/>
     <use xlink:href="#ma7d8cbd51b" x="210.858421" y="102.686837" style="fill: #595959; stroke: #595959"/>
     <use xlink:href="#ma7d8cbd51b" x="210.858421" y="96.047237" style="fill: #595959; stroke: #595959"/>
     <use xlink:href="#ma7d8cbd51b" x="210.858421" y="109.326437" style="fill: #595959; stroke: #595959"/>
     <use xlink:href="#ma7d8cbd51b" x="210.858421" y="111.539637" style="fill: #595959; stroke: #595959"/>
     <use xlink:href="#ma7d8cbd51b" x="210.858421" y="100.473637" style="fill: #595959; stroke: #595959"/>
     <use xlink:href="#ma7d8cbd51b" x="210.858421" y="89.407637" style="fill: #595959; stroke: #595959"/>
     <use xlink:href="#ma7d8cbd51b" x="210.858421" y="96.047237" style="fill: #595959; stroke: #595959"/>
     <use xlink:href="#ma7d8cbd51b" x="210.858421" y="107.113237" style="fill: #595959; stroke: #595959"/>
     <use xlink:href="#ma7d8cbd51b" x="210.858421" y="100.473637" style="fill: #595959; stroke: #595959"/>
     <use xlink:href="#ma7d8cbd51b" x="210.858421" y="91.620837" style="fill: #595959; stroke: #595959"/>
     <use xlink:href="#ma7d8cbd51b" x="210.858421" y="115.966037" style="fill: #595959; stroke: #595959"/>
     <use xlink:href="#ma7d8cbd51b" x="210.858421" y="104.900037" style="fill: #595959; stroke: #595959"/>
     <use xlink:href="#ma7d8cbd51b" x="210.858421" y="96.047237" style="fill: #595959; stroke: #595959"/>
     <use xlink:href="#ma7d8cbd51b" x="210.858421" y="87.194437" style="fill: #595959; stroke: #595959"/>
    </g>
   </g>
   <g id="PathCollection_6">
    <g clip-path="url(#pf085648cb6)">
     <use xlink:href="#ma7d8cbd51b" x="247.986681" y="34.077637" style="fill: #595959; stroke: #595959"/>
     <use xlink:href="#ma7d8cbd51b" x="247.986681" y="45.143637" style="fill: #595959; stroke: #595959"/>
     <use xlink:href="#ma7d8cbd51b" x="247.986681" y="58.422838" style="fill: #595959; stroke: #595959"/>
     <use xlink:href="#ma7d8cbd51b" x="247.986681" y="67.275637" style="fill: #595959; stroke: #595959"/>
     <use xlink:href="#ma7d8cbd51b" x="247.986681" y="73.915237" style="fill: #595959; stroke: #595959"/>
     <use xlink:href="#ma7d8cbd51b" x="247.986681" y="42.930437" style="fill: #595959; stroke: #595959"/>
     <use xlink:href="#ma7d8cbd51b" x="247.986681" y="47.356837" style="fill: #595959; stroke: #595959"/>
     <use xlink:href="#ma7d8cbd51b" x="247.986681" y="89.407638" style="fill: #595959; stroke: #595959"/>
     <use xlink:href="#ma7d8cbd51b" x="247.986681" y="69.488837" style="fill: #595959; stroke: #595959"/>
     <use xlink:href="#ma7d8cbd51b" x="247.986681" y="45.143637" style="fill: #595959; stroke: #595959"/>
     <use xlink:href="#ma7d8cbd51b" x="247.986681" y="49.570038" style="fill: #595959; stroke: #595959"/>
     <use xlink:href="#ma7d8cbd51b" x="247.986681" y="98.260437" style="fill: #595959; stroke: #595959"/>
     <use xlink:href="#ma7d8cbd51b" x="247.986681" y="53.996437" style="fill: #595959; stroke: #595959"/>
     <use xlink:href="#ma7d8cbd51b" x="247.986681" y="51.783237" style="fill: #595959; stroke: #595959"/>
     <use xlink:href="#ma7d8cbd51b" x="247.986681" y="49.570038" style="fill: #595959; stroke: #595959"/>
     <use xlink:href="#ma7d8cbd51b" x="247.986681" y="53.996437" style="fill: #595959; stroke: #595959"/>
     <use xlink:href="#ma7d8cbd51b" x="247.986681" y="53.996437" style="fill: #595959; stroke: #595959"/>
     <use xlink:href="#ma7d8cbd51b" x="247.986681" y="62.849237" style="fill: #595959; stroke: #595959"/>
     <use xlink:href="#ma7d8cbd51b" x="247.986681" y="69.488837" style="fill: #595959; stroke: #595959"/>
     <use xlink:href="#ma7d8cbd51b" x="247.986681" y="60.636037" style="fill: #595959; stroke: #595959"/>
    </g>
   </g>
   <g id="text_15">
    <!-- Rho = 0.4 -->
    <g transform="translate(273.08589 106.436563) rotate(-270) scale(0.1 -0.1)">
     <defs>
      <path id="DejaVuSans-52" d="M 2841 2188 
Q 3044 2119 3236 1894 
Q 3428 1669 3622 1275 
L 4263 0 
L 3584 0 
L 2988 1197 
Q 2756 1666 2539 1819 
Q 2322 1972 1947 1972 
L 1259 1972 
L 1259 0 
L 628 0 
L 628 4666 
L 2053 4666 
Q 2853 4666 3247 4331 
Q 3641 3997 3641 3322 
Q 3641 2881 3436 2590 
Q 3231 2300 2841 2188 
z
M 1259 4147 
L 1259 2491 
L 2053 2491 
Q 2509 2491 2742 2702 
Q 2975 2913 2975 3322 
Q 2975 3731 2742 3939 
Q 2509 4147 2053 4147 
L 1259 4147 
z
" transform="scale(0.015625)"/>
      <path id="DejaVuSans-68" d="M 3513 2113 
L 3513 0 
L 2938 0 
L 2938 2094 
Q 2938 2591 2744 2837 
Q 2550 3084 2163 3084 
Q 1697 3084 1428 2787 
Q 1159 2491 1159 1978 
L 1159 0 
L 581 0 
L 581 4863 
L 1159 4863 
L 1159 2956 
Q 1366 3272 1645 3428 
Q 1925 3584 2291 3584 
Q 2894 3584 3203 3211 
Q 3513 2838 3513 2113 
z
" transform="scale(0.015625)"/>
      <path id="DejaVuSans-6f" d="M 1959 3097 
Q 1497 3097 1228 2736 
Q 959 2375 959 1747 
Q 959 1119 1226 758 
Q 1494 397 1959 397 
Q 2419 397 2687 759 
Q 2956 1122 2956 1747 
Q 2956 2369 2687 2733 
Q 2419 3097 1959 3097 
z
M 1959 3584 
Q 2709 3584 3137 3096 
Q 3566 2609 3566 1747 
Q 3566 888 3137 398 
Q 2709 -91 1959 -91 
Q 1206 -91 779 398 
Q 353 888 353 1747 
Q 353 2609 779 3096 
Q 1206 3584 1959 3584 
z
" transform="scale(0.015625)"/>
      <path id="DejaVuSans-20" transform="scale(0.015625)"/>
      <path id="DejaVuSans-3d" d="M 678 2906 
L 4684 2906 
L 4684 2381 
L 678 2381 
L 678 2906 
z
M 678 1631 
L 4684 1631 
L 4684 1100 
L 678 1100 
L 678 1631 
z
" transform="scale(0.015625)"/>
     </defs>
     <use xlink:href="#DejaVuSans-52"/>
     <use xlink:href="#DejaVuSans-68" x="69.482422"/>
     <use xlink:href="#DejaVuSans-6f" x="132.861328"/>
     <use xlink:href="#DejaVuSans-20" x="194.042969"/>
     <use xlink:href="#DejaVuSans-3d" x="225.830078"/>
     <use xlink:href="#DejaVuSans-20" x="309.619141"/>
     <use xlink:href="#DejaVuSans-30" x="341.40625"/>
     <use xlink:href="#DejaVuSans-2e" x="405.029297"/>
     <use xlink:href="#DejaVuSans-34" x="436.816406"/>
    </g>
   </g>
   <g id="text_16">
    <!-- CNR_change = 1 -->
    <g transform="translate(113.008999 14.798437) scale(0.1 -0.1)">
     <defs>
      <path id="DejaVuSans-43" d="M 4122 4306 
L 4122 3641 
Q 3803 3938 3442 4084 
Q 3081 4231 2675 4231 
Q 1875 4231 1450 3742 
Q 1025 3253 1025 2328 
Q 1025 1406 1450 917 
Q 1875 428 2675 428 
Q 3081 428 3442 575 
Q 3803 722 4122 1019 
L 4122 359 
Q 3791 134 3420 21 
Q 3050 -91 2638 -91 
Q 1578 -91 968 557 
Q 359 1206 359 2328 
Q 359 3453 968 4101 
Q 1578 4750 2638 4750 
Q 3056 4750 3426 4639 
Q 3797 4528 4122 4306 
z
" transform="scale(0.015625)"/>
      <path id="DejaVuSans-4e" d="M 628 4666 
L 1478 4666 
L 3547 763 
L 3547 4666 
L 4159 4666 
L 4159 0 
L 3309 0 
L 1241 3903 
L 1241 0 
L 628 0 
L 628 4666 
z
" transform="scale(0.015625)"/>
      <path id="DejaVuSans-5f" d="M 3263 -1063 
L 3263 -1509 
L -63 -1509 
L -63 -1063 
L 3263 -1063 
z
" transform="scale(0.015625)"/>
      <path id="DejaVuSans-6e" d="M 3513 2113 
L 3513 0 
L 2938 0 
L 2938 2094 
Q 2938 2591 2744 2837 
Q 2550 3084 2163 3084 
Q 1697 3084 1428 2787 
Q 1159 2491 1159 1978 
L 1159 0 
L 581 0 
L 581 3500 
L 1159 3500 
L 1159 2956 
Q 1366 3272 1645 3428 
Q 1925 3584 2291 3584 
Q 2894 3584 3203 3211 
Q 3513 2838 3513 2113 
z
" transform="scale(0.015625)"/>
      <path id="DejaVuSans-67" d="M 2906 1791 
Q 2906 2416 2648 2759 
Q 2391 3103 1925 3103 
Q 1463 3103 1205 2759 
Q 947 2416 947 1791 
Q 947 1169 1205 825 
Q 1463 481 1925 481 
Q 2391 481 2648 825 
Q 2906 1169 2906 1791 
z
M 3481 434 
Q 3481 -459 3084 -895 
Q 2688 -1331 1869 -1331 
Q 1566 -1331 1297 -1286 
Q 1028 -1241 775 -1147 
L 775 -588 
Q 1028 -725 1275 -790 
Q 1522 -856 1778 -856 
Q 2344 -856 2625 -561 
Q 2906 -266 2906 331 
L 2906 616 
Q 2728 306 2450 153 
Q 2172 0 1784 0 
Q 1141 0 747 490 
Q 353 981 353 1791 
Q 353 2603 747 3093 
Q 1141 3584 1784 3584 
Q 2172 3584 2450 3431 
Q 2728 3278 2906 2969 
L 2906 3500 
L 3481 3500 
L 3481 434 
z
" transform="scale(0.015625)"/>
     </defs>
     <use xlink:href="#DejaVuSans-43"/>
     <use xlink:href="#DejaVuSans-4e" x="69.824219"/>
     <use xlink:href="#DejaVuSans-52" x="144.628906"/>
     <use xlink:href="#DejaVuSans-5f" x="214.111328"/>
     <use xlink:href="#DejaVuSans-63" x="264.111328"/>
     <use xlink:href="#DejaVuSans-68" x="319.091797"/>
     <use xlink:href="#DejaVuSans-61" x="382.470703"/>
     <use xlink:href="#DejaVuSans-6e" x="443.75"/>
     <use xlink:href="#DejaVuSans-67" x="507.128906"/>
     <use xlink:href="#DejaVuSans-65" x="570.605469"/>
     <use xlink:href="#DejaVuSans-20" x="632.128906"/>
     <use xlink:href="#DejaVuSans-3d" x="663.916016"/>
     <use xlink:href="#DejaVuSans-20" x="747.705078"/>
     <use xlink:href="#DejaVuSans-31" x="779.492188"/>
    </g>
   </g>
  </g>
  <g id="legend_1"/>
 </g>
 <defs>
  <clipPath id="pf085648cb6">
   <rect x="43.78125" y="20.798437" width="222.769561" height="221.32"/>
  </clipPath>
 </defs>
</svg>
