<?xml version="1.0" encoding="utf-8" standalone="no"?>
<!DOCTYPE svg PUBLIC "-//W3C//DTD SVG 1.1//EN"
  "http://www.w3.org/Graphics/SVG/1.1/DTD/svg11.dtd">
<svg xmlns:xlink="http://www.w3.org/1999/xlink" width="294.17125pt" height="279.674688pt" viewBox="0 0 294.17125 279.674688" xmlns="http://www.w3.org/2000/svg" version="1.1">
 <metadata>
  <rdf:RDF xmlns:dc="http://purl.org/dc/elements/1.1/" xmlns:cc="http://creativecommons.org/ns#" xmlns:rdf="http://www.w3.org/1999/02/22-rdf-syntax-ns#">
   <cc:Work>
    <dc:type rdf:resource="http://purl.org/dc/dcmitype/StillImage"/>
    <dc:date>2025-08-25T15:52:30.591880</dc:date>
    <dc:format>image/svg+xml</dc:format>
    <dc:creator>
     <cc:Agent>
      <dc:title>Matplotlib v3.8.4, https://matplotlib.org/</dc:title>
     </cc:Agent>
    </dc:creator>
   </cc:Work>
  </rdf:RDF>
 </metadata>
 <defs>
  <style type="text/css">*{stroke-linejoin: round; stroke-linecap: butt}</style>
 </defs>
 <g id="figure_1">
  <g id="patch_1">
   <path d="M 0 279.674688 
L 294.17125 279.674688 
L 294.17125 0 
L 0 0 
z
" style="fill: #ffffff"/>
  </g>
  <g id="axes_1">
   <g id="patch_2">
    <path d="M 43.78125 242.118437 
L 266.550811 242.118437 
L 266.550811 20.798437 
L 43.78125 20.798437 
z
" style="fill: #ffffff"/>
   </g>
   <g id="PolyCollection_1">
    <defs>
     <path id="m829c731b4f" d="M 81.780906 -244.087261 
L 80.038114 -244.087261 
L 79.84075 -244.274251 
L 79.610549 -244.461241 
L 79.344877 -244.64823 
L 79.041481 -244.83522 
L 78.698614 -245.02221 
L 78.315145 -245.209199 
L 77.890657 -245.396189 
L 77.425518 -245.583179 
L 76.92093 -245.770168 
L 76.378934 -245.957158 
L 75.802382 -246.144148 
L 75.194879 -246.331137 
L 74.560683 -246.518127 
L 73.904576 -246.705117 
L 73.231719 -246.892106 
L 72.547487 -247.079096 
L 71.857304 -247.266086 
L 71.166469 -247.453075 
L 70.480005 -247.640065 
L 69.802513 -247.827055 
L 69.138047 -248.014044 
L 68.490009 -248.201034 
L 67.861061 -248.388024 
L 67.253058 -248.575013 
L 66.666997 -248.762003 
L 66.102983 -248.948993 
L 65.560204 -249.135982 
L 65.036936 -249.322972 
L 64.530561 -249.509962 
L 64.037608 -249.696951 
L 63.553837 -249.883941 
L 63.074348 -250.070931 
L 62.593747 -250.25792 
L 62.106345 -250.44491 
L 61.606418 -250.6319 
L 61.088504 -250.818889 
L 60.547738 -251.005879 
L 59.980213 -251.192869 
L 59.383347 -251.379858 
L 58.756239 -251.566848 
L 58.099984 -251.753838 
L 57.417923 -251.940827 
L 56.715807 -252.127817 
L 56.001848 -252.314807 
L 55.286637 -252.501796 
L 54.582918 -252.688786 
L 53.905223 -252.875776 
L 53.269364 -253.062765 
L 52.691804 -253.249755 
L 52.188938 -253.436745 
L 51.776323 -253.623735 
L 51.467897 -253.810724 
L 51.275233 -253.997714 
L 51.206902 -254.184704 
L 51.26795 -254.371693 
L 51.459571 -254.558683 
L 51.778974 -254.745673 
L 52.219473 -254.932662 
L 52.770791 -255.119652 
L 53.419572 -255.306642 
L 54.150053 -255.493631 
L 54.944874 -255.680621 
L 55.785953 -255.867611 
L 56.655389 -256.0546 
L 57.536314 -256.24159 
L 58.413668 -256.42858 
L 59.274825 -256.615569 
L 60.11005 -256.802559 
L 60.912768 -256.989549 
L 61.679624 -257.176538 
L 62.410346 -257.363528 
L 63.107438 -257.550518 
L 63.775712 -257.737507 
L 64.421714 -257.924497 
L 65.05308 -258.111487 
L 65.677864 -258.298476 
L 66.303886 -258.485466 
L 66.93814 -258.672456 
L 67.586296 -258.859445 
L 68.252321 -259.046435 
L 68.938238 -259.233425 
L 69.644028 -259.420414 
L 70.367671 -259.607404 
L 71.105319 -259.794394 
L 71.851568 -259.981383 
L 72.59982 -260.168373 
L 73.34269 -260.355363 
L 74.072437 -260.542352 
L 74.781382 -260.729342 
L 75.462292 -260.916332 
L 76.108711 -261.103321 
L 76.715214 -261.290311 
L 77.277579 -261.477301 
L 77.792884 -261.66429 
L 78.259521 -261.85128 
L 78.677135 -262.03827 
L 79.046516 -262.225259 
L 79.369443 -262.412249 
L 79.648497 -262.599239 
L 82.170524 -262.599239 
L 82.170524 -262.599239 
L 82.449578 -262.412249 
L 82.772504 -262.225259 
L 83.141886 -262.03827 
L 83.5595 -261.85128 
L 84.026136 -261.66429 
L 84.541442 -261.477301 
L 85.103807 -261.290311 
L 85.710309 -261.103321 
L 86.356728 -260.916332 
L 87.037639 -260.729342 
L 87.746583 -260.542352 
L 88.47633 -260.355363 
L 89.219201 -260.168373 
L 89.967453 -259.981383 
L 90.713702 -259.794394 
L 91.451349 -259.607404 
L 92.174993 -259.420414 
L 92.880782 -259.233425 
L 93.566699 -259.046435 
L 94.232724 -258.859445 
L 94.88088 -258.672456 
L 95.515134 -258.485466 
L 96.141156 -258.298476 
L 96.76594 -258.111487 
L 97.397307 -257.924497 
L 98.043309 -257.737507 
L 98.711582 -257.550518 
L 99.408674 -257.363528 
L 100.139397 -257.176538 
L 100.906252 -256.989549 
L 101.70897 -256.802559 
L 102.544196 -256.615569 
L 103.405352 -256.42858 
L 104.282706 -256.24159 
L 105.163632 -256.0546 
L 106.033067 -255.867611 
L 106.874147 -255.680621 
L 107.668967 -255.493631 
L 108.399449 -255.306642 
L 109.048229 -255.119652 
L 109.599548 -254.932662 
L 110.040046 -254.745673 
L 110.359449 -254.558683 
L 110.55107 -254.371693 
L 110.612118 -254.184704 
L 110.543787 -253.997714 
L 110.351124 -253.810724 
L 110.042697 -253.623735 
L 109.630082 -253.436745 
L 109.127217 -253.249755 
L 108.549656 -253.062765 
L 107.913797 -252.875776 
L 107.236103 -252.688786 
L 106.532384 -252.501796 
L 105.817172 -252.314807 
L 105.103213 -252.127817 
L 104.401098 -251.940827 
L 103.719037 -251.753838 
L 103.062781 -251.566848 
L 102.435674 -251.379858 
L 101.838808 -251.192869 
L 101.271282 -251.005879 
L 100.730516 -250.818889 
L 100.212602 -250.6319 
L 99.712675 -250.44491 
L 99.225274 -250.25792 
L 98.744672 -250.070931 
L 98.265184 -249.883941 
L 97.781412 -249.696951 
L 97.28846 -249.509962 
L 96.782084 -249.322972 
L 96.258817 -249.135982 
L 95.716038 -248.948993 
L 95.152023 -248.762003 
L 94.565962 -248.575013 
L 93.95796 -248.388024 
L 93.329011 -248.201034 
L 92.680973 -248.014044 
L 92.016507 -247.827055 
L 91.339015 -247.640065 
L 90.652551 -247.453075 
L 89.961716 -247.266086 
L 89.271533 -247.079096 
L 88.587302 -246.892106 
L 87.914445 -246.705117 
L 87.258337 -246.518127 
L 86.624141 -246.331137 
L 86.016638 -246.144148 
L 85.440087 -245.957158 
L 84.89809 -245.770168 
L 84.393502 -245.583179 
L 83.928364 -245.396189 
L 83.503875 -245.209199 
L 83.120406 -245.02221 
L 82.777539 -244.83522 
L 82.474143 -244.64823 
L 82.208471 -244.461241 
L 81.97827 -244.274251 
L 81.780906 -244.087261 
z
" style="stroke: #595959; stroke-width: 1.25"/>
    </defs>
    <g clip-path="url(#pc99074544d)">
     <use xlink:href="#m829c731b4f" x="0" y="279.674688" style="fill: #72b6a1; stroke: #595959; stroke-width: 1.25"/>
    </g>
   </g>
   <g id="PolyCollection_2">
    <defs>
     <path id="m4cfcca39f8" d="M 156.615428 -159.268592 
L 153.716633 -159.268592 
L 153.3904 -160.006601 
L 153.008493 -160.74461 
L 152.565672 -161.482619 
L 152.057125 -162.220629 
L 151.478676 -162.958638 
L 150.827015 -163.696647 
L 150.099909 -164.434656 
L 149.29641 -165.172666 
L 148.417024 -165.910675 
L 147.463848 -166.648684 
L 146.440653 -167.386693 
L 145.352909 -168.124703 
L 144.207751 -168.862712 
L 143.013871 -169.600721 
L 141.781353 -170.338731 
L 140.521448 -171.07674 
L 139.246303 -171.814749 
L 137.968648 -172.552758 
L 136.701472 -173.290768 
L 135.457683 -174.028777 
L 134.249793 -174.766786 
L 133.089613 -175.504795 
L 131.988002 -176.242805 
L 130.954647 -176.980814 
L 129.997913 -177.718823 
L 129.12473 -178.456832 
L 128.340551 -179.194842 
L 127.64934 -179.932851 
L 127.053613 -180.67086 
L 126.554502 -181.408869 
L 126.151852 -182.146879 
L 125.844314 -182.884888 
L 125.629467 -183.622897 
L 125.50392 -184.360906 
L 125.463422 -185.098916 
L 125.502974 -185.836925 
L 125.616923 -186.574934 
L 125.79907 -187.312944 
L 126.042775 -188.050953 
L 126.341058 -188.788962 
L 126.686722 -189.526971 
L 127.072465 -190.264981 
L 127.491006 -191.00299 
L 127.935209 -191.740999 
L 128.398199 -192.479008 
L 128.873477 -193.217018 
L 129.355012 -193.955027 
L 129.837314 -194.693036 
L 130.315489 -195.431045 
L 130.785262 -196.169055 
L 131.242978 -196.907064 
L 131.685588 -197.645073 
L 132.110613 -198.383082 
L 132.516104 -199.121092 
L 132.90061 -199.859101 
L 133.263149 -200.59711 
L 133.603201 -201.335119 
L 133.920723 -202.073129 
L 134.216187 -202.811138 
L 134.49064 -203.549147 
L 134.745776 -204.287156 
L 134.984015 -205.025166 
L 135.208572 -205.763175 
L 135.423503 -206.501184 
L 135.633713 -207.239194 
L 135.844917 -207.977203 
L 136.063542 -208.715212 
L 136.296561 -209.453221 
L 136.551279 -210.191231 
L 136.835049 -210.92924 
L 137.154963 -211.667249 
L 137.517505 -212.405258 
L 137.928218 -213.143268 
L 138.39138 -213.881277 
L 138.909731 -214.619286 
L 139.484261 -215.357295 
L 140.114083 -216.095305 
L 140.796394 -216.833314 
L 141.526531 -217.571323 
L 142.298128 -218.309332 
L 143.10335 -219.047342 
L 143.933198 -219.785351 
L 144.777871 -220.52336 
L 145.627147 -221.261369 
L 146.470783 -221.999379 
L 147.298884 -222.737388 
L 148.102246 -223.475397 
L 148.872649 -224.213407 
L 149.603074 -224.951416 
L 150.28786 -225.689425 
L 150.922787 -226.427434 
L 151.505082 -227.165444 
L 152.033372 -227.903453 
L 152.507577 -228.641462 
L 152.928764 -229.379471 
L 153.298971 -230.117481 
L 153.621019 -230.85549 
L 153.898315 -231.593499 
L 154.134661 -232.331508 
L 156.197401 -232.331508 
L 156.197401 -232.331508 
L 156.433747 -231.593499 
L 156.711042 -230.85549 
L 157.03309 -230.117481 
L 157.403297 -229.379471 
L 157.824484 -228.641462 
L 158.298689 -227.903453 
L 158.826979 -227.165444 
L 159.409274 -226.427434 
L 160.044201 -225.689425 
L 160.728987 -224.951416 
L 161.459412 -224.213407 
L 162.229815 -223.475397 
L 163.033178 -222.737388 
L 163.861278 -221.999379 
L 164.704914 -221.261369 
L 165.554191 -220.52336 
L 166.398863 -219.785351 
L 167.228712 -219.047342 
L 168.033933 -218.309332 
L 168.80553 -217.571323 
L 169.535667 -216.833314 
L 170.217978 -216.095305 
L 170.8478 -215.357295 
L 171.42233 -214.619286 
L 171.940681 -213.881277 
L 172.403843 -213.143268 
L 172.814556 -212.405258 
L 173.177099 -211.667249 
L 173.497012 -210.92924 
L 173.780782 -210.191231 
L 174.0355 -209.453221 
L 174.268519 -208.715212 
L 174.487144 -207.977203 
L 174.698348 -207.239194 
L 174.908559 -206.501184 
L 175.123489 -205.763175 
L 175.348047 -205.025166 
L 175.586286 -204.287156 
L 175.841421 -203.549147 
L 176.115874 -202.811138 
L 176.411338 -202.073129 
L 176.728861 -201.335119 
L 177.068913 -200.59711 
L 177.431451 -199.859101 
L 177.815957 -199.121092 
L 178.221448 -198.383082 
L 178.646473 -197.645073 
L 179.089083 -196.907064 
L 179.546799 -196.169055 
L 180.016572 -195.431045 
L 180.494747 -194.693036 
L 180.97705 -193.955027 
L 181.458584 -193.217018 
L 181.933862 -192.479008 
L 182.396853 -191.740999 
L 182.841055 -191.00299 
L 183.259596 -190.264981 
L 183.645339 -189.526971 
L 183.991003 -188.788962 
L 184.289286 -188.050953 
L 184.532991 -187.312944 
L 184.715138 -186.574934 
L 184.829087 -185.836925 
L 184.868639 -185.098916 
L 184.828141 -184.360906 
L 184.702594 -183.622897 
L 184.487747 -182.884888 
L 184.18021 -182.146879 
L 183.777559 -181.408869 
L 183.278448 -180.67086 
L 182.682721 -179.932851 
L 181.99151 -179.194842 
L 181.207331 -178.456832 
L 180.334149 -177.718823 
L 179.377414 -176.980814 
L 178.344059 -176.242805 
L 177.242448 -175.504795 
L 176.082268 -174.766786 
L 174.874378 -174.028777 
L 173.630589 -173.290768 
L 172.363413 -172.552758 
L 171.085758 -171.814749 
L 169.810613 -171.07674 
L 168.550709 -170.338731 
L 167.318191 -169.600721 
L 166.12431 -168.862712 
L 164.979152 -168.124703 
L 163.891408 -167.386693 
L 162.868213 -166.648684 
L 161.915037 -165.910675 
L 161.035651 -165.172666 
L 160.232152 -164.434656 
L 159.505046 -163.696647 
L 158.853385 -162.958638 
L 158.274936 -162.220629 
L 157.766389 -161.482619 
L 157.323569 -160.74461 
L 156.941662 -160.006601 
L 156.615428 -159.268592 
z
" style="stroke: #595959; stroke-width: 1.25"/>
    </defs>
    <g clip-path="url(#pc99074544d)">
     <use xlink:href="#m4cfcca39f8" x="0" y="279.674688" style="fill: #e99675; stroke: #595959; stroke-width: 1.25"/>
    </g>
   </g>
   <g id="PolyCollection_3">
    <defs>
     <path id="m3f90ec6594" d="M 229.841518 -136.780201 
L 229.003584 -136.780201 
L 228.897931 -137.570121 
L 228.774357 -138.360041 
L 228.632297 -139.149962 
L 228.471867 -139.939882 
L 228.293993 -140.729802 
L 228.100516 -141.519722 
L 227.894239 -142.309642 
L 227.678913 -143.099563 
L 227.459142 -143.889483 
L 227.240206 -144.679403 
L 227.027799 -145.469323 
L 226.827695 -146.259243 
L 226.645359 -147.049163 
L 226.485511 -147.839084 
L 226.351701 -148.629004 
L 226.245902 -149.418924 
L 226.168164 -150.208844 
L 226.116356 -150.998764 
L 226.086024 -151.788685 
L 226.070375 -152.578605 
L 226.060392 -153.368525 
L 226.045091 -154.158445 
L 226.011882 -154.948365 
L 225.947044 -155.738285 
L 225.836265 -156.528206 
L 225.665226 -157.318126 
L 225.420201 -158.108046 
L 225.08864 -158.897966 
L 224.659709 -159.687886 
L 224.124764 -160.477806 
L 223.477742 -161.267727 
L 222.715453 -162.057647 
L 221.837775 -162.847567 
L 220.847736 -163.637487 
L 219.751504 -164.427407 
L 218.558275 -165.217328 
L 217.280078 -166.007248 
L 215.931503 -166.797168 
L 214.52937 -167.587088 
L 213.092338 -168.377008 
L 211.640469 -169.166928 
L 210.19475 -169.956849 
L 208.776574 -170.746769 
L 207.407185 -171.536689 
L 206.107087 -172.326609 
L 204.895432 -173.116529 
L 203.789384 -173.90645 
L 202.803502 -174.69637 
L 201.949153 -175.48629 
L 201.233995 -176.27621 
L 200.661587 -177.06613 
L 200.231151 -177.85605 
L 199.937547 -178.645971 
L 199.771476 -179.435891 
L 199.719943 -180.225811 
L 199.766962 -181.015731 
L 199.894497 -181.805651 
L 200.083557 -182.595572 
L 200.315414 -183.385492 
L 200.572814 -184.175412 
L 200.84112 -184.965332 
L 201.109277 -185.755252 
L 201.370517 -186.545172 
L 201.622741 -187.335093 
L 201.868563 -188.125013 
L 202.114978 -188.914933 
L 202.372716 -189.704853 
L 202.655322 -190.494773 
L 202.978043 -191.284694 
L 203.356618 -192.074614 
L 203.806068 -192.864534 
L 204.339569 -193.654454 
L 204.967497 -194.444374 
L 205.696695 -195.234294 
L 206.529999 -196.024215 
L 207.466033 -196.814135 
L 208.499269 -197.604055 
L 209.620325 -198.393975 
L 210.816453 -199.183895 
L 212.072184 -199.973815 
L 213.370066 -200.763736 
L 214.691461 -201.553656 
L 216.017338 -202.343576 
L 217.329036 -203.133496 
L 218.608951 -203.923416 
L 219.841132 -204.713337 
L 221.011751 -205.503257 
L 222.10945 -206.293177 
L 223.125546 -207.083097 
L 224.054107 -207.873017 
L 224.891897 -208.662937 
L 225.63821 -209.452858 
L 226.294614 -210.242778 
L 226.864621 -211.032698 
L 227.353317 -211.822618 
L 227.766966 -212.612538 
L 228.112619 -213.402459 
L 228.397752 -214.192379 
L 228.629936 -214.982299 
L 230.215166 -214.982299 
L 230.215166 -214.982299 
L 230.44735 -214.192379 
L 230.732483 -213.402459 
L 231.078136 -212.612538 
L 231.491785 -211.822618 
L 231.980481 -211.032698 
L 232.550488 -210.242778 
L 233.206892 -209.452858 
L 233.953205 -208.662937 
L 234.790994 -207.873017 
L 235.719556 -207.083097 
L 236.735652 -206.293177 
L 237.833351 -205.503257 
L 239.00397 -204.713337 
L 240.23615 -203.923416 
L 241.516066 -203.133496 
L 242.827764 -202.343576 
L 244.153641 -201.553656 
L 245.475036 -200.763736 
L 246.772918 -199.973815 
L 248.028649 -199.183895 
L 249.224777 -198.393975 
L 250.345833 -197.604055 
L 251.379069 -196.814135 
L 252.315103 -196.024215 
L 253.148407 -195.234294 
L 253.877605 -194.444374 
L 254.505533 -193.654454 
L 255.039034 -192.864534 
L 255.488484 -192.074614 
L 255.867059 -191.284694 
L 256.18978 -190.494773 
L 256.472386 -189.704853 
L 256.730124 -188.914933 
L 256.976539 -188.125013 
L 257.22236 -187.335093 
L 257.474585 -186.545172 
L 257.735824 -185.755252 
L 258.003982 -184.965332 
L 258.272288 -184.175412 
L 258.529688 -183.385492 
L 258.761544 -182.595572 
L 258.950605 -181.805651 
L 259.078139 -181.015731 
L 259.125159 -180.225811 
L 259.073625 -179.435891 
L 258.907555 -178.645971 
L 258.613951 -177.85605 
L 258.183515 -177.06613 
L 257.611107 -176.27621 
L 256.895949 -175.48629 
L 256.0416 -174.69637 
L 255.055718 -173.90645 
L 253.94967 -173.116529 
L 252.738014 -172.326609 
L 251.437917 -171.536689 
L 250.068528 -170.746769 
L 248.650352 -169.956849 
L 247.204633 -169.166928 
L 245.752764 -168.377008 
L 244.315732 -167.587088 
L 242.913599 -166.797168 
L 241.565024 -166.007248 
L 240.286826 -165.217328 
L 239.093598 -164.427407 
L 237.997366 -163.637487 
L 237.007327 -162.847567 
L 236.129649 -162.057647 
L 235.36736 -161.267727 
L 234.720338 -160.477806 
L 234.185393 -159.687886 
L 233.756462 -158.897966 
L 233.424901 -158.108046 
L 233.179876 -157.318126 
L 233.008837 -156.528206 
L 232.898058 -155.738285 
L 232.83322 -154.948365 
L 232.800011 -154.158445 
L 232.78471 -153.368525 
L 232.774727 -152.578605 
L 232.759078 -151.788685 
L 232.728746 -150.998764 
L 232.676938 -150.208844 
L 232.5992 -149.418924 
L 232.493401 -148.629004 
L 232.359591 -147.839084 
L 232.199743 -147.049163 
L 232.017406 -146.259243 
L 231.817303 -145.469323 
L 231.604896 -144.679403 
L 231.385959 -143.889483 
L 231.166189 -143.099563 
L 230.950863 -142.309642 
L 230.744586 -141.519722 
L 230.551109 -140.729802 
L 230.373235 -139.939882 
L 230.212805 -139.149962 
L 230.070745 -138.360041 
L 229.94717 -137.570121 
L 229.841518 -136.780201 
z
" style="stroke: #595959; stroke-width: 1.25"/>
    </defs>
    <g clip-path="url(#pc99074544d)">
     <use xlink:href="#m3f90ec6594" x="0" y="279.674688" style="fill: #95a3c3; stroke: #595959; stroke-width: 1.25"/>
    </g>
   </g>
   <g id="matplotlib.axis_1">
    <g id="xtick_1">
     <g id="line2d_1">
      <defs>
       <path id="m0696cf4f6c" d="M 0 0 
L 0 3.5 
" style="stroke: #000000; stroke-width: 0.8"/>
      </defs>
      <g>
       <use xlink:href="#m0696cf4f6c" x="80.90951" y="242.118437" style="stroke: #000000; stroke-width: 0.8"/>
      </g>
     </g>
     <g id="text_1">
      <!-- Deep -->
      <g transform="translate(67.732166 256.716875) scale(0.1 -0.1)">
       <defs>
        <path id="DejaVuSans-44" d="M 1259 4147 
L 1259 519 
L 2022 519 
Q 2988 519 3436 956 
Q 3884 1394 3884 2338 
Q 3884 3275 3436 3711 
Q 2988 4147 2022 4147 
L 1259 4147 
z
M 628 4666 
L 1925 4666 
Q 3281 4666 3915 4102 
Q 4550 3538 4550 2338 
Q 4550 1131 3912 565 
Q 3275 0 1925 0 
L 628 0 
L 628 4666 
z
" transform="scale(0.015625)"/>
        <path id="DejaVuSans-65" d="M 3597 1894 
L 3597 1613 
L 953 1613 
Q 991 1019 1311 708 
Q 1631 397 2203 397 
Q 2534 397 2845 478 
Q 3156 559 3463 722 
L 3463 178 
Q 3153 47 2828 -22 
Q 2503 -91 2169 -91 
Q 1331 -91 842 396 
Q 353 884 353 1716 
Q 353 2575 817 3079 
Q 1281 3584 2069 3584 
Q 2775 3584 3186 3129 
Q 3597 2675 3597 1894 
z
M 3022 2063 
Q 3016 2534 2758 2815 
Q 2500 3097 2075 3097 
Q 1594 3097 1305 2825 
Q 1016 2553 972 2059 
L 3022 2063 
z
" transform="scale(0.015625)"/>
        <path id="DejaVuSans-70" d="M 1159 525 
L 1159 -1331 
L 581 -1331 
L 581 3500 
L 1159 3500 
L 1159 2969 
Q 1341 3281 1617 3432 
Q 1894 3584 2278 3584 
Q 2916 3584 3314 3078 
Q 3713 2572 3713 1747 
Q 3713 922 3314 415 
Q 2916 -91 2278 -91 
Q 1894 -91 1617 61 
Q 1341 213 1159 525 
z
M 3116 1747 
Q 3116 2381 2855 2742 
Q 2594 3103 2138 3103 
Q 1681 3103 1420 2742 
Q 1159 2381 1159 1747 
Q 1159 1113 1420 752 
Q 1681 391 2138 391 
Q 2594 391 2855 752 
Q 3116 1113 3116 1747 
z
" transform="scale(0.015625)"/>
       </defs>
       <use xlink:href="#DejaVuSans-44"/>
       <use xlink:href="#DejaVuSans-65" x="77.001953"/>
       <use xlink:href="#DejaVuSans-65" x="138.525391"/>
       <use xlink:href="#DejaVuSans-70" x="200.048828"/>
      </g>
     </g>
    </g>
    <g id="xtick_2">
     <g id="line2d_2">
      <g>
       <use xlink:href="#m0696cf4f6c" x="155.166031" y="242.118437" style="stroke: #000000; stroke-width: 0.8"/>
      </g>
     </g>
     <g id="text_2">
      <!-- Middle -->
      <g transform="translate(138.648843 256.716875) scale(0.1 -0.1)">
       <defs>
        <path id="DejaVuSans-4d" d="M 628 4666 
L 1569 4666 
L 2759 1491 
L 3956 4666 
L 4897 4666 
L 4897 0 
L 4281 0 
L 4281 4097 
L 3078 897 
L 2444 897 
L 1241 4097 
L 1241 0 
L 628 0 
L 628 4666 
z
" transform="scale(0.015625)"/>
        <path id="DejaVuSans-69" d="M 603 3500 
L 1178 3500 
L 1178 0 
L 603 0 
L 603 3500 
z
M 603 4863 
L 1178 4863 
L 1178 4134 
L 603 4134 
L 603 4863 
z
" transform="scale(0.015625)"/>
        <path id="DejaVuSans-64" d="M 2906 2969 
L 2906 4863 
L 3481 4863 
L 3481 0 
L 2906 0 
L 2906 525 
Q 2725 213 2448 61 
Q 2172 -91 1784 -91 
Q 1150 -91 751 415 
Q 353 922 353 1747 
Q 353 2572 751 3078 
Q 1150 3584 1784 3584 
Q 2172 3584 2448 3432 
Q 2725 3281 2906 2969 
z
M 947 1747 
Q 947 1113 1208 752 
Q 1469 391 1925 391 
Q 2381 391 2643 752 
Q 2906 1113 2906 1747 
Q 2906 2381 2643 2742 
Q 2381 3103 1925 3103 
Q 1469 3103 1208 2742 
Q 947 2381 947 1747 
z
" transform="scale(0.015625)"/>
        <path id="DejaVuSans-6c" d="M 603 4863 
L 1178 4863 
L 1178 0 
L 603 0 
L 603 4863 
z
" transform="scale(0.015625)"/>
       </defs>
       <use xlink:href="#DejaVuSans-4d"/>
       <use xlink:href="#DejaVuSans-69" x="86.279297"/>
       <use xlink:href="#DejaVuSans-64" x="114.0625"/>
       <use xlink:href="#DejaVuSans-64" x="177.539062"/>
       <use xlink:href="#DejaVuSans-6c" x="241.015625"/>
       <use xlink:href="#DejaVuSans-65" x="268.798828"/>
      </g>
     </g>
    </g>
    <g id="xtick_3">
     <g id="line2d_3">
      <g>
       <use xlink:href="#m0696cf4f6c" x="229.422551" y="242.118437" style="stroke: #000000; stroke-width: 0.8"/>
      </g>
     </g>
     <g id="text_3">
      <!-- Superficial -->
      <g transform="translate(203.032707 256.716875) scale(0.1 -0.1)">
       <defs>
        <path id="DejaVuSans-53" d="M 3425 4513 
L 3425 3897 
Q 3066 4069 2747 4153 
Q 2428 4238 2131 4238 
Q 1616 4238 1336 4038 
Q 1056 3838 1056 3469 
Q 1056 3159 1242 3001 
Q 1428 2844 1947 2747 
L 2328 2669 
Q 3034 2534 3370 2195 
Q 3706 1856 3706 1288 
Q 3706 609 3251 259 
Q 2797 -91 1919 -91 
Q 1588 -91 1214 -16 
Q 841 59 441 206 
L 441 856 
Q 825 641 1194 531 
Q 1563 422 1919 422 
Q 2459 422 2753 634 
Q 3047 847 3047 1241 
Q 3047 1584 2836 1778 
Q 2625 1972 2144 2069 
L 1759 2144 
Q 1053 2284 737 2584 
Q 422 2884 422 3419 
Q 422 4038 858 4394 
Q 1294 4750 2059 4750 
Q 2388 4750 2728 4690 
Q 3069 4631 3425 4513 
z
" transform="scale(0.015625)"/>
        <path id="DejaVuSans-75" d="M 544 1381 
L 544 3500 
L 1119 3500 
L 1119 1403 
Q 1119 906 1312 657 
Q 1506 409 1894 409 
Q 2359 409 2629 706 
Q 2900 1003 2900 1516 
L 2900 3500 
L 3475 3500 
L 3475 0 
L 2900 0 
L 2900 538 
Q 2691 219 2414 64 
Q 2138 -91 1772 -91 
Q 1169 -91 856 284 
Q 544 659 544 1381 
z
M 1991 3584 
L 1991 3584 
z
" transform="scale(0.015625)"/>
        <path id="DejaVuSans-72" d="M 2631 2963 
Q 2534 3019 2420 3045 
Q 2306 3072 2169 3072 
Q 1681 3072 1420 2755 
Q 1159 2438 1159 1844 
L 1159 0 
L 581 0 
L 581 3500 
L 1159 3500 
L 1159 2956 
Q 1341 3275 1631 3429 
Q 1922 3584 2338 3584 
Q 2397 3584 2469 3576 
Q 2541 3569 2628 3553 
L 2631 2963 
z
" transform="scale(0.015625)"/>
        <path id="DejaVuSans-66" d="M 2375 4863 
L 2375 4384 
L 1825 4384 
Q 1516 4384 1395 4259 
Q 1275 4134 1275 3809 
L 1275 3500 
L 2222 3500 
L 2222 3053 
L 1275 3053 
L 1275 0 
L 697 0 
L 697 3053 
L 147 3053 
L 147 3500 
L 697 3500 
L 697 3744 
Q 697 4328 969 4595 
Q 1241 4863 1831 4863 
L 2375 4863 
z
" transform="scale(0.015625)"/>
        <path id="DejaVuSans-63" d="M 3122 3366 
L 3122 2828 
Q 2878 2963 2633 3030 
Q 2388 3097 2138 3097 
Q 1578 3097 1268 2742 
Q 959 2388 959 1747 
Q 959 1106 1268 751 
Q 1578 397 2138 397 
Q 2388 397 2633 464 
Q 2878 531 3122 666 
L 3122 134 
Q 2881 22 2623 -34 
Q 2366 -91 2075 -91 
Q 1284 -91 818 406 
Q 353 903 353 1747 
Q 353 2603 823 3093 
Q 1294 3584 2113 3584 
Q 2378 3584 2631 3529 
Q 2884 3475 3122 3366 
z
" transform="scale(0.015625)"/>
        <path id="DejaVuSans-61" d="M 2194 1759 
Q 1497 1759 1228 1600 
Q 959 1441 959 1056 
Q 959 750 1161 570 
Q 1363 391 1709 391 
Q 2188 391 2477 730 
Q 2766 1069 2766 1631 
L 2766 1759 
L 2194 1759 
z
M 3341 1997 
L 3341 0 
L 2766 0 
L 2766 531 
Q 2569 213 2275 61 
Q 1981 -91 1556 -91 
Q 1019 -91 701 211 
Q 384 513 384 1019 
Q 384 1609 779 1909 
Q 1175 2209 1959 2209 
L 2766 2209 
L 2766 2266 
Q 2766 2663 2505 2880 
Q 2244 3097 1772 3097 
Q 1472 3097 1187 3025 
Q 903 2953 641 2809 
L 641 3341 
Q 956 3463 1253 3523 
Q 1550 3584 1831 3584 
Q 2591 3584 2966 3190 
Q 3341 2797 3341 1997 
z
" transform="scale(0.015625)"/>
       </defs>
       <use xlink:href="#DejaVuSans-53"/>
       <use xlink:href="#DejaVuSans-75" x="63.476562"/>
       <use xlink:href="#DejaVuSans-70" x="126.855469"/>
       <use xlink:href="#DejaVuSans-65" x="190.332031"/>
       <use xlink:href="#DejaVuSans-72" x="251.855469"/>
       <use xlink:href="#DejaVuSans-66" x="292.96875"/>
       <use xlink:href="#DejaVuSans-69" x="328.173828"/>
       <use xlink:href="#DejaVuSans-63" x="355.957031"/>
       <use xlink:href="#DejaVuSans-69" x="410.9375"/>
       <use xlink:href="#DejaVuSans-61" x="438.720703"/>
       <use xlink:href="#DejaVuSans-6c" x="500"/>
      </g>
     </g>
    </g>
    <g id="text_4">
     <!-- Layer -->
     <g transform="translate(141.224624 270.395) scale(0.1 -0.1)">
      <defs>
       <path id="DejaVuSans-4c" d="M 628 4666 
L 1259 4666 
L 1259 531 
L 3531 531 
L 3531 0 
L 628 0 
L 628 4666 
z
" transform="scale(0.015625)"/>
       <path id="DejaVuSans-79" d="M 2059 -325 
Q 1816 -950 1584 -1140 
Q 1353 -1331 966 -1331 
L 506 -1331 
L 506 -850 
L 844 -850 
Q 1081 -850 1212 -737 
Q 1344 -625 1503 -206 
L 1606 56 
L 191 3500 
L 800 3500 
L 1894 763 
L 2988 3500 
L 3597 3500 
L 2059 -325 
z
" transform="scale(0.015625)"/>
      </defs>
      <use xlink:href="#DejaVuSans-4c"/>
      <use xlink:href="#DejaVuSans-61" x="55.712891"/>
      <use xlink:href="#DejaVuSans-79" x="116.992188"/>
      <use xlink:href="#DejaVuSans-65" x="176.171875"/>
      <use xlink:href="#DejaVuSans-72" x="237.695312"/>
     </g>
    </g>
   </g>
   <g id="matplotlib.axis_2">
    <g id="ytick_1">
     <g id="line2d_4">
      <defs>
       <path id="mb1eb28a6a5" d="M 0 0 
L -3.5 0 
" style="stroke: #000000; stroke-width: 0.8"/>
      </defs>
      <g>
       <use xlink:href="#mb1eb28a6a5" x="43.78125" y="242.118437" style="stroke: #000000; stroke-width: 0.8"/>
      </g>
     </g>
     <g id="text_5">
      <!-- 0.0 -->
      <g transform="translate(20.878125 245.917656) scale(0.1 -0.1)">
       <defs>
        <path id="DejaVuSans-30" d="M 2034 4250 
Q 1547 4250 1301 3770 
Q 1056 3291 1056 2328 
Q 1056 1369 1301 889 
Q 1547 409 2034 409 
Q 2525 409 2770 889 
Q 3016 1369 3016 2328 
Q 3016 3291 2770 3770 
Q 2525 4250 2034 4250 
z
M 2034 4750 
Q 2819 4750 3233 4129 
Q 3647 3509 3647 2328 
Q 3647 1150 3233 529 
Q 2819 -91 2034 -91 
Q 1250 -91 836 529 
Q 422 1150 422 2328 
Q 422 3509 836 4129 
Q 1250 4750 2034 4750 
z
" transform="scale(0.015625)"/>
        <path id="DejaVuSans-2e" d="M 684 794 
L 1344 794 
L 1344 0 
L 684 0 
L 684 794 
z
" transform="scale(0.015625)"/>
       </defs>
       <use xlink:href="#DejaVuSans-30"/>
       <use xlink:href="#DejaVuSans-2e" x="63.623047"/>
       <use xlink:href="#DejaVuSans-30" x="95.410156"/>
      </g>
     </g>
    </g>
    <g id="ytick_2">
     <g id="line2d_5">
      <g>
       <use xlink:href="#mb1eb28a6a5" x="43.78125" y="197.854437" style="stroke: #000000; stroke-width: 0.8"/>
      </g>
     </g>
     <g id="text_6">
      <!-- 0.2 -->
      <g transform="translate(20.878125 201.653656) scale(0.1 -0.1)">
       <defs>
        <path id="DejaVuSans-32" d="M 1228 531 
L 3431 531 
L 3431 0 
L 469 0 
L 469 531 
Q 828 903 1448 1529 
Q 2069 2156 2228 2338 
Q 2531 2678 2651 2914 
Q 2772 3150 2772 3378 
Q 2772 3750 2511 3984 
Q 2250 4219 1831 4219 
Q 1534 4219 1204 4116 
Q 875 4013 500 3803 
L 500 4441 
Q 881 4594 1212 4672 
Q 1544 4750 1819 4750 
Q 2544 4750 2975 4387 
Q 3406 4025 3406 3419 
Q 3406 3131 3298 2873 
Q 3191 2616 2906 2266 
Q 2828 2175 2409 1742 
Q 1991 1309 1228 531 
z
" transform="scale(0.015625)"/>
       </defs>
       <use xlink:href="#DejaVuSans-30"/>
       <use xlink:href="#DejaVuSans-2e" x="63.623047"/>
       <use xlink:href="#DejaVuSans-32" x="95.410156"/>
      </g>
     </g>
    </g>
    <g id="ytick_3">
     <g id="line2d_6">
      <g>
       <use xlink:href="#mb1eb28a6a5" x="43.78125" y="153.590437" style="stroke: #000000; stroke-width: 0.8"/>
      </g>
     </g>
     <g id="text_7">
      <!-- 0.4 -->
      <g transform="translate(20.878125 157.389656) scale(0.1 -0.1)">
       <defs>
        <path id="DejaVuSans-34" d="M 2419 4116 
L 825 1625 
L 2419 1625 
L 2419 4116 
z
M 2253 4666 
L 3047 4666 
L 3047 1625 
L 3713 1625 
L 3713 1100 
L 3047 1100 
L 3047 0 
L 2419 0 
L 2419 1100 
L 313 1100 
L 313 1709 
L 2253 4666 
z
" transform="scale(0.015625)"/>
       </defs>
       <use xlink:href="#DejaVuSans-30"/>
       <use xlink:href="#DejaVuSans-2e" x="63.623047"/>
       <use xlink:href="#DejaVuSans-34" x="95.410156"/>
      </g>
     </g>
    </g>
    <g id="ytick_4">
     <g id="line2d_7">
      <g>
       <use xlink:href="#mb1eb28a6a5" x="43.78125" y="109.326437" style="stroke: #000000; stroke-width: 0.8"/>
      </g>
     </g>
     <g id="text_8">
      <!-- 0.6 -->
      <g transform="translate(20.878125 113.125656) scale(0.1 -0.1)">
       <defs>
        <path id="DejaVuSans-36" d="M 2113 2584 
Q 1688 2584 1439 2293 
Q 1191 2003 1191 1497 
Q 1191 994 1439 701 
Q 1688 409 2113 409 
Q 2538 409 2786 701 
Q 3034 994 3034 1497 
Q 3034 2003 2786 2293 
Q 2538 2584 2113 2584 
z
M 3366 4563 
L 3366 3988 
Q 3128 4100 2886 4159 
Q 2644 4219 2406 4219 
Q 1781 4219 1451 3797 
Q 1122 3375 1075 2522 
Q 1259 2794 1537 2939 
Q 1816 3084 2150 3084 
Q 2853 3084 3261 2657 
Q 3669 2231 3669 1497 
Q 3669 778 3244 343 
Q 2819 -91 2113 -91 
Q 1303 -91 875 529 
Q 447 1150 447 2328 
Q 447 3434 972 4092 
Q 1497 4750 2381 4750 
Q 2619 4750 2861 4703 
Q 3103 4656 3366 4563 
z
" transform="scale(0.015625)"/>
       </defs>
       <use xlink:href="#DejaVuSans-30"/>
       <use xlink:href="#DejaVuSans-2e" x="63.623047"/>
       <use xlink:href="#DejaVuSans-36" x="95.410156"/>
      </g>
     </g>
    </g>
    <g id="ytick_5">
     <g id="line2d_8">
      <g>
       <use xlink:href="#mb1eb28a6a5" x="43.78125" y="65.062437" style="stroke: #000000; stroke-width: 0.8"/>
      </g>
     </g>
     <g id="text_9">
      <!-- 0.8 -->
      <g transform="translate(20.878125 68.861656) scale(0.1 -0.1)">
       <defs>
        <path id="DejaVuSans-38" d="M 2034 2216 
Q 1584 2216 1326 1975 
Q 1069 1734 1069 1313 
Q 1069 891 1326 650 
Q 1584 409 2034 409 
Q 2484 409 2743 651 
Q 3003 894 3003 1313 
Q 3003 1734 2745 1975 
Q 2488 2216 2034 2216 
z
M 1403 2484 
Q 997 2584 770 2862 
Q 544 3141 544 3541 
Q 544 4100 942 4425 
Q 1341 4750 2034 4750 
Q 2731 4750 3128 4425 
Q 3525 4100 3525 3541 
Q 3525 3141 3298 2862 
Q 3072 2584 2669 2484 
Q 3125 2378 3379 2068 
Q 3634 1759 3634 1313 
Q 3634 634 3220 271 
Q 2806 -91 2034 -91 
Q 1263 -91 848 271 
Q 434 634 434 1313 
Q 434 1759 690 2068 
Q 947 2378 1403 2484 
z
M 1172 3481 
Q 1172 3119 1398 2916 
Q 1625 2713 2034 2713 
Q 2441 2713 2670 2916 
Q 2900 3119 2900 3481 
Q 2900 3844 2670 4047 
Q 2441 4250 2034 4250 
Q 1625 4250 1398 4047 
Q 1172 3844 1172 3481 
z
" transform="scale(0.015625)"/>
       </defs>
       <use xlink:href="#DejaVuSans-30"/>
       <use xlink:href="#DejaVuSans-2e" x="63.623047"/>
       <use xlink:href="#DejaVuSans-38" x="95.410156"/>
      </g>
     </g>
    </g>
    <g id="ytick_6">
     <g id="line2d_9">
      <g>
       <use xlink:href="#mb1eb28a6a5" x="43.78125" y="20.798437" style="stroke: #000000; stroke-width: 0.8"/>
      </g>
     </g>
     <g id="text_10">
      <!-- 1.0 -->
      <g transform="translate(20.878125 24.597656) scale(0.1 -0.1)">
       <defs>
        <path id="DejaVuSans-31" d="M 794 531 
L 1825 531 
L 1825 4091 
L 703 3866 
L 703 4441 
L 1819 4666 
L 2450 4666 
L 2450 531 
L 3481 531 
L 3481 0 
L 794 0 
L 794 531 
z
" transform="scale(0.015625)"/>
       </defs>
       <use xlink:href="#DejaVuSans-31"/>
       <use xlink:href="#DejaVuSans-2e" x="63.623047"/>
       <use xlink:href="#DejaVuSans-30" x="95.410156"/>
      </g>
     </g>
    </g>
    <g id="text_11">
     <!-- Accuracy -->
     <g transform="translate(14.798438 154.286563) rotate(-90) scale(0.1 -0.1)">
      <defs>
       <path id="DejaVuSans-41" d="M 2188 4044 
L 1331 1722 
L 3047 1722 
L 2188 4044 
z
M 1831 4666 
L 2547 4666 
L 4325 0 
L 3669 0 
L 3244 1197 
L 1141 1197 
L 716 0 
L 50 0 
L 1831 4666 
z
" transform="scale(0.015625)"/>
      </defs>
      <use xlink:href="#DejaVuSans-41"/>
      <use xlink:href="#DejaVuSans-63" x="66.658203"/>
      <use xlink:href="#DejaVuSans-63" x="121.638672"/>
      <use xlink:href="#DejaVuSans-75" x="176.619141"/>
      <use xlink:href="#DejaVuSans-72" x="239.998047"/>
      <use xlink:href="#DejaVuSans-61" x="281.111328"/>
      <use xlink:href="#DejaVuSans-63" x="342.390625"/>
      <use xlink:href="#DejaVuSans-79" x="397.371094"/>
     </g>
    </g>
   </g>
   <g id="line2d_10">
    <path d="M 43.78125 131.458438 
L 266.550811 131.458438 
" clip-path="url(#pc99074544d)" style="fill: none; stroke-dasharray: 5.55,2.4; stroke-dashoffset: 0; stroke: #808080; stroke-width: 1.5"/>
   </g>
   <g id="patch_3">
    <path d="M 43.78125 242.118437 
L 43.78125 20.798437 
" style="fill: none; stroke: #000000; stroke-width: 0.8; stroke-linejoin: miter; stroke-linecap: square"/>
   </g>
   <g id="patch_4">
    <path d="M 43.78125 242.118437 
L 266.550811 242.118437 
" style="fill: none; stroke: #000000; stroke-width: 0.8; stroke-linejoin: miter; stroke-linecap: square"/>
   </g>
   <g id="PathCollection_1">
    <defs>
     <path id="mb6a8c3f553" d="M 0 1.25 
C 0.331504 1.25 0.649475 1.118292 0.883883 0.883883 
C 1.118292 0.649475 1.25 0.331504 1.25 0 
C 1.25 -0.331504 1.118292 -0.649475 0.883883 -0.883883 
C 0.649475 -1.118292 0.331504 -1.25 0 -1.25 
C -0.331504 -1.25 -0.649475 -1.118292 -0.883883 -0.883883 
C -1.118292 -0.649475 -1.25 -0.331504 -1.25 0 
C -1.25 0.331504 -1.118292 0.649475 -0.883883 0.883883 
C -0.649475 1.118292 -0.331504 1.25 0 1.25 
z
" style="stroke: #595959"/>
    </defs>
    <g clip-path="url(#pc99074544d)">
     <use xlink:href="#mb6a8c3f553" x="80.90951" y="29.651237" style="fill: #595959; stroke: #595959"/>
     <use xlink:href="#mb6a8c3f553" x="80.90951" y="27.438037" style="fill: #595959; stroke: #595959"/>
     <use xlink:href="#mb6a8c3f553" x="80.90951" y="27.438037" style="fill: #595959; stroke: #595959"/>
     <use xlink:href="#mb6a8c3f553" x="80.90951" y="31.864437" style="fill: #595959; stroke: #595959"/>
     <use xlink:href="#mb6a8c3f553" x="80.90951" y="31.864437" style="fill: #595959; stroke: #595959"/>
     <use xlink:href="#mb6a8c3f553" x="80.90951" y="23.011637" style="fill: #595959; stroke: #595959"/>
     <use xlink:href="#mb6a8c3f553" x="80.90951" y="20.798437" style="fill: #595959; stroke: #595959"/>
     <use xlink:href="#mb6a8c3f553" x="80.90951" y="27.438037" style="fill: #595959; stroke: #595959"/>
     <use xlink:href="#mb6a8c3f553" x="80.90951" y="20.798437" style="fill: #595959; stroke: #595959"/>
     <use xlink:href="#mb6a8c3f553" x="80.90951" y="25.224837" style="fill: #595959; stroke: #595959"/>
     <use xlink:href="#mb6a8c3f553" x="80.90951" y="25.224837" style="fill: #595959; stroke: #595959"/>
     <use xlink:href="#mb6a8c3f553" x="80.90951" y="25.224837" style="fill: #595959; stroke: #595959"/>
     <use xlink:href="#mb6a8c3f553" x="80.90951" y="29.651237" style="fill: #595959; stroke: #595959"/>
     <use xlink:href="#mb6a8c3f553" x="80.90951" y="25.224837" style="fill: #595959; stroke: #595959"/>
     <use xlink:href="#mb6a8c3f553" x="80.90951" y="20.798437" style="fill: #595959; stroke: #595959"/>
     <use xlink:href="#mb6a8c3f553" x="80.90951" y="25.224837" style="fill: #595959; stroke: #595959"/>
     <use xlink:href="#mb6a8c3f553" x="80.90951" y="29.651237" style="fill: #595959; stroke: #595959"/>
     <use xlink:href="#mb6a8c3f553" x="80.90951" y="25.224837" style="fill: #595959; stroke: #595959"/>
     <use xlink:href="#mb6a8c3f553" x="80.90951" y="25.224837" style="fill: #595959; stroke: #595959"/>
     <use xlink:href="#mb6a8c3f553" x="80.90951" y="23.011637" style="fill: #595959; stroke: #595959"/>
    </g>
   </g>
   <g id="PathCollection_2">
    <g clip-path="url(#pc99074544d)">
     <use xlink:href="#mb6a8c3f553" x="155.166031" y="96.047237" style="fill: #595959; stroke: #595959"/>
     <use xlink:href="#mb6a8c3f553" x="155.166031" y="89.407637" style="fill: #595959; stroke: #595959"/>
     <use xlink:href="#mb6a8c3f553" x="155.166031" y="80.554837" style="fill: #595959; stroke: #595959"/>
     <use xlink:href="#mb6a8c3f553" x="155.166031" y="67.275637" style="fill: #595959; stroke: #595959"/>
     <use xlink:href="#mb6a8c3f553" x="155.166031" y="78.341637" style="fill: #595959; stroke: #595959"/>
     <use xlink:href="#mb6a8c3f553" x="155.166031" y="73.915237" style="fill: #595959; stroke: #595959"/>
     <use xlink:href="#mb6a8c3f553" x="155.166031" y="87.194437" style="fill: #595959; stroke: #595959"/>
     <use xlink:href="#mb6a8c3f553" x="155.166031" y="91.620837" style="fill: #595959; stroke: #595959"/>
     <use xlink:href="#mb6a8c3f553" x="155.166031" y="96.047237" style="fill: #595959; stroke: #595959"/>
     <use xlink:href="#mb6a8c3f553" x="155.166031" y="62.849237" style="fill: #595959; stroke: #595959"/>
     <use xlink:href="#mb6a8c3f553" x="155.166031" y="104.900038" style="fill: #595959; stroke: #595959"/>
     <use xlink:href="#mb6a8c3f553" x="155.166031" y="65.062437" style="fill: #595959; stroke: #595959"/>
     <use xlink:href="#mb6a8c3f553" x="155.166031" y="102.686837" style="fill: #595959; stroke: #595959"/>
     <use xlink:href="#mb6a8c3f553" x="155.166031" y="87.194437" style="fill: #595959; stroke: #595959"/>
     <use xlink:href="#mb6a8c3f553" x="155.166031" y="65.062437" style="fill: #595959; stroke: #595959"/>
     <use xlink:href="#mb6a8c3f553" x="155.166031" y="78.341637" style="fill: #595959; stroke: #595959"/>
     <use xlink:href="#mb6a8c3f553" x="155.166031" y="104.900037" style="fill: #595959; stroke: #595959"/>
     <use xlink:href="#mb6a8c3f553" x="155.166031" y="102.686837" style="fill: #595959; stroke: #595959"/>
     <use xlink:href="#mb6a8c3f553" x="155.166031" y="93.834037" style="fill: #595959; stroke: #595959"/>
     <use xlink:href="#mb6a8c3f553" x="155.166031" y="98.260437" style="fill: #595959; stroke: #595959"/>
    </g>
   </g>
   <g id="PathCollection_3">
    <g clip-path="url(#pc99074544d)">
     <use xlink:href="#mb6a8c3f553" x="229.422551" y="111.539637" style="fill: #595959; stroke: #595959"/>
     <use xlink:href="#mb6a8c3f553" x="229.422551" y="84.981237" style="fill: #595959; stroke: #595959"/>
     <use xlink:href="#mb6a8c3f553" x="229.422551" y="100.473637" style="fill: #595959; stroke: #595959"/>
     <use xlink:href="#mb6a8c3f553" x="229.422551" y="100.473637" style="fill: #595959; stroke: #595959"/>
     <use xlink:href="#mb6a8c3f553" x="229.422551" y="80.554837" style="fill: #595959; stroke: #595959"/>
     <use xlink:href="#mb6a8c3f553" x="229.422551" y="102.686837" style="fill: #595959; stroke: #595959"/>
     <use xlink:href="#mb6a8c3f553" x="229.422551" y="98.260437" style="fill: #595959; stroke: #595959"/>
     <use xlink:href="#mb6a8c3f553" x="229.422551" y="89.407637" style="fill: #595959; stroke: #595959"/>
     <use xlink:href="#mb6a8c3f553" x="229.422551" y="82.768037" style="fill: #595959; stroke: #595959"/>
     <use xlink:href="#mb6a8c3f553" x="229.422551" y="96.047237" style="fill: #595959; stroke: #595959"/>
     <use xlink:href="#mb6a8c3f553" x="229.422551" y="87.194437" style="fill: #595959; stroke: #595959"/>
     <use xlink:href="#mb6a8c3f553" x="229.422551" y="102.686837" style="fill: #595959; stroke: #595959"/>
     <use xlink:href="#mb6a8c3f553" x="229.422551" y="129.245237" style="fill: #595959; stroke: #595959"/>
     <use xlink:href="#mb6a8c3f553" x="229.422551" y="87.194437" style="fill: #595959; stroke: #595959"/>
     <use xlink:href="#mb6a8c3f553" x="229.422551" y="89.407637" style="fill: #595959; stroke: #595959"/>
     <use xlink:href="#mb6a8c3f553" x="229.422551" y="96.047237" style="fill: #595959; stroke: #595959"/>
     <use xlink:href="#mb6a8c3f553" x="229.422551" y="78.341637" style="fill: #595959; stroke: #595959"/>
     <use xlink:href="#mb6a8c3f553" x="229.422551" y="107.113237" style="fill: #595959; stroke: #595959"/>
     <use xlink:href="#mb6a8c3f553" x="229.422551" y="104.900037" style="fill: #595959; stroke: #595959"/>
     <use xlink:href="#mb6a8c3f553" x="229.422551" y="109.326437" style="fill: #595959; stroke: #595959"/>
    </g>
   </g>
   <g id="text_12">
    <!-- Rho = 0.4 -->
    <g transform="translate(273.08589 106.436563) rotate(-270) scale(0.1 -0.1)">
     <defs>
      <path id="DejaVuSans-52" d="M 2841 2188 
Q 3044 2119 3236 1894 
Q 3428 1669 3622 1275 
L 4263 0 
L 3584 0 
L 2988 1197 
Q 2756 1666 2539 1819 
Q 2322 1972 1947 1972 
L 1259 1972 
L 1259 0 
L 628 0 
L 628 4666 
L 2053 4666 
Q 2853 4666 3247 4331 
Q 3641 3997 3641 3322 
Q 3641 2881 3436 2590 
Q 3231 2300 2841 2188 
z
M 1259 4147 
L 1259 2491 
L 2053 2491 
Q 2509 2491 2742 2702 
Q 2975 2913 2975 3322 
Q 2975 3731 2742 3939 
Q 2509 4147 2053 4147 
L 1259 4147 
z
" transform="scale(0.015625)"/>
      <path id="DejaVuSans-68" d="M 3513 2113 
L 3513 0 
L 2938 0 
L 2938 2094 
Q 2938 2591 2744 2837 
Q 2550 3084 2163 3084 
Q 1697 3084 1428 2787 
Q 1159 2491 1159 1978 
L 1159 0 
L 581 0 
L 581 4863 
L 1159 4863 
L 1159 2956 
Q 1366 3272 1645 3428 
Q 1925 3584 2291 3584 
Q 2894 3584 3203 3211 
Q 3513 2838 3513 2113 
z
" transform="scale(0.015625)"/>
      <path id="DejaVuSans-6f" d="M 1959 3097 
Q 1497 3097 1228 2736 
Q 959 2375 959 1747 
Q 959 1119 1226 758 
Q 1494 397 1959 397 
Q 2419 397 2687 759 
Q 2956 1122 2956 1747 
Q 2956 2369 2687 2733 
Q 2419 3097 1959 3097 
z
M 1959 3584 
Q 2709 3584 3137 3096 
Q 3566 2609 3566 1747 
Q 3566 888 3137 398 
Q 2709 -91 1959 -91 
Q 1206 -91 779 398 
Q 353 888 353 1747 
Q 353 2609 779 3096 
Q 1206 3584 1959 3584 
z
" transform="scale(0.015625)"/>
      <path id="DejaVuSans-20" transform="scale(0.015625)"/>
      <path id="DejaVuSans-3d" d="M 678 2906 
L 4684 2906 
L 4684 2381 
L 678 2381 
L 678 2906 
z
M 678 1631 
L 4684 1631 
L 4684 1100 
L 678 1100 
L 678 1631 
z
" transform="scale(0.015625)"/>
     </defs>
     <use xlink:href="#DejaVuSans-52"/>
     <use xlink:href="#DejaVuSans-68" x="69.482422"/>
     <use xlink:href="#DejaVuSans-6f" x="132.861328"/>
     <use xlink:href="#DejaVuSans-20" x="194.042969"/>
     <use xlink:href="#DejaVuSans-3d" x="225.830078"/>
     <use xlink:href="#DejaVuSans-20" x="309.619141"/>
     <use xlink:href="#DejaVuSans-30" x="341.40625"/>
     <use xlink:href="#DejaVuSans-2e" x="405.029297"/>
     <use xlink:href="#DejaVuSans-34" x="436.816406"/>
    </g>
   </g>
   <g id="text_13">
    <!-- CNR_change = 1 -->
    <g transform="translate(113.008999 14.798437) scale(0.1 -0.1)">
     <defs>
      <path id="DejaVuSans-43" d="M 4122 4306 
L 4122 3641 
Q 3803 3938 3442 4084 
Q 3081 4231 2675 4231 
Q 1875 4231 1450 3742 
Q 1025 3253 1025 2328 
Q 1025 1406 1450 917 
Q 1875 428 2675 428 
Q 3081 428 3442 575 
Q 3803 722 4122 1019 
L 4122 359 
Q 3791 134 3420 21 
Q 3050 -91 2638 -91 
Q 1578 -91 968 557 
Q 359 1206 359 2328 
Q 359 3453 968 4101 
Q 1578 4750 2638 4750 
Q 3056 4750 3426 4639 
Q 3797 4528 4122 4306 
z
" transform="scale(0.015625)"/>
      <path id="DejaVuSans-4e" d="M 628 4666 
L 1478 4666 
L 3547 763 
L 3547 4666 
L 4159 4666 
L 4159 0 
L 3309 0 
L 1241 3903 
L 1241 0 
L 628 0 
L 628 4666 
z
" transform="scale(0.015625)"/>
      <path id="DejaVuSans-5f" d="M 3263 -1063 
L 3263 -1509 
L -63 -1509 
L -63 -1063 
L 3263 -1063 
z
" transform="scale(0.015625)"/>
      <path id="DejaVuSans-6e" d="M 3513 2113 
L 3513 0 
L 2938 0 
L 2938 2094 
Q 2938 2591 2744 2837 
Q 2550 3084 2163 3084 
Q 1697 3084 1428 2787 
Q 1159 2491 1159 1978 
L 1159 0 
L 581 0 
L 581 3500 
L 1159 3500 
L 1159 2956 
Q 1366 3272 1645 3428 
Q 1925 3584 2291 3584 
Q 2894 3584 3203 3211 
Q 3513 2838 3513 2113 
z
" transform="scale(0.015625)"/>
      <path id="DejaVuSans-67" d="M 2906 1791 
Q 2906 2416 2648 2759 
Q 2391 3103 1925 3103 
Q 1463 3103 1205 2759 
Q 947 2416 947 1791 
Q 947 1169 1205 825 
Q 1463 481 1925 481 
Q 2391 481 2648 825 
Q 2906 1169 2906 1791 
z
M 3481 434 
Q 3481 -459 3084 -895 
Q 2688 -1331 1869 -1331 
Q 1566 -1331 1297 -1286 
Q 1028 -1241 775 -1147 
L 775 -588 
Q 1028 -725 1275 -790 
Q 1522 -856 1778 -856 
Q 2344 -856 2625 -561 
Q 2906 -266 2906 331 
L 2906 616 
Q 2728 306 2450 153 
Q 2172 0 1784 0 
Q 1141 0 747 490 
Q 353 981 353 1791 
Q 353 2603 747 3093 
Q 1141 3584 1784 3584 
Q 2172 3584 2450 3431 
Q 2728 3278 2906 2969 
L 2906 3500 
L 3481 3500 
L 3481 434 
z
" transform="scale(0.015625)"/>
     </defs>
     <use xlink:href="#DejaVuSans-43"/>
     <use xlink:href="#DejaVuSans-4e" x="69.824219"/>
     <use xlink:href="#DejaVuSans-52" x="144.628906"/>
     <use xlink:href="#DejaVuSans-5f" x="214.111328"/>
     <use xlink:href="#DejaVuSans-63" x="264.111328"/>
     <use xlink:href="#DejaVuSans-68" x="319.091797"/>
     <use xlink:href="#DejaVuSans-61" x="382.470703"/>
     <use xlink:href="#DejaVuSans-6e" x="443.75"/>
     <use xlink:href="#DejaVuSans-67" x="507.128906"/>
     <use xlink:href="#DejaVuSans-65" x="570.605469"/>
     <use xlink:href="#DejaVuSans-20" x="632.128906"/>
     <use xlink:href="#DejaVuSans-3d" x="663.916016"/>
     <use xlink:href="#DejaVuSans-20" x="747.705078"/>
     <use xlink:href="#DejaVuSans-31" x="779.492188"/>
    </g>
   </g>
  </g>
  <g id="legend_1"/>
 </g>
 <defs>
  <clipPath id="pc99074544d">
   <rect x="43.78125" y="20.798437" width="222.769561" height="221.32"/>
  </clipPath>
 </defs>
</svg>
