<?xml version="1.0" encoding="utf-8" standalone="no"?>
<!DOCTYPE svg PUBLIC "-//W3C//DTD SVG 1.1//EN"
  "http://www.w3.org/Graphics/SVG/1.1/DTD/svg11.dtd">
<svg xmlns:xlink="http://www.w3.org/1999/xlink" width="294.17125pt" height="279.674688pt" viewBox="0 0 294.17125 279.674688" xmlns="http://www.w3.org/2000/svg" version="1.1">
 <metadata>
  <rdf:RDF xmlns:dc="http://purl.org/dc/elements/1.1/" xmlns:cc="http://creativecommons.org/ns#" xmlns:rdf="http://www.w3.org/1999/02/22-rdf-syntax-ns#">
   <cc:Work>
    <dc:type rdf:resource="http://purl.org/dc/dcmitype/StillImage"/>
    <dc:date>2025-08-25T15:50:56.320545</dc:date>
    <dc:format>image/svg+xml</dc:format>
    <dc:creator>
     <cc:Agent>
      <dc:title>Matplotlib v3.8.4, https://matplotlib.org/</dc:title>
     </cc:Agent>
    </dc:creator>
   </cc:Work>
  </rdf:RDF>
 </metadata>
 <defs>
  <style type="text/css">*{stroke-linejoin: round; stroke-linecap: butt}</style>
 </defs>
 <g id="figure_1">
  <g id="patch_1">
   <path d="M 0 279.674688 
L 294.17125 279.674688 
L 294.17125 0 
L 0 0 
z
" style="fill: #ffffff"/>
  </g>
  <g id="axes_1">
   <g id="patch_2">
    <path d="M 43.78125 242.118437 
L 266.550811 242.118437 
L 266.550811 20.798437 
L 43.78125 20.798437 
z
" style="fill: #ffffff"/>
   </g>
   <g id="PolyCollection_1">
    <defs>
     <path id="m222734b9b1" d="M 81.57179 -110.890331 
L 80.247231 -110.890331 
L 80.066147 -111.733812 
L 79.847532 -112.577293 
L 79.587097 -113.420774 
L 79.280988 -114.264256 
L 78.926057 -115.107737 
L 78.520162 -115.951218 
L 78.062452 -116.794699 
L 77.553642 -117.63818 
L 76.996237 -118.481662 
L 76.394692 -119.325143 
L 75.755472 -120.168624 
L 75.087017 -121.012105 
L 74.399565 -121.855586 
L 73.70486 -122.699068 
L 73.015726 -123.542549 
L 72.345532 -124.38603 
L 71.707559 -125.229511 
L 71.11431 -126.072992 
L 70.576794 -126.916474 
L 70.103825 -127.759955 
L 69.701381 -128.603436 
L 69.372068 -129.446917 
L 69.114715 -130.290398 
L 68.924146 -131.13388 
L 68.791148 -131.977361 
L 68.702641 -132.820842 
L 68.642068 -133.664323 
L 68.58998 -134.507804 
L 68.524819 -135.351286 
L 68.423852 -136.194767 
L 68.264228 -137.038248 
L 68.024115 -137.881729 
L 67.68386 -138.72521 
L 67.227121 -139.568691 
L 66.641909 -140.412173 
L 65.92149 -141.255654 
L 65.065089 -142.099135 
L 64.078348 -142.942616 
L 62.973514 -143.786097 
L 61.769308 -144.629579 
L 60.490502 -145.47306 
L 59.167166 -146.316541 
L 57.833652 -147.160022 
L 56.527319 -148.003503 
L 55.287076 -148.846985 
L 54.151791 -149.690466 
L 53.158662 -150.533947 
L 52.341605 -151.377428 
L 51.729764 -152.220909 
L 51.346212 -153.064391 
L 51.206902 -153.907872 
L 51.319947 -154.751353 
L 51.685255 -155.594834 
L 52.29455 -156.438315 
L 53.131774 -157.281797 
L 54.173855 -158.125278 
L 55.391804 -158.968759 
L 56.752064 -159.81224 
L 58.218055 -160.655721 
L 59.751811 -161.499203 
L 61.315628 -162.342684 
L 62.873621 -163.186165 
L 64.393116 -164.029646 
L 65.845804 -164.873127 
L 67.208594 -165.716609 
L 68.464154 -166.56009 
L 69.601109 -167.403571 
L 70.613927 -168.247052 
L 71.502516 -169.090533 
L 72.271583 -169.934014 
L 72.929811 -170.777496 
L 73.488934 -171.620977 
L 73.962746 -172.464458 
L 74.366145 -173.307939 
L 74.714222 -174.15142 
L 75.02148 -174.994902 
L 75.301174 -175.838383 
L 75.564825 -176.681864 
L 75.821888 -177.525345 
L 76.07958 -178.368826 
L 76.342862 -179.212308 
L 76.614538 -180.055789 
L 76.895463 -180.89927 
L 77.18483 -181.742751 
L 77.480499 -182.586232 
L 77.779359 -183.429714 
L 78.077685 -184.273195 
L 78.371479 -185.116676 
L 78.656767 -185.960157 
L 78.929859 -186.803638 
L 79.187543 -187.64712 
L 79.427224 -188.490601 
L 79.647003 -189.334082 
L 79.8457 -190.177563 
L 80.022837 -191.021044 
L 80.178574 -191.864526 
L 80.313623 -192.708007 
L 80.429141 -193.551488 
L 80.526621 -194.394969 
L 81.2924 -194.394969 
L 81.2924 -194.394969 
L 81.38988 -193.551488 
L 81.505398 -192.708007 
L 81.640446 -191.864526 
L 81.796183 -191.021044 
L 81.97332 -190.177563 
L 82.172018 -189.334082 
L 82.391796 -188.490601 
L 82.631477 -187.64712 
L 82.889161 -186.803638 
L 83.162254 -185.960157 
L 83.447542 -185.116676 
L 83.741335 -184.273195 
L 84.039662 -183.429714 
L 84.338522 -182.586232 
L 84.634191 -181.742751 
L 84.923557 -180.89927 
L 85.204482 -180.055789 
L 85.476158 -179.212308 
L 85.73944 -178.368826 
L 85.997133 -177.525345 
L 86.254195 -176.681864 
L 86.517847 -175.838383 
L 86.797541 -174.994902 
L 87.104798 -174.15142 
L 87.452876 -173.307939 
L 87.856274 -172.464458 
L 88.330087 -171.620977 
L 88.889209 -170.777496 
L 89.547438 -169.934014 
L 90.316504 -169.090533 
L 91.205093 -168.247052 
L 92.217911 -167.403571 
L 93.354866 -166.56009 
L 94.610426 -165.716609 
L 95.973216 -164.873127 
L 97.425904 -164.029646 
L 98.9454 -163.186165 
L 100.503392 -162.342684 
L 102.067209 -161.499203 
L 103.600965 -160.655721 
L 105.066956 -159.81224 
L 106.427216 -158.968759 
L 107.645165 -158.125278 
L 108.687246 -157.281797 
L 109.52447 -156.438315 
L 110.133765 -155.594834 
L 110.499073 -154.751353 
L 110.612118 -153.907872 
L 110.472808 -153.064391 
L 110.089256 -152.220909 
L 109.477416 -151.377428 
L 108.660358 -150.533947 
L 107.667229 -149.690466 
L 106.531945 -148.846985 
L 105.291701 -148.003503 
L 103.985369 -147.160022 
L 102.651855 -146.316541 
L 101.328519 -145.47306 
L 100.049712 -144.629579 
L 98.845507 -143.786097 
L 97.740672 -142.942616 
L 96.753932 -142.099135 
L 95.89753 -141.255654 
L 95.177112 -140.412173 
L 94.5919 -139.568691 
L 94.135161 -138.72521 
L 93.794906 -137.881729 
L 93.554793 -137.038248 
L 93.395168 -136.194767 
L 93.294201 -135.351286 
L 93.22904 -134.507804 
L 93.176953 -133.664323 
L 93.116379 -132.820842 
L 93.027873 -131.977361 
L 92.894875 -131.13388 
L 92.704306 -130.290398 
L 92.446952 -129.446917 
L 92.117639 -128.603436 
L 91.715196 -127.759955 
L 91.242226 -126.916474 
L 90.70471 -126.072992 
L 90.111461 -125.229511 
L 89.473488 -124.38603 
L 88.803294 -123.542549 
L 88.114161 -122.699068 
L 87.419456 -121.855586 
L 86.732003 -121.012105 
L 86.063548 -120.168624 
L 85.424329 -119.325143 
L 84.822783 -118.481662 
L 84.265379 -117.63818 
L 83.756569 -116.794699 
L 83.298859 -115.951218 
L 82.892963 -115.107737 
L 82.538033 -114.264256 
L 82.231923 -113.420774 
L 81.971488 -112.577293 
L 81.752874 -111.733812 
L 81.57179 -110.890331 
z
" style="stroke: #595959; stroke-width: 1.25"/>
    </defs>
    <g clip-path="url(#pf3990d2555)">
     <use xlink:href="#m222734b9b1" x="0" y="279.674688" style="fill: #72b6a1; stroke: #595959; stroke-width: 1.25"/>
    </g>
   </g>
   <g id="PolyCollection_2">
    <defs>
     <path id="mc60be8d224" d="M 155.56736 -163.76702 
L 154.764701 -163.76702 
L 154.65791 -164.548285 
L 154.530882 -165.32955 
L 154.382026 -166.110816 
L 154.21016 -166.892081 
L 154.014596 -167.673346 
L 153.79522 -168.454611 
L 153.552512 -169.235877 
L 153.28753 -170.017142 
L 153.001838 -170.798407 
L 152.697385 -171.579672 
L 152.376338 -172.360938 
L 152.040891 -173.142203 
L 151.693064 -173.923468 
L 151.334504 -174.704733 
L 150.966339 -175.485999 
L 150.589056 -176.267264 
L 150.202465 -177.048529 
L 149.805712 -177.829794 
L 149.39736 -178.61106 
L 148.975516 -179.392325 
L 148.537989 -180.17359 
L 148.082454 -180.954855 
L 147.606603 -181.736121 
L 147.108265 -182.517386 
L 146.585492 -183.298651 
L 146.036593 -184.079917 
L 145.460138 -184.861182 
L 144.854927 -185.642447 
L 144.219961 -186.423712 
L 143.5544 -187.204978 
L 142.857554 -187.986243 
L 142.128893 -188.767508 
L 141.368095 -189.548773 
L 140.575127 -190.330039 
L 139.75035 -191.111304 
L 138.894663 -191.892569 
L 138.009652 -192.673834 
L 137.097761 -193.4551 
L 136.162458 -194.236365 
L 135.208401 -195.01763 
L 134.241586 -195.798895 
L 133.269458 -196.580161 
L 132.300976 -197.361426 
L 131.346606 -198.142691 
L 130.418216 -198.923956 
L 129.528882 -199.705222 
L 128.692567 -200.486487 
L 127.923706 -201.267752 
L 127.236709 -202.049017 
L 126.645401 -202.830283 
L 126.162469 -203.611548 
L 125.798939 -204.392813 
L 125.563745 -205.174078 
L 125.463422 -205.955344 
L 125.501938 -206.736609 
L 125.680676 -207.517874 
L 125.998552 -208.299139 
L 126.452219 -209.080405 
L 127.036336 -209.86167 
L 127.743833 -210.642935 
L 128.566155 -211.4242 
L 129.493438 -212.205466 
L 130.514629 -212.986731 
L 131.617543 -213.767996 
L 132.788902 -214.549261 
L 134.014382 -215.330527 
L 135.278722 -216.111792 
L 136.565927 -216.893057 
L 137.85958 -217.674322 
L 139.143286 -218.455588 
L 140.4012 -219.236853 
L 141.618629 -220.018118 
L 142.782629 -220.799383 
L 143.882547 -221.580649 
L 144.910449 -222.361914 
L 145.86137 -223.143179 
L 146.733368 -223.924445 
L 147.527373 -224.70571 
L 148.246834 -225.486975 
L 148.897205 -226.26824 
L 149.485335 -227.049506 
L 150.018808 -227.830771 
L 150.505306 -228.612036 
L 150.952048 -229.393301 
L 151.365352 -230.174567 
L 151.750347 -230.955832 
L 152.110841 -231.737097 
L 152.449336 -232.518362 
L 152.767164 -233.299628 
L 153.064723 -234.080893 
L 153.341753 -234.862158 
L 153.597631 -235.643423 
L 153.831647 -236.424689 
L 154.043235 -237.205954 
L 154.232142 -237.987219 
L 154.39853 -238.768484 
L 154.543019 -239.54975 
L 154.666663 -240.331015 
L 154.770895 -241.11228 
L 155.561166 -241.11228 
L 155.561166 -241.11228 
L 155.665398 -240.331015 
L 155.789042 -239.54975 
L 155.933531 -238.768484 
L 156.099919 -237.987219 
L 156.288826 -237.205954 
L 156.500414 -236.424689 
L 156.73443 -235.643423 
L 156.990308 -234.862158 
L 157.267338 -234.080893 
L 157.564897 -233.299628 
L 157.882725 -232.518362 
L 158.22122 -231.737097 
L 158.581714 -230.955832 
L 158.966709 -230.174567 
L 159.380013 -229.393301 
L 159.826755 -228.612036 
L 160.313253 -227.830771 
L 160.846726 -227.049506 
L 161.434857 -226.26824 
L 162.085227 -225.486975 
L 162.804688 -224.70571 
L 163.598693 -223.924445 
L 164.470692 -223.143179 
L 165.421612 -222.361914 
L 166.449514 -221.580649 
L 167.549433 -220.799383 
L 168.713432 -220.018118 
L 169.930861 -219.236853 
L 171.188776 -218.455588 
L 172.472481 -217.674322 
L 173.766134 -216.893057 
L 175.053339 -216.111792 
L 176.317679 -215.330527 
L 177.543159 -214.549261 
L 178.714518 -213.767996 
L 179.817432 -212.986731 
L 180.838623 -212.205466 
L 181.765906 -211.4242 
L 182.588228 -210.642935 
L 183.295725 -209.86167 
L 183.879842 -209.080405 
L 184.333509 -208.299139 
L 184.651385 -207.517874 
L 184.830123 -206.736609 
L 184.868639 -205.955344 
L 184.768316 -205.174078 
L 184.533123 -204.392813 
L 184.169592 -203.611548 
L 183.68666 -202.830283 
L 183.095352 -202.049017 
L 182.408355 -201.267752 
L 181.639494 -200.486487 
L 180.803179 -199.705222 
L 179.913845 -198.923956 
L 178.985455 -198.142691 
L 178.031085 -197.361426 
L 177.062603 -196.580161 
L 176.090475 -195.798895 
L 175.12366 -195.01763 
L 174.169603 -194.236365 
L 173.2343 -193.4551 
L 172.322409 -192.673834 
L 171.437399 -191.892569 
L 170.581711 -191.111304 
L 169.756935 -190.330039 
L 168.963966 -189.548773 
L 168.203168 -188.767508 
L 167.474508 -187.986243 
L 166.777661 -187.204978 
L 166.1121 -186.423712 
L 165.477134 -185.642447 
L 164.871924 -184.861182 
L 164.295468 -184.079917 
L 163.746569 -183.298651 
L 163.223796 -182.517386 
L 162.725459 -181.736121 
L 162.249607 -180.954855 
L 161.794072 -180.17359 
L 161.356545 -179.392325 
L 160.934702 -178.61106 
L 160.526349 -177.829794 
L 160.129596 -177.048529 
L 159.743005 -176.267264 
L 159.365723 -175.485999 
L 158.997557 -174.704733 
L 158.638998 -173.923468 
L 158.29117 -173.142203 
L 157.955723 -172.360938 
L 157.634677 -171.579672 
L 157.330223 -170.798407 
L 157.044531 -170.017142 
L 156.779549 -169.235877 
L 156.536841 -168.454611 
L 156.317465 -167.673346 
L 156.121902 -166.892081 
L 155.950035 -166.110816 
L 155.801179 -165.32955 
L 155.674151 -164.548285 
L 155.56736 -163.76702 
z
" style="stroke: #595959; stroke-width: 1.25"/>
    </defs>
    <g clip-path="url(#pf3990d2555)">
     <use xlink:href="#mc60be8d224" x="0" y="279.674688" style="fill: #e99675; stroke: #595959; stroke-width: 1.25"/>
    </g>
   </g>
   <g id="PolyCollection_3">
    <defs>
     <path id="m7fb2d17f4a" d="M 230.08414 -143.286535 
L 228.760962 -143.286535 
L 228.596129 -144.012081 
L 228.400736 -144.737626 
L 228.171918 -145.463172 
L 227.907223 -146.188718 
L 227.604777 -146.914264 
L 227.263455 -147.63981 
L 226.883037 -148.365355 
L 226.464331 -149.090901 
L 226.009252 -149.816447 
L 225.520844 -150.541993 
L 225.00324 -151.267538 
L 224.461534 -151.993084 
L 223.901594 -152.71863 
L 223.32978 -153.444176 
L 222.75262 -154.169721 
L 222.17642 -154.895267 
L 221.606863 -155.620813 
L 221.048599 -156.346359 
L 220.504873 -157.071904 
L 219.9772 -157.79745 
L 219.465142 -158.522996 
L 218.966185 -159.248542 
L 218.475752 -159.974087 
L 217.987349 -160.699633 
L 217.492855 -161.425179 
L 216.982948 -162.150725 
L 216.447632 -162.87627 
L 215.876865 -163.601816 
L 215.261231 -164.327362 
L 214.592625 -165.052908 
L 213.864914 -165.778453 
L 213.074518 -166.503999 
L 212.220891 -167.229545 
L 211.306843 -167.955091 
L 210.338697 -168.680637 
L 209.326254 -169.406182 
L 208.282559 -170.131728 
L 207.223486 -170.857274 
L 206.167141 -171.58282 
L 205.13313 -172.308365 
L 204.141721 -173.033911 
L 203.212951 -173.759457 
L 202.365726 -174.485003 
L 201.616961 -175.210548 
L 200.980827 -175.936094 
L 200.46812 -176.66164 
L 200.085818 -177.387186 
L 199.836826 -178.112731 
L 199.719943 -178.838277 
L 199.730026 -179.563823 
L 199.858365 -180.289369 
L 200.093221 -181.014914 
L 200.420505 -181.74046 
L 200.824557 -182.466006 
L 201.288972 -183.191552 
L 201.797428 -183.917097 
L 202.334478 -184.642643 
L 202.886245 -185.368189 
L 203.441011 -186.093735 
L 203.98965 -186.81928 
L 204.525902 -187.544826 
L 205.046467 -188.270372 
L 205.550945 -188.995918 
L 206.041604 -189.721463 
L 206.523025 -190.447009 
L 207.001629 -191.172555 
L 207.485131 -191.898101 
L 207.981958 -192.623647 
L 208.500644 -193.349192 
L 209.049269 -194.074738 
L 209.634938 -194.800284 
L 210.263351 -195.52583 
L 210.938456 -196.251375 
L 211.662231 -196.976921 
L 212.434555 -197.702467 
L 213.253214 -198.428013 
L 214.113995 -199.153558 
L 215.010878 -199.879104 
L 215.936305 -200.60465 
L 216.881508 -201.330196 
L 217.836871 -202.055741 
L 218.792316 -202.781287 
L 219.737688 -203.506833 
L 220.66312 -204.232379 
L 221.559367 -204.957924 
L 222.418092 -205.68347 
L 223.232101 -206.409016 
L 223.995508 -207.134562 
L 224.703841 -207.860107 
L 225.354079 -208.585653 
L 225.944631 -209.311199 
L 226.475259 -210.036745 
L 226.946951 -210.76229 
L 227.361768 -211.487836 
L 227.722654 -212.213382 
L 228.033244 -212.938928 
L 228.297665 -213.664474 
L 228.520345 -214.390019 
L 228.70584 -215.115565 
L 230.139262 -215.115565 
L 230.139262 -215.115565 
L 230.324757 -214.390019 
L 230.547437 -213.664474 
L 230.811858 -212.938928 
L 231.122448 -212.213382 
L 231.483334 -211.487836 
L 231.89815 -210.76229 
L 232.369843 -210.036745 
L 232.900471 -209.311199 
L 233.491023 -208.585653 
L 234.141261 -207.860107 
L 234.849594 -207.134562 
L 235.613001 -206.409016 
L 236.42701 -205.68347 
L 237.285735 -204.957924 
L 238.181982 -204.232379 
L 239.107413 -203.506833 
L 240.052786 -202.781287 
L 241.008231 -202.055741 
L 241.963594 -201.330196 
L 242.908797 -200.60465 
L 243.834224 -199.879104 
L 244.731107 -199.153558 
L 245.591887 -198.428013 
L 246.410547 -197.702467 
L 247.182871 -196.976921 
L 247.906645 -196.251375 
L 248.581751 -195.52583 
L 249.210164 -194.800284 
L 249.795833 -194.074738 
L 250.344458 -193.349192 
L 250.863144 -192.623647 
L 251.35997 -191.898101 
L 251.843473 -191.172555 
L 252.322077 -190.447009 
L 252.803498 -189.721463 
L 253.294157 -188.995918 
L 253.798635 -188.270372 
L 254.3192 -187.544826 
L 254.855451 -186.81928 
L 255.404091 -186.093735 
L 255.958857 -185.368189 
L 256.510624 -184.642643 
L 257.047673 -183.917097 
L 257.55613 -183.191552 
L 258.020545 -182.466006 
L 258.424597 -181.74046 
L 258.751881 -181.014914 
L 258.986737 -180.289369 
L 259.115076 -179.563823 
L 259.125159 -178.838277 
L 259.008276 -178.112731 
L 258.759284 -177.387186 
L 258.376981 -176.66164 
L 257.864275 -175.936094 
L 257.22814 -175.210548 
L 256.479376 -174.485003 
L 255.632151 -173.759457 
L 254.703381 -173.033911 
L 253.711972 -172.308365 
L 252.677961 -171.58282 
L 251.621616 -170.857274 
L 250.562543 -170.131728 
L 249.518848 -169.406182 
L 248.506404 -168.680637 
L 247.538258 -167.955091 
L 246.62421 -167.229545 
L 245.770584 -166.503999 
L 244.980188 -165.778453 
L 244.252477 -165.052908 
L 243.583871 -164.327362 
L 242.968237 -163.601816 
L 242.39747 -162.87627 
L 241.862154 -162.150725 
L 241.352247 -161.425179 
L 240.857753 -160.699633 
L 240.36935 -159.974087 
L 239.878917 -159.248542 
L 239.37996 -158.522996 
L 238.867902 -157.79745 
L 238.340229 -157.071904 
L 237.796502 -156.346359 
L 237.238239 -155.620813 
L 236.668682 -154.895267 
L 236.092482 -154.169721 
L 235.515322 -153.444176 
L 234.943508 -152.71863 
L 234.383567 -151.993084 
L 233.841862 -151.267538 
L 233.324258 -150.541993 
L 232.83585 -149.816447 
L 232.38077 -149.090901 
L 231.962065 -148.365355 
L 231.581647 -147.63981 
L 231.240325 -146.914264 
L 230.937879 -146.188718 
L 230.673184 -145.463172 
L 230.444366 -144.737626 
L 230.248972 -144.012081 
L 230.08414 -143.286535 
z
" style="stroke: #595959; stroke-width: 1.25"/>
    </defs>
    <g clip-path="url(#pf3990d2555)">
     <use xlink:href="#m7fb2d17f4a" x="0" y="279.674688" style="fill: #95a3c3; stroke: #595959; stroke-width: 1.25"/>
    </g>
   </g>
   <g id="matplotlib.axis_1">
    <g id="xtick_1">
     <g id="line2d_1">
      <defs>
       <path id="m5a153f7b0c" d="M 0 0 
L 0 3.5 
" style="stroke: #000000; stroke-width: 0.8"/>
      </defs>
      <g>
       <use xlink:href="#m5a153f7b0c" x="80.90951" y="242.118437" style="stroke: #000000; stroke-width: 0.8"/>
      </g>
     </g>
     <g id="text_1">
      <!-- Deep -->
      <g transform="translate(67.732166 256.716875) scale(0.1 -0.1)">
       <defs>
        <path id="DejaVuSans-44" d="M 1259 4147 
L 1259 519 
L 2022 519 
Q 2988 519 3436 956 
Q 3884 1394 3884 2338 
Q 3884 3275 3436 3711 
Q 2988 4147 2022 4147 
L 1259 4147 
z
M 628 4666 
L 1925 4666 
Q 3281 4666 3915 4102 
Q 4550 3538 4550 2338 
Q 4550 1131 3912 565 
Q 3275 0 1925 0 
L 628 0 
L 628 4666 
z
" transform="scale(0.015625)"/>
        <path id="DejaVuSans-65" d="M 3597 1894 
L 3597 1613 
L 953 1613 
Q 991 1019 1311 708 
Q 1631 397 2203 397 
Q 2534 397 2845 478 
Q 3156 559 3463 722 
L 3463 178 
Q 3153 47 2828 -22 
Q 2503 -91 2169 -91 
Q 1331 -91 842 396 
Q 353 884 353 1716 
Q 353 2575 817 3079 
Q 1281 3584 2069 3584 
Q 2775 3584 3186 3129 
Q 3597 2675 3597 1894 
z
M 3022 2063 
Q 3016 2534 2758 2815 
Q 2500 3097 2075 3097 
Q 1594 3097 1305 2825 
Q 1016 2553 972 2059 
L 3022 2063 
z
" transform="scale(0.015625)"/>
        <path id="DejaVuSans-70" d="M 1159 525 
L 1159 -1331 
L 581 -1331 
L 581 3500 
L 1159 3500 
L 1159 2969 
Q 1341 3281 1617 3432 
Q 1894 3584 2278 3584 
Q 2916 3584 3314 3078 
Q 3713 2572 3713 1747 
Q 3713 922 3314 415 
Q 2916 -91 2278 -91 
Q 1894 -91 1617 61 
Q 1341 213 1159 525 
z
M 3116 1747 
Q 3116 2381 2855 2742 
Q 2594 3103 2138 3103 
Q 1681 3103 1420 2742 
Q 1159 2381 1159 1747 
Q 1159 1113 1420 752 
Q 1681 391 2138 391 
Q 2594 391 2855 752 
Q 3116 1113 3116 1747 
z
" transform="scale(0.015625)"/>
       </defs>
       <use xlink:href="#DejaVuSans-44"/>
       <use xlink:href="#DejaVuSans-65" x="77.001953"/>
       <use xlink:href="#DejaVuSans-65" x="138.525391"/>
       <use xlink:href="#DejaVuSans-70" x="200.048828"/>
      </g>
     </g>
    </g>
    <g id="xtick_2">
     <g id="line2d_2">
      <g>
       <use xlink:href="#m5a153f7b0c" x="155.166031" y="242.118437" style="stroke: #000000; stroke-width: 0.8"/>
      </g>
     </g>
     <g id="text_2">
      <!-- Middle -->
      <g transform="translate(138.648843 256.716875) scale(0.1 -0.1)">
       <defs>
        <path id="DejaVuSans-4d" d="M 628 4666 
L 1569 4666 
L 2759 1491 
L 3956 4666 
L 4897 4666 
L 4897 0 
L 4281 0 
L 4281 4097 
L 3078 897 
L 2444 897 
L 1241 4097 
L 1241 0 
L 628 0 
L 628 4666 
z
" transform="scale(0.015625)"/>
        <path id="DejaVuSans-69" d="M 603 3500 
L 1178 3500 
L 1178 0 
L 603 0 
L 603 3500 
z
M 603 4863 
L 1178 4863 
L 1178 4134 
L 603 4134 
L 603 4863 
z
" transform="scale(0.015625)"/>
        <path id="DejaVuSans-64" d="M 2906 2969 
L 2906 4863 
L 3481 4863 
L 3481 0 
L 2906 0 
L 2906 525 
Q 2725 213 2448 61 
Q 2172 -91 1784 -91 
Q 1150 -91 751 415 
Q 353 922 353 1747 
Q 353 2572 751 3078 
Q 1150 3584 1784 3584 
Q 2172 3584 2448 3432 
Q 2725 3281 2906 2969 
z
M 947 1747 
Q 947 1113 1208 752 
Q 1469 391 1925 391 
Q 2381 391 2643 752 
Q 2906 1113 2906 1747 
Q 2906 2381 2643 2742 
Q 2381 3103 1925 3103 
Q 1469 3103 1208 2742 
Q 947 2381 947 1747 
z
" transform="scale(0.015625)"/>
        <path id="DejaVuSans-6c" d="M 603 4863 
L 1178 4863 
L 1178 0 
L 603 0 
L 603 4863 
z
" transform="scale(0.015625)"/>
       </defs>
       <use xlink:href="#DejaVuSans-4d"/>
       <use xlink:href="#DejaVuSans-69" x="86.279297"/>
       <use xlink:href="#DejaVuSans-64" x="114.0625"/>
       <use xlink:href="#DejaVuSans-64" x="177.539062"/>
       <use xlink:href="#DejaVuSans-6c" x="241.015625"/>
       <use xlink:href="#DejaVuSans-65" x="268.798828"/>
      </g>
     </g>
    </g>
    <g id="xtick_3">
     <g id="line2d_3">
      <g>
       <use xlink:href="#m5a153f7b0c" x="229.422551" y="242.118437" style="stroke: #000000; stroke-width: 0.8"/>
      </g>
     </g>
     <g id="text_3">
      <!-- Superficial -->
      <g transform="translate(203.032707 256.716875) scale(0.1 -0.1)">
       <defs>
        <path id="DejaVuSans-53" d="M 3425 4513 
L 3425 3897 
Q 3066 4069 2747 4153 
Q 2428 4238 2131 4238 
Q 1616 4238 1336 4038 
Q 1056 3838 1056 3469 
Q 1056 3159 1242 3001 
Q 1428 2844 1947 2747 
L 2328 2669 
Q 3034 2534 3370 2195 
Q 3706 1856 3706 1288 
Q 3706 609 3251 259 
Q 2797 -91 1919 -91 
Q 1588 -91 1214 -16 
Q 841 59 441 206 
L 441 856 
Q 825 641 1194 531 
Q 1563 422 1919 422 
Q 2459 422 2753 634 
Q 3047 847 3047 1241 
Q 3047 1584 2836 1778 
Q 2625 1972 2144 2069 
L 1759 2144 
Q 1053 2284 737 2584 
Q 422 2884 422 3419 
Q 422 4038 858 4394 
Q 1294 4750 2059 4750 
Q 2388 4750 2728 4690 
Q 3069 4631 3425 4513 
z
" transform="scale(0.015625)"/>
        <path id="DejaVuSans-75" d="M 544 1381 
L 544 3500 
L 1119 3500 
L 1119 1403 
Q 1119 906 1312 657 
Q 1506 409 1894 409 
Q 2359 409 2629 706 
Q 2900 1003 2900 1516 
L 2900 3500 
L 3475 3500 
L 3475 0 
L 2900 0 
L 2900 538 
Q 2691 219 2414 64 
Q 2138 -91 1772 -91 
Q 1169 -91 856 284 
Q 544 659 544 1381 
z
M 1991 3584 
L 1991 3584 
z
" transform="scale(0.015625)"/>
        <path id="DejaVuSans-72" d="M 2631 2963 
Q 2534 3019 2420 3045 
Q 2306 3072 2169 3072 
Q 1681 3072 1420 2755 
Q 1159 2438 1159 1844 
L 1159 0 
L 581 0 
L 581 3500 
L 1159 3500 
L 1159 2956 
Q 1341 3275 1631 3429 
Q 1922 3584 2338 3584 
Q 2397 3584 2469 3576 
Q 2541 3569 2628 3553 
L 2631 2963 
z
" transform="scale(0.015625)"/>
        <path id="DejaVuSans-66" d="M 2375 4863 
L 2375 4384 
L 1825 4384 
Q 1516 4384 1395 4259 
Q 1275 4134 1275 3809 
L 1275 3500 
L 2222 3500 
L 2222 3053 
L 1275 3053 
L 1275 0 
L 697 0 
L 697 3053 
L 147 3053 
L 147 3500 
L 697 3500 
L 697 3744 
Q 697 4328 969 4595 
Q 1241 4863 1831 4863 
L 2375 4863 
z
" transform="scale(0.015625)"/>
        <path id="DejaVuSans-63" d="M 3122 3366 
L 3122 2828 
Q 2878 2963 2633 3030 
Q 2388 3097 2138 3097 
Q 1578 3097 1268 2742 
Q 959 2388 959 1747 
Q 959 1106 1268 751 
Q 1578 397 2138 397 
Q 2388 397 2633 464 
Q 2878 531 3122 666 
L 3122 134 
Q 2881 22 2623 -34 
Q 2366 -91 2075 -91 
Q 1284 -91 818 406 
Q 353 903 353 1747 
Q 353 2603 823 3093 
Q 1294 3584 2113 3584 
Q 2378 3584 2631 3529 
Q 2884 3475 3122 3366 
z
" transform="scale(0.015625)"/>
        <path id="DejaVuSans-61" d="M 2194 1759 
Q 1497 1759 1228 1600 
Q 959 1441 959 1056 
Q 959 750 1161 570 
Q 1363 391 1709 391 
Q 2188 391 2477 730 
Q 2766 1069 2766 1631 
L 2766 1759 
L 2194 1759 
z
M 3341 1997 
L 3341 0 
L 2766 0 
L 2766 531 
Q 2569 213 2275 61 
Q 1981 -91 1556 -91 
Q 1019 -91 701 211 
Q 384 513 384 1019 
Q 384 1609 779 1909 
Q 1175 2209 1959 2209 
L 2766 2209 
L 2766 2266 
Q 2766 2663 2505 2880 
Q 2244 3097 1772 3097 
Q 1472 3097 1187 3025 
Q 903 2953 641 2809 
L 641 3341 
Q 956 3463 1253 3523 
Q 1550 3584 1831 3584 
Q 2591 3584 2966 3190 
Q 3341 2797 3341 1997 
z
" transform="scale(0.015625)"/>
       </defs>
       <use xlink:href="#DejaVuSans-53"/>
       <use xlink:href="#DejaVuSans-75" x="63.476562"/>
       <use xlink:href="#DejaVuSans-70" x="126.855469"/>
       <use xlink:href="#DejaVuSans-65" x="190.332031"/>
       <use xlink:href="#DejaVuSans-72" x="251.855469"/>
       <use xlink:href="#DejaVuSans-66" x="292.96875"/>
       <use xlink:href="#DejaVuSans-69" x="328.173828"/>
       <use xlink:href="#DejaVuSans-63" x="355.957031"/>
       <use xlink:href="#DejaVuSans-69" x="410.9375"/>
       <use xlink:href="#DejaVuSans-61" x="438.720703"/>
       <use xlink:href="#DejaVuSans-6c" x="500"/>
      </g>
     </g>
    </g>
    <g id="text_4">
     <!-- Layer -->
     <g transform="translate(141.224624 270.395) scale(0.1 -0.1)">
      <defs>
       <path id="DejaVuSans-4c" d="M 628 4666 
L 1259 4666 
L 1259 531 
L 3531 531 
L 3531 0 
L 628 0 
L 628 4666 
z
" transform="scale(0.015625)"/>
       <path id="DejaVuSans-79" d="M 2059 -325 
Q 1816 -950 1584 -1140 
Q 1353 -1331 966 -1331 
L 506 -1331 
L 506 -850 
L 844 -850 
Q 1081 -850 1212 -737 
Q 1344 -625 1503 -206 
L 1606 56 
L 191 3500 
L 800 3500 
L 1894 763 
L 2988 3500 
L 3597 3500 
L 2059 -325 
z
" transform="scale(0.015625)"/>
      </defs>
      <use xlink:href="#DejaVuSans-4c"/>
      <use xlink:href="#DejaVuSans-61" x="55.712891"/>
      <use xlink:href="#DejaVuSans-79" x="116.992188"/>
      <use xlink:href="#DejaVuSans-65" x="176.171875"/>
      <use xlink:href="#DejaVuSans-72" x="237.695312"/>
     </g>
    </g>
   </g>
   <g id="matplotlib.axis_2">
    <g id="ytick_1">
     <g id="line2d_4">
      <defs>
       <path id="m00a9daeb3e" d="M 0 0 
L -3.5 0 
" style="stroke: #000000; stroke-width: 0.8"/>
      </defs>
      <g>
       <use xlink:href="#m00a9daeb3e" x="43.78125" y="242.118437" style="stroke: #000000; stroke-width: 0.8"/>
      </g>
     </g>
     <g id="text_5">
      <!-- 0.0 -->
      <g transform="translate(20.878125 245.917656) scale(0.1 -0.1)">
       <defs>
        <path id="DejaVuSans-30" d="M 2034 4250 
Q 1547 4250 1301 3770 
Q 1056 3291 1056 2328 
Q 1056 1369 1301 889 
Q 1547 409 2034 409 
Q 2525 409 2770 889 
Q 3016 1369 3016 2328 
Q 3016 3291 2770 3770 
Q 2525 4250 2034 4250 
z
M 2034 4750 
Q 2819 4750 3233 4129 
Q 3647 3509 3647 2328 
Q 3647 1150 3233 529 
Q 2819 -91 2034 -91 
Q 1250 -91 836 529 
Q 422 1150 422 2328 
Q 422 3509 836 4129 
Q 1250 4750 2034 4750 
z
" transform="scale(0.015625)"/>
        <path id="DejaVuSans-2e" d="M 684 794 
L 1344 794 
L 1344 0 
L 684 0 
L 684 794 
z
" transform="scale(0.015625)"/>
       </defs>
       <use xlink:href="#DejaVuSans-30"/>
       <use xlink:href="#DejaVuSans-2e" x="63.623047"/>
       <use xlink:href="#DejaVuSans-30" x="95.410156"/>
      </g>
     </g>
    </g>
    <g id="ytick_2">
     <g id="line2d_5">
      <g>
       <use xlink:href="#m00a9daeb3e" x="43.78125" y="197.854437" style="stroke: #000000; stroke-width: 0.8"/>
      </g>
     </g>
     <g id="text_6">
      <!-- 0.2 -->
      <g transform="translate(20.878125 201.653656) scale(0.1 -0.1)">
       <defs>
        <path id="DejaVuSans-32" d="M 1228 531 
L 3431 531 
L 3431 0 
L 469 0 
L 469 531 
Q 828 903 1448 1529 
Q 2069 2156 2228 2338 
Q 2531 2678 2651 2914 
Q 2772 3150 2772 3378 
Q 2772 3750 2511 3984 
Q 2250 4219 1831 4219 
Q 1534 4219 1204 4116 
Q 875 4013 500 3803 
L 500 4441 
Q 881 4594 1212 4672 
Q 1544 4750 1819 4750 
Q 2544 4750 2975 4387 
Q 3406 4025 3406 3419 
Q 3406 3131 3298 2873 
Q 3191 2616 2906 2266 
Q 2828 2175 2409 1742 
Q 1991 1309 1228 531 
z
" transform="scale(0.015625)"/>
       </defs>
       <use xlink:href="#DejaVuSans-30"/>
       <use xlink:href="#DejaVuSans-2e" x="63.623047"/>
       <use xlink:href="#DejaVuSans-32" x="95.410156"/>
      </g>
     </g>
    </g>
    <g id="ytick_3">
     <g id="line2d_6">
      <g>
       <use xlink:href="#m00a9daeb3e" x="43.78125" y="153.590437" style="stroke: #000000; stroke-width: 0.8"/>
      </g>
     </g>
     <g id="text_7">
      <!-- 0.4 -->
      <g transform="translate(20.878125 157.389656) scale(0.1 -0.1)">
       <defs>
        <path id="DejaVuSans-34" d="M 2419 4116 
L 825 1625 
L 2419 1625 
L 2419 4116 
z
M 2253 4666 
L 3047 4666 
L 3047 1625 
L 3713 1625 
L 3713 1100 
L 3047 1100 
L 3047 0 
L 2419 0 
L 2419 1100 
L 313 1100 
L 313 1709 
L 2253 4666 
z
" transform="scale(0.015625)"/>
       </defs>
       <use xlink:href="#DejaVuSans-30"/>
       <use xlink:href="#DejaVuSans-2e" x="63.623047"/>
       <use xlink:href="#DejaVuSans-34" x="95.410156"/>
      </g>
     </g>
    </g>
    <g id="ytick_4">
     <g id="line2d_7">
      <g>
       <use xlink:href="#m00a9daeb3e" x="43.78125" y="109.326437" style="stroke: #000000; stroke-width: 0.8"/>
      </g>
     </g>
     <g id="text_8">
      <!-- 0.6 -->
      <g transform="translate(20.878125 113.125656) scale(0.1 -0.1)">
       <defs>
        <path id="DejaVuSans-36" d="M 2113 2584 
Q 1688 2584 1439 2293 
Q 1191 2003 1191 1497 
Q 1191 994 1439 701 
Q 1688 409 2113 409 
Q 2538 409 2786 701 
Q 3034 994 3034 1497 
Q 3034 2003 2786 2293 
Q 2538 2584 2113 2584 
z
M 3366 4563 
L 3366 3988 
Q 3128 4100 2886 4159 
Q 2644 4219 2406 4219 
Q 1781 4219 1451 3797 
Q 1122 3375 1075 2522 
Q 1259 2794 1537 2939 
Q 1816 3084 2150 3084 
Q 2853 3084 3261 2657 
Q 3669 2231 3669 1497 
Q 3669 778 3244 343 
Q 2819 -91 2113 -91 
Q 1303 -91 875 529 
Q 447 1150 447 2328 
Q 447 3434 972 4092 
Q 1497 4750 2381 4750 
Q 2619 4750 2861 4703 
Q 3103 4656 3366 4563 
z
" transform="scale(0.015625)"/>
       </defs>
       <use xlink:href="#DejaVuSans-30"/>
       <use xlink:href="#DejaVuSans-2e" x="63.623047"/>
       <use xlink:href="#DejaVuSans-36" x="95.410156"/>
      </g>
     </g>
    </g>
    <g id="ytick_5">
     <g id="line2d_8">
      <g>
       <use xlink:href="#m00a9daeb3e" x="43.78125" y="65.062437" style="stroke: #000000; stroke-width: 0.8"/>
      </g>
     </g>
     <g id="text_9">
      <!-- 0.8 -->
      <g transform="translate(20.878125 68.861656) scale(0.1 -0.1)">
       <defs>
        <path id="DejaVuSans-38" d="M 2034 2216 
Q 1584 2216 1326 1975 
Q 1069 1734 1069 1313 
Q 1069 891 1326 650 
Q 1584 409 2034 409 
Q 2484 409 2743 651 
Q 3003 894 3003 1313 
Q 3003 1734 2745 1975 
Q 2488 2216 2034 2216 
z
M 1403 2484 
Q 997 2584 770 2862 
Q 544 3141 544 3541 
Q 544 4100 942 4425 
Q 1341 4750 2034 4750 
Q 2731 4750 3128 4425 
Q 3525 4100 3525 3541 
Q 3525 3141 3298 2862 
Q 3072 2584 2669 2484 
Q 3125 2378 3379 2068 
Q 3634 1759 3634 1313 
Q 3634 634 3220 271 
Q 2806 -91 2034 -91 
Q 1263 -91 848 271 
Q 434 634 434 1313 
Q 434 1759 690 2068 
Q 947 2378 1403 2484 
z
M 1172 3481 
Q 1172 3119 1398 2916 
Q 1625 2713 2034 2713 
Q 2441 2713 2670 2916 
Q 2900 3119 2900 3481 
Q 2900 3844 2670 4047 
Q 2441 4250 2034 4250 
Q 1625 4250 1398 4047 
Q 1172 3844 1172 3481 
z
" transform="scale(0.015625)"/>
       </defs>
       <use xlink:href="#DejaVuSans-30"/>
       <use xlink:href="#DejaVuSans-2e" x="63.623047"/>
       <use xlink:href="#DejaVuSans-38" x="95.410156"/>
      </g>
     </g>
    </g>
    <g id="ytick_6">
     <g id="line2d_9">
      <g>
       <use xlink:href="#m00a9daeb3e" x="43.78125" y="20.798437" style="stroke: #000000; stroke-width: 0.8"/>
      </g>
     </g>
     <g id="text_10">
      <!-- 1.0 -->
      <g transform="translate(20.878125 24.597656) scale(0.1 -0.1)">
       <defs>
        <path id="DejaVuSans-31" d="M 794 531 
L 1825 531 
L 1825 4091 
L 703 3866 
L 703 4441 
L 1819 4666 
L 2450 4666 
L 2450 531 
L 3481 531 
L 3481 0 
L 794 0 
L 794 531 
z
" transform="scale(0.015625)"/>
       </defs>
       <use xlink:href="#DejaVuSans-31"/>
       <use xlink:href="#DejaVuSans-2e" x="63.623047"/>
       <use xlink:href="#DejaVuSans-30" x="95.410156"/>
      </g>
     </g>
    </g>
    <g id="text_11">
     <!-- Accuracy -->
     <g transform="translate(14.798438 154.286563) rotate(-90) scale(0.1 -0.1)">
      <defs>
       <path id="DejaVuSans-41" d="M 2188 4044 
L 1331 1722 
L 3047 1722 
L 2188 4044 
z
M 1831 4666 
L 2547 4666 
L 4325 0 
L 3669 0 
L 3244 1197 
L 1141 1197 
L 716 0 
L 50 0 
L 1831 4666 
z
" transform="scale(0.015625)"/>
      </defs>
      <use xlink:href="#DejaVuSans-41"/>
      <use xlink:href="#DejaVuSans-63" x="66.658203"/>
      <use xlink:href="#DejaVuSans-63" x="121.638672"/>
      <use xlink:href="#DejaVuSans-75" x="176.619141"/>
      <use xlink:href="#DejaVuSans-72" x="239.998047"/>
      <use xlink:href="#DejaVuSans-61" x="281.111328"/>
      <use xlink:href="#DejaVuSans-63" x="342.390625"/>
      <use xlink:href="#DejaVuSans-79" x="397.371094"/>
     </g>
    </g>
   </g>
   <g id="line2d_10">
    <path d="M 43.78125 131.458438 
L 266.550811 131.458438 
" clip-path="url(#pf3990d2555)" style="fill: none; stroke-dasharray: 5.55,2.4; stroke-dashoffset: 0; stroke: #808080; stroke-width: 1.5"/>
   </g>
   <g id="patch_3">
    <path d="M 43.78125 242.118437 
L 43.78125 20.798437 
" style="fill: none; stroke: #000000; stroke-width: 0.8; stroke-linejoin: miter; stroke-linecap: square"/>
   </g>
   <g id="patch_4">
    <path d="M 43.78125 242.118437 
L 266.550811 242.118437 
" style="fill: none; stroke: #000000; stroke-width: 0.8; stroke-linejoin: miter; stroke-linecap: square"/>
   </g>
   <g id="PathCollection_1">
    <defs>
     <path id="m03cb58924e" d="M 0 1.25 
C 0.331504 1.25 0.649475 1.118292 0.883883 0.883883 
C 1.118292 0.649475 1.25 0.331504 1.25 0 
C 1.25 -0.331504 1.118292 -0.649475 0.883883 -0.883883 
C 0.649475 -1.118292 0.331504 -1.25 0 -1.25 
C -0.331504 -1.25 -0.649475 -1.118292 -0.883883 -0.883883 
C -1.118292 -0.649475 -1.25 -0.331504 -1.25 0 
C -1.25 0.331504 -1.118292 0.649475 -0.883883 0.883883 
C -0.649475 1.118292 -0.331504 1.25 0 1.25 
z
" style="stroke: #595959"/>
    </defs>
    <g clip-path="url(#pf3990d2555)">
     <use xlink:href="#m03cb58924e" x="80.90951" y="127.032038" style="fill: #595959; stroke: #595959"/>
     <use xlink:href="#m03cb58924e" x="80.90951" y="122.605637" style="fill: #595959; stroke: #595959"/>
     <use xlink:href="#m03cb58924e" x="80.90951" y="120.392437" style="fill: #595959; stroke: #595959"/>
     <use xlink:href="#m03cb58924e" x="80.90951" y="153.590437" style="fill: #595959; stroke: #595959"/>
     <use xlink:href="#m03cb58924e" x="80.90951" y="127.032038" style="fill: #595959; stroke: #595959"/>
     <use xlink:href="#m03cb58924e" x="80.90951" y="129.245237" style="fill: #595959; stroke: #595959"/>
     <use xlink:href="#m03cb58924e" x="80.90951" y="151.377237" style="fill: #595959; stroke: #595959"/>
     <use xlink:href="#m03cb58924e" x="80.90951" y="124.818837" style="fill: #595959; stroke: #595959"/>
     <use xlink:href="#m03cb58924e" x="80.90951" y="122.605638" style="fill: #595959; stroke: #595959"/>
     <use xlink:href="#m03cb58924e" x="80.90951" y="120.392437" style="fill: #595959; stroke: #595959"/>
     <use xlink:href="#m03cb58924e" x="80.90951" y="131.458438" style="fill: #595959; stroke: #595959"/>
     <use xlink:href="#m03cb58924e" x="80.90951" y="107.113237" style="fill: #595959; stroke: #595959"/>
     <use xlink:href="#m03cb58924e" x="80.90951" y="124.818837" style="fill: #595959; stroke: #595959"/>
     <use xlink:href="#m03cb58924e" x="80.90951" y="142.524437" style="fill: #595959; stroke: #595959"/>
     <use xlink:href="#m03cb58924e" x="80.90951" y="146.950837" style="fill: #595959; stroke: #595959"/>
     <use xlink:href="#m03cb58924e" x="80.90951" y="100.473637" style="fill: #595959; stroke: #595959"/>
     <use xlink:href="#m03cb58924e" x="80.90951" y="149.164037" style="fill: #595959; stroke: #595959"/>
     <use xlink:href="#m03cb58924e" x="80.90951" y="129.245237" style="fill: #595959; stroke: #595959"/>
     <use xlink:href="#m03cb58924e" x="80.90951" y="122.605637" style="fill: #595959; stroke: #595959"/>
     <use xlink:href="#m03cb58924e" x="80.90951" y="131.458438" style="fill: #595959; stroke: #595959"/>
    </g>
   </g>
   <g id="PathCollection_2">
    <g clip-path="url(#pf3990d2555)">
     <use xlink:href="#m03cb58924e" x="155.166031" y="102.686837" style="fill: #595959; stroke: #595959"/>
     <use xlink:href="#m03cb58924e" x="155.166031" y="71.702037" style="fill: #595959; stroke: #595959"/>
     <use xlink:href="#m03cb58924e" x="155.166031" y="71.702037" style="fill: #595959; stroke: #595959"/>
     <use xlink:href="#m03cb58924e" x="155.166031" y="93.834037" style="fill: #595959; stroke: #595959"/>
     <use xlink:href="#m03cb58924e" x="155.166031" y="82.768037" style="fill: #595959; stroke: #595959"/>
     <use xlink:href="#m03cb58924e" x="155.166031" y="62.849237" style="fill: #595959; stroke: #595959"/>
     <use xlink:href="#m03cb58924e" x="155.166031" y="67.275637" style="fill: #595959; stroke: #595959"/>
     <use xlink:href="#m03cb58924e" x="155.166031" y="76.128437" style="fill: #595959; stroke: #595959"/>
     <use xlink:href="#m03cb58924e" x="155.166031" y="84.981237" style="fill: #595959; stroke: #595959"/>
     <use xlink:href="#m03cb58924e" x="155.166031" y="76.128437" style="fill: #595959; stroke: #595959"/>
     <use xlink:href="#m03cb58924e" x="155.166031" y="91.620837" style="fill: #595959; stroke: #595959"/>
     <use xlink:href="#m03cb58924e" x="155.166031" y="51.783237" style="fill: #595959; stroke: #595959"/>
     <use xlink:href="#m03cb58924e" x="155.166031" y="73.915237" style="fill: #595959; stroke: #595959"/>
     <use xlink:href="#m03cb58924e" x="155.166031" y="76.128437" style="fill: #595959; stroke: #595959"/>
     <use xlink:href="#m03cb58924e" x="155.166031" y="67.275637" style="fill: #595959; stroke: #595959"/>
     <use xlink:href="#m03cb58924e" x="155.166031" y="65.062437" style="fill: #595959; stroke: #595959"/>
     <use xlink:href="#m03cb58924e" x="155.166031" y="73.915237" style="fill: #595959; stroke: #595959"/>
     <use xlink:href="#m03cb58924e" x="155.166031" y="62.849237" style="fill: #595959; stroke: #595959"/>
     <use xlink:href="#m03cb58924e" x="155.166031" y="80.554837" style="fill: #595959; stroke: #595959"/>
     <use xlink:href="#m03cb58924e" x="155.166031" y="84.981237" style="fill: #595959; stroke: #595959"/>
    </g>
   </g>
   <g id="PathCollection_3">
    <g clip-path="url(#pf3990d2555)">
     <use xlink:href="#m03cb58924e" x="229.422551" y="84.981237" style="fill: #595959; stroke: #595959"/>
     <use xlink:href="#m03cb58924e" x="229.422551" y="89.407637" style="fill: #595959; stroke: #595959"/>
     <use xlink:href="#m03cb58924e" x="229.422551" y="107.113237" style="fill: #595959; stroke: #595959"/>
     <use xlink:href="#m03cb58924e" x="229.422551" y="87.194437" style="fill: #595959; stroke: #595959"/>
     <use xlink:href="#m03cb58924e" x="229.422551" y="78.341637" style="fill: #595959; stroke: #595959"/>
     <use xlink:href="#m03cb58924e" x="229.422551" y="96.047237" style="fill: #595959; stroke: #595959"/>
     <use xlink:href="#m03cb58924e" x="229.422551" y="96.047237" style="fill: #595959; stroke: #595959"/>
     <use xlink:href="#m03cb58924e" x="229.422551" y="100.473637" style="fill: #595959; stroke: #595959"/>
     <use xlink:href="#m03cb58924e" x="229.422551" y="84.981237" style="fill: #595959; stroke: #595959"/>
     <use xlink:href="#m03cb58924e" x="229.422551" y="104.900037" style="fill: #595959; stroke: #595959"/>
     <use xlink:href="#m03cb58924e" x="229.422551" y="80.554838" style="fill: #595959; stroke: #595959"/>
     <use xlink:href="#m03cb58924e" x="229.422551" y="120.392437" style="fill: #595959; stroke: #595959"/>
     <use xlink:href="#m03cb58924e" x="229.422551" y="122.605637" style="fill: #595959; stroke: #595959"/>
     <use xlink:href="#m03cb58924e" x="229.422551" y="102.686837" style="fill: #595959; stroke: #595959"/>
     <use xlink:href="#m03cb58924e" x="229.422551" y="93.834037" style="fill: #595959; stroke: #595959"/>
     <use xlink:href="#m03cb58924e" x="229.422551" y="115.966037" style="fill: #595959; stroke: #595959"/>
     <use xlink:href="#m03cb58924e" x="229.422551" y="102.686837" style="fill: #595959; stroke: #595959"/>
     <use xlink:href="#m03cb58924e" x="229.422551" y="109.326437" style="fill: #595959; stroke: #595959"/>
     <use xlink:href="#m03cb58924e" x="229.422551" y="102.686837" style="fill: #595959; stroke: #595959"/>
     <use xlink:href="#m03cb58924e" x="229.422551" y="100.473637" style="fill: #595959; stroke: #595959"/>
    </g>
   </g>
   <g id="text_12">
    <!-- Rho = 0.4 -->
    <g transform="translate(273.08589 106.436563) rotate(-270) scale(0.1 -0.1)">
     <defs>
      <path id="DejaVuSans-52" d="M 2841 2188 
Q 3044 2119 3236 1894 
Q 3428 1669 3622 1275 
L 4263 0 
L 3584 0 
L 2988 1197 
Q 2756 1666 2539 1819 
Q 2322 1972 1947 1972 
L 1259 1972 
L 1259 0 
L 628 0 
L 628 4666 
L 2053 4666 
Q 2853 4666 3247 4331 
Q 3641 3997 3641 3322 
Q 3641 2881 3436 2590 
Q 3231 2300 2841 2188 
z
M 1259 4147 
L 1259 2491 
L 2053 2491 
Q 2509 2491 2742 2702 
Q 2975 2913 2975 3322 
Q 2975 3731 2742 3939 
Q 2509 4147 2053 4147 
L 1259 4147 
z
" transform="scale(0.015625)"/>
      <path id="DejaVuSans-68" d="M 3513 2113 
L 3513 0 
L 2938 0 
L 2938 2094 
Q 2938 2591 2744 2837 
Q 2550 3084 2163 3084 
Q 1697 3084 1428 2787 
Q 1159 2491 1159 1978 
L 1159 0 
L 581 0 
L 581 4863 
L 1159 4863 
L 1159 2956 
Q 1366 3272 1645 3428 
Q 1925 3584 2291 3584 
Q 2894 3584 3203 3211 
Q 3513 2838 3513 2113 
z
" transform="scale(0.015625)"/>
      <path id="DejaVuSans-6f" d="M 1959 3097 
Q 1497 3097 1228 2736 
Q 959 2375 959 1747 
Q 959 1119 1226 758 
Q 1494 397 1959 397 
Q 2419 397 2687 759 
Q 2956 1122 2956 1747 
Q 2956 2369 2687 2733 
Q 2419 3097 1959 3097 
z
M 1959 3584 
Q 2709 3584 3137 3096 
Q 3566 2609 3566 1747 
Q 3566 888 3137 398 
Q 2709 -91 1959 -91 
Q 1206 -91 779 398 
Q 353 888 353 1747 
Q 353 2609 779 3096 
Q 1206 3584 1959 3584 
z
" transform="scale(0.015625)"/>
      <path id="DejaVuSans-20" transform="scale(0.015625)"/>
      <path id="DejaVuSans-3d" d="M 678 2906 
L 4684 2906 
L 4684 2381 
L 678 2381 
L 678 2906 
z
M 678 1631 
L 4684 1631 
L 4684 1100 
L 678 1100 
L 678 1631 
z
" transform="scale(0.015625)"/>
     </defs>
     <use xlink:href="#DejaVuSans-52"/>
     <use xlink:href="#DejaVuSans-68" x="69.482422"/>
     <use xlink:href="#DejaVuSans-6f" x="132.861328"/>
     <use xlink:href="#DejaVuSans-20" x="194.042969"/>
     <use xlink:href="#DejaVuSans-3d" x="225.830078"/>
     <use xlink:href="#DejaVuSans-20" x="309.619141"/>
     <use xlink:href="#DejaVuSans-30" x="341.40625"/>
     <use xlink:href="#DejaVuSans-2e" x="405.029297"/>
     <use xlink:href="#DejaVuSans-34" x="436.816406"/>
    </g>
   </g>
   <g id="text_13">
    <!-- CNR_change = 1 -->
    <g transform="translate(113.008999 14.798437) scale(0.1 -0.1)">
     <defs>
      <path id="DejaVuSans-43" d="M 4122 4306 
L 4122 3641 
Q 3803 3938 3442 4084 
Q 3081 4231 2675 4231 
Q 1875 4231 1450 3742 
Q 1025 3253 1025 2328 
Q 1025 1406 1450 917 
Q 1875 428 2675 428 
Q 3081 428 3442 575 
Q 3803 722 4122 1019 
L 4122 359 
Q 3791 134 3420 21 
Q 3050 -91 2638 -91 
Q 1578 -91 968 557 
Q 359 1206 359 2328 
Q 359 3453 968 4101 
Q 1578 4750 2638 4750 
Q 3056 4750 3426 4639 
Q 3797 4528 4122 4306 
z
" transform="scale(0.015625)"/>
      <path id="DejaVuSans-4e" d="M 628 4666 
L 1478 4666 
L 3547 763 
L 3547 4666 
L 4159 4666 
L 4159 0 
L 3309 0 
L 1241 3903 
L 1241 0 
L 628 0 
L 628 4666 
z
" transform="scale(0.015625)"/>
      <path id="DejaVuSans-5f" d="M 3263 -1063 
L 3263 -1509 
L -63 -1509 
L -63 -1063 
L 3263 -1063 
z
" transform="scale(0.015625)"/>
      <path id="DejaVuSans-6e" d="M 3513 2113 
L 3513 0 
L 2938 0 
L 2938 2094 
Q 2938 2591 2744 2837 
Q 2550 3084 2163 3084 
Q 1697 3084 1428 2787 
Q 1159 2491 1159 1978 
L 1159 0 
L 581 0 
L 581 3500 
L 1159 3500 
L 1159 2956 
Q 1366 3272 1645 3428 
Q 1925 3584 2291 3584 
Q 2894 3584 3203 3211 
Q 3513 2838 3513 2113 
z
" transform="scale(0.015625)"/>
      <path id="DejaVuSans-67" d="M 2906 1791 
Q 2906 2416 2648 2759 
Q 2391 3103 1925 3103 
Q 1463 3103 1205 2759 
Q 947 2416 947 1791 
Q 947 1169 1205 825 
Q 1463 481 1925 481 
Q 2391 481 2648 825 
Q 2906 1169 2906 1791 
z
M 3481 434 
Q 3481 -459 3084 -895 
Q 2688 -1331 1869 -1331 
Q 1566 -1331 1297 -1286 
Q 1028 -1241 775 -1147 
L 775 -588 
Q 1028 -725 1275 -790 
Q 1522 -856 1778 -856 
Q 2344 -856 2625 -561 
Q 2906 -266 2906 331 
L 2906 616 
Q 2728 306 2450 153 
Q 2172 0 1784 0 
Q 1141 0 747 490 
Q 353 981 353 1791 
Q 353 2603 747 3093 
Q 1141 3584 1784 3584 
Q 2172 3584 2450 3431 
Q 2728 3278 2906 2969 
L 2906 3500 
L 3481 3500 
L 3481 434 
z
" transform="scale(0.015625)"/>
     </defs>
     <use xlink:href="#DejaVuSans-43"/>
     <use xlink:href="#DejaVuSans-4e" x="69.824219"/>
     <use xlink:href="#DejaVuSans-52" x="144.628906"/>
     <use xlink:href="#DejaVuSans-5f" x="214.111328"/>
     <use xlink:href="#DejaVuSans-63" x="264.111328"/>
     <use xlink:href="#DejaVuSans-68" x="319.091797"/>
     <use xlink:href="#DejaVuSans-61" x="382.470703"/>
     <use xlink:href="#DejaVuSans-6e" x="443.75"/>
     <use xlink:href="#DejaVuSans-67" x="507.128906"/>
     <use xlink:href="#DejaVuSans-65" x="570.605469"/>
     <use xlink:href="#DejaVuSans-20" x="632.128906"/>
     <use xlink:href="#DejaVuSans-3d" x="663.916016"/>
     <use xlink:href="#DejaVuSans-20" x="747.705078"/>
     <use xlink:href="#DejaVuSans-31" x="779.492188"/>
    </g>
   </g>
  </g>
  <g id="legend_1"/>
 </g>
 <defs>
  <clipPath id="pf3990d2555">
   <rect x="43.78125" y="20.798437" width="222.769561" height="221.32"/>
  </clipPath>
 </defs>
</svg>
