<?xml version="1.0" encoding="utf-8" standalone="no"?>
<!DOCTYPE svg PUBLIC "-//W3C//DTD SVG 1.1//EN"
  "http://www.w3.org/Graphics/SVG/1.1/DTD/svg11.dtd">
<svg xmlns:xlink="http://www.w3.org/1999/xlink" width="294.17125pt" height="279.674688pt" viewBox="0 0 294.17125 279.674688" xmlns="http://www.w3.org/2000/svg" version="1.1">
 <metadata>
  <rdf:RDF xmlns:dc="http://purl.org/dc/elements/1.1/" xmlns:cc="http://creativecommons.org/ns#" xmlns:rdf="http://www.w3.org/1999/02/22-rdf-syntax-ns#">
   <cc:Work>
    <dc:type rdf:resource="http://purl.org/dc/dcmitype/StillImage"/>
    <dc:date>2025-08-25T15:51:58.429254</dc:date>
    <dc:format>image/svg+xml</dc:format>
    <dc:creator>
     <cc:Agent>
      <dc:title>Matplotlib v3.8.4, https://matplotlib.org/</dc:title>
     </cc:Agent>
    </dc:creator>
   </cc:Work>
  </rdf:RDF>
 </metadata>
 <defs>
  <style type="text/css">*{stroke-linejoin: round; stroke-linecap: butt}</style>
 </defs>
 <g id="figure_1">
  <g id="patch_1">
   <path d="M 0 279.674688 
L 294.17125 279.674688 
L 294.17125 0 
L 0 0 
z
" style="fill: #ffffff"/>
  </g>
  <g id="axes_1">
   <g id="patch_2">
    <path d="M 43.78125 242.118437 
L 266.550811 242.118437 
L 266.550811 20.798437 
L 43.78125 20.798437 
z
" style="fill: #ffffff"/>
   </g>
   <g id="PolyCollection_1">
    <defs>
     <path id="mba2d0cc993" d="M 81.227727 -238.914593 
L 80.591293 -238.914593 
L 80.514794 -239.161369 
L 80.42576 -239.408146 
L 80.32371 -239.654923 
L 80.208553 -239.9017 
L 80.080661 -240.148477 
L 79.940933 -240.395254 
L 79.790818 -240.642031 
L 79.632315 -240.888808 
L 79.467929 -241.135585 
L 79.300581 -241.382362 
L 79.133477 -241.629139 
L 78.969943 -241.875916 
L 78.813228 -242.122692 
L 78.666294 -242.369469 
L 78.53161 -242.616246 
L 78.410958 -242.863023 
L 78.305289 -243.1098 
L 78.214615 -243.356577 
L 78.137982 -243.603354 
L 78.073504 -243.850131 
L 78.018467 -244.096908 
L 77.969504 -244.343685 
L 77.922819 -244.590462 
L 77.874438 -244.837239 
L 77.820483 -245.084016 
L 77.757426 -245.330792 
L 77.682313 -245.577569 
L 77.592934 -245.824346 
L 77.487929 -246.071123 
L 77.366811 -246.3179 
L 77.22992 -246.564677 
L 77.0783 -246.811454 
L 76.913513 -247.058231 
L 76.737407 -247.305008 
L 76.551859 -247.551785 
L 76.3585 -247.798562 
L 76.158455 -248.045339 
L 75.952116 -248.292115 
L 75.738942 -248.538892 
L 75.517327 -248.785669 
L 75.28452 -249.032446 
L 75.036618 -249.279223 
L 74.768617 -249.526 
L 74.474542 -249.772777 
L 74.147624 -250.019554 
L 73.780545 -250.266331 
L 73.36572 -250.513108 
L 72.895627 -250.759885 
L 72.36315 -251.006662 
L 71.761943 -251.253438 
L 71.086788 -251.500215 
L 70.333938 -251.746992 
L 69.501428 -251.993769 
L 68.58934 -252.240546 
L 67.600017 -252.487323 
L 66.538205 -252.7341 
L 65.411131 -252.980877 
L 64.22849 -253.227654 
L 63.00237 -253.474431 
L 61.747094 -253.721208 
L 60.478982 -253.967985 
L 59.216056 -254.214761 
L 57.977677 -254.461538 
L 56.784132 -254.708315 
L 55.656178 -254.955092 
L 54.614547 -255.201869 
L 53.679438 -255.448646 
L 52.869996 -255.695423 
L 52.203799 -255.9422 
L 51.696368 -256.188977 
L 51.360707 -256.435754 
L 51.206902 -256.682531 
L 51.241783 -256.929308 
L 51.468663 -257.176084 
L 51.887166 -257.422861 
L 52.493156 -257.669638 
L 53.278762 -257.916415 
L 54.232521 -258.163192 
L 55.339615 -258.409969 
L 56.582225 -258.656746 
L 57.939977 -258.903523 
L 59.390479 -259.1503 
L 60.909933 -259.397077 
L 62.473801 -259.643854 
L 64.057503 -259.890631 
L 65.637116 -260.137408 
L 67.19005 -260.384184 
L 68.695663 -260.630961 
L 70.135787 -260.877738 
L 71.495145 -261.124515 
L 72.761633 -261.371292 
L 73.92646 -261.618069 
L 74.984143 -261.864846 
L 75.932362 -262.111623 
L 76.771703 -262.3584 
L 77.50529 -262.605177 
L 78.13836 -262.851954 
L 78.677797 -263.098731 
L 79.131649 -263.345507 
L 82.687371 -263.345507 
L 82.687371 -263.345507 
L 83.141223 -263.098731 
L 83.68066 -262.851954 
L 84.313731 -262.605177 
L 85.047317 -262.3584 
L 85.886658 -262.111623 
L 86.834878 -261.864846 
L 87.892561 -261.618069 
L 89.057388 -261.371292 
L 90.323876 -261.124515 
L 91.683234 -260.877738 
L 93.123357 -260.630961 
L 94.62897 -260.384184 
L 96.181904 -260.137408 
L 97.761518 -259.890631 
L 99.345219 -259.643854 
L 100.909088 -259.397077 
L 102.428542 -259.1503 
L 103.879044 -258.903523 
L 105.236795 -258.656746 
L 106.479405 -258.409969 
L 107.586499 -258.163192 
L 108.540258 -257.916415 
L 109.325865 -257.669638 
L 109.931854 -257.422861 
L 110.350358 -257.176084 
L 110.577237 -256.929308 
L 110.612118 -256.682531 
L 110.458313 -256.435754 
L 110.122652 -256.188977 
L 109.615221 -255.9422 
L 108.949025 -255.695423 
L 108.139583 -255.448646 
L 107.204474 -255.201869 
L 106.162842 -254.955092 
L 105.034888 -254.708315 
L 103.841344 -254.461538 
L 102.602965 -254.214761 
L 101.340038 -253.967985 
L 100.071926 -253.721208 
L 98.81665 -253.474431 
L 97.590531 -253.227654 
L 96.40789 -252.980877 
L 95.280815 -252.7341 
L 94.219004 -252.487323 
L 93.229681 -252.240546 
L 92.317593 -251.993769 
L 91.485082 -251.746992 
L 90.732232 -251.500215 
L 90.057077 -251.253438 
L 89.45587 -251.006662 
L 88.923393 -250.759885 
L 88.4533 -250.513108 
L 88.038476 -250.266331 
L 87.671396 -250.019554 
L 87.344478 -249.772777 
L 87.050403 -249.526 
L 86.782403 -249.279223 
L 86.5345 -249.032446 
L 86.301694 -248.785669 
L 86.080078 -248.538892 
L 85.866904 -248.292115 
L 85.660565 -248.045339 
L 85.460521 -247.798562 
L 85.267161 -247.551785 
L 85.081613 -247.305008 
L 84.905508 -247.058231 
L 84.740721 -246.811454 
L 84.589101 -246.564677 
L 84.45221 -246.3179 
L 84.331092 -246.071123 
L 84.226086 -245.824346 
L 84.136707 -245.577569 
L 84.061594 -245.330792 
L 83.998537 -245.084016 
L 83.944582 -244.837239 
L 83.896201 -244.590462 
L 83.849516 -244.343685 
L 83.800553 -244.096908 
L 83.745516 -243.850131 
L 83.681038 -243.603354 
L 83.604406 -243.356577 
L 83.513732 -243.1098 
L 83.408062 -242.863023 
L 83.28741 -242.616246 
L 83.152726 -242.369469 
L 83.005793 -242.122692 
L 82.849078 -241.875916 
L 82.685544 -241.629139 
L 82.51844 -241.382362 
L 82.351091 -241.135585 
L 82.186705 -240.888808 
L 82.028203 -240.642031 
L 81.878087 -240.395254 
L 81.738359 -240.148477 
L 81.610468 -239.9017 
L 81.49531 -239.654923 
L 81.39326 -239.408146 
L 81.304226 -239.161369 
L 81.227727 -238.914593 
z
" style="stroke: #595959; stroke-width: 1.25"/>
    </defs>
    <g clip-path="url(#p97685dfaa1)">
     <use xlink:href="#mba2d0cc993" x="0" y="279.674688" style="fill: #72b6a1; stroke: #595959; stroke-width: 1.25"/>
    </g>
   </g>
   <g id="PolyCollection_2">
    <defs>
     <path id="maf8736cec7" d="M 155.87122 -139.400035 
L 154.460841 -139.400035 
L 154.275802 -140.248807 
L 154.054984 -141.097579 
L 153.795111 -141.946351 
L 153.493566 -142.795123 
L 153.148655 -143.643895 
L 152.759869 -144.492667 
L 152.328116 -145.341439 
L 151.855903 -146.190211 
L 151.347444 -147.038983 
L 150.808657 -147.887755 
L 150.247058 -148.736527 
L 149.671517 -149.585299 
L 149.091881 -150.434071 
L 148.518489 -151.282843 
L 147.961578 -152.131615 
L 147.430633 -152.980387 
L 146.933723 -153.829159 
L 146.476862 -154.677931 
L 146.063463 -155.526703 
L 145.693931 -156.375475 
L 145.365426 -157.224247 
L 145.071854 -158.073019 
L 144.804067 -158.921791 
L 144.550291 -159.770563 
L 144.296752 -160.619335 
L 144.028455 -161.468108 
L 143.730062 -162.31688 
L 143.38681 -163.165652 
L 142.985392 -164.014424 
L 142.51475 -164.863196 
L 141.966709 -165.711968 
L 141.336427 -166.56074 
L 140.622638 -167.409512 
L 139.827672 -168.258284 
L 138.957283 -169.107056 
L 138.02031 -169.955828 
L 137.028209 -170.8046 
L 135.994511 -171.653372 
L 134.934245 -172.502144 
L 133.863372 -173.350916 
L 132.798258 -174.199688 
L 131.755217 -175.04846 
L 130.750114 -175.897232 
L 129.798051 -176.746004 
L 128.913105 -177.594776 
L 128.108118 -178.443548 
L 127.39453 -179.29232 
L 126.782227 -180.141092 
L 126.279416 -180.989864 
L 125.892523 -181.838636 
L 125.626107 -182.687408 
L 125.482825 -183.53618 
L 125.463422 -184.384952 
L 125.566788 -185.233724 
L 125.79006 -186.082496 
L 126.128779 -186.931268 
L 126.577097 -187.78004 
L 127.128003 -188.628812 
L 127.77357 -189.477584 
L 128.505198 -190.326356 
L 129.313829 -191.175128 
L 130.190135 -192.0239 
L 131.124666 -192.872672 
L 132.107953 -193.721444 
L 133.130585 -194.570216 
L 134.183263 -195.418988 
L 135.256842 -196.26776 
L 136.342388 -197.116532 
L 137.431242 -197.965304 
L 138.515109 -198.814076 
L 139.586175 -199.662848 
L 140.63723 -200.51162 
L 141.661806 -201.360392 
L 142.654299 -202.209165 
L 143.610067 -203.057937 
L 144.525494 -203.906709 
L 145.397998 -204.755481 
L 146.225994 -205.604253 
L 147.008804 -206.453025 
L 147.746521 -207.301797 
L 148.439845 -208.150569 
L 149.089909 -208.999341 
L 149.698101 -209.848113 
L 150.26591 -210.696885 
L 150.794802 -211.545657 
L 151.286135 -212.394429 
L 151.741113 -213.243201 
L 152.160792 -214.091973 
L 152.546103 -214.940745 
L 152.897912 -215.789517 
L 153.217089 -216.638289 
L 153.504579 -217.487061 
L 153.76146 -218.335833 
L 153.988992 -219.184605 
L 154.188642 -220.033377 
L 154.362087 -220.882149 
L 154.511196 -221.730921 
L 154.637991 -222.579693 
L 154.744604 -223.428465 
L 155.587457 -223.428465 
L 155.587457 -223.428465 
L 155.69407 -222.579693 
L 155.820865 -221.730921 
L 155.969974 -220.882149 
L 156.143419 -220.033377 
L 156.343069 -219.184605 
L 156.570601 -218.335833 
L 156.827482 -217.487061 
L 157.114972 -216.638289 
L 157.434149 -215.789517 
L 157.785959 -214.940745 
L 158.171269 -214.091973 
L 158.590948 -213.243201 
L 159.045926 -212.394429 
L 159.537259 -211.545657 
L 160.066151 -210.696885 
L 160.63396 -209.848113 
L 161.242152 -208.999341 
L 161.892216 -208.150569 
L 162.585541 -207.301797 
L 163.323257 -206.453025 
L 164.106067 -205.604253 
L 164.934064 -204.755481 
L 165.806567 -203.906709 
L 166.721994 -203.057937 
L 167.677762 -202.209165 
L 168.670255 -201.360392 
L 169.694831 -200.51162 
L 170.745887 -199.662848 
L 171.816952 -198.814076 
L 172.900819 -197.965304 
L 173.989673 -197.116532 
L 175.075219 -196.26776 
L 176.148798 -195.418988 
L 177.201476 -194.570216 
L 178.224108 -193.721444 
L 179.207395 -192.872672 
L 180.141926 -192.0239 
L 181.018233 -191.175128 
L 181.826863 -190.326356 
L 182.558491 -189.477584 
L 183.204058 -188.628812 
L 183.754964 -187.78004 
L 184.203282 -186.931268 
L 184.542001 -186.082496 
L 184.765273 -185.233724 
L 184.868639 -184.384952 
L 184.849236 -183.53618 
L 184.705954 -182.687408 
L 184.439538 -181.838636 
L 184.052645 -180.989864 
L 183.549834 -180.141092 
L 182.937531 -179.29232 
L 182.223943 -178.443548 
L 181.418957 -177.594776 
L 180.53401 -176.746004 
L 179.581947 -175.897232 
L 178.576844 -175.04846 
L 177.533803 -174.199688 
L 176.468689 -173.350916 
L 175.397816 -172.502144 
L 174.33755 -171.653372 
L 173.303852 -170.8046 
L 172.311751 -169.955828 
L 171.374778 -169.107056 
L 170.504389 -168.258284 
L 169.709423 -167.409512 
L 168.995634 -166.56074 
L 168.365352 -165.711968 
L 167.817311 -164.863196 
L 167.346669 -164.014424 
L 166.945251 -163.165652 
L 166.601999 -162.31688 
L 166.303607 -161.468108 
L 166.035309 -160.619335 
L 165.78177 -159.770563 
L 165.527994 -158.921791 
L 165.260207 -158.073019 
L 164.966635 -157.224247 
L 164.638131 -156.375475 
L 164.268598 -155.526703 
L 163.8552 -154.677931 
L 163.398338 -153.829159 
L 162.901428 -152.980387 
L 162.370483 -152.131615 
L 161.813572 -151.282843 
L 161.24018 -150.434071 
L 160.660545 -149.585299 
L 160.085003 -148.736527 
L 159.523405 -147.887755 
L 158.984617 -147.038983 
L 158.476158 -146.190211 
L 158.003945 -145.341439 
L 157.572192 -144.492667 
L 157.183406 -143.643895 
L 156.838495 -142.795123 
L 156.53695 -141.946351 
L 156.277077 -141.097579 
L 156.056259 -140.248807 
L 155.87122 -139.400035 
z
" style="stroke: #595959; stroke-width: 1.25"/>
    </defs>
    <g clip-path="url(#p97685dfaa1)">
     <use xlink:href="#maf8736cec7" x="0" y="279.674688" style="fill: #e99675; stroke: #595959; stroke-width: 1.25"/>
    </g>
   </g>
   <g id="PolyCollection_3">
    <defs>
     <path id="m2c434d4152" d="M 229.913827 -133.473947 
L 228.931275 -133.473947 
L 228.800603 -134.174172 
L 228.643517 -134.874396 
L 228.456898 -135.57462 
L 228.237747 -136.274845 
L 227.98328 -136.975069 
L 227.691015 -137.675293 
L 227.358849 -138.375518 
L 226.985097 -139.075742 
L 226.568511 -139.775966 
L 226.108261 -140.47619 
L 225.603875 -141.176415 
L 225.05516 -141.876639 
L 224.462097 -142.576863 
L 223.82473 -143.277088 
L 223.143072 -143.977312 
L 222.417031 -144.677536 
L 221.646389 -145.37776 
L 220.830833 -146.077985 
L 219.970061 -146.778209 
L 219.063948 -147.478433 
L 218.112777 -148.178658 
L 217.117504 -148.878882 
L 216.080051 -149.579106 
L 215.003583 -150.279331 
L 213.892744 -150.979555 
L 212.753821 -151.679779 
L 211.594813 -152.380003 
L 210.425388 -153.080228 
L 209.256716 -153.780452 
L 208.101206 -154.480676 
L 206.97213 -155.180901 
L 205.883202 -155.881125 
L 204.84811 -156.581349 
L 203.880067 -157.281573 
L 202.991391 -157.981798 
L 202.19316 -158.682022 
L 201.49495 -159.382246 
L 200.90467 -160.082471 
L 200.428479 -160.782695 
L 200.070778 -161.482919 
L 199.834254 -162.183144 
L 199.719943 -162.883368 
L 199.727293 -163.583592 
L 199.854207 -164.283816 
L 200.097052 -164.984041 
L 200.450634 -165.684265 
L 200.908168 -166.384489 
L 201.461232 -167.084714 
L 202.099774 -167.784938 
L 202.812171 -168.485162 
L 203.585389 -169.185386 
L 204.405251 -169.885611 
L 205.25683 -170.585835 
L 206.124954 -171.286059 
L 206.994803 -171.986284 
L 207.852553 -172.686508 
L 208.686017 -173.386732 
L 209.485237 -174.086956 
L 210.242956 -174.787181 
L 210.954925 -175.487405 
L 211.620017 -176.187629 
L 212.240121 -176.887854 
L 212.819822 -177.588078 
L 213.365894 -178.288302 
L 213.886648 -178.988527 
L 214.391196 -179.688751 
L 214.888696 -180.388975 
L 215.387643 -181.089199 
L 215.895268 -181.789424 
L 216.417092 -182.489648 
L 216.956658 -183.189872 
L 217.515456 -183.890097 
L 218.093021 -184.590321 
L 218.687178 -185.290545 
L 219.294395 -185.990769 
L 219.910191 -186.690994 
L 220.529548 -187.391218 
L 221.147301 -188.091442 
L 221.758453 -188.791667 
L 222.35841 -189.491891 
L 222.943127 -190.192115 
L 223.509166 -190.89234 
L 224.053688 -191.592564 
L 224.574403 -192.292788 
L 225.069483 -192.993012 
L 225.537481 -193.693237 
L 225.97726 -194.393461 
L 226.387941 -195.093685 
L 226.768881 -195.79391 
L 227.119677 -196.494134 
L 227.440178 -197.194358 
L 227.730519 -197.894582 
L 227.991145 -198.594807 
L 228.222828 -199.295031 
L 228.426673 -199.995255 
L 228.604097 -200.69548 
L 228.756797 -201.395704 
L 228.886698 -202.095928 
L 228.995889 -202.796153 
L 229.849212 -202.796153 
L 229.849212 -202.796153 
L 229.958404 -202.095928 
L 230.088305 -201.395704 
L 230.241005 -200.69548 
L 230.418429 -199.995255 
L 230.622273 -199.295031 
L 230.853957 -198.594807 
L 231.114583 -197.894582 
L 231.404924 -197.194358 
L 231.725425 -196.494134 
L 232.076221 -195.79391 
L 232.457161 -195.093685 
L 232.867842 -194.393461 
L 233.307621 -193.693237 
L 233.775619 -192.993012 
L 234.270698 -192.292788 
L 234.791413 -191.592564 
L 235.335936 -190.89234 
L 235.901975 -190.192115 
L 236.486692 -189.491891 
L 237.086649 -188.791667 
L 237.697801 -188.091442 
L 238.315554 -187.391218 
L 238.934911 -186.690994 
L 239.550706 -185.990769 
L 240.157924 -185.290545 
L 240.752081 -184.590321 
L 241.329646 -183.890097 
L 241.888444 -183.189872 
L 242.42801 -182.489648 
L 242.949834 -181.789424 
L 243.457459 -181.089199 
L 243.956406 -180.388975 
L 244.453906 -179.688751 
L 244.958454 -178.988527 
L 245.479208 -178.288302 
L 246.025279 -177.588078 
L 246.604981 -176.887854 
L 247.225085 -176.187629 
L 247.890177 -175.487405 
L 248.602146 -174.787181 
L 249.359864 -174.086956 
L 250.159085 -173.386732 
L 250.992549 -172.686508 
L 251.850299 -171.986284 
L 252.720148 -171.286059 
L 253.588272 -170.585835 
L 254.439851 -169.885611 
L 255.259713 -169.185386 
L 256.032931 -168.485162 
L 256.745328 -167.784938 
L 257.38387 -167.084714 
L 257.936934 -166.384489 
L 258.394468 -165.684265 
L 258.74805 -164.984041 
L 258.990894 -164.283816 
L 259.117809 -163.583592 
L 259.125159 -162.883368 
L 259.010848 -162.183144 
L 258.774324 -161.482919 
L 258.416623 -160.782695 
L 257.940432 -160.082471 
L 257.350152 -159.382246 
L 256.651942 -158.682022 
L 255.853711 -157.981798 
L 254.965035 -157.281573 
L 253.996992 -156.581349 
L 252.9619 -155.881125 
L 251.872972 -155.180901 
L 250.743896 -154.480676 
L 249.588386 -153.780452 
L 248.419714 -153.080228 
L 247.250288 -152.380003 
L 246.091281 -151.679779 
L 244.952358 -150.979555 
L 243.841519 -150.279331 
L 242.765051 -149.579106 
L 241.727598 -148.878882 
L 240.732325 -148.178658 
L 239.781153 -147.478433 
L 238.875041 -146.778209 
L 238.014269 -146.077985 
L 237.198713 -145.37776 
L 236.428071 -144.677536 
L 235.70203 -143.977312 
L 235.020372 -143.277088 
L 234.383005 -142.576863 
L 233.789942 -141.876639 
L 233.241226 -141.176415 
L 232.736841 -140.47619 
L 232.27659 -139.775966 
L 231.860005 -139.075742 
L 231.486253 -138.375518 
L 231.154087 -137.675293 
L 230.861822 -136.975069 
L 230.607355 -136.274845 
L 230.388204 -135.57462 
L 230.201585 -134.874396 
L 230.044499 -134.174172 
L 229.913827 -133.473947 
z
" style="stroke: #595959; stroke-width: 1.25"/>
    </defs>
    <g clip-path="url(#p97685dfaa1)">
     <use xlink:href="#m2c434d4152" x="0" y="279.674688" style="fill: #95a3c3; stroke: #595959; stroke-width: 1.25"/>
    </g>
   </g>
   <g id="matplotlib.axis_1">
    <g id="xtick_1">
     <g id="line2d_1">
      <defs>
       <path id="m6fa918fee9" d="M 0 0 
L 0 3.5 
" style="stroke: #000000; stroke-width: 0.8"/>
      </defs>
      <g>
       <use xlink:href="#m6fa918fee9" x="80.90951" y="242.118437" style="stroke: #000000; stroke-width: 0.8"/>
      </g>
     </g>
     <g id="text_1">
      <!-- Deep -->
      <g transform="translate(67.732166 256.716875) scale(0.1 -0.1)">
       <defs>
        <path id="DejaVuSans-44" d="M 1259 4147 
L 1259 519 
L 2022 519 
Q 2988 519 3436 956 
Q 3884 1394 3884 2338 
Q 3884 3275 3436 3711 
Q 2988 4147 2022 4147 
L 1259 4147 
z
M 628 4666 
L 1925 4666 
Q 3281 4666 3915 4102 
Q 4550 3538 4550 2338 
Q 4550 1131 3912 565 
Q 3275 0 1925 0 
L 628 0 
L 628 4666 
z
" transform="scale(0.015625)"/>
        <path id="DejaVuSans-65" d="M 3597 1894 
L 3597 1613 
L 953 1613 
Q 991 1019 1311 708 
Q 1631 397 2203 397 
Q 2534 397 2845 478 
Q 3156 559 3463 722 
L 3463 178 
Q 3153 47 2828 -22 
Q 2503 -91 2169 -91 
Q 1331 -91 842 396 
Q 353 884 353 1716 
Q 353 2575 817 3079 
Q 1281 3584 2069 3584 
Q 2775 3584 3186 3129 
Q 3597 2675 3597 1894 
z
M 3022 2063 
Q 3016 2534 2758 2815 
Q 2500 3097 2075 3097 
Q 1594 3097 1305 2825 
Q 1016 2553 972 2059 
L 3022 2063 
z
" transform="scale(0.015625)"/>
        <path id="DejaVuSans-70" d="M 1159 525 
L 1159 -1331 
L 581 -1331 
L 581 3500 
L 1159 3500 
L 1159 2969 
Q 1341 3281 1617 3432 
Q 1894 3584 2278 3584 
Q 2916 3584 3314 3078 
Q 3713 2572 3713 1747 
Q 3713 922 3314 415 
Q 2916 -91 2278 -91 
Q 1894 -91 1617 61 
Q 1341 213 1159 525 
z
M 3116 1747 
Q 3116 2381 2855 2742 
Q 2594 3103 2138 3103 
Q 1681 3103 1420 2742 
Q 1159 2381 1159 1747 
Q 1159 1113 1420 752 
Q 1681 391 2138 391 
Q 2594 391 2855 752 
Q 3116 1113 3116 1747 
z
" transform="scale(0.015625)"/>
       </defs>
       <use xlink:href="#DejaVuSans-44"/>
       <use xlink:href="#DejaVuSans-65" x="77.001953"/>
       <use xlink:href="#DejaVuSans-65" x="138.525391"/>
       <use xlink:href="#DejaVuSans-70" x="200.048828"/>
      </g>
     </g>
    </g>
    <g id="xtick_2">
     <g id="line2d_2">
      <g>
       <use xlink:href="#m6fa918fee9" x="155.166031" y="242.118437" style="stroke: #000000; stroke-width: 0.8"/>
      </g>
     </g>
     <g id="text_2">
      <!-- Middle -->
      <g transform="translate(138.648843 256.716875) scale(0.1 -0.1)">
       <defs>
        <path id="DejaVuSans-4d" d="M 628 4666 
L 1569 4666 
L 2759 1491 
L 3956 4666 
L 4897 4666 
L 4897 0 
L 4281 0 
L 4281 4097 
L 3078 897 
L 2444 897 
L 1241 4097 
L 1241 0 
L 628 0 
L 628 4666 
z
" transform="scale(0.015625)"/>
        <path id="DejaVuSans-69" d="M 603 3500 
L 1178 3500 
L 1178 0 
L 603 0 
L 603 3500 
z
M 603 4863 
L 1178 4863 
L 1178 4134 
L 603 4134 
L 603 4863 
z
" transform="scale(0.015625)"/>
        <path id="DejaVuSans-64" d="M 2906 2969 
L 2906 4863 
L 3481 4863 
L 3481 0 
L 2906 0 
L 2906 525 
Q 2725 213 2448 61 
Q 2172 -91 1784 -91 
Q 1150 -91 751 415 
Q 353 922 353 1747 
Q 353 2572 751 3078 
Q 1150 3584 1784 3584 
Q 2172 3584 2448 3432 
Q 2725 3281 2906 2969 
z
M 947 1747 
Q 947 1113 1208 752 
Q 1469 391 1925 391 
Q 2381 391 2643 752 
Q 2906 1113 2906 1747 
Q 2906 2381 2643 2742 
Q 2381 3103 1925 3103 
Q 1469 3103 1208 2742 
Q 947 2381 947 1747 
z
" transform="scale(0.015625)"/>
        <path id="DejaVuSans-6c" d="M 603 4863 
L 1178 4863 
L 1178 0 
L 603 0 
L 603 4863 
z
" transform="scale(0.015625)"/>
       </defs>
       <use xlink:href="#DejaVuSans-4d"/>
       <use xlink:href="#DejaVuSans-69" x="86.279297"/>
       <use xlink:href="#DejaVuSans-64" x="114.0625"/>
       <use xlink:href="#DejaVuSans-64" x="177.539062"/>
       <use xlink:href="#DejaVuSans-6c" x="241.015625"/>
       <use xlink:href="#DejaVuSans-65" x="268.798828"/>
      </g>
     </g>
    </g>
    <g id="xtick_3">
     <g id="line2d_3">
      <g>
       <use xlink:href="#m6fa918fee9" x="229.422551" y="242.118437" style="stroke: #000000; stroke-width: 0.8"/>
      </g>
     </g>
     <g id="text_3">
      <!-- Superficial -->
      <g transform="translate(203.032707 256.716875) scale(0.1 -0.1)">
       <defs>
        <path id="DejaVuSans-53" d="M 3425 4513 
L 3425 3897 
Q 3066 4069 2747 4153 
Q 2428 4238 2131 4238 
Q 1616 4238 1336 4038 
Q 1056 3838 1056 3469 
Q 1056 3159 1242 3001 
Q 1428 2844 1947 2747 
L 2328 2669 
Q 3034 2534 3370 2195 
Q 3706 1856 3706 1288 
Q 3706 609 3251 259 
Q 2797 -91 1919 -91 
Q 1588 -91 1214 -16 
Q 841 59 441 206 
L 441 856 
Q 825 641 1194 531 
Q 1563 422 1919 422 
Q 2459 422 2753 634 
Q 3047 847 3047 1241 
Q 3047 1584 2836 1778 
Q 2625 1972 2144 2069 
L 1759 2144 
Q 1053 2284 737 2584 
Q 422 2884 422 3419 
Q 422 4038 858 4394 
Q 1294 4750 2059 4750 
Q 2388 4750 2728 4690 
Q 3069 4631 3425 4513 
z
" transform="scale(0.015625)"/>
        <path id="DejaVuSans-75" d="M 544 1381 
L 544 3500 
L 1119 3500 
L 1119 1403 
Q 1119 906 1312 657 
Q 1506 409 1894 409 
Q 2359 409 2629 706 
Q 2900 1003 2900 1516 
L 2900 3500 
L 3475 3500 
L 3475 0 
L 2900 0 
L 2900 538 
Q 2691 219 2414 64 
Q 2138 -91 1772 -91 
Q 1169 -91 856 284 
Q 544 659 544 1381 
z
M 1991 3584 
L 1991 3584 
z
" transform="scale(0.015625)"/>
        <path id="DejaVuSans-72" d="M 2631 2963 
Q 2534 3019 2420 3045 
Q 2306 3072 2169 3072 
Q 1681 3072 1420 2755 
Q 1159 2438 1159 1844 
L 1159 0 
L 581 0 
L 581 3500 
L 1159 3500 
L 1159 2956 
Q 1341 3275 1631 3429 
Q 1922 3584 2338 3584 
Q 2397 3584 2469 3576 
Q 2541 3569 2628 3553 
L 2631 2963 
z
" transform="scale(0.015625)"/>
        <path id="DejaVuSans-66" d="M 2375 4863 
L 2375 4384 
L 1825 4384 
Q 1516 4384 1395 4259 
Q 1275 4134 1275 3809 
L 1275 3500 
L 2222 3500 
L 2222 3053 
L 1275 3053 
L 1275 0 
L 697 0 
L 697 3053 
L 147 3053 
L 147 3500 
L 697 3500 
L 697 3744 
Q 697 4328 969 4595 
Q 1241 4863 1831 4863 
L 2375 4863 
z
" transform="scale(0.015625)"/>
        <path id="DejaVuSans-63" d="M 3122 3366 
L 3122 2828 
Q 2878 2963 2633 3030 
Q 2388 3097 2138 3097 
Q 1578 3097 1268 2742 
Q 959 2388 959 1747 
Q 959 1106 1268 751 
Q 1578 397 2138 397 
Q 2388 397 2633 464 
Q 2878 531 3122 666 
L 3122 134 
Q 2881 22 2623 -34 
Q 2366 -91 2075 -91 
Q 1284 -91 818 406 
Q 353 903 353 1747 
Q 353 2603 823 3093 
Q 1294 3584 2113 3584 
Q 2378 3584 2631 3529 
Q 2884 3475 3122 3366 
z
" transform="scale(0.015625)"/>
        <path id="DejaVuSans-61" d="M 2194 1759 
Q 1497 1759 1228 1600 
Q 959 1441 959 1056 
Q 959 750 1161 570 
Q 1363 391 1709 391 
Q 2188 391 2477 730 
Q 2766 1069 2766 1631 
L 2766 1759 
L 2194 1759 
z
M 3341 1997 
L 3341 0 
L 2766 0 
L 2766 531 
Q 2569 213 2275 61 
Q 1981 -91 1556 -91 
Q 1019 -91 701 211 
Q 384 513 384 1019 
Q 384 1609 779 1909 
Q 1175 2209 1959 2209 
L 2766 2209 
L 2766 2266 
Q 2766 2663 2505 2880 
Q 2244 3097 1772 3097 
Q 1472 3097 1187 3025 
Q 903 2953 641 2809 
L 641 3341 
Q 956 3463 1253 3523 
Q 1550 3584 1831 3584 
Q 2591 3584 2966 3190 
Q 3341 2797 3341 1997 
z
" transform="scale(0.015625)"/>
       </defs>
       <use xlink:href="#DejaVuSans-53"/>
       <use xlink:href="#DejaVuSans-75" x="63.476562"/>
       <use xlink:href="#DejaVuSans-70" x="126.855469"/>
       <use xlink:href="#DejaVuSans-65" x="190.332031"/>
       <use xlink:href="#DejaVuSans-72" x="251.855469"/>
       <use xlink:href="#DejaVuSans-66" x="292.96875"/>
       <use xlink:href="#DejaVuSans-69" x="328.173828"/>
       <use xlink:href="#DejaVuSans-63" x="355.957031"/>
       <use xlink:href="#DejaVuSans-69" x="410.9375"/>
       <use xlink:href="#DejaVuSans-61" x="438.720703"/>
       <use xlink:href="#DejaVuSans-6c" x="500"/>
      </g>
     </g>
    </g>
    <g id="text_4">
     <!-- Layer -->
     <g transform="translate(141.224624 270.395) scale(0.1 -0.1)">
      <defs>
       <path id="DejaVuSans-4c" d="M 628 4666 
L 1259 4666 
L 1259 531 
L 3531 531 
L 3531 0 
L 628 0 
L 628 4666 
z
" transform="scale(0.015625)"/>
       <path id="DejaVuSans-79" d="M 2059 -325 
Q 1816 -950 1584 -1140 
Q 1353 -1331 966 -1331 
L 506 -1331 
L 506 -850 
L 844 -850 
Q 1081 -850 1212 -737 
Q 1344 -625 1503 -206 
L 1606 56 
L 191 3500 
L 800 3500 
L 1894 763 
L 2988 3500 
L 3597 3500 
L 2059 -325 
z
" transform="scale(0.015625)"/>
      </defs>
      <use xlink:href="#DejaVuSans-4c"/>
      <use xlink:href="#DejaVuSans-61" x="55.712891"/>
      <use xlink:href="#DejaVuSans-79" x="116.992188"/>
      <use xlink:href="#DejaVuSans-65" x="176.171875"/>
      <use xlink:href="#DejaVuSans-72" x="237.695312"/>
     </g>
    </g>
   </g>
   <g id="matplotlib.axis_2">
    <g id="ytick_1">
     <g id="line2d_4">
      <defs>
       <path id="m474fc69ab3" d="M 0 0 
L -3.5 0 
" style="stroke: #000000; stroke-width: 0.8"/>
      </defs>
      <g>
       <use xlink:href="#m474fc69ab3" x="43.78125" y="242.118437" style="stroke: #000000; stroke-width: 0.8"/>
      </g>
     </g>
     <g id="text_5">
      <!-- 0.0 -->
      <g transform="translate(20.878125 245.917656) scale(0.1 -0.1)">
       <defs>
        <path id="DejaVuSans-30" d="M 2034 4250 
Q 1547 4250 1301 3770 
Q 1056 3291 1056 2328 
Q 1056 1369 1301 889 
Q 1547 409 2034 409 
Q 2525 409 2770 889 
Q 3016 1369 3016 2328 
Q 3016 3291 2770 3770 
Q 2525 4250 2034 4250 
z
M 2034 4750 
Q 2819 4750 3233 4129 
Q 3647 3509 3647 2328 
Q 3647 1150 3233 529 
Q 2819 -91 2034 -91 
Q 1250 -91 836 529 
Q 422 1150 422 2328 
Q 422 3509 836 4129 
Q 1250 4750 2034 4750 
z
" transform="scale(0.015625)"/>
        <path id="DejaVuSans-2e" d="M 684 794 
L 1344 794 
L 1344 0 
L 684 0 
L 684 794 
z
" transform="scale(0.015625)"/>
       </defs>
       <use xlink:href="#DejaVuSans-30"/>
       <use xlink:href="#DejaVuSans-2e" x="63.623047"/>
       <use xlink:href="#DejaVuSans-30" x="95.410156"/>
      </g>
     </g>
    </g>
    <g id="ytick_2">
     <g id="line2d_5">
      <g>
       <use xlink:href="#m474fc69ab3" x="43.78125" y="197.854437" style="stroke: #000000; stroke-width: 0.8"/>
      </g>
     </g>
     <g id="text_6">
      <!-- 0.2 -->
      <g transform="translate(20.878125 201.653656) scale(0.1 -0.1)">
       <defs>
        <path id="DejaVuSans-32" d="M 1228 531 
L 3431 531 
L 3431 0 
L 469 0 
L 469 531 
Q 828 903 1448 1529 
Q 2069 2156 2228 2338 
Q 2531 2678 2651 2914 
Q 2772 3150 2772 3378 
Q 2772 3750 2511 3984 
Q 2250 4219 1831 4219 
Q 1534 4219 1204 4116 
Q 875 4013 500 3803 
L 500 4441 
Q 881 4594 1212 4672 
Q 1544 4750 1819 4750 
Q 2544 4750 2975 4387 
Q 3406 4025 3406 3419 
Q 3406 3131 3298 2873 
Q 3191 2616 2906 2266 
Q 2828 2175 2409 1742 
Q 1991 1309 1228 531 
z
" transform="scale(0.015625)"/>
       </defs>
       <use xlink:href="#DejaVuSans-30"/>
       <use xlink:href="#DejaVuSans-2e" x="63.623047"/>
       <use xlink:href="#DejaVuSans-32" x="95.410156"/>
      </g>
     </g>
    </g>
    <g id="ytick_3">
     <g id="line2d_6">
      <g>
       <use xlink:href="#m474fc69ab3" x="43.78125" y="153.590437" style="stroke: #000000; stroke-width: 0.8"/>
      </g>
     </g>
     <g id="text_7">
      <!-- 0.4 -->
      <g transform="translate(20.878125 157.389656) scale(0.1 -0.1)">
       <defs>
        <path id="DejaVuSans-34" d="M 2419 4116 
L 825 1625 
L 2419 1625 
L 2419 4116 
z
M 2253 4666 
L 3047 4666 
L 3047 1625 
L 3713 1625 
L 3713 1100 
L 3047 1100 
L 3047 0 
L 2419 0 
L 2419 1100 
L 313 1100 
L 313 1709 
L 2253 4666 
z
" transform="scale(0.015625)"/>
       </defs>
       <use xlink:href="#DejaVuSans-30"/>
       <use xlink:href="#DejaVuSans-2e" x="63.623047"/>
       <use xlink:href="#DejaVuSans-34" x="95.410156"/>
      </g>
     </g>
    </g>
    <g id="ytick_4">
     <g id="line2d_7">
      <g>
       <use xlink:href="#m474fc69ab3" x="43.78125" y="109.326437" style="stroke: #000000; stroke-width: 0.8"/>
      </g>
     </g>
     <g id="text_8">
      <!-- 0.6 -->
      <g transform="translate(20.878125 113.125656) scale(0.1 -0.1)">
       <defs>
        <path id="DejaVuSans-36" d="M 2113 2584 
Q 1688 2584 1439 2293 
Q 1191 2003 1191 1497 
Q 1191 994 1439 701 
Q 1688 409 2113 409 
Q 2538 409 2786 701 
Q 3034 994 3034 1497 
Q 3034 2003 2786 2293 
Q 2538 2584 2113 2584 
z
M 3366 4563 
L 3366 3988 
Q 3128 4100 2886 4159 
Q 2644 4219 2406 4219 
Q 1781 4219 1451 3797 
Q 1122 3375 1075 2522 
Q 1259 2794 1537 2939 
Q 1816 3084 2150 3084 
Q 2853 3084 3261 2657 
Q 3669 2231 3669 1497 
Q 3669 778 3244 343 
Q 2819 -91 2113 -91 
Q 1303 -91 875 529 
Q 447 1150 447 2328 
Q 447 3434 972 4092 
Q 1497 4750 2381 4750 
Q 2619 4750 2861 4703 
Q 3103 4656 3366 4563 
z
" transform="scale(0.015625)"/>
       </defs>
       <use xlink:href="#DejaVuSans-30"/>
       <use xlink:href="#DejaVuSans-2e" x="63.623047"/>
       <use xlink:href="#DejaVuSans-36" x="95.410156"/>
      </g>
     </g>
    </g>
    <g id="ytick_5">
     <g id="line2d_8">
      <g>
       <use xlink:href="#m474fc69ab3" x="43.78125" y="65.062437" style="stroke: #000000; stroke-width: 0.8"/>
      </g>
     </g>
     <g id="text_9">
      <!-- 0.8 -->
      <g transform="translate(20.878125 68.861656) scale(0.1 -0.1)">
       <defs>
        <path id="DejaVuSans-38" d="M 2034 2216 
Q 1584 2216 1326 1975 
Q 1069 1734 1069 1313 
Q 1069 891 1326 650 
Q 1584 409 2034 409 
Q 2484 409 2743 651 
Q 3003 894 3003 1313 
Q 3003 1734 2745 1975 
Q 2488 2216 2034 2216 
z
M 1403 2484 
Q 997 2584 770 2862 
Q 544 3141 544 3541 
Q 544 4100 942 4425 
Q 1341 4750 2034 4750 
Q 2731 4750 3128 4425 
Q 3525 4100 3525 3541 
Q 3525 3141 3298 2862 
Q 3072 2584 2669 2484 
Q 3125 2378 3379 2068 
Q 3634 1759 3634 1313 
Q 3634 634 3220 271 
Q 2806 -91 2034 -91 
Q 1263 -91 848 271 
Q 434 634 434 1313 
Q 434 1759 690 2068 
Q 947 2378 1403 2484 
z
M 1172 3481 
Q 1172 3119 1398 2916 
Q 1625 2713 2034 2713 
Q 2441 2713 2670 2916 
Q 2900 3119 2900 3481 
Q 2900 3844 2670 4047 
Q 2441 4250 2034 4250 
Q 1625 4250 1398 4047 
Q 1172 3844 1172 3481 
z
" transform="scale(0.015625)"/>
       </defs>
       <use xlink:href="#DejaVuSans-30"/>
       <use xlink:href="#DejaVuSans-2e" x="63.623047"/>
       <use xlink:href="#DejaVuSans-38" x="95.410156"/>
      </g>
     </g>
    </g>
    <g id="ytick_6">
     <g id="line2d_9">
      <g>
       <use xlink:href="#m474fc69ab3" x="43.78125" y="20.798437" style="stroke: #000000; stroke-width: 0.8"/>
      </g>
     </g>
     <g id="text_10">
      <!-- 1.0 -->
      <g transform="translate(20.878125 24.597656) scale(0.1 -0.1)">
       <defs>
        <path id="DejaVuSans-31" d="M 794 531 
L 1825 531 
L 1825 4091 
L 703 3866 
L 703 4441 
L 1819 4666 
L 2450 4666 
L 2450 531 
L 3481 531 
L 3481 0 
L 794 0 
L 794 531 
z
" transform="scale(0.015625)"/>
       </defs>
       <use xlink:href="#DejaVuSans-31"/>
       <use xlink:href="#DejaVuSans-2e" x="63.623047"/>
       <use xlink:href="#DejaVuSans-30" x="95.410156"/>
      </g>
     </g>
    </g>
    <g id="text_11">
     <!-- Accuracy -->
     <g transform="translate(14.798438 154.286563) rotate(-90) scale(0.1 -0.1)">
      <defs>
       <path id="DejaVuSans-41" d="M 2188 4044 
L 1331 1722 
L 3047 1722 
L 2188 4044 
z
M 1831 4666 
L 2547 4666 
L 4325 0 
L 3669 0 
L 3244 1197 
L 1141 1197 
L 716 0 
L 50 0 
L 1831 4666 
z
" transform="scale(0.015625)"/>
      </defs>
      <use xlink:href="#DejaVuSans-41"/>
      <use xlink:href="#DejaVuSans-63" x="66.658203"/>
      <use xlink:href="#DejaVuSans-63" x="121.638672"/>
      <use xlink:href="#DejaVuSans-75" x="176.619141"/>
      <use xlink:href="#DejaVuSans-72" x="239.998047"/>
      <use xlink:href="#DejaVuSans-61" x="281.111328"/>
      <use xlink:href="#DejaVuSans-63" x="342.390625"/>
      <use xlink:href="#DejaVuSans-79" x="397.371094"/>
     </g>
    </g>
   </g>
   <g id="line2d_10">
    <path d="M 43.78125 131.458438 
L 266.550811 131.458438 
" clip-path="url(#p97685dfaa1)" style="fill: none; stroke-dasharray: 5.55,2.4; stroke-dashoffset: 0; stroke: #808080; stroke-width: 1.5"/>
   </g>
   <g id="patch_3">
    <path d="M 43.78125 242.118437 
L 43.78125 20.798437 
" style="fill: none; stroke: #000000; stroke-width: 0.8; stroke-linejoin: miter; stroke-linecap: square"/>
   </g>
   <g id="patch_4">
    <path d="M 43.78125 242.118437 
L 266.550811 242.118437 
" style="fill: none; stroke: #000000; stroke-width: 0.8; stroke-linejoin: miter; stroke-linecap: square"/>
   </g>
   <g id="PathCollection_1">
    <defs>
     <path id="md8bd85cbaf" d="M 0 1.25 
C 0.331504 1.25 0.649475 1.118292 0.883883 0.883883 
C 1.118292 0.649475 1.25 0.331504 1.25 0 
C 1.25 -0.331504 1.118292 -0.649475 0.883883 -0.883883 
C 0.649475 -1.118292 0.331504 -1.25 0 -1.25 
C -0.331504 -1.25 -0.649475 -1.118292 -0.883883 -0.883883 
C -1.118292 -0.649475 -1.25 -0.331504 -1.25 0 
C -1.25 0.331504 -1.118292 0.649475 -0.883883 0.883883 
C -0.649475 1.118292 -0.331504 1.25 0 1.25 
z
" style="stroke: #595959"/>
    </defs>
    <g clip-path="url(#p97685dfaa1)">
     <use xlink:href="#md8bd85cbaf" x="80.90951" y="20.798437" style="fill: #595959; stroke: #595959"/>
     <use xlink:href="#md8bd85cbaf" x="80.90951" y="25.224837" style="fill: #595959; stroke: #595959"/>
     <use xlink:href="#md8bd85cbaf" x="80.90951" y="23.011637" style="fill: #595959; stroke: #595959"/>
     <use xlink:href="#md8bd85cbaf" x="80.90951" y="25.224837" style="fill: #595959; stroke: #595959"/>
     <use xlink:href="#md8bd85cbaf" x="80.90951" y="23.011637" style="fill: #595959; stroke: #595959"/>
     <use xlink:href="#md8bd85cbaf" x="80.90951" y="20.798437" style="fill: #595959; stroke: #595959"/>
     <use xlink:href="#md8bd85cbaf" x="80.90951" y="23.011637" style="fill: #595959; stroke: #595959"/>
     <use xlink:href="#md8bd85cbaf" x="80.90951" y="36.290837" style="fill: #595959; stroke: #595959"/>
     <use xlink:href="#md8bd85cbaf" x="80.90951" y="29.651237" style="fill: #595959; stroke: #595959"/>
     <use xlink:href="#md8bd85cbaf" x="80.90951" y="23.011637" style="fill: #595959; stroke: #595959"/>
     <use xlink:href="#md8bd85cbaf" x="80.90951" y="20.798437" style="fill: #595959; stroke: #595959"/>
     <use xlink:href="#md8bd85cbaf" x="80.90951" y="31.864437" style="fill: #595959; stroke: #595959"/>
     <use xlink:href="#md8bd85cbaf" x="80.90951" y="25.224837" style="fill: #595959; stroke: #595959"/>
     <use xlink:href="#md8bd85cbaf" x="80.90951" y="23.011637" style="fill: #595959; stroke: #595959"/>
     <use xlink:href="#md8bd85cbaf" x="80.90951" y="25.224837" style="fill: #595959; stroke: #595959"/>
     <use xlink:href="#md8bd85cbaf" x="80.90951" y="27.438037" style="fill: #595959; stroke: #595959"/>
     <use xlink:href="#md8bd85cbaf" x="80.90951" y="23.011637" style="fill: #595959; stroke: #595959"/>
     <use xlink:href="#md8bd85cbaf" x="80.90951" y="20.798437" style="fill: #595959; stroke: #595959"/>
     <use xlink:href="#md8bd85cbaf" x="80.90951" y="20.798437" style="fill: #595959; stroke: #595959"/>
     <use xlink:href="#md8bd85cbaf" x="80.90951" y="23.011637" style="fill: #595959; stroke: #595959"/>
    </g>
   </g>
   <g id="PathCollection_2">
    <g clip-path="url(#p97685dfaa1)">
     <use xlink:href="#md8bd85cbaf" x="155.166031" y="124.818837" style="fill: #595959; stroke: #595959"/>
     <use xlink:href="#md8bd85cbaf" x="155.166031" y="89.407637" style="fill: #595959; stroke: #595959"/>
     <use xlink:href="#md8bd85cbaf" x="155.166031" y="98.260437" style="fill: #595959; stroke: #595959"/>
     <use xlink:href="#md8bd85cbaf" x="155.166031" y="120.392437" style="fill: #595959; stroke: #595959"/>
     <use xlink:href="#md8bd85cbaf" x="155.166031" y="96.047237" style="fill: #595959; stroke: #595959"/>
     <use xlink:href="#md8bd85cbaf" x="155.166031" y="80.554837" style="fill: #595959; stroke: #595959"/>
     <use xlink:href="#md8bd85cbaf" x="155.166031" y="93.834037" style="fill: #595959; stroke: #595959"/>
     <use xlink:href="#md8bd85cbaf" x="155.166031" y="91.620837" style="fill: #595959; stroke: #595959"/>
     <use xlink:href="#md8bd85cbaf" x="155.166031" y="100.473637" style="fill: #595959; stroke: #595959"/>
     <use xlink:href="#md8bd85cbaf" x="155.166031" y="96.047237" style="fill: #595959; stroke: #595959"/>
     <use xlink:href="#md8bd85cbaf" x="155.166031" y="122.605637" style="fill: #595959; stroke: #595959"/>
     <use xlink:href="#md8bd85cbaf" x="155.166031" y="71.702037" style="fill: #595959; stroke: #595959"/>
     <use xlink:href="#md8bd85cbaf" x="155.166031" y="107.113237" style="fill: #595959; stroke: #595959"/>
     <use xlink:href="#md8bd85cbaf" x="155.166031" y="107.113237" style="fill: #595959; stroke: #595959"/>
     <use xlink:href="#md8bd85cbaf" x="155.166031" y="96.047237" style="fill: #595959; stroke: #595959"/>
     <use xlink:href="#md8bd85cbaf" x="155.166031" y="82.768037" style="fill: #595959; stroke: #595959"/>
     <use xlink:href="#md8bd85cbaf" x="155.166031" y="84.981237" style="fill: #595959; stroke: #595959"/>
     <use xlink:href="#md8bd85cbaf" x="155.166031" y="87.194437" style="fill: #595959; stroke: #595959"/>
     <use xlink:href="#md8bd85cbaf" x="155.166031" y="107.113237" style="fill: #595959; stroke: #595959"/>
     <use xlink:href="#md8bd85cbaf" x="155.166031" y="102.686837" style="fill: #595959; stroke: #595959"/>
    </g>
   </g>
   <g id="PathCollection_3">
    <g clip-path="url(#p97685dfaa1)">
     <use xlink:href="#md8bd85cbaf" x="229.422551" y="98.260437" style="fill: #595959; stroke: #595959"/>
     <use xlink:href="#md8bd85cbaf" x="229.422551" y="109.326437" style="fill: #595959; stroke: #595959"/>
     <use xlink:href="#md8bd85cbaf" x="229.422551" y="124.818837" style="fill: #595959; stroke: #595959"/>
     <use xlink:href="#md8bd85cbaf" x="229.422551" y="104.900037" style="fill: #595959; stroke: #595959"/>
     <use xlink:href="#md8bd85cbaf" x="229.422551" y="98.260437" style="fill: #595959; stroke: #595959"/>
     <use xlink:href="#md8bd85cbaf" x="229.422551" y="109.326437" style="fill: #595959; stroke: #595959"/>
     <use xlink:href="#md8bd85cbaf" x="229.422551" y="111.539637" style="fill: #595959; stroke: #595959"/>
     <use xlink:href="#md8bd85cbaf" x="229.422551" y="113.752838" style="fill: #595959; stroke: #595959"/>
     <use xlink:href="#md8bd85cbaf" x="229.422551" y="98.260437" style="fill: #595959; stroke: #595959"/>
     <use xlink:href="#md8bd85cbaf" x="229.422551" y="118.179237" style="fill: #595959; stroke: #595959"/>
     <use xlink:href="#md8bd85cbaf" x="229.422551" y="89.407637" style="fill: #595959; stroke: #595959"/>
     <use xlink:href="#md8bd85cbaf" x="229.422551" y="129.245237" style="fill: #595959; stroke: #595959"/>
     <use xlink:href="#md8bd85cbaf" x="229.422551" y="133.671638" style="fill: #595959; stroke: #595959"/>
     <use xlink:href="#md8bd85cbaf" x="229.422551" y="122.605637" style="fill: #595959; stroke: #595959"/>
     <use xlink:href="#md8bd85cbaf" x="229.422551" y="115.966037" style="fill: #595959; stroke: #595959"/>
     <use xlink:href="#md8bd85cbaf" x="229.422551" y="120.392437" style="fill: #595959; stroke: #595959"/>
     <use xlink:href="#md8bd85cbaf" x="229.422551" y="115.966037" style="fill: #595959; stroke: #595959"/>
     <use xlink:href="#md8bd85cbaf" x="229.422551" y="122.605637" style="fill: #595959; stroke: #595959"/>
     <use xlink:href="#md8bd85cbaf" x="229.422551" y="111.539637" style="fill: #595959; stroke: #595959"/>
     <use xlink:href="#md8bd85cbaf" x="229.422551" y="120.392437" style="fill: #595959; stroke: #595959"/>
    </g>
   </g>
   <g id="text_12">
    <!-- Rho = 0.4 -->
    <g transform="translate(273.08589 106.436563) rotate(-270) scale(0.1 -0.1)">
     <defs>
      <path id="DejaVuSans-52" d="M 2841 2188 
Q 3044 2119 3236 1894 
Q 3428 1669 3622 1275 
L 4263 0 
L 3584 0 
L 2988 1197 
Q 2756 1666 2539 1819 
Q 2322 1972 1947 1972 
L 1259 1972 
L 1259 0 
L 628 0 
L 628 4666 
L 2053 4666 
Q 2853 4666 3247 4331 
Q 3641 3997 3641 3322 
Q 3641 2881 3436 2590 
Q 3231 2300 2841 2188 
z
M 1259 4147 
L 1259 2491 
L 2053 2491 
Q 2509 2491 2742 2702 
Q 2975 2913 2975 3322 
Q 2975 3731 2742 3939 
Q 2509 4147 2053 4147 
L 1259 4147 
z
" transform="scale(0.015625)"/>
      <path id="DejaVuSans-68" d="M 3513 2113 
L 3513 0 
L 2938 0 
L 2938 2094 
Q 2938 2591 2744 2837 
Q 2550 3084 2163 3084 
Q 1697 3084 1428 2787 
Q 1159 2491 1159 1978 
L 1159 0 
L 581 0 
L 581 4863 
L 1159 4863 
L 1159 2956 
Q 1366 3272 1645 3428 
Q 1925 3584 2291 3584 
Q 2894 3584 3203 3211 
Q 3513 2838 3513 2113 
z
" transform="scale(0.015625)"/>
      <path id="DejaVuSans-6f" d="M 1959 3097 
Q 1497 3097 1228 2736 
Q 959 2375 959 1747 
Q 959 1119 1226 758 
Q 1494 397 1959 397 
Q 2419 397 2687 759 
Q 2956 1122 2956 1747 
Q 2956 2369 2687 2733 
Q 2419 3097 1959 3097 
z
M 1959 3584 
Q 2709 3584 3137 3096 
Q 3566 2609 3566 1747 
Q 3566 888 3137 398 
Q 2709 -91 1959 -91 
Q 1206 -91 779 398 
Q 353 888 353 1747 
Q 353 2609 779 3096 
Q 1206 3584 1959 3584 
z
" transform="scale(0.015625)"/>
      <path id="DejaVuSans-20" transform="scale(0.015625)"/>
      <path id="DejaVuSans-3d" d="M 678 2906 
L 4684 2906 
L 4684 2381 
L 678 2381 
L 678 2906 
z
M 678 1631 
L 4684 1631 
L 4684 1100 
L 678 1100 
L 678 1631 
z
" transform="scale(0.015625)"/>
     </defs>
     <use xlink:href="#DejaVuSans-52"/>
     <use xlink:href="#DejaVuSans-68" x="69.482422"/>
     <use xlink:href="#DejaVuSans-6f" x="132.861328"/>
     <use xlink:href="#DejaVuSans-20" x="194.042969"/>
     <use xlink:href="#DejaVuSans-3d" x="225.830078"/>
     <use xlink:href="#DejaVuSans-20" x="309.619141"/>
     <use xlink:href="#DejaVuSans-30" x="341.40625"/>
     <use xlink:href="#DejaVuSans-2e" x="405.029297"/>
     <use xlink:href="#DejaVuSans-34" x="436.816406"/>
    </g>
   </g>
   <g id="text_13">
    <!-- CNR_change = 1 -->
    <g transform="translate(113.008999 14.798437) scale(0.1 -0.1)">
     <defs>
      <path id="DejaVuSans-43" d="M 4122 4306 
L 4122 3641 
Q 3803 3938 3442 4084 
Q 3081 4231 2675 4231 
Q 1875 4231 1450 3742 
Q 1025 3253 1025 2328 
Q 1025 1406 1450 917 
Q 1875 428 2675 428 
Q 3081 428 3442 575 
Q 3803 722 4122 1019 
L 4122 359 
Q 3791 134 3420 21 
Q 3050 -91 2638 -91 
Q 1578 -91 968 557 
Q 359 1206 359 2328 
Q 359 3453 968 4101 
Q 1578 4750 2638 4750 
Q 3056 4750 3426 4639 
Q 3797 4528 4122 4306 
z
" transform="scale(0.015625)"/>
      <path id="DejaVuSans-4e" d="M 628 4666 
L 1478 4666 
L 3547 763 
L 3547 4666 
L 4159 4666 
L 4159 0 
L 3309 0 
L 1241 3903 
L 1241 0 
L 628 0 
L 628 4666 
z
" transform="scale(0.015625)"/>
      <path id="DejaVuSans-5f" d="M 3263 -1063 
L 3263 -1509 
L -63 -1509 
L -63 -1063 
L 3263 -1063 
z
" transform="scale(0.015625)"/>
      <path id="DejaVuSans-6e" d="M 3513 2113 
L 3513 0 
L 2938 0 
L 2938 2094 
Q 2938 2591 2744 2837 
Q 2550 3084 2163 3084 
Q 1697 3084 1428 2787 
Q 1159 2491 1159 1978 
L 1159 0 
L 581 0 
L 581 3500 
L 1159 3500 
L 1159 2956 
Q 1366 3272 1645 3428 
Q 1925 3584 2291 3584 
Q 2894 3584 3203 3211 
Q 3513 2838 3513 2113 
z
" transform="scale(0.015625)"/>
      <path id="DejaVuSans-67" d="M 2906 1791 
Q 2906 2416 2648 2759 
Q 2391 3103 1925 3103 
Q 1463 3103 1205 2759 
Q 947 2416 947 1791 
Q 947 1169 1205 825 
Q 1463 481 1925 481 
Q 2391 481 2648 825 
Q 2906 1169 2906 1791 
z
M 3481 434 
Q 3481 -459 3084 -895 
Q 2688 -1331 1869 -1331 
Q 1566 -1331 1297 -1286 
Q 1028 -1241 775 -1147 
L 775 -588 
Q 1028 -725 1275 -790 
Q 1522 -856 1778 -856 
Q 2344 -856 2625 -561 
Q 2906 -266 2906 331 
L 2906 616 
Q 2728 306 2450 153 
Q 2172 0 1784 0 
Q 1141 0 747 490 
Q 353 981 353 1791 
Q 353 2603 747 3093 
Q 1141 3584 1784 3584 
Q 2172 3584 2450 3431 
Q 2728 3278 2906 2969 
L 2906 3500 
L 3481 3500 
L 3481 434 
z
" transform="scale(0.015625)"/>
     </defs>
     <use xlink:href="#DejaVuSans-43"/>
     <use xlink:href="#DejaVuSans-4e" x="69.824219"/>
     <use xlink:href="#DejaVuSans-52" x="144.628906"/>
     <use xlink:href="#DejaVuSans-5f" x="214.111328"/>
     <use xlink:href="#DejaVuSans-63" x="264.111328"/>
     <use xlink:href="#DejaVuSans-68" x="319.091797"/>
     <use xlink:href="#DejaVuSans-61" x="382.470703"/>
     <use xlink:href="#DejaVuSans-6e" x="443.75"/>
     <use xlink:href="#DejaVuSans-67" x="507.128906"/>
     <use xlink:href="#DejaVuSans-65" x="570.605469"/>
     <use xlink:href="#DejaVuSans-20" x="632.128906"/>
     <use xlink:href="#DejaVuSans-3d" x="663.916016"/>
     <use xlink:href="#DejaVuSans-20" x="747.705078"/>
     <use xlink:href="#DejaVuSans-31" x="779.492188"/>
    </g>
   </g>
  </g>
  <g id="legend_1"/>
 </g>
 <defs>
  <clipPath id="p97685dfaa1">
   <rect x="43.78125" y="20.798437" width="222.769561" height="221.32"/>
  </clipPath>
 </defs>
</svg>
