<?xml version="1.0" encoding="utf-8" standalone="no"?>
<!DOCTYPE svg PUBLIC "-//W3C//DTD SVG 1.1//EN"
  "http://www.w3.org/Graphics/SVG/1.1/DTD/svg11.dtd">
<svg xmlns:xlink="http://www.w3.org/1999/xlink" width="294.17125pt" height="279.674688pt" viewBox="0 0 294.17125 279.674688" xmlns="http://www.w3.org/2000/svg" version="1.1">
 <metadata>
  <rdf:RDF xmlns:dc="http://purl.org/dc/elements/1.1/" xmlns:cc="http://creativecommons.org/ns#" xmlns:rdf="http://www.w3.org/1999/02/22-rdf-syntax-ns#">
   <cc:Work>
    <dc:type rdf:resource="http://purl.org/dc/dcmitype/StillImage"/>
    <dc:date>2025-08-25T15:50:49.842534</dc:date>
    <dc:format>image/svg+xml</dc:format>
    <dc:creator>
     <cc:Agent>
      <dc:title>Matplotlib v3.8.4, https://matplotlib.org/</dc:title>
     </cc:Agent>
    </dc:creator>
   </cc:Work>
  </rdf:RDF>
 </metadata>
 <defs>
  <style type="text/css">*{stroke-linejoin: round; stroke-linecap: butt}</style>
 </defs>
 <g id="figure_1">
  <g id="patch_1">
   <path d="M 0 279.674688 
L 294.17125 279.674688 
L 294.17125 0 
L 0 0 
z
" style="fill: #ffffff"/>
  </g>
  <g id="axes_1">
   <g id="patch_2">
    <path d="M 43.78125 242.118437 
L 266.550811 242.118437 
L 266.550811 20.798437 
L 43.78125 20.798437 
z
" style="fill: #ffffff"/>
   </g>
   <g id="PolyCollection_1">
    <defs>
     <path id="maff1df6852" d="M 81.220227 -236.277684 
L 80.598794 -236.277684 
L 80.521653 -236.555377 
L 80.431431 -236.833069 
L 80.327575 -237.110761 
L 80.209943 -237.388453 
L 80.078891 -237.666145 
L 79.935329 -237.943838 
L 79.780753 -238.22153 
L 79.617238 -238.499222 
L 79.447387 -238.776914 
L 79.274231 -239.054607 
L 79.101091 -239.332299 
L 78.931403 -239.609991 
L 78.768518 -239.887683 
L 78.615501 -240.165376 
L 78.474934 -240.443068 
L 78.348759 -240.72076 
L 78.238162 -240.998452 
L 78.143522 -241.276145 
L 78.064425 -241.553837 
L 77.999744 -241.831529 
L 77.94778 -242.109221 
L 77.906438 -242.386914 
L 77.873437 -242.664606 
L 77.846502 -242.942298 
L 77.823538 -243.21999 
L 77.802755 -243.497682 
L 77.782722 -243.775375 
L 77.762358 -244.053067 
L 77.740845 -244.330759 
L 77.717488 -244.608451 
L 77.691524 -244.886144 
L 77.661921 -245.163836 
L 77.627178 -245.441528 
L 77.585155 -245.71922 
L 77.532962 -245.996913 
L 77.466904 -246.274605 
L 77.382503 -246.552297 
L 77.274588 -246.829989 
L 77.137443 -247.107682 
L 76.964995 -247.385374 
L 76.751031 -247.663066 
L 76.489409 -247.940758 
L 76.17426 -248.21845 
L 75.800164 -248.496143 
L 75.36228 -248.773835 
L 74.856455 -249.051527 
L 74.279292 -249.329219 
L 73.6282 -249.606912 
L 72.901447 -249.884604 
L 72.09821 -250.162296 
L 71.218656 -250.439988 
L 70.26404 -250.717681 
L 69.236848 -250.995373 
L 68.140957 -251.273065 
L 66.981819 -251.550757 
L 65.766648 -251.82845 
L 64.50459 -252.106142 
L 63.206853 -252.383834 
L 61.886781 -252.661526 
L 60.559846 -252.939218 
L 59.243538 -253.216911 
L 57.957153 -253.494603 
L 56.721463 -253.772295 
L 55.558264 -254.049987 
L 54.489834 -254.32768 
L 53.538294 -254.605372 
L 52.7249 -254.883064 
L 52.069314 -255.160756 
L 51.588864 -255.438449 
L 51.297846 -255.716141 
L 51.206902 -255.993833 
L 51.322511 -256.271525 
L 51.646622 -256.549218 
L 52.176462 -256.82691 
L 52.90452 -257.104602 
L 53.81873 -257.382294 
L 54.902832 -257.659986 
L 56.136902 -257.937679 
L 57.498021 -258.215371 
L 58.961053 -258.493063 
L 60.499484 -258.770755 
L 62.086286 -259.048448 
L 63.694771 -259.32614 
L 65.299382 -259.603832 
L 66.876402 -259.881524 
L 68.40454 -260.159217 
L 69.865402 -260.436909 
L 71.243799 -260.714601 
L 72.527923 -260.992293 
L 73.709377 -261.269986 
L 74.783077 -261.547678 
L 75.747033 -261.82537 
L 76.602048 -262.103062 
L 77.351334 -262.380755 
L 78.000093 -262.658447 
L 78.555068 -262.936139 
L 79.024102 -263.213831 
L 79.415712 -263.491523 
L 79.73871 -263.769216 
L 82.080311 -263.769216 
L 82.080311 -263.769216 
L 82.403308 -263.491523 
L 82.794919 -263.213831 
L 83.263952 -262.936139 
L 83.818927 -262.658447 
L 84.467686 -262.380755 
L 85.216972 -262.103062 
L 86.071987 -261.82537 
L 87.035943 -261.547678 
L 88.109643 -261.269986 
L 89.291098 -260.992293 
L 90.575222 -260.714601 
L 91.953618 -260.436909 
L 93.41448 -260.159217 
L 94.942619 -259.881524 
L 96.519638 -259.603832 
L 98.124249 -259.32614 
L 99.732735 -259.048448 
L 101.319537 -258.770755 
L 102.857967 -258.493063 
L 104.320999 -258.215371 
L 105.682119 -257.937679 
L 106.916188 -257.659986 
L 108.00029 -257.382294 
L 108.9145 -257.104602 
L 109.642559 -256.82691 
L 110.172398 -256.549218 
L 110.49651 -256.271525 
L 110.612118 -255.993833 
L 110.521174 -255.716141 
L 110.230156 -255.438449 
L 109.749706 -255.160756 
L 109.09412 -254.883064 
L 108.280727 -254.605372 
L 107.329186 -254.32768 
L 106.260757 -254.049987 
L 105.097558 -253.772295 
L 103.861867 -253.494603 
L 102.575483 -253.216911 
L 101.259175 -252.939218 
L 99.932239 -252.661526 
L 98.612168 -252.383834 
L 97.314431 -252.106142 
L 96.052372 -251.82845 
L 94.837202 -251.550757 
L 93.678064 -251.273065 
L 92.582172 -250.995373 
L 91.55498 -250.717681 
L 90.600364 -250.439988 
L 89.72081 -250.162296 
L 88.917574 -249.884604 
L 88.190821 -249.606912 
L 87.539729 -249.329219 
L 86.962565 -249.051527 
L 86.45674 -248.773835 
L 86.018857 -248.496143 
L 85.64476 -248.21845 
L 85.329612 -247.940758 
L 85.067989 -247.663066 
L 84.854025 -247.385374 
L 84.681578 -247.107682 
L 84.544433 -246.829989 
L 84.436518 -246.552297 
L 84.352116 -246.274605 
L 84.286058 -245.996913 
L 84.233865 -245.71922 
L 84.191842 -245.441528 
L 84.157099 -245.163836 
L 84.127496 -244.886144 
L 84.101532 -244.608451 
L 84.078175 -244.330759 
L 84.056663 -244.053067 
L 84.036298 -243.775375 
L 84.016265 -243.497682 
L 83.995482 -243.21999 
L 83.972518 -242.942298 
L 83.945583 -242.664606 
L 83.912582 -242.386914 
L 83.871241 -242.109221 
L 83.819276 -241.831529 
L 83.754595 -241.553837 
L 83.675498 -241.276145 
L 83.580859 -240.998452 
L 83.470262 -240.72076 
L 83.344086 -240.443068 
L 83.203519 -240.165376 
L 83.050502 -239.887683 
L 82.887617 -239.609991 
L 82.717929 -239.332299 
L 82.54479 -239.054607 
L 82.371633 -238.776914 
L 82.201782 -238.499222 
L 82.038267 -238.22153 
L 81.883691 -237.943838 
L 81.740129 -237.666145 
L 81.609077 -237.388453 
L 81.491446 -237.110761 
L 81.387589 -236.833069 
L 81.297367 -236.555377 
L 81.220227 -236.277684 
z
" style="stroke: #595959; stroke-width: 1.25"/>
    </defs>
    <g clip-path="url(#paed1573a90)">
     <use xlink:href="#maff1df6852" x="0" y="279.674688" style="fill: #72b6a1; stroke: #595959; stroke-width: 1.25"/>
    </g>
   </g>
   <g id="PolyCollection_2">
    <defs>
     <path id="mbbf61b219d" d="M 155.561675 -147.459613 
L 154.770386 -147.459613 
L 154.665704 -148.279699 
L 154.541106 -149.099784 
L 154.394924 -149.91987 
L 154.22585 -150.739956 
L 154.033031 -151.560041 
L 153.816153 -152.380127 
L 153.575491 -153.200212 
L 153.311928 -154.020298 
L 153.026929 -154.840384 
L 152.722481 -155.660469 
L 152.401 -156.480555 
L 152.065206 -157.30064 
L 151.717993 -158.120726 
L 151.362293 -158.940811 
L 151.000957 -159.760897 
L 150.636646 -160.580983 
L 150.271757 -161.401068 
L 149.90836 -162.221154 
L 149.548149 -163.041239 
L 149.192396 -163.861325 
L 148.841888 -164.681411 
L 148.496842 -165.501496 
L 148.156781 -166.321582 
L 147.820391 -167.141667 
L 147.485351 -167.961753 
L 147.148181 -168.781839 
L 146.804111 -169.601924 
L 146.447036 -170.42201 
L 146.069562 -171.242095 
L 145.663189 -172.062181 
L 145.218635 -172.882267 
L 144.726297 -173.702352 
L 144.176835 -174.522438 
L 143.561832 -175.342523 
L 142.874486 -176.162609 
L 142.110257 -176.982695 
L 141.267436 -177.80278 
L 140.347543 -178.622866 
L 139.355551 -179.442951 
L 138.29988 -180.263037 
L 137.19218 -181.083122 
L 136.046916 -181.903208 
L 134.880785 -182.723294 
L 133.712033 -183.543379 
L 132.559708 -184.363465 
L 131.442924 -185.18355 
L 130.380178 -186.003636 
L 129.388768 -186.823722 
L 128.484335 -187.643807 
L 127.68054 -188.463893 
L 126.988882 -189.283978 
L 126.418637 -190.104064 
L 125.976895 -190.92415 
L 125.668671 -191.744235 
L 125.497065 -192.564321 
L 125.463422 -193.384406 
L 125.567505 -194.204492 
L 125.807616 -195.024578 
L 126.180699 -195.844663 
L 126.682385 -196.664749 
L 127.307 -197.484834 
L 128.047551 -198.30492 
L 128.895687 -199.125005 
L 129.841677 -199.945091 
L 130.874413 -200.765177 
L 131.981471 -201.585262 
L 133.149244 -202.405348 
L 134.363157 -203.225433 
L 135.607981 -204.045519 
L 136.86822 -204.865605 
L 138.128565 -205.68569 
L 139.374387 -206.505776 
L 140.592221 -207.325861 
L 141.770219 -208.145947 
L 142.898516 -208.966033 
L 143.969482 -209.786118 
L 144.977843 -210.606204 
L 145.92065 -211.426289 
L 146.79711 -212.246375 
L 147.608295 -213.066461 
L 148.356757 -213.886546 
L 149.046096 -214.706632 
L 149.680516 -215.526717 
L 150.264414 -216.346803 
L 150.802029 -217.166889 
L 151.297188 -217.986974 
L 151.753144 -218.80706 
L 152.172518 -219.627145 
L 152.557324 -220.447231 
L 152.909071 -221.267316 
L 153.228902 -222.087402 
L 153.517755 -222.907488 
L 153.776521 -223.727573 
L 154.006179 -224.547659 
L 154.207892 -225.367744 
L 154.383071 -226.18783 
L 154.533384 -227.007916 
L 154.660739 -227.828001 
L 154.767236 -228.648087 
L 155.564826 -228.648087 
L 155.564826 -228.648087 
L 155.671322 -227.828001 
L 155.798677 -227.007916 
L 155.94899 -226.18783 
L 156.124169 -225.367744 
L 156.325882 -224.547659 
L 156.55554 -223.727573 
L 156.814306 -222.907488 
L 157.103159 -222.087402 
L 157.42299 -221.267316 
L 157.774737 -220.447231 
L 158.159543 -219.627145 
L 158.578917 -218.80706 
L 159.034873 -217.986974 
L 159.530033 -217.166889 
L 160.067648 -216.346803 
L 160.651545 -215.526717 
L 161.285965 -214.706632 
L 161.975304 -213.886546 
L 162.723766 -213.066461 
L 163.534951 -212.246375 
L 164.411411 -211.426289 
L 165.354218 -210.606204 
L 166.362579 -209.786118 
L 167.433545 -208.966033 
L 168.561842 -208.145947 
L 169.73984 -207.325861 
L 170.957674 -206.505776 
L 172.203496 -205.68569 
L 173.463841 -204.865605 
L 174.72408 -204.045519 
L 175.968904 -203.225433 
L 177.182818 -202.405348 
L 178.35059 -201.585262 
L 179.457648 -200.765177 
L 180.490384 -199.945091 
L 181.436374 -199.125005 
L 182.28451 -198.30492 
L 183.025061 -197.484834 
L 183.649677 -196.664749 
L 184.151362 -195.844663 
L 184.524445 -195.024578 
L 184.764556 -194.204492 
L 184.868639 -193.384406 
L 184.834997 -192.564321 
L 184.66339 -191.744235 
L 184.355166 -190.92415 
L 183.913424 -190.104064 
L 183.343179 -189.283978 
L 182.651521 -188.463893 
L 181.847726 -187.643807 
L 180.943293 -186.823722 
L 179.951883 -186.003636 
L 178.889137 -185.18355 
L 177.772353 -184.363465 
L 176.620028 -183.543379 
L 175.451276 -182.723294 
L 174.285146 -181.903208 
L 173.139881 -181.083122 
L 172.032181 -180.263037 
L 170.97651 -179.442951 
L 169.984518 -178.622866 
L 169.064626 -177.80278 
L 168.221804 -176.982695 
L 167.457576 -176.162609 
L 166.770229 -175.342523 
L 166.155226 -174.522438 
L 165.605764 -173.702352 
L 165.113426 -172.882267 
L 164.668872 -172.062181 
L 164.262499 -171.242095 
L 163.885025 -170.42201 
L 163.52795 -169.601924 
L 163.183881 -168.781839 
L 162.84671 -167.961753 
L 162.511671 -167.141667 
L 162.17528 -166.321582 
L 161.835219 -165.501496 
L 161.490173 -164.681411 
L 161.139665 -163.861325 
L 160.783912 -163.041239 
L 160.423701 -162.221154 
L 160.060304 -161.401068 
L 159.695415 -160.580983 
L 159.331105 -159.760897 
L 158.969768 -158.940811 
L 158.614069 -158.120726 
L 158.266855 -157.30064 
L 157.931061 -156.480555 
L 157.60958 -155.660469 
L 157.305132 -154.840384 
L 157.020133 -154.020298 
L 156.75657 -153.200212 
L 156.515908 -152.380127 
L 156.29903 -151.560041 
L 156.106211 -150.739956 
L 155.937137 -149.91987 
L 155.790955 -149.099784 
L 155.666357 -148.279699 
L 155.561675 -147.459613 
z
" style="stroke: #595959; stroke-width: 1.25"/>
    </defs>
    <g clip-path="url(#paed1573a90)">
     <use xlink:href="#mbbf61b219d" x="0" y="279.674688" style="fill: #e99675; stroke: #595959; stroke-width: 1.25"/>
    </g>
   </g>
   <g id="PolyCollection_3">
    <defs>
     <path id="m5fb3d536e3" d="M 229.87742 -110.290424 
L 228.967682 -110.290424 
L 228.850907 -111.190736 
L 228.712481 -112.091048 
L 228.550539 -112.991359 
L 228.363501 -113.891671 
L 228.150123 -114.791982 
L 227.909531 -115.692294 
L 227.641203 -116.592606 
L 227.344906 -117.492917 
L 227.020593 -118.393229 
L 226.668249 -119.293541 
L 226.287712 -120.193852 
L 225.878485 -121.094164 
L 225.439551 -121.994475 
L 224.969249 -122.894787 
L 224.465194 -123.795099 
L 223.924308 -124.69541 
L 223.34295 -125.595722 
L 222.717155 -126.496034 
L 222.042978 -127.396345 
L 221.316916 -128.296657 
L 220.536373 -129.196969 
L 219.700125 -130.09728 
L 218.808724 -130.997592 
L 217.86481 -131.897903 
L 216.873278 -132.798215 
L 215.84127 -133.698527 
L 214.777994 -134.598838 
L 213.694363 -135.49915 
L 212.60249 -136.399462 
L 211.515088 -137.299773 
L 210.444815 -138.200085 
L 209.403635 -139.100396 
L 208.40225 -140.000708 
L 207.449643 -140.90102 
L 206.552776 -141.801331 
L 205.716449 -142.701643 
L 204.943328 -143.601955 
L 204.234116 -144.502266 
L 203.587848 -145.402578 
L 203.002263 -146.30289 
L 202.474218 -147.203201 
L 202.000108 -148.103513 
L 201.576263 -149.003824 
L 201.199292 -149.904136 
L 200.866369 -150.804448 
L 200.575449 -151.704759 
L 200.325412 -152.605071 
L 200.116148 -153.505383 
L 199.948585 -154.405694 
L 199.824652 -155.306006 
L 199.747213 -156.206317 
L 199.719943 -157.106629 
L 199.747169 -158.006941 
L 199.833676 -158.907252 
L 199.984479 -159.807564 
L 200.20456 -160.707876 
L 200.498592 -161.608187 
L 200.870646 -162.508499 
L 201.323902 -163.40881 
L 201.86037 -164.309122 
L 202.480639 -165.209434 
L 203.183679 -166.109745 
L 203.966697 -167.010057 
L 204.825065 -167.910369 
L 205.752345 -168.81068 
L 206.740392 -169.710992 
L 207.779562 -170.611304 
L 208.859001 -171.511615 
L 209.967014 -172.411927 
L 211.091487 -173.312238 
L 212.220345 -174.21255 
L 213.341999 -175.112862 
L 214.445778 -176.013173 
L 215.522286 -176.913485 
L 216.563676 -177.813797 
L 217.563815 -178.714108 
L 218.518335 -179.61442 
L 219.424567 -180.514731 
L 220.281366 -181.415043 
L 221.088864 -182.315355 
L 221.848164 -183.215666 
L 222.561009 -184.115978 
L 223.229468 -185.01629 
L 223.85566 -185.916601 
L 224.441535 -186.816913 
L 224.988734 -187.717225 
L 225.498521 -188.617536 
L 225.971791 -189.517848 
L 226.409141 -190.418159 
L 226.810975 -191.318471 
L 227.177638 -192.218783 
L 227.50955 -193.119094 
L 227.807324 -194.019406 
L 228.071857 -194.919718 
L 228.304384 -195.820029 
L 228.506494 -196.720341 
L 228.68011 -197.620652 
L 228.827438 -198.520964 
L 228.950897 -199.421276 
L 229.894205 -199.421276 
L 229.894205 -199.421276 
L 230.017664 -198.520964 
L 230.164992 -197.620652 
L 230.338608 -196.720341 
L 230.540717 -195.820029 
L 230.773244 -194.919718 
L 231.037778 -194.019406 
L 231.335552 -193.119094 
L 231.667464 -192.218783 
L 232.034127 -191.318471 
L 232.435961 -190.418159 
L 232.87331 -189.517848 
L 233.346581 -188.617536 
L 233.856368 -187.717225 
L 234.403567 -186.816913 
L 234.989442 -185.916601 
L 235.615634 -185.01629 
L 236.284093 -184.115978 
L 236.996938 -183.215666 
L 237.756237 -182.315355 
L 238.563736 -181.415043 
L 239.420535 -180.514731 
L 240.326767 -179.61442 
L 241.281287 -178.714108 
L 242.281426 -177.813797 
L 243.322816 -176.913485 
L 244.399324 -176.013173 
L 245.503103 -175.112862 
L 246.624757 -174.21255 
L 247.753614 -173.312238 
L 248.878088 -172.411927 
L 249.986101 -171.511615 
L 251.06554 -170.611304 
L 252.10471 -169.710992 
L 253.092757 -168.81068 
L 254.020036 -167.910369 
L 254.878405 -167.010057 
L 255.661423 -166.109745 
L 256.364463 -165.209434 
L 256.984732 -164.309122 
L 257.5212 -163.40881 
L 257.974456 -162.508499 
L 258.34651 -161.608187 
L 258.640542 -160.707876 
L 258.860623 -159.807564 
L 259.011425 -158.907252 
L 259.097933 -158.006941 
L 259.125159 -157.106629 
L 259.097889 -156.206317 
L 259.02045 -155.306006 
L 258.896517 -154.405694 
L 258.728954 -153.505383 
L 258.51969 -152.605071 
L 258.269653 -151.704759 
L 257.978732 -150.804448 
L 257.64581 -149.904136 
L 257.268839 -149.003824 
L 256.844994 -148.103513 
L 256.370884 -147.203201 
L 255.842839 -146.30289 
L 255.257254 -145.402578 
L 254.610986 -144.502266 
L 253.901774 -143.601955 
L 253.128653 -142.701643 
L 252.292325 -141.801331 
L 251.395459 -140.90102 
L 250.442852 -140.000708 
L 249.441467 -139.100396 
L 248.400287 -138.200085 
L 247.330014 -137.299773 
L 246.242612 -136.399462 
L 245.150739 -135.49915 
L 244.067108 -134.598838 
L 243.003832 -133.698527 
L 241.971824 -132.798215 
L 240.980292 -131.897903 
L 240.036378 -130.997592 
L 239.144977 -130.09728 
L 238.308728 -129.196969 
L 237.528186 -128.296657 
L 236.802124 -127.396345 
L 236.127947 -126.496034 
L 235.502151 -125.595722 
L 234.920794 -124.69541 
L 234.379908 -123.795099 
L 233.875853 -122.894787 
L 233.40555 -121.994475 
L 232.966617 -121.094164 
L 232.557389 -120.193852 
L 232.176853 -119.293541 
L 231.824509 -118.393229 
L 231.500196 -117.492917 
L 231.203899 -116.592606 
L 230.935571 -115.692294 
L 230.694979 -114.791982 
L 230.481601 -113.891671 
L 230.294562 -112.991359 
L 230.132621 -112.091048 
L 229.994195 -111.190736 
L 229.87742 -110.290424 
z
" style="stroke: #595959; stroke-width: 1.25"/>
    </defs>
    <g clip-path="url(#paed1573a90)">
     <use xlink:href="#m5fb3d536e3" x="0" y="279.674688" style="fill: #95a3c3; stroke: #595959; stroke-width: 1.25"/>
    </g>
   </g>
   <g id="matplotlib.axis_1">
    <g id="xtick_1">
     <g id="line2d_1">
      <defs>
       <path id="m6cdda1813a" d="M 0 0 
L 0 3.5 
" style="stroke: #000000; stroke-width: 0.8"/>
      </defs>
      <g>
       <use xlink:href="#m6cdda1813a" x="80.90951" y="242.118437" style="stroke: #000000; stroke-width: 0.8"/>
      </g>
     </g>
     <g id="text_1">
      <!-- Deep -->
      <g transform="translate(67.732166 256.716875) scale(0.1 -0.1)">
       <defs>
        <path id="DejaVuSans-44" d="M 1259 4147 
L 1259 519 
L 2022 519 
Q 2988 519 3436 956 
Q 3884 1394 3884 2338 
Q 3884 3275 3436 3711 
Q 2988 4147 2022 4147 
L 1259 4147 
z
M 628 4666 
L 1925 4666 
Q 3281 4666 3915 4102 
Q 4550 3538 4550 2338 
Q 4550 1131 3912 565 
Q 3275 0 1925 0 
L 628 0 
L 628 4666 
z
" transform="scale(0.015625)"/>
        <path id="DejaVuSans-65" d="M 3597 1894 
L 3597 1613 
L 953 1613 
Q 991 1019 1311 708 
Q 1631 397 2203 397 
Q 2534 397 2845 478 
Q 3156 559 3463 722 
L 3463 178 
Q 3153 47 2828 -22 
Q 2503 -91 2169 -91 
Q 1331 -91 842 396 
Q 353 884 353 1716 
Q 353 2575 817 3079 
Q 1281 3584 2069 3584 
Q 2775 3584 3186 3129 
Q 3597 2675 3597 1894 
z
M 3022 2063 
Q 3016 2534 2758 2815 
Q 2500 3097 2075 3097 
Q 1594 3097 1305 2825 
Q 1016 2553 972 2059 
L 3022 2063 
z
" transform="scale(0.015625)"/>
        <path id="DejaVuSans-70" d="M 1159 525 
L 1159 -1331 
L 581 -1331 
L 581 3500 
L 1159 3500 
L 1159 2969 
Q 1341 3281 1617 3432 
Q 1894 3584 2278 3584 
Q 2916 3584 3314 3078 
Q 3713 2572 3713 1747 
Q 3713 922 3314 415 
Q 2916 -91 2278 -91 
Q 1894 -91 1617 61 
Q 1341 213 1159 525 
z
M 3116 1747 
Q 3116 2381 2855 2742 
Q 2594 3103 2138 3103 
Q 1681 3103 1420 2742 
Q 1159 2381 1159 1747 
Q 1159 1113 1420 752 
Q 1681 391 2138 391 
Q 2594 391 2855 752 
Q 3116 1113 3116 1747 
z
" transform="scale(0.015625)"/>
       </defs>
       <use xlink:href="#DejaVuSans-44"/>
       <use xlink:href="#DejaVuSans-65" x="77.001953"/>
       <use xlink:href="#DejaVuSans-65" x="138.525391"/>
       <use xlink:href="#DejaVuSans-70" x="200.048828"/>
      </g>
     </g>
    </g>
    <g id="xtick_2">
     <g id="line2d_2">
      <g>
       <use xlink:href="#m6cdda1813a" x="155.166031" y="242.118437" style="stroke: #000000; stroke-width: 0.8"/>
      </g>
     </g>
     <g id="text_2">
      <!-- Middle -->
      <g transform="translate(138.648843 256.716875) scale(0.1 -0.1)">
       <defs>
        <path id="DejaVuSans-4d" d="M 628 4666 
L 1569 4666 
L 2759 1491 
L 3956 4666 
L 4897 4666 
L 4897 0 
L 4281 0 
L 4281 4097 
L 3078 897 
L 2444 897 
L 1241 4097 
L 1241 0 
L 628 0 
L 628 4666 
z
" transform="scale(0.015625)"/>
        <path id="DejaVuSans-69" d="M 603 3500 
L 1178 3500 
L 1178 0 
L 603 0 
L 603 3500 
z
M 603 4863 
L 1178 4863 
L 1178 4134 
L 603 4134 
L 603 4863 
z
" transform="scale(0.015625)"/>
        <path id="DejaVuSans-64" d="M 2906 2969 
L 2906 4863 
L 3481 4863 
L 3481 0 
L 2906 0 
L 2906 525 
Q 2725 213 2448 61 
Q 2172 -91 1784 -91 
Q 1150 -91 751 415 
Q 353 922 353 1747 
Q 353 2572 751 3078 
Q 1150 3584 1784 3584 
Q 2172 3584 2448 3432 
Q 2725 3281 2906 2969 
z
M 947 1747 
Q 947 1113 1208 752 
Q 1469 391 1925 391 
Q 2381 391 2643 752 
Q 2906 1113 2906 1747 
Q 2906 2381 2643 2742 
Q 2381 3103 1925 3103 
Q 1469 3103 1208 2742 
Q 947 2381 947 1747 
z
" transform="scale(0.015625)"/>
        <path id="DejaVuSans-6c" d="M 603 4863 
L 1178 4863 
L 1178 0 
L 603 0 
L 603 4863 
z
" transform="scale(0.015625)"/>
       </defs>
       <use xlink:href="#DejaVuSans-4d"/>
       <use xlink:href="#DejaVuSans-69" x="86.279297"/>
       <use xlink:href="#DejaVuSans-64" x="114.0625"/>
       <use xlink:href="#DejaVuSans-64" x="177.539062"/>
       <use xlink:href="#DejaVuSans-6c" x="241.015625"/>
       <use xlink:href="#DejaVuSans-65" x="268.798828"/>
      </g>
     </g>
    </g>
    <g id="xtick_3">
     <g id="line2d_3">
      <g>
       <use xlink:href="#m6cdda1813a" x="229.422551" y="242.118437" style="stroke: #000000; stroke-width: 0.8"/>
      </g>
     </g>
     <g id="text_3">
      <!-- Superficial -->
      <g transform="translate(203.032707 256.716875) scale(0.1 -0.1)">
       <defs>
        <path id="DejaVuSans-53" d="M 3425 4513 
L 3425 3897 
Q 3066 4069 2747 4153 
Q 2428 4238 2131 4238 
Q 1616 4238 1336 4038 
Q 1056 3838 1056 3469 
Q 1056 3159 1242 3001 
Q 1428 2844 1947 2747 
L 2328 2669 
Q 3034 2534 3370 2195 
Q 3706 1856 3706 1288 
Q 3706 609 3251 259 
Q 2797 -91 1919 -91 
Q 1588 -91 1214 -16 
Q 841 59 441 206 
L 441 856 
Q 825 641 1194 531 
Q 1563 422 1919 422 
Q 2459 422 2753 634 
Q 3047 847 3047 1241 
Q 3047 1584 2836 1778 
Q 2625 1972 2144 2069 
L 1759 2144 
Q 1053 2284 737 2584 
Q 422 2884 422 3419 
Q 422 4038 858 4394 
Q 1294 4750 2059 4750 
Q 2388 4750 2728 4690 
Q 3069 4631 3425 4513 
z
" transform="scale(0.015625)"/>
        <path id="DejaVuSans-75" d="M 544 1381 
L 544 3500 
L 1119 3500 
L 1119 1403 
Q 1119 906 1312 657 
Q 1506 409 1894 409 
Q 2359 409 2629 706 
Q 2900 1003 2900 1516 
L 2900 3500 
L 3475 3500 
L 3475 0 
L 2900 0 
L 2900 538 
Q 2691 219 2414 64 
Q 2138 -91 1772 -91 
Q 1169 -91 856 284 
Q 544 659 544 1381 
z
M 1991 3584 
L 1991 3584 
z
" transform="scale(0.015625)"/>
        <path id="DejaVuSans-72" d="M 2631 2963 
Q 2534 3019 2420 3045 
Q 2306 3072 2169 3072 
Q 1681 3072 1420 2755 
Q 1159 2438 1159 1844 
L 1159 0 
L 581 0 
L 581 3500 
L 1159 3500 
L 1159 2956 
Q 1341 3275 1631 3429 
Q 1922 3584 2338 3584 
Q 2397 3584 2469 3576 
Q 2541 3569 2628 3553 
L 2631 2963 
z
" transform="scale(0.015625)"/>
        <path id="DejaVuSans-66" d="M 2375 4863 
L 2375 4384 
L 1825 4384 
Q 1516 4384 1395 4259 
Q 1275 4134 1275 3809 
L 1275 3500 
L 2222 3500 
L 2222 3053 
L 1275 3053 
L 1275 0 
L 697 0 
L 697 3053 
L 147 3053 
L 147 3500 
L 697 3500 
L 697 3744 
Q 697 4328 969 4595 
Q 1241 4863 1831 4863 
L 2375 4863 
z
" transform="scale(0.015625)"/>
        <path id="DejaVuSans-63" d="M 3122 3366 
L 3122 2828 
Q 2878 2963 2633 3030 
Q 2388 3097 2138 3097 
Q 1578 3097 1268 2742 
Q 959 2388 959 1747 
Q 959 1106 1268 751 
Q 1578 397 2138 397 
Q 2388 397 2633 464 
Q 2878 531 3122 666 
L 3122 134 
Q 2881 22 2623 -34 
Q 2366 -91 2075 -91 
Q 1284 -91 818 406 
Q 353 903 353 1747 
Q 353 2603 823 3093 
Q 1294 3584 2113 3584 
Q 2378 3584 2631 3529 
Q 2884 3475 3122 3366 
z
" transform="scale(0.015625)"/>
        <path id="DejaVuSans-61" d="M 2194 1759 
Q 1497 1759 1228 1600 
Q 959 1441 959 1056 
Q 959 750 1161 570 
Q 1363 391 1709 391 
Q 2188 391 2477 730 
Q 2766 1069 2766 1631 
L 2766 1759 
L 2194 1759 
z
M 3341 1997 
L 3341 0 
L 2766 0 
L 2766 531 
Q 2569 213 2275 61 
Q 1981 -91 1556 -91 
Q 1019 -91 701 211 
Q 384 513 384 1019 
Q 384 1609 779 1909 
Q 1175 2209 1959 2209 
L 2766 2209 
L 2766 2266 
Q 2766 2663 2505 2880 
Q 2244 3097 1772 3097 
Q 1472 3097 1187 3025 
Q 903 2953 641 2809 
L 641 3341 
Q 956 3463 1253 3523 
Q 1550 3584 1831 3584 
Q 2591 3584 2966 3190 
Q 3341 2797 3341 1997 
z
" transform="scale(0.015625)"/>
       </defs>
       <use xlink:href="#DejaVuSans-53"/>
       <use xlink:href="#DejaVuSans-75" x="63.476562"/>
       <use xlink:href="#DejaVuSans-70" x="126.855469"/>
       <use xlink:href="#DejaVuSans-65" x="190.332031"/>
       <use xlink:href="#DejaVuSans-72" x="251.855469"/>
       <use xlink:href="#DejaVuSans-66" x="292.96875"/>
       <use xlink:href="#DejaVuSans-69" x="328.173828"/>
       <use xlink:href="#DejaVuSans-63" x="355.957031"/>
       <use xlink:href="#DejaVuSans-69" x="410.9375"/>
       <use xlink:href="#DejaVuSans-61" x="438.720703"/>
       <use xlink:href="#DejaVuSans-6c" x="500"/>
      </g>
     </g>
    </g>
    <g id="text_4">
     <!-- Layer -->
     <g transform="translate(141.224624 270.395) scale(0.1 -0.1)">
      <defs>
       <path id="DejaVuSans-4c" d="M 628 4666 
L 1259 4666 
L 1259 531 
L 3531 531 
L 3531 0 
L 628 0 
L 628 4666 
z
" transform="scale(0.015625)"/>
       <path id="DejaVuSans-79" d="M 2059 -325 
Q 1816 -950 1584 -1140 
Q 1353 -1331 966 -1331 
L 506 -1331 
L 506 -850 
L 844 -850 
Q 1081 -850 1212 -737 
Q 1344 -625 1503 -206 
L 1606 56 
L 191 3500 
L 800 3500 
L 1894 763 
L 2988 3500 
L 3597 3500 
L 2059 -325 
z
" transform="scale(0.015625)"/>
      </defs>
      <use xlink:href="#DejaVuSans-4c"/>
      <use xlink:href="#DejaVuSans-61" x="55.712891"/>
      <use xlink:href="#DejaVuSans-79" x="116.992188"/>
      <use xlink:href="#DejaVuSans-65" x="176.171875"/>
      <use xlink:href="#DejaVuSans-72" x="237.695312"/>
     </g>
    </g>
   </g>
   <g id="matplotlib.axis_2">
    <g id="ytick_1">
     <g id="line2d_4">
      <defs>
       <path id="m4a835becfe" d="M 0 0 
L -3.5 0 
" style="stroke: #000000; stroke-width: 0.8"/>
      </defs>
      <g>
       <use xlink:href="#m4a835becfe" x="43.78125" y="242.118437" style="stroke: #000000; stroke-width: 0.8"/>
      </g>
     </g>
     <g id="text_5">
      <!-- 0.0 -->
      <g transform="translate(20.878125 245.917656) scale(0.1 -0.1)">
       <defs>
        <path id="DejaVuSans-30" d="M 2034 4250 
Q 1547 4250 1301 3770 
Q 1056 3291 1056 2328 
Q 1056 1369 1301 889 
Q 1547 409 2034 409 
Q 2525 409 2770 889 
Q 3016 1369 3016 2328 
Q 3016 3291 2770 3770 
Q 2525 4250 2034 4250 
z
M 2034 4750 
Q 2819 4750 3233 4129 
Q 3647 3509 3647 2328 
Q 3647 1150 3233 529 
Q 2819 -91 2034 -91 
Q 1250 -91 836 529 
Q 422 1150 422 2328 
Q 422 3509 836 4129 
Q 1250 4750 2034 4750 
z
" transform="scale(0.015625)"/>
        <path id="DejaVuSans-2e" d="M 684 794 
L 1344 794 
L 1344 0 
L 684 0 
L 684 794 
z
" transform="scale(0.015625)"/>
       </defs>
       <use xlink:href="#DejaVuSans-30"/>
       <use xlink:href="#DejaVuSans-2e" x="63.623047"/>
       <use xlink:href="#DejaVuSans-30" x="95.410156"/>
      </g>
     </g>
    </g>
    <g id="ytick_2">
     <g id="line2d_5">
      <g>
       <use xlink:href="#m4a835becfe" x="43.78125" y="197.854437" style="stroke: #000000; stroke-width: 0.8"/>
      </g>
     </g>
     <g id="text_6">
      <!-- 0.2 -->
      <g transform="translate(20.878125 201.653656) scale(0.1 -0.1)">
       <defs>
        <path id="DejaVuSans-32" d="M 1228 531 
L 3431 531 
L 3431 0 
L 469 0 
L 469 531 
Q 828 903 1448 1529 
Q 2069 2156 2228 2338 
Q 2531 2678 2651 2914 
Q 2772 3150 2772 3378 
Q 2772 3750 2511 3984 
Q 2250 4219 1831 4219 
Q 1534 4219 1204 4116 
Q 875 4013 500 3803 
L 500 4441 
Q 881 4594 1212 4672 
Q 1544 4750 1819 4750 
Q 2544 4750 2975 4387 
Q 3406 4025 3406 3419 
Q 3406 3131 3298 2873 
Q 3191 2616 2906 2266 
Q 2828 2175 2409 1742 
Q 1991 1309 1228 531 
z
" transform="scale(0.015625)"/>
       </defs>
       <use xlink:href="#DejaVuSans-30"/>
       <use xlink:href="#DejaVuSans-2e" x="63.623047"/>
       <use xlink:href="#DejaVuSans-32" x="95.410156"/>
      </g>
     </g>
    </g>
    <g id="ytick_3">
     <g id="line2d_6">
      <g>
       <use xlink:href="#m4a835becfe" x="43.78125" y="153.590437" style="stroke: #000000; stroke-width: 0.8"/>
      </g>
     </g>
     <g id="text_7">
      <!-- 0.4 -->
      <g transform="translate(20.878125 157.389656) scale(0.1 -0.1)">
       <defs>
        <path id="DejaVuSans-34" d="M 2419 4116 
L 825 1625 
L 2419 1625 
L 2419 4116 
z
M 2253 4666 
L 3047 4666 
L 3047 1625 
L 3713 1625 
L 3713 1100 
L 3047 1100 
L 3047 0 
L 2419 0 
L 2419 1100 
L 313 1100 
L 313 1709 
L 2253 4666 
z
" transform="scale(0.015625)"/>
       </defs>
       <use xlink:href="#DejaVuSans-30"/>
       <use xlink:href="#DejaVuSans-2e" x="63.623047"/>
       <use xlink:href="#DejaVuSans-34" x="95.410156"/>
      </g>
     </g>
    </g>
    <g id="ytick_4">
     <g id="line2d_7">
      <g>
       <use xlink:href="#m4a835becfe" x="43.78125" y="109.326437" style="stroke: #000000; stroke-width: 0.8"/>
      </g>
     </g>
     <g id="text_8">
      <!-- 0.6 -->
      <g transform="translate(20.878125 113.125656) scale(0.1 -0.1)">
       <defs>
        <path id="DejaVuSans-36" d="M 2113 2584 
Q 1688 2584 1439 2293 
Q 1191 2003 1191 1497 
Q 1191 994 1439 701 
Q 1688 409 2113 409 
Q 2538 409 2786 701 
Q 3034 994 3034 1497 
Q 3034 2003 2786 2293 
Q 2538 2584 2113 2584 
z
M 3366 4563 
L 3366 3988 
Q 3128 4100 2886 4159 
Q 2644 4219 2406 4219 
Q 1781 4219 1451 3797 
Q 1122 3375 1075 2522 
Q 1259 2794 1537 2939 
Q 1816 3084 2150 3084 
Q 2853 3084 3261 2657 
Q 3669 2231 3669 1497 
Q 3669 778 3244 343 
Q 2819 -91 2113 -91 
Q 1303 -91 875 529 
Q 447 1150 447 2328 
Q 447 3434 972 4092 
Q 1497 4750 2381 4750 
Q 2619 4750 2861 4703 
Q 3103 4656 3366 4563 
z
" transform="scale(0.015625)"/>
       </defs>
       <use xlink:href="#DejaVuSans-30"/>
       <use xlink:href="#DejaVuSans-2e" x="63.623047"/>
       <use xlink:href="#DejaVuSans-36" x="95.410156"/>
      </g>
     </g>
    </g>
    <g id="ytick_5">
     <g id="line2d_8">
      <g>
       <use xlink:href="#m4a835becfe" x="43.78125" y="65.062437" style="stroke: #000000; stroke-width: 0.8"/>
      </g>
     </g>
     <g id="text_9">
      <!-- 0.8 -->
      <g transform="translate(20.878125 68.861656) scale(0.1 -0.1)">
       <defs>
        <path id="DejaVuSans-38" d="M 2034 2216 
Q 1584 2216 1326 1975 
Q 1069 1734 1069 1313 
Q 1069 891 1326 650 
Q 1584 409 2034 409 
Q 2484 409 2743 651 
Q 3003 894 3003 1313 
Q 3003 1734 2745 1975 
Q 2488 2216 2034 2216 
z
M 1403 2484 
Q 997 2584 770 2862 
Q 544 3141 544 3541 
Q 544 4100 942 4425 
Q 1341 4750 2034 4750 
Q 2731 4750 3128 4425 
Q 3525 4100 3525 3541 
Q 3525 3141 3298 2862 
Q 3072 2584 2669 2484 
Q 3125 2378 3379 2068 
Q 3634 1759 3634 1313 
Q 3634 634 3220 271 
Q 2806 -91 2034 -91 
Q 1263 -91 848 271 
Q 434 634 434 1313 
Q 434 1759 690 2068 
Q 947 2378 1403 2484 
z
M 1172 3481 
Q 1172 3119 1398 2916 
Q 1625 2713 2034 2713 
Q 2441 2713 2670 2916 
Q 2900 3119 2900 3481 
Q 2900 3844 2670 4047 
Q 2441 4250 2034 4250 
Q 1625 4250 1398 4047 
Q 1172 3844 1172 3481 
z
" transform="scale(0.015625)"/>
       </defs>
       <use xlink:href="#DejaVuSans-30"/>
       <use xlink:href="#DejaVuSans-2e" x="63.623047"/>
       <use xlink:href="#DejaVuSans-38" x="95.410156"/>
      </g>
     </g>
    </g>
    <g id="ytick_6">
     <g id="line2d_9">
      <g>
       <use xlink:href="#m4a835becfe" x="43.78125" y="20.798437" style="stroke: #000000; stroke-width: 0.8"/>
      </g>
     </g>
     <g id="text_10">
      <!-- 1.0 -->
      <g transform="translate(20.878125 24.597656) scale(0.1 -0.1)">
       <defs>
        <path id="DejaVuSans-31" d="M 794 531 
L 1825 531 
L 1825 4091 
L 703 3866 
L 703 4441 
L 1819 4666 
L 2450 4666 
L 2450 531 
L 3481 531 
L 3481 0 
L 794 0 
L 794 531 
z
" transform="scale(0.015625)"/>
       </defs>
       <use xlink:href="#DejaVuSans-31"/>
       <use xlink:href="#DejaVuSans-2e" x="63.623047"/>
       <use xlink:href="#DejaVuSans-30" x="95.410156"/>
      </g>
     </g>
    </g>
    <g id="text_11">
     <!-- Accuracy -->
     <g transform="translate(14.798438 154.286563) rotate(-90) scale(0.1 -0.1)">
      <defs>
       <path id="DejaVuSans-41" d="M 2188 4044 
L 1331 1722 
L 3047 1722 
L 2188 4044 
z
M 1831 4666 
L 2547 4666 
L 4325 0 
L 3669 0 
L 3244 1197 
L 1141 1197 
L 716 0 
L 50 0 
L 1831 4666 
z
" transform="scale(0.015625)"/>
      </defs>
      <use xlink:href="#DejaVuSans-41"/>
      <use xlink:href="#DejaVuSans-63" x="66.658203"/>
      <use xlink:href="#DejaVuSans-63" x="121.638672"/>
      <use xlink:href="#DejaVuSans-75" x="176.619141"/>
      <use xlink:href="#DejaVuSans-72" x="239.998047"/>
      <use xlink:href="#DejaVuSans-61" x="281.111328"/>
      <use xlink:href="#DejaVuSans-63" x="342.390625"/>
      <use xlink:href="#DejaVuSans-79" x="397.371094"/>
     </g>
    </g>
   </g>
   <g id="line2d_10">
    <path d="M 43.78125 131.458438 
L 266.550811 131.458438 
" clip-path="url(#paed1573a90)" style="fill: none; stroke-dasharray: 5.55,2.4; stroke-dashoffset: 0; stroke: #808080; stroke-width: 1.5"/>
   </g>
   <g id="patch_3">
    <path d="M 43.78125 242.118437 
L 43.78125 20.798437 
" style="fill: none; stroke: #000000; stroke-width: 0.8; stroke-linejoin: miter; stroke-linecap: square"/>
   </g>
   <g id="patch_4">
    <path d="M 43.78125 242.118437 
L 266.550811 242.118437 
" style="fill: none; stroke: #000000; stroke-width: 0.8; stroke-linejoin: miter; stroke-linecap: square"/>
   </g>
   <g id="PathCollection_1">
    <defs>
     <path id="ma8d9d3bfaa" d="M 0 1.25 
C 0.331504 1.25 0.649475 1.118292 0.883883 0.883883 
C 1.118292 0.649475 1.25 0.331504 1.25 0 
C 1.25 -0.331504 1.118292 -0.649475 0.883883 -0.883883 
C 0.649475 -1.118292 0.331504 -1.25 0 -1.25 
C -0.331504 -1.25 -0.649475 -1.118292 -0.883883 -0.883883 
C -1.118292 -0.649475 -1.25 -0.331504 -1.25 0 
C -1.25 0.331504 -1.118292 0.649475 -0.883883 0.883883 
C -0.649475 1.118292 -0.331504 1.25 0 1.25 
z
" style="stroke: #595959"/>
    </defs>
    <g clip-path="url(#paed1573a90)">
     <use xlink:href="#ma8d9d3bfaa" x="80.90951" y="23.011637" style="fill: #595959; stroke: #595959"/>
     <use xlink:href="#ma8d9d3bfaa" x="80.90951" y="27.438037" style="fill: #595959; stroke: #595959"/>
     <use xlink:href="#ma8d9d3bfaa" x="80.90951" y="23.011637" style="fill: #595959; stroke: #595959"/>
     <use xlink:href="#ma8d9d3bfaa" x="80.90951" y="25.224837" style="fill: #595959; stroke: #595959"/>
     <use xlink:href="#ma8d9d3bfaa" x="80.90951" y="25.224837" style="fill: #595959; stroke: #595959"/>
     <use xlink:href="#ma8d9d3bfaa" x="80.90951" y="20.798437" style="fill: #595959; stroke: #595959"/>
     <use xlink:href="#ma8d9d3bfaa" x="80.90951" y="25.224837" style="fill: #595959; stroke: #595959"/>
     <use xlink:href="#ma8d9d3bfaa" x="80.90951" y="38.504037" style="fill: #595959; stroke: #595959"/>
     <use xlink:href="#ma8d9d3bfaa" x="80.90951" y="29.651237" style="fill: #595959; stroke: #595959"/>
     <use xlink:href="#ma8d9d3bfaa" x="80.90951" y="23.011637" style="fill: #595959; stroke: #595959"/>
     <use xlink:href="#ma8d9d3bfaa" x="80.90951" y="20.798437" style="fill: #595959; stroke: #595959"/>
     <use xlink:href="#ma8d9d3bfaa" x="80.90951" y="34.077637" style="fill: #595959; stroke: #595959"/>
     <use xlink:href="#ma8d9d3bfaa" x="80.90951" y="25.224837" style="fill: #595959; stroke: #595959"/>
     <use xlink:href="#ma8d9d3bfaa" x="80.90951" y="23.011637" style="fill: #595959; stroke: #595959"/>
     <use xlink:href="#ma8d9d3bfaa" x="80.90951" y="25.224837" style="fill: #595959; stroke: #595959"/>
     <use xlink:href="#ma8d9d3bfaa" x="80.90951" y="27.438037" style="fill: #595959; stroke: #595959"/>
     <use xlink:href="#ma8d9d3bfaa" x="80.90951" y="23.011637" style="fill: #595959; stroke: #595959"/>
     <use xlink:href="#ma8d9d3bfaa" x="80.90951" y="20.798437" style="fill: #595959; stroke: #595959"/>
     <use xlink:href="#ma8d9d3bfaa" x="80.90951" y="23.011637" style="fill: #595959; stroke: #595959"/>
     <use xlink:href="#ma8d9d3bfaa" x="80.90951" y="23.011637" style="fill: #595959; stroke: #595959"/>
    </g>
   </g>
   <g id="PathCollection_2">
    <g clip-path="url(#paed1573a90)">
     <use xlink:href="#ma8d9d3bfaa" x="155.166031" y="118.179237" style="fill: #595959; stroke: #595959"/>
     <use xlink:href="#ma8d9d3bfaa" x="155.166031" y="82.768037" style="fill: #595959; stroke: #595959"/>
     <use xlink:href="#ma8d9d3bfaa" x="155.166031" y="87.194437" style="fill: #595959; stroke: #595959"/>
     <use xlink:href="#ma8d9d3bfaa" x="155.166031" y="109.326437" style="fill: #595959; stroke: #595959"/>
     <use xlink:href="#ma8d9d3bfaa" x="155.166031" y="89.407637" style="fill: #595959; stroke: #595959"/>
     <use xlink:href="#ma8d9d3bfaa" x="155.166031" y="73.915237" style="fill: #595959; stroke: #595959"/>
     <use xlink:href="#ma8d9d3bfaa" x="155.166031" y="78.341637" style="fill: #595959; stroke: #595959"/>
     <use xlink:href="#ma8d9d3bfaa" x="155.166031" y="87.194437" style="fill: #595959; stroke: #595959"/>
     <use xlink:href="#ma8d9d3bfaa" x="155.166031" y="96.047237" style="fill: #595959; stroke: #595959"/>
     <use xlink:href="#ma8d9d3bfaa" x="155.166031" y="82.768037" style="fill: #595959; stroke: #595959"/>
     <use xlink:href="#ma8d9d3bfaa" x="155.166031" y="107.113237" style="fill: #595959; stroke: #595959"/>
     <use xlink:href="#ma8d9d3bfaa" x="155.166031" y="65.062437" style="fill: #595959; stroke: #595959"/>
     <use xlink:href="#ma8d9d3bfaa" x="155.166031" y="98.260437" style="fill: #595959; stroke: #595959"/>
     <use xlink:href="#ma8d9d3bfaa" x="155.166031" y="93.834037" style="fill: #595959; stroke: #595959"/>
     <use xlink:href="#ma8d9d3bfaa" x="155.166031" y="87.194437" style="fill: #595959; stroke: #595959"/>
     <use xlink:href="#ma8d9d3bfaa" x="155.166031" y="76.128437" style="fill: #595959; stroke: #595959"/>
     <use xlink:href="#ma8d9d3bfaa" x="155.166031" y="78.341637" style="fill: #595959; stroke: #595959"/>
     <use xlink:href="#ma8d9d3bfaa" x="155.166031" y="82.768037" style="fill: #595959; stroke: #595959"/>
     <use xlink:href="#ma8d9d3bfaa" x="155.166031" y="93.834037" style="fill: #595959; stroke: #595959"/>
     <use xlink:href="#ma8d9d3bfaa" x="155.166031" y="91.620837" style="fill: #595959; stroke: #595959"/>
    </g>
   </g>
   <g id="PathCollection_3">
    <g clip-path="url(#paed1573a90)">
     <use xlink:href="#ma8d9d3bfaa" x="229.422551" y="122.605637" style="fill: #595959; stroke: #595959"/>
     <use xlink:href="#ma8d9d3bfaa" x="229.422551" y="113.752837" style="fill: #595959; stroke: #595959"/>
     <use xlink:href="#ma8d9d3bfaa" x="229.422551" y="140.311238" style="fill: #595959; stroke: #595959"/>
     <use xlink:href="#ma8d9d3bfaa" x="229.422551" y="138.098037" style="fill: #595959; stroke: #595959"/>
     <use xlink:href="#ma8d9d3bfaa" x="229.422551" y="96.047237" style="fill: #595959; stroke: #595959"/>
     <use xlink:href="#ma8d9d3bfaa" x="229.422551" y="113.752837" style="fill: #595959; stroke: #595959"/>
     <use xlink:href="#ma8d9d3bfaa" x="229.422551" y="129.245237" style="fill: #595959; stroke: #595959"/>
     <use xlink:href="#ma8d9d3bfaa" x="229.422551" y="124.818837" style="fill: #595959; stroke: #595959"/>
     <use xlink:href="#ma8d9d3bfaa" x="229.422551" y="118.179237" style="fill: #595959; stroke: #595959"/>
     <use xlink:href="#ma8d9d3bfaa" x="229.422551" y="118.179237" style="fill: #595959; stroke: #595959"/>
     <use xlink:href="#ma8d9d3bfaa" x="229.422551" y="104.900037" style="fill: #595959; stroke: #595959"/>
     <use xlink:href="#ma8d9d3bfaa" x="229.422551" y="138.098037" style="fill: #595959; stroke: #595959"/>
     <use xlink:href="#ma8d9d3bfaa" x="229.422551" y="142.524437" style="fill: #595959; stroke: #595959"/>
     <use xlink:href="#ma8d9d3bfaa" x="229.422551" y="153.590437" style="fill: #595959; stroke: #595959"/>
     <use xlink:href="#ma8d9d3bfaa" x="229.422551" y="129.245237" style="fill: #595959; stroke: #595959"/>
     <use xlink:href="#ma8d9d3bfaa" x="229.422551" y="120.392437" style="fill: #595959; stroke: #595959"/>
     <use xlink:href="#ma8d9d3bfaa" x="229.422551" y="109.326437" style="fill: #595959; stroke: #595959"/>
     <use xlink:href="#ma8d9d3bfaa" x="229.422551" y="133.671637" style="fill: #595959; stroke: #595959"/>
     <use xlink:href="#ma8d9d3bfaa" x="229.422551" y="109.326437" style="fill: #595959; stroke: #595959"/>
     <use xlink:href="#ma8d9d3bfaa" x="229.422551" y="129.245237" style="fill: #595959; stroke: #595959"/>
    </g>
   </g>
   <g id="text_12">
    <!-- Rho = 0.4 -->
    <g transform="translate(273.08589 106.436563) rotate(-270) scale(0.1 -0.1)">
     <defs>
      <path id="DejaVuSans-52" d="M 2841 2188 
Q 3044 2119 3236 1894 
Q 3428 1669 3622 1275 
L 4263 0 
L 3584 0 
L 2988 1197 
Q 2756 1666 2539 1819 
Q 2322 1972 1947 1972 
L 1259 1972 
L 1259 0 
L 628 0 
L 628 4666 
L 2053 4666 
Q 2853 4666 3247 4331 
Q 3641 3997 3641 3322 
Q 3641 2881 3436 2590 
Q 3231 2300 2841 2188 
z
M 1259 4147 
L 1259 2491 
L 2053 2491 
Q 2509 2491 2742 2702 
Q 2975 2913 2975 3322 
Q 2975 3731 2742 3939 
Q 2509 4147 2053 4147 
L 1259 4147 
z
" transform="scale(0.015625)"/>
      <path id="DejaVuSans-68" d="M 3513 2113 
L 3513 0 
L 2938 0 
L 2938 2094 
Q 2938 2591 2744 2837 
Q 2550 3084 2163 3084 
Q 1697 3084 1428 2787 
Q 1159 2491 1159 1978 
L 1159 0 
L 581 0 
L 581 4863 
L 1159 4863 
L 1159 2956 
Q 1366 3272 1645 3428 
Q 1925 3584 2291 3584 
Q 2894 3584 3203 3211 
Q 3513 2838 3513 2113 
z
" transform="scale(0.015625)"/>
      <path id="DejaVuSans-6f" d="M 1959 3097 
Q 1497 3097 1228 2736 
Q 959 2375 959 1747 
Q 959 1119 1226 758 
Q 1494 397 1959 397 
Q 2419 397 2687 759 
Q 2956 1122 2956 1747 
Q 2956 2369 2687 2733 
Q 2419 3097 1959 3097 
z
M 1959 3584 
Q 2709 3584 3137 3096 
Q 3566 2609 3566 1747 
Q 3566 888 3137 398 
Q 2709 -91 1959 -91 
Q 1206 -91 779 398 
Q 353 888 353 1747 
Q 353 2609 779 3096 
Q 1206 3584 1959 3584 
z
" transform="scale(0.015625)"/>
      <path id="DejaVuSans-20" transform="scale(0.015625)"/>
      <path id="DejaVuSans-3d" d="M 678 2906 
L 4684 2906 
L 4684 2381 
L 678 2381 
L 678 2906 
z
M 678 1631 
L 4684 1631 
L 4684 1100 
L 678 1100 
L 678 1631 
z
" transform="scale(0.015625)"/>
     </defs>
     <use xlink:href="#DejaVuSans-52"/>
     <use xlink:href="#DejaVuSans-68" x="69.482422"/>
     <use xlink:href="#DejaVuSans-6f" x="132.861328"/>
     <use xlink:href="#DejaVuSans-20" x="194.042969"/>
     <use xlink:href="#DejaVuSans-3d" x="225.830078"/>
     <use xlink:href="#DejaVuSans-20" x="309.619141"/>
     <use xlink:href="#DejaVuSans-30" x="341.40625"/>
     <use xlink:href="#DejaVuSans-2e" x="405.029297"/>
     <use xlink:href="#DejaVuSans-34" x="436.816406"/>
    </g>
   </g>
   <g id="text_13">
    <!-- CNR_change = 1 -->
    <g transform="translate(113.008999 14.798437) scale(0.1 -0.1)">
     <defs>
      <path id="DejaVuSans-43" d="M 4122 4306 
L 4122 3641 
Q 3803 3938 3442 4084 
Q 3081 4231 2675 4231 
Q 1875 4231 1450 3742 
Q 1025 3253 1025 2328 
Q 1025 1406 1450 917 
Q 1875 428 2675 428 
Q 3081 428 3442 575 
Q 3803 722 4122 1019 
L 4122 359 
Q 3791 134 3420 21 
Q 3050 -91 2638 -91 
Q 1578 -91 968 557 
Q 359 1206 359 2328 
Q 359 3453 968 4101 
Q 1578 4750 2638 4750 
Q 3056 4750 3426 4639 
Q 3797 4528 4122 4306 
z
" transform="scale(0.015625)"/>
      <path id="DejaVuSans-4e" d="M 628 4666 
L 1478 4666 
L 3547 763 
L 3547 4666 
L 4159 4666 
L 4159 0 
L 3309 0 
L 1241 3903 
L 1241 0 
L 628 0 
L 628 4666 
z
" transform="scale(0.015625)"/>
      <path id="DejaVuSans-5f" d="M 3263 -1063 
L 3263 -1509 
L -63 -1509 
L -63 -1063 
L 3263 -1063 
z
" transform="scale(0.015625)"/>
      <path id="DejaVuSans-6e" d="M 3513 2113 
L 3513 0 
L 2938 0 
L 2938 2094 
Q 2938 2591 2744 2837 
Q 2550 3084 2163 3084 
Q 1697 3084 1428 2787 
Q 1159 2491 1159 1978 
L 1159 0 
L 581 0 
L 581 3500 
L 1159 3500 
L 1159 2956 
Q 1366 3272 1645 3428 
Q 1925 3584 2291 3584 
Q 2894 3584 3203 3211 
Q 3513 2838 3513 2113 
z
" transform="scale(0.015625)"/>
      <path id="DejaVuSans-67" d="M 2906 1791 
Q 2906 2416 2648 2759 
Q 2391 3103 1925 3103 
Q 1463 3103 1205 2759 
Q 947 2416 947 1791 
Q 947 1169 1205 825 
Q 1463 481 1925 481 
Q 2391 481 2648 825 
Q 2906 1169 2906 1791 
z
M 3481 434 
Q 3481 -459 3084 -895 
Q 2688 -1331 1869 -1331 
Q 1566 -1331 1297 -1286 
Q 1028 -1241 775 -1147 
L 775 -588 
Q 1028 -725 1275 -790 
Q 1522 -856 1778 -856 
Q 2344 -856 2625 -561 
Q 2906 -266 2906 331 
L 2906 616 
Q 2728 306 2450 153 
Q 2172 0 1784 0 
Q 1141 0 747 490 
Q 353 981 353 1791 
Q 353 2603 747 3093 
Q 1141 3584 1784 3584 
Q 2172 3584 2450 3431 
Q 2728 3278 2906 2969 
L 2906 3500 
L 3481 3500 
L 3481 434 
z
" transform="scale(0.015625)"/>
     </defs>
     <use xlink:href="#DejaVuSans-43"/>
     <use xlink:href="#DejaVuSans-4e" x="69.824219"/>
     <use xlink:href="#DejaVuSans-52" x="144.628906"/>
     <use xlink:href="#DejaVuSans-5f" x="214.111328"/>
     <use xlink:href="#DejaVuSans-63" x="264.111328"/>
     <use xlink:href="#DejaVuSans-68" x="319.091797"/>
     <use xlink:href="#DejaVuSans-61" x="382.470703"/>
     <use xlink:href="#DejaVuSans-6e" x="443.75"/>
     <use xlink:href="#DejaVuSans-67" x="507.128906"/>
     <use xlink:href="#DejaVuSans-65" x="570.605469"/>
     <use xlink:href="#DejaVuSans-20" x="632.128906"/>
     <use xlink:href="#DejaVuSans-3d" x="663.916016"/>
     <use xlink:href="#DejaVuSans-20" x="747.705078"/>
     <use xlink:href="#DejaVuSans-31" x="779.492188"/>
    </g>
   </g>
  </g>
  <g id="legend_1"/>
 </g>
 <defs>
  <clipPath id="paed1573a90">
   <rect x="43.78125" y="20.798437" width="222.769561" height="221.32"/>
  </clipPath>
 </defs>
</svg>
