<?xml version="1.0" encoding="utf-8" standalone="no"?>
<!DOCTYPE svg PUBLIC "-//W3C//DTD SVG 1.1//EN"
  "http://www.w3.org/Graphics/SVG/1.1/DTD/svg11.dtd">
<svg xmlns:xlink="http://www.w3.org/1999/xlink" width="294.17125pt" height="279.674688pt" viewBox="0 0 294.17125 279.674688" xmlns="http://www.w3.org/2000/svg" version="1.1">
 <metadata>
  <rdf:RDF xmlns:dc="http://purl.org/dc/elements/1.1/" xmlns:cc="http://creativecommons.org/ns#" xmlns:rdf="http://www.w3.org/1999/02/22-rdf-syntax-ns#">
   <cc:Work>
    <dc:type rdf:resource="http://purl.org/dc/dcmitype/StillImage"/>
    <dc:date>2025-08-25T15:51:25.807757</dc:date>
    <dc:format>image/svg+xml</dc:format>
    <dc:creator>
     <cc:Agent>
      <dc:title>Matplotlib v3.8.4, https://matplotlib.org/</dc:title>
     </cc:Agent>
    </dc:creator>
   </cc:Work>
  </rdf:RDF>
 </metadata>
 <defs>
  <style type="text/css">*{stroke-linejoin: round; stroke-linecap: butt}</style>
 </defs>
 <g id="figure_1">
  <g id="patch_1">
   <path d="M 0 279.674688 
L 294.17125 279.674688 
L 294.17125 0 
L 0 0 
z
" style="fill: #ffffff"/>
  </g>
  <g id="axes_1">
   <g id="patch_2">
    <path d="M 43.78125 242.118437 
L 266.550811 242.118437 
L 266.550811 20.798437 
L 43.78125 20.798437 
z
" style="fill: #ffffff"/>
   </g>
   <g id="PolyCollection_1">
    <defs>
     <path id="m6922f2f153" d="M 81.60347 -110.995125 
L 80.21555 -110.995125 
L 80.034812 -111.791778 
L 79.818041 -112.588431 
L 79.561122 -113.385084 
L 79.26025 -114.181737 
L 78.912148 -114.97839 
L 78.514319 -115.775043 
L 78.065289 -116.571696 
L 77.564854 -117.368349 
L 77.014299 -118.165002 
L 76.416576 -118.961655 
L 75.776422 -119.758308 
L 75.100401 -120.554961 
L 74.396859 -121.351614 
L 73.675773 -122.148267 
L 72.948507 -122.94492 
L 72.227461 -123.741573 
L 71.525632 -124.538226 
L 70.856102 -125.334879 
L 70.231473 -126.131532 
L 69.663283 -126.928186 
L 69.161423 -127.724839 
L 68.733602 -128.521492 
L 68.384879 -129.318145 
L 68.117291 -130.114798 
L 67.929615 -130.911451 
L 67.817256 -131.708104 
L 67.772291 -132.504757 
L 67.783655 -133.30141 
L 67.83747 -134.098063 
L 67.917499 -134.894716 
L 68.005697 -135.691369 
L 68.082852 -136.488022 
L 68.129273 -137.284675 
L 68.125502 -138.081328 
L 68.053036 -138.877981 
L 67.895018 -139.674634 
L 67.636898 -140.471287 
L 67.267029 -141.26794 
L 66.777194 -142.064593 
L 66.163053 -142.861246 
L 65.424486 -143.657899 
L 64.565835 -144.454552 
L 63.596019 -145.251205 
L 62.528518 -146.047858 
L 61.381203 -146.844511 
L 60.176008 -147.641164 
L 58.938428 -148.437817 
L 57.696856 -149.23447 
L 56.481749 -150.031123 
L 55.324649 -150.827777 
L 54.257094 -151.62443 
L 53.309451 -152.421083 
L 52.50973 -153.217736 
L 51.882437 -154.014389 
L 51.447527 -154.811042 
L 51.219531 -155.607695 
L 51.206902 -156.404348 
L 51.411641 -157.201001 
L 51.829219 -157.997654 
L 52.448819 -158.794307 
L 53.253887 -159.59096 
L 54.222956 -160.387613 
L 55.330699 -161.184266 
L 56.549152 -161.980919 
L 57.849007 -162.777572 
L 59.200927 -163.574225 
L 60.57678 -164.370878 
L 61.950722 -165.167531 
L 63.300087 -165.964184 
L 64.60602 -166.760837 
L 65.853851 -167.55749 
L 67.03319 -168.354143 
L 68.137783 -169.150796 
L 69.16514 -169.947449 
L 70.115998 -170.744102 
L 70.993671 -171.540755 
L 71.803339 -172.337408 
L 72.551335 -173.134061 
L 73.244487 -173.930714 
L 73.889538 -174.727368 
L 74.492685 -175.524021 
L 75.059255 -176.320674 
L 75.593507 -177.117327 
L 76.098562 -177.91398 
L 76.576446 -178.710633 
L 77.028218 -179.507286 
L 77.454158 -180.303939 
L 77.853992 -181.100592 
L 78.227121 -181.897245 
L 78.572844 -182.693898 
L 78.890549 -183.490551 
L 79.179864 -184.287204 
L 79.440761 -185.083857 
L 79.673617 -185.88051 
L 79.879231 -186.677163 
L 80.058798 -187.473816 
L 80.213863 -188.270469 
L 80.346249 -189.067122 
L 80.457977 -189.863775 
L 81.361043 -189.863775 
L 81.361043 -189.863775 
L 81.472772 -189.067122 
L 81.605158 -188.270469 
L 81.760222 -187.473816 
L 81.939789 -186.677163 
L 82.145403 -185.88051 
L 82.37826 -185.083857 
L 82.639157 -184.287204 
L 82.928471 -183.490551 
L 83.246176 -182.693898 
L 83.5919 -181.897245 
L 83.965029 -181.100592 
L 84.364862 -180.303939 
L 84.790803 -179.507286 
L 85.242575 -178.710633 
L 85.720459 -177.91398 
L 86.225513 -177.117327 
L 86.759765 -176.320674 
L 87.326335 -175.524021 
L 87.929483 -174.727368 
L 88.574533 -173.930714 
L 89.267685 -173.134061 
L 90.015682 -172.337408 
L 90.825349 -171.540755 
L 91.703023 -170.744102 
L 92.653881 -169.947449 
L 93.681237 -169.150796 
L 94.78583 -168.354143 
L 95.96517 -167.55749 
L 97.213 -166.760837 
L 98.518934 -165.964184 
L 99.868298 -165.167531 
L 101.242241 -164.370878 
L 102.618093 -163.574225 
L 103.970014 -162.777572 
L 105.269869 -161.980919 
L 106.488321 -161.184266 
L 107.596065 -160.387613 
L 108.565133 -159.59096 
L 109.370201 -158.794307 
L 109.989801 -157.997654 
L 110.407379 -157.201001 
L 110.612118 -156.404348 
L 110.59949 -155.607695 
L 110.371493 -154.811042 
L 109.936583 -154.014389 
L 109.30929 -153.217736 
L 108.50957 -152.421083 
L 107.561927 -151.62443 
L 106.494372 -150.827777 
L 105.337271 -150.031123 
L 104.122164 -149.23447 
L 102.880592 -148.437817 
L 101.643013 -147.641164 
L 100.437817 -146.844511 
L 99.290502 -146.047858 
L 98.223002 -145.251205 
L 97.253186 -144.454552 
L 96.394534 -143.657899 
L 95.655967 -142.861246 
L 95.041826 -142.064593 
L 94.551992 -141.26794 
L 94.182123 -140.471287 
L 93.924003 -139.674634 
L 93.765985 -138.877981 
L 93.693518 -138.081328 
L 93.689747 -137.284675 
L 93.736168 -136.488022 
L 93.813324 -135.691369 
L 93.901522 -134.894716 
L 93.98155 -134.098063 
L 94.035365 -133.30141 
L 94.046729 -132.504757 
L 94.001764 -131.708104 
L 93.889405 -130.911451 
L 93.701729 -130.114798 
L 93.434142 -129.318145 
L 93.085418 -128.521492 
L 92.657597 -127.724839 
L 92.155738 -126.928186 
L 91.587547 -126.131532 
L 90.962919 -125.334879 
L 90.293388 -124.538226 
L 89.59156 -123.741573 
L 88.870514 -122.94492 
L 88.143248 -122.148267 
L 87.422162 -121.351614 
L 86.718619 -120.554961 
L 86.042598 -119.758308 
L 85.402444 -118.961655 
L 84.804721 -118.165002 
L 84.254167 -117.368349 
L 83.753732 -116.571696 
L 83.304702 -115.775043 
L 82.906872 -114.97839 
L 82.558771 -114.181737 
L 82.257898 -113.385084 
L 82.000979 -112.588431 
L 81.784208 -111.791778 
L 81.60347 -110.995125 
z
" style="stroke: #595959; stroke-width: 1.25"/>
    </defs>
    <g clip-path="url(#p6bc7163a44)">
     <use xlink:href="#m6922f2f153" x="0" y="279.674688" style="fill: #72b6a1; stroke: #595959; stroke-width: 1.25"/>
    </g>
   </g>
   <g id="PolyCollection_2">
    <defs>
     <path id="mf26e69c459" d="M 155.616188 -114.087953 
L 154.715873 -114.087953 
L 154.581198 -114.822125 
L 154.415257 -115.556297 
L 154.213397 -116.290468 
L 153.970899 -117.02464 
L 153.683119 -117.758812 
L 153.345652 -118.492983 
L 152.954509 -119.227155 
L 152.506305 -119.961326 
L 151.998459 -120.695498 
L 151.429391 -121.42967 
L 150.798719 -122.163841 
L 150.107436 -122.898013 
L 149.358052 -123.632185 
L 148.554693 -124.366356 
L 147.703111 -125.100528 
L 146.810612 -125.8347 
L 145.885853 -126.568871 
L 144.938522 -127.303043 
L 143.978878 -128.037215 
L 143.017192 -128.771386 
L 142.06311 -129.505558 
L 141.124998 -130.23973 
L 140.209344 -130.973901 
L 139.320276 -131.708073 
L 138.459278 -132.442245 
L 137.625157 -133.176416 
L 136.814283 -133.910588 
L 136.021105 -134.644759 
L 135.238908 -135.378931 
L 134.460739 -136.113103 
L 133.680413 -136.847274 
L 132.893497 -137.581446 
L 132.098171 -138.315618 
L 131.295874 -139.049789 
L 130.491681 -139.783961 
L 129.694377 -140.518133 
L 128.91623 -141.252304 
L 128.172498 -141.986476 
L 127.48072 -142.720648 
L 126.859862 -143.454819 
L 126.329395 -144.188991 
L 125.908362 -144.923163 
L 125.614493 -145.657334 
L 125.463422 -146.391506 
L 125.468018 -147.125678 
L 125.637857 -147.859849 
L 125.978839 -148.594021 
L 126.492942 -149.328193 
L 127.17812 -150.062364 
L 128.028323 -150.796536 
L 129.033648 -151.530707 
L 130.180589 -152.264879 
L 131.45241 -152.999051 
L 132.829599 -153.733222 
L 134.290407 -154.467394 
L 135.81146 -155.201566 
L 137.368414 -155.935737 
L 138.936639 -156.669909 
L 140.491908 -157.404081 
L 142.011066 -158.138252 
L 143.472648 -158.872424 
L 144.857428 -159.606596 
L 146.148875 -160.340767 
L 147.333503 -161.074939 
L 148.401102 -161.809111 
L 149.34486 -162.543282 
L 150.16136 -163.277454 
L 150.85049 -164.011626 
L 151.415249 -164.745797 
L 151.861491 -165.479969 
L 152.19761 -166.214141 
L 152.434173 -166.948312 
L 152.583517 -167.682484 
L 152.659319 -168.416655 
L 152.676133 -169.150827 
L 152.648909 -169.884999 
L 152.592495 -170.61917 
L 152.52114 -171.353342 
L 152.448006 -172.087514 
L 152.384723 -172.821685 
L 152.341005 -173.555857 
L 152.324347 -174.290029 
L 152.339849 -175.0242 
L 152.390151 -175.758372 
L 152.475516 -176.492544 
L 152.594041 -177.226715 
L 152.741981 -177.960887 
L 152.914164 -178.695059 
L 153.104461 -179.42923 
L 153.306272 -180.163402 
L 153.51299 -180.897574 
L 153.718408 -181.631745 
L 153.91705 -182.365917 
L 154.1044 -183.100088 
L 154.277032 -183.83426 
L 154.432642 -184.568432 
L 154.570001 -185.302603 
L 154.68883 -186.036775 
L 154.789647 -186.770947 
L 155.542414 -186.770947 
L 155.542414 -186.770947 
L 155.643231 -186.036775 
L 155.76206 -185.302603 
L 155.899419 -184.568432 
L 156.05503 -183.83426 
L 156.227661 -183.100088 
L 156.415011 -182.365917 
L 156.613653 -181.631745 
L 156.819071 -180.897574 
L 157.025789 -180.163402 
L 157.2276 -179.42923 
L 157.417897 -178.695059 
L 157.59008 -177.960887 
L 157.73802 -177.226715 
L 157.856545 -176.492544 
L 157.94191 -175.758372 
L 157.992212 -175.0242 
L 158.007714 -174.290029 
L 157.991057 -173.555857 
L 157.947338 -172.821685 
L 157.884055 -172.087514 
L 157.810921 -171.353342 
L 157.739566 -170.61917 
L 157.683152 -169.884999 
L 157.655928 -169.150827 
L 157.672742 -168.416655 
L 157.748544 -167.682484 
L 157.897888 -166.948312 
L 158.134451 -166.214141 
L 158.47057 -165.479969 
L 158.916812 -164.745797 
L 159.481571 -164.011626 
L 160.170701 -163.277454 
L 160.987202 -162.543282 
L 161.930959 -161.809111 
L 162.998558 -161.074939 
L 164.183186 -160.340767 
L 165.474633 -159.606596 
L 166.859413 -158.872424 
L 168.320995 -158.138252 
L 169.840153 -157.404081 
L 171.395422 -156.669909 
L 172.963647 -155.935737 
L 174.520601 -155.201566 
L 176.041654 -154.467394 
L 177.502463 -153.733222 
L 178.879651 -152.999051 
L 180.151472 -152.264879 
L 181.298414 -151.530707 
L 182.303738 -150.796536 
L 183.153941 -150.062364 
L 183.839119 -149.328193 
L 184.353222 -148.594021 
L 184.694204 -147.859849 
L 184.864043 -147.125678 
L 184.868639 -146.391506 
L 184.717568 -145.657334 
L 184.423699 -144.923163 
L 184.002666 -144.188991 
L 183.472199 -143.454819 
L 182.851341 -142.720648 
L 182.159563 -141.986476 
L 181.415831 -141.252304 
L 180.637684 -140.518133 
L 179.84038 -139.783961 
L 179.036187 -139.049789 
L 178.23389 -138.315618 
L 177.438564 -137.581446 
L 176.651648 -136.847274 
L 175.871322 -136.113103 
L 175.093153 -135.378931 
L 174.310956 -134.644759 
L 173.517778 -133.910588 
L 172.706904 -133.176416 
L 171.872783 -132.442245 
L 171.011785 -131.708073 
L 170.122717 -130.973901 
L 169.207063 -130.23973 
L 168.268951 -129.505558 
L 167.314869 -128.771386 
L 166.353183 -128.037215 
L 165.393539 -127.303043 
L 164.446208 -126.568871 
L 163.521449 -125.8347 
L 162.62895 -125.100528 
L 161.777368 -124.366356 
L 160.974009 -123.632185 
L 160.224626 -122.898013 
L 159.533342 -122.163841 
L 158.90267 -121.42967 
L 158.333602 -120.695498 
L 157.825756 -119.961326 
L 157.377552 -119.227155 
L 156.986409 -118.492983 
L 156.648942 -117.758812 
L 156.361162 -117.02464 
L 156.118664 -116.290468 
L 155.916804 -115.556297 
L 155.750863 -114.822125 
L 155.616188 -114.087953 
z
" style="stroke: #595959; stroke-width: 1.25"/>
    </defs>
    <g clip-path="url(#p6bc7163a44)">
     <use xlink:href="#mf26e69c459" x="0" y="279.674688" style="fill: #e99675; stroke: #595959; stroke-width: 1.25"/>
    </g>
   </g>
   <g id="PolyCollection_3">
    <defs>
     <path id="mb19fb56b44" d="M 229.878461 -149.809194 
L 228.96664 -149.809194 
L 228.849907 -150.44768 
L 228.710778 -151.086166 
L 228.546928 -151.724652 
L 228.356234 -152.363138 
L 228.136872 -153.001624 
L 227.887408 -153.64011 
L 227.606869 -154.278596 
L 227.294798 -154.917082 
L 226.951266 -155.555568 
L 226.576857 -156.194054 
L 226.172605 -156.83254 
L 225.739892 -157.471026 
L 225.280306 -158.109512 
L 224.79548 -158.747998 
L 224.286898 -159.386484 
L 223.755709 -160.02497 
L 223.202549 -160.663456 
L 222.627399 -161.301942 
L 222.029481 -161.940428 
L 221.407216 -162.578914 
L 220.758259 -163.2174 
L 220.079599 -163.855886 
L 219.367738 -164.494372 
L 218.618937 -165.132858 
L 217.829523 -165.771344 
L 216.996233 -166.40983 
L 216.116589 -167.048316 
L 215.189263 -167.686802 
L 214.214442 -168.325288 
L 213.194135 -168.963774 
L 212.132427 -169.602259 
L 211.035663 -170.240745 
L 209.912526 -170.879231 
L 208.774024 -171.517717 
L 207.633362 -172.156203 
L 206.5057 -172.794689 
L 205.407802 -173.433175 
L 204.357582 -174.071661 
L 203.373555 -174.710147 
L 202.474213 -175.348633 
L 201.677359 -175.987119 
L 200.999405 -176.625605 
L 200.454701 -177.264091 
L 200.054898 -177.902577 
L 199.8084 -178.541063 
L 199.719943 -179.179549 
L 199.790311 -179.818035 
L 200.016234 -180.456521 
L 200.390462 -181.095007 
L 200.902024 -181.733493 
L 201.536657 -182.371979 
L 202.277379 -183.010465 
L 203.105182 -183.648951 
L 203.99979 -184.287437 
L 204.940448 -184.925923 
L 205.906702 -185.564409 
L 206.879117 -186.202895 
L 207.839909 -186.841381 
L 208.773468 -187.479867 
L 209.666749 -188.118353 
L 210.509531 -188.756839 
L 211.294551 -189.395325 
L 212.017513 -190.033811 
L 212.676991 -190.672297 
L 213.274247 -191.310783 
L 213.812973 -191.949269 
L 214.298971 -192.587755 
L 214.739795 -193.226241 
L 215.144349 -193.864726 
L 215.52247 -194.503212 
L 215.884481 -195.141698 
L 216.24075 -195.780184 
L 216.601247 -196.41867 
L 216.975117 -197.057156 
L 217.370294 -197.695642 
L 217.793162 -198.334128 
L 218.24828 -198.972614 
L 218.738205 -199.6111 
L 219.263396 -200.249586 
L 219.822236 -200.888072 
L 220.411151 -201.526558 
L 221.024836 -202.165044 
L 221.656561 -202.80353 
L 222.298542 -203.442016 
L 222.942364 -204.080502 
L 223.579408 -204.718988 
L 224.201268 -205.357474 
L 224.800133 -205.99596 
L 225.369107 -206.634446 
L 225.902455 -207.272932 
L 226.39576 -207.911418 
L 226.846001 -208.549904 
L 227.251545 -209.18839 
L 227.61207 -209.826876 
L 227.928422 -210.465362 
L 228.202442 -211.103848 
L 228.436759 -211.742334 
L 228.634577 -212.38082 
L 228.79947 -213.019306 
L 230.045632 -213.019306 
L 230.045632 -213.019306 
L 230.210524 -212.38082 
L 230.408343 -211.742334 
L 230.64266 -211.103848 
L 230.91668 -210.465362 
L 231.233032 -209.826876 
L 231.593556 -209.18839 
L 231.999101 -208.549904 
L 232.449342 -207.911418 
L 232.942647 -207.272932 
L 233.475994 -206.634446 
L 234.044969 -205.99596 
L 234.643834 -205.357474 
L 235.265694 -204.718988 
L 235.902737 -204.080502 
L 236.54656 -203.442016 
L 237.188541 -202.80353 
L 237.820266 -202.165044 
L 238.433951 -201.526558 
L 239.022866 -200.888072 
L 239.581706 -200.249586 
L 240.106897 -199.6111 
L 240.596821 -198.972614 
L 241.05194 -198.334128 
L 241.474808 -197.695642 
L 241.869985 -197.057156 
L 242.243855 -196.41867 
L 242.604352 -195.780184 
L 242.960621 -195.141698 
L 243.322632 -194.503212 
L 243.700752 -193.864726 
L 244.105307 -193.226241 
L 244.546131 -192.587755 
L 245.032129 -191.949269 
L 245.570855 -191.310783 
L 246.168111 -190.672297 
L 246.827589 -190.033811 
L 247.550551 -189.395325 
L 248.335571 -188.756839 
L 249.178353 -188.118353 
L 250.071634 -187.479867 
L 251.005193 -186.841381 
L 251.965985 -186.202895 
L 252.9384 -185.564409 
L 253.904654 -184.925923 
L 254.845312 -184.287437 
L 255.73992 -183.648951 
L 256.567723 -183.010465 
L 257.308445 -182.371979 
L 257.943078 -181.733493 
L 258.45464 -181.095007 
L 258.828868 -180.456521 
L 259.054791 -179.818035 
L 259.125159 -179.179549 
L 259.036702 -178.541063 
L 258.790204 -177.902577 
L 258.390401 -177.264091 
L 257.845697 -176.625605 
L 257.167743 -175.987119 
L 256.370888 -175.348633 
L 255.471547 -174.710147 
L 254.48752 -174.071661 
L 253.4373 -173.433175 
L 252.339402 -172.794689 
L 251.21174 -172.156203 
L 250.071077 -171.517717 
L 248.932576 -170.879231 
L 247.809439 -170.240745 
L 246.712675 -169.602259 
L 245.650967 -168.963774 
L 244.630659 -168.325288 
L 243.655838 -167.686802 
L 242.728513 -167.048316 
L 241.848868 -166.40983 
L 241.015579 -165.771344 
L 240.226165 -165.132858 
L 239.477364 -164.494372 
L 238.765503 -163.855886 
L 238.086843 -163.2174 
L 237.437886 -162.578914 
L 236.815621 -161.940428 
L 236.217702 -161.301942 
L 235.642553 -160.663456 
L 235.089393 -160.02497 
L 234.558204 -159.386484 
L 234.049621 -158.747998 
L 233.564795 -158.109512 
L 233.10521 -157.471026 
L 232.672496 -156.83254 
L 232.268244 -156.194054 
L 231.893836 -155.555568 
L 231.550304 -154.917082 
L 231.238233 -154.278596 
L 230.957694 -153.64011 
L 230.70823 -153.001624 
L 230.488868 -152.363138 
L 230.298174 -151.724652 
L 230.134324 -151.086166 
L 229.995195 -150.44768 
L 229.878461 -149.809194 
z
" style="stroke: #595959; stroke-width: 1.25"/>
    </defs>
    <g clip-path="url(#p6bc7163a44)">
     <use xlink:href="#mb19fb56b44" x="0" y="279.674688" style="fill: #95a3c3; stroke: #595959; stroke-width: 1.25"/>
    </g>
   </g>
   <g id="matplotlib.axis_1">
    <g id="xtick_1">
     <g id="line2d_1">
      <defs>
       <path id="m54bc3cbd6c" d="M 0 0 
L 0 3.5 
" style="stroke: #000000; stroke-width: 0.8"/>
      </defs>
      <g>
       <use xlink:href="#m54bc3cbd6c" x="80.90951" y="242.118437" style="stroke: #000000; stroke-width: 0.8"/>
      </g>
     </g>
     <g id="text_1">
      <!-- Deep -->
      <g transform="translate(67.732166 256.716875) scale(0.1 -0.1)">
       <defs>
        <path id="DejaVuSans-44" d="M 1259 4147 
L 1259 519 
L 2022 519 
Q 2988 519 3436 956 
Q 3884 1394 3884 2338 
Q 3884 3275 3436 3711 
Q 2988 4147 2022 4147 
L 1259 4147 
z
M 628 4666 
L 1925 4666 
Q 3281 4666 3915 4102 
Q 4550 3538 4550 2338 
Q 4550 1131 3912 565 
Q 3275 0 1925 0 
L 628 0 
L 628 4666 
z
" transform="scale(0.015625)"/>
        <path id="DejaVuSans-65" d="M 3597 1894 
L 3597 1613 
L 953 1613 
Q 991 1019 1311 708 
Q 1631 397 2203 397 
Q 2534 397 2845 478 
Q 3156 559 3463 722 
L 3463 178 
Q 3153 47 2828 -22 
Q 2503 -91 2169 -91 
Q 1331 -91 842 396 
Q 353 884 353 1716 
Q 353 2575 817 3079 
Q 1281 3584 2069 3584 
Q 2775 3584 3186 3129 
Q 3597 2675 3597 1894 
z
M 3022 2063 
Q 3016 2534 2758 2815 
Q 2500 3097 2075 3097 
Q 1594 3097 1305 2825 
Q 1016 2553 972 2059 
L 3022 2063 
z
" transform="scale(0.015625)"/>
        <path id="DejaVuSans-70" d="M 1159 525 
L 1159 -1331 
L 581 -1331 
L 581 3500 
L 1159 3500 
L 1159 2969 
Q 1341 3281 1617 3432 
Q 1894 3584 2278 3584 
Q 2916 3584 3314 3078 
Q 3713 2572 3713 1747 
Q 3713 922 3314 415 
Q 2916 -91 2278 -91 
Q 1894 -91 1617 61 
Q 1341 213 1159 525 
z
M 3116 1747 
Q 3116 2381 2855 2742 
Q 2594 3103 2138 3103 
Q 1681 3103 1420 2742 
Q 1159 2381 1159 1747 
Q 1159 1113 1420 752 
Q 1681 391 2138 391 
Q 2594 391 2855 752 
Q 3116 1113 3116 1747 
z
" transform="scale(0.015625)"/>
       </defs>
       <use xlink:href="#DejaVuSans-44"/>
       <use xlink:href="#DejaVuSans-65" x="77.001953"/>
       <use xlink:href="#DejaVuSans-65" x="138.525391"/>
       <use xlink:href="#DejaVuSans-70" x="200.048828"/>
      </g>
     </g>
    </g>
    <g id="xtick_2">
     <g id="line2d_2">
      <g>
       <use xlink:href="#m54bc3cbd6c" x="155.166031" y="242.118437" style="stroke: #000000; stroke-width: 0.8"/>
      </g>
     </g>
     <g id="text_2">
      <!-- Middle -->
      <g transform="translate(138.648843 256.716875) scale(0.1 -0.1)">
       <defs>
        <path id="DejaVuSans-4d" d="M 628 4666 
L 1569 4666 
L 2759 1491 
L 3956 4666 
L 4897 4666 
L 4897 0 
L 4281 0 
L 4281 4097 
L 3078 897 
L 2444 897 
L 1241 4097 
L 1241 0 
L 628 0 
L 628 4666 
z
" transform="scale(0.015625)"/>
        <path id="DejaVuSans-69" d="M 603 3500 
L 1178 3500 
L 1178 0 
L 603 0 
L 603 3500 
z
M 603 4863 
L 1178 4863 
L 1178 4134 
L 603 4134 
L 603 4863 
z
" transform="scale(0.015625)"/>
        <path id="DejaVuSans-64" d="M 2906 2969 
L 2906 4863 
L 3481 4863 
L 3481 0 
L 2906 0 
L 2906 525 
Q 2725 213 2448 61 
Q 2172 -91 1784 -91 
Q 1150 -91 751 415 
Q 353 922 353 1747 
Q 353 2572 751 3078 
Q 1150 3584 1784 3584 
Q 2172 3584 2448 3432 
Q 2725 3281 2906 2969 
z
M 947 1747 
Q 947 1113 1208 752 
Q 1469 391 1925 391 
Q 2381 391 2643 752 
Q 2906 1113 2906 1747 
Q 2906 2381 2643 2742 
Q 2381 3103 1925 3103 
Q 1469 3103 1208 2742 
Q 947 2381 947 1747 
z
" transform="scale(0.015625)"/>
        <path id="DejaVuSans-6c" d="M 603 4863 
L 1178 4863 
L 1178 0 
L 603 0 
L 603 4863 
z
" transform="scale(0.015625)"/>
       </defs>
       <use xlink:href="#DejaVuSans-4d"/>
       <use xlink:href="#DejaVuSans-69" x="86.279297"/>
       <use xlink:href="#DejaVuSans-64" x="114.0625"/>
       <use xlink:href="#DejaVuSans-64" x="177.539062"/>
       <use xlink:href="#DejaVuSans-6c" x="241.015625"/>
       <use xlink:href="#DejaVuSans-65" x="268.798828"/>
      </g>
     </g>
    </g>
    <g id="xtick_3">
     <g id="line2d_3">
      <g>
       <use xlink:href="#m54bc3cbd6c" x="229.422551" y="242.118437" style="stroke: #000000; stroke-width: 0.8"/>
      </g>
     </g>
     <g id="text_3">
      <!-- Superficial -->
      <g transform="translate(203.032707 256.716875) scale(0.1 -0.1)">
       <defs>
        <path id="DejaVuSans-53" d="M 3425 4513 
L 3425 3897 
Q 3066 4069 2747 4153 
Q 2428 4238 2131 4238 
Q 1616 4238 1336 4038 
Q 1056 3838 1056 3469 
Q 1056 3159 1242 3001 
Q 1428 2844 1947 2747 
L 2328 2669 
Q 3034 2534 3370 2195 
Q 3706 1856 3706 1288 
Q 3706 609 3251 259 
Q 2797 -91 1919 -91 
Q 1588 -91 1214 -16 
Q 841 59 441 206 
L 441 856 
Q 825 641 1194 531 
Q 1563 422 1919 422 
Q 2459 422 2753 634 
Q 3047 847 3047 1241 
Q 3047 1584 2836 1778 
Q 2625 1972 2144 2069 
L 1759 2144 
Q 1053 2284 737 2584 
Q 422 2884 422 3419 
Q 422 4038 858 4394 
Q 1294 4750 2059 4750 
Q 2388 4750 2728 4690 
Q 3069 4631 3425 4513 
z
" transform="scale(0.015625)"/>
        <path id="DejaVuSans-75" d="M 544 1381 
L 544 3500 
L 1119 3500 
L 1119 1403 
Q 1119 906 1312 657 
Q 1506 409 1894 409 
Q 2359 409 2629 706 
Q 2900 1003 2900 1516 
L 2900 3500 
L 3475 3500 
L 3475 0 
L 2900 0 
L 2900 538 
Q 2691 219 2414 64 
Q 2138 -91 1772 -91 
Q 1169 -91 856 284 
Q 544 659 544 1381 
z
M 1991 3584 
L 1991 3584 
z
" transform="scale(0.015625)"/>
        <path id="DejaVuSans-72" d="M 2631 2963 
Q 2534 3019 2420 3045 
Q 2306 3072 2169 3072 
Q 1681 3072 1420 2755 
Q 1159 2438 1159 1844 
L 1159 0 
L 581 0 
L 581 3500 
L 1159 3500 
L 1159 2956 
Q 1341 3275 1631 3429 
Q 1922 3584 2338 3584 
Q 2397 3584 2469 3576 
Q 2541 3569 2628 3553 
L 2631 2963 
z
" transform="scale(0.015625)"/>
        <path id="DejaVuSans-66" d="M 2375 4863 
L 2375 4384 
L 1825 4384 
Q 1516 4384 1395 4259 
Q 1275 4134 1275 3809 
L 1275 3500 
L 2222 3500 
L 2222 3053 
L 1275 3053 
L 1275 0 
L 697 0 
L 697 3053 
L 147 3053 
L 147 3500 
L 697 3500 
L 697 3744 
Q 697 4328 969 4595 
Q 1241 4863 1831 4863 
L 2375 4863 
z
" transform="scale(0.015625)"/>
        <path id="DejaVuSans-63" d="M 3122 3366 
L 3122 2828 
Q 2878 2963 2633 3030 
Q 2388 3097 2138 3097 
Q 1578 3097 1268 2742 
Q 959 2388 959 1747 
Q 959 1106 1268 751 
Q 1578 397 2138 397 
Q 2388 397 2633 464 
Q 2878 531 3122 666 
L 3122 134 
Q 2881 22 2623 -34 
Q 2366 -91 2075 -91 
Q 1284 -91 818 406 
Q 353 903 353 1747 
Q 353 2603 823 3093 
Q 1294 3584 2113 3584 
Q 2378 3584 2631 3529 
Q 2884 3475 3122 3366 
z
" transform="scale(0.015625)"/>
        <path id="DejaVuSans-61" d="M 2194 1759 
Q 1497 1759 1228 1600 
Q 959 1441 959 1056 
Q 959 750 1161 570 
Q 1363 391 1709 391 
Q 2188 391 2477 730 
Q 2766 1069 2766 1631 
L 2766 1759 
L 2194 1759 
z
M 3341 1997 
L 3341 0 
L 2766 0 
L 2766 531 
Q 2569 213 2275 61 
Q 1981 -91 1556 -91 
Q 1019 -91 701 211 
Q 384 513 384 1019 
Q 384 1609 779 1909 
Q 1175 2209 1959 2209 
L 2766 2209 
L 2766 2266 
Q 2766 2663 2505 2880 
Q 2244 3097 1772 3097 
Q 1472 3097 1187 3025 
Q 903 2953 641 2809 
L 641 3341 
Q 956 3463 1253 3523 
Q 1550 3584 1831 3584 
Q 2591 3584 2966 3190 
Q 3341 2797 3341 1997 
z
" transform="scale(0.015625)"/>
       </defs>
       <use xlink:href="#DejaVuSans-53"/>
       <use xlink:href="#DejaVuSans-75" x="63.476562"/>
       <use xlink:href="#DejaVuSans-70" x="126.855469"/>
       <use xlink:href="#DejaVuSans-65" x="190.332031"/>
       <use xlink:href="#DejaVuSans-72" x="251.855469"/>
       <use xlink:href="#DejaVuSans-66" x="292.96875"/>
       <use xlink:href="#DejaVuSans-69" x="328.173828"/>
       <use xlink:href="#DejaVuSans-63" x="355.957031"/>
       <use xlink:href="#DejaVuSans-69" x="410.9375"/>
       <use xlink:href="#DejaVuSans-61" x="438.720703"/>
       <use xlink:href="#DejaVuSans-6c" x="500"/>
      </g>
     </g>
    </g>
    <g id="text_4">
     <!-- Layer -->
     <g transform="translate(141.224624 270.395) scale(0.1 -0.1)">
      <defs>
       <path id="DejaVuSans-4c" d="M 628 4666 
L 1259 4666 
L 1259 531 
L 3531 531 
L 3531 0 
L 628 0 
L 628 4666 
z
" transform="scale(0.015625)"/>
       <path id="DejaVuSans-79" d="M 2059 -325 
Q 1816 -950 1584 -1140 
Q 1353 -1331 966 -1331 
L 506 -1331 
L 506 -850 
L 844 -850 
Q 1081 -850 1212 -737 
Q 1344 -625 1503 -206 
L 1606 56 
L 191 3500 
L 800 3500 
L 1894 763 
L 2988 3500 
L 3597 3500 
L 2059 -325 
z
" transform="scale(0.015625)"/>
      </defs>
      <use xlink:href="#DejaVuSans-4c"/>
      <use xlink:href="#DejaVuSans-61" x="55.712891"/>
      <use xlink:href="#DejaVuSans-79" x="116.992188"/>
      <use xlink:href="#DejaVuSans-65" x="176.171875"/>
      <use xlink:href="#DejaVuSans-72" x="237.695312"/>
     </g>
    </g>
   </g>
   <g id="matplotlib.axis_2">
    <g id="ytick_1">
     <g id="line2d_4">
      <defs>
       <path id="m7b556d6085" d="M 0 0 
L -3.5 0 
" style="stroke: #000000; stroke-width: 0.8"/>
      </defs>
      <g>
       <use xlink:href="#m7b556d6085" x="43.78125" y="242.118437" style="stroke: #000000; stroke-width: 0.8"/>
      </g>
     </g>
     <g id="text_5">
      <!-- 0.0 -->
      <g transform="translate(20.878125 245.917656) scale(0.1 -0.1)">
       <defs>
        <path id="DejaVuSans-30" d="M 2034 4250 
Q 1547 4250 1301 3770 
Q 1056 3291 1056 2328 
Q 1056 1369 1301 889 
Q 1547 409 2034 409 
Q 2525 409 2770 889 
Q 3016 1369 3016 2328 
Q 3016 3291 2770 3770 
Q 2525 4250 2034 4250 
z
M 2034 4750 
Q 2819 4750 3233 4129 
Q 3647 3509 3647 2328 
Q 3647 1150 3233 529 
Q 2819 -91 2034 -91 
Q 1250 -91 836 529 
Q 422 1150 422 2328 
Q 422 3509 836 4129 
Q 1250 4750 2034 4750 
z
" transform="scale(0.015625)"/>
        <path id="DejaVuSans-2e" d="M 684 794 
L 1344 794 
L 1344 0 
L 684 0 
L 684 794 
z
" transform="scale(0.015625)"/>
       </defs>
       <use xlink:href="#DejaVuSans-30"/>
       <use xlink:href="#DejaVuSans-2e" x="63.623047"/>
       <use xlink:href="#DejaVuSans-30" x="95.410156"/>
      </g>
     </g>
    </g>
    <g id="ytick_2">
     <g id="line2d_5">
      <g>
       <use xlink:href="#m7b556d6085" x="43.78125" y="197.854437" style="stroke: #000000; stroke-width: 0.8"/>
      </g>
     </g>
     <g id="text_6">
      <!-- 0.2 -->
      <g transform="translate(20.878125 201.653656) scale(0.1 -0.1)">
       <defs>
        <path id="DejaVuSans-32" d="M 1228 531 
L 3431 531 
L 3431 0 
L 469 0 
L 469 531 
Q 828 903 1448 1529 
Q 2069 2156 2228 2338 
Q 2531 2678 2651 2914 
Q 2772 3150 2772 3378 
Q 2772 3750 2511 3984 
Q 2250 4219 1831 4219 
Q 1534 4219 1204 4116 
Q 875 4013 500 3803 
L 500 4441 
Q 881 4594 1212 4672 
Q 1544 4750 1819 4750 
Q 2544 4750 2975 4387 
Q 3406 4025 3406 3419 
Q 3406 3131 3298 2873 
Q 3191 2616 2906 2266 
Q 2828 2175 2409 1742 
Q 1991 1309 1228 531 
z
" transform="scale(0.015625)"/>
       </defs>
       <use xlink:href="#DejaVuSans-30"/>
       <use xlink:href="#DejaVuSans-2e" x="63.623047"/>
       <use xlink:href="#DejaVuSans-32" x="95.410156"/>
      </g>
     </g>
    </g>
    <g id="ytick_3">
     <g id="line2d_6">
      <g>
       <use xlink:href="#m7b556d6085" x="43.78125" y="153.590437" style="stroke: #000000; stroke-width: 0.8"/>
      </g>
     </g>
     <g id="text_7">
      <!-- 0.4 -->
      <g transform="translate(20.878125 157.389656) scale(0.1 -0.1)">
       <defs>
        <path id="DejaVuSans-34" d="M 2419 4116 
L 825 1625 
L 2419 1625 
L 2419 4116 
z
M 2253 4666 
L 3047 4666 
L 3047 1625 
L 3713 1625 
L 3713 1100 
L 3047 1100 
L 3047 0 
L 2419 0 
L 2419 1100 
L 313 1100 
L 313 1709 
L 2253 4666 
z
" transform="scale(0.015625)"/>
       </defs>
       <use xlink:href="#DejaVuSans-30"/>
       <use xlink:href="#DejaVuSans-2e" x="63.623047"/>
       <use xlink:href="#DejaVuSans-34" x="95.410156"/>
      </g>
     </g>
    </g>
    <g id="ytick_4">
     <g id="line2d_7">
      <g>
       <use xlink:href="#m7b556d6085" x="43.78125" y="109.326437" style="stroke: #000000; stroke-width: 0.8"/>
      </g>
     </g>
     <g id="text_8">
      <!-- 0.6 -->
      <g transform="translate(20.878125 113.125656) scale(0.1 -0.1)">
       <defs>
        <path id="DejaVuSans-36" d="M 2113 2584 
Q 1688 2584 1439 2293 
Q 1191 2003 1191 1497 
Q 1191 994 1439 701 
Q 1688 409 2113 409 
Q 2538 409 2786 701 
Q 3034 994 3034 1497 
Q 3034 2003 2786 2293 
Q 2538 2584 2113 2584 
z
M 3366 4563 
L 3366 3988 
Q 3128 4100 2886 4159 
Q 2644 4219 2406 4219 
Q 1781 4219 1451 3797 
Q 1122 3375 1075 2522 
Q 1259 2794 1537 2939 
Q 1816 3084 2150 3084 
Q 2853 3084 3261 2657 
Q 3669 2231 3669 1497 
Q 3669 778 3244 343 
Q 2819 -91 2113 -91 
Q 1303 -91 875 529 
Q 447 1150 447 2328 
Q 447 3434 972 4092 
Q 1497 4750 2381 4750 
Q 2619 4750 2861 4703 
Q 3103 4656 3366 4563 
z
" transform="scale(0.015625)"/>
       </defs>
       <use xlink:href="#DejaVuSans-30"/>
       <use xlink:href="#DejaVuSans-2e" x="63.623047"/>
       <use xlink:href="#DejaVuSans-36" x="95.410156"/>
      </g>
     </g>
    </g>
    <g id="ytick_5">
     <g id="line2d_8">
      <g>
       <use xlink:href="#m7b556d6085" x="43.78125" y="65.062437" style="stroke: #000000; stroke-width: 0.8"/>
      </g>
     </g>
     <g id="text_9">
      <!-- 0.8 -->
      <g transform="translate(20.878125 68.861656) scale(0.1 -0.1)">
       <defs>
        <path id="DejaVuSans-38" d="M 2034 2216 
Q 1584 2216 1326 1975 
Q 1069 1734 1069 1313 
Q 1069 891 1326 650 
Q 1584 409 2034 409 
Q 2484 409 2743 651 
Q 3003 894 3003 1313 
Q 3003 1734 2745 1975 
Q 2488 2216 2034 2216 
z
M 1403 2484 
Q 997 2584 770 2862 
Q 544 3141 544 3541 
Q 544 4100 942 4425 
Q 1341 4750 2034 4750 
Q 2731 4750 3128 4425 
Q 3525 4100 3525 3541 
Q 3525 3141 3298 2862 
Q 3072 2584 2669 2484 
Q 3125 2378 3379 2068 
Q 3634 1759 3634 1313 
Q 3634 634 3220 271 
Q 2806 -91 2034 -91 
Q 1263 -91 848 271 
Q 434 634 434 1313 
Q 434 1759 690 2068 
Q 947 2378 1403 2484 
z
M 1172 3481 
Q 1172 3119 1398 2916 
Q 1625 2713 2034 2713 
Q 2441 2713 2670 2916 
Q 2900 3119 2900 3481 
Q 2900 3844 2670 4047 
Q 2441 4250 2034 4250 
Q 1625 4250 1398 4047 
Q 1172 3844 1172 3481 
z
" transform="scale(0.015625)"/>
       </defs>
       <use xlink:href="#DejaVuSans-30"/>
       <use xlink:href="#DejaVuSans-2e" x="63.623047"/>
       <use xlink:href="#DejaVuSans-38" x="95.410156"/>
      </g>
     </g>
    </g>
    <g id="ytick_6">
     <g id="line2d_9">
      <g>
       <use xlink:href="#m7b556d6085" x="43.78125" y="20.798437" style="stroke: #000000; stroke-width: 0.8"/>
      </g>
     </g>
     <g id="text_10">
      <!-- 1.0 -->
      <g transform="translate(20.878125 24.597656) scale(0.1 -0.1)">
       <defs>
        <path id="DejaVuSans-31" d="M 794 531 
L 1825 531 
L 1825 4091 
L 703 3866 
L 703 4441 
L 1819 4666 
L 2450 4666 
L 2450 531 
L 3481 531 
L 3481 0 
L 794 0 
L 794 531 
z
" transform="scale(0.015625)"/>
       </defs>
       <use xlink:href="#DejaVuSans-31"/>
       <use xlink:href="#DejaVuSans-2e" x="63.623047"/>
       <use xlink:href="#DejaVuSans-30" x="95.410156"/>
      </g>
     </g>
    </g>
    <g id="text_11">
     <!-- Accuracy -->
     <g transform="translate(14.798438 154.286563) rotate(-90) scale(0.1 -0.1)">
      <defs>
       <path id="DejaVuSans-41" d="M 2188 4044 
L 1331 1722 
L 3047 1722 
L 2188 4044 
z
M 1831 4666 
L 2547 4666 
L 4325 0 
L 3669 0 
L 3244 1197 
L 1141 1197 
L 716 0 
L 50 0 
L 1831 4666 
z
" transform="scale(0.015625)"/>
      </defs>
      <use xlink:href="#DejaVuSans-41"/>
      <use xlink:href="#DejaVuSans-63" x="66.658203"/>
      <use xlink:href="#DejaVuSans-63" x="121.638672"/>
      <use xlink:href="#DejaVuSans-75" x="176.619141"/>
      <use xlink:href="#DejaVuSans-72" x="239.998047"/>
      <use xlink:href="#DejaVuSans-61" x="281.111328"/>
      <use xlink:href="#DejaVuSans-63" x="342.390625"/>
      <use xlink:href="#DejaVuSans-79" x="397.371094"/>
     </g>
    </g>
   </g>
   <g id="line2d_10">
    <path d="M 43.78125 131.458438 
L 266.550811 131.458438 
" clip-path="url(#p6bc7163a44)" style="fill: none; stroke-dasharray: 5.55,2.4; stroke-dashoffset: 0; stroke: #808080; stroke-width: 1.5"/>
   </g>
   <g id="patch_3">
    <path d="M 43.78125 242.118437 
L 43.78125 20.798437 
" style="fill: none; stroke: #000000; stroke-width: 0.8; stroke-linejoin: miter; stroke-linecap: square"/>
   </g>
   <g id="patch_4">
    <path d="M 43.78125 242.118437 
L 266.550811 242.118437 
" style="fill: none; stroke: #000000; stroke-width: 0.8; stroke-linejoin: miter; stroke-linecap: square"/>
   </g>
   <g id="PathCollection_1">
    <defs>
     <path id="m77cfa6a980" d="M 0 1.25 
C 0.331504 1.25 0.649475 1.118292 0.883883 0.883883 
C 1.118292 0.649475 1.25 0.331504 1.25 0 
C 1.25 -0.331504 1.118292 -0.649475 0.883883 -0.883883 
C 0.649475 -1.118292 0.331504 -1.25 0 -1.25 
C -0.331504 -1.25 -0.649475 -1.118292 -0.883883 -0.883883 
C -1.118292 -0.649475 -1.25 -0.331504 -1.25 0 
C -1.25 0.331504 -1.118292 0.649475 -0.883883 0.883883 
C -0.649475 1.118292 -0.331504 1.25 0 1.25 
z
" style="stroke: #595959"/>
    </defs>
    <g clip-path="url(#p6bc7163a44)">
     <use xlink:href="#m77cfa6a980" x="80.90951" y="135.884838" style="fill: #595959; stroke: #595959"/>
     <use xlink:href="#m77cfa6a980" x="80.90951" y="124.818837" style="fill: #595959; stroke: #595959"/>
     <use xlink:href="#m77cfa6a980" x="80.90951" y="127.032037" style="fill: #595959; stroke: #595959"/>
     <use xlink:href="#m77cfa6a980" x="80.90951" y="151.377237" style="fill: #595959; stroke: #595959"/>
     <use xlink:href="#m77cfa6a980" x="80.90951" y="120.392437" style="fill: #595959; stroke: #595959"/>
     <use xlink:href="#m77cfa6a980" x="80.90951" y="122.605637" style="fill: #595959; stroke: #595959"/>
     <use xlink:href="#m77cfa6a980" x="80.90951" y="149.164037" style="fill: #595959; stroke: #595959"/>
     <use xlink:href="#m77cfa6a980" x="80.90951" y="120.392437" style="fill: #595959; stroke: #595959"/>
     <use xlink:href="#m77cfa6a980" x="80.90951" y="120.392437" style="fill: #595959; stroke: #595959"/>
     <use xlink:href="#m77cfa6a980" x="80.90951" y="124.818837" style="fill: #595959; stroke: #595959"/>
     <use xlink:href="#m77cfa6a980" x="80.90951" y="127.032037" style="fill: #595959; stroke: #595959"/>
     <use xlink:href="#m77cfa6a980" x="80.90951" y="104.900037" style="fill: #595959; stroke: #595959"/>
     <use xlink:href="#m77cfa6a980" x="80.90951" y="122.605637" style="fill: #595959; stroke: #595959"/>
     <use xlink:href="#m77cfa6a980" x="80.90951" y="153.590437" style="fill: #595959; stroke: #595959"/>
     <use xlink:href="#m77cfa6a980" x="80.90951" y="146.950837" style="fill: #595959; stroke: #595959"/>
     <use xlink:href="#m77cfa6a980" x="80.90951" y="109.326437" style="fill: #595959; stroke: #595959"/>
     <use xlink:href="#m77cfa6a980" x="80.90951" y="144.737638" style="fill: #595959; stroke: #595959"/>
     <use xlink:href="#m77cfa6a980" x="80.90951" y="131.458438" style="fill: #595959; stroke: #595959"/>
     <use xlink:href="#m77cfa6a980" x="80.90951" y="118.179237" style="fill: #595959; stroke: #595959"/>
     <use xlink:href="#m77cfa6a980" x="80.90951" y="124.818837" style="fill: #595959; stroke: #595959"/>
    </g>
   </g>
   <g id="PathCollection_2">
    <g clip-path="url(#p6bc7163a44)">
     <use xlink:href="#m77cfa6a980" x="155.166031" y="131.458438" style="fill: #595959; stroke: #595959"/>
     <use xlink:href="#m77cfa6a980" x="155.166031" y="133.671638" style="fill: #595959; stroke: #595959"/>
     <use xlink:href="#m77cfa6a980" x="155.166031" y="129.245237" style="fill: #595959; stroke: #595959"/>
     <use xlink:href="#m77cfa6a980" x="155.166031" y="127.032037" style="fill: #595959; stroke: #595959"/>
     <use xlink:href="#m77cfa6a980" x="155.166031" y="131.458438" style="fill: #595959; stroke: #595959"/>
     <use xlink:href="#m77cfa6a980" x="155.166031" y="124.818837" style="fill: #595959; stroke: #595959"/>
     <use xlink:href="#m77cfa6a980" x="155.166031" y="138.098037" style="fill: #595959; stroke: #595959"/>
     <use xlink:href="#m77cfa6a980" x="155.166031" y="138.098037" style="fill: #595959; stroke: #595959"/>
     <use xlink:href="#m77cfa6a980" x="155.166031" y="153.590437" style="fill: #595959; stroke: #595959"/>
     <use xlink:href="#m77cfa6a980" x="155.166031" y="133.671638" style="fill: #595959; stroke: #595959"/>
     <use xlink:href="#m77cfa6a980" x="155.166031" y="138.098037" style="fill: #595959; stroke: #595959"/>
     <use xlink:href="#m77cfa6a980" x="155.166031" y="104.900037" style="fill: #595959; stroke: #595959"/>
     <use xlink:href="#m77cfa6a980" x="155.166031" y="146.950837" style="fill: #595959; stroke: #595959"/>
     <use xlink:href="#m77cfa6a980" x="155.166031" y="144.737637" style="fill: #595959; stroke: #595959"/>
     <use xlink:href="#m77cfa6a980" x="155.166031" y="138.098037" style="fill: #595959; stroke: #595959"/>
     <use xlink:href="#m77cfa6a980" x="155.166031" y="127.032037" style="fill: #595959; stroke: #595959"/>
     <use xlink:href="#m77cfa6a980" x="155.166031" y="131.458438" style="fill: #595959; stroke: #595959"/>
     <use xlink:href="#m77cfa6a980" x="155.166031" y="146.950837" style="fill: #595959; stroke: #595959"/>
     <use xlink:href="#m77cfa6a980" x="155.166031" y="122.605638" style="fill: #595959; stroke: #595959"/>
     <use xlink:href="#m77cfa6a980" x="155.166031" y="146.950837" style="fill: #595959; stroke: #595959"/>
    </g>
   </g>
   <g id="PathCollection_3">
    <g clip-path="url(#p6bc7163a44)">
     <use xlink:href="#m77cfa6a980" x="229.422551" y="87.194437" style="fill: #595959; stroke: #595959"/>
     <use xlink:href="#m77cfa6a980" x="229.422551" y="89.407637" style="fill: #595959; stroke: #595959"/>
     <use xlink:href="#m77cfa6a980" x="229.422551" y="104.900037" style="fill: #595959; stroke: #595959"/>
     <use xlink:href="#m77cfa6a980" x="229.422551" y="82.768037" style="fill: #595959; stroke: #595959"/>
     <use xlink:href="#m77cfa6a980" x="229.422551" y="78.341637" style="fill: #595959; stroke: #595959"/>
     <use xlink:href="#m77cfa6a980" x="229.422551" y="93.834037" style="fill: #595959; stroke: #595959"/>
     <use xlink:href="#m77cfa6a980" x="229.422551" y="100.473637" style="fill: #595959; stroke: #595959"/>
     <use xlink:href="#m77cfa6a980" x="229.422551" y="102.686837" style="fill: #595959; stroke: #595959"/>
     <use xlink:href="#m77cfa6a980" x="229.422551" y="93.834037" style="fill: #595959; stroke: #595959"/>
     <use xlink:href="#m77cfa6a980" x="229.422551" y="104.900037" style="fill: #595959; stroke: #595959"/>
     <use xlink:href="#m77cfa6a980" x="229.422551" y="80.554838" style="fill: #595959; stroke: #595959"/>
     <use xlink:href="#m77cfa6a980" x="229.422551" y="118.179237" style="fill: #595959; stroke: #595959"/>
     <use xlink:href="#m77cfa6a980" x="229.422551" y="113.752837" style="fill: #595959; stroke: #595959"/>
     <use xlink:href="#m77cfa6a980" x="229.422551" y="100.473637" style="fill: #595959; stroke: #595959"/>
     <use xlink:href="#m77cfa6a980" x="229.422551" y="98.260437" style="fill: #595959; stroke: #595959"/>
     <use xlink:href="#m77cfa6a980" x="229.422551" y="107.113237" style="fill: #595959; stroke: #595959"/>
     <use xlink:href="#m77cfa6a980" x="229.422551" y="100.473637" style="fill: #595959; stroke: #595959"/>
     <use xlink:href="#m77cfa6a980" x="229.422551" y="109.326437" style="fill: #595959; stroke: #595959"/>
     <use xlink:href="#m77cfa6a980" x="229.422551" y="98.260437" style="fill: #595959; stroke: #595959"/>
     <use xlink:href="#m77cfa6a980" x="229.422551" y="98.260437" style="fill: #595959; stroke: #595959"/>
    </g>
   </g>
   <g id="text_12">
    <!-- Rho = 0.4 -->
    <g transform="translate(273.08589 106.436563) rotate(-270) scale(0.1 -0.1)">
     <defs>
      <path id="DejaVuSans-52" d="M 2841 2188 
Q 3044 2119 3236 1894 
Q 3428 1669 3622 1275 
L 4263 0 
L 3584 0 
L 2988 1197 
Q 2756 1666 2539 1819 
Q 2322 1972 1947 1972 
L 1259 1972 
L 1259 0 
L 628 0 
L 628 4666 
L 2053 4666 
Q 2853 4666 3247 4331 
Q 3641 3997 3641 3322 
Q 3641 2881 3436 2590 
Q 3231 2300 2841 2188 
z
M 1259 4147 
L 1259 2491 
L 2053 2491 
Q 2509 2491 2742 2702 
Q 2975 2913 2975 3322 
Q 2975 3731 2742 3939 
Q 2509 4147 2053 4147 
L 1259 4147 
z
" transform="scale(0.015625)"/>
      <path id="DejaVuSans-68" d="M 3513 2113 
L 3513 0 
L 2938 0 
L 2938 2094 
Q 2938 2591 2744 2837 
Q 2550 3084 2163 3084 
Q 1697 3084 1428 2787 
Q 1159 2491 1159 1978 
L 1159 0 
L 581 0 
L 581 4863 
L 1159 4863 
L 1159 2956 
Q 1366 3272 1645 3428 
Q 1925 3584 2291 3584 
Q 2894 3584 3203 3211 
Q 3513 2838 3513 2113 
z
" transform="scale(0.015625)"/>
      <path id="DejaVuSans-6f" d="M 1959 3097 
Q 1497 3097 1228 2736 
Q 959 2375 959 1747 
Q 959 1119 1226 758 
Q 1494 397 1959 397 
Q 2419 397 2687 759 
Q 2956 1122 2956 1747 
Q 2956 2369 2687 2733 
Q 2419 3097 1959 3097 
z
M 1959 3584 
Q 2709 3584 3137 3096 
Q 3566 2609 3566 1747 
Q 3566 888 3137 398 
Q 2709 -91 1959 -91 
Q 1206 -91 779 398 
Q 353 888 353 1747 
Q 353 2609 779 3096 
Q 1206 3584 1959 3584 
z
" transform="scale(0.015625)"/>
      <path id="DejaVuSans-20" transform="scale(0.015625)"/>
      <path id="DejaVuSans-3d" d="M 678 2906 
L 4684 2906 
L 4684 2381 
L 678 2381 
L 678 2906 
z
M 678 1631 
L 4684 1631 
L 4684 1100 
L 678 1100 
L 678 1631 
z
" transform="scale(0.015625)"/>
     </defs>
     <use xlink:href="#DejaVuSans-52"/>
     <use xlink:href="#DejaVuSans-68" x="69.482422"/>
     <use xlink:href="#DejaVuSans-6f" x="132.861328"/>
     <use xlink:href="#DejaVuSans-20" x="194.042969"/>
     <use xlink:href="#DejaVuSans-3d" x="225.830078"/>
     <use xlink:href="#DejaVuSans-20" x="309.619141"/>
     <use xlink:href="#DejaVuSans-30" x="341.40625"/>
     <use xlink:href="#DejaVuSans-2e" x="405.029297"/>
     <use xlink:href="#DejaVuSans-34" x="436.816406"/>
    </g>
   </g>
   <g id="text_13">
    <!-- CNR_change = 1 -->
    <g transform="translate(113.008999 14.798437) scale(0.1 -0.1)">
     <defs>
      <path id="DejaVuSans-43" d="M 4122 4306 
L 4122 3641 
Q 3803 3938 3442 4084 
Q 3081 4231 2675 4231 
Q 1875 4231 1450 3742 
Q 1025 3253 1025 2328 
Q 1025 1406 1450 917 
Q 1875 428 2675 428 
Q 3081 428 3442 575 
Q 3803 722 4122 1019 
L 4122 359 
Q 3791 134 3420 21 
Q 3050 -91 2638 -91 
Q 1578 -91 968 557 
Q 359 1206 359 2328 
Q 359 3453 968 4101 
Q 1578 4750 2638 4750 
Q 3056 4750 3426 4639 
Q 3797 4528 4122 4306 
z
" transform="scale(0.015625)"/>
      <path id="DejaVuSans-4e" d="M 628 4666 
L 1478 4666 
L 3547 763 
L 3547 4666 
L 4159 4666 
L 4159 0 
L 3309 0 
L 1241 3903 
L 1241 0 
L 628 0 
L 628 4666 
z
" transform="scale(0.015625)"/>
      <path id="DejaVuSans-5f" d="M 3263 -1063 
L 3263 -1509 
L -63 -1509 
L -63 -1063 
L 3263 -1063 
z
" transform="scale(0.015625)"/>
      <path id="DejaVuSans-6e" d="M 3513 2113 
L 3513 0 
L 2938 0 
L 2938 2094 
Q 2938 2591 2744 2837 
Q 2550 3084 2163 3084 
Q 1697 3084 1428 2787 
Q 1159 2491 1159 1978 
L 1159 0 
L 581 0 
L 581 3500 
L 1159 3500 
L 1159 2956 
Q 1366 3272 1645 3428 
Q 1925 3584 2291 3584 
Q 2894 3584 3203 3211 
Q 3513 2838 3513 2113 
z
" transform="scale(0.015625)"/>
      <path id="DejaVuSans-67" d="M 2906 1791 
Q 2906 2416 2648 2759 
Q 2391 3103 1925 3103 
Q 1463 3103 1205 2759 
Q 947 2416 947 1791 
Q 947 1169 1205 825 
Q 1463 481 1925 481 
Q 2391 481 2648 825 
Q 2906 1169 2906 1791 
z
M 3481 434 
Q 3481 -459 3084 -895 
Q 2688 -1331 1869 -1331 
Q 1566 -1331 1297 -1286 
Q 1028 -1241 775 -1147 
L 775 -588 
Q 1028 -725 1275 -790 
Q 1522 -856 1778 -856 
Q 2344 -856 2625 -561 
Q 2906 -266 2906 331 
L 2906 616 
Q 2728 306 2450 153 
Q 2172 0 1784 0 
Q 1141 0 747 490 
Q 353 981 353 1791 
Q 353 2603 747 3093 
Q 1141 3584 1784 3584 
Q 2172 3584 2450 3431 
Q 2728 3278 2906 2969 
L 2906 3500 
L 3481 3500 
L 3481 434 
z
" transform="scale(0.015625)"/>
     </defs>
     <use xlink:href="#DejaVuSans-43"/>
     <use xlink:href="#DejaVuSans-4e" x="69.824219"/>
     <use xlink:href="#DejaVuSans-52" x="144.628906"/>
     <use xlink:href="#DejaVuSans-5f" x="214.111328"/>
     <use xlink:href="#DejaVuSans-63" x="264.111328"/>
     <use xlink:href="#DejaVuSans-68" x="319.091797"/>
     <use xlink:href="#DejaVuSans-61" x="382.470703"/>
     <use xlink:href="#DejaVuSans-6e" x="443.75"/>
     <use xlink:href="#DejaVuSans-67" x="507.128906"/>
     <use xlink:href="#DejaVuSans-65" x="570.605469"/>
     <use xlink:href="#DejaVuSans-20" x="632.128906"/>
     <use xlink:href="#DejaVuSans-3d" x="663.916016"/>
     <use xlink:href="#DejaVuSans-20" x="747.705078"/>
     <use xlink:href="#DejaVuSans-31" x="779.492188"/>
    </g>
   </g>
  </g>
  <g id="legend_1"/>
 </g>
 <defs>
  <clipPath id="p6bc7163a44">
   <rect x="43.78125" y="20.798437" width="222.769561" height="221.32"/>
  </clipPath>
 </defs>
</svg>
