<?xml version="1.0" encoding="utf-8" standalone="no"?>
<!DOCTYPE svg PUBLIC "-//W3C//DTD SVG 1.1//EN"
  "http://www.w3.org/Graphics/SVG/1.1/DTD/svg11.dtd">
<svg xmlns:xlink="http://www.w3.org/1999/xlink" width="294.17125pt" height="279.674688pt" viewBox="0 0 294.17125 279.674688" xmlns="http://www.w3.org/2000/svg" version="1.1">
 <metadata>
  <rdf:RDF xmlns:dc="http://purl.org/dc/elements/1.1/" xmlns:cc="http://creativecommons.org/ns#" xmlns:rdf="http://www.w3.org/1999/02/22-rdf-syntax-ns#">
   <cc:Work>
    <dc:type rdf:resource="http://purl.org/dc/dcmitype/StillImage"/>
    <dc:date>2025-08-26T09:12:47.053453</dc:date>
    <dc:format>image/svg+xml</dc:format>
    <dc:creator>
     <cc:Agent>
      <dc:title>Matplotlib v3.8.4, https://matplotlib.org/</dc:title>
     </cc:Agent>
    </dc:creator>
   </cc:Work>
  </rdf:RDF>
 </metadata>
 <defs>
  <style type="text/css">*{stroke-linejoin: round; stroke-linecap: butt}</style>
 </defs>
 <g id="figure_1">
  <g id="patch_1">
   <path d="M 0 279.674688 
L 294.17125 279.674688 
L 294.17125 0 
L 0 0 
z
" style="fill: #ffffff"/>
  </g>
  <g id="axes_1">
   <g id="patch_2">
    <path d="M 43.78125 242.118437 
L 266.550811 242.118437 
L 266.550811 20.798437 
L 43.78125 20.798437 
z
" style="fill: #ffffff"/>
   </g>
   <g id="PolyCollection_1">
    <defs>
     <path id="m71db87b80b" d="M 81.60347 -110.995125 
L 80.21555 -110.995125 
L 80.034812 -111.791778 
L 79.818041 -112.588431 
L 79.561122 -113.385084 
L 79.26025 -114.181737 
L 78.912148 -114.97839 
L 78.514319 -115.775043 
L 78.065289 -116.571696 
L 77.564854 -117.368349 
L 77.014299 -118.165002 
L 76.416576 -118.961655 
L 75.776422 -119.758308 
L 75.100401 -120.554961 
L 74.396859 -121.351614 
L 73.675773 -122.148267 
L 72.948507 -122.94492 
L 72.227461 -123.741573 
L 71.525632 -124.538226 
L 70.856102 -125.334879 
L 70.231473 -126.131532 
L 69.663283 -126.928186 
L 69.161423 -127.724839 
L 68.733602 -128.521492 
L 68.384879 -129.318145 
L 68.117291 -130.114798 
L 67.929615 -130.911451 
L 67.817256 -131.708104 
L 67.772291 -132.504757 
L 67.783655 -133.30141 
L 67.83747 -134.098063 
L 67.917499 -134.894716 
L 68.005697 -135.691369 
L 68.082852 -136.488022 
L 68.129273 -137.284675 
L 68.125502 -138.081328 
L 68.053036 -138.877981 
L 67.895018 -139.674634 
L 67.636898 -140.471287 
L 67.267029 -141.26794 
L 66.777194 -142.064593 
L 66.163053 -142.861246 
L 65.424486 -143.657899 
L 64.565835 -144.454552 
L 63.596019 -145.251205 
L 62.528518 -146.047858 
L 61.381203 -146.844511 
L 60.176008 -147.641164 
L 58.938428 -148.437817 
L 57.696856 -149.23447 
L 56.481749 -150.031123 
L 55.324649 -150.827777 
L 54.257094 -151.62443 
L 53.309451 -152.421083 
L 52.50973 -153.217736 
L 51.882437 -154.014389 
L 51.447527 -154.811042 
L 51.219531 -155.607695 
L 51.206902 -156.404348 
L 51.411641 -157.201001 
L 51.829219 -157.997654 
L 52.448819 -158.794307 
L 53.253887 -159.59096 
L 54.222956 -160.387613 
L 55.330699 -161.184266 
L 56.549152 -161.980919 
L 57.849007 -162.777572 
L 59.200927 -163.574225 
L 60.57678 -164.370878 
L 61.950722 -165.167531 
L 63.300087 -165.964184 
L 64.60602 -166.760837 
L 65.853851 -167.55749 
L 67.03319 -168.354143 
L 68.137783 -169.150796 
L 69.16514 -169.947449 
L 70.115998 -170.744102 
L 70.993671 -171.540755 
L 71.803339 -172.337408 
L 72.551335 -173.134061 
L 73.244487 -173.930714 
L 73.889538 -174.727368 
L 74.492685 -175.524021 
L 75.059255 -176.320674 
L 75.593507 -177.117327 
L 76.098562 -177.91398 
L 76.576446 -178.710633 
L 77.028218 -179.507286 
L 77.454158 -180.303939 
L 77.853992 -181.100592 
L 78.227121 -181.897245 
L 78.572844 -182.693898 
L 78.890549 -183.490551 
L 79.179864 -184.287204 
L 79.440761 -185.083857 
L 79.673617 -185.88051 
L 79.879231 -186.677163 
L 80.058798 -187.473816 
L 80.213863 -188.270469 
L 80.346249 -189.067122 
L 80.457977 -189.863775 
L 81.361043 -189.863775 
L 81.361043 -189.863775 
L 81.472772 -189.067122 
L 81.605158 -188.270469 
L 81.760222 -187.473816 
L 81.939789 -186.677163 
L 82.145403 -185.88051 
L 82.37826 -185.083857 
L 82.639157 -184.287204 
L 82.928471 -183.490551 
L 83.246176 -182.693898 
L 83.5919 -181.897245 
L 83.965029 -181.100592 
L 84.364862 -180.303939 
L 84.790803 -179.507286 
L 85.242575 -178.710633 
L 85.720459 -177.91398 
L 86.225513 -177.117327 
L 86.759765 -176.320674 
L 87.326335 -175.524021 
L 87.929483 -174.727368 
L 88.574533 -173.930714 
L 89.267685 -173.134061 
L 90.015682 -172.337408 
L 90.825349 -171.540755 
L 91.703023 -170.744102 
L 92.653881 -169.947449 
L 93.681237 -169.150796 
L 94.78583 -168.354143 
L 95.96517 -167.55749 
L 97.213 -166.760837 
L 98.518934 -165.964184 
L 99.868298 -165.167531 
L 101.242241 -164.370878 
L 102.618093 -163.574225 
L 103.970014 -162.777572 
L 105.269869 -161.980919 
L 106.488321 -161.184266 
L 107.596065 -160.387613 
L 108.565133 -159.59096 
L 109.370201 -158.794307 
L 109.989801 -157.997654 
L 110.407379 -157.201001 
L 110.612118 -156.404348 
L 110.59949 -155.607695 
L 110.371493 -154.811042 
L 109.936583 -154.014389 
L 109.30929 -153.217736 
L 108.50957 -152.421083 
L 107.561927 -151.62443 
L 106.494372 -150.827777 
L 105.337271 -150.031123 
L 104.122164 -149.23447 
L 102.880592 -148.437817 
L 101.643013 -147.641164 
L 100.437817 -146.844511 
L 99.290502 -146.047858 
L 98.223002 -145.251205 
L 97.253186 -144.454552 
L 96.394534 -143.657899 
L 95.655967 -142.861246 
L 95.041826 -142.064593 
L 94.551992 -141.26794 
L 94.182123 -140.471287 
L 93.924003 -139.674634 
L 93.765985 -138.877981 
L 93.693518 -138.081328 
L 93.689747 -137.284675 
L 93.736168 -136.488022 
L 93.813324 -135.691369 
L 93.901522 -134.894716 
L 93.98155 -134.098063 
L 94.035365 -133.30141 
L 94.046729 -132.504757 
L 94.001764 -131.708104 
L 93.889405 -130.911451 
L 93.701729 -130.114798 
L 93.434142 -129.318145 
L 93.085418 -128.521492 
L 92.657597 -127.724839 
L 92.155738 -126.928186 
L 91.587547 -126.131532 
L 90.962919 -125.334879 
L 90.293388 -124.538226 
L 89.59156 -123.741573 
L 88.870514 -122.94492 
L 88.143248 -122.148267 
L 87.422162 -121.351614 
L 86.718619 -120.554961 
L 86.042598 -119.758308 
L 85.402444 -118.961655 
L 84.804721 -118.165002 
L 84.254167 -117.368349 
L 83.753732 -116.571696 
L 83.304702 -115.775043 
L 82.906872 -114.97839 
L 82.558771 -114.181737 
L 82.257898 -113.385084 
L 82.000979 -112.588431 
L 81.784208 -111.791778 
L 81.60347 -110.995125 
z
" style="stroke: #595959; stroke-width: 1.25"/>
    </defs>
    <g clip-path="url(#p768185b131)">
     <use xlink:href="#m71db87b80b" x="0" y="279.674688" style="fill: #72b6a1; stroke: #595959; stroke-width: 1.25"/>
    </g>
   </g>
   <g id="PolyCollection_2">
    <defs>
     <path id="m7fa1fa82be" d="M 155.809802 -119.455781 
L 154.522259 -119.455781 
L 154.344089 -120.081512 
L 154.128389 -120.707242 
L 153.870612 -121.332973 
L 153.566493 -121.958704 
L 153.21226 -122.584435 
L 152.804845 -123.210165 
L 152.342085 -123.835896 
L 151.822883 -124.461627 
L 151.247324 -125.087357 
L 150.616718 -125.713088 
L 149.93357 -126.338819 
L 149.20147 -126.964549 
L 148.424908 -127.59028 
L 147.609019 -128.216011 
L 146.759299 -128.841741 
L 145.881296 -129.467472 
L 144.980323 -130.093203 
L 144.06121 -130.718933 
L 143.12814 -131.344664 
L 142.184568 -131.970395 
L 141.23324 -132.596125 
L 140.276315 -133.221856 
L 139.315562 -133.847587 
L 138.35262 -134.473318 
L 137.389268 -135.099048 
L 136.427701 -135.724779 
L 135.470748 -136.35051 
L 134.522025 -136.97624 
L 133.586008 -137.601971 
L 132.668012 -138.227702 
L 131.774098 -138.853432 
L 130.910921 -139.479163 
L 130.085548 -140.104894 
L 129.30527 -140.730624 
L 128.577439 -141.356355 
L 127.90933 -141.982086 
L 127.308047 -142.607816 
L 126.780459 -143.233547 
L 126.333144 -143.859278 
L 125.972327 -144.485008 
L 125.703784 -145.110739 
L 125.532692 -145.73647 
L 125.463422 -146.362201 
L 125.499285 -146.987931 
L 125.642231 -147.613662 
L 125.892568 -148.239393 
L 126.248705 -148.865123 
L 126.706992 -149.490854 
L 127.261671 -150.116585 
L 127.904981 -150.742315 
L 128.627407 -151.368046 
L 129.418076 -151.993777 
L 130.26526 -152.619507 
L 131.156937 -153.245238 
L 132.081365 -153.870969 
L 133.0276 -154.496699 
L 133.985902 -155.12243 
L 134.948007 -155.748161 
L 135.907228 -156.373892 
L 136.858393 -156.999622 
L 137.797633 -157.625353 
L 138.722074 -158.251084 
L 139.629459 -158.876814 
L 140.517783 -159.502545 
L 141.384964 -160.128276 
L 142.228617 -160.754006 
L 143.04594 -161.379737 
L 143.833741 -162.005468 
L 144.588582 -162.631198 
L 145.307022 -163.256929 
L 145.985929 -163.88266 
L 146.622801 -164.50839 
L 147.216068 -165.134121 
L 147.765317 -165.759852 
L 148.271424 -166.385582 
L 148.736555 -167.011313 
L 149.164062 -167.637044 
L 149.558249 -168.262775 
L 149.924063 -168.888505 
L 150.266727 -169.514236 
L 150.591359 -170.139967 
L 150.902611 -170.765697 
L 151.204373 -171.391428 
L 151.499553 -172.017159 
L 151.789958 -172.642889 
L 152.076282 -173.26862 
L 152.358185 -173.894351 
L 152.634454 -174.520081 
L 152.903228 -175.145812 
L 153.16224 -175.771543 
L 153.409079 -176.397273 
L 153.641427 -177.023004 
L 153.857256 -177.648735 
L 154.054983 -178.274465 
L 154.233561 -178.900196 
L 154.39252 -179.525927 
L 154.531956 -180.151658 
L 154.652478 -180.777388 
L 154.755126 -181.403119 
L 155.576935 -181.403119 
L 155.576935 -181.403119 
L 155.679583 -180.777388 
L 155.800105 -180.151658 
L 155.939541 -179.525927 
L 156.0985 -178.900196 
L 156.277078 -178.274465 
L 156.474805 -177.648735 
L 156.690635 -177.023004 
L 156.922982 -176.397273 
L 157.169821 -175.771543 
L 157.428833 -175.145812 
L 157.697607 -174.520081 
L 157.973876 -173.894351 
L 158.255779 -173.26862 
L 158.542103 -172.642889 
L 158.832508 -172.017159 
L 159.127688 -171.391428 
L 159.42945 -170.765697 
L 159.740702 -170.139967 
L 160.065334 -169.514236 
L 160.407998 -168.888505 
L 160.773812 -168.262775 
L 161.167999 -167.637044 
L 161.595506 -167.011313 
L 162.060638 -166.385582 
L 162.566744 -165.759852 
L 163.115993 -165.134121 
L 163.70926 -164.50839 
L 164.346133 -163.88266 
L 165.025039 -163.256929 
L 165.74348 -162.631198 
L 166.49832 -162.005468 
L 167.286121 -161.379737 
L 168.103444 -160.754006 
L 168.947097 -160.128276 
L 169.814278 -159.502545 
L 170.702602 -158.876814 
L 171.609987 -158.251084 
L 172.534428 -157.625353 
L 173.473668 -156.999622 
L 174.424833 -156.373892 
L 175.384054 -155.748161 
L 176.34616 -155.12243 
L 177.304461 -154.496699 
L 178.250696 -153.870969 
L 179.175124 -153.245238 
L 180.066801 -152.619507 
L 180.913985 -151.993777 
L 181.704654 -151.368046 
L 182.42708 -150.742315 
L 183.07039 -150.116585 
L 183.625069 -149.490854 
L 184.083356 -148.865123 
L 184.439493 -148.239393 
L 184.68983 -147.613662 
L 184.832776 -146.987931 
L 184.868639 -146.362201 
L 184.79937 -145.73647 
L 184.628277 -145.110739 
L 184.359734 -144.485008 
L 183.998917 -143.859278 
L 183.551602 -143.233547 
L 183.024014 -142.607816 
L 182.422732 -141.982086 
L 181.754622 -141.356355 
L 181.026791 -140.730624 
L 180.246513 -140.104894 
L 179.42114 -139.479163 
L 178.557963 -138.853432 
L 177.664049 -138.227702 
L 176.746053 -137.601971 
L 175.810036 -136.97624 
L 174.861314 -136.35051 
L 173.90436 -135.724779 
L 172.942793 -135.099048 
L 171.979441 -134.473318 
L 171.016499 -133.847587 
L 170.055747 -133.221856 
L 169.098821 -132.596125 
L 168.147493 -131.970395 
L 167.203921 -131.344664 
L 166.270851 -130.718933 
L 165.351738 -130.093203 
L 164.450765 -129.467472 
L 163.572762 -128.841741 
L 162.723042 -128.216011 
L 161.907154 -127.59028 
L 161.130591 -126.964549 
L 160.398491 -126.338819 
L 159.715344 -125.713088 
L 159.084737 -125.087357 
L 158.509178 -124.461627 
L 157.989976 -123.835896 
L 157.527216 -123.210165 
L 157.119801 -122.584435 
L 156.765568 -121.958704 
L 156.46145 -121.332973 
L 156.203673 -120.707242 
L 155.987972 -120.081512 
L 155.809802 -119.455781 
z
" style="stroke: #595959; stroke-width: 1.25"/>
    </defs>
    <g clip-path="url(#p768185b131)">
     <use xlink:href="#m7fa1fa82be" x="0" y="279.674688" style="fill: #e99675; stroke: #595959; stroke-width: 1.25"/>
    </g>
   </g>
   <g id="PolyCollection_3">
    <defs>
     <path id="m5459155fc8" d="M 229.960545 -154.853621 
L 228.884557 -154.853621 
L 228.73451 -155.501977 
L 228.553633 -156.150333 
L 228.338823 -156.798689 
L 228.087511 -157.447045 
L 227.797876 -158.095402 
L 227.469052 -158.743758 
L 227.101288 -159.392114 
L 226.696051 -160.04047 
L 226.256032 -160.688826 
L 225.785059 -161.337182 
L 225.287884 -161.985538 
L 224.769863 -162.633895 
L 224.23652 -163.282251 
L 223.693043 -163.930607 
L 223.143728 -164.578963 
L 222.591435 -165.227319 
L 222.037095 -165.875675 
L 221.479341 -166.524031 
L 220.914306 -167.172388 
L 220.335634 -167.820744 
L 219.734734 -168.4691 
L 219.101288 -169.117456 
L 218.423985 -169.765812 
L 217.691461 -170.414168 
L 216.893362 -171.062524 
L 216.021463 -171.710881 
L 215.070723 -172.359237 
L 214.040208 -173.007593 
L 212.933752 -173.655949 
L 211.760301 -174.304305 
L 210.533878 -174.952661 
L 209.273142 -175.601017 
L 208.000581 -176.249374 
L 206.741372 -176.89773 
L 205.522024 -177.546086 
L 204.368903 -178.194442 
L 203.306788 -178.842798 
L 202.357581 -179.491154 
L 201.539293 -180.13951 
L 200.865379 -180.787867 
L 200.34449 -181.436223 
L 199.98062 -182.084579 
L 199.773613 -182.732935 
L 199.719943 -183.381291 
L 199.813649 -184.029647 
L 200.047302 -184.678003 
L 200.412869 -185.32636 
L 200.902391 -185.974716 
L 201.508378 -186.623072 
L 202.223906 -187.271428 
L 203.042427 -187.919784 
L 203.957347 -188.56814 
L 204.961456 -189.216497 
L 206.046321 -189.864853 
L 207.20175 -190.513209 
L 208.415419 -191.161565 
L 209.672753 -191.809921 
L 210.957071 -192.458277 
L 212.250032 -193.106633 
L 213.532311 -193.75499 
L 214.784465 -194.403346 
L 215.987889 -195.051702 
L 217.125755 -195.700058 
L 218.183872 -196.348414 
L 219.151348 -196.99677 
L 220.021032 -197.645126 
L 220.789692 -198.293483 
L 221.457935 -198.941839 
L 222.029885 -199.590195 
L 222.512689 -200.238551 
L 222.915878 -200.886907 
L 223.250666 -201.535263 
L 223.529238 -202.183619 
L 223.764073 -202.831976 
L 223.967347 -203.480332 
L 224.150427 -204.128688 
L 224.323478 -204.777044 
L 224.49518 -205.4254 
L 224.672547 -206.073756 
L 224.860833 -206.722112 
L 225.063531 -207.370469 
L 225.282431 -208.018825 
L 225.51774 -208.667181 
L 225.768262 -209.315537 
L 226.031609 -209.963893 
L 226.30445 -210.612249 
L 226.582785 -211.260605 
L 226.862226 -211.908962 
L 227.138275 -212.557318 
L 227.406579 -213.205674 
L 227.663166 -213.85403 
L 227.904621 -214.502386 
L 228.128223 -215.150742 
L 228.33202 -215.799098 
L 228.514848 -216.447455 
L 228.676307 -217.095811 
L 228.816682 -217.744167 
L 228.936845 -218.392523 
L 229.038126 -219.040879 
L 229.806975 -219.040879 
L 229.806975 -219.040879 
L 229.908257 -218.392523 
L 230.028419 -217.744167 
L 230.168794 -217.095811 
L 230.330253 -216.447455 
L 230.513082 -215.799098 
L 230.716879 -215.150742 
L 230.940481 -214.502386 
L 231.181936 -213.85403 
L 231.438523 -213.205674 
L 231.706827 -212.557318 
L 231.982875 -211.908962 
L 232.262317 -211.260605 
L 232.540652 -210.612249 
L 232.813493 -209.963893 
L 233.076839 -209.315537 
L 233.327362 -208.667181 
L 233.562671 -208.018825 
L 233.78157 -207.370469 
L 233.984269 -206.722112 
L 234.172555 -206.073756 
L 234.349922 -205.4254 
L 234.521624 -204.777044 
L 234.694675 -204.128688 
L 234.877755 -203.480332 
L 235.081028 -202.831976 
L 235.315864 -202.183619 
L 235.594436 -201.535263 
L 235.929224 -200.886907 
L 236.332413 -200.238551 
L 236.815217 -199.590195 
L 237.387167 -198.941839 
L 238.05541 -198.293483 
L 238.82407 -197.645126 
L 239.693754 -196.99677 
L 240.66123 -196.348414 
L 241.719347 -195.700058 
L 242.857213 -195.051702 
L 244.060636 -194.403346 
L 245.312791 -193.75499 
L 246.59507 -193.106633 
L 247.888031 -192.458277 
L 249.172349 -191.809921 
L 250.429683 -191.161565 
L 251.643352 -190.513209 
L 252.798781 -189.864853 
L 253.883646 -189.216497 
L 254.887755 -188.56814 
L 255.802674 -187.919784 
L 256.621196 -187.271428 
L 257.336724 -186.623072 
L 257.942711 -185.974716 
L 258.432233 -185.32636 
L 258.7978 -184.678003 
L 259.031452 -184.029647 
L 259.125159 -183.381291 
L 259.071489 -182.732935 
L 258.864482 -182.084579 
L 258.500612 -181.436223 
L 257.979723 -180.787867 
L 257.305809 -180.13951 
L 256.48752 -179.491154 
L 255.538314 -178.842798 
L 254.476199 -178.194442 
L 253.323078 -177.546086 
L 252.103729 -176.89773 
L 250.844521 -176.249374 
L 249.57196 -175.601017 
L 248.311224 -174.952661 
L 247.0848 -174.304305 
L 245.91135 -173.655949 
L 244.804894 -173.007593 
L 243.774379 -172.359237 
L 242.823639 -171.710881 
L 241.951739 -171.062524 
L 241.153641 -170.414168 
L 240.421117 -169.765812 
L 239.743814 -169.117456 
L 239.110367 -168.4691 
L 238.509468 -167.820744 
L 237.930796 -167.172388 
L 237.365761 -166.524031 
L 236.808007 -165.875675 
L 236.253667 -165.227319 
L 235.701373 -164.578963 
L 235.152059 -163.930607 
L 234.608582 -163.282251 
L 234.075239 -162.633895 
L 233.557217 -161.985538 
L 233.060043 -161.337182 
L 232.58907 -160.688826 
L 232.149051 -160.04047 
L 231.743813 -159.392114 
L 231.37605 -158.743758 
L 231.047226 -158.095402 
L 230.757591 -157.447045 
L 230.506278 -156.798689 
L 230.291469 -156.150333 
L 230.110591 -155.501977 
L 229.960545 -154.853621 
z
" style="stroke: #595959; stroke-width: 1.25"/>
    </defs>
    <g clip-path="url(#p768185b131)">
     <use xlink:href="#m5459155fc8" x="0" y="279.674688" style="fill: #95a3c3; stroke: #595959; stroke-width: 1.25"/>
    </g>
   </g>
   <g id="matplotlib.axis_1">
    <g id="xtick_1">
     <g id="line2d_1">
      <defs>
       <path id="m029cae18b0" d="M 0 0 
L 0 3.5 
" style="stroke: #000000; stroke-width: 0.8"/>
      </defs>
      <g>
       <use xlink:href="#m029cae18b0" x="80.90951" y="242.118437" style="stroke: #000000; stroke-width: 0.8"/>
      </g>
     </g>
     <g id="text_1">
      <!-- Deep -->
      <g transform="translate(67.732166 256.716875) scale(0.1 -0.1)">
       <defs>
        <path id="DejaVuSans-44" d="M 1259 4147 
L 1259 519 
L 2022 519 
Q 2988 519 3436 956 
Q 3884 1394 3884 2338 
Q 3884 3275 3436 3711 
Q 2988 4147 2022 4147 
L 1259 4147 
z
M 628 4666 
L 1925 4666 
Q 3281 4666 3915 4102 
Q 4550 3538 4550 2338 
Q 4550 1131 3912 565 
Q 3275 0 1925 0 
L 628 0 
L 628 4666 
z
" transform="scale(0.015625)"/>
        <path id="DejaVuSans-65" d="M 3597 1894 
L 3597 1613 
L 953 1613 
Q 991 1019 1311 708 
Q 1631 397 2203 397 
Q 2534 397 2845 478 
Q 3156 559 3463 722 
L 3463 178 
Q 3153 47 2828 -22 
Q 2503 -91 2169 -91 
Q 1331 -91 842 396 
Q 353 884 353 1716 
Q 353 2575 817 3079 
Q 1281 3584 2069 3584 
Q 2775 3584 3186 3129 
Q 3597 2675 3597 1894 
z
M 3022 2063 
Q 3016 2534 2758 2815 
Q 2500 3097 2075 3097 
Q 1594 3097 1305 2825 
Q 1016 2553 972 2059 
L 3022 2063 
z
" transform="scale(0.015625)"/>
        <path id="DejaVuSans-70" d="M 1159 525 
L 1159 -1331 
L 581 -1331 
L 581 3500 
L 1159 3500 
L 1159 2969 
Q 1341 3281 1617 3432 
Q 1894 3584 2278 3584 
Q 2916 3584 3314 3078 
Q 3713 2572 3713 1747 
Q 3713 922 3314 415 
Q 2916 -91 2278 -91 
Q 1894 -91 1617 61 
Q 1341 213 1159 525 
z
M 3116 1747 
Q 3116 2381 2855 2742 
Q 2594 3103 2138 3103 
Q 1681 3103 1420 2742 
Q 1159 2381 1159 1747 
Q 1159 1113 1420 752 
Q 1681 391 2138 391 
Q 2594 391 2855 752 
Q 3116 1113 3116 1747 
z
" transform="scale(0.015625)"/>
       </defs>
       <use xlink:href="#DejaVuSans-44"/>
       <use xlink:href="#DejaVuSans-65" x="77.001953"/>
       <use xlink:href="#DejaVuSans-65" x="138.525391"/>
       <use xlink:href="#DejaVuSans-70" x="200.048828"/>
      </g>
     </g>
    </g>
    <g id="xtick_2">
     <g id="line2d_2">
      <g>
       <use xlink:href="#m029cae18b0" x="155.166031" y="242.118437" style="stroke: #000000; stroke-width: 0.8"/>
      </g>
     </g>
     <g id="text_2">
      <!-- Middle -->
      <g transform="translate(138.648843 256.716875) scale(0.1 -0.1)">
       <defs>
        <path id="DejaVuSans-4d" d="M 628 4666 
L 1569 4666 
L 2759 1491 
L 3956 4666 
L 4897 4666 
L 4897 0 
L 4281 0 
L 4281 4097 
L 3078 897 
L 2444 897 
L 1241 4097 
L 1241 0 
L 628 0 
L 628 4666 
z
" transform="scale(0.015625)"/>
        <path id="DejaVuSans-69" d="M 603 3500 
L 1178 3500 
L 1178 0 
L 603 0 
L 603 3500 
z
M 603 4863 
L 1178 4863 
L 1178 4134 
L 603 4134 
L 603 4863 
z
" transform="scale(0.015625)"/>
        <path id="DejaVuSans-64" d="M 2906 2969 
L 2906 4863 
L 3481 4863 
L 3481 0 
L 2906 0 
L 2906 525 
Q 2725 213 2448 61 
Q 2172 -91 1784 -91 
Q 1150 -91 751 415 
Q 353 922 353 1747 
Q 353 2572 751 3078 
Q 1150 3584 1784 3584 
Q 2172 3584 2448 3432 
Q 2725 3281 2906 2969 
z
M 947 1747 
Q 947 1113 1208 752 
Q 1469 391 1925 391 
Q 2381 391 2643 752 
Q 2906 1113 2906 1747 
Q 2906 2381 2643 2742 
Q 2381 3103 1925 3103 
Q 1469 3103 1208 2742 
Q 947 2381 947 1747 
z
" transform="scale(0.015625)"/>
        <path id="DejaVuSans-6c" d="M 603 4863 
L 1178 4863 
L 1178 0 
L 603 0 
L 603 4863 
z
" transform="scale(0.015625)"/>
       </defs>
       <use xlink:href="#DejaVuSans-4d"/>
       <use xlink:href="#DejaVuSans-69" x="86.279297"/>
       <use xlink:href="#DejaVuSans-64" x="114.0625"/>
       <use xlink:href="#DejaVuSans-64" x="177.539062"/>
       <use xlink:href="#DejaVuSans-6c" x="241.015625"/>
       <use xlink:href="#DejaVuSans-65" x="268.798828"/>
      </g>
     </g>
    </g>
    <g id="xtick_3">
     <g id="line2d_3">
      <g>
       <use xlink:href="#m029cae18b0" x="229.422551" y="242.118437" style="stroke: #000000; stroke-width: 0.8"/>
      </g>
     </g>
     <g id="text_3">
      <!-- Superficial -->
      <g transform="translate(203.032707 256.716875) scale(0.1 -0.1)">
       <defs>
        <path id="DejaVuSans-53" d="M 3425 4513 
L 3425 3897 
Q 3066 4069 2747 4153 
Q 2428 4238 2131 4238 
Q 1616 4238 1336 4038 
Q 1056 3838 1056 3469 
Q 1056 3159 1242 3001 
Q 1428 2844 1947 2747 
L 2328 2669 
Q 3034 2534 3370 2195 
Q 3706 1856 3706 1288 
Q 3706 609 3251 259 
Q 2797 -91 1919 -91 
Q 1588 -91 1214 -16 
Q 841 59 441 206 
L 441 856 
Q 825 641 1194 531 
Q 1563 422 1919 422 
Q 2459 422 2753 634 
Q 3047 847 3047 1241 
Q 3047 1584 2836 1778 
Q 2625 1972 2144 2069 
L 1759 2144 
Q 1053 2284 737 2584 
Q 422 2884 422 3419 
Q 422 4038 858 4394 
Q 1294 4750 2059 4750 
Q 2388 4750 2728 4690 
Q 3069 4631 3425 4513 
z
" transform="scale(0.015625)"/>
        <path id="DejaVuSans-75" d="M 544 1381 
L 544 3500 
L 1119 3500 
L 1119 1403 
Q 1119 906 1312 657 
Q 1506 409 1894 409 
Q 2359 409 2629 706 
Q 2900 1003 2900 1516 
L 2900 3500 
L 3475 3500 
L 3475 0 
L 2900 0 
L 2900 538 
Q 2691 219 2414 64 
Q 2138 -91 1772 -91 
Q 1169 -91 856 284 
Q 544 659 544 1381 
z
M 1991 3584 
L 1991 3584 
z
" transform="scale(0.015625)"/>
        <path id="DejaVuSans-72" d="M 2631 2963 
Q 2534 3019 2420 3045 
Q 2306 3072 2169 3072 
Q 1681 3072 1420 2755 
Q 1159 2438 1159 1844 
L 1159 0 
L 581 0 
L 581 3500 
L 1159 3500 
L 1159 2956 
Q 1341 3275 1631 3429 
Q 1922 3584 2338 3584 
Q 2397 3584 2469 3576 
Q 2541 3569 2628 3553 
L 2631 2963 
z
" transform="scale(0.015625)"/>
        <path id="DejaVuSans-66" d="M 2375 4863 
L 2375 4384 
L 1825 4384 
Q 1516 4384 1395 4259 
Q 1275 4134 1275 3809 
L 1275 3500 
L 2222 3500 
L 2222 3053 
L 1275 3053 
L 1275 0 
L 697 0 
L 697 3053 
L 147 3053 
L 147 3500 
L 697 3500 
L 697 3744 
Q 697 4328 969 4595 
Q 1241 4863 1831 4863 
L 2375 4863 
z
" transform="scale(0.015625)"/>
        <path id="DejaVuSans-63" d="M 3122 3366 
L 3122 2828 
Q 2878 2963 2633 3030 
Q 2388 3097 2138 3097 
Q 1578 3097 1268 2742 
Q 959 2388 959 1747 
Q 959 1106 1268 751 
Q 1578 397 2138 397 
Q 2388 397 2633 464 
Q 2878 531 3122 666 
L 3122 134 
Q 2881 22 2623 -34 
Q 2366 -91 2075 -91 
Q 1284 -91 818 406 
Q 353 903 353 1747 
Q 353 2603 823 3093 
Q 1294 3584 2113 3584 
Q 2378 3584 2631 3529 
Q 2884 3475 3122 3366 
z
" transform="scale(0.015625)"/>
        <path id="DejaVuSans-61" d="M 2194 1759 
Q 1497 1759 1228 1600 
Q 959 1441 959 1056 
Q 959 750 1161 570 
Q 1363 391 1709 391 
Q 2188 391 2477 730 
Q 2766 1069 2766 1631 
L 2766 1759 
L 2194 1759 
z
M 3341 1997 
L 3341 0 
L 2766 0 
L 2766 531 
Q 2569 213 2275 61 
Q 1981 -91 1556 -91 
Q 1019 -91 701 211 
Q 384 513 384 1019 
Q 384 1609 779 1909 
Q 1175 2209 1959 2209 
L 2766 2209 
L 2766 2266 
Q 2766 2663 2505 2880 
Q 2244 3097 1772 3097 
Q 1472 3097 1187 3025 
Q 903 2953 641 2809 
L 641 3341 
Q 956 3463 1253 3523 
Q 1550 3584 1831 3584 
Q 2591 3584 2966 3190 
Q 3341 2797 3341 1997 
z
" transform="scale(0.015625)"/>
       </defs>
       <use xlink:href="#DejaVuSans-53"/>
       <use xlink:href="#DejaVuSans-75" x="63.476562"/>
       <use xlink:href="#DejaVuSans-70" x="126.855469"/>
       <use xlink:href="#DejaVuSans-65" x="190.332031"/>
       <use xlink:href="#DejaVuSans-72" x="251.855469"/>
       <use xlink:href="#DejaVuSans-66" x="292.96875"/>
       <use xlink:href="#DejaVuSans-69" x="328.173828"/>
       <use xlink:href="#DejaVuSans-63" x="355.957031"/>
       <use xlink:href="#DejaVuSans-69" x="410.9375"/>
       <use xlink:href="#DejaVuSans-61" x="438.720703"/>
       <use xlink:href="#DejaVuSans-6c" x="500"/>
      </g>
     </g>
    </g>
    <g id="text_4">
     <!-- Layer -->
     <g transform="translate(141.224624 270.395) scale(0.1 -0.1)">
      <defs>
       <path id="DejaVuSans-4c" d="M 628 4666 
L 1259 4666 
L 1259 531 
L 3531 531 
L 3531 0 
L 628 0 
L 628 4666 
z
" transform="scale(0.015625)"/>
       <path id="DejaVuSans-79" d="M 2059 -325 
Q 1816 -950 1584 -1140 
Q 1353 -1331 966 -1331 
L 506 -1331 
L 506 -850 
L 844 -850 
Q 1081 -850 1212 -737 
Q 1344 -625 1503 -206 
L 1606 56 
L 191 3500 
L 800 3500 
L 1894 763 
L 2988 3500 
L 3597 3500 
L 2059 -325 
z
" transform="scale(0.015625)"/>
      </defs>
      <use xlink:href="#DejaVuSans-4c"/>
      <use xlink:href="#DejaVuSans-61" x="55.712891"/>
      <use xlink:href="#DejaVuSans-79" x="116.992188"/>
      <use xlink:href="#DejaVuSans-65" x="176.171875"/>
      <use xlink:href="#DejaVuSans-72" x="237.695312"/>
     </g>
    </g>
   </g>
   <g id="matplotlib.axis_2">
    <g id="ytick_1">
     <g id="line2d_4">
      <defs>
       <path id="mf3251c508d" d="M 0 0 
L -3.5 0 
" style="stroke: #000000; stroke-width: 0.8"/>
      </defs>
      <g>
       <use xlink:href="#mf3251c508d" x="43.78125" y="242.118437" style="stroke: #000000; stroke-width: 0.8"/>
      </g>
     </g>
     <g id="text_5">
      <!-- 0.0 -->
      <g transform="translate(20.878125 245.917656) scale(0.1 -0.1)">
       <defs>
        <path id="DejaVuSans-30" d="M 2034 4250 
Q 1547 4250 1301 3770 
Q 1056 3291 1056 2328 
Q 1056 1369 1301 889 
Q 1547 409 2034 409 
Q 2525 409 2770 889 
Q 3016 1369 3016 2328 
Q 3016 3291 2770 3770 
Q 2525 4250 2034 4250 
z
M 2034 4750 
Q 2819 4750 3233 4129 
Q 3647 3509 3647 2328 
Q 3647 1150 3233 529 
Q 2819 -91 2034 -91 
Q 1250 -91 836 529 
Q 422 1150 422 2328 
Q 422 3509 836 4129 
Q 1250 4750 2034 4750 
z
" transform="scale(0.015625)"/>
        <path id="DejaVuSans-2e" d="M 684 794 
L 1344 794 
L 1344 0 
L 684 0 
L 684 794 
z
" transform="scale(0.015625)"/>
       </defs>
       <use xlink:href="#DejaVuSans-30"/>
       <use xlink:href="#DejaVuSans-2e" x="63.623047"/>
       <use xlink:href="#DejaVuSans-30" x="95.410156"/>
      </g>
     </g>
    </g>
    <g id="ytick_2">
     <g id="line2d_5">
      <g>
       <use xlink:href="#mf3251c508d" x="43.78125" y="197.854437" style="stroke: #000000; stroke-width: 0.8"/>
      </g>
     </g>
     <g id="text_6">
      <!-- 0.2 -->
      <g transform="translate(20.878125 201.653656) scale(0.1 -0.1)">
       <defs>
        <path id="DejaVuSans-32" d="M 1228 531 
L 3431 531 
L 3431 0 
L 469 0 
L 469 531 
Q 828 903 1448 1529 
Q 2069 2156 2228 2338 
Q 2531 2678 2651 2914 
Q 2772 3150 2772 3378 
Q 2772 3750 2511 3984 
Q 2250 4219 1831 4219 
Q 1534 4219 1204 4116 
Q 875 4013 500 3803 
L 500 4441 
Q 881 4594 1212 4672 
Q 1544 4750 1819 4750 
Q 2544 4750 2975 4387 
Q 3406 4025 3406 3419 
Q 3406 3131 3298 2873 
Q 3191 2616 2906 2266 
Q 2828 2175 2409 1742 
Q 1991 1309 1228 531 
z
" transform="scale(0.015625)"/>
       </defs>
       <use xlink:href="#DejaVuSans-30"/>
       <use xlink:href="#DejaVuSans-2e" x="63.623047"/>
       <use xlink:href="#DejaVuSans-32" x="95.410156"/>
      </g>
     </g>
    </g>
    <g id="ytick_3">
     <g id="line2d_6">
      <g>
       <use xlink:href="#mf3251c508d" x="43.78125" y="153.590437" style="stroke: #000000; stroke-width: 0.8"/>
      </g>
     </g>
     <g id="text_7">
      <!-- 0.4 -->
      <g transform="translate(20.878125 157.389656) scale(0.1 -0.1)">
       <defs>
        <path id="DejaVuSans-34" d="M 2419 4116 
L 825 1625 
L 2419 1625 
L 2419 4116 
z
M 2253 4666 
L 3047 4666 
L 3047 1625 
L 3713 1625 
L 3713 1100 
L 3047 1100 
L 3047 0 
L 2419 0 
L 2419 1100 
L 313 1100 
L 313 1709 
L 2253 4666 
z
" transform="scale(0.015625)"/>
       </defs>
       <use xlink:href="#DejaVuSans-30"/>
       <use xlink:href="#DejaVuSans-2e" x="63.623047"/>
       <use xlink:href="#DejaVuSans-34" x="95.410156"/>
      </g>
     </g>
    </g>
    <g id="ytick_4">
     <g id="line2d_7">
      <g>
       <use xlink:href="#mf3251c508d" x="43.78125" y="109.326437" style="stroke: #000000; stroke-width: 0.8"/>
      </g>
     </g>
     <g id="text_8">
      <!-- 0.6 -->
      <g transform="translate(20.878125 113.125656) scale(0.1 -0.1)">
       <defs>
        <path id="DejaVuSans-36" d="M 2113 2584 
Q 1688 2584 1439 2293 
Q 1191 2003 1191 1497 
Q 1191 994 1439 701 
Q 1688 409 2113 409 
Q 2538 409 2786 701 
Q 3034 994 3034 1497 
Q 3034 2003 2786 2293 
Q 2538 2584 2113 2584 
z
M 3366 4563 
L 3366 3988 
Q 3128 4100 2886 4159 
Q 2644 4219 2406 4219 
Q 1781 4219 1451 3797 
Q 1122 3375 1075 2522 
Q 1259 2794 1537 2939 
Q 1816 3084 2150 3084 
Q 2853 3084 3261 2657 
Q 3669 2231 3669 1497 
Q 3669 778 3244 343 
Q 2819 -91 2113 -91 
Q 1303 -91 875 529 
Q 447 1150 447 2328 
Q 447 3434 972 4092 
Q 1497 4750 2381 4750 
Q 2619 4750 2861 4703 
Q 3103 4656 3366 4563 
z
" transform="scale(0.015625)"/>
       </defs>
       <use xlink:href="#DejaVuSans-30"/>
       <use xlink:href="#DejaVuSans-2e" x="63.623047"/>
       <use xlink:href="#DejaVuSans-36" x="95.410156"/>
      </g>
     </g>
    </g>
    <g id="ytick_5">
     <g id="line2d_8">
      <g>
       <use xlink:href="#mf3251c508d" x="43.78125" y="65.062437" style="stroke: #000000; stroke-width: 0.8"/>
      </g>
     </g>
     <g id="text_9">
      <!-- 0.8 -->
      <g transform="translate(20.878125 68.861656) scale(0.1 -0.1)">
       <defs>
        <path id="DejaVuSans-38" d="M 2034 2216 
Q 1584 2216 1326 1975 
Q 1069 1734 1069 1313 
Q 1069 891 1326 650 
Q 1584 409 2034 409 
Q 2484 409 2743 651 
Q 3003 894 3003 1313 
Q 3003 1734 2745 1975 
Q 2488 2216 2034 2216 
z
M 1403 2484 
Q 997 2584 770 2862 
Q 544 3141 544 3541 
Q 544 4100 942 4425 
Q 1341 4750 2034 4750 
Q 2731 4750 3128 4425 
Q 3525 4100 3525 3541 
Q 3525 3141 3298 2862 
Q 3072 2584 2669 2484 
Q 3125 2378 3379 2068 
Q 3634 1759 3634 1313 
Q 3634 634 3220 271 
Q 2806 -91 2034 -91 
Q 1263 -91 848 271 
Q 434 634 434 1313 
Q 434 1759 690 2068 
Q 947 2378 1403 2484 
z
M 1172 3481 
Q 1172 3119 1398 2916 
Q 1625 2713 2034 2713 
Q 2441 2713 2670 2916 
Q 2900 3119 2900 3481 
Q 2900 3844 2670 4047 
Q 2441 4250 2034 4250 
Q 1625 4250 1398 4047 
Q 1172 3844 1172 3481 
z
" transform="scale(0.015625)"/>
       </defs>
       <use xlink:href="#DejaVuSans-30"/>
       <use xlink:href="#DejaVuSans-2e" x="63.623047"/>
       <use xlink:href="#DejaVuSans-38" x="95.410156"/>
      </g>
     </g>
    </g>
    <g id="ytick_6">
     <g id="line2d_9">
      <g>
       <use xlink:href="#mf3251c508d" x="43.78125" y="20.798437" style="stroke: #000000; stroke-width: 0.8"/>
      </g>
     </g>
     <g id="text_10">
      <!-- 1.0 -->
      <g transform="translate(20.878125 24.597656) scale(0.1 -0.1)">
       <defs>
        <path id="DejaVuSans-31" d="M 794 531 
L 1825 531 
L 1825 4091 
L 703 3866 
L 703 4441 
L 1819 4666 
L 2450 4666 
L 2450 531 
L 3481 531 
L 3481 0 
L 794 0 
L 794 531 
z
" transform="scale(0.015625)"/>
       </defs>
       <use xlink:href="#DejaVuSans-31"/>
       <use xlink:href="#DejaVuSans-2e" x="63.623047"/>
       <use xlink:href="#DejaVuSans-30" x="95.410156"/>
      </g>
     </g>
    </g>
    <g id="text_11">
     <!-- Accuracy -->
     <g transform="translate(14.798438 154.286563) rotate(-90) scale(0.1 -0.1)">
      <defs>
       <path id="DejaVuSans-41" d="M 2188 4044 
L 1331 1722 
L 3047 1722 
L 2188 4044 
z
M 1831 4666 
L 2547 4666 
L 4325 0 
L 3669 0 
L 3244 1197 
L 1141 1197 
L 716 0 
L 50 0 
L 1831 4666 
z
" transform="scale(0.015625)"/>
      </defs>
      <use xlink:href="#DejaVuSans-41"/>
      <use xlink:href="#DejaVuSans-63" x="66.658203"/>
      <use xlink:href="#DejaVuSans-63" x="121.638672"/>
      <use xlink:href="#DejaVuSans-75" x="176.619141"/>
      <use xlink:href="#DejaVuSans-72" x="239.998047"/>
      <use xlink:href="#DejaVuSans-61" x="281.111328"/>
      <use xlink:href="#DejaVuSans-63" x="342.390625"/>
      <use xlink:href="#DejaVuSans-79" x="397.371094"/>
     </g>
    </g>
   </g>
   <g id="line2d_10">
    <path d="M 43.78125 131.458438 
L 266.550811 131.458438 
" clip-path="url(#p768185b131)" style="fill: none; stroke-dasharray: 5.55,2.4; stroke-dashoffset: 0; stroke: #808080; stroke-width: 1.5"/>
   </g>
   <g id="patch_3">
    <path d="M 43.78125 242.118437 
L 43.78125 20.798437 
" style="fill: none; stroke: #000000; stroke-width: 0.8; stroke-linejoin: miter; stroke-linecap: square"/>
   </g>
   <g id="patch_4">
    <path d="M 43.78125 242.118437 
L 266.550811 242.118437 
" style="fill: none; stroke: #000000; stroke-width: 0.8; stroke-linejoin: miter; stroke-linecap: square"/>
   </g>
   <g id="PathCollection_1">
    <defs>
     <path id="m8432304cc6" d="M 0 1.25 
C 0.331504 1.25 0.649475 1.118292 0.883883 0.883883 
C 1.118292 0.649475 1.25 0.331504 1.25 0 
C 1.25 -0.331504 1.118292 -0.649475 0.883883 -0.883883 
C 0.649475 -1.118292 0.331504 -1.25 0 -1.25 
C -0.331504 -1.25 -0.649475 -1.118292 -0.883883 -0.883883 
C -1.118292 -0.649475 -1.25 -0.331504 -1.25 0 
C -1.25 0.331504 -1.118292 0.649475 -0.883883 0.883883 
C -0.649475 1.118292 -0.331504 1.25 0 1.25 
z
" style="stroke: #595959"/>
    </defs>
    <g clip-path="url(#p768185b131)">
     <use xlink:href="#m8432304cc6" x="80.90951" y="135.884838" style="fill: #595959; stroke: #595959"/>
     <use xlink:href="#m8432304cc6" x="80.90951" y="124.818837" style="fill: #595959; stroke: #595959"/>
     <use xlink:href="#m8432304cc6" x="80.90951" y="127.032037" style="fill: #595959; stroke: #595959"/>
     <use xlink:href="#m8432304cc6" x="80.90951" y="151.377237" style="fill: #595959; stroke: #595959"/>
     <use xlink:href="#m8432304cc6" x="80.90951" y="120.392437" style="fill: #595959; stroke: #595959"/>
     <use xlink:href="#m8432304cc6" x="80.90951" y="122.605637" style="fill: #595959; stroke: #595959"/>
     <use xlink:href="#m8432304cc6" x="80.90951" y="149.164037" style="fill: #595959; stroke: #595959"/>
     <use xlink:href="#m8432304cc6" x="80.90951" y="120.392437" style="fill: #595959; stroke: #595959"/>
     <use xlink:href="#m8432304cc6" x="80.90951" y="120.392437" style="fill: #595959; stroke: #595959"/>
     <use xlink:href="#m8432304cc6" x="80.90951" y="124.818837" style="fill: #595959; stroke: #595959"/>
     <use xlink:href="#m8432304cc6" x="80.90951" y="127.032037" style="fill: #595959; stroke: #595959"/>
     <use xlink:href="#m8432304cc6" x="80.90951" y="104.900037" style="fill: #595959; stroke: #595959"/>
     <use xlink:href="#m8432304cc6" x="80.90951" y="122.605637" style="fill: #595959; stroke: #595959"/>
     <use xlink:href="#m8432304cc6" x="80.90951" y="153.590437" style="fill: #595959; stroke: #595959"/>
     <use xlink:href="#m8432304cc6" x="80.90951" y="146.950837" style="fill: #595959; stroke: #595959"/>
     <use xlink:href="#m8432304cc6" x="80.90951" y="109.326437" style="fill: #595959; stroke: #595959"/>
     <use xlink:href="#m8432304cc6" x="80.90951" y="144.737638" style="fill: #595959; stroke: #595959"/>
     <use xlink:href="#m8432304cc6" x="80.90951" y="131.458438" style="fill: #595959; stroke: #595959"/>
     <use xlink:href="#m8432304cc6" x="80.90951" y="118.179237" style="fill: #595959; stroke: #595959"/>
     <use xlink:href="#m8432304cc6" x="80.90951" y="124.818837" style="fill: #595959; stroke: #595959"/>
    </g>
   </g>
   <g id="PathCollection_2">
    <g clip-path="url(#p768185b131)">
     <use xlink:href="#m8432304cc6" x="155.166031" y="140.311238" style="fill: #595959; stroke: #595959"/>
     <use xlink:href="#m8432304cc6" x="155.166031" y="109.326437" style="fill: #595959; stroke: #595959"/>
     <use xlink:href="#m8432304cc6" x="155.166031" y="129.245237" style="fill: #595959; stroke: #595959"/>
     <use xlink:href="#m8432304cc6" x="155.166031" y="131.458438" style="fill: #595959; stroke: #595959"/>
     <use xlink:href="#m8432304cc6" x="155.166031" y="135.884837" style="fill: #595959; stroke: #595959"/>
     <use xlink:href="#m8432304cc6" x="155.166031" y="122.605637" style="fill: #595959; stroke: #595959"/>
     <use xlink:href="#m8432304cc6" x="155.166031" y="140.311238" style="fill: #595959; stroke: #595959"/>
     <use xlink:href="#m8432304cc6" x="155.166031" y="120.392437" style="fill: #595959; stroke: #595959"/>
     <use xlink:href="#m8432304cc6" x="155.166031" y="146.950837" style="fill: #595959; stroke: #595959"/>
     <use xlink:href="#m8432304cc6" x="155.166031" y="138.098037" style="fill: #595959; stroke: #595959"/>
     <use xlink:href="#m8432304cc6" x="155.166031" y="138.098038" style="fill: #595959; stroke: #595959"/>
     <use xlink:href="#m8432304cc6" x="155.166031" y="118.179237" style="fill: #595959; stroke: #595959"/>
     <use xlink:href="#m8432304cc6" x="155.166031" y="144.737637" style="fill: #595959; stroke: #595959"/>
     <use xlink:href="#m8432304cc6" x="155.166031" y="135.884838" style="fill: #595959; stroke: #595959"/>
     <use xlink:href="#m8432304cc6" x="155.166031" y="129.245237" style="fill: #595959; stroke: #595959"/>
     <use xlink:href="#m8432304cc6" x="155.166031" y="124.818837" style="fill: #595959; stroke: #595959"/>
     <use xlink:href="#m8432304cc6" x="155.166031" y="129.245237" style="fill: #595959; stroke: #595959"/>
     <use xlink:href="#m8432304cc6" x="155.166031" y="149.164037" style="fill: #595959; stroke: #595959"/>
     <use xlink:href="#m8432304cc6" x="155.166031" y="131.458438" style="fill: #595959; stroke: #595959"/>
     <use xlink:href="#m8432304cc6" x="155.166031" y="131.458438" style="fill: #595959; stroke: #595959"/>
    </g>
   </g>
   <g id="PathCollection_3">
    <g clip-path="url(#p768185b131)">
     <use xlink:href="#m8432304cc6" x="229.422551" y="96.047237" style="fill: #595959; stroke: #595959"/>
     <use xlink:href="#m8432304cc6" x="229.422551" y="91.620837" style="fill: #595959; stroke: #595959"/>
     <use xlink:href="#m8432304cc6" x="229.422551" y="100.473637" style="fill: #595959; stroke: #595959"/>
     <use xlink:href="#m8432304cc6" x="229.422551" y="89.407637" style="fill: #595959; stroke: #595959"/>
     <use xlink:href="#m8432304cc6" x="229.422551" y="78.341637" style="fill: #595959; stroke: #595959"/>
     <use xlink:href="#m8432304cc6" x="229.422551" y="91.620837" style="fill: #595959; stroke: #595959"/>
     <use xlink:href="#m8432304cc6" x="229.422551" y="100.473637" style="fill: #595959; stroke: #595959"/>
     <use xlink:href="#m8432304cc6" x="229.422551" y="100.473637" style="fill: #595959; stroke: #595959"/>
     <use xlink:href="#m8432304cc6" x="229.422551" y="71.702037" style="fill: #595959; stroke: #595959"/>
     <use xlink:href="#m8432304cc6" x="229.422551" y="111.539637" style="fill: #595959; stroke: #595959"/>
     <use xlink:href="#m8432304cc6" x="229.422551" y="89.407637" style="fill: #595959; stroke: #595959"/>
     <use xlink:href="#m8432304cc6" x="229.422551" y="107.113237" style="fill: #595959; stroke: #595959"/>
     <use xlink:href="#m8432304cc6" x="229.422551" y="96.047237" style="fill: #595959; stroke: #595959"/>
     <use xlink:href="#m8432304cc6" x="229.422551" y="100.473637" style="fill: #595959; stroke: #595959"/>
     <use xlink:href="#m8432304cc6" x="229.422551" y="98.260437" style="fill: #595959; stroke: #595959"/>
     <use xlink:href="#m8432304cc6" x="229.422551" y="100.473637" style="fill: #595959; stroke: #595959"/>
     <use xlink:href="#m8432304cc6" x="229.422551" y="113.752837" style="fill: #595959; stroke: #595959"/>
     <use xlink:href="#m8432304cc6" x="229.422551" y="89.407637" style="fill: #595959; stroke: #595959"/>
     <use xlink:href="#m8432304cc6" x="229.422551" y="96.047237" style="fill: #595959; stroke: #595959"/>
     <use xlink:href="#m8432304cc6" x="229.422551" y="87.194437" style="fill: #595959; stroke: #595959"/>
    </g>
   </g>
   <g id="text_12">
    <!-- Rho = 0.4 -->
    <g transform="translate(273.08589 106.436563) rotate(-270) scale(0.1 -0.1)">
     <defs>
      <path id="DejaVuSans-52" d="M 2841 2188 
Q 3044 2119 3236 1894 
Q 3428 1669 3622 1275 
L 4263 0 
L 3584 0 
L 2988 1197 
Q 2756 1666 2539 1819 
Q 2322 1972 1947 1972 
L 1259 1972 
L 1259 0 
L 628 0 
L 628 4666 
L 2053 4666 
Q 2853 4666 3247 4331 
Q 3641 3997 3641 3322 
Q 3641 2881 3436 2590 
Q 3231 2300 2841 2188 
z
M 1259 4147 
L 1259 2491 
L 2053 2491 
Q 2509 2491 2742 2702 
Q 2975 2913 2975 3322 
Q 2975 3731 2742 3939 
Q 2509 4147 2053 4147 
L 1259 4147 
z
" transform="scale(0.015625)"/>
      <path id="DejaVuSans-68" d="M 3513 2113 
L 3513 0 
L 2938 0 
L 2938 2094 
Q 2938 2591 2744 2837 
Q 2550 3084 2163 3084 
Q 1697 3084 1428 2787 
Q 1159 2491 1159 1978 
L 1159 0 
L 581 0 
L 581 4863 
L 1159 4863 
L 1159 2956 
Q 1366 3272 1645 3428 
Q 1925 3584 2291 3584 
Q 2894 3584 3203 3211 
Q 3513 2838 3513 2113 
z
" transform="scale(0.015625)"/>
      <path id="DejaVuSans-6f" d="M 1959 3097 
Q 1497 3097 1228 2736 
Q 959 2375 959 1747 
Q 959 1119 1226 758 
Q 1494 397 1959 397 
Q 2419 397 2687 759 
Q 2956 1122 2956 1747 
Q 2956 2369 2687 2733 
Q 2419 3097 1959 3097 
z
M 1959 3584 
Q 2709 3584 3137 3096 
Q 3566 2609 3566 1747 
Q 3566 888 3137 398 
Q 2709 -91 1959 -91 
Q 1206 -91 779 398 
Q 353 888 353 1747 
Q 353 2609 779 3096 
Q 1206 3584 1959 3584 
z
" transform="scale(0.015625)"/>
      <path id="DejaVuSans-20" transform="scale(0.015625)"/>
      <path id="DejaVuSans-3d" d="M 678 2906 
L 4684 2906 
L 4684 2381 
L 678 2381 
L 678 2906 
z
M 678 1631 
L 4684 1631 
L 4684 1100 
L 678 1100 
L 678 1631 
z
" transform="scale(0.015625)"/>
     </defs>
     <use xlink:href="#DejaVuSans-52"/>
     <use xlink:href="#DejaVuSans-68" x="69.482422"/>
     <use xlink:href="#DejaVuSans-6f" x="132.861328"/>
     <use xlink:href="#DejaVuSans-20" x="194.042969"/>
     <use xlink:href="#DejaVuSans-3d" x="225.830078"/>
     <use xlink:href="#DejaVuSans-20" x="309.619141"/>
     <use xlink:href="#DejaVuSans-30" x="341.40625"/>
     <use xlink:href="#DejaVuSans-2e" x="405.029297"/>
     <use xlink:href="#DejaVuSans-34" x="436.816406"/>
    </g>
   </g>
   <g id="text_13">
    <!-- CNR_change = 1 -->
    <g transform="translate(113.008999 14.798437) scale(0.1 -0.1)">
     <defs>
      <path id="DejaVuSans-43" d="M 4122 4306 
L 4122 3641 
Q 3803 3938 3442 4084 
Q 3081 4231 2675 4231 
Q 1875 4231 1450 3742 
Q 1025 3253 1025 2328 
Q 1025 1406 1450 917 
Q 1875 428 2675 428 
Q 3081 428 3442 575 
Q 3803 722 4122 1019 
L 4122 359 
Q 3791 134 3420 21 
Q 3050 -91 2638 -91 
Q 1578 -91 968 557 
Q 359 1206 359 2328 
Q 359 3453 968 4101 
Q 1578 4750 2638 4750 
Q 3056 4750 3426 4639 
Q 3797 4528 4122 4306 
z
" transform="scale(0.015625)"/>
      <path id="DejaVuSans-4e" d="M 628 4666 
L 1478 4666 
L 3547 763 
L 3547 4666 
L 4159 4666 
L 4159 0 
L 3309 0 
L 1241 3903 
L 1241 0 
L 628 0 
L 628 4666 
z
" transform="scale(0.015625)"/>
      <path id="DejaVuSans-5f" d="M 3263 -1063 
L 3263 -1509 
L -63 -1509 
L -63 -1063 
L 3263 -1063 
z
" transform="scale(0.015625)"/>
      <path id="DejaVuSans-6e" d="M 3513 2113 
L 3513 0 
L 2938 0 
L 2938 2094 
Q 2938 2591 2744 2837 
Q 2550 3084 2163 3084 
Q 1697 3084 1428 2787 
Q 1159 2491 1159 1978 
L 1159 0 
L 581 0 
L 581 3500 
L 1159 3500 
L 1159 2956 
Q 1366 3272 1645 3428 
Q 1925 3584 2291 3584 
Q 2894 3584 3203 3211 
Q 3513 2838 3513 2113 
z
" transform="scale(0.015625)"/>
      <path id="DejaVuSans-67" d="M 2906 1791 
Q 2906 2416 2648 2759 
Q 2391 3103 1925 3103 
Q 1463 3103 1205 2759 
Q 947 2416 947 1791 
Q 947 1169 1205 825 
Q 1463 481 1925 481 
Q 2391 481 2648 825 
Q 2906 1169 2906 1791 
z
M 3481 434 
Q 3481 -459 3084 -895 
Q 2688 -1331 1869 -1331 
Q 1566 -1331 1297 -1286 
Q 1028 -1241 775 -1147 
L 775 -588 
Q 1028 -725 1275 -790 
Q 1522 -856 1778 -856 
Q 2344 -856 2625 -561 
Q 2906 -266 2906 331 
L 2906 616 
Q 2728 306 2450 153 
Q 2172 0 1784 0 
Q 1141 0 747 490 
Q 353 981 353 1791 
Q 353 2603 747 3093 
Q 1141 3584 1784 3584 
Q 2172 3584 2450 3431 
Q 2728 3278 2906 2969 
L 2906 3500 
L 3481 3500 
L 3481 434 
z
" transform="scale(0.015625)"/>
     </defs>
     <use xlink:href="#DejaVuSans-43"/>
     <use xlink:href="#DejaVuSans-4e" x="69.824219"/>
     <use xlink:href="#DejaVuSans-52" x="144.628906"/>
     <use xlink:href="#DejaVuSans-5f" x="214.111328"/>
     <use xlink:href="#DejaVuSans-63" x="264.111328"/>
     <use xlink:href="#DejaVuSans-68" x="319.091797"/>
     <use xlink:href="#DejaVuSans-61" x="382.470703"/>
     <use xlink:href="#DejaVuSans-6e" x="443.75"/>
     <use xlink:href="#DejaVuSans-67" x="507.128906"/>
     <use xlink:href="#DejaVuSans-65" x="570.605469"/>
     <use xlink:href="#DejaVuSans-20" x="632.128906"/>
     <use xlink:href="#DejaVuSans-3d" x="663.916016"/>
     <use xlink:href="#DejaVuSans-20" x="747.705078"/>
     <use xlink:href="#DejaVuSans-31" x="779.492188"/>
    </g>
   </g>
  </g>
  <g id="legend_1"/>
 </g>
 <defs>
  <clipPath id="p768185b131">
   <rect x="43.78125" y="20.798437" width="222.769561" height="221.32"/>
  </clipPath>
 </defs>
</svg>
