<?xml version="1.0" encoding="utf-8" standalone="no"?>
<!DOCTYPE svg PUBLIC "-//W3C//DTD SVG 1.1//EN"
  "http://www.w3.org/Graphics/SVG/1.1/DTD/svg11.dtd">
<svg xmlns:xlink="http://www.w3.org/1999/xlink" width="294.17125pt" height="279.674688pt" viewBox="0 0 294.17125 279.674688" xmlns="http://www.w3.org/2000/svg" version="1.1">
 <metadata>
  <rdf:RDF xmlns:dc="http://purl.org/dc/elements/1.1/" xmlns:cc="http://creativecommons.org/ns#" xmlns:rdf="http://www.w3.org/1999/02/22-rdf-syntax-ns#">
   <cc:Work>
    <dc:type rdf:resource="http://purl.org/dc/dcmitype/StillImage"/>
    <dc:date>2025-08-25T15:44:43.320342</dc:date>
    <dc:format>image/svg+xml</dc:format>
    <dc:creator>
     <cc:Agent>
      <dc:title>Matplotlib v3.8.4, https://matplotlib.org/</dc:title>
     </cc:Agent>
    </dc:creator>
   </cc:Work>
  </rdf:RDF>
 </metadata>
 <defs>
  <style type="text/css">*{stroke-linejoin: round; stroke-linecap: butt}</style>
 </defs>
 <g id="figure_1">
  <g id="patch_1">
   <path d="M 0 279.674688 
L 294.17125 279.674688 
L 294.17125 0 
L 0 0 
z
" style="fill: #ffffff"/>
  </g>
  <g id="axes_1">
   <g id="patch_2">
    <path d="M 43.78125 242.118437 
L 266.550811 242.118437 
L 266.550811 20.798437 
L 43.78125 20.798437 
z
" style="fill: #ffffff"/>
   </g>
   <g id="PolyCollection_1">
    <defs>
     <path id="mae18dc6f30" d="M 81.780906 -244.087261 
L 80.038114 -244.087261 
L 79.84075 -244.274251 
L 79.610549 -244.461241 
L 79.344877 -244.64823 
L 79.041481 -244.83522 
L 78.698614 -245.02221 
L 78.315145 -245.209199 
L 77.890657 -245.396189 
L 77.425518 -245.583179 
L 76.92093 -245.770168 
L 76.378934 -245.957158 
L 75.802382 -246.144148 
L 75.194879 -246.331137 
L 74.560683 -246.518127 
L 73.904576 -246.705117 
L 73.231719 -246.892106 
L 72.547487 -247.079096 
L 71.857304 -247.266086 
L 71.166469 -247.453075 
L 70.480005 -247.640065 
L 69.802513 -247.827055 
L 69.138047 -248.014044 
L 68.490009 -248.201034 
L 67.861061 -248.388024 
L 67.253058 -248.575013 
L 66.666997 -248.762003 
L 66.102983 -248.948993 
L 65.560204 -249.135982 
L 65.036936 -249.322972 
L 64.530561 -249.509962 
L 64.037608 -249.696951 
L 63.553837 -249.883941 
L 63.074348 -250.070931 
L 62.593747 -250.25792 
L 62.106345 -250.44491 
L 61.606418 -250.6319 
L 61.088504 -250.818889 
L 60.547738 -251.005879 
L 59.980213 -251.192869 
L 59.383347 -251.379858 
L 58.756239 -251.566848 
L 58.099984 -251.753838 
L 57.417923 -251.940827 
L 56.715807 -252.127817 
L 56.001848 -252.314807 
L 55.286637 -252.501796 
L 54.582918 -252.688786 
L 53.905223 -252.875776 
L 53.269364 -253.062765 
L 52.691804 -253.249755 
L 52.188938 -253.436745 
L 51.776323 -253.623735 
L 51.467897 -253.810724 
L 51.275233 -253.997714 
L 51.206902 -254.184704 
L 51.26795 -254.371693 
L 51.459571 -254.558683 
L 51.778974 -254.745673 
L 52.219473 -254.932662 
L 52.770791 -255.119652 
L 53.419572 -255.306642 
L 54.150053 -255.493631 
L 54.944874 -255.680621 
L 55.785953 -255.867611 
L 56.655389 -256.0546 
L 57.536314 -256.24159 
L 58.413668 -256.42858 
L 59.274825 -256.615569 
L 60.11005 -256.802559 
L 60.912768 -256.989549 
L 61.679624 -257.176538 
L 62.410346 -257.363528 
L 63.107438 -257.550518 
L 63.775712 -257.737507 
L 64.421714 -257.924497 
L 65.05308 -258.111487 
L 65.677864 -258.298476 
L 66.303886 -258.485466 
L 66.93814 -258.672456 
L 67.586296 -258.859445 
L 68.252321 -259.046435 
L 68.938238 -259.233425 
L 69.644028 -259.420414 
L 70.367671 -259.607404 
L 71.105319 -259.794394 
L 71.851568 -259.981383 
L 72.59982 -260.168373 
L 73.34269 -260.355363 
L 74.072437 -260.542352 
L 74.781382 -260.729342 
L 75.462292 -260.916332 
L 76.108711 -261.103321 
L 76.715214 -261.290311 
L 77.277579 -261.477301 
L 77.792884 -261.66429 
L 78.259521 -261.85128 
L 78.677135 -262.03827 
L 79.046516 -262.225259 
L 79.369443 -262.412249 
L 79.648497 -262.599239 
L 82.170524 -262.599239 
L 82.170524 -262.599239 
L 82.449578 -262.412249 
L 82.772504 -262.225259 
L 83.141886 -262.03827 
L 83.5595 -261.85128 
L 84.026136 -261.66429 
L 84.541442 -261.477301 
L 85.103807 -261.290311 
L 85.710309 -261.103321 
L 86.356728 -260.916332 
L 87.037639 -260.729342 
L 87.746583 -260.542352 
L 88.47633 -260.355363 
L 89.219201 -260.168373 
L 89.967453 -259.981383 
L 90.713702 -259.794394 
L 91.451349 -259.607404 
L 92.174993 -259.420414 
L 92.880782 -259.233425 
L 93.566699 -259.046435 
L 94.232724 -258.859445 
L 94.88088 -258.672456 
L 95.515134 -258.485466 
L 96.141156 -258.298476 
L 96.76594 -258.111487 
L 97.397307 -257.924497 
L 98.043309 -257.737507 
L 98.711582 -257.550518 
L 99.408674 -257.363528 
L 100.139397 -257.176538 
L 100.906252 -256.989549 
L 101.70897 -256.802559 
L 102.544196 -256.615569 
L 103.405352 -256.42858 
L 104.282706 -256.24159 
L 105.163632 -256.0546 
L 106.033067 -255.867611 
L 106.874147 -255.680621 
L 107.668967 -255.493631 
L 108.399449 -255.306642 
L 109.048229 -255.119652 
L 109.599548 -254.932662 
L 110.040046 -254.745673 
L 110.359449 -254.558683 
L 110.55107 -254.371693 
L 110.612118 -254.184704 
L 110.543787 -253.997714 
L 110.351124 -253.810724 
L 110.042697 -253.623735 
L 109.630082 -253.436745 
L 109.127217 -253.249755 
L 108.549656 -253.062765 
L 107.913797 -252.875776 
L 107.236103 -252.688786 
L 106.532384 -252.501796 
L 105.817172 -252.314807 
L 105.103213 -252.127817 
L 104.401098 -251.940827 
L 103.719037 -251.753838 
L 103.062781 -251.566848 
L 102.435674 -251.379858 
L 101.838808 -251.192869 
L 101.271282 -251.005879 
L 100.730516 -250.818889 
L 100.212602 -250.6319 
L 99.712675 -250.44491 
L 99.225274 -250.25792 
L 98.744672 -250.070931 
L 98.265184 -249.883941 
L 97.781412 -249.696951 
L 97.28846 -249.509962 
L 96.782084 -249.322972 
L 96.258817 -249.135982 
L 95.716038 -248.948993 
L 95.152023 -248.762003 
L 94.565962 -248.575013 
L 93.95796 -248.388024 
L 93.329011 -248.201034 
L 92.680973 -248.014044 
L 92.016507 -247.827055 
L 91.339015 -247.640065 
L 90.652551 -247.453075 
L 89.961716 -247.266086 
L 89.271533 -247.079096 
L 88.587302 -246.892106 
L 87.914445 -246.705117 
L 87.258337 -246.518127 
L 86.624141 -246.331137 
L 86.016638 -246.144148 
L 85.440087 -245.957158 
L 84.89809 -245.770168 
L 84.393502 -245.583179 
L 83.928364 -245.396189 
L 83.503875 -245.209199 
L 83.120406 -245.02221 
L 82.777539 -244.83522 
L 82.474143 -244.64823 
L 82.208471 -244.461241 
L 81.97827 -244.274251 
L 81.780906 -244.087261 
z
" style="stroke: #595959; stroke-width: 1.25"/>
    </defs>
    <g clip-path="url(#p0891dedb34)">
     <use xlink:href="#mae18dc6f30" x="0" y="279.674688" style="fill: #72b6a1; stroke: #595959; stroke-width: 1.25"/>
    </g>
   </g>
   <g id="PolyCollection_2">
    <defs>
     <path id="m8f32b3279d" d="M 155.562178 -220.27302 
L 154.769883 -220.27302 
L 154.673214 -220.695194 
L 154.560079 -221.117369 
L 154.429538 -221.539543 
L 154.281036 -221.961717 
L 154.114476 -222.383892 
L 153.930275 -222.806066 
L 153.72938 -223.22824 
L 153.513249 -223.650415 
L 153.28379 -224.072589 
L 153.043252 -224.494763 
L 152.794079 -224.916938 
L 152.538738 -225.339112 
L 152.279524 -225.761286 
L 152.018378 -226.183461 
L 151.756718 -226.605635 
L 151.495322 -227.027809 
L 151.234258 -227.449984 
L 150.972898 -227.872158 
L 150.709986 -228.294332 
L 150.443788 -228.716507 
L 150.172286 -229.138681 
L 149.8934 -229.560856 
L 149.605215 -229.98303 
L 149.306177 -230.405204 
L 148.99522 -230.827379 
L 148.671828 -231.249553 
L 148.335979 -231.671727 
L 147.988 -232.093902 
L 147.628327 -232.516076 
L 147.257196 -232.93825 
L 146.874303 -233.360425 
L 146.478466 -233.782599 
L 146.067352 -234.204773 
L 145.637284 -234.626948 
L 145.18319 -235.049122 
L 144.69871 -235.471296 
L 144.176463 -235.893471 
L 143.608478 -236.315645 
L 142.986765 -236.737819 
L 142.30398 -237.159994 
L 141.554147 -237.582168 
L 140.733371 -238.004342 
L 139.840479 -238.426517 
L 138.877544 -238.848691 
L 137.850229 -239.270865 
L 136.767913 -239.69304 
L 135.643579 -240.115214 
L 134.493461 -240.537388 
L 133.33645 -240.959563 
L 132.193299 -241.381737 
L 131.085673 -241.803912 
L 130.035103 -242.226086 
L 129.061918 -242.64826 
L 128.184231 -243.070435 
L 127.417045 -243.492609 
L 126.77156 -243.914783 
L 126.254729 -244.336958 
L 125.86909 -244.759132 
L 125.612907 -245.181306 
L 125.480599 -245.603481 
L 125.463422 -246.025655 
L 125.550363 -246.447829 
L 125.729155 -246.870004 
L 125.987349 -247.292178 
L 126.313336 -247.714352 
L 126.697244 -248.136527 
L 127.131629 -248.558701 
L 127.611906 -248.980875 
L 128.136478 -249.40305 
L 128.706571 -249.825224 
L 129.325771 -250.247398 
L 129.999337 -250.669573 
L 130.733332 -251.091747 
L 131.53367 -251.513921 
L 132.405166 -251.936096 
L 133.35067 -252.35827 
L 134.370371 -252.780444 
L 135.461323 -253.202619 
L 136.617239 -253.624793 
L 137.828556 -254.046968 
L 139.082766 -254.469142 
L 140.36497 -254.891316 
L 141.658603 -255.313491 
L 142.946261 -255.735665 
L 144.210568 -256.157839 
L 145.435003 -256.580014 
L 146.604634 -257.002188 
L 147.706707 -257.424362 
L 148.731071 -257.846537 
L 149.67041 -258.268711 
L 150.520299 -258.690885 
L 151.279092 -259.11306 
L 151.947677 -259.535234 
L 152.529126 -259.957408 
L 153.028283 -260.379583 
L 153.451322 -260.801757 
L 153.805305 -261.223931 
L 154.097779 -261.646106 
L 154.336411 -262.06828 
L 155.99565 -262.06828 
L 155.99565 -262.06828 
L 156.234282 -261.646106 
L 156.526756 -261.223931 
L 156.880739 -260.801757 
L 157.303778 -260.379583 
L 157.802935 -259.957408 
L 158.384385 -259.535234 
L 159.052969 -259.11306 
L 159.811762 -258.690885 
L 160.661651 -258.268711 
L 161.60099 -257.846537 
L 162.625354 -257.424362 
L 163.727427 -257.002188 
L 164.897058 -256.580014 
L 166.121493 -256.157839 
L 167.385801 -255.735665 
L 168.673458 -255.313491 
L 169.967091 -254.891316 
L 171.249295 -254.469142 
L 172.503506 -254.046968 
L 173.714823 -253.624793 
L 174.870738 -253.202619 
L 175.96169 -252.780444 
L 176.981391 -252.35827 
L 177.926895 -251.936096 
L 178.798391 -251.513921 
L 179.59873 -251.091747 
L 180.332724 -250.669573 
L 181.00629 -250.247398 
L 181.62549 -249.825224 
L 182.195583 -249.40305 
L 182.720155 -248.980875 
L 183.200432 -248.558701 
L 183.634817 -248.136527 
L 184.018725 -247.714352 
L 184.344712 -247.292178 
L 184.602906 -246.870004 
L 184.781698 -246.447829 
L 184.868639 -246.025655 
L 184.851462 -245.603481 
L 184.719154 -245.181306 
L 184.462971 -244.759132 
L 184.077332 -244.336958 
L 183.560501 -243.914783 
L 182.915016 -243.492609 
L 182.14783 -243.070435 
L 181.270143 -242.64826 
L 180.296958 -242.226086 
L 179.246389 -241.803912 
L 178.138762 -241.381737 
L 176.995611 -240.959563 
L 175.8386 -240.537388 
L 174.688483 -240.115214 
L 173.564149 -239.69304 
L 172.481832 -239.270865 
L 171.454517 -238.848691 
L 170.491582 -238.426517 
L 169.59869 -238.004342 
L 168.777914 -237.582168 
L 168.028081 -237.159994 
L 167.345296 -236.737819 
L 166.723583 -236.315645 
L 166.155598 -235.893471 
L 165.633351 -235.471296 
L 165.148871 -235.049122 
L 164.694777 -234.626948 
L 164.264709 -234.204773 
L 163.853595 -233.782599 
L 163.457759 -233.360425 
L 163.074865 -232.93825 
L 162.703734 -232.516076 
L 162.344061 -232.093902 
L 161.996082 -231.671727 
L 161.660233 -231.249553 
L 161.336841 -230.827379 
L 161.025885 -230.405204 
L 160.726846 -229.98303 
L 160.438661 -229.560856 
L 160.159775 -229.138681 
L 159.888273 -228.716507 
L 159.622075 -228.294332 
L 159.359163 -227.872158 
L 159.097803 -227.449984 
L 158.83674 -227.027809 
L 158.575343 -226.605635 
L 158.313683 -226.183461 
L 158.052537 -225.761286 
L 157.793323 -225.339112 
L 157.537982 -224.916938 
L 157.288809 -224.494763 
L 157.048271 -224.072589 
L 156.818812 -223.650415 
L 156.602681 -223.22824 
L 156.401786 -222.806066 
L 156.217585 -222.383892 
L 156.051025 -221.961717 
L 155.902523 -221.539543 
L 155.771982 -221.117369 
L 155.658847 -220.695194 
L 155.562178 -220.27302 
z
" style="stroke: #595959; stroke-width: 1.25"/>
    </defs>
    <g clip-path="url(#p0891dedb34)">
     <use xlink:href="#m8f32b3279d" x="0" y="279.674688" style="fill: #e99675; stroke: #595959; stroke-width: 1.25"/>
    </g>
   </g>
   <g id="PolyCollection_3">
    <defs>
     <path id="mf95f892b82" d="M 230.016628 -196.416737 
L 228.828474 -196.416737 
L 228.679029 -196.896101 
L 228.499548 -197.375465 
L 228.285841 -197.854829 
L 228.033508 -198.334193 
L 227.738002 -198.813557 
L 227.3947 -199.292921 
L 226.998992 -199.772285 
L 226.546375 -200.251648 
L 226.032579 -200.731012 
L 225.453696 -201.210376 
L 224.806334 -201.68974 
L 224.087791 -202.169104 
L 223.296245 -202.648468 
L 222.43096 -203.127832 
L 221.492508 -203.607196 
L 220.482982 -204.08656 
L 219.40621 -204.565923 
L 218.267935 -205.045287 
L 217.07596 -205.524651 
L 215.84022 -206.004015 
L 214.572776 -206.483379 
L 213.287703 -206.962743 
L 212.000856 -207.442107 
L 210.729522 -207.921471 
L 209.491924 -208.400835 
L 208.306626 -208.880199 
L 207.191824 -209.359562 
L 206.164579 -209.838926 
L 205.240018 -210.31829 
L 204.430554 -210.797654 
L 203.745179 -211.277018 
L 203.188876 -211.756382 
L 202.762209 -212.235746 
L 202.461121 -212.71511 
L 202.276967 -213.194474 
L 202.196809 -213.673837 
L 202.203957 -214.153201 
L 202.278738 -214.632565 
L 202.399454 -215.111929 
L 202.54349 -215.591293 
L 202.688482 -216.070657 
L 202.813506 -216.550021 
L 202.900188 -217.029385 
L 202.933685 -217.508749 
L 202.903463 -217.988112 
L 202.803828 -218.467476 
L 202.634181 -218.94684 
L 202.398967 -219.426204 
L 202.107339 -219.905568 
L 201.772551 -220.384932 
L 201.411119 -220.864296 
L 201.041824 -221.34366 
L 200.68459 -221.823024 
L 200.359356 -222.302388 
L 200.084975 -222.781751 
L 199.878235 -223.261115 
L 199.753063 -223.740479 
L 199.719943 -224.219843 
L 199.785594 -224.699207 
L 199.952915 -225.178571 
L 200.221174 -225.657935 
L 200.586434 -226.137299 
L 201.042145 -226.616663 
L 201.579868 -227.096026 
L 202.190049 -227.57539 
L 202.862782 -228.054754 
L 203.588501 -228.534118 
L 204.358549 -229.013482 
L 205.165579 -229.492846 
L 206.003777 -229.97221 
L 206.86889 -230.451574 
L 207.758093 -230.930938 
L 208.669694 -231.410301 
L 209.60275 -231.889665 
L 210.556619 -232.369029 
L 211.530509 -232.848393 
L 212.523059 -233.327757 
L 213.532007 -233.807121 
L 214.553962 -234.286485 
L 215.584299 -234.765849 
L 216.617188 -235.245213 
L 217.645737 -235.724577 
L 218.662241 -236.20394 
L 219.658504 -236.683304 
L 220.626207 -237.162668 
L 221.557283 -237.642032 
L 222.444283 -238.121396 
L 223.280685 -238.60076 
L 224.061149 -239.080124 
L 224.781688 -239.559488 
L 225.439755 -240.038852 
L 226.034258 -240.518215 
L 226.565488 -240.997579 
L 227.034994 -241.476943 
L 227.445411 -241.956307 
L 227.800252 -242.435671 
L 228.103691 -242.915035 
L 228.360344 -243.394399 
L 228.575063 -243.873763 
L 230.270039 -243.873763 
L 230.270039 -243.873763 
L 230.484758 -243.394399 
L 230.741411 -242.915035 
L 231.04485 -242.435671 
L 231.399691 -241.956307 
L 231.810108 -241.476943 
L 232.279614 -240.997579 
L 232.810844 -240.518215 
L 233.405347 -240.038852 
L 234.063414 -239.559488 
L 234.783953 -239.080124 
L 235.564417 -238.60076 
L 236.400819 -238.121396 
L 237.287819 -237.642032 
L 238.218895 -237.162668 
L 239.186597 -236.683304 
L 240.18286 -236.20394 
L 241.199365 -235.724577 
L 242.227914 -235.245213 
L 243.260803 -234.765849 
L 244.29114 -234.286485 
L 245.313094 -233.807121 
L 246.322043 -233.327757 
L 247.314593 -232.848393 
L 248.288483 -232.369029 
L 249.242352 -231.889665 
L 250.175408 -231.410301 
L 251.087009 -230.930938 
L 251.976211 -230.451574 
L 252.841325 -229.97221 
L 253.679523 -229.492846 
L 254.486553 -229.013482 
L 255.256601 -228.534118 
L 255.98232 -228.054754 
L 256.655053 -227.57539 
L 257.265234 -227.096026 
L 257.802957 -226.616663 
L 258.258668 -226.137299 
L 258.623927 -225.657935 
L 258.892187 -225.178571 
L 259.059508 -224.699207 
L 259.125159 -224.219843 
L 259.092039 -223.740479 
L 258.966867 -223.261115 
L 258.760127 -222.781751 
L 258.485746 -222.302388 
L 258.160512 -221.823024 
L 257.803278 -221.34366 
L 257.433982 -220.864296 
L 257.072551 -220.384932 
L 256.737762 -219.905568 
L 256.446135 -219.426204 
L 256.210921 -218.94684 
L 256.041274 -218.467476 
L 255.941639 -217.988112 
L 255.911417 -217.508749 
L 255.944914 -217.029385 
L 256.031596 -216.550021 
L 256.15662 -216.070657 
L 256.301612 -215.591293 
L 256.445648 -215.111929 
L 256.566364 -214.632565 
L 256.641145 -214.153201 
L 256.648293 -213.673837 
L 256.568135 -213.194474 
L 256.383981 -212.71511 
L 256.082892 -212.235746 
L 255.656226 -211.756382 
L 255.099923 -211.277018 
L 254.414548 -210.797654 
L 253.605084 -210.31829 
L 252.680523 -209.838926 
L 251.653278 -209.359562 
L 250.538476 -208.880199 
L 249.353178 -208.400835 
L 248.11558 -207.921471 
L 246.844246 -207.442107 
L 245.557399 -206.962743 
L 244.272325 -206.483379 
L 243.004881 -206.004015 
L 241.769142 -205.524651 
L 240.577167 -205.045287 
L 239.438892 -204.565923 
L 238.36212 -204.08656 
L 237.352594 -203.607196 
L 236.414142 -203.127832 
L 235.548857 -202.648468 
L 234.757311 -202.169104 
L 234.038768 -201.68974 
L 233.391405 -201.210376 
L 232.812522 -200.731012 
L 232.298727 -200.251648 
L 231.84611 -199.772285 
L 231.450402 -199.292921 
L 231.1071 -198.813557 
L 230.811594 -198.334193 
L 230.559261 -197.854829 
L 230.345554 -197.375465 
L 230.166073 -196.896101 
L 230.016628 -196.416737 
z
" style="stroke: #595959; stroke-width: 1.25"/>
    </defs>
    <g clip-path="url(#p0891dedb34)">
     <use xlink:href="#mf95f892b82" x="0" y="279.674688" style="fill: #95a3c3; stroke: #595959; stroke-width: 1.25"/>
    </g>
   </g>
   <g id="matplotlib.axis_1">
    <g id="xtick_1">
     <g id="line2d_1">
      <defs>
       <path id="m85c68d0f07" d="M 0 0 
L 0 3.5 
" style="stroke: #000000; stroke-width: 0.8"/>
      </defs>
      <g>
       <use xlink:href="#m85c68d0f07" x="80.90951" y="242.118437" style="stroke: #000000; stroke-width: 0.8"/>
      </g>
     </g>
     <g id="text_1">
      <!-- Deep -->
      <g transform="translate(67.732166 256.716875) scale(0.1 -0.1)">
       <defs>
        <path id="DejaVuSans-44" d="M 1259 4147 
L 1259 519 
L 2022 519 
Q 2988 519 3436 956 
Q 3884 1394 3884 2338 
Q 3884 3275 3436 3711 
Q 2988 4147 2022 4147 
L 1259 4147 
z
M 628 4666 
L 1925 4666 
Q 3281 4666 3915 4102 
Q 4550 3538 4550 2338 
Q 4550 1131 3912 565 
Q 3275 0 1925 0 
L 628 0 
L 628 4666 
z
" transform="scale(0.015625)"/>
        <path id="DejaVuSans-65" d="M 3597 1894 
L 3597 1613 
L 953 1613 
Q 991 1019 1311 708 
Q 1631 397 2203 397 
Q 2534 397 2845 478 
Q 3156 559 3463 722 
L 3463 178 
Q 3153 47 2828 -22 
Q 2503 -91 2169 -91 
Q 1331 -91 842 396 
Q 353 884 353 1716 
Q 353 2575 817 3079 
Q 1281 3584 2069 3584 
Q 2775 3584 3186 3129 
Q 3597 2675 3597 1894 
z
M 3022 2063 
Q 3016 2534 2758 2815 
Q 2500 3097 2075 3097 
Q 1594 3097 1305 2825 
Q 1016 2553 972 2059 
L 3022 2063 
z
" transform="scale(0.015625)"/>
        <path id="DejaVuSans-70" d="M 1159 525 
L 1159 -1331 
L 581 -1331 
L 581 3500 
L 1159 3500 
L 1159 2969 
Q 1341 3281 1617 3432 
Q 1894 3584 2278 3584 
Q 2916 3584 3314 3078 
Q 3713 2572 3713 1747 
Q 3713 922 3314 415 
Q 2916 -91 2278 -91 
Q 1894 -91 1617 61 
Q 1341 213 1159 525 
z
M 3116 1747 
Q 3116 2381 2855 2742 
Q 2594 3103 2138 3103 
Q 1681 3103 1420 2742 
Q 1159 2381 1159 1747 
Q 1159 1113 1420 752 
Q 1681 391 2138 391 
Q 2594 391 2855 752 
Q 3116 1113 3116 1747 
z
" transform="scale(0.015625)"/>
       </defs>
       <use xlink:href="#DejaVuSans-44"/>
       <use xlink:href="#DejaVuSans-65" x="77.001953"/>
       <use xlink:href="#DejaVuSans-65" x="138.525391"/>
       <use xlink:href="#DejaVuSans-70" x="200.048828"/>
      </g>
     </g>
    </g>
    <g id="xtick_2">
     <g id="line2d_2">
      <g>
       <use xlink:href="#m85c68d0f07" x="155.166031" y="242.118437" style="stroke: #000000; stroke-width: 0.8"/>
      </g>
     </g>
     <g id="text_2">
      <!-- Middle -->
      <g transform="translate(138.648843 256.716875) scale(0.1 -0.1)">
       <defs>
        <path id="DejaVuSans-4d" d="M 628 4666 
L 1569 4666 
L 2759 1491 
L 3956 4666 
L 4897 4666 
L 4897 0 
L 4281 0 
L 4281 4097 
L 3078 897 
L 2444 897 
L 1241 4097 
L 1241 0 
L 628 0 
L 628 4666 
z
" transform="scale(0.015625)"/>
        <path id="DejaVuSans-69" d="M 603 3500 
L 1178 3500 
L 1178 0 
L 603 0 
L 603 3500 
z
M 603 4863 
L 1178 4863 
L 1178 4134 
L 603 4134 
L 603 4863 
z
" transform="scale(0.015625)"/>
        <path id="DejaVuSans-64" d="M 2906 2969 
L 2906 4863 
L 3481 4863 
L 3481 0 
L 2906 0 
L 2906 525 
Q 2725 213 2448 61 
Q 2172 -91 1784 -91 
Q 1150 -91 751 415 
Q 353 922 353 1747 
Q 353 2572 751 3078 
Q 1150 3584 1784 3584 
Q 2172 3584 2448 3432 
Q 2725 3281 2906 2969 
z
M 947 1747 
Q 947 1113 1208 752 
Q 1469 391 1925 391 
Q 2381 391 2643 752 
Q 2906 1113 2906 1747 
Q 2906 2381 2643 2742 
Q 2381 3103 1925 3103 
Q 1469 3103 1208 2742 
Q 947 2381 947 1747 
z
" transform="scale(0.015625)"/>
        <path id="DejaVuSans-6c" d="M 603 4863 
L 1178 4863 
L 1178 0 
L 603 0 
L 603 4863 
z
" transform="scale(0.015625)"/>
       </defs>
       <use xlink:href="#DejaVuSans-4d"/>
       <use xlink:href="#DejaVuSans-69" x="86.279297"/>
       <use xlink:href="#DejaVuSans-64" x="114.0625"/>
       <use xlink:href="#DejaVuSans-64" x="177.539062"/>
       <use xlink:href="#DejaVuSans-6c" x="241.015625"/>
       <use xlink:href="#DejaVuSans-65" x="268.798828"/>
      </g>
     </g>
    </g>
    <g id="xtick_3">
     <g id="line2d_3">
      <g>
       <use xlink:href="#m85c68d0f07" x="229.422551" y="242.118437" style="stroke: #000000; stroke-width: 0.8"/>
      </g>
     </g>
     <g id="text_3">
      <!-- Superficial -->
      <g transform="translate(203.032707 256.716875) scale(0.1 -0.1)">
       <defs>
        <path id="DejaVuSans-53" d="M 3425 4513 
L 3425 3897 
Q 3066 4069 2747 4153 
Q 2428 4238 2131 4238 
Q 1616 4238 1336 4038 
Q 1056 3838 1056 3469 
Q 1056 3159 1242 3001 
Q 1428 2844 1947 2747 
L 2328 2669 
Q 3034 2534 3370 2195 
Q 3706 1856 3706 1288 
Q 3706 609 3251 259 
Q 2797 -91 1919 -91 
Q 1588 -91 1214 -16 
Q 841 59 441 206 
L 441 856 
Q 825 641 1194 531 
Q 1563 422 1919 422 
Q 2459 422 2753 634 
Q 3047 847 3047 1241 
Q 3047 1584 2836 1778 
Q 2625 1972 2144 2069 
L 1759 2144 
Q 1053 2284 737 2584 
Q 422 2884 422 3419 
Q 422 4038 858 4394 
Q 1294 4750 2059 4750 
Q 2388 4750 2728 4690 
Q 3069 4631 3425 4513 
z
" transform="scale(0.015625)"/>
        <path id="DejaVuSans-75" d="M 544 1381 
L 544 3500 
L 1119 3500 
L 1119 1403 
Q 1119 906 1312 657 
Q 1506 409 1894 409 
Q 2359 409 2629 706 
Q 2900 1003 2900 1516 
L 2900 3500 
L 3475 3500 
L 3475 0 
L 2900 0 
L 2900 538 
Q 2691 219 2414 64 
Q 2138 -91 1772 -91 
Q 1169 -91 856 284 
Q 544 659 544 1381 
z
M 1991 3584 
L 1991 3584 
z
" transform="scale(0.015625)"/>
        <path id="DejaVuSans-72" d="M 2631 2963 
Q 2534 3019 2420 3045 
Q 2306 3072 2169 3072 
Q 1681 3072 1420 2755 
Q 1159 2438 1159 1844 
L 1159 0 
L 581 0 
L 581 3500 
L 1159 3500 
L 1159 2956 
Q 1341 3275 1631 3429 
Q 1922 3584 2338 3584 
Q 2397 3584 2469 3576 
Q 2541 3569 2628 3553 
L 2631 2963 
z
" transform="scale(0.015625)"/>
        <path id="DejaVuSans-66" d="M 2375 4863 
L 2375 4384 
L 1825 4384 
Q 1516 4384 1395 4259 
Q 1275 4134 1275 3809 
L 1275 3500 
L 2222 3500 
L 2222 3053 
L 1275 3053 
L 1275 0 
L 697 0 
L 697 3053 
L 147 3053 
L 147 3500 
L 697 3500 
L 697 3744 
Q 697 4328 969 4595 
Q 1241 4863 1831 4863 
L 2375 4863 
z
" transform="scale(0.015625)"/>
        <path id="DejaVuSans-63" d="M 3122 3366 
L 3122 2828 
Q 2878 2963 2633 3030 
Q 2388 3097 2138 3097 
Q 1578 3097 1268 2742 
Q 959 2388 959 1747 
Q 959 1106 1268 751 
Q 1578 397 2138 397 
Q 2388 397 2633 464 
Q 2878 531 3122 666 
L 3122 134 
Q 2881 22 2623 -34 
Q 2366 -91 2075 -91 
Q 1284 -91 818 406 
Q 353 903 353 1747 
Q 353 2603 823 3093 
Q 1294 3584 2113 3584 
Q 2378 3584 2631 3529 
Q 2884 3475 3122 3366 
z
" transform="scale(0.015625)"/>
        <path id="DejaVuSans-61" d="M 2194 1759 
Q 1497 1759 1228 1600 
Q 959 1441 959 1056 
Q 959 750 1161 570 
Q 1363 391 1709 391 
Q 2188 391 2477 730 
Q 2766 1069 2766 1631 
L 2766 1759 
L 2194 1759 
z
M 3341 1997 
L 3341 0 
L 2766 0 
L 2766 531 
Q 2569 213 2275 61 
Q 1981 -91 1556 -91 
Q 1019 -91 701 211 
Q 384 513 384 1019 
Q 384 1609 779 1909 
Q 1175 2209 1959 2209 
L 2766 2209 
L 2766 2266 
Q 2766 2663 2505 2880 
Q 2244 3097 1772 3097 
Q 1472 3097 1187 3025 
Q 903 2953 641 2809 
L 641 3341 
Q 956 3463 1253 3523 
Q 1550 3584 1831 3584 
Q 2591 3584 2966 3190 
Q 3341 2797 3341 1997 
z
" transform="scale(0.015625)"/>
       </defs>
       <use xlink:href="#DejaVuSans-53"/>
       <use xlink:href="#DejaVuSans-75" x="63.476562"/>
       <use xlink:href="#DejaVuSans-70" x="126.855469"/>
       <use xlink:href="#DejaVuSans-65" x="190.332031"/>
       <use xlink:href="#DejaVuSans-72" x="251.855469"/>
       <use xlink:href="#DejaVuSans-66" x="292.96875"/>
       <use xlink:href="#DejaVuSans-69" x="328.173828"/>
       <use xlink:href="#DejaVuSans-63" x="355.957031"/>
       <use xlink:href="#DejaVuSans-69" x="410.9375"/>
       <use xlink:href="#DejaVuSans-61" x="438.720703"/>
       <use xlink:href="#DejaVuSans-6c" x="500"/>
      </g>
     </g>
    </g>
    <g id="text_4">
     <!-- Layer -->
     <g transform="translate(141.224624 270.395) scale(0.1 -0.1)">
      <defs>
       <path id="DejaVuSans-4c" d="M 628 4666 
L 1259 4666 
L 1259 531 
L 3531 531 
L 3531 0 
L 628 0 
L 628 4666 
z
" transform="scale(0.015625)"/>
       <path id="DejaVuSans-79" d="M 2059 -325 
Q 1816 -950 1584 -1140 
Q 1353 -1331 966 -1331 
L 506 -1331 
L 506 -850 
L 844 -850 
Q 1081 -850 1212 -737 
Q 1344 -625 1503 -206 
L 1606 56 
L 191 3500 
L 800 3500 
L 1894 763 
L 2988 3500 
L 3597 3500 
L 2059 -325 
z
" transform="scale(0.015625)"/>
      </defs>
      <use xlink:href="#DejaVuSans-4c"/>
      <use xlink:href="#DejaVuSans-61" x="55.712891"/>
      <use xlink:href="#DejaVuSans-79" x="116.992188"/>
      <use xlink:href="#DejaVuSans-65" x="176.171875"/>
      <use xlink:href="#DejaVuSans-72" x="237.695312"/>
     </g>
    </g>
   </g>
   <g id="matplotlib.axis_2">
    <g id="ytick_1">
     <g id="line2d_4">
      <defs>
       <path id="m02eb5aa5a0" d="M 0 0 
L -3.5 0 
" style="stroke: #000000; stroke-width: 0.8"/>
      </defs>
      <g>
       <use xlink:href="#m02eb5aa5a0" x="43.78125" y="242.118437" style="stroke: #000000; stroke-width: 0.8"/>
      </g>
     </g>
     <g id="text_5">
      <!-- 0.0 -->
      <g transform="translate(20.878125 245.917656) scale(0.1 -0.1)">
       <defs>
        <path id="DejaVuSans-30" d="M 2034 4250 
Q 1547 4250 1301 3770 
Q 1056 3291 1056 2328 
Q 1056 1369 1301 889 
Q 1547 409 2034 409 
Q 2525 409 2770 889 
Q 3016 1369 3016 2328 
Q 3016 3291 2770 3770 
Q 2525 4250 2034 4250 
z
M 2034 4750 
Q 2819 4750 3233 4129 
Q 3647 3509 3647 2328 
Q 3647 1150 3233 529 
Q 2819 -91 2034 -91 
Q 1250 -91 836 529 
Q 422 1150 422 2328 
Q 422 3509 836 4129 
Q 1250 4750 2034 4750 
z
" transform="scale(0.015625)"/>
        <path id="DejaVuSans-2e" d="M 684 794 
L 1344 794 
L 1344 0 
L 684 0 
L 684 794 
z
" transform="scale(0.015625)"/>
       </defs>
       <use xlink:href="#DejaVuSans-30"/>
       <use xlink:href="#DejaVuSans-2e" x="63.623047"/>
       <use xlink:href="#DejaVuSans-30" x="95.410156"/>
      </g>
     </g>
    </g>
    <g id="ytick_2">
     <g id="line2d_5">
      <g>
       <use xlink:href="#m02eb5aa5a0" x="43.78125" y="197.854437" style="stroke: #000000; stroke-width: 0.8"/>
      </g>
     </g>
     <g id="text_6">
      <!-- 0.2 -->
      <g transform="translate(20.878125 201.653656) scale(0.1 -0.1)">
       <defs>
        <path id="DejaVuSans-32" d="M 1228 531 
L 3431 531 
L 3431 0 
L 469 0 
L 469 531 
Q 828 903 1448 1529 
Q 2069 2156 2228 2338 
Q 2531 2678 2651 2914 
Q 2772 3150 2772 3378 
Q 2772 3750 2511 3984 
Q 2250 4219 1831 4219 
Q 1534 4219 1204 4116 
Q 875 4013 500 3803 
L 500 4441 
Q 881 4594 1212 4672 
Q 1544 4750 1819 4750 
Q 2544 4750 2975 4387 
Q 3406 4025 3406 3419 
Q 3406 3131 3298 2873 
Q 3191 2616 2906 2266 
Q 2828 2175 2409 1742 
Q 1991 1309 1228 531 
z
" transform="scale(0.015625)"/>
       </defs>
       <use xlink:href="#DejaVuSans-30"/>
       <use xlink:href="#DejaVuSans-2e" x="63.623047"/>
       <use xlink:href="#DejaVuSans-32" x="95.410156"/>
      </g>
     </g>
    </g>
    <g id="ytick_3">
     <g id="line2d_6">
      <g>
       <use xlink:href="#m02eb5aa5a0" x="43.78125" y="153.590437" style="stroke: #000000; stroke-width: 0.8"/>
      </g>
     </g>
     <g id="text_7">
      <!-- 0.4 -->
      <g transform="translate(20.878125 157.389656) scale(0.1 -0.1)">
       <defs>
        <path id="DejaVuSans-34" d="M 2419 4116 
L 825 1625 
L 2419 1625 
L 2419 4116 
z
M 2253 4666 
L 3047 4666 
L 3047 1625 
L 3713 1625 
L 3713 1100 
L 3047 1100 
L 3047 0 
L 2419 0 
L 2419 1100 
L 313 1100 
L 313 1709 
L 2253 4666 
z
" transform="scale(0.015625)"/>
       </defs>
       <use xlink:href="#DejaVuSans-30"/>
       <use xlink:href="#DejaVuSans-2e" x="63.623047"/>
       <use xlink:href="#DejaVuSans-34" x="95.410156"/>
      </g>
     </g>
    </g>
    <g id="ytick_4">
     <g id="line2d_7">
      <g>
       <use xlink:href="#m02eb5aa5a0" x="43.78125" y="109.326437" style="stroke: #000000; stroke-width: 0.8"/>
      </g>
     </g>
     <g id="text_8">
      <!-- 0.6 -->
      <g transform="translate(20.878125 113.125656) scale(0.1 -0.1)">
       <defs>
        <path id="DejaVuSans-36" d="M 2113 2584 
Q 1688 2584 1439 2293 
Q 1191 2003 1191 1497 
Q 1191 994 1439 701 
Q 1688 409 2113 409 
Q 2538 409 2786 701 
Q 3034 994 3034 1497 
Q 3034 2003 2786 2293 
Q 2538 2584 2113 2584 
z
M 3366 4563 
L 3366 3988 
Q 3128 4100 2886 4159 
Q 2644 4219 2406 4219 
Q 1781 4219 1451 3797 
Q 1122 3375 1075 2522 
Q 1259 2794 1537 2939 
Q 1816 3084 2150 3084 
Q 2853 3084 3261 2657 
Q 3669 2231 3669 1497 
Q 3669 778 3244 343 
Q 2819 -91 2113 -91 
Q 1303 -91 875 529 
Q 447 1150 447 2328 
Q 447 3434 972 4092 
Q 1497 4750 2381 4750 
Q 2619 4750 2861 4703 
Q 3103 4656 3366 4563 
z
" transform="scale(0.015625)"/>
       </defs>
       <use xlink:href="#DejaVuSans-30"/>
       <use xlink:href="#DejaVuSans-2e" x="63.623047"/>
       <use xlink:href="#DejaVuSans-36" x="95.410156"/>
      </g>
     </g>
    </g>
    <g id="ytick_5">
     <g id="line2d_8">
      <g>
       <use xlink:href="#m02eb5aa5a0" x="43.78125" y="65.062437" style="stroke: #000000; stroke-width: 0.8"/>
      </g>
     </g>
     <g id="text_9">
      <!-- 0.8 -->
      <g transform="translate(20.878125 68.861656) scale(0.1 -0.1)">
       <defs>
        <path id="DejaVuSans-38" d="M 2034 2216 
Q 1584 2216 1326 1975 
Q 1069 1734 1069 1313 
Q 1069 891 1326 650 
Q 1584 409 2034 409 
Q 2484 409 2743 651 
Q 3003 894 3003 1313 
Q 3003 1734 2745 1975 
Q 2488 2216 2034 2216 
z
M 1403 2484 
Q 997 2584 770 2862 
Q 544 3141 544 3541 
Q 544 4100 942 4425 
Q 1341 4750 2034 4750 
Q 2731 4750 3128 4425 
Q 3525 4100 3525 3541 
Q 3525 3141 3298 2862 
Q 3072 2584 2669 2484 
Q 3125 2378 3379 2068 
Q 3634 1759 3634 1313 
Q 3634 634 3220 271 
Q 2806 -91 2034 -91 
Q 1263 -91 848 271 
Q 434 634 434 1313 
Q 434 1759 690 2068 
Q 947 2378 1403 2484 
z
M 1172 3481 
Q 1172 3119 1398 2916 
Q 1625 2713 2034 2713 
Q 2441 2713 2670 2916 
Q 2900 3119 2900 3481 
Q 2900 3844 2670 4047 
Q 2441 4250 2034 4250 
Q 1625 4250 1398 4047 
Q 1172 3844 1172 3481 
z
" transform="scale(0.015625)"/>
       </defs>
       <use xlink:href="#DejaVuSans-30"/>
       <use xlink:href="#DejaVuSans-2e" x="63.623047"/>
       <use xlink:href="#DejaVuSans-38" x="95.410156"/>
      </g>
     </g>
    </g>
    <g id="ytick_6">
     <g id="line2d_9">
      <g>
       <use xlink:href="#m02eb5aa5a0" x="43.78125" y="20.798437" style="stroke: #000000; stroke-width: 0.8"/>
      </g>
     </g>
     <g id="text_10">
      <!-- 1.0 -->
      <g transform="translate(20.878125 24.597656) scale(0.1 -0.1)">
       <defs>
        <path id="DejaVuSans-31" d="M 794 531 
L 1825 531 
L 1825 4091 
L 703 3866 
L 703 4441 
L 1819 4666 
L 2450 4666 
L 2450 531 
L 3481 531 
L 3481 0 
L 794 0 
L 794 531 
z
" transform="scale(0.015625)"/>
       </defs>
       <use xlink:href="#DejaVuSans-31"/>
       <use xlink:href="#DejaVuSans-2e" x="63.623047"/>
       <use xlink:href="#DejaVuSans-30" x="95.410156"/>
      </g>
     </g>
    </g>
    <g id="text_11">
     <!-- Accuracy -->
     <g transform="translate(14.798438 154.286563) rotate(-90) scale(0.1 -0.1)">
      <defs>
       <path id="DejaVuSans-41" d="M 2188 4044 
L 1331 1722 
L 3047 1722 
L 2188 4044 
z
M 1831 4666 
L 2547 4666 
L 4325 0 
L 3669 0 
L 3244 1197 
L 1141 1197 
L 716 0 
L 50 0 
L 1831 4666 
z
" transform="scale(0.015625)"/>
      </defs>
      <use xlink:href="#DejaVuSans-41"/>
      <use xlink:href="#DejaVuSans-63" x="66.658203"/>
      <use xlink:href="#DejaVuSans-63" x="121.638672"/>
      <use xlink:href="#DejaVuSans-75" x="176.619141"/>
      <use xlink:href="#DejaVuSans-72" x="239.998047"/>
      <use xlink:href="#DejaVuSans-61" x="281.111328"/>
      <use xlink:href="#DejaVuSans-63" x="342.390625"/>
      <use xlink:href="#DejaVuSans-79" x="397.371094"/>
     </g>
    </g>
   </g>
   <g id="line2d_10">
    <path d="M 43.78125 131.458438 
L 266.550811 131.458438 
" clip-path="url(#p0891dedb34)" style="fill: none; stroke-dasharray: 5.55,2.4; stroke-dashoffset: 0; stroke: #808080; stroke-width: 1.5"/>
   </g>
   <g id="patch_3">
    <path d="M 43.78125 242.118437 
L 43.78125 20.798437 
" style="fill: none; stroke: #000000; stroke-width: 0.8; stroke-linejoin: miter; stroke-linecap: square"/>
   </g>
   <g id="patch_4">
    <path d="M 43.78125 242.118437 
L 266.550811 242.118437 
" style="fill: none; stroke: #000000; stroke-width: 0.8; stroke-linejoin: miter; stroke-linecap: square"/>
   </g>
   <g id="PathCollection_1">
    <defs>
     <path id="ma97416bdf3" d="M 0 1.25 
C 0.331504 1.25 0.649475 1.118292 0.883883 0.883883 
C 1.118292 0.649475 1.25 0.331504 1.25 0 
C 1.25 -0.331504 1.118292 -0.649475 0.883883 -0.883883 
C 0.649475 -1.118292 0.331504 -1.25 0 -1.25 
C -0.331504 -1.25 -0.649475 -1.118292 -0.883883 -0.883883 
C -1.118292 -0.649475 -1.25 -0.331504 -1.25 0 
C -1.25 0.331504 -1.118292 0.649475 -0.883883 0.883883 
C -0.649475 1.118292 -0.331504 1.25 0 1.25 
z
" style="stroke: #595959"/>
    </defs>
    <g clip-path="url(#p0891dedb34)">
     <use xlink:href="#ma97416bdf3" x="80.90951" y="29.651237" style="fill: #595959; stroke: #595959"/>
     <use xlink:href="#ma97416bdf3" x="80.90951" y="27.438037" style="fill: #595959; stroke: #595959"/>
     <use xlink:href="#ma97416bdf3" x="80.90951" y="27.438037" style="fill: #595959; stroke: #595959"/>
     <use xlink:href="#ma97416bdf3" x="80.90951" y="31.864437" style="fill: #595959; stroke: #595959"/>
     <use xlink:href="#ma97416bdf3" x="80.90951" y="31.864437" style="fill: #595959; stroke: #595959"/>
     <use xlink:href="#ma97416bdf3" x="80.90951" y="23.011637" style="fill: #595959; stroke: #595959"/>
     <use xlink:href="#ma97416bdf3" x="80.90951" y="20.798437" style="fill: #595959; stroke: #595959"/>
     <use xlink:href="#ma97416bdf3" x="80.90951" y="27.438037" style="fill: #595959; stroke: #595959"/>
     <use xlink:href="#ma97416bdf3" x="80.90951" y="20.798437" style="fill: #595959; stroke: #595959"/>
     <use xlink:href="#ma97416bdf3" x="80.90951" y="25.224837" style="fill: #595959; stroke: #595959"/>
     <use xlink:href="#ma97416bdf3" x="80.90951" y="25.224837" style="fill: #595959; stroke: #595959"/>
     <use xlink:href="#ma97416bdf3" x="80.90951" y="25.224837" style="fill: #595959; stroke: #595959"/>
     <use xlink:href="#ma97416bdf3" x="80.90951" y="29.651237" style="fill: #595959; stroke: #595959"/>
     <use xlink:href="#ma97416bdf3" x="80.90951" y="25.224837" style="fill: #595959; stroke: #595959"/>
     <use xlink:href="#ma97416bdf3" x="80.90951" y="20.798437" style="fill: #595959; stroke: #595959"/>
     <use xlink:href="#ma97416bdf3" x="80.90951" y="25.224837" style="fill: #595959; stroke: #595959"/>
     <use xlink:href="#ma97416bdf3" x="80.90951" y="29.651237" style="fill: #595959; stroke: #595959"/>
     <use xlink:href="#ma97416bdf3" x="80.90951" y="25.224837" style="fill: #595959; stroke: #595959"/>
     <use xlink:href="#ma97416bdf3" x="80.90951" y="25.224837" style="fill: #595959; stroke: #595959"/>
     <use xlink:href="#ma97416bdf3" x="80.90951" y="23.011637" style="fill: #595959; stroke: #595959"/>
    </g>
   </g>
   <g id="PathCollection_2">
    <g clip-path="url(#p0891dedb34)">
     <use xlink:href="#ma97416bdf3" x="155.166031" y="34.077637" style="fill: #595959; stroke: #595959"/>
     <use xlink:href="#ma97416bdf3" x="155.166031" y="34.077637" style="fill: #595959; stroke: #595959"/>
     <use xlink:href="#ma97416bdf3" x="155.166031" y="27.438037" style="fill: #595959; stroke: #595959"/>
     <use xlink:href="#ma97416bdf3" x="155.166031" y="27.438037" style="fill: #595959; stroke: #595959"/>
     <use xlink:href="#ma97416bdf3" x="155.166031" y="36.290837" style="fill: #595959; stroke: #595959"/>
     <use xlink:href="#ma97416bdf3" x="155.166031" y="31.864437" style="fill: #595959; stroke: #595959"/>
     <use xlink:href="#ma97416bdf3" x="155.166031" y="38.504037" style="fill: #595959; stroke: #595959"/>
     <use xlink:href="#ma97416bdf3" x="155.166031" y="40.717238" style="fill: #595959; stroke: #595959"/>
     <use xlink:href="#ma97416bdf3" x="155.166031" y="45.143637" style="fill: #595959; stroke: #595959"/>
     <use xlink:href="#ma97416bdf3" x="155.166031" y="34.077637" style="fill: #595959; stroke: #595959"/>
     <use xlink:href="#ma97416bdf3" x="155.166031" y="51.783237" style="fill: #595959; stroke: #595959"/>
     <use xlink:href="#ma97416bdf3" x="155.166031" y="27.438037" style="fill: #595959; stroke: #595959"/>
     <use xlink:href="#ma97416bdf3" x="155.166031" y="45.143637" style="fill: #595959; stroke: #595959"/>
     <use xlink:href="#ma97416bdf3" x="155.166031" y="29.651237" style="fill: #595959; stroke: #595959"/>
     <use xlink:href="#ma97416bdf3" x="155.166031" y="27.438037" style="fill: #595959; stroke: #595959"/>
     <use xlink:href="#ma97416bdf3" x="155.166031" y="25.224837" style="fill: #595959; stroke: #595959"/>
     <use xlink:href="#ma97416bdf3" x="155.166031" y="36.290837" style="fill: #595959; stroke: #595959"/>
     <use xlink:href="#ma97416bdf3" x="155.166031" y="36.290837" style="fill: #595959; stroke: #595959"/>
     <use xlink:href="#ma97416bdf3" x="155.166031" y="31.864437" style="fill: #595959; stroke: #595959"/>
     <use xlink:href="#ma97416bdf3" x="155.166031" y="36.290837" style="fill: #595959; stroke: #595959"/>
    </g>
   </g>
   <g id="PathCollection_3">
    <g clip-path="url(#p0891dedb34)">
     <use xlink:href="#ma97416bdf3" x="229.422551" y="73.915237" style="fill: #595959; stroke: #595959"/>
     <use xlink:href="#ma97416bdf3" x="229.422551" y="58.422837" style="fill: #595959; stroke: #595959"/>
     <use xlink:href="#ma97416bdf3" x="229.422551" y="56.209637" style="fill: #595959; stroke: #595959"/>
     <use xlink:href="#ma97416bdf3" x="229.422551" y="65.062437" style="fill: #595959; stroke: #595959"/>
     <use xlink:href="#ma97416bdf3" x="229.422551" y="69.488837" style="fill: #595959; stroke: #595959"/>
     <use xlink:href="#ma97416bdf3" x="229.422551" y="53.996437" style="fill: #595959; stroke: #595959"/>
     <use xlink:href="#ma97416bdf3" x="229.422551" y="56.209637" style="fill: #595959; stroke: #595959"/>
     <use xlink:href="#ma97416bdf3" x="229.422551" y="45.143637" style="fill: #595959; stroke: #595959"/>
     <use xlink:href="#ma97416bdf3" x="229.422551" y="49.570038" style="fill: #595959; stroke: #595959"/>
     <use xlink:href="#ma97416bdf3" x="229.422551" y="67.275637" style="fill: #595959; stroke: #595959"/>
     <use xlink:href="#ma97416bdf3" x="229.422551" y="67.275637" style="fill: #595959; stroke: #595959"/>
     <use xlink:href="#ma97416bdf3" x="229.422551" y="60.636037" style="fill: #595959; stroke: #595959"/>
     <use xlink:href="#ma97416bdf3" x="229.422551" y="67.275637" style="fill: #595959; stroke: #595959"/>
     <use xlink:href="#ma97416bdf3" x="229.422551" y="65.062437" style="fill: #595959; stroke: #595959"/>
     <use xlink:href="#ma97416bdf3" x="229.422551" y="47.356837" style="fill: #595959; stroke: #595959"/>
     <use xlink:href="#ma97416bdf3" x="229.422551" y="53.996437" style="fill: #595959; stroke: #595959"/>
     <use xlink:href="#ma97416bdf3" x="229.422551" y="69.488837" style="fill: #595959; stroke: #595959"/>
     <use xlink:href="#ma97416bdf3" x="229.422551" y="53.996437" style="fill: #595959; stroke: #595959"/>
     <use xlink:href="#ma97416bdf3" x="229.422551" y="47.356837" style="fill: #595959; stroke: #595959"/>
     <use xlink:href="#ma97416bdf3" x="229.422551" y="56.209637" style="fill: #595959; stroke: #595959"/>
    </g>
   </g>
   <g id="text_12">
    <!-- Rho = 0.4 -->
    <g transform="translate(273.08589 106.436563) rotate(-270) scale(0.1 -0.1)">
     <defs>
      <path id="DejaVuSans-52" d="M 2841 2188 
Q 3044 2119 3236 1894 
Q 3428 1669 3622 1275 
L 4263 0 
L 3584 0 
L 2988 1197 
Q 2756 1666 2539 1819 
Q 2322 1972 1947 1972 
L 1259 1972 
L 1259 0 
L 628 0 
L 628 4666 
L 2053 4666 
Q 2853 4666 3247 4331 
Q 3641 3997 3641 3322 
Q 3641 2881 3436 2590 
Q 3231 2300 2841 2188 
z
M 1259 4147 
L 1259 2491 
L 2053 2491 
Q 2509 2491 2742 2702 
Q 2975 2913 2975 3322 
Q 2975 3731 2742 3939 
Q 2509 4147 2053 4147 
L 1259 4147 
z
" transform="scale(0.015625)"/>
      <path id="DejaVuSans-68" d="M 3513 2113 
L 3513 0 
L 2938 0 
L 2938 2094 
Q 2938 2591 2744 2837 
Q 2550 3084 2163 3084 
Q 1697 3084 1428 2787 
Q 1159 2491 1159 1978 
L 1159 0 
L 581 0 
L 581 4863 
L 1159 4863 
L 1159 2956 
Q 1366 3272 1645 3428 
Q 1925 3584 2291 3584 
Q 2894 3584 3203 3211 
Q 3513 2838 3513 2113 
z
" transform="scale(0.015625)"/>
      <path id="DejaVuSans-6f" d="M 1959 3097 
Q 1497 3097 1228 2736 
Q 959 2375 959 1747 
Q 959 1119 1226 758 
Q 1494 397 1959 397 
Q 2419 397 2687 759 
Q 2956 1122 2956 1747 
Q 2956 2369 2687 2733 
Q 2419 3097 1959 3097 
z
M 1959 3584 
Q 2709 3584 3137 3096 
Q 3566 2609 3566 1747 
Q 3566 888 3137 398 
Q 2709 -91 1959 -91 
Q 1206 -91 779 398 
Q 353 888 353 1747 
Q 353 2609 779 3096 
Q 1206 3584 1959 3584 
z
" transform="scale(0.015625)"/>
      <path id="DejaVuSans-20" transform="scale(0.015625)"/>
      <path id="DejaVuSans-3d" d="M 678 2906 
L 4684 2906 
L 4684 2381 
L 678 2381 
L 678 2906 
z
M 678 1631 
L 4684 1631 
L 4684 1100 
L 678 1100 
L 678 1631 
z
" transform="scale(0.015625)"/>
     </defs>
     <use xlink:href="#DejaVuSans-52"/>
     <use xlink:href="#DejaVuSans-68" x="69.482422"/>
     <use xlink:href="#DejaVuSans-6f" x="132.861328"/>
     <use xlink:href="#DejaVuSans-20" x="194.042969"/>
     <use xlink:href="#DejaVuSans-3d" x="225.830078"/>
     <use xlink:href="#DejaVuSans-20" x="309.619141"/>
     <use xlink:href="#DejaVuSans-30" x="341.40625"/>
     <use xlink:href="#DejaVuSans-2e" x="405.029297"/>
     <use xlink:href="#DejaVuSans-34" x="436.816406"/>
    </g>
   </g>
   <g id="text_13">
    <!-- CNR_change = 1 -->
    <g transform="translate(113.008999 14.798437) scale(0.1 -0.1)">
     <defs>
      <path id="DejaVuSans-43" d="M 4122 4306 
L 4122 3641 
Q 3803 3938 3442 4084 
Q 3081 4231 2675 4231 
Q 1875 4231 1450 3742 
Q 1025 3253 1025 2328 
Q 1025 1406 1450 917 
Q 1875 428 2675 428 
Q 3081 428 3442 575 
Q 3803 722 4122 1019 
L 4122 359 
Q 3791 134 3420 21 
Q 3050 -91 2638 -91 
Q 1578 -91 968 557 
Q 359 1206 359 2328 
Q 359 3453 968 4101 
Q 1578 4750 2638 4750 
Q 3056 4750 3426 4639 
Q 3797 4528 4122 4306 
z
" transform="scale(0.015625)"/>
      <path id="DejaVuSans-4e" d="M 628 4666 
L 1478 4666 
L 3547 763 
L 3547 4666 
L 4159 4666 
L 4159 0 
L 3309 0 
L 1241 3903 
L 1241 0 
L 628 0 
L 628 4666 
z
" transform="scale(0.015625)"/>
      <path id="DejaVuSans-5f" d="M 3263 -1063 
L 3263 -1509 
L -63 -1509 
L -63 -1063 
L 3263 -1063 
z
" transform="scale(0.015625)"/>
      <path id="DejaVuSans-6e" d="M 3513 2113 
L 3513 0 
L 2938 0 
L 2938 2094 
Q 2938 2591 2744 2837 
Q 2550 3084 2163 3084 
Q 1697 3084 1428 2787 
Q 1159 2491 1159 1978 
L 1159 0 
L 581 0 
L 581 3500 
L 1159 3500 
L 1159 2956 
Q 1366 3272 1645 3428 
Q 1925 3584 2291 3584 
Q 2894 3584 3203 3211 
Q 3513 2838 3513 2113 
z
" transform="scale(0.015625)"/>
      <path id="DejaVuSans-67" d="M 2906 1791 
Q 2906 2416 2648 2759 
Q 2391 3103 1925 3103 
Q 1463 3103 1205 2759 
Q 947 2416 947 1791 
Q 947 1169 1205 825 
Q 1463 481 1925 481 
Q 2391 481 2648 825 
Q 2906 1169 2906 1791 
z
M 3481 434 
Q 3481 -459 3084 -895 
Q 2688 -1331 1869 -1331 
Q 1566 -1331 1297 -1286 
Q 1028 -1241 775 -1147 
L 775 -588 
Q 1028 -725 1275 -790 
Q 1522 -856 1778 -856 
Q 2344 -856 2625 -561 
Q 2906 -266 2906 331 
L 2906 616 
Q 2728 306 2450 153 
Q 2172 0 1784 0 
Q 1141 0 747 490 
Q 353 981 353 1791 
Q 353 2603 747 3093 
Q 1141 3584 1784 3584 
Q 2172 3584 2450 3431 
Q 2728 3278 2906 2969 
L 2906 3500 
L 3481 3500 
L 3481 434 
z
" transform="scale(0.015625)"/>
     </defs>
     <use xlink:href="#DejaVuSans-43"/>
     <use xlink:href="#DejaVuSans-4e" x="69.824219"/>
     <use xlink:href="#DejaVuSans-52" x="144.628906"/>
     <use xlink:href="#DejaVuSans-5f" x="214.111328"/>
     <use xlink:href="#DejaVuSans-63" x="264.111328"/>
     <use xlink:href="#DejaVuSans-68" x="319.091797"/>
     <use xlink:href="#DejaVuSans-61" x="382.470703"/>
     <use xlink:href="#DejaVuSans-6e" x="443.75"/>
     <use xlink:href="#DejaVuSans-67" x="507.128906"/>
     <use xlink:href="#DejaVuSans-65" x="570.605469"/>
     <use xlink:href="#DejaVuSans-20" x="632.128906"/>
     <use xlink:href="#DejaVuSans-3d" x="663.916016"/>
     <use xlink:href="#DejaVuSans-20" x="747.705078"/>
     <use xlink:href="#DejaVuSans-31" x="779.492188"/>
    </g>
   </g>
  </g>
  <g id="legend_1"/>
 </g>
 <defs>
  <clipPath id="p0891dedb34">
   <rect x="43.78125" y="20.798437" width="222.769561" height="221.32"/>
  </clipPath>
 </defs>
</svg>
