<?xml version="1.0" encoding="utf-8" standalone="no"?>
<!DOCTYPE svg PUBLIC "-//W3C//DTD SVG 1.1//EN"
  "http://www.w3.org/Graphics/SVG/1.1/DTD/svg11.dtd">
<svg xmlns:xlink="http://www.w3.org/1999/xlink" width="294.17125pt" height="279.674688pt" viewBox="0 0 294.17125 279.674688" xmlns="http://www.w3.org/2000/svg" version="1.1">
 <metadata>
  <rdf:RDF xmlns:dc="http://purl.org/dc/elements/1.1/" xmlns:cc="http://creativecommons.org/ns#" xmlns:rdf="http://www.w3.org/1999/02/22-rdf-syntax-ns#">
   <cc:Work>
    <dc:type rdf:resource="http://purl.org/dc/dcmitype/StillImage"/>
    <dc:date>2025-08-25T15:18:26.023847</dc:date>
    <dc:format>image/svg+xml</dc:format>
    <dc:creator>
     <cc:Agent>
      <dc:title>Matplotlib v3.8.4, https://matplotlib.org/</dc:title>
     </cc:Agent>
    </dc:creator>
   </cc:Work>
  </rdf:RDF>
 </metadata>
 <defs>
  <style type="text/css">*{stroke-linejoin: round; stroke-linecap: butt}</style>
 </defs>
 <g id="figure_1">
  <g id="patch_1">
   <path d="M 0 279.674688 
L 294.17125 279.674688 
L 294.17125 0 
L 0 0 
z
" style="fill: #ffffff"/>
  </g>
  <g id="axes_1">
   <g id="patch_2">
    <path d="M 43.78125 242.118437 
L 266.550811 242.118437 
L 266.550811 20.798437 
L 43.78125 20.798437 
z
" style="fill: #ffffff"/>
   </g>
   <g id="PolyCollection_1">
    <defs>
     <path id="mb12662d567" d="M 81.227727 -238.914593 
L 80.591293 -238.914593 
L 80.514794 -239.161369 
L 80.42576 -239.408146 
L 80.32371 -239.654923 
L 80.208553 -239.9017 
L 80.080661 -240.148477 
L 79.940933 -240.395254 
L 79.790818 -240.642031 
L 79.632315 -240.888808 
L 79.467929 -241.135585 
L 79.300581 -241.382362 
L 79.133477 -241.629139 
L 78.969943 -241.875916 
L 78.813228 -242.122692 
L 78.666294 -242.369469 
L 78.53161 -242.616246 
L 78.410958 -242.863023 
L 78.305289 -243.1098 
L 78.214615 -243.356577 
L 78.137982 -243.603354 
L 78.073504 -243.850131 
L 78.018467 -244.096908 
L 77.969504 -244.343685 
L 77.922819 -244.590462 
L 77.874438 -244.837239 
L 77.820483 -245.084016 
L 77.757426 -245.330792 
L 77.682313 -245.577569 
L 77.592934 -245.824346 
L 77.487929 -246.071123 
L 77.366811 -246.3179 
L 77.22992 -246.564677 
L 77.0783 -246.811454 
L 76.913513 -247.058231 
L 76.737407 -247.305008 
L 76.551859 -247.551785 
L 76.3585 -247.798562 
L 76.158455 -248.045339 
L 75.952116 -248.292115 
L 75.738942 -248.538892 
L 75.517327 -248.785669 
L 75.28452 -249.032446 
L 75.036618 -249.279223 
L 74.768617 -249.526 
L 74.474542 -249.772777 
L 74.147624 -250.019554 
L 73.780545 -250.266331 
L 73.36572 -250.513108 
L 72.895627 -250.759885 
L 72.36315 -251.006662 
L 71.761943 -251.253438 
L 71.086788 -251.500215 
L 70.333938 -251.746992 
L 69.501428 -251.993769 
L 68.58934 -252.240546 
L 67.600017 -252.487323 
L 66.538205 -252.7341 
L 65.411131 -252.980877 
L 64.22849 -253.227654 
L 63.00237 -253.474431 
L 61.747094 -253.721208 
L 60.478982 -253.967985 
L 59.216056 -254.214761 
L 57.977677 -254.461538 
L 56.784132 -254.708315 
L 55.656178 -254.955092 
L 54.614547 -255.201869 
L 53.679438 -255.448646 
L 52.869996 -255.695423 
L 52.203799 -255.9422 
L 51.696368 -256.188977 
L 51.360707 -256.435754 
L 51.206902 -256.682531 
L 51.241783 -256.929308 
L 51.468663 -257.176084 
L 51.887166 -257.422861 
L 52.493156 -257.669638 
L 53.278762 -257.916415 
L 54.232521 -258.163192 
L 55.339615 -258.409969 
L 56.582225 -258.656746 
L 57.939977 -258.903523 
L 59.390479 -259.1503 
L 60.909933 -259.397077 
L 62.473801 -259.643854 
L 64.057503 -259.890631 
L 65.637116 -260.137408 
L 67.19005 -260.384184 
L 68.695663 -260.630961 
L 70.135787 -260.877738 
L 71.495145 -261.124515 
L 72.761633 -261.371292 
L 73.92646 -261.618069 
L 74.984143 -261.864846 
L 75.932362 -262.111623 
L 76.771703 -262.3584 
L 77.50529 -262.605177 
L 78.13836 -262.851954 
L 78.677797 -263.098731 
L 79.131649 -263.345507 
L 82.687371 -263.345507 
L 82.687371 -263.345507 
L 83.141223 -263.098731 
L 83.68066 -262.851954 
L 84.313731 -262.605177 
L 85.047317 -262.3584 
L 85.886658 -262.111623 
L 86.834878 -261.864846 
L 87.892561 -261.618069 
L 89.057388 -261.371292 
L 90.323876 -261.124515 
L 91.683234 -260.877738 
L 93.123357 -260.630961 
L 94.62897 -260.384184 
L 96.181904 -260.137408 
L 97.761518 -259.890631 
L 99.345219 -259.643854 
L 100.909088 -259.397077 
L 102.428542 -259.1503 
L 103.879044 -258.903523 
L 105.236795 -258.656746 
L 106.479405 -258.409969 
L 107.586499 -258.163192 
L 108.540258 -257.916415 
L 109.325865 -257.669638 
L 109.931854 -257.422861 
L 110.350358 -257.176084 
L 110.577237 -256.929308 
L 110.612118 -256.682531 
L 110.458313 -256.435754 
L 110.122652 -256.188977 
L 109.615221 -255.9422 
L 108.949025 -255.695423 
L 108.139583 -255.448646 
L 107.204474 -255.201869 
L 106.162842 -254.955092 
L 105.034888 -254.708315 
L 103.841344 -254.461538 
L 102.602965 -254.214761 
L 101.340038 -253.967985 
L 100.071926 -253.721208 
L 98.81665 -253.474431 
L 97.590531 -253.227654 
L 96.40789 -252.980877 
L 95.280815 -252.7341 
L 94.219004 -252.487323 
L 93.229681 -252.240546 
L 92.317593 -251.993769 
L 91.485082 -251.746992 
L 90.732232 -251.500215 
L 90.057077 -251.253438 
L 89.45587 -251.006662 
L 88.923393 -250.759885 
L 88.4533 -250.513108 
L 88.038476 -250.266331 
L 87.671396 -250.019554 
L 87.344478 -249.772777 
L 87.050403 -249.526 
L 86.782403 -249.279223 
L 86.5345 -249.032446 
L 86.301694 -248.785669 
L 86.080078 -248.538892 
L 85.866904 -248.292115 
L 85.660565 -248.045339 
L 85.460521 -247.798562 
L 85.267161 -247.551785 
L 85.081613 -247.305008 
L 84.905508 -247.058231 
L 84.740721 -246.811454 
L 84.589101 -246.564677 
L 84.45221 -246.3179 
L 84.331092 -246.071123 
L 84.226086 -245.824346 
L 84.136707 -245.577569 
L 84.061594 -245.330792 
L 83.998537 -245.084016 
L 83.944582 -244.837239 
L 83.896201 -244.590462 
L 83.849516 -244.343685 
L 83.800553 -244.096908 
L 83.745516 -243.850131 
L 83.681038 -243.603354 
L 83.604406 -243.356577 
L 83.513732 -243.1098 
L 83.408062 -242.863023 
L 83.28741 -242.616246 
L 83.152726 -242.369469 
L 83.005793 -242.122692 
L 82.849078 -241.875916 
L 82.685544 -241.629139 
L 82.51844 -241.382362 
L 82.351091 -241.135585 
L 82.186705 -240.888808 
L 82.028203 -240.642031 
L 81.878087 -240.395254 
L 81.738359 -240.148477 
L 81.610468 -239.9017 
L 81.49531 -239.654923 
L 81.39326 -239.408146 
L 81.304226 -239.161369 
L 81.227727 -238.914593 
z
" style="stroke: #595959; stroke-width: 1.25"/>
    </defs>
    <g clip-path="url(#p1ce7e0c51a)">
     <use xlink:href="#mb12662d567" x="0" y="279.674688" style="fill: #72b6a1; stroke: #595959; stroke-width: 1.25"/>
    </g>
   </g>
   <g id="PolyCollection_2">
    <defs>
     <path id="m2dc0e3716c" d="M 155.748398 -206.411862 
L 154.583663 -206.411862 
L 154.440368 -206.957571 
L 154.27098 -207.503279 
L 154.073185 -208.048988 
L 153.845058 -208.594697 
L 153.585217 -209.140406 
L 153.292978 -209.686115 
L 152.968498 -210.231824 
L 152.612891 -210.777533 
L 152.228318 -211.323241 
L 151.818022 -211.86895 
L 151.386316 -212.414659 
L 150.938505 -212.960368 
L 150.480743 -213.506077 
L 150.019826 -214.051786 
L 149.562924 -214.597495 
L 149.117265 -215.143203 
L 148.689777 -215.688912 
L 148.286719 -216.234621 
L 147.913298 -216.78033 
L 147.573313 -217.326039 
L 147.268839 -217.871748 
L 146.999963 -218.417457 
L 146.764609 -218.963165 
L 146.558444 -219.508874 
L 146.374898 -220.054583 
L 146.205289 -220.600292 
L 146.039073 -221.146001 
L 145.864201 -221.69171 
L 145.667586 -222.237419 
L 145.435663 -222.783127 
L 145.155019 -223.328836 
L 144.813074 -223.874545 
L 144.398772 -224.420254 
L 143.903246 -224.965963 
L 143.320423 -225.511672 
L 142.647509 -226.05738 
L 141.88534 -226.603089 
L 141.038541 -227.148798 
L 140.115475 -227.694507 
L 139.127979 -228.240216 
L 138.090876 -228.785925 
L 137.021293 -229.331634 
L 135.937815 -229.877342 
L 134.859541 -230.423051 
L 133.805085 -230.96876 
L 132.791616 -231.514469 
L 131.833999 -232.060178 
L 130.944103 -232.605887 
L 130.130333 -233.151596 
L 129.397427 -233.697304 
L 128.74652 -234.243013 
L 128.175487 -234.788722 
L 127.679507 -235.334431 
L 127.251819 -235.88014 
L 126.88459 -236.425849 
L 126.569822 -236.971558 
L 126.300216 -237.517266 
L 126.06994 -238.062975 
L 125.875216 -238.608684 
L 125.714704 -239.154393 
L 125.589667 -239.700102 
L 125.503893 -240.245811 
L 125.463422 -240.79152 
L 125.476098 -241.337228 
L 125.550989 -241.882937 
L 125.697743 -242.428646 
L 125.925915 -242.974355 
L 126.244319 -243.520064 
L 126.660448 -244.065773 
L 127.179981 -244.611481 
L 127.806408 -245.15719 
L 128.540766 -245.702899 
L 129.381509 -246.248608 
L 130.324476 -246.794317 
L 131.362975 -247.340026 
L 132.487955 -247.885735 
L 133.688257 -248.431443 
L 134.950937 -248.977152 
L 136.261633 -249.522861 
L 137.604981 -250.06857 
L 138.965061 -250.614279 
L 140.325849 -251.159988 
L 141.67167 -251.705697 
L 142.987638 -252.251405 
L 144.260052 -252.797114 
L 145.476743 -253.342823 
L 146.62736 -253.888532 
L 147.70357 -254.434241 
L 148.699174 -254.97995 
L 149.610143 -255.525659 
L 150.434555 -256.071367 
L 151.17247 -256.617076 
L 151.825724 -257.162785 
L 152.397683 -257.708494 
L 152.892962 -258.254203 
L 153.317121 -258.799912 
L 153.676372 -259.345621 
L 153.977292 -259.891329 
L 154.226571 -260.437038 
L 156.10549 -260.437038 
L 156.10549 -260.437038 
L 156.354769 -259.891329 
L 156.655689 -259.345621 
L 157.01494 -258.799912 
L 157.439099 -258.254203 
L 157.934378 -257.708494 
L 158.506337 -257.162785 
L 159.159591 -256.617076 
L 159.897506 -256.071367 
L 160.721918 -255.525659 
L 161.632887 -254.97995 
L 162.628491 -254.434241 
L 163.704701 -253.888532 
L 164.855318 -253.342823 
L 166.072009 -252.797114 
L 167.344423 -252.251405 
L 168.660391 -251.705697 
L 170.006212 -251.159988 
L 171.367 -250.614279 
L 172.72708 -250.06857 
L 174.070428 -249.522861 
L 175.381124 -248.977152 
L 176.643804 -248.431443 
L 177.844106 -247.885735 
L 178.969086 -247.340026 
L 180.007585 -246.794317 
L 180.950552 -246.248608 
L 181.791295 -245.702899 
L 182.525654 -245.15719 
L 183.15208 -244.611481 
L 183.671613 -244.065773 
L 184.087742 -243.520064 
L 184.406147 -242.974355 
L 184.634318 -242.428646 
L 184.781072 -241.882937 
L 184.855963 -241.337228 
L 184.868639 -240.79152 
L 184.828168 -240.245811 
L 184.742394 -239.700102 
L 184.617357 -239.154393 
L 184.456845 -238.608684 
L 184.262121 -238.062975 
L 184.031845 -237.517266 
L 183.762239 -236.971558 
L 183.447471 -236.425849 
L 183.080242 -235.88014 
L 182.652554 -235.334431 
L 182.156574 -234.788722 
L 181.585541 -234.243013 
L 180.934634 -233.697304 
L 180.201728 -233.151596 
L 179.387958 -232.605887 
L 178.498062 -232.060178 
L 177.540445 -231.514469 
L 176.526976 -230.96876 
L 175.47252 -230.423051 
L 174.394246 -229.877342 
L 173.310769 -229.331634 
L 172.241185 -228.785925 
L 171.204082 -228.240216 
L 170.216586 -227.694507 
L 169.29352 -227.148798 
L 168.446721 -226.603089 
L 167.684552 -226.05738 
L 167.011638 -225.511672 
L 166.428815 -224.965963 
L 165.933289 -224.420254 
L 165.518987 -223.874545 
L 165.177043 -223.328836 
L 164.896398 -222.783127 
L 164.664475 -222.237419 
L 164.46786 -221.69171 
L 164.292988 -221.146001 
L 164.126772 -220.600292 
L 163.957163 -220.054583 
L 163.773617 -219.508874 
L 163.567452 -218.963165 
L 163.332098 -218.417457 
L 163.063223 -217.871748 
L 162.758748 -217.326039 
L 162.418763 -216.78033 
L 162.045342 -216.234621 
L 161.642284 -215.688912 
L 161.214796 -215.143203 
L 160.769137 -214.597495 
L 160.312235 -214.051786 
L 159.851318 -213.506077 
L 159.393556 -212.960368 
L 158.945745 -212.414659 
L 158.51404 -211.86895 
L 158.103743 -211.323241 
L 157.71917 -210.777533 
L 157.363563 -210.231824 
L 157.039083 -209.686115 
L 156.746844 -209.140406 
L 156.487003 -208.594697 
L 156.258876 -208.048988 
L 156.061081 -207.503279 
L 155.891693 -206.957571 
L 155.748398 -206.411862 
z
" style="stroke: #595959; stroke-width: 1.25"/>
    </defs>
    <g clip-path="url(#p1ce7e0c51a)">
     <use xlink:href="#m2dc0e3716c" x="0" y="279.674688" style="fill: #e99675; stroke: #595959; stroke-width: 1.25"/>
    </g>
   </g>
   <g id="PolyCollection_3">
    <defs>
     <path id="mdc87d90c65" d="M 230.610268 -230.34063 
L 228.234834 -230.34063 
L 227.939294 -230.671196 
L 227.587779 -231.001762 
L 227.17438 -231.332328 
L 226.693714 -231.662894 
L 226.14124 -231.99346 
L 225.513605 -232.324026 
L 224.808984 -232.654592 
L 224.027411 -232.985158 
L 223.17107 -233.315724 
L 222.244514 -233.64629 
L 221.254806 -233.976857 
L 220.211536 -234.307423 
L 219.126715 -234.637989 
L 218.014522 -234.968555 
L 216.890911 -235.299121 
L 215.773072 -235.629687 
L 214.678775 -235.960253 
L 213.625621 -236.290819 
L 212.630237 -236.621385 
L 211.707459 -236.951951 
L 210.869561 -237.282517 
L 210.125567 -237.613083 
L 209.480721 -237.943649 
L 208.936124 -238.274215 
L 208.488602 -238.604781 
L 208.130805 -238.935348 
L 207.851543 -239.265914 
L 207.636354 -239.59648 
L 207.468262 -239.927046 
L 207.328693 -240.257612 
L 207.19849 -240.588178 
L 207.058962 -240.918744 
L 206.892909 -241.24931 
L 206.685566 -241.579876 
L 206.425396 -241.910442 
L 206.104713 -242.241008 
L 205.720075 -242.571574 
L 205.272459 -242.90214 
L 204.767202 -243.232706 
L 204.213717 -243.563272 
L 203.625022 -243.893838 
L 203.017101 -244.224405 
L 202.408148 -244.554971 
L 201.81773 -244.885537 
L 201.26592 -245.216103 
L 200.772427 -245.546669 
L 200.355784 -245.877235 
L 200.032612 -246.207801 
L 199.816986 -246.538367 
L 199.719943 -246.868933 
L 199.749119 -247.199499 
L 199.908554 -247.530065 
L 200.198638 -247.860631 
L 200.616216 -248.191197 
L 201.154829 -248.521763 
L 201.805076 -248.852329 
L 202.555087 -249.182895 
L 203.391065 -249.513462 
L 204.297885 -249.844028 
L 205.259715 -250.174594 
L 206.260633 -250.50516 
L 207.285203 -250.835726 
L 208.318995 -251.166292 
L 209.349033 -251.496858 
L 210.364131 -251.827424 
L 211.355134 -252.15799 
L 212.315036 -252.488556 
L 213.238998 -252.819122 
L 214.124253 -253.149688 
L 214.969921 -253.480254 
L 215.776751 -253.81082 
L 216.546803 -254.141386 
L 217.283098 -254.471952 
L 217.989255 -254.802519 
L 218.669134 -255.133085 
L 219.326506 -255.463651 
L 219.964775 -255.794217 
L 220.586745 -256.124783 
L 221.194461 -256.455349 
L 221.789116 -256.785915 
L 222.371028 -257.116481 
L 222.939679 -257.447047 
L 223.493812 -257.777613 
L 224.031568 -258.108179 
L 224.55066 -258.438745 
L 225.048558 -258.769311 
L 225.522678 -259.099877 
L 225.970564 -259.430443 
L 226.390046 -259.76101 
L 226.779365 -260.091576 
L 227.137275 -260.422142 
L 227.463093 -260.752708 
L 227.756719 -261.083274 
L 228.018627 -261.41384 
L 228.249812 -261.744406 
L 228.451731 -262.074972 
L 228.626215 -262.405538 
L 228.775377 -262.736104 
L 228.901519 -263.06667 
L 229.943583 -263.06667 
L 229.943583 -263.06667 
L 230.069725 -262.736104 
L 230.218887 -262.405538 
L 230.393371 -262.074972 
L 230.59529 -261.744406 
L 230.826475 -261.41384 
L 231.088382 -261.083274 
L 231.382009 -260.752708 
L 231.707827 -260.422142 
L 232.065737 -260.091576 
L 232.455056 -259.76101 
L 232.874538 -259.430443 
L 233.322424 -259.099877 
L 233.796544 -258.769311 
L 234.294442 -258.438745 
L 234.813534 -258.108179 
L 235.35129 -257.777613 
L 235.905423 -257.447047 
L 236.474074 -257.116481 
L 237.055986 -256.785915 
L 237.650641 -256.455349 
L 238.258357 -256.124783 
L 238.880327 -255.794217 
L 239.518596 -255.463651 
L 240.175968 -255.133085 
L 240.855847 -254.802519 
L 241.562004 -254.471952 
L 242.298299 -254.141386 
L 243.068351 -253.81082 
L 243.875181 -253.480254 
L 244.720849 -253.149688 
L 245.606104 -252.819122 
L 246.530066 -252.488556 
L 247.489968 -252.15799 
L 248.480971 -251.827424 
L 249.496069 -251.496858 
L 250.526107 -251.166292 
L 251.559899 -250.835726 
L 252.584468 -250.50516 
L 253.585386 -250.174594 
L 254.547217 -249.844028 
L 255.454037 -249.513462 
L 256.290015 -249.182895 
L 257.040026 -248.852329 
L 257.690273 -248.521763 
L 258.228886 -248.191197 
L 258.646464 -247.860631 
L 258.936548 -247.530065 
L 259.095983 -247.199499 
L 259.125159 -246.868933 
L 259.028116 -246.538367 
L 258.81249 -246.207801 
L 258.489318 -245.877235 
L 258.072675 -245.546669 
L 257.579182 -245.216103 
L 257.027371 -244.885537 
L 256.436954 -244.554971 
L 255.828001 -244.224405 
L 255.22008 -243.893838 
L 254.631384 -243.563272 
L 254.0779 -243.232706 
L 253.572643 -242.90214 
L 253.125027 -242.571574 
L 252.740389 -242.241008 
L 252.419706 -241.910442 
L 252.159536 -241.579876 
L 251.952193 -241.24931 
L 251.78614 -240.918744 
L 251.646612 -240.588178 
L 251.516409 -240.257612 
L 251.37684 -239.927046 
L 251.208748 -239.59648 
L 250.993559 -239.265914 
L 250.714297 -238.935348 
L 250.3565 -238.604781 
L 249.908978 -238.274215 
L 249.364381 -237.943649 
L 248.719535 -237.613083 
L 247.975541 -237.282517 
L 247.137643 -236.951951 
L 246.214865 -236.621385 
L 245.219481 -236.290819 
L 244.166327 -235.960253 
L 243.07203 -235.629687 
L 241.954191 -235.299121 
L 240.83058 -234.968555 
L 239.718387 -234.637989 
L 238.633566 -234.307423 
L 237.590296 -233.976857 
L 236.600588 -233.64629 
L 235.674032 -233.315724 
L 234.817691 -232.985158 
L 234.036118 -232.654592 
L 233.331497 -232.324026 
L 232.703862 -231.99346 
L 232.151388 -231.662894 
L 231.670722 -231.332328 
L 231.257323 -231.001762 
L 230.905808 -230.671196 
L 230.610268 -230.34063 
z
" style="stroke: #595959; stroke-width: 1.25"/>
    </defs>
    <g clip-path="url(#p1ce7e0c51a)">
     <use xlink:href="#mdc87d90c65" x="0" y="279.674688" style="fill: #95a3c3; stroke: #595959; stroke-width: 1.25"/>
    </g>
   </g>
   <g id="matplotlib.axis_1">
    <g id="xtick_1">
     <g id="line2d_1">
      <defs>
       <path id="m2caea728b6" d="M 0 0 
L 0 3.5 
" style="stroke: #000000; stroke-width: 0.8"/>
      </defs>
      <g>
       <use xlink:href="#m2caea728b6" x="80.90951" y="242.118437" style="stroke: #000000; stroke-width: 0.8"/>
      </g>
     </g>
     <g id="text_1">
      <!-- Deep -->
      <g transform="translate(67.732166 256.716875) scale(0.1 -0.1)">
       <defs>
        <path id="DejaVuSans-44" d="M 1259 4147 
L 1259 519 
L 2022 519 
Q 2988 519 3436 956 
Q 3884 1394 3884 2338 
Q 3884 3275 3436 3711 
Q 2988 4147 2022 4147 
L 1259 4147 
z
M 628 4666 
L 1925 4666 
Q 3281 4666 3915 4102 
Q 4550 3538 4550 2338 
Q 4550 1131 3912 565 
Q 3275 0 1925 0 
L 628 0 
L 628 4666 
z
" transform="scale(0.015625)"/>
        <path id="DejaVuSans-65" d="M 3597 1894 
L 3597 1613 
L 953 1613 
Q 991 1019 1311 708 
Q 1631 397 2203 397 
Q 2534 397 2845 478 
Q 3156 559 3463 722 
L 3463 178 
Q 3153 47 2828 -22 
Q 2503 -91 2169 -91 
Q 1331 -91 842 396 
Q 353 884 353 1716 
Q 353 2575 817 3079 
Q 1281 3584 2069 3584 
Q 2775 3584 3186 3129 
Q 3597 2675 3597 1894 
z
M 3022 2063 
Q 3016 2534 2758 2815 
Q 2500 3097 2075 3097 
Q 1594 3097 1305 2825 
Q 1016 2553 972 2059 
L 3022 2063 
z
" transform="scale(0.015625)"/>
        <path id="DejaVuSans-70" d="M 1159 525 
L 1159 -1331 
L 581 -1331 
L 581 3500 
L 1159 3500 
L 1159 2969 
Q 1341 3281 1617 3432 
Q 1894 3584 2278 3584 
Q 2916 3584 3314 3078 
Q 3713 2572 3713 1747 
Q 3713 922 3314 415 
Q 2916 -91 2278 -91 
Q 1894 -91 1617 61 
Q 1341 213 1159 525 
z
M 3116 1747 
Q 3116 2381 2855 2742 
Q 2594 3103 2138 3103 
Q 1681 3103 1420 2742 
Q 1159 2381 1159 1747 
Q 1159 1113 1420 752 
Q 1681 391 2138 391 
Q 2594 391 2855 752 
Q 3116 1113 3116 1747 
z
" transform="scale(0.015625)"/>
       </defs>
       <use xlink:href="#DejaVuSans-44"/>
       <use xlink:href="#DejaVuSans-65" x="77.001953"/>
       <use xlink:href="#DejaVuSans-65" x="138.525391"/>
       <use xlink:href="#DejaVuSans-70" x="200.048828"/>
      </g>
     </g>
    </g>
    <g id="xtick_2">
     <g id="line2d_2">
      <g>
       <use xlink:href="#m2caea728b6" x="155.166031" y="242.118437" style="stroke: #000000; stroke-width: 0.8"/>
      </g>
     </g>
     <g id="text_2">
      <!-- Middle -->
      <g transform="translate(138.648843 256.716875) scale(0.1 -0.1)">
       <defs>
        <path id="DejaVuSans-4d" d="M 628 4666 
L 1569 4666 
L 2759 1491 
L 3956 4666 
L 4897 4666 
L 4897 0 
L 4281 0 
L 4281 4097 
L 3078 897 
L 2444 897 
L 1241 4097 
L 1241 0 
L 628 0 
L 628 4666 
z
" transform="scale(0.015625)"/>
        <path id="DejaVuSans-69" d="M 603 3500 
L 1178 3500 
L 1178 0 
L 603 0 
L 603 3500 
z
M 603 4863 
L 1178 4863 
L 1178 4134 
L 603 4134 
L 603 4863 
z
" transform="scale(0.015625)"/>
        <path id="DejaVuSans-64" d="M 2906 2969 
L 2906 4863 
L 3481 4863 
L 3481 0 
L 2906 0 
L 2906 525 
Q 2725 213 2448 61 
Q 2172 -91 1784 -91 
Q 1150 -91 751 415 
Q 353 922 353 1747 
Q 353 2572 751 3078 
Q 1150 3584 1784 3584 
Q 2172 3584 2448 3432 
Q 2725 3281 2906 2969 
z
M 947 1747 
Q 947 1113 1208 752 
Q 1469 391 1925 391 
Q 2381 391 2643 752 
Q 2906 1113 2906 1747 
Q 2906 2381 2643 2742 
Q 2381 3103 1925 3103 
Q 1469 3103 1208 2742 
Q 947 2381 947 1747 
z
" transform="scale(0.015625)"/>
        <path id="DejaVuSans-6c" d="M 603 4863 
L 1178 4863 
L 1178 0 
L 603 0 
L 603 4863 
z
" transform="scale(0.015625)"/>
       </defs>
       <use xlink:href="#DejaVuSans-4d"/>
       <use xlink:href="#DejaVuSans-69" x="86.279297"/>
       <use xlink:href="#DejaVuSans-64" x="114.0625"/>
       <use xlink:href="#DejaVuSans-64" x="177.539062"/>
       <use xlink:href="#DejaVuSans-6c" x="241.015625"/>
       <use xlink:href="#DejaVuSans-65" x="268.798828"/>
      </g>
     </g>
    </g>
    <g id="xtick_3">
     <g id="line2d_3">
      <g>
       <use xlink:href="#m2caea728b6" x="229.422551" y="242.118437" style="stroke: #000000; stroke-width: 0.8"/>
      </g>
     </g>
     <g id="text_3">
      <!-- Superficial -->
      <g transform="translate(203.032707 256.716875) scale(0.1 -0.1)">
       <defs>
        <path id="DejaVuSans-53" d="M 3425 4513 
L 3425 3897 
Q 3066 4069 2747 4153 
Q 2428 4238 2131 4238 
Q 1616 4238 1336 4038 
Q 1056 3838 1056 3469 
Q 1056 3159 1242 3001 
Q 1428 2844 1947 2747 
L 2328 2669 
Q 3034 2534 3370 2195 
Q 3706 1856 3706 1288 
Q 3706 609 3251 259 
Q 2797 -91 1919 -91 
Q 1588 -91 1214 -16 
Q 841 59 441 206 
L 441 856 
Q 825 641 1194 531 
Q 1563 422 1919 422 
Q 2459 422 2753 634 
Q 3047 847 3047 1241 
Q 3047 1584 2836 1778 
Q 2625 1972 2144 2069 
L 1759 2144 
Q 1053 2284 737 2584 
Q 422 2884 422 3419 
Q 422 4038 858 4394 
Q 1294 4750 2059 4750 
Q 2388 4750 2728 4690 
Q 3069 4631 3425 4513 
z
" transform="scale(0.015625)"/>
        <path id="DejaVuSans-75" d="M 544 1381 
L 544 3500 
L 1119 3500 
L 1119 1403 
Q 1119 906 1312 657 
Q 1506 409 1894 409 
Q 2359 409 2629 706 
Q 2900 1003 2900 1516 
L 2900 3500 
L 3475 3500 
L 3475 0 
L 2900 0 
L 2900 538 
Q 2691 219 2414 64 
Q 2138 -91 1772 -91 
Q 1169 -91 856 284 
Q 544 659 544 1381 
z
M 1991 3584 
L 1991 3584 
z
" transform="scale(0.015625)"/>
        <path id="DejaVuSans-72" d="M 2631 2963 
Q 2534 3019 2420 3045 
Q 2306 3072 2169 3072 
Q 1681 3072 1420 2755 
Q 1159 2438 1159 1844 
L 1159 0 
L 581 0 
L 581 3500 
L 1159 3500 
L 1159 2956 
Q 1341 3275 1631 3429 
Q 1922 3584 2338 3584 
Q 2397 3584 2469 3576 
Q 2541 3569 2628 3553 
L 2631 2963 
z
" transform="scale(0.015625)"/>
        <path id="DejaVuSans-66" d="M 2375 4863 
L 2375 4384 
L 1825 4384 
Q 1516 4384 1395 4259 
Q 1275 4134 1275 3809 
L 1275 3500 
L 2222 3500 
L 2222 3053 
L 1275 3053 
L 1275 0 
L 697 0 
L 697 3053 
L 147 3053 
L 147 3500 
L 697 3500 
L 697 3744 
Q 697 4328 969 4595 
Q 1241 4863 1831 4863 
L 2375 4863 
z
" transform="scale(0.015625)"/>
        <path id="DejaVuSans-63" d="M 3122 3366 
L 3122 2828 
Q 2878 2963 2633 3030 
Q 2388 3097 2138 3097 
Q 1578 3097 1268 2742 
Q 959 2388 959 1747 
Q 959 1106 1268 751 
Q 1578 397 2138 397 
Q 2388 397 2633 464 
Q 2878 531 3122 666 
L 3122 134 
Q 2881 22 2623 -34 
Q 2366 -91 2075 -91 
Q 1284 -91 818 406 
Q 353 903 353 1747 
Q 353 2603 823 3093 
Q 1294 3584 2113 3584 
Q 2378 3584 2631 3529 
Q 2884 3475 3122 3366 
z
" transform="scale(0.015625)"/>
        <path id="DejaVuSans-61" d="M 2194 1759 
Q 1497 1759 1228 1600 
Q 959 1441 959 1056 
Q 959 750 1161 570 
Q 1363 391 1709 391 
Q 2188 391 2477 730 
Q 2766 1069 2766 1631 
L 2766 1759 
L 2194 1759 
z
M 3341 1997 
L 3341 0 
L 2766 0 
L 2766 531 
Q 2569 213 2275 61 
Q 1981 -91 1556 -91 
Q 1019 -91 701 211 
Q 384 513 384 1019 
Q 384 1609 779 1909 
Q 1175 2209 1959 2209 
L 2766 2209 
L 2766 2266 
Q 2766 2663 2505 2880 
Q 2244 3097 1772 3097 
Q 1472 3097 1187 3025 
Q 903 2953 641 2809 
L 641 3341 
Q 956 3463 1253 3523 
Q 1550 3584 1831 3584 
Q 2591 3584 2966 3190 
Q 3341 2797 3341 1997 
z
" transform="scale(0.015625)"/>
       </defs>
       <use xlink:href="#DejaVuSans-53"/>
       <use xlink:href="#DejaVuSans-75" x="63.476562"/>
       <use xlink:href="#DejaVuSans-70" x="126.855469"/>
       <use xlink:href="#DejaVuSans-65" x="190.332031"/>
       <use xlink:href="#DejaVuSans-72" x="251.855469"/>
       <use xlink:href="#DejaVuSans-66" x="292.96875"/>
       <use xlink:href="#DejaVuSans-69" x="328.173828"/>
       <use xlink:href="#DejaVuSans-63" x="355.957031"/>
       <use xlink:href="#DejaVuSans-69" x="410.9375"/>
       <use xlink:href="#DejaVuSans-61" x="438.720703"/>
       <use xlink:href="#DejaVuSans-6c" x="500"/>
      </g>
     </g>
    </g>
    <g id="text_4">
     <!-- Layer -->
     <g transform="translate(141.224624 270.395) scale(0.1 -0.1)">
      <defs>
       <path id="DejaVuSans-4c" d="M 628 4666 
L 1259 4666 
L 1259 531 
L 3531 531 
L 3531 0 
L 628 0 
L 628 4666 
z
" transform="scale(0.015625)"/>
       <path id="DejaVuSans-79" d="M 2059 -325 
Q 1816 -950 1584 -1140 
Q 1353 -1331 966 -1331 
L 506 -1331 
L 506 -850 
L 844 -850 
Q 1081 -850 1212 -737 
Q 1344 -625 1503 -206 
L 1606 56 
L 191 3500 
L 800 3500 
L 1894 763 
L 2988 3500 
L 3597 3500 
L 2059 -325 
z
" transform="scale(0.015625)"/>
      </defs>
      <use xlink:href="#DejaVuSans-4c"/>
      <use xlink:href="#DejaVuSans-61" x="55.712891"/>
      <use xlink:href="#DejaVuSans-79" x="116.992188"/>
      <use xlink:href="#DejaVuSans-65" x="176.171875"/>
      <use xlink:href="#DejaVuSans-72" x="237.695312"/>
     </g>
    </g>
   </g>
   <g id="matplotlib.axis_2">
    <g id="ytick_1">
     <g id="line2d_4">
      <defs>
       <path id="ma7016f36d8" d="M 0 0 
L -3.5 0 
" style="stroke: #000000; stroke-width: 0.8"/>
      </defs>
      <g>
       <use xlink:href="#ma7016f36d8" x="43.78125" y="242.118437" style="stroke: #000000; stroke-width: 0.8"/>
      </g>
     </g>
     <g id="text_5">
      <!-- 0.0 -->
      <g transform="translate(20.878125 245.917656) scale(0.1 -0.1)">
       <defs>
        <path id="DejaVuSans-30" d="M 2034 4250 
Q 1547 4250 1301 3770 
Q 1056 3291 1056 2328 
Q 1056 1369 1301 889 
Q 1547 409 2034 409 
Q 2525 409 2770 889 
Q 3016 1369 3016 2328 
Q 3016 3291 2770 3770 
Q 2525 4250 2034 4250 
z
M 2034 4750 
Q 2819 4750 3233 4129 
Q 3647 3509 3647 2328 
Q 3647 1150 3233 529 
Q 2819 -91 2034 -91 
Q 1250 -91 836 529 
Q 422 1150 422 2328 
Q 422 3509 836 4129 
Q 1250 4750 2034 4750 
z
" transform="scale(0.015625)"/>
        <path id="DejaVuSans-2e" d="M 684 794 
L 1344 794 
L 1344 0 
L 684 0 
L 684 794 
z
" transform="scale(0.015625)"/>
       </defs>
       <use xlink:href="#DejaVuSans-30"/>
       <use xlink:href="#DejaVuSans-2e" x="63.623047"/>
       <use xlink:href="#DejaVuSans-30" x="95.410156"/>
      </g>
     </g>
    </g>
    <g id="ytick_2">
     <g id="line2d_5">
      <g>
       <use xlink:href="#ma7016f36d8" x="43.78125" y="197.854437" style="stroke: #000000; stroke-width: 0.8"/>
      </g>
     </g>
     <g id="text_6">
      <!-- 0.2 -->
      <g transform="translate(20.878125 201.653656) scale(0.1 -0.1)">
       <defs>
        <path id="DejaVuSans-32" d="M 1228 531 
L 3431 531 
L 3431 0 
L 469 0 
L 469 531 
Q 828 903 1448 1529 
Q 2069 2156 2228 2338 
Q 2531 2678 2651 2914 
Q 2772 3150 2772 3378 
Q 2772 3750 2511 3984 
Q 2250 4219 1831 4219 
Q 1534 4219 1204 4116 
Q 875 4013 500 3803 
L 500 4441 
Q 881 4594 1212 4672 
Q 1544 4750 1819 4750 
Q 2544 4750 2975 4387 
Q 3406 4025 3406 3419 
Q 3406 3131 3298 2873 
Q 3191 2616 2906 2266 
Q 2828 2175 2409 1742 
Q 1991 1309 1228 531 
z
" transform="scale(0.015625)"/>
       </defs>
       <use xlink:href="#DejaVuSans-30"/>
       <use xlink:href="#DejaVuSans-2e" x="63.623047"/>
       <use xlink:href="#DejaVuSans-32" x="95.410156"/>
      </g>
     </g>
    </g>
    <g id="ytick_3">
     <g id="line2d_6">
      <g>
       <use xlink:href="#ma7016f36d8" x="43.78125" y="153.590437" style="stroke: #000000; stroke-width: 0.8"/>
      </g>
     </g>
     <g id="text_7">
      <!-- 0.4 -->
      <g transform="translate(20.878125 157.389656) scale(0.1 -0.1)">
       <defs>
        <path id="DejaVuSans-34" d="M 2419 4116 
L 825 1625 
L 2419 1625 
L 2419 4116 
z
M 2253 4666 
L 3047 4666 
L 3047 1625 
L 3713 1625 
L 3713 1100 
L 3047 1100 
L 3047 0 
L 2419 0 
L 2419 1100 
L 313 1100 
L 313 1709 
L 2253 4666 
z
" transform="scale(0.015625)"/>
       </defs>
       <use xlink:href="#DejaVuSans-30"/>
       <use xlink:href="#DejaVuSans-2e" x="63.623047"/>
       <use xlink:href="#DejaVuSans-34" x="95.410156"/>
      </g>
     </g>
    </g>
    <g id="ytick_4">
     <g id="line2d_7">
      <g>
       <use xlink:href="#ma7016f36d8" x="43.78125" y="109.326437" style="stroke: #000000; stroke-width: 0.8"/>
      </g>
     </g>
     <g id="text_8">
      <!-- 0.6 -->
      <g transform="translate(20.878125 113.125656) scale(0.1 -0.1)">
       <defs>
        <path id="DejaVuSans-36" d="M 2113 2584 
Q 1688 2584 1439 2293 
Q 1191 2003 1191 1497 
Q 1191 994 1439 701 
Q 1688 409 2113 409 
Q 2538 409 2786 701 
Q 3034 994 3034 1497 
Q 3034 2003 2786 2293 
Q 2538 2584 2113 2584 
z
M 3366 4563 
L 3366 3988 
Q 3128 4100 2886 4159 
Q 2644 4219 2406 4219 
Q 1781 4219 1451 3797 
Q 1122 3375 1075 2522 
Q 1259 2794 1537 2939 
Q 1816 3084 2150 3084 
Q 2853 3084 3261 2657 
Q 3669 2231 3669 1497 
Q 3669 778 3244 343 
Q 2819 -91 2113 -91 
Q 1303 -91 875 529 
Q 447 1150 447 2328 
Q 447 3434 972 4092 
Q 1497 4750 2381 4750 
Q 2619 4750 2861 4703 
Q 3103 4656 3366 4563 
z
" transform="scale(0.015625)"/>
       </defs>
       <use xlink:href="#DejaVuSans-30"/>
       <use xlink:href="#DejaVuSans-2e" x="63.623047"/>
       <use xlink:href="#DejaVuSans-36" x="95.410156"/>
      </g>
     </g>
    </g>
    <g id="ytick_5">
     <g id="line2d_8">
      <g>
       <use xlink:href="#ma7016f36d8" x="43.78125" y="65.062437" style="stroke: #000000; stroke-width: 0.8"/>
      </g>
     </g>
     <g id="text_9">
      <!-- 0.8 -->
      <g transform="translate(20.878125 68.861656) scale(0.1 -0.1)">
       <defs>
        <path id="DejaVuSans-38" d="M 2034 2216 
Q 1584 2216 1326 1975 
Q 1069 1734 1069 1313 
Q 1069 891 1326 650 
Q 1584 409 2034 409 
Q 2484 409 2743 651 
Q 3003 894 3003 1313 
Q 3003 1734 2745 1975 
Q 2488 2216 2034 2216 
z
M 1403 2484 
Q 997 2584 770 2862 
Q 544 3141 544 3541 
Q 544 4100 942 4425 
Q 1341 4750 2034 4750 
Q 2731 4750 3128 4425 
Q 3525 4100 3525 3541 
Q 3525 3141 3298 2862 
Q 3072 2584 2669 2484 
Q 3125 2378 3379 2068 
Q 3634 1759 3634 1313 
Q 3634 634 3220 271 
Q 2806 -91 2034 -91 
Q 1263 -91 848 271 
Q 434 634 434 1313 
Q 434 1759 690 2068 
Q 947 2378 1403 2484 
z
M 1172 3481 
Q 1172 3119 1398 2916 
Q 1625 2713 2034 2713 
Q 2441 2713 2670 2916 
Q 2900 3119 2900 3481 
Q 2900 3844 2670 4047 
Q 2441 4250 2034 4250 
Q 1625 4250 1398 4047 
Q 1172 3844 1172 3481 
z
" transform="scale(0.015625)"/>
       </defs>
       <use xlink:href="#DejaVuSans-30"/>
       <use xlink:href="#DejaVuSans-2e" x="63.623047"/>
       <use xlink:href="#DejaVuSans-38" x="95.410156"/>
      </g>
     </g>
    </g>
    <g id="ytick_6">
     <g id="line2d_9">
      <g>
       <use xlink:href="#ma7016f36d8" x="43.78125" y="20.798437" style="stroke: #000000; stroke-width: 0.8"/>
      </g>
     </g>
     <g id="text_10">
      <!-- 1.0 -->
      <g transform="translate(20.878125 24.597656) scale(0.1 -0.1)">
       <defs>
        <path id="DejaVuSans-31" d="M 794 531 
L 1825 531 
L 1825 4091 
L 703 3866 
L 703 4441 
L 1819 4666 
L 2450 4666 
L 2450 531 
L 3481 531 
L 3481 0 
L 794 0 
L 794 531 
z
" transform="scale(0.015625)"/>
       </defs>
       <use xlink:href="#DejaVuSans-31"/>
       <use xlink:href="#DejaVuSans-2e" x="63.623047"/>
       <use xlink:href="#DejaVuSans-30" x="95.410156"/>
      </g>
     </g>
    </g>
    <g id="text_11">
     <!-- Accuracy -->
     <g transform="translate(14.798438 154.286563) rotate(-90) scale(0.1 -0.1)">
      <defs>
       <path id="DejaVuSans-41" d="M 2188 4044 
L 1331 1722 
L 3047 1722 
L 2188 4044 
z
M 1831 4666 
L 2547 4666 
L 4325 0 
L 3669 0 
L 3244 1197 
L 1141 1197 
L 716 0 
L 50 0 
L 1831 4666 
z
" transform="scale(0.015625)"/>
      </defs>
      <use xlink:href="#DejaVuSans-41"/>
      <use xlink:href="#DejaVuSans-63" x="66.658203"/>
      <use xlink:href="#DejaVuSans-63" x="121.638672"/>
      <use xlink:href="#DejaVuSans-75" x="176.619141"/>
      <use xlink:href="#DejaVuSans-72" x="239.998047"/>
      <use xlink:href="#DejaVuSans-61" x="281.111328"/>
      <use xlink:href="#DejaVuSans-63" x="342.390625"/>
      <use xlink:href="#DejaVuSans-79" x="397.371094"/>
     </g>
    </g>
   </g>
   <g id="line2d_10">
    <path d="M 43.78125 131.458438 
L 266.550811 131.458438 
" clip-path="url(#p1ce7e0c51a)" style="fill: none; stroke-dasharray: 5.55,2.4; stroke-dashoffset: 0; stroke: #808080; stroke-width: 1.5"/>
   </g>
   <g id="patch_3">
    <path d="M 43.78125 242.118437 
L 43.78125 20.798437 
" style="fill: none; stroke: #000000; stroke-width: 0.8; stroke-linejoin: miter; stroke-linecap: square"/>
   </g>
   <g id="patch_4">
    <path d="M 43.78125 242.118437 
L 266.550811 242.118437 
" style="fill: none; stroke: #000000; stroke-width: 0.8; stroke-linejoin: miter; stroke-linecap: square"/>
   </g>
   <g id="PathCollection_1">
    <defs>
     <path id="m08d66d99ee" d="M 0 1.25 
C 0.331504 1.25 0.649475 1.118292 0.883883 0.883883 
C 1.118292 0.649475 1.25 0.331504 1.25 0 
C 1.25 -0.331504 1.118292 -0.649475 0.883883 -0.883883 
C 0.649475 -1.118292 0.331504 -1.25 0 -1.25 
C -0.331504 -1.25 -0.649475 -1.118292 -0.883883 -0.883883 
C -1.118292 -0.649475 -1.25 -0.331504 -1.25 0 
C -1.25 0.331504 -1.118292 0.649475 -0.883883 0.883883 
C -0.649475 1.118292 -0.331504 1.25 0 1.25 
z
" style="stroke: #595959"/>
    </defs>
    <g clip-path="url(#p1ce7e0c51a)">
     <use xlink:href="#m08d66d99ee" x="80.90951" y="20.798437" style="fill: #595959; stroke: #595959"/>
     <use xlink:href="#m08d66d99ee" x="80.90951" y="25.224837" style="fill: #595959; stroke: #595959"/>
     <use xlink:href="#m08d66d99ee" x="80.90951" y="23.011637" style="fill: #595959; stroke: #595959"/>
     <use xlink:href="#m08d66d99ee" x="80.90951" y="25.224837" style="fill: #595959; stroke: #595959"/>
     <use xlink:href="#m08d66d99ee" x="80.90951" y="23.011637" style="fill: #595959; stroke: #595959"/>
     <use xlink:href="#m08d66d99ee" x="80.90951" y="20.798437" style="fill: #595959; stroke: #595959"/>
     <use xlink:href="#m08d66d99ee" x="80.90951" y="23.011637" style="fill: #595959; stroke: #595959"/>
     <use xlink:href="#m08d66d99ee" x="80.90951" y="36.290837" style="fill: #595959; stroke: #595959"/>
     <use xlink:href="#m08d66d99ee" x="80.90951" y="29.651237" style="fill: #595959; stroke: #595959"/>
     <use xlink:href="#m08d66d99ee" x="80.90951" y="23.011637" style="fill: #595959; stroke: #595959"/>
     <use xlink:href="#m08d66d99ee" x="80.90951" y="20.798437" style="fill: #595959; stroke: #595959"/>
     <use xlink:href="#m08d66d99ee" x="80.90951" y="31.864437" style="fill: #595959; stroke: #595959"/>
     <use xlink:href="#m08d66d99ee" x="80.90951" y="25.224837" style="fill: #595959; stroke: #595959"/>
     <use xlink:href="#m08d66d99ee" x="80.90951" y="23.011637" style="fill: #595959; stroke: #595959"/>
     <use xlink:href="#m08d66d99ee" x="80.90951" y="25.224837" style="fill: #595959; stroke: #595959"/>
     <use xlink:href="#m08d66d99ee" x="80.90951" y="27.438037" style="fill: #595959; stroke: #595959"/>
     <use xlink:href="#m08d66d99ee" x="80.90951" y="23.011637" style="fill: #595959; stroke: #595959"/>
     <use xlink:href="#m08d66d99ee" x="80.90951" y="20.798437" style="fill: #595959; stroke: #595959"/>
     <use xlink:href="#m08d66d99ee" x="80.90951" y="20.798437" style="fill: #595959; stroke: #595959"/>
     <use xlink:href="#m08d66d99ee" x="80.90951" y="23.011637" style="fill: #595959; stroke: #595959"/>
    </g>
   </g>
   <g id="PathCollection_2">
    <g clip-path="url(#p1ce7e0c51a)">
     <use xlink:href="#m08d66d99ee" x="155.166031" y="62.849237" style="fill: #595959; stroke: #595959"/>
     <use xlink:href="#m08d66d99ee" x="155.166031" y="31.864437" style="fill: #595959; stroke: #595959"/>
     <use xlink:href="#m08d66d99ee" x="155.166031" y="29.651237" style="fill: #595959; stroke: #595959"/>
     <use xlink:href="#m08d66d99ee" x="155.166031" y="60.636037" style="fill: #595959; stroke: #595959"/>
     <use xlink:href="#m08d66d99ee" x="155.166031" y="45.143637" style="fill: #595959; stroke: #595959"/>
     <use xlink:href="#m08d66d99ee" x="155.166031" y="36.290837" style="fill: #595959; stroke: #595959"/>
     <use xlink:href="#m08d66d99ee" x="155.166031" y="36.290837" style="fill: #595959; stroke: #595959"/>
     <use xlink:href="#m08d66d99ee" x="155.166031" y="47.356837" style="fill: #595959; stroke: #595959"/>
     <use xlink:href="#m08d66d99ee" x="155.166031" y="47.356837" style="fill: #595959; stroke: #595959"/>
     <use xlink:href="#m08d66d99ee" x="155.166031" y="56.209638" style="fill: #595959; stroke: #595959"/>
     <use xlink:href="#m08d66d99ee" x="155.166031" y="38.504037" style="fill: #595959; stroke: #595959"/>
     <use xlink:href="#m08d66d99ee" x="155.166031" y="31.864437" style="fill: #595959; stroke: #595959"/>
     <use xlink:href="#m08d66d99ee" x="155.166031" y="38.504037" style="fill: #595959; stroke: #595959"/>
     <use xlink:href="#m08d66d99ee" x="155.166031" y="47.356838" style="fill: #595959; stroke: #595959"/>
     <use xlink:href="#m08d66d99ee" x="155.166031" y="47.356837" style="fill: #595959; stroke: #595959"/>
     <use xlink:href="#m08d66d99ee" x="155.166031" y="36.290837" style="fill: #595959; stroke: #595959"/>
     <use xlink:href="#m08d66d99ee" x="155.166031" y="38.504037" style="fill: #595959; stroke: #595959"/>
     <use xlink:href="#m08d66d99ee" x="155.166031" y="31.864437" style="fill: #595959; stroke: #595959"/>
     <use xlink:href="#m08d66d99ee" x="155.166031" y="42.930437" style="fill: #595959; stroke: #595959"/>
     <use xlink:href="#m08d66d99ee" x="155.166031" y="45.143638" style="fill: #595959; stroke: #595959"/>
    </g>
   </g>
   <g id="PathCollection_3">
    <g clip-path="url(#p1ce7e0c51a)">
     <use xlink:href="#m08d66d99ee" x="229.422551" y="36.290837" style="fill: #595959; stroke: #595959"/>
     <use xlink:href="#m08d66d99ee" x="229.422551" y="29.651237" style="fill: #595959; stroke: #595959"/>
     <use xlink:href="#m08d66d99ee" x="229.422551" y="31.864437" style="fill: #595959; stroke: #595959"/>
     <use xlink:href="#m08d66d99ee" x="229.422551" y="40.717238" style="fill: #595959; stroke: #595959"/>
     <use xlink:href="#m08d66d99ee" x="229.422551" y="25.224837" style="fill: #595959; stroke: #595959"/>
     <use xlink:href="#m08d66d99ee" x="229.422551" y="23.011637" style="fill: #595959; stroke: #595959"/>
     <use xlink:href="#m08d66d99ee" x="229.422551" y="36.290837" style="fill: #595959; stroke: #595959"/>
     <use xlink:href="#m08d66d99ee" x="229.422551" y="40.717238" style="fill: #595959; stroke: #595959"/>
     <use xlink:href="#m08d66d99ee" x="229.422551" y="34.077637" style="fill: #595959; stroke: #595959"/>
     <use xlink:href="#m08d66d99ee" x="229.422551" y="34.077637" style="fill: #595959; stroke: #595959"/>
     <use xlink:href="#m08d66d99ee" x="229.422551" y="29.651237" style="fill: #595959; stroke: #595959"/>
     <use xlink:href="#m08d66d99ee" x="229.422551" y="34.077637" style="fill: #595959; stroke: #595959"/>
     <use xlink:href="#m08d66d99ee" x="229.422551" y="40.717238" style="fill: #595959; stroke: #595959"/>
     <use xlink:href="#m08d66d99ee" x="229.422551" y="31.864437" style="fill: #595959; stroke: #595959"/>
     <use xlink:href="#m08d66d99ee" x="229.422551" y="42.930437" style="fill: #595959; stroke: #595959"/>
     <use xlink:href="#m08d66d99ee" x="229.422551" y="42.930437" style="fill: #595959; stroke: #595959"/>
     <use xlink:href="#m08d66d99ee" x="229.422551" y="40.717238" style="fill: #595959; stroke: #595959"/>
     <use xlink:href="#m08d66d99ee" x="229.422551" y="31.864437" style="fill: #595959; stroke: #595959"/>
     <use xlink:href="#m08d66d99ee" x="229.422551" y="27.438037" style="fill: #595959; stroke: #595959"/>
     <use xlink:href="#m08d66d99ee" x="229.422551" y="31.864437" style="fill: #595959; stroke: #595959"/>
    </g>
   </g>
   <g id="text_12">
    <!-- Rho = 0.4 -->
    <g transform="translate(273.08589 106.436563) rotate(-270) scale(0.1 -0.1)">
     <defs>
      <path id="DejaVuSans-52" d="M 2841 2188 
Q 3044 2119 3236 1894 
Q 3428 1669 3622 1275 
L 4263 0 
L 3584 0 
L 2988 1197 
Q 2756 1666 2539 1819 
Q 2322 1972 1947 1972 
L 1259 1972 
L 1259 0 
L 628 0 
L 628 4666 
L 2053 4666 
Q 2853 4666 3247 4331 
Q 3641 3997 3641 3322 
Q 3641 2881 3436 2590 
Q 3231 2300 2841 2188 
z
M 1259 4147 
L 1259 2491 
L 2053 2491 
Q 2509 2491 2742 2702 
Q 2975 2913 2975 3322 
Q 2975 3731 2742 3939 
Q 2509 4147 2053 4147 
L 1259 4147 
z
" transform="scale(0.015625)"/>
      <path id="DejaVuSans-68" d="M 3513 2113 
L 3513 0 
L 2938 0 
L 2938 2094 
Q 2938 2591 2744 2837 
Q 2550 3084 2163 3084 
Q 1697 3084 1428 2787 
Q 1159 2491 1159 1978 
L 1159 0 
L 581 0 
L 581 4863 
L 1159 4863 
L 1159 2956 
Q 1366 3272 1645 3428 
Q 1925 3584 2291 3584 
Q 2894 3584 3203 3211 
Q 3513 2838 3513 2113 
z
" transform="scale(0.015625)"/>
      <path id="DejaVuSans-6f" d="M 1959 3097 
Q 1497 3097 1228 2736 
Q 959 2375 959 1747 
Q 959 1119 1226 758 
Q 1494 397 1959 397 
Q 2419 397 2687 759 
Q 2956 1122 2956 1747 
Q 2956 2369 2687 2733 
Q 2419 3097 1959 3097 
z
M 1959 3584 
Q 2709 3584 3137 3096 
Q 3566 2609 3566 1747 
Q 3566 888 3137 398 
Q 2709 -91 1959 -91 
Q 1206 -91 779 398 
Q 353 888 353 1747 
Q 353 2609 779 3096 
Q 1206 3584 1959 3584 
z
" transform="scale(0.015625)"/>
      <path id="DejaVuSans-20" transform="scale(0.015625)"/>
      <path id="DejaVuSans-3d" d="M 678 2906 
L 4684 2906 
L 4684 2381 
L 678 2381 
L 678 2906 
z
M 678 1631 
L 4684 1631 
L 4684 1100 
L 678 1100 
L 678 1631 
z
" transform="scale(0.015625)"/>
     </defs>
     <use xlink:href="#DejaVuSans-52"/>
     <use xlink:href="#DejaVuSans-68" x="69.482422"/>
     <use xlink:href="#DejaVuSans-6f" x="132.861328"/>
     <use xlink:href="#DejaVuSans-20" x="194.042969"/>
     <use xlink:href="#DejaVuSans-3d" x="225.830078"/>
     <use xlink:href="#DejaVuSans-20" x="309.619141"/>
     <use xlink:href="#DejaVuSans-30" x="341.40625"/>
     <use xlink:href="#DejaVuSans-2e" x="405.029297"/>
     <use xlink:href="#DejaVuSans-34" x="436.816406"/>
    </g>
   </g>
   <g id="text_13">
    <!-- CNR_change = 1 -->
    <g transform="translate(113.008999 14.798437) scale(0.1 -0.1)">
     <defs>
      <path id="DejaVuSans-43" d="M 4122 4306 
L 4122 3641 
Q 3803 3938 3442 4084 
Q 3081 4231 2675 4231 
Q 1875 4231 1450 3742 
Q 1025 3253 1025 2328 
Q 1025 1406 1450 917 
Q 1875 428 2675 428 
Q 3081 428 3442 575 
Q 3803 722 4122 1019 
L 4122 359 
Q 3791 134 3420 21 
Q 3050 -91 2638 -91 
Q 1578 -91 968 557 
Q 359 1206 359 2328 
Q 359 3453 968 4101 
Q 1578 4750 2638 4750 
Q 3056 4750 3426 4639 
Q 3797 4528 4122 4306 
z
" transform="scale(0.015625)"/>
      <path id="DejaVuSans-4e" d="M 628 4666 
L 1478 4666 
L 3547 763 
L 3547 4666 
L 4159 4666 
L 4159 0 
L 3309 0 
L 1241 3903 
L 1241 0 
L 628 0 
L 628 4666 
z
" transform="scale(0.015625)"/>
      <path id="DejaVuSans-5f" d="M 3263 -1063 
L 3263 -1509 
L -63 -1509 
L -63 -1063 
L 3263 -1063 
z
" transform="scale(0.015625)"/>
      <path id="DejaVuSans-6e" d="M 3513 2113 
L 3513 0 
L 2938 0 
L 2938 2094 
Q 2938 2591 2744 2837 
Q 2550 3084 2163 3084 
Q 1697 3084 1428 2787 
Q 1159 2491 1159 1978 
L 1159 0 
L 581 0 
L 581 3500 
L 1159 3500 
L 1159 2956 
Q 1366 3272 1645 3428 
Q 1925 3584 2291 3584 
Q 2894 3584 3203 3211 
Q 3513 2838 3513 2113 
z
" transform="scale(0.015625)"/>
      <path id="DejaVuSans-67" d="M 2906 1791 
Q 2906 2416 2648 2759 
Q 2391 3103 1925 3103 
Q 1463 3103 1205 2759 
Q 947 2416 947 1791 
Q 947 1169 1205 825 
Q 1463 481 1925 481 
Q 2391 481 2648 825 
Q 2906 1169 2906 1791 
z
M 3481 434 
Q 3481 -459 3084 -895 
Q 2688 -1331 1869 -1331 
Q 1566 -1331 1297 -1286 
Q 1028 -1241 775 -1147 
L 775 -588 
Q 1028 -725 1275 -790 
Q 1522 -856 1778 -856 
Q 2344 -856 2625 -561 
Q 2906 -266 2906 331 
L 2906 616 
Q 2728 306 2450 153 
Q 2172 0 1784 0 
Q 1141 0 747 490 
Q 353 981 353 1791 
Q 353 2603 747 3093 
Q 1141 3584 1784 3584 
Q 2172 3584 2450 3431 
Q 2728 3278 2906 2969 
L 2906 3500 
L 3481 3500 
L 3481 434 
z
" transform="scale(0.015625)"/>
     </defs>
     <use xlink:href="#DejaVuSans-43"/>
     <use xlink:href="#DejaVuSans-4e" x="69.824219"/>
     <use xlink:href="#DejaVuSans-52" x="144.628906"/>
     <use xlink:href="#DejaVuSans-5f" x="214.111328"/>
     <use xlink:href="#DejaVuSans-63" x="264.111328"/>
     <use xlink:href="#DejaVuSans-68" x="319.091797"/>
     <use xlink:href="#DejaVuSans-61" x="382.470703"/>
     <use xlink:href="#DejaVuSans-6e" x="443.75"/>
     <use xlink:href="#DejaVuSans-67" x="507.128906"/>
     <use xlink:href="#DejaVuSans-65" x="570.605469"/>
     <use xlink:href="#DejaVuSans-20" x="632.128906"/>
     <use xlink:href="#DejaVuSans-3d" x="663.916016"/>
     <use xlink:href="#DejaVuSans-20" x="747.705078"/>
     <use xlink:href="#DejaVuSans-31" x="779.492188"/>
    </g>
   </g>
  </g>
  <g id="legend_1"/>
 </g>
 <defs>
  <clipPath id="p1ce7e0c51a">
   <rect x="43.78125" y="20.798437" width="222.769561" height="221.32"/>
  </clipPath>
 </defs>
</svg>
