<?xml version="1.0" encoding="utf-8" standalone="no"?>
<!DOCTYPE svg PUBLIC "-//W3C//DTD SVG 1.1//EN"
  "http://www.w3.org/Graphics/SVG/1.1/DTD/svg11.dtd">
<svg xmlns:xlink="http://www.w3.org/1999/xlink" width="294.17125pt" height="279.674688pt" viewBox="0 0 294.17125 279.674688" xmlns="http://www.w3.org/2000/svg" version="1.1">
 <metadata>
  <rdf:RDF xmlns:dc="http://purl.org/dc/elements/1.1/" xmlns:cc="http://creativecommons.org/ns#" xmlns:rdf="http://www.w3.org/1999/02/22-rdf-syntax-ns#">
   <cc:Work>
    <dc:type rdf:resource="http://purl.org/dc/dcmitype/StillImage"/>
    <dc:date>2025-08-26T09:12:46.993676</dc:date>
    <dc:format>image/svg+xml</dc:format>
    <dc:creator>
     <cc:Agent>
      <dc:title>Matplotlib v3.8.4, https://matplotlib.org/</dc:title>
     </cc:Agent>
    </dc:creator>
   </cc:Work>
  </rdf:RDF>
 </metadata>
 <defs>
  <style type="text/css">*{stroke-linejoin: round; stroke-linecap: butt}</style>
 </defs>
 <g id="figure_1">
  <g id="patch_1">
   <path d="M 0 279.674688 
L 294.17125 279.674688 
L 294.17125 0 
L 0 0 
z
" style="fill: #ffffff"/>
  </g>
  <g id="axes_1">
   <g id="patch_2">
    <path d="M 43.78125 242.118437 
L 266.550811 242.118437 
L 266.550811 20.798437 
L 43.78125 20.798437 
z
" style="fill: #ffffff"/>
   </g>
   <g id="PolyCollection_1">
    <defs>
     <path id="mf3e8b9b61c" d="M 81.57179 -110.890331 
L 80.247231 -110.890331 
L 80.066147 -111.733812 
L 79.847532 -112.577293 
L 79.587097 -113.420774 
L 79.280988 -114.264256 
L 78.926057 -115.107737 
L 78.520162 -115.951218 
L 78.062452 -116.794699 
L 77.553642 -117.63818 
L 76.996237 -118.481662 
L 76.394692 -119.325143 
L 75.755472 -120.168624 
L 75.087017 -121.012105 
L 74.399565 -121.855586 
L 73.70486 -122.699068 
L 73.015726 -123.542549 
L 72.345532 -124.38603 
L 71.707559 -125.229511 
L 71.11431 -126.072992 
L 70.576794 -126.916474 
L 70.103825 -127.759955 
L 69.701381 -128.603436 
L 69.372068 -129.446917 
L 69.114715 -130.290398 
L 68.924146 -131.13388 
L 68.791148 -131.977361 
L 68.702641 -132.820842 
L 68.642068 -133.664323 
L 68.58998 -134.507804 
L 68.524819 -135.351286 
L 68.423852 -136.194767 
L 68.264228 -137.038248 
L 68.024115 -137.881729 
L 67.68386 -138.72521 
L 67.227121 -139.568691 
L 66.641909 -140.412173 
L 65.92149 -141.255654 
L 65.065089 -142.099135 
L 64.078348 -142.942616 
L 62.973514 -143.786097 
L 61.769308 -144.629579 
L 60.490502 -145.47306 
L 59.167166 -146.316541 
L 57.833652 -147.160022 
L 56.527319 -148.003503 
L 55.287076 -148.846985 
L 54.151791 -149.690466 
L 53.158662 -150.533947 
L 52.341605 -151.377428 
L 51.729764 -152.220909 
L 51.346212 -153.064391 
L 51.206902 -153.907872 
L 51.319947 -154.751353 
L 51.685255 -155.594834 
L 52.29455 -156.438315 
L 53.131774 -157.281797 
L 54.173855 -158.125278 
L 55.391804 -158.968759 
L 56.752064 -159.81224 
L 58.218055 -160.655721 
L 59.751811 -161.499203 
L 61.315628 -162.342684 
L 62.873621 -163.186165 
L 64.393116 -164.029646 
L 65.845804 -164.873127 
L 67.208594 -165.716609 
L 68.464154 -166.56009 
L 69.601109 -167.403571 
L 70.613927 -168.247052 
L 71.502516 -169.090533 
L 72.271583 -169.934014 
L 72.929811 -170.777496 
L 73.488934 -171.620977 
L 73.962746 -172.464458 
L 74.366145 -173.307939 
L 74.714222 -174.15142 
L 75.02148 -174.994902 
L 75.301174 -175.838383 
L 75.564825 -176.681864 
L 75.821888 -177.525345 
L 76.07958 -178.368826 
L 76.342862 -179.212308 
L 76.614538 -180.055789 
L 76.895463 -180.89927 
L 77.18483 -181.742751 
L 77.480499 -182.586232 
L 77.779359 -183.429714 
L 78.077685 -184.273195 
L 78.371479 -185.116676 
L 78.656767 -185.960157 
L 78.929859 -186.803638 
L 79.187543 -187.64712 
L 79.427224 -188.490601 
L 79.647003 -189.334082 
L 79.8457 -190.177563 
L 80.022837 -191.021044 
L 80.178574 -191.864526 
L 80.313623 -192.708007 
L 80.429141 -193.551488 
L 80.526621 -194.394969 
L 81.2924 -194.394969 
L 81.2924 -194.394969 
L 81.38988 -193.551488 
L 81.505398 -192.708007 
L 81.640446 -191.864526 
L 81.796183 -191.021044 
L 81.97332 -190.177563 
L 82.172018 -189.334082 
L 82.391796 -188.490601 
L 82.631477 -187.64712 
L 82.889161 -186.803638 
L 83.162254 -185.960157 
L 83.447542 -185.116676 
L 83.741335 -184.273195 
L 84.039662 -183.429714 
L 84.338522 -182.586232 
L 84.634191 -181.742751 
L 84.923557 -180.89927 
L 85.204482 -180.055789 
L 85.476158 -179.212308 
L 85.73944 -178.368826 
L 85.997133 -177.525345 
L 86.254195 -176.681864 
L 86.517847 -175.838383 
L 86.797541 -174.994902 
L 87.104798 -174.15142 
L 87.452876 -173.307939 
L 87.856274 -172.464458 
L 88.330087 -171.620977 
L 88.889209 -170.777496 
L 89.547438 -169.934014 
L 90.316504 -169.090533 
L 91.205093 -168.247052 
L 92.217911 -167.403571 
L 93.354866 -166.56009 
L 94.610426 -165.716609 
L 95.973216 -164.873127 
L 97.425904 -164.029646 
L 98.9454 -163.186165 
L 100.503392 -162.342684 
L 102.067209 -161.499203 
L 103.600965 -160.655721 
L 105.066956 -159.81224 
L 106.427216 -158.968759 
L 107.645165 -158.125278 
L 108.687246 -157.281797 
L 109.52447 -156.438315 
L 110.133765 -155.594834 
L 110.499073 -154.751353 
L 110.612118 -153.907872 
L 110.472808 -153.064391 
L 110.089256 -152.220909 
L 109.477416 -151.377428 
L 108.660358 -150.533947 
L 107.667229 -149.690466 
L 106.531945 -148.846985 
L 105.291701 -148.003503 
L 103.985369 -147.160022 
L 102.651855 -146.316541 
L 101.328519 -145.47306 
L 100.049712 -144.629579 
L 98.845507 -143.786097 
L 97.740672 -142.942616 
L 96.753932 -142.099135 
L 95.89753 -141.255654 
L 95.177112 -140.412173 
L 94.5919 -139.568691 
L 94.135161 -138.72521 
L 93.794906 -137.881729 
L 93.554793 -137.038248 
L 93.395168 -136.194767 
L 93.294201 -135.351286 
L 93.22904 -134.507804 
L 93.176953 -133.664323 
L 93.116379 -132.820842 
L 93.027873 -131.977361 
L 92.894875 -131.13388 
L 92.704306 -130.290398 
L 92.446952 -129.446917 
L 92.117639 -128.603436 
L 91.715196 -127.759955 
L 91.242226 -126.916474 
L 90.70471 -126.072992 
L 90.111461 -125.229511 
L 89.473488 -124.38603 
L 88.803294 -123.542549 
L 88.114161 -122.699068 
L 87.419456 -121.855586 
L 86.732003 -121.012105 
L 86.063548 -120.168624 
L 85.424329 -119.325143 
L 84.822783 -118.481662 
L 84.265379 -117.63818 
L 83.756569 -116.794699 
L 83.298859 -115.951218 
L 82.892963 -115.107737 
L 82.538033 -114.264256 
L 82.231923 -113.420774 
L 81.971488 -112.577293 
L 81.752874 -111.733812 
L 81.57179 -110.890331 
z
" style="stroke: #595959; stroke-width: 1.25"/>
    </defs>
    <g clip-path="url(#pe2cde5fe2f)">
     <use xlink:href="#mf3e8b9b61c" x="0" y="279.674688" style="fill: #72b6a1; stroke: #595959; stroke-width: 1.25"/>
    </g>
   </g>
   <g id="PolyCollection_2">
    <defs>
     <path id="m614b4365c6" d="M 155.523781 -161.228938 
L 154.80828 -161.228938 
L 154.709179 -162.083833 
L 154.591835 -162.938729 
L 154.455737 -163.793624 
L 154.301233 -164.648519 
L 154.129697 -165.503414 
L 153.943654 -166.358309 
L 153.746808 -167.213204 
L 153.543984 -168.0681 
L 153.340936 -168.922995 
L 153.144052 -169.77789 
L 152.959921 -170.632785 
L 152.794831 -171.48768 
L 152.654182 -172.342576 
L 152.541896 -173.197471 
L 152.459843 -174.052366 
L 152.407344 -174.907261 
L 152.380789 -175.762156 
L 152.373401 -176.617052 
L 152.37518 -177.471947 
L 152.373027 -178.326842 
L 152.351058 -179.181737 
L 152.291102 -180.036632 
L 152.173363 -180.891528 
L 151.977236 -181.746423 
L 151.682243 -182.601318 
L 151.269075 -183.456213 
L 150.72069 -184.311108 
L 150.023428 -185.166003 
L 149.168081 -186.020899 
L 148.150843 -186.875794 
L 146.974066 -187.730689 
L 145.646735 -188.585584 
L 144.184583 -189.440479 
L 142.60979 -190.295375 
L 140.95024 -191.15027 
L 139.23835 -192.005165 
L 137.509531 -192.86006 
L 135.800397 -193.714955 
L 134.146857 -194.569851 
L 132.582273 -195.424746 
L 131.135857 -196.279641 
L 129.83145 -197.134536 
L 128.686811 -197.989431 
L 127.713457 -198.844326 
L 126.917046 -199.699222 
L 126.298213 -200.554117 
L 125.853733 -201.409012 
L 125.577825 -202.263907 
L 125.463422 -203.118802 
L 125.503246 -203.973698 
L 125.690539 -204.828593 
L 126.019419 -205.683488 
L 126.484808 -206.538383 
L 127.082028 -207.393278 
L 127.806138 -208.248174 
L 128.651149 -209.103069 
L 129.609263 -209.957964 
L 130.670252 -210.812859 
L 131.821078 -211.667754 
L 133.045821 -212.522649 
L 134.325914 -213.377545 
L 135.640693 -214.23244 
L 136.968171 -215.087335 
L 138.285994 -215.94223 
L 139.572466 -216.797125 
L 140.807571 -217.652021 
L 141.973899 -218.506916 
L 143.057406 -219.361811 
L 144.04797 -220.216706 
L 144.939695 -221.071601 
L 145.73096 -221.926497 
L 146.424221 -222.781392 
L 147.025587 -223.636287 
L 147.544208 -224.491182 
L 147.991531 -225.346077 
L 148.38047 -226.200972 
L 148.724555 -227.055868 
L 149.037115 -227.910763 
L 149.330535 -228.765658 
L 149.615643 -229.620553 
L 149.90124 -230.475448 
L 150.193807 -231.330344 
L 150.497375 -232.185239 
L 150.813577 -233.040134 
L 151.141838 -233.895029 
L 151.479697 -234.749924 
L 151.823217 -235.60482 
L 152.167454 -236.459715 
L 152.50694 -237.31461 
L 152.836146 -238.169505 
L 153.149898 -239.0244 
L 153.443709 -239.879296 
L 153.714021 -240.734191 
L 153.958347 -241.589086 
L 154.175314 -242.443981 
L 154.364618 -243.298876 
L 154.52691 -244.153771 
L 154.663631 -245.008667 
L 154.776821 -245.863562 
L 155.55524 -245.863562 
L 155.55524 -245.863562 
L 155.66843 -245.008667 
L 155.805152 -244.153771 
L 155.967443 -243.298876 
L 156.156747 -242.443981 
L 156.373714 -241.589086 
L 156.61804 -240.734191 
L 156.888352 -239.879296 
L 157.182163 -239.0244 
L 157.495915 -238.169505 
L 157.825121 -237.31461 
L 158.164607 -236.459715 
L 158.508844 -235.60482 
L 158.852364 -234.749924 
L 159.190223 -233.895029 
L 159.518484 -233.040134 
L 159.834686 -232.185239 
L 160.138255 -231.330344 
L 160.430821 -230.475448 
L 160.716418 -229.620553 
L 161.001526 -228.765658 
L 161.294946 -227.910763 
L 161.607506 -227.055868 
L 161.951592 -226.200972 
L 162.34053 -225.346077 
L 162.787853 -224.491182 
L 163.306475 -223.636287 
L 163.90784 -222.781392 
L 164.601101 -221.926497 
L 165.392366 -221.071601 
L 166.284091 -220.216706 
L 167.274655 -219.361811 
L 168.358162 -218.506916 
L 169.52449 -217.652021 
L 170.759595 -216.797125 
L 172.046067 -215.94223 
L 173.36389 -215.087335 
L 174.691368 -214.23244 
L 176.006147 -213.377545 
L 177.286241 -212.522649 
L 178.510983 -211.667754 
L 179.661809 -210.812859 
L 180.722798 -209.957964 
L 181.680912 -209.103069 
L 182.525923 -208.248174 
L 183.250033 -207.393278 
L 183.847253 -206.538383 
L 184.312642 -205.683488 
L 184.641522 -204.828593 
L 184.828816 -203.973698 
L 184.868639 -203.118802 
L 184.754236 -202.263907 
L 184.478328 -201.409012 
L 184.033848 -200.554117 
L 183.415015 -199.699222 
L 182.618604 -198.844326 
L 181.64525 -197.989431 
L 180.500611 -197.134536 
L 179.196204 -196.279641 
L 177.749788 -195.424746 
L 176.185204 -194.569851 
L 174.531664 -193.714955 
L 172.82253 -192.86006 
L 171.093712 -192.005165 
L 169.381821 -191.15027 
L 167.722271 -190.295375 
L 166.147478 -189.440479 
L 164.685326 -188.585584 
L 163.357995 -187.730689 
L 162.181218 -186.875794 
L 161.16398 -186.020899 
L 160.308633 -185.166003 
L 159.611371 -184.311108 
L 159.062987 -183.456213 
L 158.649818 -182.601318 
L 158.354825 -181.746423 
L 158.158698 -180.891528 
L 158.040959 -180.036632 
L 157.981003 -179.181737 
L 157.959034 -178.326842 
L 157.956881 -177.471947 
L 157.95866 -176.617052 
L 157.951272 -175.762156 
L 157.924717 -174.907261 
L 157.872218 -174.052366 
L 157.790165 -173.197471 
L 157.677879 -172.342576 
L 157.53723 -171.48768 
L 157.37214 -170.632785 
L 157.188009 -169.77789 
L 156.991125 -168.922995 
L 156.788078 -168.0681 
L 156.585253 -167.213204 
L 156.388407 -166.358309 
L 156.202364 -165.503414 
L 156.030828 -164.648519 
L 155.876324 -163.793624 
L 155.740226 -162.938729 
L 155.622882 -162.083833 
L 155.523781 -161.228938 
z
" style="stroke: #595959; stroke-width: 1.25"/>
    </defs>
    <g clip-path="url(#pe2cde5fe2f)">
     <use xlink:href="#m614b4365c6" x="0" y="279.674688" style="fill: #e99675; stroke: #595959; stroke-width: 1.25"/>
    </g>
   </g>
   <g id="PolyCollection_3">
    <defs>
     <path id="m22a1fbcc36" d="M 230.570072 -205.029724 
L 228.27503 -205.029724 
L 228.002269 -205.402155 
L 227.680081 -205.774585 
L 227.303293 -206.147016 
L 226.866999 -206.519447 
L 226.366747 -206.891878 
L 225.79873 -207.264309 
L 225.159978 -207.63674 
L 224.448538 -208.00917 
L 223.663644 -208.381601 
L 222.805851 -208.754032 
L 221.877145 -209.126463 
L 220.881017 -209.498894 
L 219.82249 -209.871325 
L 218.708112 -210.243755 
L 217.545902 -210.616186 
L 216.345262 -210.988617 
L 215.116848 -211.361048 
L 213.872403 -211.733479 
L 212.62456 -212.10591 
L 211.386616 -212.47834 
L 210.172275 -212.850771 
L 208.995361 -213.223202 
L 207.869518 -213.595633 
L 206.807886 -213.968064 
L 205.822756 -214.340495 
L 204.925237 -214.712925 
L 204.124918 -215.085356 
L 203.429543 -215.457787 
L 202.844735 -215.830218 
L 202.373747 -216.202649 
L 202.017284 -216.57508 
L 201.773393 -216.94751 
L 201.637437 -217.319941 
L 201.60215 -217.692372 
L 201.65779 -218.064803 
L 201.792366 -218.437234 
L 201.991958 -218.809665 
L 202.241095 -219.182095 
L 202.523198 -219.554526 
L 202.821069 -219.926957 
L 203.117405 -220.299388 
L 203.395339 -220.671819 
L 203.638979 -221.04425 
L 203.833939 -221.41668 
L 203.967857 -221.789111 
L 204.030867 -222.161542 
L 204.016026 -222.533973 
L 203.919678 -222.906404 
L 203.741723 -223.278835 
L 203.485791 -223.651265 
L 203.159288 -224.023696 
L 202.773308 -224.396127 
L 202.34239 -224.768558 
L 201.884126 -225.140989 
L 201.418609 -225.51342 
L 200.967745 -225.88585 
L 200.554451 -226.258281 
L 200.201761 -226.630712 
L 199.931896 -227.003143 
L 199.765335 -227.375574 
L 199.719943 -227.748005 
L 199.810205 -228.120435 
L 200.046611 -228.492866 
L 200.435224 -228.865297 
L 200.977466 -229.237728 
L 201.670127 -229.610159 
L 202.50559 -229.98259 
L 203.472266 -230.35502 
L 204.555189 -230.727451 
L 205.736752 -231.099882 
L 206.997515 -231.472313 
L 208.317047 -231.844744 
L 209.674744 -232.217175 
L 211.050584 -232.589605 
L 212.425776 -232.962036 
L 213.783278 -233.334467 
L 215.108177 -233.706898 
L 216.387915 -234.079329 
L 217.612371 -234.45176 
L 218.773832 -234.82419 
L 219.866845 -235.196621 
L 220.888003 -235.569052 
L 221.835681 -235.941483 
L 222.70975 -236.313914 
L 223.511283 -236.686345 
L 224.242287 -237.058775 
L 224.905462 -237.431206 
L 225.503995 -237.803637 
L 226.041395 -238.176068 
L 226.521367 -238.548499 
L 226.947715 -238.92093 
L 227.324276 -239.29336 
L 227.654873 -239.665791 
L 227.943282 -240.038222 
L 228.193206 -240.410653 
L 228.408255 -240.783084 
L 228.591923 -241.155515 
L 228.747572 -241.527945 
L 228.878407 -241.900376 
L 229.966695 -241.900376 
L 229.966695 -241.900376 
L 230.09753 -241.527945 
L 230.253179 -241.155515 
L 230.436847 -240.783084 
L 230.651896 -240.410653 
L 230.90182 -240.038222 
L 231.190229 -239.665791 
L 231.520826 -239.29336 
L 231.897387 -238.92093 
L 232.323734 -238.548499 
L 232.803706 -238.176068 
L 233.341107 -237.803637 
L 233.93964 -237.431206 
L 234.602815 -237.058775 
L 235.333819 -236.686345 
L 236.135352 -236.313914 
L 237.009421 -235.941483 
L 237.957099 -235.569052 
L 238.978257 -235.196621 
L 240.07127 -234.82419 
L 241.23273 -234.45176 
L 242.457187 -234.079329 
L 243.736924 -233.706898 
L 245.061824 -233.334467 
L 246.419326 -232.962036 
L 247.794517 -232.589605 
L 249.170358 -232.217175 
L 250.528055 -231.844744 
L 251.847587 -231.472313 
L 253.10835 -231.099882 
L 254.289913 -230.727451 
L 255.372836 -230.35502 
L 256.339512 -229.98259 
L 257.174975 -229.610159 
L 257.867636 -229.237728 
L 258.409878 -228.865297 
L 258.798491 -228.492866 
L 259.034897 -228.120435 
L 259.125159 -227.748005 
L 259.079767 -227.375574 
L 258.913206 -227.003143 
L 258.64334 -226.630712 
L 258.290651 -226.258281 
L 257.877357 -225.88585 
L 257.426493 -225.51342 
L 256.960976 -225.140989 
L 256.502712 -224.768558 
L 256.071794 -224.396127 
L 255.685814 -224.023696 
L 255.359311 -223.651265 
L 255.103379 -223.278835 
L 254.925424 -222.906404 
L 254.829075 -222.533973 
L 254.814235 -222.161542 
L 254.877244 -221.789111 
L 255.011162 -221.41668 
L 255.206123 -221.04425 
L 255.449762 -220.671819 
L 255.727697 -220.299388 
L 256.024033 -219.926957 
L 256.321904 -219.554526 
L 256.604007 -219.182095 
L 256.853144 -218.809665 
L 257.052735 -218.437234 
L 257.187312 -218.064803 
L 257.242952 -217.692372 
L 257.207665 -217.319941 
L 257.071709 -216.94751 
L 256.827818 -216.57508 
L 256.471355 -216.202649 
L 256.000366 -215.830218 
L 255.415559 -215.457787 
L 254.720184 -215.085356 
L 253.919864 -214.712925 
L 253.022346 -214.340495 
L 252.037216 -213.968064 
L 250.975583 -213.595633 
L 249.849741 -213.223202 
L 248.672827 -212.850771 
L 247.458485 -212.47834 
L 246.220542 -212.10591 
L 244.972699 -211.733479 
L 243.728253 -211.361048 
L 242.49984 -210.988617 
L 241.2992 -210.616186 
L 240.13699 -210.243755 
L 239.022611 -209.871325 
L 237.964084 -209.498894 
L 236.967956 -209.126463 
L 236.039251 -208.754032 
L 235.181458 -208.381601 
L 234.396564 -208.00917 
L 233.685124 -207.63674 
L 233.046372 -207.264309 
L 232.478355 -206.891878 
L 231.978103 -206.519447 
L 231.541809 -206.147016 
L 231.165021 -205.774585 
L 230.842833 -205.402155 
L 230.570072 -205.029724 
z
" style="stroke: #595959; stroke-width: 1.25"/>
    </defs>
    <g clip-path="url(#pe2cde5fe2f)">
     <use xlink:href="#m22a1fbcc36" x="0" y="279.674688" style="fill: #95a3c3; stroke: #595959; stroke-width: 1.25"/>
    </g>
   </g>
   <g id="matplotlib.axis_1">
    <g id="xtick_1">
     <g id="line2d_1">
      <defs>
       <path id="m31c51d8939" d="M 0 0 
L 0 3.5 
" style="stroke: #000000; stroke-width: 0.8"/>
      </defs>
      <g>
       <use xlink:href="#m31c51d8939" x="80.90951" y="242.118437" style="stroke: #000000; stroke-width: 0.8"/>
      </g>
     </g>
     <g id="text_1">
      <!-- Deep -->
      <g transform="translate(67.732166 256.716875) scale(0.1 -0.1)">
       <defs>
        <path id="DejaVuSans-44" d="M 1259 4147 
L 1259 519 
L 2022 519 
Q 2988 519 3436 956 
Q 3884 1394 3884 2338 
Q 3884 3275 3436 3711 
Q 2988 4147 2022 4147 
L 1259 4147 
z
M 628 4666 
L 1925 4666 
Q 3281 4666 3915 4102 
Q 4550 3538 4550 2338 
Q 4550 1131 3912 565 
Q 3275 0 1925 0 
L 628 0 
L 628 4666 
z
" transform="scale(0.015625)"/>
        <path id="DejaVuSans-65" d="M 3597 1894 
L 3597 1613 
L 953 1613 
Q 991 1019 1311 708 
Q 1631 397 2203 397 
Q 2534 397 2845 478 
Q 3156 559 3463 722 
L 3463 178 
Q 3153 47 2828 -22 
Q 2503 -91 2169 -91 
Q 1331 -91 842 396 
Q 353 884 353 1716 
Q 353 2575 817 3079 
Q 1281 3584 2069 3584 
Q 2775 3584 3186 3129 
Q 3597 2675 3597 1894 
z
M 3022 2063 
Q 3016 2534 2758 2815 
Q 2500 3097 2075 3097 
Q 1594 3097 1305 2825 
Q 1016 2553 972 2059 
L 3022 2063 
z
" transform="scale(0.015625)"/>
        <path id="DejaVuSans-70" d="M 1159 525 
L 1159 -1331 
L 581 -1331 
L 581 3500 
L 1159 3500 
L 1159 2969 
Q 1341 3281 1617 3432 
Q 1894 3584 2278 3584 
Q 2916 3584 3314 3078 
Q 3713 2572 3713 1747 
Q 3713 922 3314 415 
Q 2916 -91 2278 -91 
Q 1894 -91 1617 61 
Q 1341 213 1159 525 
z
M 3116 1747 
Q 3116 2381 2855 2742 
Q 2594 3103 2138 3103 
Q 1681 3103 1420 2742 
Q 1159 2381 1159 1747 
Q 1159 1113 1420 752 
Q 1681 391 2138 391 
Q 2594 391 2855 752 
Q 3116 1113 3116 1747 
z
" transform="scale(0.015625)"/>
       </defs>
       <use xlink:href="#DejaVuSans-44"/>
       <use xlink:href="#DejaVuSans-65" x="77.001953"/>
       <use xlink:href="#DejaVuSans-65" x="138.525391"/>
       <use xlink:href="#DejaVuSans-70" x="200.048828"/>
      </g>
     </g>
    </g>
    <g id="xtick_2">
     <g id="line2d_2">
      <g>
       <use xlink:href="#m31c51d8939" x="155.166031" y="242.118437" style="stroke: #000000; stroke-width: 0.8"/>
      </g>
     </g>
     <g id="text_2">
      <!-- Middle -->
      <g transform="translate(138.648843 256.716875) scale(0.1 -0.1)">
       <defs>
        <path id="DejaVuSans-4d" d="M 628 4666 
L 1569 4666 
L 2759 1491 
L 3956 4666 
L 4897 4666 
L 4897 0 
L 4281 0 
L 4281 4097 
L 3078 897 
L 2444 897 
L 1241 4097 
L 1241 0 
L 628 0 
L 628 4666 
z
" transform="scale(0.015625)"/>
        <path id="DejaVuSans-69" d="M 603 3500 
L 1178 3500 
L 1178 0 
L 603 0 
L 603 3500 
z
M 603 4863 
L 1178 4863 
L 1178 4134 
L 603 4134 
L 603 4863 
z
" transform="scale(0.015625)"/>
        <path id="DejaVuSans-64" d="M 2906 2969 
L 2906 4863 
L 3481 4863 
L 3481 0 
L 2906 0 
L 2906 525 
Q 2725 213 2448 61 
Q 2172 -91 1784 -91 
Q 1150 -91 751 415 
Q 353 922 353 1747 
Q 353 2572 751 3078 
Q 1150 3584 1784 3584 
Q 2172 3584 2448 3432 
Q 2725 3281 2906 2969 
z
M 947 1747 
Q 947 1113 1208 752 
Q 1469 391 1925 391 
Q 2381 391 2643 752 
Q 2906 1113 2906 1747 
Q 2906 2381 2643 2742 
Q 2381 3103 1925 3103 
Q 1469 3103 1208 2742 
Q 947 2381 947 1747 
z
" transform="scale(0.015625)"/>
        <path id="DejaVuSans-6c" d="M 603 4863 
L 1178 4863 
L 1178 0 
L 603 0 
L 603 4863 
z
" transform="scale(0.015625)"/>
       </defs>
       <use xlink:href="#DejaVuSans-4d"/>
       <use xlink:href="#DejaVuSans-69" x="86.279297"/>
       <use xlink:href="#DejaVuSans-64" x="114.0625"/>
       <use xlink:href="#DejaVuSans-64" x="177.539062"/>
       <use xlink:href="#DejaVuSans-6c" x="241.015625"/>
       <use xlink:href="#DejaVuSans-65" x="268.798828"/>
      </g>
     </g>
    </g>
    <g id="xtick_3">
     <g id="line2d_3">
      <g>
       <use xlink:href="#m31c51d8939" x="229.422551" y="242.118437" style="stroke: #000000; stroke-width: 0.8"/>
      </g>
     </g>
     <g id="text_3">
      <!-- Superficial -->
      <g transform="translate(203.032707 256.716875) scale(0.1 -0.1)">
       <defs>
        <path id="DejaVuSans-53" d="M 3425 4513 
L 3425 3897 
Q 3066 4069 2747 4153 
Q 2428 4238 2131 4238 
Q 1616 4238 1336 4038 
Q 1056 3838 1056 3469 
Q 1056 3159 1242 3001 
Q 1428 2844 1947 2747 
L 2328 2669 
Q 3034 2534 3370 2195 
Q 3706 1856 3706 1288 
Q 3706 609 3251 259 
Q 2797 -91 1919 -91 
Q 1588 -91 1214 -16 
Q 841 59 441 206 
L 441 856 
Q 825 641 1194 531 
Q 1563 422 1919 422 
Q 2459 422 2753 634 
Q 3047 847 3047 1241 
Q 3047 1584 2836 1778 
Q 2625 1972 2144 2069 
L 1759 2144 
Q 1053 2284 737 2584 
Q 422 2884 422 3419 
Q 422 4038 858 4394 
Q 1294 4750 2059 4750 
Q 2388 4750 2728 4690 
Q 3069 4631 3425 4513 
z
" transform="scale(0.015625)"/>
        <path id="DejaVuSans-75" d="M 544 1381 
L 544 3500 
L 1119 3500 
L 1119 1403 
Q 1119 906 1312 657 
Q 1506 409 1894 409 
Q 2359 409 2629 706 
Q 2900 1003 2900 1516 
L 2900 3500 
L 3475 3500 
L 3475 0 
L 2900 0 
L 2900 538 
Q 2691 219 2414 64 
Q 2138 -91 1772 -91 
Q 1169 -91 856 284 
Q 544 659 544 1381 
z
M 1991 3584 
L 1991 3584 
z
" transform="scale(0.015625)"/>
        <path id="DejaVuSans-72" d="M 2631 2963 
Q 2534 3019 2420 3045 
Q 2306 3072 2169 3072 
Q 1681 3072 1420 2755 
Q 1159 2438 1159 1844 
L 1159 0 
L 581 0 
L 581 3500 
L 1159 3500 
L 1159 2956 
Q 1341 3275 1631 3429 
Q 1922 3584 2338 3584 
Q 2397 3584 2469 3576 
Q 2541 3569 2628 3553 
L 2631 2963 
z
" transform="scale(0.015625)"/>
        <path id="DejaVuSans-66" d="M 2375 4863 
L 2375 4384 
L 1825 4384 
Q 1516 4384 1395 4259 
Q 1275 4134 1275 3809 
L 1275 3500 
L 2222 3500 
L 2222 3053 
L 1275 3053 
L 1275 0 
L 697 0 
L 697 3053 
L 147 3053 
L 147 3500 
L 697 3500 
L 697 3744 
Q 697 4328 969 4595 
Q 1241 4863 1831 4863 
L 2375 4863 
z
" transform="scale(0.015625)"/>
        <path id="DejaVuSans-63" d="M 3122 3366 
L 3122 2828 
Q 2878 2963 2633 3030 
Q 2388 3097 2138 3097 
Q 1578 3097 1268 2742 
Q 959 2388 959 1747 
Q 959 1106 1268 751 
Q 1578 397 2138 397 
Q 2388 397 2633 464 
Q 2878 531 3122 666 
L 3122 134 
Q 2881 22 2623 -34 
Q 2366 -91 2075 -91 
Q 1284 -91 818 406 
Q 353 903 353 1747 
Q 353 2603 823 3093 
Q 1294 3584 2113 3584 
Q 2378 3584 2631 3529 
Q 2884 3475 3122 3366 
z
" transform="scale(0.015625)"/>
        <path id="DejaVuSans-61" d="M 2194 1759 
Q 1497 1759 1228 1600 
Q 959 1441 959 1056 
Q 959 750 1161 570 
Q 1363 391 1709 391 
Q 2188 391 2477 730 
Q 2766 1069 2766 1631 
L 2766 1759 
L 2194 1759 
z
M 3341 1997 
L 3341 0 
L 2766 0 
L 2766 531 
Q 2569 213 2275 61 
Q 1981 -91 1556 -91 
Q 1019 -91 701 211 
Q 384 513 384 1019 
Q 384 1609 779 1909 
Q 1175 2209 1959 2209 
L 2766 2209 
L 2766 2266 
Q 2766 2663 2505 2880 
Q 2244 3097 1772 3097 
Q 1472 3097 1187 3025 
Q 903 2953 641 2809 
L 641 3341 
Q 956 3463 1253 3523 
Q 1550 3584 1831 3584 
Q 2591 3584 2966 3190 
Q 3341 2797 3341 1997 
z
" transform="scale(0.015625)"/>
       </defs>
       <use xlink:href="#DejaVuSans-53"/>
       <use xlink:href="#DejaVuSans-75" x="63.476562"/>
       <use xlink:href="#DejaVuSans-70" x="126.855469"/>
       <use xlink:href="#DejaVuSans-65" x="190.332031"/>
       <use xlink:href="#DejaVuSans-72" x="251.855469"/>
       <use xlink:href="#DejaVuSans-66" x="292.96875"/>
       <use xlink:href="#DejaVuSans-69" x="328.173828"/>
       <use xlink:href="#DejaVuSans-63" x="355.957031"/>
       <use xlink:href="#DejaVuSans-69" x="410.9375"/>
       <use xlink:href="#DejaVuSans-61" x="438.720703"/>
       <use xlink:href="#DejaVuSans-6c" x="500"/>
      </g>
     </g>
    </g>
    <g id="text_4">
     <!-- Layer -->
     <g transform="translate(141.224624 270.395) scale(0.1 -0.1)">
      <defs>
       <path id="DejaVuSans-4c" d="M 628 4666 
L 1259 4666 
L 1259 531 
L 3531 531 
L 3531 0 
L 628 0 
L 628 4666 
z
" transform="scale(0.015625)"/>
       <path id="DejaVuSans-79" d="M 2059 -325 
Q 1816 -950 1584 -1140 
Q 1353 -1331 966 -1331 
L 506 -1331 
L 506 -850 
L 844 -850 
Q 1081 -850 1212 -737 
Q 1344 -625 1503 -206 
L 1606 56 
L 191 3500 
L 800 3500 
L 1894 763 
L 2988 3500 
L 3597 3500 
L 2059 -325 
z
" transform="scale(0.015625)"/>
      </defs>
      <use xlink:href="#DejaVuSans-4c"/>
      <use xlink:href="#DejaVuSans-61" x="55.712891"/>
      <use xlink:href="#DejaVuSans-79" x="116.992188"/>
      <use xlink:href="#DejaVuSans-65" x="176.171875"/>
      <use xlink:href="#DejaVuSans-72" x="237.695312"/>
     </g>
    </g>
   </g>
   <g id="matplotlib.axis_2">
    <g id="ytick_1">
     <g id="line2d_4">
      <defs>
       <path id="m4e8c75f1c3" d="M 0 0 
L -3.5 0 
" style="stroke: #000000; stroke-width: 0.8"/>
      </defs>
      <g>
       <use xlink:href="#m4e8c75f1c3" x="43.78125" y="242.118437" style="stroke: #000000; stroke-width: 0.8"/>
      </g>
     </g>
     <g id="text_5">
      <!-- 0.0 -->
      <g transform="translate(20.878125 245.917656) scale(0.1 -0.1)">
       <defs>
        <path id="DejaVuSans-30" d="M 2034 4250 
Q 1547 4250 1301 3770 
Q 1056 3291 1056 2328 
Q 1056 1369 1301 889 
Q 1547 409 2034 409 
Q 2525 409 2770 889 
Q 3016 1369 3016 2328 
Q 3016 3291 2770 3770 
Q 2525 4250 2034 4250 
z
M 2034 4750 
Q 2819 4750 3233 4129 
Q 3647 3509 3647 2328 
Q 3647 1150 3233 529 
Q 2819 -91 2034 -91 
Q 1250 -91 836 529 
Q 422 1150 422 2328 
Q 422 3509 836 4129 
Q 1250 4750 2034 4750 
z
" transform="scale(0.015625)"/>
        <path id="DejaVuSans-2e" d="M 684 794 
L 1344 794 
L 1344 0 
L 684 0 
L 684 794 
z
" transform="scale(0.015625)"/>
       </defs>
       <use xlink:href="#DejaVuSans-30"/>
       <use xlink:href="#DejaVuSans-2e" x="63.623047"/>
       <use xlink:href="#DejaVuSans-30" x="95.410156"/>
      </g>
     </g>
    </g>
    <g id="ytick_2">
     <g id="line2d_5">
      <g>
       <use xlink:href="#m4e8c75f1c3" x="43.78125" y="197.854437" style="stroke: #000000; stroke-width: 0.8"/>
      </g>
     </g>
     <g id="text_6">
      <!-- 0.2 -->
      <g transform="translate(20.878125 201.653656) scale(0.1 -0.1)">
       <defs>
        <path id="DejaVuSans-32" d="M 1228 531 
L 3431 531 
L 3431 0 
L 469 0 
L 469 531 
Q 828 903 1448 1529 
Q 2069 2156 2228 2338 
Q 2531 2678 2651 2914 
Q 2772 3150 2772 3378 
Q 2772 3750 2511 3984 
Q 2250 4219 1831 4219 
Q 1534 4219 1204 4116 
Q 875 4013 500 3803 
L 500 4441 
Q 881 4594 1212 4672 
Q 1544 4750 1819 4750 
Q 2544 4750 2975 4387 
Q 3406 4025 3406 3419 
Q 3406 3131 3298 2873 
Q 3191 2616 2906 2266 
Q 2828 2175 2409 1742 
Q 1991 1309 1228 531 
z
" transform="scale(0.015625)"/>
       </defs>
       <use xlink:href="#DejaVuSans-30"/>
       <use xlink:href="#DejaVuSans-2e" x="63.623047"/>
       <use xlink:href="#DejaVuSans-32" x="95.410156"/>
      </g>
     </g>
    </g>
    <g id="ytick_3">
     <g id="line2d_6">
      <g>
       <use xlink:href="#m4e8c75f1c3" x="43.78125" y="153.590437" style="stroke: #000000; stroke-width: 0.8"/>
      </g>
     </g>
     <g id="text_7">
      <!-- 0.4 -->
      <g transform="translate(20.878125 157.389656) scale(0.1 -0.1)">
       <defs>
        <path id="DejaVuSans-34" d="M 2419 4116 
L 825 1625 
L 2419 1625 
L 2419 4116 
z
M 2253 4666 
L 3047 4666 
L 3047 1625 
L 3713 1625 
L 3713 1100 
L 3047 1100 
L 3047 0 
L 2419 0 
L 2419 1100 
L 313 1100 
L 313 1709 
L 2253 4666 
z
" transform="scale(0.015625)"/>
       </defs>
       <use xlink:href="#DejaVuSans-30"/>
       <use xlink:href="#DejaVuSans-2e" x="63.623047"/>
       <use xlink:href="#DejaVuSans-34" x="95.410156"/>
      </g>
     </g>
    </g>
    <g id="ytick_4">
     <g id="line2d_7">
      <g>
       <use xlink:href="#m4e8c75f1c3" x="43.78125" y="109.326437" style="stroke: #000000; stroke-width: 0.8"/>
      </g>
     </g>
     <g id="text_8">
      <!-- 0.6 -->
      <g transform="translate(20.878125 113.125656) scale(0.1 -0.1)">
       <defs>
        <path id="DejaVuSans-36" d="M 2113 2584 
Q 1688 2584 1439 2293 
Q 1191 2003 1191 1497 
Q 1191 994 1439 701 
Q 1688 409 2113 409 
Q 2538 409 2786 701 
Q 3034 994 3034 1497 
Q 3034 2003 2786 2293 
Q 2538 2584 2113 2584 
z
M 3366 4563 
L 3366 3988 
Q 3128 4100 2886 4159 
Q 2644 4219 2406 4219 
Q 1781 4219 1451 3797 
Q 1122 3375 1075 2522 
Q 1259 2794 1537 2939 
Q 1816 3084 2150 3084 
Q 2853 3084 3261 2657 
Q 3669 2231 3669 1497 
Q 3669 778 3244 343 
Q 2819 -91 2113 -91 
Q 1303 -91 875 529 
Q 447 1150 447 2328 
Q 447 3434 972 4092 
Q 1497 4750 2381 4750 
Q 2619 4750 2861 4703 
Q 3103 4656 3366 4563 
z
" transform="scale(0.015625)"/>
       </defs>
       <use xlink:href="#DejaVuSans-30"/>
       <use xlink:href="#DejaVuSans-2e" x="63.623047"/>
       <use xlink:href="#DejaVuSans-36" x="95.410156"/>
      </g>
     </g>
    </g>
    <g id="ytick_5">
     <g id="line2d_8">
      <g>
       <use xlink:href="#m4e8c75f1c3" x="43.78125" y="65.062437" style="stroke: #000000; stroke-width: 0.8"/>
      </g>
     </g>
     <g id="text_9">
      <!-- 0.8 -->
      <g transform="translate(20.878125 68.861656) scale(0.1 -0.1)">
       <defs>
        <path id="DejaVuSans-38" d="M 2034 2216 
Q 1584 2216 1326 1975 
Q 1069 1734 1069 1313 
Q 1069 891 1326 650 
Q 1584 409 2034 409 
Q 2484 409 2743 651 
Q 3003 894 3003 1313 
Q 3003 1734 2745 1975 
Q 2488 2216 2034 2216 
z
M 1403 2484 
Q 997 2584 770 2862 
Q 544 3141 544 3541 
Q 544 4100 942 4425 
Q 1341 4750 2034 4750 
Q 2731 4750 3128 4425 
Q 3525 4100 3525 3541 
Q 3525 3141 3298 2862 
Q 3072 2584 2669 2484 
Q 3125 2378 3379 2068 
Q 3634 1759 3634 1313 
Q 3634 634 3220 271 
Q 2806 -91 2034 -91 
Q 1263 -91 848 271 
Q 434 634 434 1313 
Q 434 1759 690 2068 
Q 947 2378 1403 2484 
z
M 1172 3481 
Q 1172 3119 1398 2916 
Q 1625 2713 2034 2713 
Q 2441 2713 2670 2916 
Q 2900 3119 2900 3481 
Q 2900 3844 2670 4047 
Q 2441 4250 2034 4250 
Q 1625 4250 1398 4047 
Q 1172 3844 1172 3481 
z
" transform="scale(0.015625)"/>
       </defs>
       <use xlink:href="#DejaVuSans-30"/>
       <use xlink:href="#DejaVuSans-2e" x="63.623047"/>
       <use xlink:href="#DejaVuSans-38" x="95.410156"/>
      </g>
     </g>
    </g>
    <g id="ytick_6">
     <g id="line2d_9">
      <g>
       <use xlink:href="#m4e8c75f1c3" x="43.78125" y="20.798437" style="stroke: #000000; stroke-width: 0.8"/>
      </g>
     </g>
     <g id="text_10">
      <!-- 1.0 -->
      <g transform="translate(20.878125 24.597656) scale(0.1 -0.1)">
       <defs>
        <path id="DejaVuSans-31" d="M 794 531 
L 1825 531 
L 1825 4091 
L 703 3866 
L 703 4441 
L 1819 4666 
L 2450 4666 
L 2450 531 
L 3481 531 
L 3481 0 
L 794 0 
L 794 531 
z
" transform="scale(0.015625)"/>
       </defs>
       <use xlink:href="#DejaVuSans-31"/>
       <use xlink:href="#DejaVuSans-2e" x="63.623047"/>
       <use xlink:href="#DejaVuSans-30" x="95.410156"/>
      </g>
     </g>
    </g>
    <g id="text_11">
     <!-- Accuracy -->
     <g transform="translate(14.798438 154.286563) rotate(-90) scale(0.1 -0.1)">
      <defs>
       <path id="DejaVuSans-41" d="M 2188 4044 
L 1331 1722 
L 3047 1722 
L 2188 4044 
z
M 1831 4666 
L 2547 4666 
L 4325 0 
L 3669 0 
L 3244 1197 
L 1141 1197 
L 716 0 
L 50 0 
L 1831 4666 
z
" transform="scale(0.015625)"/>
      </defs>
      <use xlink:href="#DejaVuSans-41"/>
      <use xlink:href="#DejaVuSans-63" x="66.658203"/>
      <use xlink:href="#DejaVuSans-63" x="121.638672"/>
      <use xlink:href="#DejaVuSans-75" x="176.619141"/>
      <use xlink:href="#DejaVuSans-72" x="239.998047"/>
      <use xlink:href="#DejaVuSans-61" x="281.111328"/>
      <use xlink:href="#DejaVuSans-63" x="342.390625"/>
      <use xlink:href="#DejaVuSans-79" x="397.371094"/>
     </g>
    </g>
   </g>
   <g id="line2d_10">
    <path d="M 43.78125 131.458438 
L 266.550811 131.458438 
" clip-path="url(#pe2cde5fe2f)" style="fill: none; stroke-dasharray: 5.55,2.4; stroke-dashoffset: 0; stroke: #808080; stroke-width: 1.5"/>
   </g>
   <g id="patch_3">
    <path d="M 43.78125 242.118437 
L 43.78125 20.798437 
" style="fill: none; stroke: #000000; stroke-width: 0.8; stroke-linejoin: miter; stroke-linecap: square"/>
   </g>
   <g id="patch_4">
    <path d="M 43.78125 242.118437 
L 266.550811 242.118437 
" style="fill: none; stroke: #000000; stroke-width: 0.8; stroke-linejoin: miter; stroke-linecap: square"/>
   </g>
   <g id="PathCollection_1">
    <defs>
     <path id="m073deb2009" d="M 0 1.25 
C 0.331504 1.25 0.649475 1.118292 0.883883 0.883883 
C 1.118292 0.649475 1.25 0.331504 1.25 0 
C 1.25 -0.331504 1.118292 -0.649475 0.883883 -0.883883 
C 0.649475 -1.118292 0.331504 -1.25 0 -1.25 
C -0.331504 -1.25 -0.649475 -1.118292 -0.883883 -0.883883 
C -1.118292 -0.649475 -1.25 -0.331504 -1.25 0 
C -1.25 0.331504 -1.118292 0.649475 -0.883883 0.883883 
C -0.649475 1.118292 -0.331504 1.25 0 1.25 
z
" style="stroke: #595959"/>
    </defs>
    <g clip-path="url(#pe2cde5fe2f)">
     <use xlink:href="#m073deb2009" x="80.90951" y="127.032038" style="fill: #595959; stroke: #595959"/>
     <use xlink:href="#m073deb2009" x="80.90951" y="122.605637" style="fill: #595959; stroke: #595959"/>
     <use xlink:href="#m073deb2009" x="80.90951" y="120.392437" style="fill: #595959; stroke: #595959"/>
     <use xlink:href="#m073deb2009" x="80.90951" y="153.590437" style="fill: #595959; stroke: #595959"/>
     <use xlink:href="#m073deb2009" x="80.90951" y="127.032038" style="fill: #595959; stroke: #595959"/>
     <use xlink:href="#m073deb2009" x="80.90951" y="129.245237" style="fill: #595959; stroke: #595959"/>
     <use xlink:href="#m073deb2009" x="80.90951" y="151.377237" style="fill: #595959; stroke: #595959"/>
     <use xlink:href="#m073deb2009" x="80.90951" y="124.818837" style="fill: #595959; stroke: #595959"/>
     <use xlink:href="#m073deb2009" x="80.90951" y="122.605638" style="fill: #595959; stroke: #595959"/>
     <use xlink:href="#m073deb2009" x="80.90951" y="120.392437" style="fill: #595959; stroke: #595959"/>
     <use xlink:href="#m073deb2009" x="80.90951" y="131.458438" style="fill: #595959; stroke: #595959"/>
     <use xlink:href="#m073deb2009" x="80.90951" y="107.113237" style="fill: #595959; stroke: #595959"/>
     <use xlink:href="#m073deb2009" x="80.90951" y="124.818837" style="fill: #595959; stroke: #595959"/>
     <use xlink:href="#m073deb2009" x="80.90951" y="142.524437" style="fill: #595959; stroke: #595959"/>
     <use xlink:href="#m073deb2009" x="80.90951" y="146.950837" style="fill: #595959; stroke: #595959"/>
     <use xlink:href="#m073deb2009" x="80.90951" y="100.473637" style="fill: #595959; stroke: #595959"/>
     <use xlink:href="#m073deb2009" x="80.90951" y="149.164037" style="fill: #595959; stroke: #595959"/>
     <use xlink:href="#m073deb2009" x="80.90951" y="129.245237" style="fill: #595959; stroke: #595959"/>
     <use xlink:href="#m073deb2009" x="80.90951" y="122.605637" style="fill: #595959; stroke: #595959"/>
     <use xlink:href="#m073deb2009" x="80.90951" y="131.458438" style="fill: #595959; stroke: #595959"/>
    </g>
   </g>
   <g id="PathCollection_2">
    <g clip-path="url(#pe2cde5fe2f)">
     <use xlink:href="#m073deb2009" x="155.166031" y="104.900037" style="fill: #595959; stroke: #595959"/>
     <use xlink:href="#m073deb2009" x="155.166031" y="53.996437" style="fill: #595959; stroke: #595959"/>
     <use xlink:href="#m073deb2009" x="155.166031" y="80.554837" style="fill: #595959; stroke: #595959"/>
     <use xlink:href="#m073deb2009" x="155.166031" y="84.981237" style="fill: #595959; stroke: #595959"/>
     <use xlink:href="#m073deb2009" x="155.166031" y="71.702037" style="fill: #595959; stroke: #595959"/>
     <use xlink:href="#m073deb2009" x="155.166031" y="47.356838" style="fill: #595959; stroke: #595959"/>
     <use xlink:href="#m073deb2009" x="155.166031" y="65.062437" style="fill: #595959; stroke: #595959"/>
     <use xlink:href="#m073deb2009" x="155.166031" y="73.915237" style="fill: #595959; stroke: #595959"/>
     <use xlink:href="#m073deb2009" x="155.166031" y="78.341637" style="fill: #595959; stroke: #595959"/>
     <use xlink:href="#m073deb2009" x="155.166031" y="80.554838" style="fill: #595959; stroke: #595959"/>
     <use xlink:href="#m073deb2009" x="155.166031" y="80.554837" style="fill: #595959; stroke: #595959"/>
     <use xlink:href="#m073deb2009" x="155.166031" y="62.849237" style="fill: #595959; stroke: #595959"/>
     <use xlink:href="#m073deb2009" x="155.166031" y="84.981237" style="fill: #595959; stroke: #595959"/>
     <use xlink:href="#m073deb2009" x="155.166031" y="71.702037" style="fill: #595959; stroke: #595959"/>
     <use xlink:href="#m073deb2009" x="155.166031" y="67.275637" style="fill: #595959; stroke: #595959"/>
     <use xlink:href="#m073deb2009" x="155.166031" y="69.488837" style="fill: #595959; stroke: #595959"/>
     <use xlink:href="#m073deb2009" x="155.166031" y="71.702037" style="fill: #595959; stroke: #595959"/>
     <use xlink:href="#m073deb2009" x="155.166031" y="73.915237" style="fill: #595959; stroke: #595959"/>
     <use xlink:href="#m073deb2009" x="155.166031" y="82.768037" style="fill: #595959; stroke: #595959"/>
     <use xlink:href="#m073deb2009" x="155.166031" y="82.768037" style="fill: #595959; stroke: #595959"/>
    </g>
   </g>
   <g id="PathCollection_3">
    <g clip-path="url(#pe2cde5fe2f)">
     <use xlink:href="#m073deb2009" x="229.422551" y="62.849237" style="fill: #595959; stroke: #595959"/>
     <use xlink:href="#m073deb2009" x="229.422551" y="51.783237" style="fill: #595959; stroke: #595959"/>
     <use xlink:href="#m073deb2009" x="229.422551" y="58.422838" style="fill: #595959; stroke: #595959"/>
     <use xlink:href="#m073deb2009" x="229.422551" y="49.570038" style="fill: #595959; stroke: #595959"/>
     <use xlink:href="#m073deb2009" x="229.422551" y="49.570038" style="fill: #595959; stroke: #595959"/>
     <use xlink:href="#m073deb2009" x="229.422551" y="49.570038" style="fill: #595959; stroke: #595959"/>
     <use xlink:href="#m073deb2009" x="229.422551" y="62.849237" style="fill: #595959; stroke: #595959"/>
     <use xlink:href="#m073deb2009" x="229.422551" y="65.062437" style="fill: #595959; stroke: #595959"/>
     <use xlink:href="#m073deb2009" x="229.422551" y="45.143637" style="fill: #595959; stroke: #595959"/>
     <use xlink:href="#m073deb2009" x="229.422551" y="67.275637" style="fill: #595959; stroke: #595959"/>
     <use xlink:href="#m073deb2009" x="229.422551" y="51.783237" style="fill: #595959; stroke: #595959"/>
     <use xlink:href="#m073deb2009" x="229.422551" y="67.275637" style="fill: #595959; stroke: #595959"/>
     <use xlink:href="#m073deb2009" x="229.422551" y="51.783237" style="fill: #595959; stroke: #595959"/>
     <use xlink:href="#m073deb2009" x="229.422551" y="56.209637" style="fill: #595959; stroke: #595959"/>
     <use xlink:href="#m073deb2009" x="229.422551" y="62.849237" style="fill: #595959; stroke: #595959"/>
     <use xlink:href="#m073deb2009" x="229.422551" y="62.849237" style="fill: #595959; stroke: #595959"/>
     <use xlink:href="#m073deb2009" x="229.422551" y="53.996437" style="fill: #595959; stroke: #595959"/>
     <use xlink:href="#m073deb2009" x="229.422551" y="51.783237" style="fill: #595959; stroke: #595959"/>
     <use xlink:href="#m073deb2009" x="229.422551" y="60.636037" style="fill: #595959; stroke: #595959"/>
     <use xlink:href="#m073deb2009" x="229.422551" y="58.422837" style="fill: #595959; stroke: #595959"/>
    </g>
   </g>
   <g id="text_12">
    <!-- Rho = 0.4 -->
    <g transform="translate(273.08589 106.436563) rotate(-270) scale(0.1 -0.1)">
     <defs>
      <path id="DejaVuSans-52" d="M 2841 2188 
Q 3044 2119 3236 1894 
Q 3428 1669 3622 1275 
L 4263 0 
L 3584 0 
L 2988 1197 
Q 2756 1666 2539 1819 
Q 2322 1972 1947 1972 
L 1259 1972 
L 1259 0 
L 628 0 
L 628 4666 
L 2053 4666 
Q 2853 4666 3247 4331 
Q 3641 3997 3641 3322 
Q 3641 2881 3436 2590 
Q 3231 2300 2841 2188 
z
M 1259 4147 
L 1259 2491 
L 2053 2491 
Q 2509 2491 2742 2702 
Q 2975 2913 2975 3322 
Q 2975 3731 2742 3939 
Q 2509 4147 2053 4147 
L 1259 4147 
z
" transform="scale(0.015625)"/>
      <path id="DejaVuSans-68" d="M 3513 2113 
L 3513 0 
L 2938 0 
L 2938 2094 
Q 2938 2591 2744 2837 
Q 2550 3084 2163 3084 
Q 1697 3084 1428 2787 
Q 1159 2491 1159 1978 
L 1159 0 
L 581 0 
L 581 4863 
L 1159 4863 
L 1159 2956 
Q 1366 3272 1645 3428 
Q 1925 3584 2291 3584 
Q 2894 3584 3203 3211 
Q 3513 2838 3513 2113 
z
" transform="scale(0.015625)"/>
      <path id="DejaVuSans-6f" d="M 1959 3097 
Q 1497 3097 1228 2736 
Q 959 2375 959 1747 
Q 959 1119 1226 758 
Q 1494 397 1959 397 
Q 2419 397 2687 759 
Q 2956 1122 2956 1747 
Q 2956 2369 2687 2733 
Q 2419 3097 1959 3097 
z
M 1959 3584 
Q 2709 3584 3137 3096 
Q 3566 2609 3566 1747 
Q 3566 888 3137 398 
Q 2709 -91 1959 -91 
Q 1206 -91 779 398 
Q 353 888 353 1747 
Q 353 2609 779 3096 
Q 1206 3584 1959 3584 
z
" transform="scale(0.015625)"/>
      <path id="DejaVuSans-20" transform="scale(0.015625)"/>
      <path id="DejaVuSans-3d" d="M 678 2906 
L 4684 2906 
L 4684 2381 
L 678 2381 
L 678 2906 
z
M 678 1631 
L 4684 1631 
L 4684 1100 
L 678 1100 
L 678 1631 
z
" transform="scale(0.015625)"/>
     </defs>
     <use xlink:href="#DejaVuSans-52"/>
     <use xlink:href="#DejaVuSans-68" x="69.482422"/>
     <use xlink:href="#DejaVuSans-6f" x="132.861328"/>
     <use xlink:href="#DejaVuSans-20" x="194.042969"/>
     <use xlink:href="#DejaVuSans-3d" x="225.830078"/>
     <use xlink:href="#DejaVuSans-20" x="309.619141"/>
     <use xlink:href="#DejaVuSans-30" x="341.40625"/>
     <use xlink:href="#DejaVuSans-2e" x="405.029297"/>
     <use xlink:href="#DejaVuSans-34" x="436.816406"/>
    </g>
   </g>
   <g id="text_13">
    <!-- CNR_change = 1 -->
    <g transform="translate(113.008999 14.798437) scale(0.1 -0.1)">
     <defs>
      <path id="DejaVuSans-43" d="M 4122 4306 
L 4122 3641 
Q 3803 3938 3442 4084 
Q 3081 4231 2675 4231 
Q 1875 4231 1450 3742 
Q 1025 3253 1025 2328 
Q 1025 1406 1450 917 
Q 1875 428 2675 428 
Q 3081 428 3442 575 
Q 3803 722 4122 1019 
L 4122 359 
Q 3791 134 3420 21 
Q 3050 -91 2638 -91 
Q 1578 -91 968 557 
Q 359 1206 359 2328 
Q 359 3453 968 4101 
Q 1578 4750 2638 4750 
Q 3056 4750 3426 4639 
Q 3797 4528 4122 4306 
z
" transform="scale(0.015625)"/>
      <path id="DejaVuSans-4e" d="M 628 4666 
L 1478 4666 
L 3547 763 
L 3547 4666 
L 4159 4666 
L 4159 0 
L 3309 0 
L 1241 3903 
L 1241 0 
L 628 0 
L 628 4666 
z
" transform="scale(0.015625)"/>
      <path id="DejaVuSans-5f" d="M 3263 -1063 
L 3263 -1509 
L -63 -1509 
L -63 -1063 
L 3263 -1063 
z
" transform="scale(0.015625)"/>
      <path id="DejaVuSans-6e" d="M 3513 2113 
L 3513 0 
L 2938 0 
L 2938 2094 
Q 2938 2591 2744 2837 
Q 2550 3084 2163 3084 
Q 1697 3084 1428 2787 
Q 1159 2491 1159 1978 
L 1159 0 
L 581 0 
L 581 3500 
L 1159 3500 
L 1159 2956 
Q 1366 3272 1645 3428 
Q 1925 3584 2291 3584 
Q 2894 3584 3203 3211 
Q 3513 2838 3513 2113 
z
" transform="scale(0.015625)"/>
      <path id="DejaVuSans-67" d="M 2906 1791 
Q 2906 2416 2648 2759 
Q 2391 3103 1925 3103 
Q 1463 3103 1205 2759 
Q 947 2416 947 1791 
Q 947 1169 1205 825 
Q 1463 481 1925 481 
Q 2391 481 2648 825 
Q 2906 1169 2906 1791 
z
M 3481 434 
Q 3481 -459 3084 -895 
Q 2688 -1331 1869 -1331 
Q 1566 -1331 1297 -1286 
Q 1028 -1241 775 -1147 
L 775 -588 
Q 1028 -725 1275 -790 
Q 1522 -856 1778 -856 
Q 2344 -856 2625 -561 
Q 2906 -266 2906 331 
L 2906 616 
Q 2728 306 2450 153 
Q 2172 0 1784 0 
Q 1141 0 747 490 
Q 353 981 353 1791 
Q 353 2603 747 3093 
Q 1141 3584 1784 3584 
Q 2172 3584 2450 3431 
Q 2728 3278 2906 2969 
L 2906 3500 
L 3481 3500 
L 3481 434 
z
" transform="scale(0.015625)"/>
     </defs>
     <use xlink:href="#DejaVuSans-43"/>
     <use xlink:href="#DejaVuSans-4e" x="69.824219"/>
     <use xlink:href="#DejaVuSans-52" x="144.628906"/>
     <use xlink:href="#DejaVuSans-5f" x="214.111328"/>
     <use xlink:href="#DejaVuSans-63" x="264.111328"/>
     <use xlink:href="#DejaVuSans-68" x="319.091797"/>
     <use xlink:href="#DejaVuSans-61" x="382.470703"/>
     <use xlink:href="#DejaVuSans-6e" x="443.75"/>
     <use xlink:href="#DejaVuSans-67" x="507.128906"/>
     <use xlink:href="#DejaVuSans-65" x="570.605469"/>
     <use xlink:href="#DejaVuSans-20" x="632.128906"/>
     <use xlink:href="#DejaVuSans-3d" x="663.916016"/>
     <use xlink:href="#DejaVuSans-20" x="747.705078"/>
     <use xlink:href="#DejaVuSans-31" x="779.492188"/>
    </g>
   </g>
  </g>
  <g id="legend_1"/>
 </g>
 <defs>
  <clipPath id="pe2cde5fe2f">
   <rect x="43.78125" y="20.798437" width="222.769561" height="221.32"/>
  </clipPath>
 </defs>
</svg>
