<?xml version="1.0" encoding="utf-8" standalone="no"?>
<!DOCTYPE svg PUBLIC "-//W3C//DTD SVG 1.1//EN"
  "http://www.w3.org/Graphics/SVG/1.1/DTD/svg11.dtd">
<svg xmlns:xlink="http://www.w3.org/1999/xlink" width="294.17125pt" height="279.674688pt" viewBox="0 0 294.17125 279.674688" xmlns="http://www.w3.org/2000/svg" version="1.1">
 <metadata>
  <rdf:RDF xmlns:dc="http://purl.org/dc/elements/1.1/" xmlns:cc="http://creativecommons.org/ns#" xmlns:rdf="http://www.w3.org/1999/02/22-rdf-syntax-ns#">
   <cc:Work>
    <dc:type rdf:resource="http://purl.org/dc/dcmitype/StillImage"/>
    <dc:date>2025-08-26T09:12:47.085411</dc:date>
    <dc:format>image/svg+xml</dc:format>
    <dc:creator>
     <cc:Agent>
      <dc:title>Matplotlib v3.8.4, https://matplotlib.org/</dc:title>
     </cc:Agent>
    </dc:creator>
   </cc:Work>
  </rdf:RDF>
 </metadata>
 <defs>
  <style type="text/css">*{stroke-linejoin: round; stroke-linecap: butt}</style>
 </defs>
 <g id="figure_1">
  <g id="patch_1">
   <path d="M 0 279.674688 
L 294.17125 279.674688 
L 294.17125 0 
L 0 0 
z
" style="fill: #ffffff"/>
  </g>
  <g id="axes_1">
   <g id="patch_2">
    <path d="M 43.78125 242.118437 
L 266.550811 242.118437 
L 266.550811 20.798437 
L 43.78125 20.798437 
z
" style="fill: #ffffff"/>
   </g>
   <g id="PolyCollection_1">
    <defs>
     <path id="m40dbf3631c" d="M 81.220227 -236.277684 
L 80.598794 -236.277684 
L 80.521653 -236.555377 
L 80.431431 -236.833069 
L 80.327575 -237.110761 
L 80.209943 -237.388453 
L 80.078891 -237.666145 
L 79.935329 -237.943838 
L 79.780753 -238.22153 
L 79.617238 -238.499222 
L 79.447387 -238.776914 
L 79.274231 -239.054607 
L 79.101091 -239.332299 
L 78.931403 -239.609991 
L 78.768518 -239.887683 
L 78.615501 -240.165376 
L 78.474934 -240.443068 
L 78.348759 -240.72076 
L 78.238162 -240.998452 
L 78.143522 -241.276145 
L 78.064425 -241.553837 
L 77.999744 -241.831529 
L 77.94778 -242.109221 
L 77.906438 -242.386914 
L 77.873437 -242.664606 
L 77.846502 -242.942298 
L 77.823538 -243.21999 
L 77.802755 -243.497682 
L 77.782722 -243.775375 
L 77.762358 -244.053067 
L 77.740845 -244.330759 
L 77.717488 -244.608451 
L 77.691524 -244.886144 
L 77.661921 -245.163836 
L 77.627178 -245.441528 
L 77.585155 -245.71922 
L 77.532962 -245.996913 
L 77.466904 -246.274605 
L 77.382503 -246.552297 
L 77.274588 -246.829989 
L 77.137443 -247.107682 
L 76.964995 -247.385374 
L 76.751031 -247.663066 
L 76.489409 -247.940758 
L 76.17426 -248.21845 
L 75.800164 -248.496143 
L 75.36228 -248.773835 
L 74.856455 -249.051527 
L 74.279292 -249.329219 
L 73.6282 -249.606912 
L 72.901447 -249.884604 
L 72.09821 -250.162296 
L 71.218656 -250.439988 
L 70.26404 -250.717681 
L 69.236848 -250.995373 
L 68.140957 -251.273065 
L 66.981819 -251.550757 
L 65.766648 -251.82845 
L 64.50459 -252.106142 
L 63.206853 -252.383834 
L 61.886781 -252.661526 
L 60.559846 -252.939218 
L 59.243538 -253.216911 
L 57.957153 -253.494603 
L 56.721463 -253.772295 
L 55.558264 -254.049987 
L 54.489834 -254.32768 
L 53.538294 -254.605372 
L 52.7249 -254.883064 
L 52.069314 -255.160756 
L 51.588864 -255.438449 
L 51.297846 -255.716141 
L 51.206902 -255.993833 
L 51.322511 -256.271525 
L 51.646622 -256.549218 
L 52.176462 -256.82691 
L 52.90452 -257.104602 
L 53.81873 -257.382294 
L 54.902832 -257.659986 
L 56.136902 -257.937679 
L 57.498021 -258.215371 
L 58.961053 -258.493063 
L 60.499484 -258.770755 
L 62.086286 -259.048448 
L 63.694771 -259.32614 
L 65.299382 -259.603832 
L 66.876402 -259.881524 
L 68.40454 -260.159217 
L 69.865402 -260.436909 
L 71.243799 -260.714601 
L 72.527923 -260.992293 
L 73.709377 -261.269986 
L 74.783077 -261.547678 
L 75.747033 -261.82537 
L 76.602048 -262.103062 
L 77.351334 -262.380755 
L 78.000093 -262.658447 
L 78.555068 -262.936139 
L 79.024102 -263.213831 
L 79.415712 -263.491523 
L 79.73871 -263.769216 
L 82.080311 -263.769216 
L 82.080311 -263.769216 
L 82.403308 -263.491523 
L 82.794919 -263.213831 
L 83.263952 -262.936139 
L 83.818927 -262.658447 
L 84.467686 -262.380755 
L 85.216972 -262.103062 
L 86.071987 -261.82537 
L 87.035943 -261.547678 
L 88.109643 -261.269986 
L 89.291098 -260.992293 
L 90.575222 -260.714601 
L 91.953618 -260.436909 
L 93.41448 -260.159217 
L 94.942619 -259.881524 
L 96.519638 -259.603832 
L 98.124249 -259.32614 
L 99.732735 -259.048448 
L 101.319537 -258.770755 
L 102.857967 -258.493063 
L 104.320999 -258.215371 
L 105.682119 -257.937679 
L 106.916188 -257.659986 
L 108.00029 -257.382294 
L 108.9145 -257.104602 
L 109.642559 -256.82691 
L 110.172398 -256.549218 
L 110.49651 -256.271525 
L 110.612118 -255.993833 
L 110.521174 -255.716141 
L 110.230156 -255.438449 
L 109.749706 -255.160756 
L 109.09412 -254.883064 
L 108.280727 -254.605372 
L 107.329186 -254.32768 
L 106.260757 -254.049987 
L 105.097558 -253.772295 
L 103.861867 -253.494603 
L 102.575483 -253.216911 
L 101.259175 -252.939218 
L 99.932239 -252.661526 
L 98.612168 -252.383834 
L 97.314431 -252.106142 
L 96.052372 -251.82845 
L 94.837202 -251.550757 
L 93.678064 -251.273065 
L 92.582172 -250.995373 
L 91.55498 -250.717681 
L 90.600364 -250.439988 
L 89.72081 -250.162296 
L 88.917574 -249.884604 
L 88.190821 -249.606912 
L 87.539729 -249.329219 
L 86.962565 -249.051527 
L 86.45674 -248.773835 
L 86.018857 -248.496143 
L 85.64476 -248.21845 
L 85.329612 -247.940758 
L 85.067989 -247.663066 
L 84.854025 -247.385374 
L 84.681578 -247.107682 
L 84.544433 -246.829989 
L 84.436518 -246.552297 
L 84.352116 -246.274605 
L 84.286058 -245.996913 
L 84.233865 -245.71922 
L 84.191842 -245.441528 
L 84.157099 -245.163836 
L 84.127496 -244.886144 
L 84.101532 -244.608451 
L 84.078175 -244.330759 
L 84.056663 -244.053067 
L 84.036298 -243.775375 
L 84.016265 -243.497682 
L 83.995482 -243.21999 
L 83.972518 -242.942298 
L 83.945583 -242.664606 
L 83.912582 -242.386914 
L 83.871241 -242.109221 
L 83.819276 -241.831529 
L 83.754595 -241.553837 
L 83.675498 -241.276145 
L 83.580859 -240.998452 
L 83.470262 -240.72076 
L 83.344086 -240.443068 
L 83.203519 -240.165376 
L 83.050502 -239.887683 
L 82.887617 -239.609991 
L 82.717929 -239.332299 
L 82.54479 -239.054607 
L 82.371633 -238.776914 
L 82.201782 -238.499222 
L 82.038267 -238.22153 
L 81.883691 -237.943838 
L 81.740129 -237.666145 
L 81.609077 -237.388453 
L 81.491446 -237.110761 
L 81.387589 -236.833069 
L 81.297367 -236.555377 
L 81.220227 -236.277684 
z
" style="stroke: #595959; stroke-width: 1.25"/>
    </defs>
    <g clip-path="url(#p699fa0f362)">
     <use xlink:href="#m40dbf3631c" x="0" y="279.674688" style="fill: #72b6a1; stroke: #595959; stroke-width: 1.25"/>
    </g>
   </g>
   <g id="PolyCollection_2">
    <defs>
     <path id="meec395f376" d="M 155.926143 -211.049543 
L 154.405918 -211.049543 
L 154.229235 -211.590984 
L 154.024019 -212.132424 
L 153.788893 -212.673865 
L 153.523205 -213.215305 
L 153.227188 -213.756746 
L 152.902089 -214.298187 
L 152.550264 -214.839627 
L 152.175214 -215.381068 
L 151.78156 -215.922508 
L 151.37495 -216.463949 
L 150.961885 -217.005389 
L 150.549482 -217.54683 
L 150.145172 -218.08827 
L 149.756354 -218.629711 
L 149.390023 -219.171151 
L 149.052393 -219.712592 
L 148.748536 -220.254032 
L 148.482069 -220.795473 
L 148.254898 -221.336914 
L 148.067041 -221.878354 
L 147.916536 -222.419795 
L 147.79944 -222.961235 
L 147.709914 -223.502676 
L 147.640391 -224.044116 
L 147.581807 -224.585557 
L 147.523893 -225.126997 
L 147.455507 -225.668438 
L 147.364989 -226.209878 
L 147.240537 -226.751319 
L 147.070583 -227.292759 
L 146.844169 -227.8342 
L 146.551311 -228.375641 
L 146.183341 -228.917081 
L 145.733231 -229.458522 
L 145.195874 -229.999962 
L 144.568324 -230.541403 
L 143.849989 -231.082843 
L 143.042751 -231.624284 
L 142.151013 -232.165724 
L 141.181666 -232.707165 
L 140.143969 -233.248605 
L 139.049343 -233.790046 
L 137.911073 -234.331486 
L 136.743952 -234.872927 
L 135.563854 -235.414368 
L 134.387274 -235.955808 
L 133.230842 -236.497249 
L 132.110847 -237.038689 
L 131.042782 -237.58013 
L 130.040937 -238.12157 
L 129.118052 -238.663011 
L 128.285052 -239.204451 
L 127.550861 -239.745892 
L 126.922313 -240.287332 
L 126.404148 -240.828773 
L 125.999094 -241.370214 
L 125.708026 -241.911654 
L 125.530181 -242.453095 
L 125.463422 -242.994535 
L 125.504531 -243.535976 
L 125.6495 -244.077416 
L 125.893821 -244.618857 
L 126.232737 -245.160297 
L 126.661452 -245.701738 
L 127.175279 -246.243178 
L 127.769723 -246.784619 
L 128.440501 -247.326059 
L 129.183494 -247.8675 
L 129.994643 -248.408941 
L 130.869807 -248.950381 
L 131.804598 -249.491822 
L 132.794204 -250.033262 
L 133.833235 -250.574703 
L 134.915593 -251.116143 
L 136.034396 -251.657584 
L 137.181956 -252.199024 
L 138.349818 -252.740465 
L 139.528873 -253.281905 
L 140.709519 -253.823346 
L 141.881875 -254.364786 
L 143.036037 -254.906227 
L 144.162341 -255.447668 
L 145.251643 -255.989108 
L 146.295571 -256.530549 
L 147.286765 -257.071989 
L 148.219055 -257.61343 
L 149.087605 -258.15487 
L 149.888986 -258.696311 
L 150.621205 -259.237751 
L 151.283662 -259.779192 
L 151.877069 -260.320632 
L 152.403313 -260.862073 
L 152.865303 -261.403513 
L 153.266771 -261.944954 
L 153.612088 -262.486395 
L 153.906055 -263.027835 
L 154.153725 -263.569276 
L 154.360218 -264.110716 
L 154.530582 -264.652157 
L 155.801479 -264.652157 
L 155.801479 -264.652157 
L 155.971843 -264.110716 
L 156.178337 -263.569276 
L 156.426006 -263.027835 
L 156.719974 -262.486395 
L 157.06529 -261.944954 
L 157.466759 -261.403513 
L 157.928748 -260.862073 
L 158.454993 -260.320632 
L 159.048399 -259.779192 
L 159.710856 -259.237751 
L 160.443075 -258.696311 
L 161.244456 -258.15487 
L 162.113006 -257.61343 
L 163.045296 -257.071989 
L 164.03649 -256.530549 
L 165.080419 -255.989108 
L 166.16972 -255.447668 
L 167.296024 -254.906227 
L 168.450186 -254.364786 
L 169.622543 -253.823346 
L 170.803188 -253.281905 
L 171.982243 -252.740465 
L 173.150106 -252.199024 
L 174.297665 -251.657584 
L 175.416468 -251.116143 
L 176.498826 -250.574703 
L 177.537857 -250.033262 
L 178.527463 -249.491822 
L 179.462254 -248.950381 
L 180.337418 -248.408941 
L 181.148567 -247.8675 
L 181.89156 -247.326059 
L 182.562338 -246.784619 
L 183.156783 -246.243178 
L 183.670609 -245.701738 
L 184.099324 -245.160297 
L 184.43824 -244.618857 
L 184.682561 -244.077416 
L 184.82753 -243.535976 
L 184.868639 -242.994535 
L 184.80188 -242.453095 
L 184.624035 -241.911654 
L 184.332967 -241.370214 
L 183.927914 -240.828773 
L 183.409748 -240.287332 
L 182.7812 -239.745892 
L 182.047009 -239.204451 
L 181.214009 -238.663011 
L 180.291124 -238.12157 
L 179.289279 -237.58013 
L 178.221214 -237.038689 
L 177.101219 -236.497249 
L 175.944787 -235.955808 
L 174.768207 -235.414368 
L 173.588109 -234.872927 
L 172.420989 -234.331486 
L 171.282719 -233.790046 
L 170.188092 -233.248605 
L 169.150395 -232.707165 
L 168.181048 -232.165724 
L 167.28931 -231.624284 
L 166.482072 -231.082843 
L 165.763737 -230.541403 
L 165.136187 -229.999962 
L 164.59883 -229.458522 
L 164.14872 -228.917081 
L 163.78075 -228.375641 
L 163.487892 -227.8342 
L 163.261478 -227.292759 
L 163.091524 -226.751319 
L 162.967072 -226.209878 
L 162.876554 -225.668438 
L 162.808168 -225.126997 
L 162.750254 -224.585557 
L 162.69167 -224.044116 
L 162.622147 -223.502676 
L 162.532621 -222.961235 
L 162.415525 -222.419795 
L 162.26502 -221.878354 
L 162.077163 -221.336914 
L 161.849992 -220.795473 
L 161.583525 -220.254032 
L 161.279668 -219.712592 
L 160.942038 -219.171151 
L 160.575707 -218.629711 
L 160.186889 -218.08827 
L 159.782579 -217.54683 
L 159.370176 -217.005389 
L 158.957111 -216.463949 
L 158.550501 -215.922508 
L 158.156847 -215.381068 
L 157.781797 -214.839627 
L 157.429972 -214.298187 
L 157.104873 -213.756746 
L 156.808856 -213.215305 
L 156.543169 -212.673865 
L 156.308042 -212.132424 
L 156.102827 -211.590984 
L 155.926143 -211.049543 
z
" style="stroke: #595959; stroke-width: 1.25"/>
    </defs>
    <g clip-path="url(#p699fa0f362)">
     <use xlink:href="#meec395f376" x="0" y="279.674688" style="fill: #e99675; stroke: #595959; stroke-width: 1.25"/>
    </g>
   </g>
   <g id="PolyCollection_3">
    <defs>
     <path id="ma2b3f1de81" d="M 229.932723 -179.395576 
L 228.912379 -179.395576 
L 228.784968 -179.861113 
L 228.634409 -180.32665 
L 228.458868 -180.792187 
L 228.256973 -181.257723 
L 228.027965 -181.72326 
L 227.771854 -182.188797 
L 227.489537 -182.654334 
L 227.182899 -183.119871 
L 226.85485 -183.585408 
L 226.509305 -184.050945 
L 226.151089 -184.516481 
L 225.785758 -184.982018 
L 225.419338 -185.447555 
L 225.057993 -185.913092 
L 224.707614 -186.378629 
L 224.373376 -186.844166 
L 224.059265 -187.309702 
L 223.767616 -187.775239 
L 223.4987 -188.240776 
L 223.250388 -188.706313 
L 223.017919 -189.17185 
L 222.793829 -189.637387 
L 222.568023 -190.102924 
L 222.328045 -190.56846 
L 222.059509 -191.033997 
L 221.746718 -191.499534 
L 221.373417 -191.965071 
L 220.92367 -192.430608 
L 220.382798 -192.896145 
L 219.738342 -193.361681 
L 218.980977 -193.827218 
L 218.105334 -194.292755 
L 217.110657 -194.758292 
L 216.001257 -195.223829 
L 214.786719 -195.689366 
L 213.481836 -196.154903 
L 212.106254 -196.620439 
L 210.683851 -197.085976 
L 209.241864 -197.551513 
L 207.80981 -198.01705 
L 206.418262 -198.482587 
L 205.097544 -198.948124 
L 203.876427 -199.41366 
L 202.780892 -199.879197 
L 201.833035 -200.344734 
L 201.050178 -200.810271 
L 200.444224 -201.275808 
L 200.021296 -201.741345 
L 199.781661 -202.206882 
L 199.719943 -202.672418 
L 199.825595 -203.137955 
L 200.083591 -203.603492 
L 200.475293 -204.069029 
L 200.979433 -204.534566 
L 201.573162 -205.000103 
L 202.233099 -205.46564 
L 202.936331 -205.931176 
L 203.661324 -206.396713 
L 204.388709 -206.86225 
L 205.101912 -207.327787 
L 205.787613 -207.793324 
L 206.436041 -208.258861 
L 207.041079 -208.724397 
L 207.60022 -209.189934 
L 208.114363 -209.655471 
L 208.587482 -210.121008 
L 209.026188 -210.586545 
L 209.439204 -211.052082 
L 209.836786 -211.517619 
L 210.230109 -211.983155 
L 210.630651 -212.448692 
L 211.049588 -212.914229 
L 211.497241 -213.379766 
L 211.982572 -213.845303 
L 212.51277 -214.31084 
L 213.092923 -214.776376 
L 213.725798 -215.241913 
L 214.411733 -215.70745 
L 215.148643 -216.172987 
L 215.932132 -216.638524 
L 216.755715 -217.104061 
L 217.611127 -217.569598 
L 218.488705 -218.035134 
L 219.377825 -218.500671 
L 220.267369 -218.966208 
L 221.146188 -219.431745 
L 222.00356 -219.897282 
L 222.829586 -220.362819 
L 223.615536 -220.828355 
L 224.354114 -221.293892 
L 225.039633 -221.759429 
L 225.668104 -222.224966 
L 226.237233 -222.690503 
L 226.746344 -223.15604 
L 227.196232 -223.621577 
L 227.588967 -224.087113 
L 227.927661 -224.55265 
L 228.216223 -225.018187 
L 228.459108 -225.483724 
L 230.385994 -225.483724 
L 230.385994 -225.483724 
L 230.628879 -225.018187 
L 230.917441 -224.55265 
L 231.256135 -224.087113 
L 231.64887 -223.621577 
L 232.098758 -223.15604 
L 232.607869 -222.690503 
L 233.176998 -222.224966 
L 233.805468 -221.759429 
L 234.490988 -221.293892 
L 235.229566 -220.828355 
L 236.015516 -220.362819 
L 236.841542 -219.897282 
L 237.698913 -219.431745 
L 238.577733 -218.966208 
L 239.467276 -218.500671 
L 240.356397 -218.035134 
L 241.233975 -217.569598 
L 242.089386 -217.104061 
L 242.91297 -216.638524 
L 243.696459 -216.172987 
L 244.433369 -215.70745 
L 245.119304 -215.241913 
L 245.752179 -214.776376 
L 246.332332 -214.31084 
L 246.862529 -213.845303 
L 247.347861 -213.379766 
L 247.795514 -212.914229 
L 248.214451 -212.448692 
L 248.614992 -211.983155 
L 249.008316 -211.517619 
L 249.405898 -211.052082 
L 249.818914 -210.586545 
L 250.25762 -210.121008 
L 250.730739 -209.655471 
L 251.244882 -209.189934 
L 251.804023 -208.724397 
L 252.409061 -208.258861 
L 253.057489 -207.793324 
L 253.74319 -207.327787 
L 254.456393 -206.86225 
L 255.183778 -206.396713 
L 255.908771 -205.931176 
L 256.612003 -205.46564 
L 257.27194 -205.000103 
L 257.865669 -204.534566 
L 258.369809 -204.069029 
L 258.76151 -203.603492 
L 259.019507 -203.137955 
L 259.125159 -202.672418 
L 259.063441 -202.206882 
L 258.823806 -201.741345 
L 258.400877 -201.275808 
L 257.794924 -200.810271 
L 257.012067 -200.344734 
L 256.06421 -199.879197 
L 254.968675 -199.41366 
L 253.747558 -198.948124 
L 252.42684 -198.482587 
L 251.035291 -198.01705 
L 249.603238 -197.551513 
L 248.161251 -197.085976 
L 246.738848 -196.620439 
L 245.363266 -196.154903 
L 244.058382 -195.689366 
L 242.843845 -195.223829 
L 241.734445 -194.758292 
L 240.739768 -194.292755 
L 239.864125 -193.827218 
L 239.10676 -193.361681 
L 238.462304 -192.896145 
L 237.921432 -192.430608 
L 237.471685 -191.965071 
L 237.098384 -191.499534 
L 236.785593 -191.033997 
L 236.517057 -190.56846 
L 236.277079 -190.102924 
L 236.051273 -189.637387 
L 235.827183 -189.17185 
L 235.594714 -188.706313 
L 235.346401 -188.240776 
L 235.077486 -187.775239 
L 234.785837 -187.309702 
L 234.471726 -186.844166 
L 234.137488 -186.378629 
L 233.787109 -185.913092 
L 233.425764 -185.447555 
L 233.059344 -184.982018 
L 232.694013 -184.516481 
L 232.335797 -184.050945 
L 231.990252 -183.585408 
L 231.662203 -183.119871 
L 231.355565 -182.654334 
L 231.073248 -182.188797 
L 230.817137 -181.72326 
L 230.588129 -181.257723 
L 230.386234 -180.792187 
L 230.210693 -180.32665 
L 230.060134 -179.861113 
L 229.932723 -179.395576 
z
" style="stroke: #595959; stroke-width: 1.25"/>
    </defs>
    <g clip-path="url(#p699fa0f362)">
     <use xlink:href="#ma2b3f1de81" x="0" y="279.674688" style="fill: #95a3c3; stroke: #595959; stroke-width: 1.25"/>
    </g>
   </g>
   <g id="matplotlib.axis_1">
    <g id="xtick_1">
     <g id="line2d_1">
      <defs>
       <path id="m6ce85caf67" d="M 0 0 
L 0 3.5 
" style="stroke: #000000; stroke-width: 0.8"/>
      </defs>
      <g>
       <use xlink:href="#m6ce85caf67" x="80.90951" y="242.118437" style="stroke: #000000; stroke-width: 0.8"/>
      </g>
     </g>
     <g id="text_1">
      <!-- Deep -->
      <g transform="translate(67.732166 256.716875) scale(0.1 -0.1)">
       <defs>
        <path id="DejaVuSans-44" d="M 1259 4147 
L 1259 519 
L 2022 519 
Q 2988 519 3436 956 
Q 3884 1394 3884 2338 
Q 3884 3275 3436 3711 
Q 2988 4147 2022 4147 
L 1259 4147 
z
M 628 4666 
L 1925 4666 
Q 3281 4666 3915 4102 
Q 4550 3538 4550 2338 
Q 4550 1131 3912 565 
Q 3275 0 1925 0 
L 628 0 
L 628 4666 
z
" transform="scale(0.015625)"/>
        <path id="DejaVuSans-65" d="M 3597 1894 
L 3597 1613 
L 953 1613 
Q 991 1019 1311 708 
Q 1631 397 2203 397 
Q 2534 397 2845 478 
Q 3156 559 3463 722 
L 3463 178 
Q 3153 47 2828 -22 
Q 2503 -91 2169 -91 
Q 1331 -91 842 396 
Q 353 884 353 1716 
Q 353 2575 817 3079 
Q 1281 3584 2069 3584 
Q 2775 3584 3186 3129 
Q 3597 2675 3597 1894 
z
M 3022 2063 
Q 3016 2534 2758 2815 
Q 2500 3097 2075 3097 
Q 1594 3097 1305 2825 
Q 1016 2553 972 2059 
L 3022 2063 
z
" transform="scale(0.015625)"/>
        <path id="DejaVuSans-70" d="M 1159 525 
L 1159 -1331 
L 581 -1331 
L 581 3500 
L 1159 3500 
L 1159 2969 
Q 1341 3281 1617 3432 
Q 1894 3584 2278 3584 
Q 2916 3584 3314 3078 
Q 3713 2572 3713 1747 
Q 3713 922 3314 415 
Q 2916 -91 2278 -91 
Q 1894 -91 1617 61 
Q 1341 213 1159 525 
z
M 3116 1747 
Q 3116 2381 2855 2742 
Q 2594 3103 2138 3103 
Q 1681 3103 1420 2742 
Q 1159 2381 1159 1747 
Q 1159 1113 1420 752 
Q 1681 391 2138 391 
Q 2594 391 2855 752 
Q 3116 1113 3116 1747 
z
" transform="scale(0.015625)"/>
       </defs>
       <use xlink:href="#DejaVuSans-44"/>
       <use xlink:href="#DejaVuSans-65" x="77.001953"/>
       <use xlink:href="#DejaVuSans-65" x="138.525391"/>
       <use xlink:href="#DejaVuSans-70" x="200.048828"/>
      </g>
     </g>
    </g>
    <g id="xtick_2">
     <g id="line2d_2">
      <g>
       <use xlink:href="#m6ce85caf67" x="155.166031" y="242.118437" style="stroke: #000000; stroke-width: 0.8"/>
      </g>
     </g>
     <g id="text_2">
      <!-- Middle -->
      <g transform="translate(138.648843 256.716875) scale(0.1 -0.1)">
       <defs>
        <path id="DejaVuSans-4d" d="M 628 4666 
L 1569 4666 
L 2759 1491 
L 3956 4666 
L 4897 4666 
L 4897 0 
L 4281 0 
L 4281 4097 
L 3078 897 
L 2444 897 
L 1241 4097 
L 1241 0 
L 628 0 
L 628 4666 
z
" transform="scale(0.015625)"/>
        <path id="DejaVuSans-69" d="M 603 3500 
L 1178 3500 
L 1178 0 
L 603 0 
L 603 3500 
z
M 603 4863 
L 1178 4863 
L 1178 4134 
L 603 4134 
L 603 4863 
z
" transform="scale(0.015625)"/>
        <path id="DejaVuSans-64" d="M 2906 2969 
L 2906 4863 
L 3481 4863 
L 3481 0 
L 2906 0 
L 2906 525 
Q 2725 213 2448 61 
Q 2172 -91 1784 -91 
Q 1150 -91 751 415 
Q 353 922 353 1747 
Q 353 2572 751 3078 
Q 1150 3584 1784 3584 
Q 2172 3584 2448 3432 
Q 2725 3281 2906 2969 
z
M 947 1747 
Q 947 1113 1208 752 
Q 1469 391 1925 391 
Q 2381 391 2643 752 
Q 2906 1113 2906 1747 
Q 2906 2381 2643 2742 
Q 2381 3103 1925 3103 
Q 1469 3103 1208 2742 
Q 947 2381 947 1747 
z
" transform="scale(0.015625)"/>
        <path id="DejaVuSans-6c" d="M 603 4863 
L 1178 4863 
L 1178 0 
L 603 0 
L 603 4863 
z
" transform="scale(0.015625)"/>
       </defs>
       <use xlink:href="#DejaVuSans-4d"/>
       <use xlink:href="#DejaVuSans-69" x="86.279297"/>
       <use xlink:href="#DejaVuSans-64" x="114.0625"/>
       <use xlink:href="#DejaVuSans-64" x="177.539062"/>
       <use xlink:href="#DejaVuSans-6c" x="241.015625"/>
       <use xlink:href="#DejaVuSans-65" x="268.798828"/>
      </g>
     </g>
    </g>
    <g id="xtick_3">
     <g id="line2d_3">
      <g>
       <use xlink:href="#m6ce85caf67" x="229.422551" y="242.118437" style="stroke: #000000; stroke-width: 0.8"/>
      </g>
     </g>
     <g id="text_3">
      <!-- Superficial -->
      <g transform="translate(203.032707 256.716875) scale(0.1 -0.1)">
       <defs>
        <path id="DejaVuSans-53" d="M 3425 4513 
L 3425 3897 
Q 3066 4069 2747 4153 
Q 2428 4238 2131 4238 
Q 1616 4238 1336 4038 
Q 1056 3838 1056 3469 
Q 1056 3159 1242 3001 
Q 1428 2844 1947 2747 
L 2328 2669 
Q 3034 2534 3370 2195 
Q 3706 1856 3706 1288 
Q 3706 609 3251 259 
Q 2797 -91 1919 -91 
Q 1588 -91 1214 -16 
Q 841 59 441 206 
L 441 856 
Q 825 641 1194 531 
Q 1563 422 1919 422 
Q 2459 422 2753 634 
Q 3047 847 3047 1241 
Q 3047 1584 2836 1778 
Q 2625 1972 2144 2069 
L 1759 2144 
Q 1053 2284 737 2584 
Q 422 2884 422 3419 
Q 422 4038 858 4394 
Q 1294 4750 2059 4750 
Q 2388 4750 2728 4690 
Q 3069 4631 3425 4513 
z
" transform="scale(0.015625)"/>
        <path id="DejaVuSans-75" d="M 544 1381 
L 544 3500 
L 1119 3500 
L 1119 1403 
Q 1119 906 1312 657 
Q 1506 409 1894 409 
Q 2359 409 2629 706 
Q 2900 1003 2900 1516 
L 2900 3500 
L 3475 3500 
L 3475 0 
L 2900 0 
L 2900 538 
Q 2691 219 2414 64 
Q 2138 -91 1772 -91 
Q 1169 -91 856 284 
Q 544 659 544 1381 
z
M 1991 3584 
L 1991 3584 
z
" transform="scale(0.015625)"/>
        <path id="DejaVuSans-72" d="M 2631 2963 
Q 2534 3019 2420 3045 
Q 2306 3072 2169 3072 
Q 1681 3072 1420 2755 
Q 1159 2438 1159 1844 
L 1159 0 
L 581 0 
L 581 3500 
L 1159 3500 
L 1159 2956 
Q 1341 3275 1631 3429 
Q 1922 3584 2338 3584 
Q 2397 3584 2469 3576 
Q 2541 3569 2628 3553 
L 2631 2963 
z
" transform="scale(0.015625)"/>
        <path id="DejaVuSans-66" d="M 2375 4863 
L 2375 4384 
L 1825 4384 
Q 1516 4384 1395 4259 
Q 1275 4134 1275 3809 
L 1275 3500 
L 2222 3500 
L 2222 3053 
L 1275 3053 
L 1275 0 
L 697 0 
L 697 3053 
L 147 3053 
L 147 3500 
L 697 3500 
L 697 3744 
Q 697 4328 969 4595 
Q 1241 4863 1831 4863 
L 2375 4863 
z
" transform="scale(0.015625)"/>
        <path id="DejaVuSans-63" d="M 3122 3366 
L 3122 2828 
Q 2878 2963 2633 3030 
Q 2388 3097 2138 3097 
Q 1578 3097 1268 2742 
Q 959 2388 959 1747 
Q 959 1106 1268 751 
Q 1578 397 2138 397 
Q 2388 397 2633 464 
Q 2878 531 3122 666 
L 3122 134 
Q 2881 22 2623 -34 
Q 2366 -91 2075 -91 
Q 1284 -91 818 406 
Q 353 903 353 1747 
Q 353 2603 823 3093 
Q 1294 3584 2113 3584 
Q 2378 3584 2631 3529 
Q 2884 3475 3122 3366 
z
" transform="scale(0.015625)"/>
        <path id="DejaVuSans-61" d="M 2194 1759 
Q 1497 1759 1228 1600 
Q 959 1441 959 1056 
Q 959 750 1161 570 
Q 1363 391 1709 391 
Q 2188 391 2477 730 
Q 2766 1069 2766 1631 
L 2766 1759 
L 2194 1759 
z
M 3341 1997 
L 3341 0 
L 2766 0 
L 2766 531 
Q 2569 213 2275 61 
Q 1981 -91 1556 -91 
Q 1019 -91 701 211 
Q 384 513 384 1019 
Q 384 1609 779 1909 
Q 1175 2209 1959 2209 
L 2766 2209 
L 2766 2266 
Q 2766 2663 2505 2880 
Q 2244 3097 1772 3097 
Q 1472 3097 1187 3025 
Q 903 2953 641 2809 
L 641 3341 
Q 956 3463 1253 3523 
Q 1550 3584 1831 3584 
Q 2591 3584 2966 3190 
Q 3341 2797 3341 1997 
z
" transform="scale(0.015625)"/>
       </defs>
       <use xlink:href="#DejaVuSans-53"/>
       <use xlink:href="#DejaVuSans-75" x="63.476562"/>
       <use xlink:href="#DejaVuSans-70" x="126.855469"/>
       <use xlink:href="#DejaVuSans-65" x="190.332031"/>
       <use xlink:href="#DejaVuSans-72" x="251.855469"/>
       <use xlink:href="#DejaVuSans-66" x="292.96875"/>
       <use xlink:href="#DejaVuSans-69" x="328.173828"/>
       <use xlink:href="#DejaVuSans-63" x="355.957031"/>
       <use xlink:href="#DejaVuSans-69" x="410.9375"/>
       <use xlink:href="#DejaVuSans-61" x="438.720703"/>
       <use xlink:href="#DejaVuSans-6c" x="500"/>
      </g>
     </g>
    </g>
    <g id="text_4">
     <!-- Layer -->
     <g transform="translate(141.224624 270.395) scale(0.1 -0.1)">
      <defs>
       <path id="DejaVuSans-4c" d="M 628 4666 
L 1259 4666 
L 1259 531 
L 3531 531 
L 3531 0 
L 628 0 
L 628 4666 
z
" transform="scale(0.015625)"/>
       <path id="DejaVuSans-79" d="M 2059 -325 
Q 1816 -950 1584 -1140 
Q 1353 -1331 966 -1331 
L 506 -1331 
L 506 -850 
L 844 -850 
Q 1081 -850 1212 -737 
Q 1344 -625 1503 -206 
L 1606 56 
L 191 3500 
L 800 3500 
L 1894 763 
L 2988 3500 
L 3597 3500 
L 2059 -325 
z
" transform="scale(0.015625)"/>
      </defs>
      <use xlink:href="#DejaVuSans-4c"/>
      <use xlink:href="#DejaVuSans-61" x="55.712891"/>
      <use xlink:href="#DejaVuSans-79" x="116.992188"/>
      <use xlink:href="#DejaVuSans-65" x="176.171875"/>
      <use xlink:href="#DejaVuSans-72" x="237.695312"/>
     </g>
    </g>
   </g>
   <g id="matplotlib.axis_2">
    <g id="ytick_1">
     <g id="line2d_4">
      <defs>
       <path id="m17051b0603" d="M 0 0 
L -3.5 0 
" style="stroke: #000000; stroke-width: 0.8"/>
      </defs>
      <g>
       <use xlink:href="#m17051b0603" x="43.78125" y="242.118437" style="stroke: #000000; stroke-width: 0.8"/>
      </g>
     </g>
     <g id="text_5">
      <!-- 0.0 -->
      <g transform="translate(20.878125 245.917656) scale(0.1 -0.1)">
       <defs>
        <path id="DejaVuSans-30" d="M 2034 4250 
Q 1547 4250 1301 3770 
Q 1056 3291 1056 2328 
Q 1056 1369 1301 889 
Q 1547 409 2034 409 
Q 2525 409 2770 889 
Q 3016 1369 3016 2328 
Q 3016 3291 2770 3770 
Q 2525 4250 2034 4250 
z
M 2034 4750 
Q 2819 4750 3233 4129 
Q 3647 3509 3647 2328 
Q 3647 1150 3233 529 
Q 2819 -91 2034 -91 
Q 1250 -91 836 529 
Q 422 1150 422 2328 
Q 422 3509 836 4129 
Q 1250 4750 2034 4750 
z
" transform="scale(0.015625)"/>
        <path id="DejaVuSans-2e" d="M 684 794 
L 1344 794 
L 1344 0 
L 684 0 
L 684 794 
z
" transform="scale(0.015625)"/>
       </defs>
       <use xlink:href="#DejaVuSans-30"/>
       <use xlink:href="#DejaVuSans-2e" x="63.623047"/>
       <use xlink:href="#DejaVuSans-30" x="95.410156"/>
      </g>
     </g>
    </g>
    <g id="ytick_2">
     <g id="line2d_5">
      <g>
       <use xlink:href="#m17051b0603" x="43.78125" y="197.854437" style="stroke: #000000; stroke-width: 0.8"/>
      </g>
     </g>
     <g id="text_6">
      <!-- 0.2 -->
      <g transform="translate(20.878125 201.653656) scale(0.1 -0.1)">
       <defs>
        <path id="DejaVuSans-32" d="M 1228 531 
L 3431 531 
L 3431 0 
L 469 0 
L 469 531 
Q 828 903 1448 1529 
Q 2069 2156 2228 2338 
Q 2531 2678 2651 2914 
Q 2772 3150 2772 3378 
Q 2772 3750 2511 3984 
Q 2250 4219 1831 4219 
Q 1534 4219 1204 4116 
Q 875 4013 500 3803 
L 500 4441 
Q 881 4594 1212 4672 
Q 1544 4750 1819 4750 
Q 2544 4750 2975 4387 
Q 3406 4025 3406 3419 
Q 3406 3131 3298 2873 
Q 3191 2616 2906 2266 
Q 2828 2175 2409 1742 
Q 1991 1309 1228 531 
z
" transform="scale(0.015625)"/>
       </defs>
       <use xlink:href="#DejaVuSans-30"/>
       <use xlink:href="#DejaVuSans-2e" x="63.623047"/>
       <use xlink:href="#DejaVuSans-32" x="95.410156"/>
      </g>
     </g>
    </g>
    <g id="ytick_3">
     <g id="line2d_6">
      <g>
       <use xlink:href="#m17051b0603" x="43.78125" y="153.590437" style="stroke: #000000; stroke-width: 0.8"/>
      </g>
     </g>
     <g id="text_7">
      <!-- 0.4 -->
      <g transform="translate(20.878125 157.389656) scale(0.1 -0.1)">
       <defs>
        <path id="DejaVuSans-34" d="M 2419 4116 
L 825 1625 
L 2419 1625 
L 2419 4116 
z
M 2253 4666 
L 3047 4666 
L 3047 1625 
L 3713 1625 
L 3713 1100 
L 3047 1100 
L 3047 0 
L 2419 0 
L 2419 1100 
L 313 1100 
L 313 1709 
L 2253 4666 
z
" transform="scale(0.015625)"/>
       </defs>
       <use xlink:href="#DejaVuSans-30"/>
       <use xlink:href="#DejaVuSans-2e" x="63.623047"/>
       <use xlink:href="#DejaVuSans-34" x="95.410156"/>
      </g>
     </g>
    </g>
    <g id="ytick_4">
     <g id="line2d_7">
      <g>
       <use xlink:href="#m17051b0603" x="43.78125" y="109.326437" style="stroke: #000000; stroke-width: 0.8"/>
      </g>
     </g>
     <g id="text_8">
      <!-- 0.6 -->
      <g transform="translate(20.878125 113.125656) scale(0.1 -0.1)">
       <defs>
        <path id="DejaVuSans-36" d="M 2113 2584 
Q 1688 2584 1439 2293 
Q 1191 2003 1191 1497 
Q 1191 994 1439 701 
Q 1688 409 2113 409 
Q 2538 409 2786 701 
Q 3034 994 3034 1497 
Q 3034 2003 2786 2293 
Q 2538 2584 2113 2584 
z
M 3366 4563 
L 3366 3988 
Q 3128 4100 2886 4159 
Q 2644 4219 2406 4219 
Q 1781 4219 1451 3797 
Q 1122 3375 1075 2522 
Q 1259 2794 1537 2939 
Q 1816 3084 2150 3084 
Q 2853 3084 3261 2657 
Q 3669 2231 3669 1497 
Q 3669 778 3244 343 
Q 2819 -91 2113 -91 
Q 1303 -91 875 529 
Q 447 1150 447 2328 
Q 447 3434 972 4092 
Q 1497 4750 2381 4750 
Q 2619 4750 2861 4703 
Q 3103 4656 3366 4563 
z
" transform="scale(0.015625)"/>
       </defs>
       <use xlink:href="#DejaVuSans-30"/>
       <use xlink:href="#DejaVuSans-2e" x="63.623047"/>
       <use xlink:href="#DejaVuSans-36" x="95.410156"/>
      </g>
     </g>
    </g>
    <g id="ytick_5">
     <g id="line2d_8">
      <g>
       <use xlink:href="#m17051b0603" x="43.78125" y="65.062437" style="stroke: #000000; stroke-width: 0.8"/>
      </g>
     </g>
     <g id="text_9">
      <!-- 0.8 -->
      <g transform="translate(20.878125 68.861656) scale(0.1 -0.1)">
       <defs>
        <path id="DejaVuSans-38" d="M 2034 2216 
Q 1584 2216 1326 1975 
Q 1069 1734 1069 1313 
Q 1069 891 1326 650 
Q 1584 409 2034 409 
Q 2484 409 2743 651 
Q 3003 894 3003 1313 
Q 3003 1734 2745 1975 
Q 2488 2216 2034 2216 
z
M 1403 2484 
Q 997 2584 770 2862 
Q 544 3141 544 3541 
Q 544 4100 942 4425 
Q 1341 4750 2034 4750 
Q 2731 4750 3128 4425 
Q 3525 4100 3525 3541 
Q 3525 3141 3298 2862 
Q 3072 2584 2669 2484 
Q 3125 2378 3379 2068 
Q 3634 1759 3634 1313 
Q 3634 634 3220 271 
Q 2806 -91 2034 -91 
Q 1263 -91 848 271 
Q 434 634 434 1313 
Q 434 1759 690 2068 
Q 947 2378 1403 2484 
z
M 1172 3481 
Q 1172 3119 1398 2916 
Q 1625 2713 2034 2713 
Q 2441 2713 2670 2916 
Q 2900 3119 2900 3481 
Q 2900 3844 2670 4047 
Q 2441 4250 2034 4250 
Q 1625 4250 1398 4047 
Q 1172 3844 1172 3481 
z
" transform="scale(0.015625)"/>
       </defs>
       <use xlink:href="#DejaVuSans-30"/>
       <use xlink:href="#DejaVuSans-2e" x="63.623047"/>
       <use xlink:href="#DejaVuSans-38" x="95.410156"/>
      </g>
     </g>
    </g>
    <g id="ytick_6">
     <g id="line2d_9">
      <g>
       <use xlink:href="#m17051b0603" x="43.78125" y="20.798437" style="stroke: #000000; stroke-width: 0.8"/>
      </g>
     </g>
     <g id="text_10">
      <!-- 1.0 -->
      <g transform="translate(20.878125 24.597656) scale(0.1 -0.1)">
       <defs>
        <path id="DejaVuSans-31" d="M 794 531 
L 1825 531 
L 1825 4091 
L 703 3866 
L 703 4441 
L 1819 4666 
L 2450 4666 
L 2450 531 
L 3481 531 
L 3481 0 
L 794 0 
L 794 531 
z
" transform="scale(0.015625)"/>
       </defs>
       <use xlink:href="#DejaVuSans-31"/>
       <use xlink:href="#DejaVuSans-2e" x="63.623047"/>
       <use xlink:href="#DejaVuSans-30" x="95.410156"/>
      </g>
     </g>
    </g>
    <g id="text_11">
     <!-- Accuracy -->
     <g transform="translate(14.798438 154.286563) rotate(-90) scale(0.1 -0.1)">
      <defs>
       <path id="DejaVuSans-41" d="M 2188 4044 
L 1331 1722 
L 3047 1722 
L 2188 4044 
z
M 1831 4666 
L 2547 4666 
L 4325 0 
L 3669 0 
L 3244 1197 
L 1141 1197 
L 716 0 
L 50 0 
L 1831 4666 
z
" transform="scale(0.015625)"/>
      </defs>
      <use xlink:href="#DejaVuSans-41"/>
      <use xlink:href="#DejaVuSans-63" x="66.658203"/>
      <use xlink:href="#DejaVuSans-63" x="121.638672"/>
      <use xlink:href="#DejaVuSans-75" x="176.619141"/>
      <use xlink:href="#DejaVuSans-72" x="239.998047"/>
      <use xlink:href="#DejaVuSans-61" x="281.111328"/>
      <use xlink:href="#DejaVuSans-63" x="342.390625"/>
      <use xlink:href="#DejaVuSans-79" x="397.371094"/>
     </g>
    </g>
   </g>
   <g id="line2d_10">
    <path d="M 43.78125 131.458438 
L 266.550811 131.458438 
" clip-path="url(#p699fa0f362)" style="fill: none; stroke-dasharray: 5.55,2.4; stroke-dashoffset: 0; stroke: #808080; stroke-width: 1.5"/>
   </g>
   <g id="patch_3">
    <path d="M 43.78125 242.118437 
L 43.78125 20.798437 
" style="fill: none; stroke: #000000; stroke-width: 0.8; stroke-linejoin: miter; stroke-linecap: square"/>
   </g>
   <g id="patch_4">
    <path d="M 43.78125 242.118437 
L 266.550811 242.118437 
" style="fill: none; stroke: #000000; stroke-width: 0.8; stroke-linejoin: miter; stroke-linecap: square"/>
   </g>
   <g id="PathCollection_1">
    <defs>
     <path id="mc158931cf5" d="M 0 1.25 
C 0.331504 1.25 0.649475 1.118292 0.883883 0.883883 
C 1.118292 0.649475 1.25 0.331504 1.25 0 
C 1.25 -0.331504 1.118292 -0.649475 0.883883 -0.883883 
C 0.649475 -1.118292 0.331504 -1.25 0 -1.25 
C -0.331504 -1.25 -0.649475 -1.118292 -0.883883 -0.883883 
C -1.118292 -0.649475 -1.25 -0.331504 -1.25 0 
C -1.25 0.331504 -1.118292 0.649475 -0.883883 0.883883 
C -0.649475 1.118292 -0.331504 1.25 0 1.25 
z
" style="stroke: #595959"/>
    </defs>
    <g clip-path="url(#p699fa0f362)">
     <use xlink:href="#mc158931cf5" x="80.90951" y="23.011637" style="fill: #595959; stroke: #595959"/>
     <use xlink:href="#mc158931cf5" x="80.90951" y="27.438037" style="fill: #595959; stroke: #595959"/>
     <use xlink:href="#mc158931cf5" x="80.90951" y="23.011637" style="fill: #595959; stroke: #595959"/>
     <use xlink:href="#mc158931cf5" x="80.90951" y="25.224837" style="fill: #595959; stroke: #595959"/>
     <use xlink:href="#mc158931cf5" x="80.90951" y="25.224837" style="fill: #595959; stroke: #595959"/>
     <use xlink:href="#mc158931cf5" x="80.90951" y="20.798437" style="fill: #595959; stroke: #595959"/>
     <use xlink:href="#mc158931cf5" x="80.90951" y="25.224837" style="fill: #595959; stroke: #595959"/>
     <use xlink:href="#mc158931cf5" x="80.90951" y="38.504037" style="fill: #595959; stroke: #595959"/>
     <use xlink:href="#mc158931cf5" x="80.90951" y="29.651237" style="fill: #595959; stroke: #595959"/>
     <use xlink:href="#mc158931cf5" x="80.90951" y="23.011637" style="fill: #595959; stroke: #595959"/>
     <use xlink:href="#mc158931cf5" x="80.90951" y="20.798437" style="fill: #595959; stroke: #595959"/>
     <use xlink:href="#mc158931cf5" x="80.90951" y="34.077637" style="fill: #595959; stroke: #595959"/>
     <use xlink:href="#mc158931cf5" x="80.90951" y="25.224837" style="fill: #595959; stroke: #595959"/>
     <use xlink:href="#mc158931cf5" x="80.90951" y="23.011637" style="fill: #595959; stroke: #595959"/>
     <use xlink:href="#mc158931cf5" x="80.90951" y="25.224837" style="fill: #595959; stroke: #595959"/>
     <use xlink:href="#mc158931cf5" x="80.90951" y="27.438037" style="fill: #595959; stroke: #595959"/>
     <use xlink:href="#mc158931cf5" x="80.90951" y="23.011637" style="fill: #595959; stroke: #595959"/>
     <use xlink:href="#mc158931cf5" x="80.90951" y="20.798437" style="fill: #595959; stroke: #595959"/>
     <use xlink:href="#mc158931cf5" x="80.90951" y="23.011637" style="fill: #595959; stroke: #595959"/>
     <use xlink:href="#mc158931cf5" x="80.90951" y="23.011637" style="fill: #595959; stroke: #595959"/>
    </g>
   </g>
   <g id="PathCollection_2">
    <g clip-path="url(#p699fa0f362)">
     <use xlink:href="#mc158931cf5" x="155.166031" y="58.422837" style="fill: #595959; stroke: #595959"/>
     <use xlink:href="#mc158931cf5" x="155.166031" y="29.651237" style="fill: #595959; stroke: #595959"/>
     <use xlink:href="#mc158931cf5" x="155.166031" y="25.224837" style="fill: #595959; stroke: #595959"/>
     <use xlink:href="#mc158931cf5" x="155.166031" y="58.422838" style="fill: #595959; stroke: #595959"/>
     <use xlink:href="#mc158931cf5" x="155.166031" y="36.290837" style="fill: #595959; stroke: #595959"/>
     <use xlink:href="#mc158931cf5" x="155.166031" y="36.290837" style="fill: #595959; stroke: #595959"/>
     <use xlink:href="#mc158931cf5" x="155.166031" y="36.290837" style="fill: #595959; stroke: #595959"/>
     <use xlink:href="#mc158931cf5" x="155.166031" y="45.143637" style="fill: #595959; stroke: #595959"/>
     <use xlink:href="#mc158931cf5" x="155.166031" y="38.504037" style="fill: #595959; stroke: #595959"/>
     <use xlink:href="#mc158931cf5" x="155.166031" y="51.783237" style="fill: #595959; stroke: #595959"/>
     <use xlink:href="#mc158931cf5" x="155.166031" y="29.651237" style="fill: #595959; stroke: #595959"/>
     <use xlink:href="#mc158931cf5" x="155.166031" y="31.864437" style="fill: #595959; stroke: #595959"/>
     <use xlink:href="#mc158931cf5" x="155.166031" y="31.864437" style="fill: #595959; stroke: #595959"/>
     <use xlink:href="#mc158931cf5" x="155.166031" y="40.717238" style="fill: #595959; stroke: #595959"/>
     <use xlink:href="#mc158931cf5" x="155.166031" y="40.717238" style="fill: #595959; stroke: #595959"/>
     <use xlink:href="#mc158931cf5" x="155.166031" y="34.077637" style="fill: #595959; stroke: #595959"/>
     <use xlink:href="#mc158931cf5" x="155.166031" y="38.504037" style="fill: #595959; stroke: #595959"/>
     <use xlink:href="#mc158931cf5" x="155.166031" y="27.438037" style="fill: #595959; stroke: #595959"/>
     <use xlink:href="#mc158931cf5" x="155.166031" y="42.930437" style="fill: #595959; stroke: #595959"/>
     <use xlink:href="#mc158931cf5" x="155.166031" y="42.930437" style="fill: #595959; stroke: #595959"/>
    </g>
   </g>
   <g id="PathCollection_3">
    <g clip-path="url(#p699fa0f362)">
     <use xlink:href="#mc158931cf5" x="229.422551" y="76.128437" style="fill: #595959; stroke: #595959"/>
     <use xlink:href="#mc158931cf5" x="229.422551" y="67.275637" style="fill: #595959; stroke: #595959"/>
     <use xlink:href="#mc158931cf5" x="229.422551" y="80.554838" style="fill: #595959; stroke: #595959"/>
     <use xlink:href="#mc158931cf5" x="229.422551" y="62.849237" style="fill: #595959; stroke: #595959"/>
     <use xlink:href="#mc158931cf5" x="229.422551" y="62.849237" style="fill: #595959; stroke: #595959"/>
     <use xlink:href="#mc158931cf5" x="229.422551" y="67.275637" style="fill: #595959; stroke: #595959"/>
     <use xlink:href="#mc158931cf5" x="229.422551" y="78.341637" style="fill: #595959; stroke: #595959"/>
     <use xlink:href="#mc158931cf5" x="229.422551" y="73.915237" style="fill: #595959; stroke: #595959"/>
     <use xlink:href="#mc158931cf5" x="229.422551" y="65.062437" style="fill: #595959; stroke: #595959"/>
     <use xlink:href="#mc158931cf5" x="229.422551" y="89.407637" style="fill: #595959; stroke: #595959"/>
     <use xlink:href="#mc158931cf5" x="229.422551" y="76.128437" style="fill: #595959; stroke: #595959"/>
     <use xlink:href="#mc158931cf5" x="229.422551" y="91.620837" style="fill: #595959; stroke: #595959"/>
     <use xlink:href="#mc158931cf5" x="229.422551" y="71.702037" style="fill: #595959; stroke: #595959"/>
     <use xlink:href="#mc158931cf5" x="229.422551" y="80.554837" style="fill: #595959; stroke: #595959"/>
     <use xlink:href="#mc158931cf5" x="229.422551" y="78.341637" style="fill: #595959; stroke: #595959"/>
     <use xlink:href="#mc158931cf5" x="229.422551" y="80.554838" style="fill: #595959; stroke: #595959"/>
     <use xlink:href="#mc158931cf5" x="229.422551" y="73.915237" style="fill: #595959; stroke: #595959"/>
     <use xlink:href="#mc158931cf5" x="229.422551" y="78.341637" style="fill: #595959; stroke: #595959"/>
     <use xlink:href="#mc158931cf5" x="229.422551" y="78.341637" style="fill: #595959; stroke: #595959"/>
     <use xlink:href="#mc158931cf5" x="229.422551" y="69.488837" style="fill: #595959; stroke: #595959"/>
    </g>
   </g>
   <g id="text_12">
    <!-- Rho = 0.4 -->
    <g transform="translate(273.08589 106.436563) rotate(-270) scale(0.1 -0.1)">
     <defs>
      <path id="DejaVuSans-52" d="M 2841 2188 
Q 3044 2119 3236 1894 
Q 3428 1669 3622 1275 
L 4263 0 
L 3584 0 
L 2988 1197 
Q 2756 1666 2539 1819 
Q 2322 1972 1947 1972 
L 1259 1972 
L 1259 0 
L 628 0 
L 628 4666 
L 2053 4666 
Q 2853 4666 3247 4331 
Q 3641 3997 3641 3322 
Q 3641 2881 3436 2590 
Q 3231 2300 2841 2188 
z
M 1259 4147 
L 1259 2491 
L 2053 2491 
Q 2509 2491 2742 2702 
Q 2975 2913 2975 3322 
Q 2975 3731 2742 3939 
Q 2509 4147 2053 4147 
L 1259 4147 
z
" transform="scale(0.015625)"/>
      <path id="DejaVuSans-68" d="M 3513 2113 
L 3513 0 
L 2938 0 
L 2938 2094 
Q 2938 2591 2744 2837 
Q 2550 3084 2163 3084 
Q 1697 3084 1428 2787 
Q 1159 2491 1159 1978 
L 1159 0 
L 581 0 
L 581 4863 
L 1159 4863 
L 1159 2956 
Q 1366 3272 1645 3428 
Q 1925 3584 2291 3584 
Q 2894 3584 3203 3211 
Q 3513 2838 3513 2113 
z
" transform="scale(0.015625)"/>
      <path id="DejaVuSans-6f" d="M 1959 3097 
Q 1497 3097 1228 2736 
Q 959 2375 959 1747 
Q 959 1119 1226 758 
Q 1494 397 1959 397 
Q 2419 397 2687 759 
Q 2956 1122 2956 1747 
Q 2956 2369 2687 2733 
Q 2419 3097 1959 3097 
z
M 1959 3584 
Q 2709 3584 3137 3096 
Q 3566 2609 3566 1747 
Q 3566 888 3137 398 
Q 2709 -91 1959 -91 
Q 1206 -91 779 398 
Q 353 888 353 1747 
Q 353 2609 779 3096 
Q 1206 3584 1959 3584 
z
" transform="scale(0.015625)"/>
      <path id="DejaVuSans-20" transform="scale(0.015625)"/>
      <path id="DejaVuSans-3d" d="M 678 2906 
L 4684 2906 
L 4684 2381 
L 678 2381 
L 678 2906 
z
M 678 1631 
L 4684 1631 
L 4684 1100 
L 678 1100 
L 678 1631 
z
" transform="scale(0.015625)"/>
     </defs>
     <use xlink:href="#DejaVuSans-52"/>
     <use xlink:href="#DejaVuSans-68" x="69.482422"/>
     <use xlink:href="#DejaVuSans-6f" x="132.861328"/>
     <use xlink:href="#DejaVuSans-20" x="194.042969"/>
     <use xlink:href="#DejaVuSans-3d" x="225.830078"/>
     <use xlink:href="#DejaVuSans-20" x="309.619141"/>
     <use xlink:href="#DejaVuSans-30" x="341.40625"/>
     <use xlink:href="#DejaVuSans-2e" x="405.029297"/>
     <use xlink:href="#DejaVuSans-34" x="436.816406"/>
    </g>
   </g>
   <g id="text_13">
    <!-- CNR_change = 1 -->
    <g transform="translate(113.008999 14.798437) scale(0.1 -0.1)">
     <defs>
      <path id="DejaVuSans-43" d="M 4122 4306 
L 4122 3641 
Q 3803 3938 3442 4084 
Q 3081 4231 2675 4231 
Q 1875 4231 1450 3742 
Q 1025 3253 1025 2328 
Q 1025 1406 1450 917 
Q 1875 428 2675 428 
Q 3081 428 3442 575 
Q 3803 722 4122 1019 
L 4122 359 
Q 3791 134 3420 21 
Q 3050 -91 2638 -91 
Q 1578 -91 968 557 
Q 359 1206 359 2328 
Q 359 3453 968 4101 
Q 1578 4750 2638 4750 
Q 3056 4750 3426 4639 
Q 3797 4528 4122 4306 
z
" transform="scale(0.015625)"/>
      <path id="DejaVuSans-4e" d="M 628 4666 
L 1478 4666 
L 3547 763 
L 3547 4666 
L 4159 4666 
L 4159 0 
L 3309 0 
L 1241 3903 
L 1241 0 
L 628 0 
L 628 4666 
z
" transform="scale(0.015625)"/>
      <path id="DejaVuSans-5f" d="M 3263 -1063 
L 3263 -1509 
L -63 -1509 
L -63 -1063 
L 3263 -1063 
z
" transform="scale(0.015625)"/>
      <path id="DejaVuSans-6e" d="M 3513 2113 
L 3513 0 
L 2938 0 
L 2938 2094 
Q 2938 2591 2744 2837 
Q 2550 3084 2163 3084 
Q 1697 3084 1428 2787 
Q 1159 2491 1159 1978 
L 1159 0 
L 581 0 
L 581 3500 
L 1159 3500 
L 1159 2956 
Q 1366 3272 1645 3428 
Q 1925 3584 2291 3584 
Q 2894 3584 3203 3211 
Q 3513 2838 3513 2113 
z
" transform="scale(0.015625)"/>
      <path id="DejaVuSans-67" d="M 2906 1791 
Q 2906 2416 2648 2759 
Q 2391 3103 1925 3103 
Q 1463 3103 1205 2759 
Q 947 2416 947 1791 
Q 947 1169 1205 825 
Q 1463 481 1925 481 
Q 2391 481 2648 825 
Q 2906 1169 2906 1791 
z
M 3481 434 
Q 3481 -459 3084 -895 
Q 2688 -1331 1869 -1331 
Q 1566 -1331 1297 -1286 
Q 1028 -1241 775 -1147 
L 775 -588 
Q 1028 -725 1275 -790 
Q 1522 -856 1778 -856 
Q 2344 -856 2625 -561 
Q 2906 -266 2906 331 
L 2906 616 
Q 2728 306 2450 153 
Q 2172 0 1784 0 
Q 1141 0 747 490 
Q 353 981 353 1791 
Q 353 2603 747 3093 
Q 1141 3584 1784 3584 
Q 2172 3584 2450 3431 
Q 2728 3278 2906 2969 
L 2906 3500 
L 3481 3500 
L 3481 434 
z
" transform="scale(0.015625)"/>
     </defs>
     <use xlink:href="#DejaVuSans-43"/>
     <use xlink:href="#DejaVuSans-4e" x="69.824219"/>
     <use xlink:href="#DejaVuSans-52" x="144.628906"/>
     <use xlink:href="#DejaVuSans-5f" x="214.111328"/>
     <use xlink:href="#DejaVuSans-63" x="264.111328"/>
     <use xlink:href="#DejaVuSans-68" x="319.091797"/>
     <use xlink:href="#DejaVuSans-61" x="382.470703"/>
     <use xlink:href="#DejaVuSans-6e" x="443.75"/>
     <use xlink:href="#DejaVuSans-67" x="507.128906"/>
     <use xlink:href="#DejaVuSans-65" x="570.605469"/>
     <use xlink:href="#DejaVuSans-20" x="632.128906"/>
     <use xlink:href="#DejaVuSans-3d" x="663.916016"/>
     <use xlink:href="#DejaVuSans-20" x="747.705078"/>
     <use xlink:href="#DejaVuSans-31" x="779.492188"/>
    </g>
   </g>
  </g>
  <g id="legend_1"/>
 </g>
 <defs>
  <clipPath id="p699fa0f362">
   <rect x="43.78125" y="20.798437" width="222.769561" height="221.32"/>
  </clipPath>
 </defs>
</svg>
